<!-- Generated by IcoMoon.io -->
<svg version="1.1" xmlns="http://www.w3.org/2000/svg" width="43" height="32" viewBox="0 0 43 32">
<title>access-point-network</title>
<path d="M8.764 5.209c-3.218 3.218-5.209 7.662-5.209 12.569s1.991 9.351 5.209 12.569l2.507-2.507c-2.578-2.56-4.16-6.116-4.16-10.062 0-3.929 1.582-7.502 4.16-10.062l-2.507-2.507M33.902 5.209l-2.507 2.507c2.578 2.56 4.16 6.133 4.16 10.062 0 3.947-1.582 7.502-4.16 10.062l2.507 2.507c3.218-3.218 5.209-7.662 5.209-12.569s-1.991-9.351-5.209-12.569M13.796 10.24c-1.938 1.938-3.129 4.604-3.129 7.538s1.191 5.6 3.129 7.538l2.507-2.507c-1.28-1.28-2.080-3.058-2.080-5.031s0.8-3.751 2.080-5.031l-2.507-2.507M28.871 10.24l-2.507 2.507c1.28 1.28 2.080 3.058 2.080 5.031s-0.8 3.751-2.080 5.031l2.507 2.507c1.938-1.938 3.129-4.604 3.129-7.538s-1.191-5.6-3.129-7.538M21.333 14.222c-1.956 0-3.556 1.6-3.556 3.556s1.6 3.556 3.556 3.556 3.556-1.6 3.556-3.556-1.6-3.556-3.556-3.556M19.556 24.889v7.111h-1.778c-0.978 0-1.778 0.8-1.778 1.778h-12.444v3.556h12.444c0 0.978 0.8 1.778 1.778 1.778h7.111c0.978 0 1.778-0.8 1.778-1.778h12.444v-3.556h-12.444c0-0.978-0.8-1.778-1.778-1.778h-1.778v-7.111h-3.556z"></path>
</svg>
