<!-- Generated by IcoMoon.io -->
<svg version="1.1" xmlns="http://www.w3.org/2000/svg" width="43" height="32" viewBox="0 0 43 32">
<title>account-multiple</title>
<path d="M28.444 23.111c-0.516 0-1.102 0-1.724 0.089 2.062 1.493 3.502 3.467 3.502 6.133v4.444h10.667v-4.444c0-4.142-8.302-6.222-12.444-6.222M14.222 23.111c-4.142 0-12.444 2.080-12.444 6.222v4.444h24.889v-4.444c0-4.142-8.302-6.222-12.444-6.222M14.222 19.556c2.951 0 5.333-2.382 5.333-5.333s-2.382-5.333-5.333-5.333-5.333 2.382-5.333 5.333 2.382 5.333 5.333 5.333M28.444 19.556c2.951 0 5.333-2.382 5.333-5.333s-2.382-5.333-5.333-5.333-5.333 2.382-5.333 5.333 2.382 5.333 5.333 5.333z"></path>
</svg>
