<!-- Generated by IcoMoon.io -->
<svg version="1.1" xmlns="http://www.w3.org/2000/svg" width="43" height="32" viewBox="0 0 43 32">
<title>account-switch</title>
<path d="M28.444 16c4.142 0 12.444 2.080 12.444 6.222v4.444h-10.667v-4.444c0-2.667-1.44-4.64-3.484-6.133l1.707-0.089M14.222 16c4.142 0 12.444 2.080 12.444 6.222v4.444h-24.889v-4.444c0-4.142 8.302-6.222 12.444-6.222M14.222 12.444c-2.951 0-5.333-2.382-5.333-5.333s2.382-5.333 5.333-5.333 5.333 2.382 5.333 5.333-2.382 5.333-5.333 5.333M28.444 12.444c-2.951 0-5.333-2.382-5.333-5.333s2.382-5.333 5.333-5.333 5.333 2.382 5.333 5.333-2.382 5.333-5.333 5.333M16 29.778v4h10.667v-4l5.778 5.778-5.778 5.778v-4h-10.667v4l-5.778-5.778 5.778-5.778z"></path>
</svg>
