<!-- Generated by IcoMoon.io -->
<svg version="1.1" xmlns="http://www.w3.org/2000/svg" width="43" height="32" viewBox="0 0 43 32">
<title>account-multiple-outline</title>
<path d="M29.333 11.556c1.956 0 3.556 1.6 3.556 3.556s-1.6 3.556-3.556 3.556-3.556-1.6-3.556-3.556 1.6-3.556 3.556-3.556M29.333 21.333c3.431 0 6.222-2.791 6.222-6.222s-2.791-6.222-6.222-6.222-6.222 2.791-6.222 6.222 2.791 6.222 6.222 6.222M13.333 11.556c1.956 0 3.556 1.6 3.556 3.556s-1.6 3.556-3.556 3.556-3.556-1.6-3.556-3.556 1.6-3.556 3.556-3.556M13.333 21.333c3.431 0 6.222-2.791 6.222-6.222s-2.791-6.222-6.222-6.222-6.222 2.791-6.222 6.222 2.791 6.222 6.222 6.222M38.222 31.111h-13.333v-2.222c0-0.818-0.356-1.529-0.889-2.169 1.529-0.533 3.449-0.942 5.333-0.942 4.338 0 8.889 2.151 8.889 3.111M22.222 31.111h-17.778v-2.222c0-0.96 4.551-3.111 8.889-3.111s8.889 2.151 8.889 3.111M29.333 23.111c-2.133 0-5.458 0.604-8 1.778-2.542-1.191-5.867-1.778-8-1.778-3.858 0-11.556 1.92-11.556 5.778v4.889h39.111v-4.889c0-3.858-7.698-5.778-11.556-5.778z"></path>
</svg>
