<!-- Generated by IcoMoon.io -->
<svg version="1.1" xmlns="http://www.w3.org/2000/svg" width="43" height="32" viewBox="0 0 43 32">
<title>account-box-outline</title>
<path d="M33.778 33.778h-24.889v-24.889h24.889M33.778 5.333h-24.889c-1.956 0-3.556 1.6-3.556 3.556v24.889c0 1.956 1.6 3.556 3.556 3.556h24.889c1.956 0 3.556-1.6 3.556-3.556v-24.889c0-1.973-1.6-3.556-3.556-3.556M29.333 28.889c0-2.667-5.333-4-8-4s-8 1.333-8 4v1.333h16M21.333 21.778c2.204 0 4-1.796 4-4s-1.796-4-4-4-4 1.796-4 4 1.796 4 4 4z"></path>
</svg>
