<!-- Generated by IcoMoon.io -->
<svg version="1.1" xmlns="http://www.w3.org/2000/svg" width="43" height="32" viewBox="0 0 43 32">
<title>account-settings-variant</title>
<path d="M16 7.111c-3.929 0-7.111 3.182-7.111 7.111s3.182 7.111 7.111 7.111 7.111-3.182 7.111-7.111-3.182-7.111-7.111-7.111M16 24.889c-4.747 0-14.222 2.364-14.222 7.111v3.556h19.698c-0.089-0.587-0.142-1.173-0.142-1.778 0-2.667 0.889-5.333 2.507-7.467-2.72-0.924-5.742-1.422-7.84-1.422M32 24.889c-0.231 0-0.427 0.16-0.462 0.373l-0.338 2.347c-0.533 0.231-1.049 0.516-1.511 0.836l-2.204-0.889c-0.196 0-0.427 0-0.551 0.231l-1.778 3.076c-0.107 0.196-0.071 0.427 0.107 0.569l1.884 1.458c-0.036 0.302-0.053 0.587-0.053 0.889s0.018 0.587 0.053 0.889l-1.884 1.458c-0.16 0.142-0.213 0.373-0.107 0.569l1.778 3.076c0.107 0.231 0.338 0.231 0.551 0.231l2.204-0.889c0.462 0.32 0.96 0.622 1.511 0.836l0.338 2.347c0.036 0.213 0.213 0.373 0.462 0.373h3.556c0.196 0 0.391-0.16 0.427-0.373l0.338-2.347c0.533-0.231 1.013-0.516 1.493-0.836l2.187 0.889c0.231 0 0.462 0 0.587-0.231l1.778-3.076c0.107-0.196 0.053-0.427-0.107-0.569l-1.902-1.458c0.036-0.302 0.071-0.587 0.071-0.889s-0.018-0.587-0.071-0.889l1.884-1.458c0.16-0.142 0.213-0.373 0.107-0.569l-1.778-3.076c-0.107-0.231-0.338-0.231-0.569-0.231l-2.187 0.889c-0.48-0.32-0.96-0.622-1.511-0.836l-0.338-2.347c-0.018-0.213-0.213-0.373-0.409-0.373M33.778 31.111c1.476 0 2.667 1.191 2.667 2.667s-1.191 2.667-2.667 2.667c-1.493 0-2.667-1.191-2.667-2.667s1.191-2.667 2.667-2.667z"></path>
</svg>
