<!-- Generated by IcoMoon.io -->
<svg version="1.1" xmlns="http://www.w3.org/2000/svg" width="43" height="32" viewBox="0 0 43 32">
<title>account-multiple-minus</title>
<path d="M23.111 23.111c-3.556 0-10.667 1.778-10.667 5.333v3.556h21.333v-3.556c0-3.556-7.111-5.333-10.667-5.333M34.88 23.396c1.476 1.28 2.453 2.951 2.453 5.049v3.556h5.333v-3.556c0-2.738-4.213-4.444-7.787-5.049M23.111 19.556c2.951 0 5.333-2.382 5.333-5.333s-2.382-5.333-5.333-5.333-5.333 2.382-5.333 5.333 2.382 5.333 5.333 5.333M32 19.556c2.951 0 5.333-2.382 5.333-5.333s-2.382-5.333-5.333-5.333c-0.569 0-1.12 0.089-1.636 0.249 1.013 1.44 1.636 3.2 1.636 5.084s-0.622 3.627-1.636 5.067c0.516 0.178 1.067 0.267 1.636 0.267M14.222 17.778h-14.222v3.556h14.222v-3.556z"></path>
</svg>
