<!-- Generated by IcoMoon.io -->
<svg version="1.1" xmlns="http://www.w3.org/2000/svg" width="43" height="32" viewBox="0 0 43 32">
<title>account-remove</title>
<path d="M26.667 24.889c4.747 0 14.222 2.364 14.222 7.111v3.556h-28.444v-3.556c0-4.747 9.476-7.111 14.222-7.111M26.667 21.333c-3.929 0-7.111-3.182-7.111-7.111s3.182-7.111 7.111-7.111 7.111 3.182 7.111 7.111-3.182 7.111-7.111 7.111M8.889 17.049l3.769-3.787 2.524 2.524-3.787 3.769 3.787 3.769-2.524 2.524-3.769-3.787-3.769 3.787-2.524-2.524 3.787-3.769-3.787-3.769 2.524-2.524 3.769 3.787z"></path>
</svg>
