<!-- Generated by IcoMoon.io -->
<svg version="1.1" xmlns="http://www.w3.org/2000/svg" width="43" height="32" viewBox="0 0 43 32">
<title>account-box</title>
<path d="M10.667 30.222c0-3.556 7.111-5.511 10.667-5.511s10.667 1.956 10.667 5.511v1.778h-21.333M26.667 16c0 2.951-2.382 5.333-5.333 5.333s-5.333-2.382-5.333-5.333 2.382-5.333 5.333-5.333 5.333 2.382 5.333 5.333M5.333 8.889v24.889c0 1.956 1.6 3.556 3.556 3.556h24.889c1.956 0 3.556-1.6 3.556-3.556v-24.889c0-1.956-1.6-3.556-3.556-3.556h-24.889c-1.973 0-3.556 1.6-3.556 3.556z"></path>
</svg>
