<!-- Generated by IcoMoon.io -->
<svg version="1.1" xmlns="http://www.w3.org/2000/svg" width="43" height="32" viewBox="0 0 43 32">
<title>account-card-details</title>
<path d="M3.556 5.333h35.556c1.867 0 3.556 1.689 3.556 3.556v24.889c0 1.867-1.689 3.556-3.556 3.556h-35.556c-1.867 0-3.556-1.689-3.556-3.556v-24.889c0-1.867 1.689-3.556 3.556-3.556M24.889 10.667v1.778h14.222v-1.778h-14.222M24.889 14.222v1.778h14.222v-1.778h-14.222M24.889 17.778v1.778h12.444v-1.778h-12.444M14.222 24.729c-3.556 0-10.667 1.938-10.667 5.493v1.778h21.333v-1.778c0-3.556-7.111-5.493-10.667-5.493M14.222 10.667c-2.951 0-5.333 2.382-5.333 5.333s2.382 5.333 5.333 5.333 5.333-2.382 5.333-5.333-2.382-5.333-5.333-5.333z"></path>
</svg>
