<!-- Generated by IcoMoon.io -->
<svg version="1.1" xmlns="http://www.w3.org/2000/svg" width="43" height="32" viewBox="0 0 43 32">
<title>account-circle</title>
<path d="M21.333 34.133c-4.444 0-8.373-2.276-10.667-5.689 0.053-3.556 7.111-5.511 10.667-5.511s10.613 1.956 10.667 5.511c-2.293 3.413-6.222 5.689-10.667 5.689M21.333 8.889c2.951 0 5.333 2.382 5.333 5.333s-2.382 5.333-5.333 5.333-5.333-2.382-5.333-5.333 2.382-5.333 5.333-5.333M21.333 3.556c-9.813 0-17.778 7.964-17.778 17.778s7.964 17.778 17.778 17.778 17.778-7.964 17.778-17.778c0-9.831-8-17.778-17.778-17.778z"></path>
</svg>
