<!-- Generated by IcoMoon.io -->
<svg version="1.1" xmlns="http://www.w3.org/2000/svg" width="43" height="32" viewBox="0 0 43 32">
<title>account-outline</title>
<path d="M21.333 23.111c-4.747 0-14.222 2.364-14.222 7.111v5.333h28.444v-5.333c0-4.747-9.476-7.111-14.222-7.111M21.333 7.111c-3.929 0-7.111 3.182-7.111 7.111s3.182 7.111 7.111 7.111 7.111-3.182 7.111-7.111-3.182-7.111-7.111-7.111M21.333 26.489c5.28 0 10.844 2.596 10.844 3.733v1.956h-21.689v-1.956c0-1.138 5.511-3.733 10.844-3.733M21.333 10.489c2.062 0 3.733 1.671 3.733 3.733s-1.671 3.733-3.733 3.733c-2.062 0-3.733-1.671-3.733-3.733s1.671-3.733 3.733-3.733z"></path>
</svg>
