<!-- Generated by IcoMoon.io -->
<svg version="1.1" xmlns="http://www.w3.org/2000/svg" width="43" height="32" viewBox="0 0 43 32">
<title>account-network</title>
<path d="M23.111 28.444v3.556h1.778c0.978 0 1.778 0.8 1.778 1.778h12.444v3.556h-12.444c0 0.978-0.8 1.778-1.778 1.778h-7.111c-0.978 0-1.778-0.8-1.778-1.778h-12.444v-3.556h12.444c0-0.978 0.8-1.778 1.778-1.778h1.778v-3.556h-10.667v-2.667c0-3.431 5.564-6.222 12.444-6.222s12.444 2.791 12.444 6.222v2.667h-10.667M21.333 3.556c3.431 0 6.222 2.791 6.222 6.222s-2.791 6.222-6.222 6.222-6.222-2.791-6.222-6.222 2.791-6.222 6.222-6.222z"></path>
</svg>
