<!-- Generated by IcoMoon.io -->
<svg version="1.1" xmlns="http://www.w3.org/2000/svg" width="43" height="32" viewBox="0 0 43 32">
<title>account-search</title>
<path d="M16.889 5.333c6.382 0 11.556 5.173 11.556 11.556 0 2.862-1.049 5.493-2.791 7.52l0.498 0.48h1.404l8.889 8.889-2.667 2.667-8.889-8.889v-1.404l-0.48-0.498c-2.027 1.742-4.658 2.791-7.52 2.791-6.382 0-11.556-5.173-11.556-11.556s5.173-11.556 11.556-11.556M16.889 24.889c2.862 0 5.333-1.511 6.791-3.769-1.458-2.009-3.929-3.342-6.791-3.342s-5.333 1.333-6.791 3.342c1.458 2.258 3.929 3.769 6.791 3.769M16.889 8.889c-1.724 0-3.111 1.387-3.111 3.111s1.387 3.111 3.111 3.111 3.111-1.387 3.111-3.111-1.387-3.111-3.111-3.111z"></path>
</svg>
