<!-- Generated by IcoMoon.io -->
<svg version="1.1" xmlns="http://www.w3.org/2000/svg" width="43" height="32" viewBox="0 0 43 32">
<title>account-edit</title>
<path d="M38.578 23.733l-1.778 1.778-3.644-3.644 1.778-1.778c0.373-0.373 0.996-0.373 1.369 0l2.276 2.276c0.373 0.373 0.373 0.996 0 1.369M21.333 33.671l10.773-10.773 3.644 3.644-10.756 10.791h-3.662v-3.662M21.333 24.889c-7.858 0-14.222 3.182-14.222 7.111v3.556h10.667v-3.36l7.111-7.111c-1.173-0.142-2.364-0.196-3.556-0.196M21.333 7.111c-3.929 0-7.111 3.182-7.111 7.111s3.182 7.111 7.111 7.111 7.111-3.182 7.111-7.111-3.182-7.111-7.111-7.111z"></path>
</svg>
