<!-- Generated by IcoMoon.io -->
<svg version="1.1" xmlns="http://www.w3.org/2000/svg" width="43" height="32" viewBox="0 0 43 32">
<title>account-key</title>
<path d="M19.556 17.778v3.556h-1.778v3.556h-3.556v-3.556h-3.858c-0.729 2.080-2.702 3.556-5.031 3.556-2.951 0-5.333-2.382-5.333-5.333s2.382-5.333 5.333-5.333c2.329 0 4.302 1.476 5.031 3.556h9.191M5.333 17.778c-0.978 0-1.778 0.8-1.778 1.778s0.8 1.778 1.778 1.778 1.778-0.8 1.778-1.778-0.8-1.778-1.778-1.778M28.444 24.889c4.747 0 14.222 2.382 14.222 7.111v3.556h-28.444v-3.556c0-4.729 9.476-7.111 14.222-7.111M28.444 21.333c-3.929 0-7.111-3.182-7.111-7.111s3.182-7.111 7.111-7.111 7.111 3.182 7.111 7.111-3.182 7.111-7.111 7.111z"></path>
</svg>
