<!-- Generated by IcoMoon.io -->
<svg version="1.1" xmlns="http://www.w3.org/2000/svg" width="43" height="32" viewBox="0 0 43 32">
<title>adjust</title>
<path d="M21.333 3.556c-9.813 0-17.778 7.964-17.778 17.778s7.964 17.778 17.778 17.778 17.778-7.964 17.778-17.778-7.964-17.778-17.778-17.778M21.333 35.556c-7.84 0-14.222-6.382-14.222-14.222s6.382-14.222 14.222-14.222 14.222 6.382 14.222 14.222-6.382 14.222-14.222 14.222M26.667 21.333c0 2.951-2.382 5.333-5.333 5.333s-5.333-2.382-5.333-5.333 2.382-5.333 5.333-5.333 5.333 2.382 5.333 5.333z"></path>
</svg>
