<!-- Generated by IcoMoon.io -->
<svg version="1.1" xmlns="http://www.w3.org/2000/svg" width="43" height="32" viewBox="0 0 43 32">
<title>air-conditioner</title>
<path d="M11.716 1.173c4.16-3.218 8.676 0.711 9.689 6.827 0.764 0 1.511 0.213 2.187 0.604 0.924-1.067 1.742-2.524 1.422-4.16-0.747-3.822 3.538-6.916 7.609-1.636 3.218 4.16-0.711 8.676-6.844 9.689 0 0.764-0.196 1.529-0.604 2.204 1.067 0.907 2.524 1.724 4.16 1.404 3.787-0.747 6.898 3.52 1.618 7.609-4.16 3.218-8.676-0.711-9.689-6.827-0.764 0-1.511-0.231-2.169-0.622-0.924 1.067-1.76 2.542-1.44 4.178 0.747 3.804-3.538 6.916-7.609 1.636-3.236-4.178 0.711-8.693 6.844-9.689 0-0.764 0.231-1.511 0.622-2.187-1.067-0.907-2.524-1.742-4.178-1.422-3.787 0.747-6.898-3.52-1.618-7.609M8.889 28.444h3.556c1.956 0 3.556 1.6 3.556 3.556v10.667h-3.556v-3.556h-3.556v3.556h-3.556v-10.667c0-1.956 1.6-3.556 3.556-3.556M8.889 32v3.556h3.556v-3.556h-3.556M22.987 28.444h3.68l-5.209 14.222h-3.68l5.209-14.222M32 28.444h5.333v3.556h-5.333v7.111h5.333v3.556h-5.333c-1.956 0-3.556-1.6-3.556-3.556v-7.111c0-1.956 1.6-3.556 3.556-3.556z"></path>
</svg>
