<!-- Generated by IcoMoon.io -->
<svg version="1.1" xmlns="http://www.w3.org/2000/svg" width="43" height="32" viewBox="0 0 43 32">
<title>airballoon</title>
<path d="M19.556 40.889c-1.956 0-3.556-1.6-3.556-3.556v-3.556h10.667v3.556c0 1.956-1.6 3.556-3.556 3.556h-3.556M21.333 1.778c1.262 0 2.471 0.16 3.644 0.462 2.080 2.791 3.467 7.911 3.467 13.76 0 4.053-0.676 7.769-1.778 12.444 0 1.956-1.6 3.556-3.556 3.556h-3.556c-1.956 0-3.556-1.6-3.556-3.556-1.102-4.676-1.778-8.391-1.778-12.444 0-5.849 1.387-10.969 3.467-13.76 1.173-0.302 2.382-0.462 3.644-0.462M35.556 14.222c0 5.653-3.289 14.080-8.071 16.373 1.689-3.236 2.738-9.564 2.738-14.596s-1.049-9.582-2.738-12.818c4.782 2.293 8.071 5.387 8.071 11.040M7.111 14.222c0-5.653 3.289-8.747 8.071-11.040-1.689 3.236-2.738 7.787-2.738 12.818s1.049 11.36 2.738 14.596c-4.782-2.293-8.071-10.72-8.071-16.373z"></path>
</svg>
