<!-- Generated by IcoMoon.io -->
<svg version="1.1" xmlns="http://www.w3.org/2000/svg" width="43" height="32" viewBox="0 0 43 32">
<title>alarm-multiple</title>
<path d="M16.516 5.778l-7.342 6.169-2.062-2.453 7.36-6.169 2.044 2.453M39.111 9.511l-2.062 2.453-7.36-6.187 2.062-2.453 7.36 6.187M23.111 7.111c7.858 0 14.222 6.364 14.222 14.222s-6.364 14.222-14.222 14.222-14.222-6.364-14.222-14.222 6.364-14.222 14.222-14.222M23.111 10.667c-5.884 0-10.667 4.782-10.667 10.667s4.782 10.667 10.667 10.667 10.667-4.782 10.667-10.667-4.782-10.667-10.667-10.667M21.333 13.333h2.667v8.053l5.724 2.613-1.102 2.418-7.289-3.307v-9.778M1.778 24.889c0-4.444 2.009-8.356 5.173-10.969-1.031 2.258-1.618 4.747-1.618 7.413l0.107 2.009-0.107 1.547c0 4.053 2.258 7.573 5.582 9.387 2.311 2.169 5.209 3.751 8.444 4.444-1.084 0.249-2.204 0.391-3.36 0.391-7.858 0-14.222-6.364-14.222-14.222z"></path>
</svg>
