<!-- Generated by IcoMoon.io -->
<svg version="1.1" xmlns="http://www.w3.org/2000/svg" width="43" height="32" viewBox="0 0 43 32">
<title>alarm</title>
<path d="M21.333 35.556c-6.88 0-12.444-5.564-12.444-12.444s5.564-12.444 12.444-12.444 12.444 5.564 12.444 12.444-5.564 12.444-12.444 12.444M21.333 7.111c-8.836 0-16 7.164-16 16s7.164 16 16 16 16-7.164 16-16-7.164-16-16-16M22.222 14.222h-2.667v10.667l8.444 5.067 1.333-2.187-7.111-4.213v-9.333M14.009 6.027l-2.276-2.72-8.178 6.844 2.293 2.72 8.16-6.844M39.111 10.169l-8.178-6.862-2.293 2.72 8.178 6.862 2.293-2.72z"></path>
</svg>
