<!-- Generated by IcoMoon.io -->
<svg version="1.1" xmlns="http://www.w3.org/2000/svg" width="43" height="32" viewBox="0 0 43 32">
<title>alarm-off</title>
<path d="M14.222 5.831l-2.489-2.524-1.529 1.262 2.524 2.542M29.28 32.693c-2.151 1.778-4.924 2.862-7.947 2.862-6.88 0-12.444-5.564-12.444-12.444 0-3.022 1.084-5.796 2.862-7.947M5.191 4.071l-2.258 2.276 2.4 2.364-2.009 1.653 2.524 2.524 1.973-1.671 1.422 1.422c-2.436 2.809-3.911 6.471-3.911 10.471 0 8.836 7.164 16 16 16 4 0 7.662-1.476 10.471-3.911l3.911 3.911 2.258-2.258-32.782-32.782M39.111 10.169l-8.178-6.862-2.293 2.72 8.178 6.862 2.293-2.72M21.333 10.667c6.88 0 12.444 5.564 12.444 12.444 0 1.493-0.284 2.933-0.764 4.267l2.702 2.702c1.031-2.116 1.618-4.462 1.618-6.969 0-8.836-7.164-16-16-16-2.507 0-4.853 0.587-6.969 1.618l2.702 2.702c1.333-0.48 2.773-0.764 4.267-0.764z"></path>
</svg>
