<!-- Generated by IcoMoon.io -->
<svg version="1.1" xmlns="http://www.w3.org/2000/svg" width="43" height="32" viewBox="0 0 43 32">
<title>all-inclusive</title>
<path d="M33.067 11.769c-2.56 0-4.978 0.996-6.702 2.72l-12.498 11.093c-1.138 1.138-2.649 1.76-4.267 1.76-3.324 0-6.044-2.684-6.044-6.009s2.72-6.009 6.044-6.009c1.618 0 3.129 0.622 4.338 1.831l2.009 1.778 2.72-2.382-2.276-1.973c-1.813-1.813-4.231-2.809-6.791-2.809-5.298 0-9.6 4.302-9.6 9.564s4.302 9.564 9.6 9.564c2.56 0 4.978-0.996 6.702-2.72l12.498-11.093c1.138-1.138 2.649-1.76 4.267-1.76 3.324 0 6.044 2.684 6.044 6.009s-2.72 6.009-6.044 6.009c-1.6 0-3.129-0.622-4.338-1.831l-2.062-1.796-2.667 2.382 2.276 1.991c1.813 1.796 4.213 2.791 6.791 2.791 5.298 0 9.6-4.284 9.6-9.547 0-5.333-4.302-9.564-9.6-9.564z"></path>
</svg>
