<!-- Generated by IcoMoon.io -->
<svg version="1.1" xmlns="http://www.w3.org/2000/svg" width="43" height="32" viewBox="0 0 43 32">
<title>alphabetical</title>
<path d="M10.667 19.556c1.956 0 3.556 1.6 3.556 3.556v7.111h-7.111c-1.956 0-3.556-1.6-3.556-3.556v-3.556c0-1.956 1.6-3.556 3.556-3.556h3.556M7.111 23.111v3.556h3.556v-3.556h-3.556M35.556 23.111v3.556h3.556v3.556h-3.556c-1.956 0-3.556-1.6-3.556-3.556v-3.556c0-1.956 1.6-3.556 3.556-3.556h3.556v3.556h-3.556M21.333 12.444v7.111h3.556c1.956 0 3.556 1.6 3.556 3.556v3.556c0 1.956-1.6 3.556-3.556 3.556h-3.556c-1.956 0-3.556-1.6-3.556-3.556v-14.222h3.556M21.333 26.667h3.556v-3.556h-3.556v3.556z"></path>
</svg>
