<!-- Generated by IcoMoon.io -->
<svg version="1.1" xmlns="http://www.w3.org/2000/svg" width="43" height="32" viewBox="0 0 43 32">
<title>alpha</title>
<path d="M32.142 31.644c-0.818 0.231-1.547 0.356-2.187 0.356-2.133 0-3.573-1.564-4.302-4.711h-0.089c-1.76 3.396-4.231 5.084-7.342 5.084-2.329 0-4.196-0.871-5.6-2.631s-2.098-3.964-2.098-6.631c0-3.111 0.8-5.6 2.382-7.538s3.733-2.916 6.453-2.916c1.458 0 2.773 0.409 3.911 1.209 1.138 0.818 2.009 1.956 2.613 3.431h0.071l1.262-4.267h4.551l-3.804 9.458c0.427 2.204 0.871 3.716 1.369 4.516 0.427 0.8 1.031 1.209 1.778 1.209 0.427 0 0.764-0.071 1.067-0.196l-0.036 3.627M24.569 22.329c-0.373-2.009-0.978-3.573-1.796-4.64-0.8-1.084-1.778-1.618-2.898-1.618-1.458 0-2.631 0.658-3.502 1.956-0.871 1.316-1.262 2.933-1.262 4.836 0 1.742 0.338 3.182 1.102 4.356 0.747 1.173 1.76 1.742 3.022 1.742 1.067 0 2.044-0.516 2.916-1.493 0.889-1.013 1.618-2.489 2.204-4.427l0.213-0.711z"></path>
</svg>
