<!-- Generated by IcoMoon.io -->
<svg version="1.1" xmlns="http://www.w3.org/2000/svg" width="43" height="32" viewBox="0 0 43 32">
<title>amazon-clouddrive</title>
<path d="M8.782 19.769c0.516 0 0.996 0.071 1.458 0.196 0.018-3.804 3.093-6.898 6.916-6.898 2.88 0 5.369 1.778 6.382 4.302 1.049-1.369 2.667-2.204 4.48-2.204 3.093 0 5.653 2.524 5.653 5.653 0 0.427-0.053 0.871-0.142 1.28 0.427-0.16 0.907-0.249 1.404-0.249 2.311 0 4.178 1.884 4.178 4.196s-1.867 4.178-4.178 4.178h-26.151c-2.88 0-5.227-2.347-5.227-5.227 0-2.898 2.347-5.227 5.227-5.227z"></path>
</svg>
