<!-- Generated by IcoMoon.io -->
<svg version="1.1" xmlns="http://www.w3.org/2000/svg" width="43" height="32" viewBox="0 0 43 32">
<title>amazon</title>
<path d="M28.32 30.382c-0.32 0.284-0.764 0.302-1.12 0.107-1.582-1.316-1.867-1.92-2.738-3.182-2.613 2.667-4.462 3.467-7.858 3.467-4 0-7.129-2.471-7.129-7.413 0-3.876 2.080-6.471 5.084-7.787 2.596-1.138 6.204-1.351 8.96-1.653v-0.587c0-1.173 0.089-2.507-0.587-3.484-0.569-0.871-1.689-1.244-2.667-1.244-1.813 0-3.431 0.942-3.822 2.862-0.089 0.427-0.444 0.853-0.836 0.871l-4.622-0.498c-0.391-0.089-0.818-0.391-0.711-0.996 1.067-5.6 6.133-7.289 10.667-7.289 2.311 0 5.333 0.622 7.164 2.364 2.311 2.169 2.116 5.067 2.116 8.213v7.413c0 2.222 0.889 3.218 1.778 4.409 0.302 0.444 0.373 0.96 0 1.262l-3.662 3.164h-0.018M23.52 18.773v-0.996c-3.449 0-7.093 0.693-7.093 4.747 0 2.062 1.084 3.467 2.898 3.467 1.351 0 2.542-0.836 3.307-2.169 0.924-1.653 0.889-3.2 0.889-5.049M35.84 34.738c-3.84 2.844-9.493 4.373-14.329 4.373-6.773 0-12.889-2.507-17.511-6.684-0.356-0.32-0.036-0.764 0.444-0.516 4.942 2.898 11.111 4.64 17.476 4.64 4.284 0 9.013-0.889 13.351-2.72 0.658-0.284 1.173 0.427 0.569 0.907M37.458 32.889c-0.498-0.64-3.289-0.302-4.569-0.142-0.338 0.036-0.391-0.284-0.053-0.533 2.204-1.564 5.849-1.102 6.276-0.587 0.427 0.533-0.124 4.178-2.204 5.902-0.32 0.284-0.622 0.124-0.462-0.196 0.462-1.191 1.511-3.804 1.013-4.444z"></path>
</svg>
