<!-- Generated by IcoMoon.io -->
<svg version="1.1" xmlns="http://www.w3.org/2000/svg" width="43" height="32" viewBox="0 0 43 32">
<title>ambulance</title>
<path d="M32 32.889c1.476 0 2.667-1.191 2.667-2.667s-1.191-2.667-2.667-2.667-2.667 1.191-2.667 2.667 1.191 2.667 2.667 2.667M34.667 16.889h-4.444v4.444h7.929l-3.484-4.444M10.667 32.889c1.476 0 2.667-1.191 2.667-2.667s-1.191-2.667-2.667-2.667-2.667 1.191-2.667 2.667 1.191 2.667 2.667 2.667M35.556 14.222l5.333 7.111v8.889h-3.556c0 2.951-2.382 5.333-5.333 5.333s-5.333-2.382-5.333-5.333h-10.667c0 2.951-2.382 5.333-5.333 5.333s-5.333-2.382-5.333-5.333h-3.556v-19.556c0-1.973 1.582-3.556 3.556-3.556h24.889v7.111h5.333M14.222 10.667v5.333h-5.333v3.556h5.333v5.333h3.556v-5.333h5.333v-3.556h-5.333v-5.333h-3.556z"></path>
</svg>
