<!-- Generated by IcoMoon.io -->
<svg version="1.1" xmlns="http://www.w3.org/2000/svg" width="43" height="32" viewBox="0 0 43 32">
<title>amplifier</title>
<path d="M17.778 3.556h7.111c0.978 0 1.778 0.8 1.778 1.778h10.667v32h-3.556c0 0.978-0.8 1.778-1.778 1.778s-1.778-0.8-1.778-1.778h-17.778c0 0.978-0.8 1.778-1.778 1.778s-1.778-0.8-1.778-1.778h-3.556v-32h10.667c0-0.978 0.8-1.778 1.778-1.778M8.889 8.889v7.111h24.889v-7.111h-24.889M12.444 10.667c0.978 0 1.778 0.8 1.778 1.778s-0.8 1.778-1.778 1.778-1.778-0.8-1.778-1.778 0.8-1.778 1.778-1.778M21.333 10.667h3.556v1.778h-3.556v-1.778M26.667 10.667h1.778v3.556h-1.778v-3.556M30.222 10.667h1.778v3.556h-1.778v-3.556M21.333 19.556c-3.929 0-7.111 3.182-7.111 7.111s3.182 7.111 7.111 7.111 7.111-3.182 7.111-7.111-3.182-7.111-7.111-7.111M17.778 10.667c0.978 0 1.778 0.8 1.778 1.778s-0.8 1.778-1.778 1.778-1.778-0.8-1.778-1.778 0.8-1.778 1.778-1.778z"></path>
</svg>
