<!-- Generated by IcoMoon.io -->
<svg version="1.1" xmlns="http://www.w3.org/2000/svg" width="43" height="32" viewBox="0 0 43 32">
<title>anchor</title>
<path d="M21.333 3.556c-2.951 0-5.333 2.382-5.333 5.333 0 2.258 1.422 4.267 3.556 5.031v3.858h-5.333v3.556h5.333v12.302c-3.271-0.516-6.169-2.4-7.947-5.191h2.613v-3.556h-8.889v8.889h3.556v-3.022c2.809 4.107 7.467 6.578 12.444 6.578s9.636-2.471 12.444-6.56v3.004h3.556v-8.889h-8.889v3.556h2.596c-1.778 2.773-4.676 4.676-7.929 5.191v-12.302h5.333v-3.556h-5.333v-3.876c2.133-0.747 3.556-2.756 3.556-5.013 0-2.951-2.382-5.333-5.333-5.333M21.333 7.111c0.978 0 1.778 0.8 1.778 1.778s-0.8 1.778-1.778 1.778-1.778-0.8-1.778-1.778 0.8-1.778 1.778-1.778z"></path>
</svg>
