<!-- Generated by IcoMoon.io -->
<svg version="1.1" xmlns="http://www.w3.org/2000/svg" width="43" height="32" viewBox="0 0 43 32">
<title>android</title>
<path d="M26.667 8.889h-1.778v-1.778h1.778M17.778 8.889h-1.778v-1.778h1.778M27.609 3.84l2.329-2.329c0.338-0.338 0.338-0.907 0-1.262-0.356-0.338-0.924-0.338-1.262 0l-2.631 2.631c-1.422-0.693-3.022-1.102-4.711-1.102-1.707 0-3.307 0.409-4.729 1.12l-2.649-2.649c-0.338-0.338-0.907-0.338-1.244 0-0.356 0.356-0.356 0.924 0 1.262l2.329 2.329c-2.649 1.956-4.373 5.049-4.373 8.604h21.333c0-3.556-1.778-6.667-4.391-8.604M36.444 14.222c-1.476 0-2.667 1.191-2.667 2.667v12.444c0 1.476 1.191 2.667 2.667 2.667s2.667-1.191 2.667-2.667v-12.444c0-1.476-1.191-2.667-2.667-2.667M6.222 14.222c-1.476 0-2.667 1.191-2.667 2.667v12.444c0 1.476 1.191 2.667 2.667 2.667s2.667-1.191 2.667-2.667v-12.444c0-1.476-1.191-2.667-2.667-2.667M10.667 32c0 0.978 0.8 1.778 1.778 1.778h1.778v6.222c0 1.476 1.191 2.667 2.667 2.667s2.667-1.191 2.667-2.667v-6.222h3.556v6.222c0 1.476 1.191 2.667 2.667 2.667s2.667-1.191 2.667-2.667v-6.222h1.778c0.978 0 1.778-0.8 1.778-1.778v-17.778h-21.333v17.778z"></path>
</svg>
