<!-- Generated by IcoMoon.io -->
<svg version="1.1" xmlns="http://www.w3.org/2000/svg" width="43" height="32" viewBox="0 0 43 32">
<title>android-studio</title>
<path d="M19.556 3.556h3.556v3.556h0.889c1.476 0 2.667 1.191 2.667 2.667v6.222l-0.782 0.782 2.916 5.049c1.973-1.938 3.2-4.622 3.2-7.609h3.556c0 4.302-1.902 8.16-4.924 10.773l5.582 9.671 0.231 3.947-3.324-2.169-5.458-9.476c-1.884 0.942-4.053 1.476-6.329 1.476s-4.444-0.533-6.329-1.476l-5.458 9.476-3.324 2.169 0.231-3.947 10.329-17.884-0.782-0.782v-6.222c0-1.476 1.191-2.667 2.667-2.667h0.889v-3.556M16.782 23.876c1.387 0.658 2.933 1.013 4.551 1.013s3.164-0.356 4.551-1.013l-2.596-4.498h-0.018c-1.102 1.067-2.773 1.067-3.876 0h-0.018l-2.596 4.498M21.333 10.667c-0.978 0-1.778 0.8-1.778 1.778s0.8 1.778 1.778 1.778 1.778-0.8 1.778-1.778-0.8-1.778-1.778-1.778z"></path>
</svg>
