<!-- Generated by IcoMoon.io -->
<svg version="1.1" xmlns="http://www.w3.org/2000/svg" width="43" height="32" viewBox="0 0 43 32">
<title>android-debug-bridge</title>
<path d="M26.667 16c-0.978 0-1.778-0.8-1.778-1.778s0.8-1.778 1.778-1.778 1.778 0.8 1.778 1.778-0.8 1.778-1.778 1.778M16 16c-0.978 0-1.778-0.8-1.778-1.778s0.8-1.778 1.778-1.778 1.778 0.8 1.778 1.778-0.8 1.778-1.778 1.778M28.658 7.769l3.733-3.733-1.458-1.476-4.107 4.107c-1.653-0.836-3.52-1.333-5.493-1.333-1.991 0-3.84 0.498-5.493 1.333l-4.107-4.107-1.458 1.476 3.733 3.733c-3.093 2.258-5.12 5.884-5.12 10.009v1.778h24.889v-1.778c0-4.124-2.027-7.751-5.12-10.009M8.889 28.444c0 6.862 5.564 12.444 12.444 12.444s12.444-5.564 12.444-12.444v-7.111h-24.889v7.111z"></path>
</svg>
