<!-- Generated by IcoMoon.io -->
<svg version="1.1" xmlns="http://www.w3.org/2000/svg" width="43" height="32" viewBox="0 0 43 32">
<title>animation</title>
<path d="M7.111 3.556c-1.973 0-3.556 1.582-3.556 3.556v17.778h3.556v-17.778h17.778v-3.556h-17.778M14.222 10.667c-1.973 0-3.556 1.582-3.556 3.556v17.778h3.556v-17.778h17.778v-3.556h-17.778M21.333 17.778c-1.973 0-3.556 1.582-3.556 3.556v14.222c0 1.973 1.582 3.556 3.556 3.556h14.222c1.973 0 3.556-1.582 3.556-3.556v-14.222c0-1.973-1.582-3.556-3.556-3.556h-14.222z"></path>
</svg>
