<!-- Generated by IcoMoon.io -->
<svg version="1.1" xmlns="http://www.w3.org/2000/svg" width="43" height="32" viewBox="0 0 43 32">
<title>apple-finder</title>
<path d="M7.111 7.111h14.027c1.013-1.938 2.204-3.769 3.627-5.333l1.973 1.973c-0.764 1.049-1.44 2.187-2.044 3.36h10.862c1.956 0 3.556 1.6 3.556 3.556v23.111c0 1.956-1.6 3.556-3.556 3.556h-9.013l0.587 2.187-3.253 1.28-0.889-3.467h-15.876c-1.956 0-3.556-1.6-3.556-3.556v-23.111c0-1.956 1.6-3.556 3.556-3.556M7.111 10.667v23.111h15.182c-0.071-0.587-0.178-1.173-0.249-1.778h-0.711c-4.889 0-9.28-0.889-12.213-2.204l1.618-2.916c1.707 0.924 5.564 1.564 10.596 1.564h0.427c-0.053-1.191-0.036-2.382 0.053-3.556h-5.813s0.711-7.164 3.556-14.222h-12.444M35.556 33.778v-23.111h-12.444c-1.6 3.947-2.524 7.929-3.022 10.667h5.102c-0.302 2.276-0.356 4.658-0.196 6.987 3.218-0.231 5.671-0.764 6.933-1.44l1.618 2.916c-2.098 0.96-4.924 1.671-8.142 2.009 0.107 0.676 0.213 1.333 0.373 1.973h9.778M10.667 14.222h3.556v5.333h-3.556v-5.333M28.444 14.222h3.556v5.333h-3.556v-5.333z"></path>
</svg>
