<!-- Generated by IcoMoon.io -->
<svg version="1.1" xmlns="http://www.w3.org/2000/svg" width="43" height="32" viewBox="0 0 43 32">
<title>apple-mobileme</title>
<path d="M39.111 26.738c0 3.893-3.129 7.040-6.987 7.040h-21.582c-3.858 0-6.987-3.147-6.987-7.040 0-3.502 2.542-6.4 5.884-6.933-0.053-0.249-0.071-0.498-0.071-0.764 0-2.453 1.973-4.462 4.427-4.462 1.084 0 2.098 0.409 2.862 1.067 1.369-3.111 3.129-5.973 8.071-5.973 5.991 0 8.818 4.658 8.818 9.582 0 0.196 0 0.409-0.018 0.604 3.182 0.658 5.582 3.484 5.582 6.88z"></path>
</svg>
