<!-- Generated by IcoMoon.io -->
<svg version="1.1" xmlns="http://www.w3.org/2000/svg" width="43" height="32" viewBox="0 0 43 32">
<title>apple-safari</title>
<path d="M21.333 3.556c9.813 0 17.778 7.964 17.778 17.778s-7.964 17.778-17.778 17.778-17.778-7.964-17.778-17.778 7.964-17.778 17.778-17.778M21.333 7.111c-7.858 0-14.222 6.364-14.222 14.222 0 3.716 1.422 7.111 3.751 9.618l6.702-13.387 13.387-6.702c-2.507-2.329-5.902-3.751-9.618-3.751M21.333 35.556c7.858 0 14.222-6.364 14.222-14.222 0-3.716-1.422-7.111-3.751-9.618l-6.702 13.387-13.387 6.702c2.507 2.329 5.902 3.751 9.618 3.751M21.333 21.333l-1.369-1.369-2.72 5.458 5.458-2.72-1.369-1.369M21.333 31.111h1.778v2.667h-1.778v-2.667M28.231 28.249l1.262-1.262 1.884 1.884-1.262 1.262-1.884-1.884M31.111 21.333v-1.778h2.667v1.778h-2.667M21.333 11.556h-1.778v-2.667h1.778v2.667M14.436 14.418l-1.262 1.262-1.884-1.884 1.262-1.262 1.884 1.884M11.556 21.333v1.778h-2.667v-1.778h2.667z"></path>
</svg>
