<!-- Generated by IcoMoon.io -->
<svg version="1.1" xmlns="http://www.w3.org/2000/svg" width="43" height="32" viewBox="0 0 43 32">
<title>apple</title>
<path d="M33.262 34.667c-1.476 2.204-3.040 4.356-5.422 4.391-2.382 0.053-3.147-1.404-5.849-1.404-2.72 0-3.556 1.369-5.813 1.458-2.329 0.089-4.089-2.347-5.582-4.498-3.040-4.391-5.369-12.48-2.24-17.92 1.547-2.702 4.32-4.409 7.324-4.462 2.276-0.036 4.444 1.547 5.849 1.547 1.387 0 4.018-1.902 6.773-1.618 1.156 0.053 4.391 0.462 6.471 3.52-0.16 0.107-3.858 2.276-3.822 6.773 0.053 5.369 4.711 7.164 4.764 7.182-0.053 0.124-0.747 2.56-2.453 5.031M23.111 6.222c1.298-1.476 3.449-2.596 5.227-2.667 0.231 2.080-0.604 4.178-1.849 5.671-1.227 1.511-3.253 2.684-5.244 2.524-0.267-2.044 0.729-4.178 1.867-5.529z"></path>
</svg>
