<!-- Generated by IcoMoon.io -->
<svg version="1.1" xmlns="http://www.w3.org/2000/svg" width="43" height="32" viewBox="0 0 43 32">
<title>apple-keyboard-command</title>
<path d="M10.667 3.556c3.929 0 7.111 3.182 7.111 7.111v3.556h7.111v-3.556c0-3.929 3.182-7.111 7.111-7.111s7.111 3.182 7.111 7.111-3.182 7.111-7.111 7.111h-3.556v7.111h3.556c3.929 0 7.111 3.182 7.111 7.111s-3.182 7.111-7.111 7.111-7.111-3.182-7.111-7.111v-3.556h-7.111v3.556c0 3.929-3.182 7.111-7.111 7.111s-7.111-3.182-7.111-7.111 3.182-7.111 7.111-7.111h3.556v-7.111h-3.556c-3.929 0-7.111-3.182-7.111-7.111s3.182-7.111 7.111-7.111M28.444 32c0 1.956 1.6 3.556 3.556 3.556s3.556-1.6 3.556-3.556-1.6-3.556-3.556-3.556h-3.556v3.556M24.889 17.778h-7.111v7.111h7.111v-7.111M10.667 28.444c-1.956 0-3.556 1.6-3.556 3.556s1.6 3.556 3.556 3.556 3.556-1.6 3.556-3.556v-3.556h-3.556M14.222 10.667c0-1.956-1.6-3.556-3.556-3.556s-3.556 1.6-3.556 3.556 1.6 3.556 3.556 3.556h3.556v-3.556M32 14.222c1.956 0 3.556-1.6 3.556-3.556s-1.6-3.556-3.556-3.556-3.556 1.6-3.556 3.556v3.556h3.556z"></path>
</svg>
