<!-- Generated by IcoMoon.io -->
<svg version="1.1" xmlns="http://www.w3.org/2000/svg" width="43" height="32" viewBox="0 0 43 32">
<title>apple-ios</title>
<path d="M35.556 16v-3.556h-7.111c-1.956 0-3.556 1.6-3.556 3.556v3.556c0 1.956 1.6 3.556 3.556 3.556h3.556v3.556h-7.111v3.556h7.111c1.956 0 3.556-1.6 3.556-3.556v-3.556c0-1.956-1.6-3.556-3.556-3.556h-3.556v-3.556M19.556 26.667h-3.556v-10.667h3.556M19.556 12.444h-3.556c-1.956 0-3.556 1.6-3.556 3.556v10.667c0 1.956 1.6 3.556 3.556 3.556h3.556c1.956 0 3.556-1.6 3.556-3.556v-10.667c0-1.956-1.6-3.556-3.556-3.556M7.111 30.222h3.556v-10.667h-3.556M7.111 16h3.556v-3.556h-3.556v3.556z"></path>
</svg>
