<!-- Generated by IcoMoon.io -->
<svg version="1.1" xmlns="http://www.w3.org/2000/svg" width="43" height="32" viewBox="0 0 43 32">
<title>arrow-all</title>
<path d="M23.111 19.556h8.889l-2.667-2.667 2.524-2.524 6.969 6.969-6.969 6.969-2.524-2.524 2.667-2.667h-8.889v8.889l2.667-2.667 2.524 2.524-6.969 6.969-6.969-6.969 2.524-2.524 2.667 2.667v-8.889h-8.889l2.667 2.667-2.524 2.524-6.969-6.969 6.969-6.969 2.524 2.524-2.667 2.667h8.889v-8.889l-2.667 2.667-2.524-2.524 6.969-6.969 6.969 6.969-2.524 2.524-2.667-2.667v8.889z"></path>
</svg>
