<!-- Generated by IcoMoon.io -->
<svg version="1.1" xmlns="http://www.w3.org/2000/svg" width="43" height="32" viewBox="0 0 43 32">
<title>at</title>
<path d="M30.969 26.667c0.658-1.618 1.031-3.431 1.031-5.333 0-6.88-4.782-12.444-10.667-12.444s-10.667 5.564-10.667 12.444 4.782 12.444 10.667 12.444c2.738 0 5.333 0 7.111-1.387v4.142c-1.778 0.8-4.516 0.8-7.111 0.8-7.858 0-14.222-7.164-14.222-16s6.364-16 14.222-16 14.222 7.164 14.222 16c0 3.289-0.889 6.347-2.4 8.889h-8.267v-2.667c-1.138 1.653-2.667 2.667-4.444 2.667-3.431 0-6.222-3.982-6.222-8.889s2.791-8.889 6.222-8.889c1.778 0 3.307 1.013 4.444 2.667v-0.889h3.556v12.444h2.524M21.333 16c-1.956 0-3.556 2.382-3.556 5.333s1.6 5.333 3.556 5.333 3.556-2.382 3.556-5.333-1.6-5.333-3.556-5.333z"></path>
</svg>
