<!-- Generated by IcoMoon.io -->
<svg version="1.1" xmlns="http://www.w3.org/2000/svg" width="43" height="32" viewBox="0 0 43 32">
<title>atom</title>
<path d="M21.333 19.556c0.978 0 1.778 0.8 1.778 1.778s-0.8 1.778-1.778 1.778-1.778-0.8-1.778-1.778 0.8-1.778 1.778-1.778M7.502 7.502c2.542-2.542 8.053-1.404 13.831 2.382 5.778-3.787 11.289-4.924 13.831-2.382s1.404 8.053-2.382 13.831c3.787 5.778 4.924 11.289 2.382 13.831s-8.053 1.404-13.831-2.382c-5.778 3.787-11.289 4.924-13.831 2.382s-1.404-8.053 2.382-13.831c-3.787-5.778-4.924-11.289-2.382-13.831M27.627 15.040c1.084 1.102 2.080 2.222 3.004 3.342 2.453-3.787 3.342-7.040 2.009-8.356-1.316-1.333-4.569-0.444-8.356 2.009 1.12 0.924 2.24 1.92 3.342 3.004M15.040 27.627c-1.084-1.102-2.080-2.222-3.004-3.342-2.453 3.787-3.342 7.040-2.009 8.356 1.316 1.333 4.569 0.444 8.356-2.009-1.12-0.924-2.24-1.92-3.342-3.004M10.027 10.027c-1.333 1.316-0.444 4.569 2.009 8.356 0.924-1.12 1.92-2.24 3.004-3.342 1.102-1.084 2.222-2.080 3.342-3.004-3.787-2.453-7.040-3.342-8.356-2.009M17.564 25.102c1.244 1.244 2.524 2.382 3.769 3.396 1.244-1.013 2.524-2.151 3.769-3.396s2.382-2.524 3.396-3.769c-1.013-1.244-2.151-2.524-3.396-3.769s-2.524-2.382-3.769-3.396c-1.244 1.013-2.524 2.151-3.769 3.396s-2.382 2.524-3.396 3.769c1.013 1.244 2.151 2.524 3.396 3.769M32.64 32.64c1.333-1.316 0.444-4.569-2.009-8.356-0.924 1.12-1.92 2.24-3.004 3.342-1.102 1.084-2.222 2.080-3.342 3.004 3.787 2.453 7.040 3.342 8.356 2.009z"></path>
</svg>
