<!-- Generated by IcoMoon.io -->
<svg version="1.1" xmlns="http://www.w3.org/2000/svg" width="43" height="32" viewBox="0 0 43 32">
<title>attachment</title>
<path d="M13.333 32c-5.404 0-9.778-4.373-9.778-9.778s4.373-9.778 9.778-9.778h18.667c3.929 0 7.111 3.182 7.111 7.111s-3.182 7.111-7.111 7.111h-15.111c-2.453 0-4.444-1.991-4.444-4.444s1.991-4.444 4.444-4.444h13.333v2.667h-13.333c-0.978 0-1.778 0.8-1.778 1.778s0.8 1.778 1.778 1.778h15.111c2.453 0 4.444-1.991 4.444-4.444s-1.991-4.444-4.444-4.444h-18.667c-3.929 0-7.111 3.182-7.111 7.111s3.182 7.111 7.111 7.111h16.889v2.667h-16.889z"></path>
</svg>
