<!-- Generated by IcoMoon.io -->
<svg version="1.1" xmlns="http://www.w3.org/2000/svg" width="43" height="32" viewBox="0 0 43 32">
<title>audiobook</title>
<path d="M32 39.111h-21.333c-1.956 0-3.556-1.6-3.556-3.556v-28.444c0-1.973 1.6-3.556 3.556-3.556h1.778v12.444l4.444-2.667 4.444 2.667v-12.444h10.667c1.956 0 3.556 1.6 3.556 3.556v28.444c0 1.956-1.6 3.556-3.556 3.556M23.111 26.667c-1.956 0-3.556 1.6-3.556 3.556s1.6 3.556 3.556 3.556 3.556-1.6 3.556-3.556v-8.889h5.333v-3.556h-7.111v9.369c-0.516-0.302-1.138-0.48-1.778-0.48z"></path>
</svg>
