<!-- Generated by IcoMoon.io -->
<svg version="1.1" xmlns="http://www.w3.org/2000/svg" width="43" height="32" viewBox="0 0 43 32">
<title>auto-fix</title>
<path d="M13.333 9.956l-4.444 2.489 2.489-4.444-2.489-4.444 4.444 2.489 4.444-2.489-2.489 4.444 2.489 4.444-4.444-2.489M34.667 27.378l4.444-2.489-2.489 4.444 2.489 4.444-4.444-2.489-4.444 2.489 2.489-4.444-2.489-4.444 4.444 2.489M39.111 3.556l-2.489 4.444 2.489 4.444-4.444-2.489-4.444 2.489 2.489-4.444-2.489-4.444 4.444 2.489 4.444-2.489M23.716 22.72l4.338-4.338-3.769-3.769-4.338 4.338 3.769 3.769M25.547 12.96l4.16 4.16c0.693 0.658 0.693 1.813 0 2.507l-20.747 20.747c-0.693 0.693-1.849 0.693-2.507 0l-4.16-4.16c-0.693-0.658-0.693-1.813 0-2.507l20.747-20.747c0.693-0.693 1.849-0.693 2.507 0z"></path>
</svg>
