<!-- Generated by IcoMoon.io -->
<svg version="1.1" xmlns="http://www.w3.org/2000/svg" width="43" height="32" viewBox="0 0 43 32">
<title>autorenew</title>
<path d="M21.333 10.667v5.333l7.111-7.111-7.111-7.111v5.333c-7.858 0-14.222 6.364-14.222 14.222 0 2.791 0.818 5.387 2.204 7.573l2.596-2.596c-0.8-1.476-1.244-3.2-1.244-4.978 0-5.884 4.782-10.667 10.667-10.667M33.351 13.76l-2.596 2.596c0.782 1.493 1.244 3.2 1.244 4.978 0 5.884-4.782 10.667-10.667 10.667v-5.333l-7.111 7.111 7.111 7.111v-5.333c7.858 0 14.222-6.364 14.222-14.222 0-2.791-0.818-5.387-2.204-7.573z"></path>
</svg>
