<!-- Generated by IcoMoon.io -->
<svg version="1.1" xmlns="http://www.w3.org/2000/svg" width="43" height="32" viewBox="0 0 43 32">
<title>av-timer</title>
<path d="M19.556 30.222c0 0.978 0.8 1.778 1.778 1.778s1.778-0.8 1.778-1.778-0.8-1.778-1.778-1.778-1.778 0.8-1.778 1.778M19.556 5.333v7.111h3.556v-3.413c6.027 0.871 10.667 6.027 10.667 12.302 0 6.88-5.564 12.444-12.444 12.444s-12.444-5.564-12.444-12.444c0-2.987 1.049-5.724 2.809-7.858l9.636 9.636 2.507-2.507-12.089-12.089v0.036c-3.893 2.916-6.418 7.538-6.418 12.782 0 8.836 7.164 16 16 16s16-7.164 16-16-7.164-16-16-16M32 21.333c0-0.978-0.8-1.778-1.778-1.778s-1.778 0.8-1.778 1.778 0.8 1.778 1.778 1.778 1.778-0.8 1.778-1.778M10.667 21.333c0 0.978 0.8 1.778 1.778 1.778s1.778-0.8 1.778-1.778-0.8-1.778-1.778-1.778-1.778 0.8-1.778 1.778z"></path>
</svg>
