<!-- Generated by IcoMoon.io -->
<svg version="1.1" xmlns="http://www.w3.org/2000/svg" width="43" height="32" viewBox="0 0 43 32">
<title>baby-buggy</title>
<path d="M23.111 3.556v14.222h14.222c0-7.858-6.364-14.222-14.222-14.222M34.347 28.249c1.867-2.4 2.987-5.422 2.987-8.693h-25.884l-1.671-3.556h-6.222v3.556h3.947s3.36 7.236 3.769 7.858c-1.956 1.031-3.271 3.111-3.271 5.476 0 3.431 2.791 6.222 6.222 6.222 3.129 0 5.724-2.311 6.151-5.333h3.698c0.427 3.022 3.022 5.333 6.151 5.333 3.431 0 6.222-2.791 6.222-6.222 0-1.849-0.818-3.502-2.098-4.64M14.222 35.556c-1.476 0-2.667-1.191-2.667-2.667s1.191-2.667 2.667-2.667 2.667 1.191 2.667 2.667-1.191 2.667-2.667 2.667M30.222 35.556c-1.476 0-2.667-1.191-2.667-2.667s1.191-2.667 2.667-2.667 2.667 1.191 2.667 2.667-1.191 2.667-2.667 2.667z"></path>
</svg>
