<!-- Generated by IcoMoon.io -->
<svg version="1.1" xmlns="http://www.w3.org/2000/svg" width="43" height="32" viewBox="0 0 43 32">
<title>backup-restore</title>
<path d="M21.333 5.333c-8.836 0-16 7.164-16 16h-5.333l7.111 7.111 7.111-7.111h-5.333c0-6.88 5.564-12.444 12.444-12.444s12.444 5.564 12.444 12.444-5.564 12.444-12.444 12.444c-2.667 0-5.173-0.889-7.218-2.311l-2.56 2.56c2.738 2.062 6.116 3.307 9.778 3.307 8.836 0 16-7.164 16-16s-7.164-16-16-16M24.889 21.333c0-1.956-1.6-3.556-3.556-3.556s-3.556 1.6-3.556 3.556 1.6 3.556 3.556 3.556 3.556-1.6 3.556-3.556z"></path>
</svg>
