<!-- Generated by IcoMoon.io -->
<svg version="1.1" xmlns="http://www.w3.org/2000/svg" width="43" height="32" viewBox="0 0 43 32">
<title>barcode-scan</title>
<path d="M7.111 10.667h3.556v21.333h-3.556v-21.333M12.444 10.667h1.778v21.333h-1.778v-21.333M16 10.667h5.333v21.333h-5.333v-21.333M23.111 10.667h1.778v21.333h-1.778v-21.333M28.444 10.667h3.556v21.333h-3.556v-21.333M33.778 10.667h1.778v21.333h-1.778v-21.333M3.556 7.111v7.111h-3.556v-7.111c0-1.956 1.6-3.556 3.556-3.556h7.111v3.556h-7.111M39.111 3.556c1.956 0 3.556 1.6 3.556 3.556v7.111h-3.556v-7.111h-7.111v-3.556h7.111M3.556 28.444v7.111h7.111v3.556h-7.111c-1.956 0-3.556-1.6-3.556-3.556v-7.111h3.556M39.111 35.556v-7.111h3.556v7.111c0 1.956-1.6 3.556-3.556 3.556h-7.111v-3.556h7.111z"></path>
</svg>
