<!-- Generated by IcoMoon.io -->
<svg version="1.1" xmlns="http://www.w3.org/2000/svg" width="43" height="32" viewBox="0 0 43 32">
<title>barley</title>
<path d="M13.031 32.587c-1.476-2.062-1.476-4.444-1.476-6.809 2.969 1.778 5.92 3.556 7.413 5.636l0.587 0.996v-4.053c-2.667-1.6-5.191-3.236-6.524-5.102-1.476-2.062-1.476-4.444-1.476-6.809 2.969 1.778 5.92 3.556 7.413 5.636l0.587 1.031v-4.089c-2.667-1.6-5.191-3.236-6.524-5.102-1.476-2.062-1.476-4.444-1.476-6.809 2.969 1.778 5.92 3.556 7.413 5.636 0.178 0.249 0.338 0.516 0.48 0.8-0.302-1.102-0.498-2.133-0.516-3.2-0.018-2.684 1.156-5.44 2.329-8.196 1.227 2.631 2.453 5.28 2.471 7.964 0.018 1.12-0.178 2.258-0.498 3.378 0.142-0.249 0.284-0.498 0.462-0.747 1.493-2.080 4.444-3.858 7.413-5.636 0 2.364 0 4.747-1.476 6.809-1.333 1.867-3.858 3.502-6.524 5.102v4.089l0.587-1.031c1.493-2.080 4.444-3.858 7.413-5.636 0 2.364 0 4.747-1.476 6.809-1.333 1.867-3.858 3.502-6.524 5.102v4.053l0.587-0.996c1.493-2.080 4.444-3.858 7.413-5.636 0 2.364 0 4.747-1.476 6.809-1.333 1.867-3.858 3.502-6.524 5.102v3.2h-3.556v-3.2c-2.667-1.6-5.191-3.236-6.524-5.102z"></path>
</svg>
