<!-- Generated by IcoMoon.io -->
<svg version="1.1" xmlns="http://www.w3.org/2000/svg" width="43" height="32" viewBox="0 0 43 32">
<title>basecamp</title>
<path d="M6.027 27.804c0.018-0.16 0.053-0.338 0.107-0.498 0.089-0.32 0.16-0.64 0.267-0.924 0.391-1.156 0.996-2.24 1.6-3.271 0.356-0.533 0.693-1.049 1.013-1.564 0.338-0.516 0.676-1.031 1.067-1.529 0.587-0.8 1.387-1.653 2.364-1.973 1.404-0.444 2.436 0.996 3.236 1.902 0.462 0.498 0.96 1.031 1.582 1.333 0.302 0.124 0.622 0.196 0.942 0.178 0.462-0.036 0.871-0.356 1.227-0.64 0.942-0.782 1.724-1.796 2.453-2.773 0.818-1.067 1.6-2.169 2.524-3.147 0.391-0.409 0.8-0.942 1.369-1.12 0.213-0.071 0.48-0.053 0.729 0.053 0.16 0.071 0.249 0.16 0.338 0.249 0.124 0.142 0.267 0.213 0.391 0.302 0.996 0.729 1.92 1.618 2.791 2.507 0.747 0.764 1.476 1.582 2.151 2.418 0.711 0.818 1.316 1.653 1.867 2.56 0.676 1.12 1.244 2.276 1.884 3.396 0.569 1.031 1.156 2.222 0.569 3.396-0.053 0.053-0.053 0.124-0.053 0.178-1.049 1.724-2.88 2.791-4.693 3.484-2.187 0.836-4.516 1.244-6.862 1.404-2.382 0.178-4.8 0.16-7.2-0.053-2.169-0.213-4.356-0.604-6.382-1.387-1.707-0.658-3.307-1.618-4.48-3.076-0.267-0.356-0.498-0.711-0.693-1.102-0.036-0.036-0.053-0.089-0.071-0.124-0.036-0.071-0.053-0.107-0.036-0.178M3.698 29.333c0.249 0.409 0.533 0.764 0.818 1.102 0.569 0.676 1.227 1.298 1.92 1.849 1.493 1.156 3.218 1.991 5.013 2.578 2.062 0.693 4.231 1.031 6.4 1.209 2.507 0.213 5.067 0.213 7.573-0.053 2.311-0.249 4.64-0.729 6.809-1.582 1.92-0.764 3.698-1.867 5.244-3.253 0.409-0.356 0.8-0.729 1.102-1.173 0.284-0.373 0.533-0.782 0.533-1.244 0-0.533 0-1.084-0.142-1.618-0.124-0.587-0.284-1.156-0.427-1.724l-0.16-0.64c-0.569-2.507-1.44-4.942-2.613-7.236-0.996-1.92-2.222-3.751-3.662-5.387-1.333-1.493-2.898-2.88-4.676-3.84-0.942-0.533-1.956-0.942-2.987-1.209-0.551-0.213-1.12-0.338-1.689-0.462-0.16-0.018-0.302-0.053-0.444-0.053h-1.671c-0.196 0-0.32-0.018-0.498 0-0.142 0.018-0.302 0.053-0.444 0.071-0.302 0.053-0.587 0.107-0.871 0.178-0.569 0.124-1.12 0.267-1.671 0.516-1.084 0.427-2.098 0.996-3.058 1.671-1.884 1.28-3.52 2.933-4.889 4.747-1.44 1.92-2.613 4.071-3.502 6.311-0.96 2.382-1.618 4.871-2.027 7.413-0.053 0.32-0.124 0.658-0.124 0.942v0.569c0 0.089 0 0.142 0.053 0.213 0.018 0.036 0.053 0.107 0.089 0.107z"></path>
</svg>
