<!-- Generated by IcoMoon.io -->
<svg version="1.1" xmlns="http://www.w3.org/2000/svg" width="43" height="32" viewBox="0 0 43 32">
<title>basket</title>
<path d="M9.778 37.333c-1.387 0-2.596-0.8-3.182-1.956l-4.64-16.818-0.178-0.782c0-0.978 0.8-1.778 1.778-1.778h8.142l8.178-11.68c0.32-0.462 0.853-0.764 1.458-0.764s1.156 0.302 1.476 0.782l8.16 11.662h8.142c0.978 0 1.778 0.8 1.778 1.778l-0.071 0.516-4.747 17.084c-0.587 1.156-1.796 1.956-3.182 1.956h-23.111M21.333 8.427l-5.333 7.573h10.667l-5.333-7.573M21.333 23.111c-1.956 0-3.556 1.6-3.556 3.556s1.6 3.556 3.556 3.556 3.556-1.6 3.556-3.556-1.6-3.556-3.556-3.556z"></path>
</svg>
