<!-- Generated by IcoMoon.io -->
<svg version="1.1" xmlns="http://www.w3.org/2000/svg" width="43" height="32" viewBox="0 0 43 32">
<title>battery-unknown</title>
<path d="M26.791 21.778l-1.6 1.636c-0.96 0.96-1.636 1.796-1.92 3.253h-3.627c0.196-1.6 0.907-3.058 1.991-4.142l2.204-2.24c0.658-0.64 1.049-1.529 1.049-2.507 0-1.973-1.6-3.556-3.556-3.556s-3.556 1.6-3.556 3.556h-3.556c0-3.929 3.182-7.111 7.111-7.111s7.111 3.182 7.111 7.111c0 1.564-0.64 2.987-1.653 4M23.111 33.778h-3.556v-3.556h3.556M29.636 7.111h-2.969v-3.556h-10.667v3.556h-2.969c-1.298 0-2.364 1.067-2.364 2.364v27.253c0 1.316 1.067 2.382 2.364 2.382h16.604c1.298 0 2.364-1.067 2.364-2.382v-27.253c0-1.316-1.067-2.364-2.364-2.364z"></path>
</svg>
