<!-- Generated by IcoMoon.io -->
<svg version="1.1" xmlns="http://www.w3.org/2000/svg" width="43" height="32" viewBox="0 0 43 32">
<title>beach</title>
<path d="M26.667 32.96c3.787-0.587 8-0.96 12.444-0.96v7.111h-30.222c0-1.156 5.689-3.804 14.222-5.511v-11.556c-1.493 0.444-2.756 1.44-3.556 2.756-1.084-1.813-3.076-3.022-5.333-3.022s-4.249 1.209-5.333 3.022c0.053-6.364 6.222-11.591 14.222-12.284v-0.071c0-0.978 0.8-1.778 1.778-1.778s1.778 0.8 1.778 1.778v0.071c8 0.693 14.151 5.92 14.222 12.284-1.084-1.813-3.076-3.022-5.333-3.022s-4.249 1.209-5.333 3.022c-0.8-1.316-2.062-2.311-3.556-2.773v10.933M12.444 3.556c0 4.907-3.982 8.889-8.889 8.889v-8.889h8.889z"></path>
</svg>
