<!-- Generated by IcoMoon.io -->
<svg version="1.1" xmlns="http://www.w3.org/2000/svg" width="43" height="32" viewBox="0 0 43 32">
<title>beats</title>
<path d="M12.444 21.333c0 4.907 3.982 8.889 8.889 8.889s8.889-3.982 8.889-8.889-3.982-8.889-8.889-8.889c-2.009 0-3.84 0.658-5.333 1.778v-9.849c1.689-0.533 3.467-0.818 5.333-0.818 9.813 0 17.778 7.964 17.778 17.778s-7.964 17.778-17.778 17.778-17.778-7.964-17.778-17.778c0-6.578 3.556-12.32 8.889-15.396v15.396M21.333 16c2.951 0 5.333 2.382 5.333 5.333s-2.382 5.333-5.333 5.333-5.333-2.382-5.333-5.333 2.382-5.333 5.333-5.333z"></path>
</svg>
