<!-- Generated by IcoMoon.io -->
<svg version="1.1" xmlns="http://www.w3.org/2000/svg" width="43" height="32" viewBox="0 0 43 32">
<title>behance</title>
<path d="M34.809 21.813c-0.071-1.102-0.444-1.938-1.102-2.507s-1.476-0.853-2.453-0.853c-1.031 0-1.92 0.302-2.471 0.907-0.587 0.604-0.96 1.422-1.102 2.453M38.969 21.404c0.142 0.729 0.142 1.778 0.142 3.147h-11.556c0.089 1.6 0.622 2.702 1.671 3.342 0.622 0.409 1.387 0.604 2.293 0.604 0.942 0 1.707-0.249 2.258-0.729 0.356-0.267 0.64-0.622 0.889-1.102h4.231c-0.107 0.96-0.622 1.902-1.564 2.88-1.387 1.564-3.378 2.311-5.938 2.311-2.116 0-3.964-0.658-5.618-1.956-1.564-1.298-2.382-3.413-2.382-6.347 0-2.756 0.729-4.889 2.187-6.311 1.458-1.476 3.342-2.204 5.671-2.204 1.369 0 2.613 0.249 3.716 0.747s2.027 1.262 2.738 2.347c0.658 0.942 1.067 2.027 1.262 3.271M17.031 25.013c0-1.156-0.48-1.956-1.404-2.382-0.516-0.231-1.262-0.356-2.222-0.409h-4.747v5.938h4.676c0.96 0 1.707-0.124 2.24-0.391 0.978-0.48 1.458-1.404 1.458-2.756M8.658 18.596h4.676c0.96 0 1.778-0.178 2.347-0.551 0.604-0.356 0.889-1.013 0.889-1.938 0-0.996-0.391-1.707-1.173-2.044-0.693-0.231-1.564-0.338-2.613-0.338h-4.124M20.836 22.080c0.569 0.889 0.853 1.973 0.853 3.236 0 1.351-0.356 2.489-0.978 3.538-0.427 0.693-0.942 1.262-1.564 1.742-0.711 0.516-1.547 0.907-2.507 1.102s-1.991 0.302-3.111 0.302h-9.973v-22.133h10.667c2.72 0.053 4.622 0.8 5.742 2.364 0.676 0.942 1.013 2.062 1.013 3.378 0 1.351-0.338 2.436-1.013 3.253-0.409 0.462-0.942 0.889-1.689 1.262 1.12 0.409 1.973 1.067 2.56 1.956M35.662 13.013h-8.907v-2.222h8.907v2.222z"></path>
</svg>
