<!-- Generated by IcoMoon.io -->
<svg version="1.1" xmlns="http://www.w3.org/2000/svg" width="43" height="32" viewBox="0 0 43 32">
<title>bell-ring</title>
<path d="M20.444 39.111c0.249 0 0.48 0 0.711-0.071 1.156-0.249 2.116-1.031 2.56-2.098 0.178-0.427 0.284-0.907 0.284-1.387h-7.111c0 1.956 1.6 3.556 3.556 3.556M32 18.667c0-5.458-3.804-10.027-8.889-11.236v-1.209c0-1.476-1.191-2.667-2.667-2.667s-2.667 1.191-2.667 2.667v1.209c-5.102 1.209-8.889 5.778-8.889 11.236v9.778l-3.556 3.556v1.778h30.222v-1.778l-3.556-3.556M35.502 17.778h3.556c-0.267-5.707-3.076-10.72-7.324-13.956l-2.542 2.542c3.627 2.524 6.044 6.702 6.311 11.413M11.698 6.364l-2.542-2.542c-4.249 3.236-7.058 8.249-7.378 13.956h3.556c0.32-4.711 2.738-8.889 6.364-11.413z"></path>
</svg>
