<!-- Generated by IcoMoon.io -->
<svg version="1.1" xmlns="http://www.w3.org/2000/svg" width="43" height="32" viewBox="0 0 43 32">
<title>bell-plus</title>
<path d="M17.778 37.333c0 1.973 1.6 3.556 3.556 3.556s3.556-1.6 3.556-3.556M33.564 29.902v-10.347c0-5.778-4-10.613-9.404-11.893v-1.28c0-1.564-1.262-2.827-2.827-2.827s-2.827 1.262-2.827 2.827v1.28c-5.404 1.28-9.404 6.116-9.404 11.893v10.347l-3.769 3.769v1.884h32v-1.884M28.444 23.111h-5.333v5.333h-3.556v-5.333h-5.333v-3.556h5.333v-5.333h3.556v5.333h5.333"></path>
</svg>
