<!-- Generated by IcoMoon.io -->
<svg version="1.1" xmlns="http://www.w3.org/2000/svg" width="43" height="32" viewBox="0 0 43 32">
<title>bell-ring-outline</title>
<path d="M28.444 30.222v-11.556c0-4.444-3.556-8-8-8s-8 3.556-8 8v11.556h16M32 28.444l3.556 3.556v1.778h-30.222v-1.778l3.556-3.556v-9.778c0-5.458 3.787-10.027 8.889-11.236v-1.209c0-1.476 1.191-2.667 2.667-2.667s2.667 1.191 2.667 2.667v1.209c5.084 1.209 8.889 5.778 8.889 11.236v9.778M20.444 39.111c-1.956 0-3.556-1.6-3.556-3.556h7.111c0 1.956-1.6 3.556-3.556 3.556M35.502 17.778c-0.267-4.711-2.684-8.889-6.311-11.413l2.542-2.542c4.249 3.236 7.058 8.249 7.324 13.956h-3.556M11.698 6.364c-3.627 2.524-6.044 6.702-6.364 11.413h-3.556c0.32-5.707 3.129-10.72 7.378-13.956l2.542 2.542z"></path>
</svg>
