<!-- Generated by IcoMoon.io -->
<svg version="1.1" xmlns="http://www.w3.org/2000/svg" width="43" height="32" viewBox="0 0 43 32">
<title>bell-outline</title>
<path d="M28.444 30.222h-16v-11.556c0-4.444 3.556-8 8-8s8 3.556 8 8M32 28.444v-9.778c0-5.458-3.804-10.027-8.889-11.236v-1.209c0-1.476-1.191-2.667-2.667-2.667s-2.667 1.191-2.667 2.667v1.209c-5.102 1.209-8.889 5.778-8.889 11.236v9.778l-3.556 3.556v1.778h30.222v-1.778M20.444 39.111c1.956 0 3.556-1.6 3.556-3.556h-7.111c0 1.956 1.6 3.556 3.556 3.556z"></path>
</svg>
