<!-- Generated by IcoMoon.io -->
<svg version="1.1" xmlns="http://www.w3.org/2000/svg" width="43" height="32" viewBox="0 0 43 32">
<title>bell-off</title>
<path d="M24.889 35.556c0 1.956-1.6 3.556-3.556 3.556s-3.556-1.6-3.556-3.556h7.111M35.093 38.347l-4.569-4.569h-25.191l5.333-5.333v-10.667c0-1.156 0.178-2.276 0.533-3.324l-5.031-5.031 2.524-2.507 28.907 28.907-2.507 2.524M19.556 7.253v-1.92c0-0.978 0.8-1.778 1.778-1.778s1.778 0.8 1.778 1.778v1.92c5.049 0.853 8.889 5.244 8.889 10.524v7.413l-16.409-16.409c1.191-0.782 2.524-1.28 3.964-1.529z"></path>
</svg>
