<!-- Generated by IcoMoon.io -->
<svg version="1.1" xmlns="http://www.w3.org/2000/svg" width="43" height="32" viewBox="0 0 43 32">
<title>beta</title>
<path d="M16.409 31.271v9.831h-4.178v-29.156c0-2.578 0.764-4.604 2.276-6.116 1.493-1.511 3.573-2.276 6.133-2.276 2.471 0 4.373 0.604 5.796 1.778 1.404 1.209 2.098 2.88 2.098 4.996 0 1.458-0.462 2.827-1.387 4.089s-2.116 2.133-3.591 2.613v0.071c2.222 0.356 3.947 1.156 5.12 2.453 1.173 1.262 1.76 2.88 1.76 4.871 0 2.347-0.818 4.267-2.436 5.742-1.636 1.476-3.769 2.204-6.436 2.204-1.884 0-3.609-0.373-5.156-1.102M19.058 19.111v-3.413c1.547-0.196 2.809-0.764 3.822-1.724 0.996-0.978 1.493-2.062 1.493-3.307 0-2.453-1.262-3.698-3.751-3.698-1.351 0-2.4 0.427-3.129 1.298s-1.084 2.080-1.084 3.662v15.627c1.618 0.942 3.2 1.404 4.729 1.404 1.493 0 2.667-0.391 3.502-1.156 0.836-0.782 1.244-1.884 1.244-3.289 0-3.182-2.276-4.96-6.827-5.404z"></path>
</svg>
