<!-- Generated by IcoMoon.io -->
<svg version="1.1" xmlns="http://www.w3.org/2000/svg" width="43" height="32" viewBox="0 0 43 32">
<title>bike</title>
<path d="M8.889 36.444c-3.431 0-6.222-2.791-6.222-6.222s2.791-6.222 6.222-6.222 6.222 2.791 6.222 6.222-2.791 6.222-6.222 6.222M8.889 21.333c-4.907 0-8.889 3.982-8.889 8.889s3.982 8.889 8.889 8.889 8.889-3.982 8.889-8.889-3.982-8.889-8.889-8.889M26.311 17.778h7.467v-3.2h-5.689l-3.449-5.813c-0.516-0.889-1.529-1.476-2.596-1.476-0.836 0-1.6 0.338-2.133 0.889l-6.578 6.56c-0.551 0.551-0.889 1.262-0.889 2.151 0 1.12 0.587 2.062 1.511 2.613l5.956 3.609v8.889h3.2v-11.556l-4-2.933 4.124-4.178M33.778 36.444c-3.431 0-6.222-2.791-6.222-6.222s2.791-6.222 6.222-6.222 6.222 2.791 6.222 6.222-2.791 6.222-6.222 6.222M33.778 21.333c-4.907 0-8.889 3.982-8.889 8.889s3.982 8.889 8.889 8.889 8.889-3.982 8.889-8.889-3.982-8.889-8.889-8.889M28.444 8.533c1.778 0 3.2-1.422 3.2-3.2s-1.422-3.2-3.2-3.2-3.2 1.422-3.2 3.2 1.422 3.2 3.2 3.2z"></path>
</svg>
