<!-- Generated by IcoMoon.io -->
<svg version="1.1" xmlns="http://www.w3.org/2000/svg" width="43" height="32" viewBox="0 0 43 32">
<title>binoculars</title>
<path d="M19.556 10.667h3.556v12.444h-3.556v-12.444M16 35.556c0 0.978-0.8 1.778-1.778 1.778h-5.333c-0.978 0-1.778-0.8-1.778-1.778v-8.889l3.556-16h7.111v12.444c0 0.978-0.8 1.778-1.778 1.778v10.667M17.778 8.889h-5.333v-3.556h5.333v3.556M26.667 35.556v-10.667c-0.978 0-1.778-0.8-1.778-1.778v-12.444h7.111l3.556 16v8.889c0 0.978-0.8 1.778-1.778 1.778h-5.333c-0.978 0-1.778-0.8-1.778-1.778M24.889 8.889v-3.556h5.333v3.556h-5.333z"></path>
</svg>
