<!-- Generated by IcoMoon.io -->
<svg version="1.1" xmlns="http://www.w3.org/2000/svg" width="43" height="32" viewBox="0 0 43 32">
<title>bio</title>
<path d="M30.222 21.333h5.333c1.956 0 3.556 1.6 3.556 3.556v5.333c0 1.956-1.6 3.556-3.556 3.556h-5.333c-1.956 0-3.556-1.6-3.556-3.556v-5.333c0-1.956 1.6-3.556 3.556-3.556M30.222 24.889v5.333h5.333v-5.333h-5.333M3.556 12.444h8.889c1.956 0 3.556 1.6 3.556 3.556v3.556c0 1.956-1.6 3.556-3.556 3.556 1.956 0 3.556 1.6 3.556 3.556v3.556c0 1.956-1.6 3.556-3.556 3.556h-8.889v-21.333M7.111 16v5.333h5.333v-5.333h-5.333M7.111 30.222h5.333v-5.333h-5.333v5.333M19.556 23.111h3.556v10.667h-3.556v-10.667M19.556 16h3.556v3.556h-3.556v-3.556z"></path>
</svg>
