<!-- Generated by IcoMoon.io -->
<svg version="1.1" xmlns="http://www.w3.org/2000/svg" width="43" height="32" viewBox="0 0 43 32">
<title>biohazard</title>
<path d="M40.889 28.551c0 0.409 0 0.782-0.071 1.138-0.32-4.551-4.124-8.16-8.818-8.16-0.658 0-1.298 0.089-1.92 0.213 0.071 0.48 0.142 0.889 0.142 1.369 0 4.178-3.004 7.68-6.987 8.551 0.622 3.982 3.982 7.076 8.142 7.378-0.391 0.071-0.764 0.071-1.156 0.071-3.698 0-6.987-1.884-8.889-4.729-1.902 2.844-5.173 4.729-8.889 4.729-0.391 0-0.764 0-1.156-0.071 4.16-0.302 7.502-3.378 8.142-7.378-4-0.871-6.987-4.373-6.987-8.551 0-0.48 0.071-0.889 0.124-1.369-0.604-0.124-1.244-0.213-1.902-0.213-4.693 0-8.498 3.609-8.836 8.16-0.053-0.356-0.053-0.729-0.053-1.138 0-5.707 4.604-10.347 10.329-10.524-0.907-1.547-1.44-3.36-1.44-5.28 0-3.964 2.187-7.413 5.44-9.191-2.222 1.6-3.662 4.16-3.662 7.111 0 2.4 0.996 4.604 2.613 6.222 1.618-1.618 3.822-2.596 6.276-2.596 2.436 0 4.658 0.978 6.222 2.596 1.653-1.618 2.667-3.822 2.667-6.222 0-2.951-1.458-5.511-3.662-7.111 3.253 1.778 5.44 5.227 5.44 9.191 0 1.92-0.533 3.733-1.44 5.28 5.742 0.178 10.329 4.818 10.329 10.524M16.48 17.973c1.387 0.907 3.076 1.44 4.853 1.44s3.467-0.533 4.853-1.44c-1.298-1.173-2.969-1.92-4.853-1.92s-3.556 0.747-4.853 1.92M21.333 25.724c1.458 0 2.667-1.191 2.667-2.613 0-1.476-1.191-2.667-2.667-2.667s-2.667 1.191-2.667 2.667c0 1.422 1.191 2.613 2.667 2.613M19.502 29.849c-0.178-3.36-2.24-6.222-5.191-7.538-0.036 0.267-0.089 0.516-0.089 0.8 0 3.236 2.258 5.938 5.28 6.738M28.373 22.311c-2.969 1.316-5.049 4.178-5.262 7.538 3.076-0.8 5.333-3.502 5.333-6.738 0-0.284-0.053-0.533-0.071-0.8z"></path>
</svg>
