<!-- Generated by IcoMoon.io -->
<svg version="1.1" xmlns="http://www.w3.org/2000/svg" width="43" height="32" viewBox="0 0 43 32">
<title>bitbucket</title>
<path d="M21.333 10.24c5.44 0.018 9.867-0.924 9.867-2.080s-4.409-2.098-9.867-2.116c-5.44 0-9.867 0.924-9.867 2.080 0 1.173 4.409 2.116 9.867 2.116M21.333 25.6c2.667 0 4.889-2.204 4.889-4.907s-2.187-4.889-4.889-4.889c-2.667 0-4.889 2.187-4.889 4.889s2.222 4.907 4.889 4.907M21.333 3.556c8.48 0 15.396 2.276 15.396 5.102 0 0.747-1.849 11.449-2.578 15.68-0.32 1.902-5.244 4.693-12.818 4.693v0c-7.573 0-12.498-2.791-12.818-4.693-0.729-4.231-2.578-14.933-2.578-15.68 0-2.827 6.916-5.102 15.396-5.102M32.409 28.587c0.267 0 0.533 0.196 0.533 0.604v0.142l-1.102 5.707c-0.516 2.293-5.049 4.071-10.507 4.071s-9.991-1.778-10.507-4.071l-1.102-5.707v-0.142c0-0.409 0.267-0.604 0.533-0.604 0.249 0 0.409 0.16 0.409 0.16s3.804 3.004 10.667 3.004 10.667-3.004 10.667-3.004 0.16-0.16 0.409-0.16M23.787 20.693c0 1.351-1.102 2.418-2.453 2.418s-2.453-1.067-2.453-2.418c0-1.351 1.102-2.453 2.453-2.453s2.453 1.102 2.453 2.453z"></path>
</svg>
