<!-- Generated by IcoMoon.io -->
<svg version="1.1" xmlns="http://www.w3.org/2000/svg" width="43" height="32" viewBox="0 0 43 32">
<title>blackberry</title>
<path d="M9.689 18.276c1.689 0 3.644 1.369 3.644 3.058s-1.956 3.058-3.644 3.058h-6.133l1.227-6.116h4.907M10.916 8.462c1.689 0 3.68 1.369 3.68 3.093 0 1.653-1.991 3.040-3.68 3.040h-6.133l1.227-6.133h4.907M23.164 8.462c1.724 0 3.68 1.369 3.68 3.093 0 1.653-1.956 3.040-3.68 3.040h-6.436l1.227-6.133h5.209M21.938 18.276c1.707 0 3.68 1.369 3.68 3.058s-1.973 3.058-3.68 3.058h-6.436l1.227-6.116h5.209M19.502 28.071c1.689 0 3.662 1.387 3.662 3.040 0 1.724-1.973 3.093-3.662 3.093h-6.169l1.262-6.133h4.907M32.978 24.391c1.689 0 3.68 1.387 3.68 3.076s-1.991 3.058-3.68 3.058h-6.133l1.227-6.133h4.907M35.431 14.596c1.689 0 3.68 1.404 3.68 3.058 0 1.689-1.991 3.076-3.68 3.076h-6.098l1.191-6.133h4.907z"></path>
</svg>
