<!-- Generated by IcoMoon.io -->
<svg version="1.1" xmlns="http://www.w3.org/2000/svg" width="43" height="32" viewBox="0 0 43 32">
<title>blender</title>
<path d="M14.222 5.333c0 0.604 0.302 1.227 0.889 1.564l6.222 3.769h-16.889c-1.476 0-2.667 1.191-2.667 2.667s1.191 2.667 2.667 2.667h10.507l-11.396 7.111c-1.493 0.889-1.778 2.169-1.778 3.556 0 1.778 1.369 3.556 3.556 3.556 1.227 0 2.471-0.889 3.556-1.778l3.556-2.88c0.356 7.538 6.596 13.547 14.222 13.547 7.858 0 14.222-6.364 14.222-14.222 0-5.191-2.791-9.778-6.951-12.213-0.053-0.036-0.107-0.089-0.16-0.124 0 0-0.142-0.107-0.249-0.16-5.511-3.716-10.364-5.778-16.551-8.604-0.373-0.16-0.693-0.231-0.978-0.231-1.067 0-1.778 0.818-1.778 1.778M26.667 16c4.907 0 8.889 3.982 8.889 8.889s-3.982 8.889-8.889 8.889-8.889-3.982-8.889-8.889 3.982-8.889 8.889-8.889M26.667 18.667c-3.431 0-6.222 2.791-6.222 6.222s2.791 6.222 6.222 6.222 6.222-2.791 6.222-6.222-2.791-6.222-6.222-6.222z"></path>
</svg>
