<!-- Generated by IcoMoon.io -->
<svg version="1.1" xmlns="http://www.w3.org/2000/svg" width="43" height="32" viewBox="0 0 43 32">
<title>block-helper</title>
<path d="M21.333 0c11.787 0 21.333 9.547 21.333 21.333s-9.547 21.333-21.333 21.333-21.333-9.547-21.333-21.333 9.547-21.333 21.333-21.333M21.333 3.556c-9.813 0-17.778 7.964-17.778 17.778 0 4.267 1.511 8.178 4.018 11.253l25.013-25.013c-3.076-2.507-6.987-4.018-11.253-4.018M21.333 39.111c9.813 0 17.778-7.964 17.778-17.778 0-4.267-1.511-8.178-4.018-11.253l-25.013 25.013c3.076 2.507 6.987 4.018 11.253 4.018z"></path>
</svg>
