<!-- Generated by IcoMoon.io -->
<svg version="1.1" xmlns="http://www.w3.org/2000/svg" width="43" height="32" viewBox="0 0 43 32">
<title>blogger</title>
<path d="M24.889 23.111h-7.2c-0.978 0-1.778 0.8-1.778 1.778s0.8 1.778 1.778 1.778h7.2c0.978 0 1.778-0.8 1.778-1.778s-0.8-1.778-1.778-1.778M17.689 17.778h4.622c0.978 0 1.778-0.8 1.778-1.778s-0.8-1.778-1.778-1.778h-4.622c-0.978 0-1.778 0.8-1.778 1.778s0.8 1.778 1.778 1.778M28.444 16v1.778c0 0.978 0.8 1.778 1.778 1.778s1.778 0.8 1.778 1.778v5.333c0 2.951-2.382 5.333-5.333 5.333h-10.667c-2.951 0-5.333-2.382-5.333-5.333v-12.444c0-2.951 2.382-5.333 5.333-5.333h7.111c2.951 0 5.333 2.382 5.333 5.333M35.556 3.556h-28.444c-1.973 0-3.556 1.582-3.556 3.556v28.444c0 1.956 1.6 3.556 3.556 3.556h28.444c1.956 0 3.556-1.6 3.556-3.556v-28.444c0-1.973-1.6-3.556-3.556-3.556z"></path>
</svg>
