<!-- Generated by IcoMoon.io -->
<svg version="1.1" xmlns="http://www.w3.org/2000/svg" width="43" height="32" viewBox="0 0 43 32">
<title>bluetooth-audio</title>
<path d="M22.898 28.96l-3.342 3.342v-6.684M19.556 10.364l3.342 3.342-3.342 3.324M27.929 13.707l-10.151-10.151h-1.778v13.476l-8.16-8.142-2.507 2.507 9.938 9.938-9.938 9.92 2.507 2.524 8.16-8.16v13.493h1.778l10.151-10.151-7.644-7.627M34.72 11.929l-2.258 2.293c1.12 2.098 1.76 4.533 1.76 7.111s-0.64 5.013-1.76 7.111l2.133 2.169c1.724-2.738 2.738-5.956 2.738-9.44 0-3.396-0.96-6.542-2.613-9.244M25.316 21.333l4.124 4.142c0.498-1.298 0.782-2.684 0.782-4.142s-0.284-2.844-0.764-4.124l-4.142 4.124z"></path>
</svg>
