<!-- Generated by IcoMoon.io -->
<svg version="1.1" xmlns="http://www.w3.org/2000/svg" width="43" height="32" viewBox="0 0 43 32">
<title>blur</title>
<path d="M24.889 15.111c-1.476 0-2.667 1.191-2.667 2.667s1.191 2.667 2.667 2.667 2.667-1.191 2.667-2.667-1.191-2.667-2.667-2.667M24.889 22.222c-1.476 0-2.667 1.191-2.667 2.667s1.191 2.667 2.667 2.667 2.667-1.191 2.667-2.667-1.191-2.667-2.667-2.667M17.778 30.222c-0.978 0-1.778 0.8-1.778 1.778s0.8 1.778 1.778 1.778 1.778-0.8 1.778-1.778-0.8-1.778-1.778-1.778M17.778 15.111c-1.476 0-2.667 1.191-2.667 2.667s1.191 2.667 2.667 2.667 2.667-1.191 2.667-2.667-1.191-2.667-2.667-2.667M24.889 36.444c-0.498 0-0.889 0.391-0.889 0.889s0.391 0.889 0.889 0.889 0.889-0.391 0.889-0.889-0.391-0.889-0.889-0.889M24.889 30.222c-0.978 0-1.778 0.8-1.778 1.778s0.8 1.778 1.778 1.778 1.778-0.8 1.778-1.778-0.8-1.778-1.778-1.778M37.333 24c-0.498 0-0.889 0.391-0.889 0.889s0.391 0.889 0.889 0.889 0.889-0.391 0.889-0.889-0.391-0.889-0.889-0.889M32 8.889c-0.978 0-1.778 0.8-1.778 1.778s0.8 1.778 1.778 1.778 1.778-0.8 1.778-1.778-0.8-1.778-1.778-1.778M32 16c-0.978 0-1.778 0.8-1.778 1.778s0.8 1.778 1.778 1.778 1.778-0.8 1.778-1.778-0.8-1.778-1.778-1.778M32 30.222c-0.978 0-1.778 0.8-1.778 1.778s0.8 1.778 1.778 1.778 1.778-0.8 1.778-1.778-0.8-1.778-1.778-1.778M32 23.111c-0.978 0-1.778 0.8-1.778 1.778s0.8 1.778 1.778 1.778 1.778-0.8 1.778-1.778-0.8-1.778-1.778-1.778M17.778 22.222c-1.476 0-2.667 1.191-2.667 2.667s1.191 2.667 2.667 2.667 2.667-1.191 2.667-2.667-1.191-2.667-2.667-2.667M17.778 12.444c0.978 0 1.778-0.8 1.778-1.778s-0.8-1.778-1.778-1.778-1.778 0.8-1.778 1.778 0.8 1.778 1.778 1.778M17.778 6.222c0.498 0 0.889-0.391 0.889-0.889s-0.391-0.889-0.889-0.889-0.889 0.391-0.889 0.889 0.391 0.889 0.889 0.889M17.778 36.444c-0.498 0-0.889 0.391-0.889 0.889s0.391 0.889 0.889 0.889 0.889-0.391 0.889-0.889-0.391-0.889-0.889-0.889M5.333 24c-0.498 0-0.889 0.391-0.889 0.889s0.391 0.889 0.889 0.889 0.889-0.391 0.889-0.889-0.391-0.889-0.889-0.889M24.889 6.222c0.498 0 0.889-0.391 0.889-0.889s-0.391-0.889-0.889-0.889-0.889 0.391-0.889 0.889 0.391 0.889 0.889 0.889M24.889 12.444c0.978 0 1.778-0.8 1.778-1.778s-0.8-1.778-1.778-1.778-1.778 0.8-1.778 1.778 0.8 1.778 1.778 1.778M37.333 18.667c0.498 0 0.889-0.391 0.889-0.889s-0.391-0.889-0.889-0.889-0.889 0.391-0.889 0.889 0.391 0.889 0.889 0.889M10.667 8.889c-0.978 0-1.778 0.8-1.778 1.778s0.8 1.778 1.778 1.778 1.778-0.8 1.778-1.778-0.8-1.778-1.778-1.778M5.333 16.889c-0.498 0-0.889 0.391-0.889 0.889s0.391 0.889 0.889 0.889 0.889-0.391 0.889-0.889-0.391-0.889-0.889-0.889M10.667 16c-0.978 0-1.778 0.8-1.778 1.778s0.8 1.778 1.778 1.778 1.778-0.8 1.778-1.778-0.8-1.778-1.778-1.778M10.667 30.222c-0.978 0-1.778 0.8-1.778 1.778s0.8 1.778 1.778 1.778 1.778-0.8 1.778-1.778-0.8-1.778-1.778-1.778M10.667 23.111c-0.978 0-1.778 0.8-1.778 1.778s0.8 1.778 1.778 1.778 1.778-0.8 1.778-1.778-0.8-1.778-1.778-1.778z"></path>
</svg>
