<!-- Generated by IcoMoon.io -->
<svg version="1.1" xmlns="http://www.w3.org/2000/svg" width="43" height="32" viewBox="0 0 43 32">
<title>blur-radial</title>
<path d="M24.889 23.111c-0.978 0-1.778 0.8-1.778 1.778s0.8 1.778 1.778 1.778 1.778-0.8 1.778-1.778-0.8-1.778-1.778-1.778M24.889 29.333c-0.498 0-0.889 0.391-0.889 0.889s0.391 0.889 0.889 0.889 0.889-0.391 0.889-0.889-0.391-0.889-0.889-0.889M21.333 35.556c-7.858 0-14.222-6.364-14.222-14.222s6.364-14.222 14.222-14.222 14.222 6.364 14.222 14.222-6.364 14.222-14.222 14.222M21.333 3.556c-9.813 0-17.778 7.964-17.778 17.778s7.964 17.778 17.778 17.778 17.778-7.964 17.778-17.778-7.964-17.778-17.778-17.778M30.222 16.889c-0.498 0-0.889 0.391-0.889 0.889s0.391 0.889 0.889 0.889 0.889-0.391 0.889-0.889-0.391-0.889-0.889-0.889M30.222 24c-0.498 0-0.889 0.391-0.889 0.889s0.391 0.889 0.889 0.889 0.889-0.391 0.889-0.889-0.391-0.889-0.889-0.889M24.889 13.333c0.498 0 0.889-0.391 0.889-0.889s-0.391-0.889-0.889-0.889-0.889 0.391-0.889 0.889 0.391 0.889 0.889 0.889M24.889 16c-0.978 0-1.778 0.8-1.778 1.778s0.8 1.778 1.778 1.778 1.778-0.8 1.778-1.778-0.8-1.778-1.778-1.778M17.778 13.333c0.498 0 0.889-0.391 0.889-0.889s-0.391-0.889-0.889-0.889-0.889 0.391-0.889 0.889 0.391 0.889 0.889 0.889M12.444 24c-0.498 0-0.889 0.391-0.889 0.889s0.391 0.889 0.889 0.889 0.889-0.391 0.889-0.889-0.391-0.889-0.889-0.889M17.778 29.333c-0.498 0-0.889 0.391-0.889 0.889s0.391 0.889 0.889 0.889 0.889-0.391 0.889-0.889-0.391-0.889-0.889-0.889M12.444 16.889c-0.498 0-0.889 0.391-0.889 0.889s0.391 0.889 0.889 0.889 0.889-0.391 0.889-0.889-0.391-0.889-0.889-0.889M17.778 23.111c-0.978 0-1.778 0.8-1.778 1.778s0.8 1.778 1.778 1.778 1.778-0.8 1.778-1.778-0.8-1.778-1.778-1.778M17.778 16c-0.978 0-1.778 0.8-1.778 1.778s0.8 1.778 1.778 1.778 1.778-0.8 1.778-1.778-0.8-1.778-1.778-1.778z"></path>
</svg>
