<!-- Generated by IcoMoon.io -->
<svg version="1.1" xmlns="http://www.w3.org/2000/svg" width="43" height="32" viewBox="0 0 43 32">
<title>blur-off</title>
<path d="M5.333 24c-0.498 0-0.889 0.391-0.889 0.889s0.391 0.889 0.889 0.889 0.889-0.391 0.889-0.889-0.391-0.889-0.889-0.889M10.667 30.222c-0.978 0-1.778 0.8-1.778 1.778s0.8 1.778 1.778 1.778 1.778-0.8 1.778-1.778-0.8-1.778-1.778-1.778M17.778 36.444c-0.498 0-0.889 0.391-0.889 0.889s0.391 0.889 0.889 0.889 0.889-0.391 0.889-0.889-0.391-0.889-0.889-0.889M5.333 16.889c-0.498 0-0.889 0.391-0.889 0.889s0.391 0.889 0.889 0.889 0.889-0.391 0.889-0.889-0.391-0.889-0.889-0.889M10.667 23.111c-0.978 0-1.778 0.8-1.778 1.778s0.8 1.778 1.778 1.778 1.778-0.8 1.778-1.778-0.8-1.778-1.778-1.778M37.333 24c-0.498 0-0.889 0.391-0.889 0.889s0.391 0.889 0.889 0.889 0.889-0.391 0.889-0.889-0.391-0.889-0.889-0.889M17.778 30.222c-0.978 0-1.778 0.8-1.778 1.778s0.8 1.778 1.778 1.778 1.778-0.8 1.778-1.778-0.8-1.778-1.778-1.778M4.444 9.369l6.72 6.72-0.498-0.089c-0.978 0-1.778 0.8-1.778 1.778s0.8 1.778 1.778 1.778 1.778-0.8 1.778-1.778c0-0.178-0.053-0.338-0.107-0.498l4.996 4.996c-1.262 0.196-2.222 1.298-2.222 2.613 0 1.476 1.191 2.667 2.667 2.667 1.316 0 2.418-0.96 2.613-2.222l4.996 4.996c-0.16-0.053-0.32-0.107-0.498-0.107-0.978 0-1.778 0.8-1.778 1.778s0.8 1.778 1.778 1.778 1.778-0.8 1.778-1.778c0-0.178-0.053-0.338-0.107-0.498l6.72 6.72 2.276-2.258-28.853-28.853-2.258 2.258M24.889 36.444c-0.498 0-0.889 0.391-0.889 0.889s0.391 0.889 0.889 0.889 0.889-0.391 0.889-0.889-0.391-0.889-0.889-0.889M32 12.444c0.978 0 1.778-0.8 1.778-1.778s-0.8-1.778-1.778-1.778-1.778 0.8-1.778 1.778 0.8 1.778 1.778 1.778M32 19.556c0.978 0 1.778-0.8 1.778-1.778s-0.8-1.778-1.778-1.778-1.778 0.8-1.778 1.778 0.8 1.778 1.778 1.778M32 26.667c0.978 0 1.778-0.8 1.778-1.778s-0.8-1.778-1.778-1.778-1.778 0.8-1.778 1.778 0.8 1.778 1.778 1.778M17.778 12.444c0.978 0 1.778-0.8 1.778-1.778s-0.8-1.778-1.778-1.778-1.778 0.8-1.778 1.778 0.8 1.778 1.778 1.778M37.333 18.667c0.498 0 0.889-0.391 0.889-0.889s-0.391-0.889-0.889-0.889-0.889 0.391-0.889 0.889 0.391 0.889 0.889 0.889M17.778 6.222c0.498 0 0.889-0.391 0.889-0.889s-0.391-0.889-0.889-0.889-0.889 0.391-0.889 0.889 0.391 0.889 0.889 0.889M24.889 6.222c0.498 0 0.889-0.391 0.889-0.889s-0.391-0.889-0.889-0.889-0.889 0.391-0.889 0.889 0.391 0.889 0.889 0.889M24.533 20.444h0.356c1.476 0 2.667-1.191 2.667-2.667s-1.191-2.667-2.667-2.667-2.667 1.191-2.667 2.667v0.356c0.196 1.191 1.12 2.116 2.311 2.311M24.889 12.444c0.978 0 1.778-0.8 1.778-1.778s-0.8-1.778-1.778-1.778-1.778 0.8-1.778 1.778 0.8 1.778 1.778 1.778z"></path>
</svg>
