<!-- Generated by IcoMoon.io -->
<svg version="1.1" xmlns="http://www.w3.org/2000/svg" width="43" height="32" viewBox="0 0 43 32">
<title>blur-linear</title>
<path d="M23.111 30.222c0.978 0 1.778-0.8 1.778-1.778s-0.8-1.778-1.778-1.778-1.778 0.8-1.778 1.778 0.8 1.778 1.778 1.778M23.111 23.111c0.978 0 1.778-0.8 1.778-1.778s-0.8-1.778-1.778-1.778-1.778 0.8-1.778 1.778 0.8 1.778 1.778 1.778M23.111 16c0.978 0 1.778-0.8 1.778-1.778s-0.8-1.778-1.778-1.778-1.778 0.8-1.778 1.778 0.8 1.778 1.778 1.778M30.222 22.222c0.498 0 0.889-0.391 0.889-0.889s-0.391-0.889-0.889-0.889-0.889 0.391-0.889 0.889 0.391 0.889 0.889 0.889M30.222 15.111c0.498 0 0.889-0.391 0.889-0.889s-0.391-0.889-0.889-0.889-0.889 0.391-0.889 0.889 0.391 0.889 0.889 0.889M5.333 5.333v3.556h32v-3.556M30.222 29.333c0.498 0 0.889-0.391 0.889-0.889s-0.391-0.889-0.889-0.889-0.889 0.391-0.889 0.889 0.391 0.889 0.889 0.889M16 30.222c0.978 0 1.778-0.8 1.778-1.778s-0.8-1.778-1.778-1.778-1.778 0.8-1.778 1.778 0.8 1.778 1.778 1.778M8.889 24c1.476 0 2.667-1.191 2.667-2.667s-1.191-2.667-2.667-2.667-2.667 1.191-2.667 2.667 1.191 2.667 2.667 2.667M8.889 16.889c1.476 0 2.667-1.191 2.667-2.667s-1.191-2.667-2.667-2.667-2.667 1.191-2.667 2.667 1.191 2.667 2.667 2.667M5.333 37.333h32v-3.556h-32M16 16c0.978 0 1.778-0.8 1.778-1.778s-0.8-1.778-1.778-1.778-1.778 0.8-1.778 1.778 0.8 1.778 1.778 1.778M16 23.111c0.978 0 1.778-0.8 1.778-1.778s-0.8-1.778-1.778-1.778-1.778 0.8-1.778 1.778 0.8 1.778 1.778 1.778M8.889 31.111c1.476 0 2.667-1.191 2.667-2.667s-1.191-2.667-2.667-2.667-2.667 1.191-2.667 2.667 1.191 2.667 2.667 2.667z"></path>
</svg>
