<!-- Generated by IcoMoon.io -->
<svg version="1.1" xmlns="http://www.w3.org/2000/svg" width="43" height="32" viewBox="0 0 43 32">
<title>bomb</title>
<path d="M20 10.667c0-3.182 2.596-5.778 5.778-5.778s5.778 2.596 5.778 5.778c0 0.747 0.587 1.333 1.333 1.333s1.333-0.587 1.333-1.333v-1.333h2.667v1.333c0 2.204-1.796 4-4 4s-4-1.796-4-4c0-1.724-1.387-3.111-3.111-3.111s-3.111 1.387-3.111 3.111h2.222v2.293c5.138 1.529 8.889 6.293 8.889 11.929 0 6.88-5.564 12.444-12.444 12.444s-12.444-5.564-12.444-12.444c0-5.636 3.751-10.4 8.889-11.929v-2.293h2.222M39.111 10.667h3.556v1.778h-3.556v-1.778M33.778 7.111v-3.556h1.778v3.556h-1.778M37.173 7.787l2.524-2.524 1.262 1.262-2.524 2.524-1.262-1.262z"></path>
</svg>
