<!-- Generated by IcoMoon.io -->
<svg version="1.1" xmlns="http://www.w3.org/2000/svg" width="43" height="32" viewBox="0 0 43 32">
<title>bomb-off</title>
<path d="M25.778 4.889c-3.2 0-5.778 2.578-5.778 5.778h-2.222v2.293c-1.227 0.373-2.364 0.924-3.413 1.618l17.262 17.262c1.404-2.044 2.151-4.48 2.151-6.951 0-5.636-3.751-10.4-8.889-11.929v-2.293h-2.222c0-1.724 1.387-3.111 3.111-3.111s3.111 1.387 3.111 3.111c0 2.204 1.796 4 4 4s3.982-1.796 3.982-4v-1.333h-2.649v1.333c0 0.747-0.604 1.333-1.333 1.333-0.747 0-1.333-0.587-1.333-1.333 0-3.2-2.596-5.778-5.778-5.778M6.062 11.307l-2.507 2.507 6.311 6.311c-0.622 1.458-0.978 3.058-0.978 4.764 0 6.862 5.564 12.444 12.444 12.444 1.636 0 3.253-0.338 4.764-0.978l6.311 6.311 2.507-2.507-28.853-28.853z"></path>
</svg>
