<!-- Generated by IcoMoon.io -->
<svg version="1.1" xmlns="http://www.w3.org/2000/svg" width="43" height="32" viewBox="0 0 43 32">
<title>bone</title>
<path d="M14.222 24.889c0 2.951-2.382 5.333-5.333 5.333s-5.333-2.382-5.333-5.333c0-1.369 0.516-2.613 1.351-3.556-0.836-0.942-1.351-2.187-1.351-3.556 0-2.951 2.382-5.333 5.333-5.333s5.333 2.382 5.333 5.333c2.364 0.142 4.747 0.302 7.111 0.302s4.747-0.16 7.111-0.302c0-2.951 2.382-5.333 5.333-5.333s5.333 2.382 5.333 5.333c0 1.369-0.516 2.613-1.351 3.556 0.836 0.942 1.351 2.187 1.351 3.556 0 2.951-2.382 5.333-5.333 5.333s-5.333-2.382-5.333-5.333c-2.364-0.142-4.747-0.302-7.111-0.302s-4.747 0.16-7.111 0.302z"></path>
</svg>
