<!-- Generated by IcoMoon.io -->
<svg version="1.1" xmlns="http://www.w3.org/2000/svg" width="43" height="32" viewBox="0 0 43 32">
<title>book-open-variant</title>
<path d="M37.333 8.889c-1.973-0.622-4.142-0.889-6.222-0.889-3.467 0-7.2 0.711-9.778 2.667-2.578-1.956-6.311-2.667-9.778-2.667s-7.2 0.711-9.778 2.667v26.044c0 0.444 0.444 0.889 0.889 0.889 0.178 0 0.267-0.089 0.444-0.089 2.4-1.156 5.867-1.956 8.444-1.956 3.467 0 7.2 0.711 9.778 2.667 2.4-1.511 6.756-2.667 9.778-2.667 2.933 0 5.956 0.533 8.444 1.867 0.178 0.089 0.267 0.089 0.444 0.089 0.444 0 0.889-0.444 0.889-0.889v-25.956c-1.067-0.8-2.222-1.333-3.556-1.778M37.333 32.889c-1.956-0.622-4.089-0.889-6.222-0.889-3.022 0-7.378 1.156-9.778 2.667v-20.444c2.4-1.511 6.756-2.667 9.778-2.667 2.133 0 4.267 0.267 6.222 0.889v20.444z"></path>
</svg>
