<!-- Generated by IcoMoon.io -->
<svg version="1.1" xmlns="http://www.w3.org/2000/svg" width="43" height="32" viewBox="0 0 43 32">
<title>book-open-page-variant</title>
<path d="M33.778 3.556l-8.889 8v19.556l8.889-8v-19.556M11.556 8.889c-3.467 0-7.2 0.711-9.778 2.667v26.062c0 0.444 0.444 0.889 0.889 0.889 0.178 0 0.267-0.124 0.444-0.124 2.4-1.156 5.867-1.938 8.444-1.938 3.467 0 7.2 0.711 9.778 2.667 2.4-1.511 6.756-2.667 9.778-2.667 2.933 0 5.956 0.551 8.444 1.884 0.178 0.089 0.267 0.053 0.444 0.053 0.444 0 0.889-0.444 0.889-0.889v-25.938c-1.067-0.8-2.222-1.333-3.556-1.778v24c-1.956-0.622-4.089-0.889-6.222-0.889-3.022 0-7.378 1.156-9.778 2.667v-24c-2.578-1.956-6.311-2.667-9.778-2.667z"></path>
</svg>
