<!-- Generated by IcoMoon.io -->
<svg version="1.1" xmlns="http://www.w3.org/2000/svg" width="43" height="32" viewBox="0 0 43 32">
<title>boombox</title>
<path d="M12.444 8.889l-3.556 3.556v1.778h-3.556c-0.978 0-1.778 0.8-1.778 1.778v14.222c0 0.978 0.8 1.778 1.778 1.778h32c0.978 0 1.778-0.8 1.778-1.778v-14.222c0-0.978-0.8-1.778-1.778-1.778h-3.556v-1.778l-3.556-3.556h-17.778M12.444 12.444h17.778v1.778h-17.778v-1.778M19.556 16h3.556c0.498 0 0.889 0.391 0.889 0.889s-0.391 0.889-0.889 0.889h-3.556c-0.498 0-0.889-0.391-0.889-0.889s0.391-0.889 0.889-0.889M13.333 18.667c2.951 0 5.333 2.382 5.333 5.333s-2.382 5.333-5.333 5.333-5.333-2.382-5.333-5.333 2.382-5.333 5.333-5.333M29.333 18.667c2.951 0 5.333 2.382 5.333 5.333s-2.382 5.333-5.333 5.333-5.333-2.382-5.333-5.333 2.382-5.333 5.333-5.333M13.333 21.333c-1.476 0-2.667 1.191-2.667 2.667s1.191 2.667 2.667 2.667 2.667-1.191 2.667-2.667-1.191-2.667-2.667-2.667M29.333 21.333c-1.476 0-2.667 1.191-2.667 2.667s1.191 2.667 2.667 2.667 2.667-1.191 2.667-2.667-1.191-2.667-2.667-2.667z"></path>
</svg>
