<!-- Generated by IcoMoon.io -->
<svg version="1.1" xmlns="http://www.w3.org/2000/svg" width="43" height="32" viewBox="0 0 43 32">
<title>bootstrap</title>
<path d="M5.333 8.889c0-1.956 1.6-3.556 3.556-3.556h24.889c1.956 0 3.556 1.6 3.556 3.556v24.889c0 1.956-1.6 3.556-3.556 3.556h-24.889c-1.973 0-3.556-1.6-3.556-3.556v-24.889M13.333 10.667v21.333h8.889c4 0 7.111-2.222 7.111-6.222 0-3.556-3.076-5.333-5.778-5.333 2.702 0 4.889-2.187 4.889-4.889s-3.076-4.889-5.778-4.889h-9.333M17.778 19.556v-5.333h2.667c1.476 0 2.667 1.191 2.667 2.667s-1.191 2.667-2.667 2.667h-2.667M17.778 23.111h3.556c1.476 0 2.667 1.191 2.667 2.667s-1.191 2.667-2.667 2.667h-3.556v-5.333z"></path>
</svg>
