<!-- Generated by IcoMoon.io -->
<svg version="1.1" xmlns="http://www.w3.org/2000/svg" width="43" height="32" viewBox="0 0 43 32">
<title>border-none</title>
<path d="M26.667 8.889h3.556v-3.556h-3.556M26.667 23.111h3.556v-3.556h-3.556M26.667 37.333h3.556v-3.556h-3.556M19.556 8.889h3.556v-3.556h-3.556M33.778 8.889h3.556v-3.556h-3.556M19.556 16h3.556v-3.556h-3.556M33.778 16h3.556v-3.556h-3.556M33.778 37.333h3.556v-3.556h-3.556M33.778 23.111h3.556v-3.556h-3.556M33.778 30.222h3.556v-3.556h-3.556M19.556 23.111h3.556v-3.556h-3.556M5.333 8.889h3.556v-3.556h-3.556M5.333 16h3.556v-3.556h-3.556M5.333 23.111h3.556v-3.556h-3.556M5.333 30.222h3.556v-3.556h-3.556M5.333 37.333h3.556v-3.556h-3.556M19.556 37.333h3.556v-3.556h-3.556M19.556 30.222h3.556v-3.556h-3.556M12.444 37.333h3.556v-3.556h-3.556M12.444 23.111h3.556v-3.556h-3.556M12.444 8.889h3.556v-3.556h-3.556v3.556z"></path>
</svg>
