<!-- Generated by IcoMoon.io -->
<svg version="1.1" xmlns="http://www.w3.org/2000/svg" width="43" height="32" viewBox="0 0 43 32">
<title>border-bottom</title>
<path d="M8.889 26.667h-3.556v3.556h3.556M5.333 37.333h32v-3.556h-32M8.889 19.556h-3.556v3.556h3.556M33.778 16h3.556v-3.556h-3.556M33.778 8.889h3.556v-3.556h-3.556M8.889 12.444h-3.556v3.556h3.556M33.778 30.222h3.556v-3.556h-3.556M33.778 23.111h3.556v-3.556h-3.556M30.222 5.333h-3.556v3.556h3.556M23.111 5.333h-3.556v3.556h3.556M30.222 19.556h-3.556v3.556h3.556M23.111 12.444h-3.556v3.556h3.556M8.889 5.333h-3.556v3.556h3.556M23.111 19.556h-3.556v3.556h3.556M16 5.333h-3.556v3.556h3.556M23.111 26.667h-3.556v3.556h3.556M16 19.556h-3.556v3.556h3.556v-3.556z"></path>
</svg>
