<!-- Generated by IcoMoon.io -->
<svg version="1.1" xmlns="http://www.w3.org/2000/svg" width="43" height="32" viewBox="0 0 43 32">
<title>bowling</title>
<path d="M21.333 3.556c9.813 0 17.778 7.964 17.778 17.778s-7.964 17.778-17.778 17.778-17.778-7.964-17.778-17.778 7.964-17.778 17.778-17.778M22.222 19.556c-1.476 0-2.667 1.191-2.667 2.667s1.191 2.667 2.667 2.667 2.667-1.191 2.667-2.667-1.191-2.667-2.667-2.667M21.333 8.889c-1.956 0-3.556 1.6-3.556 3.556s1.6 3.556 3.556 3.556 3.556-1.6 3.556-3.556-1.6-3.556-3.556-3.556M10.542 15.111c-0.978 1.689-0.391 3.858 1.298 4.836 1.707 0.996 3.876 0.409 4.871-1.28 0.978-1.724 0.391-3.893-1.316-4.871-1.689-0.978-3.84-0.409-4.853 1.316z"></path>
</svg>
