<!-- Generated by IcoMoon.io -->
<svg version="1.1" xmlns="http://www.w3.org/2000/svg" width="43" height="32" viewBox="0 0 43 32">
<title>box-cutter</title>
<path d="M12.836 21.173c-0.587 0.587-0.907 1.316-0.996 2.080l9.796 4.196 15.093-15.076c1.387-1.404 1.387-3.644 0-5.031l-2.524-2.524c-1.387-1.387-3.627-1.387-5.031 0l-16.338 16.356M8.889 28.444v10.222l10.329-9.28-8.889-3.556-1.44 2.613M30.436 8.587c0.676-0.693 1.831-0.693 2.524 0 0.693 0.711 0.693 1.831 0 2.524s-1.849 0.693-2.524 0c-0.693-0.693-0.693-1.813 0-2.524z"></path>
</svg>
