<!-- Generated by IcoMoon.io -->
<svg version="1.1" xmlns="http://www.w3.org/2000/svg" width="43" height="32" viewBox="0 0 43 32">
<title>box-shadow</title>
<path d="M5.333 5.333h26.667v26.667h-26.667v-26.667M33.778 33.778h3.556v3.556h-3.556v-3.556M33.778 28.444h3.556v3.556h-3.556v-3.556M33.778 23.111h3.556v3.556h-3.556v-3.556M33.778 17.778h3.556v3.556h-3.556v-3.556M33.778 12.444h3.556v3.556h-3.556v-3.556M28.444 33.778h3.556v3.556h-3.556v-3.556M23.111 33.778h3.556v3.556h-3.556v-3.556M17.778 33.778h3.556v3.556h-3.556v-3.556M12.444 33.778h3.556v3.556h-3.556v-3.556z"></path>
</svg>
