<!-- Generated by IcoMoon.io -->
<svg version="1.1" xmlns="http://www.w3.org/2000/svg" width="43" height="32" viewBox="0 0 43 32">
<title>box</title>
<path d="M27.36 24.96c0-2.524-2.044-4.569-4.569-4.569-2.507 0-4.551 2.044-4.551 4.569 0 2.507 2.044 4.551 4.551 4.551 2.524 0 4.569-2.044 4.569-4.551M30.4 24.96c0 4.196-3.413 7.591-7.609 7.591-2.898 0-5.422-1.636-6.702-4.036-1.28 2.4-3.804 4.036-6.702 4.036-4.16 0-7.538-3.342-7.609-7.467v-12.64c0-0.782 0.693-1.458 1.529-1.458s1.493 0.676 1.511 1.458v6.436c1.28-0.96 2.862-1.529 4.569-1.529 2.898 0 5.422 1.636 6.702 4.036 1.28-2.4 3.804-4.036 6.702-4.036 4.196 0 7.609 3.413 7.609 7.609M13.938 24.96c0-2.524-2.044-4.569-4.551-4.569-2.524 0-4.569 2.044-4.569 4.569 0 2.507 2.044 4.551 4.569 4.551 2.507 0 4.551-2.044 4.551-4.551M40.604 30.151c0.196 0.284 0.284 0.604 0.284 0.907 0 0.462-0.213 0.942-0.604 1.209-0.284 0.196-0.587 0.302-0.907 0.302-0.444 0-0.889-0.196-1.156-0.569l-3.396-4.498-3.36 4.498c-0.302 0.373-0.747 0.569-1.191 0.569-0.32 0-0.64-0.107-0.942-0.302-0.373-0.267-0.587-0.764-0.587-1.227 0-0.302 0.107-0.622 0.284-0.889l3.858-5.191-3.858-5.209c-0.196-0.267-0.284-0.569-0.284-0.889 0-0.462 0.213-0.907 0.587-1.209 0.693-0.498 1.618-0.373 2.133 0.284l3.36 4.48 3.396-4.48c0.462-0.658 1.404-0.782 2.062-0.284 0.409 0.302 0.604 0.764 0.604 1.244 0 0.302-0.089 0.604-0.284 0.853l-3.876 5.209 3.876 5.191z"></path>
</svg>
