<!-- Generated by IcoMoon.io -->
<svg version="1.1" xmlns="http://www.w3.org/2000/svg" width="43" height="32" viewBox="0 0 43 32">
<title>bridge</title>
<path d="M12.444 24.889v-5.493c-1.28-0.587-2.471-1.298-3.556-2.133v7.627h3.556M8.889 32h-3.556v-3.556h-3.556v-3.556h3.556v-12.444h3.556v2.542c3.2 2.791 7.591 4.569 12.444 4.569s9.244-1.778 12.444-4.569v-2.542h3.556v12.444h3.556v3.556h-3.556v3.556h-3.556v-3.556h-24.889v3.556M30.222 19.396v5.493h3.556v-7.627c-1.084 0.836-2.276 1.547-3.556 2.133M28.444 24.889v-4.764c-1.138 0.409-2.329 0.711-3.556 0.924v3.84h3.556M23.111 24.889v-3.627l-1.778 0.071-1.778-0.071v3.627h3.556M17.778 24.889v-3.84c-1.227-0.213-2.418-0.516-3.556-0.924v4.764h3.556z"></path>
</svg>
