<!-- Generated by IcoMoon.io -->
<svg version="1.1" xmlns="http://www.w3.org/2000/svg" width="43" height="32" viewBox="0 0 43 32">
<title>brightness-4</title>
<path d="M21.333 32c-1.582 0-3.093-0.356-4.444-0.978 3.662-1.689 6.222-5.387 6.222-9.689s-2.56-8-6.222-9.689c1.351-0.622 2.862-0.978 4.444-0.978 5.884 0 10.667 4.782 10.667 10.667s-4.782 10.667-10.667 10.667M35.556 15.449v-8.338h-8.338l-5.884-5.884-5.884 5.884h-8.338v8.338l-5.884 5.884 5.884 5.884v8.338h8.338l5.884 5.884 5.884-5.884h8.338v-8.338l5.884-5.884-5.884-5.884z"></path>
</svg>
