<!-- Generated by IcoMoon.io -->
<svg version="1.1" xmlns="http://www.w3.org/2000/svg" width="43" height="32" viewBox="0 0 43 32">
<title>buffer</title>
<path d="M22.4 5.084c4.747 2.204 9.6 4.498 14.329 6.702 0.267 0.124 0.604 0.213 0.604 0.569s-0.338 0.427-0.604 0.551c-4.729 2.204-9.529 4.462-14.293 6.649-0.729 0.373-1.476 0.373-2.204 0-4.782-2.204-9.564-4.444-14.329-6.667-0.249-0.107-0.569-0.196-0.569-0.551 0-0.32 0.32-0.409 0.551-0.516 4.782-2.24 9.653-4.533 14.453-6.756 0.516-0.231 1.529-0.213 2.062 0.018M21.333 37.6c-0.356 0-0.604-0.142-1.102-0.32-4.782-2.204-9.564-4.444-14.311-6.667-0.249-0.124-0.587-0.196-0.587-0.569 0-0.356 0.338-0.427 0.604-0.551 0.782-0.373 1.582-0.747 2.364-1.12 0.8-0.356 1.582-0.356 2.364 0.018 3.182 1.476 6.347 2.951 9.511 4.427 0.782 0.373 1.564 0.356 2.347 0 3.164-1.493 6.329-2.969 9.476-4.444 0.782-0.356 1.547-0.373 2.293-0.018 0.853 0.373 1.689 0.782 2.524 1.173 0.124 0.053 0.249 0.124 0.356 0.213 0.231 0.178 0.231 0.48 0 0.622-0.142 0.107-0.302 0.196-0.462 0.267-4.711 2.258-9.458 4.427-14.204 6.613-0.356 0.178-0.836 0.356-1.173 0.356M21.333 28.747c-0.178 0-0.8-0.178-1.138-0.302-4.764-2.24-9.529-4.444-14.258-6.684-0.249-0.107-0.604-0.196-0.604-0.551 0-0.373 0.356-0.444 0.622-0.569 0.8-0.391 1.6-0.764 2.4-1.138 0.764-0.338 1.529-0.338 2.311 0.053 3.164 1.458 6.364 2.951 9.564 4.444 0.729 0.338 1.476 0.338 2.222 0 3.2-1.511 6.4-3.004 9.618-4.498 0.729-0.338 1.476-0.338 2.222 0 0.836 0.391 1.689 0.782 2.524 1.173 0.107 0.053 0.231 0.107 0.338 0.196 0.249 0.196 0.249 0.462-0.018 0.676-0.089 0.071-0.213 0.124-0.32 0.178-4.818 2.276-9.6 4.498-14.4 6.72-0.338 0.16-0.942 0.302-1.084 0.302z"></path>
</svg>
