<!-- Generated by IcoMoon.io -->
<svg version="1.1" xmlns="http://www.w3.org/2000/svg" width="43" height="32" viewBox="0 0 43 32">
<title>bug</title>
<path d="M24.889 21.333h-7.111v-3.556h7.111M24.889 28.444h-7.111v-3.556h7.111M35.556 14.222h-4.996c-0.8-1.387-1.902-2.578-3.236-3.484l2.898-2.898-2.507-2.507-3.858 3.858c-0.818-0.196-1.636-0.302-2.524-0.302s-1.707 0.107-2.507 0.302l-3.876-3.858-2.507 2.507 2.88 2.898c-1.316 0.907-2.418 2.098-3.218 3.484h-4.996v3.556h3.716c-0.089 0.587-0.16 1.173-0.16 1.778v1.778h-3.556v3.556h3.556v1.778c0 0.604 0.071 1.191 0.16 1.778h-3.716v3.556h4.996c1.849 3.182 5.28 5.333 9.227 5.333s7.378-2.151 9.227-5.333h4.996v-3.556h-3.716c0.089-0.587 0.16-1.173 0.16-1.778v-1.778h3.556v-3.556h-3.556v-1.778c0-0.604-0.071-1.191-0.16-1.778h3.716v-3.556z"></path>
</svg>
