<!-- Generated by IcoMoon.io -->
<svg version="1.1" xmlns="http://www.w3.org/2000/svg" width="43" height="32" viewBox="0 0 43 32">
<title>bullhorn</title>
<path d="M28.444 21.333v7.111c0 0.978-0.8 1.778-1.778 1.778-0.302 0-0.587 0-1.671-0.889-1.102-0.889-2.969-2.667-4.889-3.556-1.778-0.818-3.609-0.889-5.422-0.889l2.151 5.902 0.053 0.32c0 0.498-0.391 0.889-0.889 0.889h-3.556c-0.391 0-0.729-0.249-0.836-0.604l-2.382-6.507h-0.338c-0.978 0-1.778-0.8-1.778-1.778-1.956 0-3.556-1.6-3.556-3.556s1.6-3.556 3.556-3.556c0-0.978 0.8-1.778 1.778-1.778h5.333c1.973 0 3.947 0 5.884-0.889 1.92-0.889 3.787-2.667 4.889-3.556 1.084-0.889 1.369-0.889 1.671-0.889 0.978 0 1.778 0.8 1.778 1.778v7.111c0.978 0 1.778 0.8 1.778 1.778s-0.8 1.778-1.778 1.778M37.333 19.556c0 2.453-0.996 4.676-2.596 6.293l-2.524-2.524c0.96-0.96 1.564-2.293 1.564-3.769s-0.604-2.809-1.564-3.769l2.524-2.524c1.6 1.618 2.596 3.84 2.596 6.293z"></path>
</svg>
