<!-- Generated by IcoMoon.io -->
<svg version="1.1" xmlns="http://www.w3.org/2000/svg" width="43" height="32" viewBox="0 0 43 32">
<title>bullseye</title>
<path d="M21.333 3.556c-9.813 0-17.778 7.964-17.778 17.778s7.964 17.778 17.778 17.778 17.778-7.964 17.778-17.778-7.964-17.778-17.778-17.778M21.333 7.111c7.858 0 14.222 6.364 14.222 14.222s-6.364 14.222-14.222 14.222-14.222-6.364-14.222-14.222 6.364-14.222 14.222-14.222M21.333 10.667c-5.884 0-10.667 4.782-10.667 10.667s4.782 10.667 10.667 10.667 10.667-4.782 10.667-10.667-4.782-10.667-10.667-10.667M21.333 14.222c3.929 0 7.111 3.182 7.111 7.111s-3.182 7.111-7.111 7.111-7.111-3.182-7.111-7.111 3.182-7.111 7.111-7.111M21.333 17.778c-1.956 0-3.556 1.6-3.556 3.556s1.6 3.556 3.556 3.556 3.556-1.6 3.556-3.556-1.6-3.556-3.556-3.556z"></path>
</svg>
