<!-- Generated by IcoMoon.io -->
<svg version="1.1" xmlns="http://www.w3.org/2000/svg" width="43" height="32" viewBox="0 0 43 32">
<title>bus</title>
<path d="M32 19.556h-21.333v-8.889h21.333M29.333 30.222c-1.476 0-2.667-1.191-2.667-2.667s1.191-2.667 2.667-2.667 2.667 1.191 2.667 2.667-1.191 2.667-2.667 2.667M13.333 30.222c-1.476 0-2.667-1.191-2.667-2.667s1.191-2.667 2.667-2.667 2.667 1.191 2.667 2.667-1.191 2.667-2.667 2.667M7.111 28.444c0 1.564 0.693 2.969 1.778 3.947v3.164c0 0.978 0.8 1.778 1.778 1.778h1.778c0.978 0 1.778-0.8 1.778-1.778v-1.778h14.222v1.778c0 0.978 0.8 1.778 1.778 1.778h1.778c0.978 0 1.778-0.8 1.778-1.778v-3.164c1.084-0.978 1.778-2.382 1.778-3.947v-17.778c0-6.222-6.364-7.111-14.222-7.111s-14.222 0.889-14.222 7.111v17.778z"></path>
</svg>
