<!-- Generated by IcoMoon.io -->
<svg version="1.1" xmlns="http://www.w3.org/2000/svg" width="43" height="32" viewBox="0 0 43 32">
<title>cached</title>
<path d="M33.778 14.222l-7.111 7.111h5.333c0 5.884-4.782 10.667-10.667 10.667-1.778 0-3.502-0.444-4.978-1.244l-2.596 2.596c2.187 1.387 4.782 2.204 7.573 2.204 7.858 0 14.222-6.364 14.222-14.222h5.333M10.667 21.333c0-5.884 4.782-10.667 10.667-10.667 1.778 0 3.502 0.444 4.978 1.244l2.596-2.596c-2.187-1.387-4.782-2.204-7.573-2.204-7.858 0-14.222 6.364-14.222 14.222h-5.333l7.111 7.111 7.111-7.111"></path>
</svg>
