<!-- Generated by IcoMoon.io -->
<svg version="1.1" xmlns="http://www.w3.org/2000/svg" width="43" height="32" viewBox="0 0 43 32">
<title>cake-layered</title>
<path d="M37.333 37.333v-7.111c0-1.973-1.6-3.556-3.556-3.556h-1.778v-5.333c0-1.973-1.6-3.556-3.556-3.556h-5.333v-3.556h-3.556v3.556h-5.333c-1.973 0-3.556 1.582-3.556 3.556v5.333h-1.778c-1.973 0-3.556 1.582-3.556 3.556v7.111h-3.556v3.556h39.111v-3.556M21.333 12.444c1.956 0 3.556-1.6 3.556-3.556 0-0.676-0.178-1.298-0.516-1.831l-3.040-5.28-3.058 5.28c-0.32 0.533-0.498 1.156-0.498 1.831 0 1.956 1.6 3.556 3.556 3.556z"></path>
</svg>
