<!-- Generated by IcoMoon.io -->
<svg version="1.1" xmlns="http://www.w3.org/2000/svg" width="43" height="32" viewBox="0 0 43 32">
<title>cake-variant</title>
<path d="M21.333 10.667c1.973 0 3.556-1.6 3.556-3.556 0-0.676-0.178-1.298-0.516-1.831l-3.040-5.28-3.040 5.28c-0.338 0.533-0.516 1.156-0.516 1.831 0 1.956 1.6 3.556 3.556 3.556M29.511 28.444l-1.902-1.92-1.92 1.92c-2.311 2.293-6.364 2.311-8.693 0l-1.884-1.92-1.956 1.92c-1.156 1.138-2.702 1.778-4.338 1.778-1.298 0-2.489-0.409-3.484-1.084v8.196c0 0.978 0.8 1.778 1.778 1.778h28.444c0.978 0 1.778-0.8 1.778-1.778v-8.196c-0.996 0.676-2.187 1.084-3.484 1.084-1.636 0-3.182-0.64-4.338-1.778M32 16h-8.889v-3.556h-3.556v3.556h-8.889c-2.951 0-5.333 2.382-5.333 5.333v2.738c0 1.92 1.564 3.484 3.484 3.484 0.96 0 1.849-0.356 2.453-1.013l3.84-3.787 3.751 3.787c1.316 1.316 3.609 1.316 4.924 0l3.769-3.787 3.822 3.787c0.622 0.658 1.511 1.013 2.453 1.013 1.92 0 3.502-1.564 3.502-3.484v-2.738c0-2.951-2.382-5.333-5.333-5.333z"></path>
</svg>
