<!-- Generated by IcoMoon.io -->
<svg version="1.1" xmlns="http://www.w3.org/2000/svg" width="43" height="32" viewBox="0 0 43 32">
<title>cake</title>
<path d="M20.444 0.889c0.889 0.444 2.667 3.378 2.667 5.333s-1.191 2.667-2.667 2.667-2.667-0.267-2.667-2.222 1.778-3.111 2.667-5.778M32.889 16c4.444 0 8 3.556 8 8 0 2.773-1.404 5.209-3.556 6.649v10.24h-32v-10.24c-2.151-1.44-3.556-3.876-3.556-6.649 0-4.444 3.556-8 8-8h8v-5.333h5.333v5.333h9.778M21.333 28.444c2.453 0 4.444-1.991 4.444-4.444h2.667c0 2.453 1.991 4.444 4.444 4.444s4.444-1.991 4.444-4.444-1.991-4.444-4.444-4.444h-23.111c-2.453 0-4.444 1.991-4.444 4.444s1.991 4.444 4.444 4.444 4.444-1.991 4.444-4.444h2.667c0 2.453 1.991 4.444 4.444 4.444z"></path>
</svg>
