<!-- Generated by IcoMoon.io -->
<svg version="1.1" xmlns="http://www.w3.org/2000/svg" width="43" height="32" viewBox="0 0 43 32">
<title>calculator</title>
<path d="M12.444 3.556h17.778c1.956 0 3.556 1.6 3.556 3.556v28.444c0 1.956-1.6 3.556-3.556 3.556h-17.778c-1.956 0-3.556-1.6-3.556-3.556v-28.444c0-1.956 1.6-3.556 3.556-3.556M12.444 7.111v7.111h17.778v-7.111h-17.778M12.444 17.778v3.556h3.556v-3.556h-3.556M19.556 17.778v3.556h3.556v-3.556h-3.556M26.667 17.778v3.556h3.556v-3.556h-3.556M12.444 24.889v3.556h3.556v-3.556h-3.556M19.556 24.889v3.556h3.556v-3.556h-3.556M26.667 24.889v3.556h3.556v-3.556h-3.556M12.444 32v3.556h3.556v-3.556h-3.556M19.556 32v3.556h3.556v-3.556h-3.556M26.667 32v3.556h3.556v-3.556h-3.556z"></path>
</svg>
