<!-- Generated by IcoMoon.io -->
<svg version="1.1" xmlns="http://www.w3.org/2000/svg" width="43" height="32" viewBox="0 0 43 32">
<title>calendar-clock</title>
<path d="M26.667 23.111h2.667v5.013l4.338 2.507-1.333 2.311-5.671-3.271v-6.56M33.778 14.222h-24.889v19.556h8.302c-0.764-1.618-1.191-3.431-1.191-5.333 0-6.88 5.564-12.444 12.444-12.444 1.902 0 3.716 0.427 5.333 1.191v-2.969M8.889 37.333c-1.973 0-3.556-1.6-3.556-3.556v-24.889c0-1.973 1.582-3.556 3.556-3.556h1.778v-3.556h3.556v3.556h14.222v-3.556h3.556v3.556h1.778c1.956 0 3.556 1.6 3.556 3.556v10.844c2.204 2.24 3.556 5.316 3.556 8.711 0 6.88-5.564 12.444-12.444 12.444-3.396 0-6.471-1.351-8.711-3.556h-10.844M28.444 19.822c-4.764 0-8.622 3.858-8.622 8.622s3.858 8.622 8.622 8.622c4.764 0 8.622-3.858 8.622-8.622s-3.858-8.622-8.622-8.622z"></path>
</svg>
