<!-- Generated by IcoMoon.io -->
<svg version="1.1" xmlns="http://www.w3.org/2000/svg" width="43" height="32" viewBox="0 0 43 32">
<title>calendar-plus</title>
<path d="M33.778 33.778v-21.333h-24.889v21.333h24.889M28.444 1.778h3.556v3.556h1.778c1.956 0 3.556 1.6 3.556 3.556v24.889c0 1.956-1.6 3.556-3.556 3.556h-24.889c-1.973 0-3.556-1.6-3.556-3.556v-24.889c0-1.973 1.582-3.556 3.556-3.556h1.778v-3.556h3.556v3.556h14.222v-3.556M19.556 16h3.556v5.333h5.333v3.556h-5.333v5.333h-3.556v-5.333h-5.333v-3.556h5.333v-5.333z"></path>
</svg>
