<!-- Generated by IcoMoon.io -->
<svg version="1.1" xmlns="http://www.w3.org/2000/svg" width="43" height="32" viewBox="0 0 43 32">
<title>calendar-range</title>
<path d="M16 17.778h-3.556v3.556h3.556v-3.556M23.111 17.778h-3.556v3.556h3.556v-3.556M30.222 17.778h-3.556v3.556h3.556v-3.556M33.778 5.333h-1.778v-3.556h-3.556v3.556h-14.222v-3.556h-3.556v3.556h-1.778c-1.973 0-3.556 1.6-3.556 3.556v24.889c0 1.956 1.6 3.556 3.556 3.556h24.889c1.956 0 3.556-1.6 3.556-3.556v-24.889c0-1.956-1.6-3.556-3.556-3.556M33.778 33.778h-24.889v-19.556h24.889v19.556z"></path>
</svg>
