<!-- Generated by IcoMoon.io -->
<svg version="1.1" xmlns="http://www.w3.org/2000/svg" width="43" height="32" viewBox="0 0 43 32">
<title>calendar-multiple</title>
<path d="M37.333 30.222v-16h-24.889v16h24.889M37.333 5.333c1.956 0 3.556 1.6 3.556 3.556v21.333c0 1.956-1.6 3.556-3.556 3.556h-24.889c-1.973 0-3.556-1.6-3.556-3.556v-21.333c0-1.956 1.6-3.556 3.556-3.556h1.778v-3.556h3.556v3.556h14.222v-3.556h3.556v3.556h1.778M5.333 37.333h24.889v3.556h-24.889c-1.973 0-3.556-1.6-3.556-3.556v-21.333h3.556v21.333M33.778 26.667h-7.111v-7.111h7.111v7.111z"></path>
</svg>
