<!-- Generated by IcoMoon.io -->
<svg version="1.1" xmlns="http://www.w3.org/2000/svg" width="43" height="32" viewBox="0 0 43 32">
<title>camera-rear</title>
<path d="M21.333 10.667c-1.973 0-3.556-1.6-3.556-3.556s1.6-3.556 3.556-3.556c1.938 0 3.556 1.6 3.556 3.556s-1.6 3.556-3.556 3.556M30.222 0h-17.778c-1.956 0-3.556 1.6-3.556 3.556v24.889c0 1.956 1.6 3.556 3.556 3.556h17.778c1.956 0 3.556-1.6 3.556-3.556v-24.889c0-1.956-1.6-3.556-3.556-3.556M24.889 35.556v3.556h8.889v-3.556M17.778 35.556h-8.889v3.556h8.889v3.556l5.333-5.333-5.333-5.333v3.556z"></path>
</svg>
