<!-- Generated by IcoMoon.io -->
<svg version="1.1" xmlns="http://www.w3.org/2000/svg" width="43" height="32" viewBox="0 0 43 32">
<title>camera-front-variant</title>
<path d="M10.667 0h21.333c1.956 0 3.556 1.6 3.556 3.556v35.556c0 1.956-1.6 3.556-3.556 3.556h-21.333c-1.956 0-3.556-1.6-3.556-3.556v-35.556c0-1.956 1.6-3.556 3.556-3.556M21.333 10.667c2.951 0 5.333 2.382 5.333 5.333s-2.382 5.333-5.333 5.333-5.333-2.382-5.333-5.333 2.382-5.333 5.333-5.333M19.556 1.778v3.556h3.556v-3.556h-3.556M10.667 7.111v22.222c0-2.453 4.782-4.444 10.667-4.444s10.667 1.991 10.667 4.444v-22.222h-21.333M23.111 32h-7.111v3.556h7.111v3.556l5.333-5.333-5.333-5.333v3.556z"></path>
</svg>
