<!-- Generated by IcoMoon.io -->
<svg version="1.1" xmlns="http://www.w3.org/2000/svg" width="43" height="32" viewBox="0 0 43 32">
<title>camera-timer</title>
<path d="M8.782 11.289c-0.693-0.693-0.693-1.831 0-2.524s1.813-0.693 2.507 0l12.569 10.062c1.387 1.387 1.387 3.644 0 5.031s-3.644 1.387-5.031 0l-0.498-0.622-9.547-11.947M21.333 35.556c7.858 0 14.222-6.364 14.222-14.222 0-3.929-1.6-7.484-4.16-10.062l2.507-2.507c3.218 3.218 5.209 7.662 5.209 12.569 0 9.813-7.964 17.778-17.778 17.778s-17.778-7.964-17.778-17.778h3.556c0 7.858 6.364 14.222 14.222 14.222M21.333 1.778c1.956 0 3.556 1.6 3.556 3.556s-1.6 3.556-3.556 3.556-3.556-1.6-3.556-3.556 1.6-3.556 3.556-3.556z"></path>
</svg>
