<!-- Generated by IcoMoon.io -->
<svg version="1.1" xmlns="http://www.w3.org/2000/svg" width="43" height="32" viewBox="0 0 43 32">
<title>camera-off</title>
<path d="M2.133 7.947l2.311-2.258 31.111 31.147-2.258 2.276-3.556-3.556h-22.631c-1.956 0-3.556-1.6-3.556-3.556v-21.333c0-0.391 0.071-0.764 0.178-1.12l-1.6-1.6M12.444 7.111l3.556-3.556h10.667l3.556 3.556h5.333c1.956 0 3.556 1.6 3.556 3.556v21.333c0 1.067-0.462 2.009-1.209 2.667l-8.871-8.889c0.764-1.298 1.191-2.827 1.191-4.444 0-4.907-3.982-8.889-8.889-8.889-1.618 0-3.147 0.427-4.444 1.191l-6.542-6.524h2.098M12.444 21.333c0 4.907 3.982 8.889 8.889 8.889 0.889 0 1.831-0.142 2.667-0.409l-3.164-3.147c-2.542-0.267-4.569-2.293-4.836-4.836l-3.147-3.164c-0.267 0.836-0.409 1.778-0.409 2.667M21.333 16c2.951 0 5.333 2.382 5.333 5.333 0 0.622-0.107 1.227-0.302 1.778l-6.809-6.809c0.551-0.196 1.156-0.302 1.778-0.302z"></path>
</svg>
