<!-- Generated by IcoMoon.io -->
<svg version="1.1" xmlns="http://www.w3.org/2000/svg" width="43" height="32" viewBox="0 0 43 32">
<title>camera-iris</title>
<path d="M24.409 26.667l-6.933 12.018c1.244 0.267 2.524 0.427 3.858 0.427 4.267 0 8.178-1.511 11.236-4l-6.507-11.289M4.373 26.667c1.636 5.191 5.6 9.351 10.649 11.271l6.524-11.271M15.182 21.333l-6.933-12c-2.916 3.111-4.693 7.36-4.693 12 0 1.209 0.124 2.4 0.356 3.556h13.316M38.756 17.778h-13.316l0.516 0.889 8.462 14.667c2.916-3.164 4.693-7.378 4.693-12 0-1.227-0.124-2.418-0.356-3.556M38.293 16c-1.636-5.209-5.6-9.351-10.649-11.271l-6.524 11.271M16.711 18.667l8.48-14.684c-1.244-0.267-2.524-0.427-3.858-0.427-4.267 0-8.178 1.493-11.236 4l6.507 11.289 0.107-0.178z"></path>
</svg>
