<!-- Generated by IcoMoon.io -->
<svg version="1.1" xmlns="http://www.w3.org/2000/svg" width="43" height="32" viewBox="0 0 43 32">
<title>camera-rear-variant</title>
<path d="M10.667 0h21.333c1.956 0 3.556 1.6 3.556 3.556v35.556c0 1.956-1.6 3.556-3.556 3.556h-21.333c-1.956 0-3.556-1.6-3.556-3.556v-35.556c0-1.956 1.6-3.556 3.556-3.556M21.333 3.556c-1.956 0-3.556 1.6-3.556 3.556s1.6 3.556 3.556 3.556 3.556-1.6 3.556-3.556-1.6-3.556-3.556-3.556M23.111 32h-7.111v3.556h7.111v3.556l5.333-5.333-5.333-5.333v3.556z"></path>
</svg>
