<!-- Generated by IcoMoon.io -->
<svg version="1.1" xmlns="http://www.w3.org/2000/svg" width="43" height="32" viewBox="0 0 43 32">
<title>camera-front</title>
<path d="M12.444 3.556h17.778v18.667c0-2.969-5.92-4.444-8.889-4.444s-8.889 1.476-8.889 4.444M30.222 0h-17.778c-1.956 0-3.556 1.6-3.556 3.556v24.889c0 1.956 1.6 3.556 3.556 3.556h17.778c1.956 0 3.556-1.6 3.556-3.556v-24.889c0-1.956-1.6-3.556-3.556-3.556M21.333 14.222c1.956 0 3.556-1.6 3.556-3.556s-1.6-3.556-3.556-3.556-3.556 1.6-3.556 3.556 1.6 3.556 3.556 3.556M24.889 35.556v3.556h8.889v-3.556M17.778 35.556h-8.889v3.556h8.889v3.556l5.333-5.333-5.333-5.333v3.556z"></path>
</svg>
