<!-- Generated by IcoMoon.io -->
<svg version="1.1" xmlns="http://www.w3.org/2000/svg" width="43" height="32" viewBox="0 0 43 32">
<title>camera-party-mode</title>
<path d="M21.333 30.222c-2.898 0-5.44-1.404-7.111-3.556h7.111c2.951 0 5.333-2.382 5.333-5.333 0-0.622-0.124-1.227-0.32-1.778h3.698c0.107 0.569 0.178 1.173 0.178 1.778 0 4.907-3.982 8.889-8.889 8.889M21.333 12.444c2.898 0 5.44 1.404 7.111 3.556h-7.111c-2.951 0-5.333 2.382-5.333 5.333 0 0.622 0.124 1.209 0.32 1.778h-3.698c-0.124-0.569-0.178-1.173-0.178-1.778 0-4.907 3.982-8.889 8.889-8.889M35.556 7.111h-5.636l-3.253-3.556h-10.667l-3.253 3.556h-5.636c-1.956 0-3.556 1.6-3.556 3.556v21.333c0 1.956 1.6 3.556 3.556 3.556h28.444c1.956 0 3.556-1.6 3.556-3.556v-21.333c0-1.973-1.6-3.556-3.556-3.556z"></path>
</svg>
