<!-- Generated by IcoMoon.io -->
<svg version="1.1" xmlns="http://www.w3.org/2000/svg" width="43" height="32" viewBox="0 0 43 32">
<title>camera</title>
<path d="M7.111 7.111h5.333l3.556-3.556h10.667l3.556 3.556h5.333c1.956 0 3.556 1.6 3.556 3.556v21.333c0 1.956-1.6 3.556-3.556 3.556h-28.444c-1.956 0-3.556-1.6-3.556-3.556v-21.333c0-1.956 1.6-3.556 3.556-3.556M21.333 12.444c-4.907 0-8.889 3.982-8.889 8.889s3.982 8.889 8.889 8.889 8.889-3.982 8.889-8.889-3.982-8.889-8.889-8.889M21.333 16c2.951 0 5.333 2.382 5.333 5.333s-2.382 5.333-5.333 5.333-5.333-2.382-5.333-5.333 2.382-5.333 5.333-5.333z"></path>
</svg>
