<!-- Generated by IcoMoon.io -->
<svg version="1.1" xmlns="http://www.w3.org/2000/svg" width="43" height="32" viewBox="0 0 43 32">
<title>cancel</title>
<path d="M21.333 3.556c9.813 0 17.778 7.964 17.778 17.778s-7.964 17.778-17.778 17.778-17.778-7.964-17.778-17.778 7.964-17.778 17.778-17.778M21.333 7.111c-7.858 0-14.222 6.364-14.222 14.222 0 3.289 1.12 6.311 2.987 8.729l19.964-19.964c-2.418-1.867-5.44-2.987-8.729-2.987M21.333 35.556c7.858 0 14.222-6.364 14.222-14.222 0-3.289-1.12-6.311-2.987-8.729l-19.964 19.964c2.418 1.867 5.44 2.987 8.729 2.987z"></path>
</svg>
