<!-- Generated by IcoMoon.io -->
<svg version="1.1" xmlns="http://www.w3.org/2000/svg" width="43" height="32" viewBox="0 0 43 32">
<title>candycane</title>
<path d="M17.778 17.778c0 1.956-1.6 3.556-3.556 3.556s-3.556-1.6-3.556-3.556v-3.556c0-1.12 0.178-2.187 0.48-3.2l6.631 6.631v0.124M21.333 3.556c1.316 0 2.56 0.231 3.716 0.676l-3.769 6.436c-1.476 0-2.72 0.889-3.236 2.222l-5.173-5.173c1.956-2.524 5.013-4.16 8.462-4.16M31.573 11.218l-6.684 6.684v-3.68c0-0.676-0.178-1.298-0.498-1.831l3.751-6.382c1.618 1.333 2.827 3.147 3.431 5.209M32 23.271l-7.111 7.111v-7.449l7.111-7.111v7.449M32 35.556c0 1.956-1.6 3.556-3.556 3.556s-3.556-1.6-3.556-3.556v-0.16l7.111-7.111v7.271z"></path>
</svg>
