<!-- Generated by IcoMoon.io -->
<svg version="1.1" xmlns="http://www.w3.org/2000/svg" width="43" height="32" viewBox="0 0 43 32">
<title>candle</title>
<path d="M22.222 3.556c-2.951 0-5.333 5.938-5.333 8.889s2.382 5.333 5.333 5.333 5.333-2.382 5.333-5.333-2.382-8.889-5.333-8.889M22.222 11.556c0.978 0 1.778 0.8 1.778 1.778s-0.8 1.778-1.778 1.778-1.778-0.8-1.778-1.778 0.8-1.778 1.778-1.778M17.778 19.556c-0.978 0-1.778 0.8-1.778 1.778v14.222h-3.556c-0.978 0-1.778-0.8-1.778-1.778v-1.778c0-0.978-0.8-1.778-1.778-1.778s-1.778 0.8-1.778 1.778v1.778c0 2.951 2.382 5.333 5.333 5.333h21.333c0.978 0 1.778-0.8 1.778-1.778s-0.8-1.778-1.778-1.778h-5.333v-14.222c0-0.978-0.8-1.778-1.778-1.778h-8.889z"></path>
</svg>
