<!-- Generated by IcoMoon.io -->
<svg version="1.1" xmlns="http://www.w3.org/2000/svg" width="43" height="32" viewBox="0 0 43 32">
<title>car-connected</title>
<path d="M8.889 24.889h24.889l-2.667-8h-19.556l-2.667 8M31.111 33.778c1.476 0 2.667-1.191 2.667-2.667s-1.191-2.667-2.667-2.667-2.667 1.191-2.667 2.667 1.191 2.667 2.667 2.667M11.556 33.778c1.476 0 2.667-1.191 2.667-2.667s-1.191-2.667-2.667-2.667-2.667 1.191-2.667 2.667 1.191 2.667 2.667 2.667M33.636 16l3.698 10.667v14.222c0 0.978-0.8 1.778-1.778 1.778h-1.778c-0.978 0-1.778-0.8-1.778-1.778v-1.778h-21.333v1.778c0 0.978-0.8 1.778-1.778 1.778h-1.778c-0.978 0-1.778-0.8-1.778-1.778v-14.222l3.698-10.667c0.356-1.031 1.369-1.778 2.524-1.778h19.556c1.156 0 2.169 0.747 2.524 1.778M21.333 0c3.769 0 7.378 1.529 10.044 4.178l-2.524 2.524c-1.991-1.991-4.711-3.147-7.52-3.147s-5.529 1.156-7.52 3.147l-2.507-2.524c2.649-2.649 6.258-4.178 10.027-4.178M21.333 7.111c1.884 0 3.68 0.782 5.013 2.098l-2.524 2.524c-0.658-0.658-1.547-1.067-2.489-1.067-0.889 0-1.831 0.409-2.489 1.067l-2.524-2.524c1.333-1.316 3.129-2.098 5.013-2.098z"></path>
</svg>
