<!-- Generated by IcoMoon.io -->
<svg version="1.1" xmlns="http://www.w3.org/2000/svg" width="43" height="32" viewBox="0 0 43 32">
<title>car</title>
<path d="M8.889 19.556l2.667-8h19.556l2.667 8M31.111 28.444c-1.476 0-2.667-1.191-2.667-2.667s1.191-2.667 2.667-2.667 2.667 1.191 2.667 2.667-1.191 2.667-2.667 2.667M11.556 28.444c-1.476 0-2.667-1.191-2.667-2.667s1.191-2.667 2.667-2.667 2.667 1.191 2.667 2.667-1.191 2.667-2.667 2.667M33.636 10.667c-0.356-1.031-1.351-1.778-2.524-1.778h-19.556c-1.173 0-2.169 0.747-2.524 1.778l-3.698 10.667v14.222c0 0.978 0.8 1.778 1.778 1.778h1.778c0.978 0 1.778-0.8 1.778-1.778v-1.778h21.333v1.778c0 0.978 0.8 1.778 1.778 1.778h1.778c0.978 0 1.778-0.8 1.778-1.778v-14.222l-3.698-10.667z"></path>
</svg>
