<!-- Generated by IcoMoon.io -->
<svg version="1.1" xmlns="http://www.w3.org/2000/svg" width="43" height="32" viewBox="0 0 43 32">
<title>cards-outline</title>
<path d="M19.893 4c-0.462 0-0.924 0.107-1.369 0.267l-13.084 5.422c-1.813 0.747-2.684 2.827-1.938 4.622l8.818 21.244c0.551 1.369 1.849 2.187 3.218 2.222 0.462 0 0.942-0.053 1.404-0.267l13.102-5.422c1.333-0.551 2.151-1.867 2.187-3.2 0.018-0.444-0.071-0.96-0.231-1.422l-8.889-21.244c-0.516-1.369-1.831-2.204-3.218-2.222M26.080 4l6.133 14.844v-11.289c0-1.956-1.6-3.556-3.556-3.556M35.787 6.738v16.053l4.32-10.418c0.729-1.813-0.107-3.876-1.938-4.622M19.893 7.502l8.853 21.369-13.138 5.44-8.853-21.351"></path>
</svg>
