<!-- Generated by IcoMoon.io -->
<svg version="1.1" xmlns="http://www.w3.org/2000/svg" width="43" height="32" viewBox="0 0 43 32">
<title>cards-variant</title>
<path d="M8.889 3.556h24.889c0.978 0 1.778 0.8 1.778 1.778v17.778c0 0.978-0.8 1.778-1.778 1.778h-24.889c-0.978 0-1.778-0.8-1.778-1.778v-17.778c0-0.978 0.8-1.778 1.778-1.778M10.667 7.111v14.222h21.333v-14.222h-21.333M35.556 30.222c0 0.978-0.8 1.778-1.778 1.778h-24.889c-0.978 0-1.778-0.8-1.778-1.778v-1.778h28.444v1.778M35.556 37.333c0 0.978-0.8 1.778-1.778 1.778h-24.889c-0.978 0-1.778-0.8-1.778-1.778v-1.778h28.444v1.778z"></path>
</svg>
