<!-- Generated by IcoMoon.io -->
<svg version="1.1" xmlns="http://www.w3.org/2000/svg" width="43" height="32" viewBox="0 0 43 32">
<title>cards</title>
<path d="M38.169 7.733l-2.382-0.996v16.053l4.32-10.418c0.729-1.813-0.107-3.893-1.938-4.64M3.502 14.311l8.818 21.244c0.551 1.369 1.849 2.204 3.218 2.24 0.462 0 0.942-0.089 1.404-0.284l13.102-5.422c1.333-0.551 2.151-1.867 2.187-3.182 0.018-0.462-0.071-0.978-0.231-1.44l-8.889-21.244c-0.516-1.369-1.831-2.204-3.218-2.222-0.462 0-0.924 0.107-1.369 0.267l-13.084 5.422c-1.813 0.747-2.684 2.827-1.938 4.622M32.213 7.556c0-1.956-1.6-3.556-3.556-3.556h-2.578l6.133 14.827"></path>
</svg>
