<!-- Generated by IcoMoon.io -->
<svg version="1.1" xmlns="http://www.w3.org/2000/svg" width="43" height="32" viewBox="0 0 43 32">
<title>cards-playing-outline</title>
<path d="M19.893 4c1.387 0.018 2.702 0.853 3.218 2.222l8.889 21.244c0.16 0.462 0.249 0.978 0.231 1.422-0.036 1.333-0.853 2.649-2.187 3.2l-13.102 5.422c-0.462 0.213-0.942 0.267-1.404 0.267-1.369-0.036-2.667-0.853-3.218-2.222l-8.818-21.244c-0.747-1.796 0.124-3.876 1.938-4.622l13.084-5.422c0.444-0.16 0.907-0.267 1.369-0.267M26.080 4h2.578c1.956 0 3.556 1.6 3.556 3.556v11.289l-6.133-14.844M35.787 6.738l2.382 1.013c1.831 0.747 2.667 2.809 1.938 4.622l-4.32 10.418v-16.053M19.893 7.502l-13.138 5.458 8.836 21.351 13.156-5.44-8.853-21.369M15.378 15.182l5.742 4.284-0.782 7.129-5.742-4.302 0.782-7.111z"></path>
</svg>
