<!-- Generated by IcoMoon.io -->
<svg version="1.1" xmlns="http://www.w3.org/2000/svg" width="43" height="32" viewBox="0 0 43 32">
<title>carrot</title>
<path d="M28.444 17.778l-0.356 1.778h-4.089c-0.498 0-0.889 0.391-0.889 0.889s0.391 0.889 0.889 0.889h3.733l-1.778 8.889h-3.733c-0.498 0-0.889 0.391-0.889 0.889s0.391 0.889 0.889 0.889h3.378l-0.711 3.556c0 1.956-1.6 3.556-3.556 3.556s-3.556-1.6-3.556-3.556l-1.778-8.889h2.667c0.498 0 0.889-0.391 0.889-0.889s-0.391-0.889-0.889-0.889h-3.022l-1.422-7.111c0-2.133 1.653-3.964 4.071-4.818l-2.471-3.573c-0.551-0.818-0.356-1.92 0.462-2.471 0.8-0.569 1.902-0.356 2.471 0.444l0.8 1.173v-3.2c0-0.978 0.8-1.778 1.778-1.778s1.778 0.8 1.778 1.778v4.053l2.667-3.093c0.587-0.747 1.724-0.836 2.471-0.196 0.747 0.622 0.836 1.742 0.196 2.507l-3.787 4.462c2.258 0.889 3.787 2.667 3.787 4.711z"></path>
</svg>
