<!-- Generated by IcoMoon.io -->
<svg version="1.1" xmlns="http://www.w3.org/2000/svg" width="43" height="32" viewBox="0 0 43 32">
<title>cart-plus</title>
<path d="M19.556 16h3.556v-5.333h5.333v-3.556h-5.333v-5.333h-3.556v5.333h-5.333v3.556h5.333M12.444 32c-1.956 0-3.556 1.6-3.556 3.556s1.6 3.556 3.556 3.556 3.556-1.6 3.556-3.556-1.6-3.556-3.556-3.556M30.222 32c-1.956 0-3.556 1.6-3.556 3.556s1.6 3.556 3.556 3.556 3.556-1.6 3.556-3.556-1.6-3.556-3.556-3.556M12.747 26.222l0.053-0.213 1.6-2.898h13.244c1.333 0 2.507-0.729 3.111-1.831l6.862-12.462-3.093-1.707h-0.018l-1.956 3.556-4.907 8.889h-12.48l-0.231-0.48-3.982-8.409-1.689-3.556-1.671-3.556h-5.813v3.556h3.556l6.4 13.493-2.4 4.356c-0.284 0.498-0.444 1.084-0.444 1.707 0 1.956 1.6 3.556 3.556 3.556h21.333v-3.556h-20.587c-0.231 0-0.444-0.196-0.444-0.444z"></path>
</svg>
