<!-- Generated by IcoMoon.io -->
<svg version="1.1" xmlns="http://www.w3.org/2000/svg" width="43" height="32" viewBox="0 0 43 32">
<title>cart-off</title>
<path d="M40.409 40.409l-38.151-38.151-2.258 2.258 7.804 7.804 3.929 8.284-2.4 4.356c-0.284 0.498-0.444 1.084-0.444 1.707 0 1.956 1.6 3.556 3.556 3.556h13.262l2.453 2.453c-0.889 0.64-1.493 1.689-1.493 2.88 0 1.956 1.6 3.556 3.556 3.556 1.191 0 2.24-0.587 2.88-1.493l5.049 5.049 2.258-2.258M13.191 26.667c-0.249 0-0.444-0.196-0.444-0.444l0.053-0.213 1.6-2.898h4.196l3.556 3.556h-8.96M27.644 23.111c1.333 0 2.507-0.729 3.111-1.831l6.364-11.502c0.142-0.284 0.213-0.587 0.213-0.889 0-0.978-0.8-1.778-1.778-1.778h-23.929l16.018 16M12.444 32c-1.956 0-3.556 1.6-3.556 3.556s1.6 3.556 3.556 3.556 3.556-1.6 3.556-3.556-1.6-3.556-3.556-3.556z"></path>
</svg>
