<!-- Generated by IcoMoon.io -->
<svg version="1.1" xmlns="http://www.w3.org/2000/svg" width="43" height="32" viewBox="0 0 43 32">
<title>cart</title>
<path d="M30.222 32c-1.973 0-3.556 1.582-3.556 3.556 0 1.956 1.6 3.556 3.556 3.556s3.556-1.6 3.556-3.556c0-1.973-1.6-3.556-3.556-3.556M1.778 3.556v3.556h3.556l6.4 13.493-2.418 4.356c-0.267 0.498-0.427 1.084-0.427 1.707 0 1.956 1.6 3.556 3.556 3.556h21.333v-3.556h-20.587c-0.249 0-0.444-0.196-0.444-0.444 0-0.089 0.018-0.16 0.053-0.213l1.6-2.898h13.244c1.333 0 2.507-0.747 3.111-1.831l6.364-11.502c0.124-0.284 0.213-0.587 0.213-0.889 0-0.978-0.8-1.778-1.778-1.778h-26.293l-1.671-3.556M12.444 32c-1.973 0-3.556 1.582-3.556 3.556 0 1.956 1.6 3.556 3.556 3.556s3.556-1.6 3.556-3.556c0-1.973-1.6-3.556-3.556-3.556z"></path>
</svg>
