<!-- Generated by IcoMoon.io -->
<svg version="1.1" xmlns="http://www.w3.org/2000/svg" width="43" height="32" viewBox="0 0 43 32">
<title>case-sensitive-alt</title>
<path d="M35.556 24.889c0-2.667-0.889-3.556-3.556-3.556h-3.556v-1.778c0-1.778 0-1.778-3.556-1.778v16h7.111c2.667 0 3.556-0.942 3.556-3.556v-5.333M21.333 21.333c0-2.667-0.942-3.556-3.556-3.556h-7.111c-2.667 0-3.556 0.889-3.556 3.556v12.444h3.556v-5.333h7.111v5.333h3.556v-12.444M17.778 12.444h7.111v-3.556h-7.111v3.556M39.111 16v19.556c0 1.973-1.582 3.556-3.556 3.556h-28.444c-1.956 0-3.556-1.6-3.556-3.556v-19.556c0-1.973 1.582-3.556 3.556-3.556h7.111v-3.556l3.556-3.556h7.111l3.556 3.556v3.556h7.111c1.956 0 3.556 1.6 3.556 3.556M28.444 30.222h3.556v-5.333h-3.556v5.333M10.667 21.333h7.111v3.556h-7.111v-3.556z"></path>
</svg>
