<!-- Generated by IcoMoon.io -->
<svg version="1.1" xmlns="http://www.w3.org/2000/svg" width="43" height="32" viewBox="0 0 43 32">
<title>cash-usd</title>
<path d="M35.556 32h-28.444v-21.333h28.444M35.556 7.111h-28.444c-1.973 0-3.556 1.582-3.556 3.556v21.333c0 1.956 1.6 3.556 3.556 3.556h28.444c1.956 0 3.556-1.6 3.556-3.556v-21.333c0-1.973-1.6-3.556-3.556-3.556M19.556 30.222h3.556v-1.778h1.778c0.978 0 1.778-0.8 1.778-1.778v-5.333c0-0.978-0.8-1.778-1.778-1.778h-5.333v-1.778h7.111v-3.556h-3.556v-1.778h-3.556v1.778h-1.778c-0.978 0-1.778 0.8-1.778 1.778v5.333c0 0.978 0.8 1.778 1.778 1.778h5.333v1.778h-7.111v3.556h3.556v1.778z"></path>
</svg>
