<!-- Generated by IcoMoon.io -->
<svg version="1.1" xmlns="http://www.w3.org/2000/svg" width="43" height="32" viewBox="0 0 43 32">
<title>cash-100</title>
<path d="M3.556 8.889h35.556v26.667h-35.556v-26.667M35.556 32v-19.556h-28.444v19.556h28.444M30.222 14.222c0 1.956 1.6 3.556 3.556 3.556v8.889c-1.956 0-3.556 1.6-3.556 3.556h-17.778c0-1.956-1.6-3.556-3.556-3.556v-8.889c1.956 0 3.556-1.6 3.556-3.556h17.778M30.222 23.111v-1.778c0-1.956-1.191-3.556-2.667-3.556s-2.667 1.6-2.667 3.556v1.778c0 1.956 1.191 3.556 2.667 3.556s2.667-1.6 2.667-3.556M27.556 19.556c0.498 0 0.889 0.391 0.889 0.889v3.556c0 0.498-0.391 0.889-0.889 0.889s-0.889-0.391-0.889-0.889v-3.556c0-0.498 0.391-0.889 0.889-0.889M23.111 23.111v-1.778c0-1.956-1.191-3.556-2.667-3.556s-2.667 1.6-2.667 3.556v1.778c0 1.956 1.191 3.556 2.667 3.556s2.667-1.6 2.667-3.556M20.444 19.556c0.498 0 0.889 0.391 0.889 0.889v3.556c0 0.498-0.391 0.889-0.889 0.889s-0.889-0.391-0.889-0.889v-3.556c0-0.498 0.391-0.889 0.889-0.889M14.222 26.667h1.778v-8.889h-1.778l-1.778 0.889v1.778l1.778-0.889v7.111z"></path>
</svg>
