<!-- Generated by IcoMoon.io -->
<svg version="1.1" xmlns="http://www.w3.org/2000/svg" width="43" height="32" viewBox="0 0 43 32">
<title>castle</title>
<path d="M3.556 23.111h3.556v3.556h3.556v-3.556h3.556v3.556h3.556v-3.556h3.556v3.556h3.556v-8.889l5.333-5.333v-10.667h3.556l7.111 3.556-7.111 3.556v3.556l5.333 5.333v21.333h-19.556v-5.333c0-1.956-1.6-3.556-3.556-3.556s-3.556 1.6-3.556 3.556v5.333h-8.889v-16M32 17.778c-0.978 0-1.778 0.96-1.778 2.133v3.2h3.556v-3.2c0-1.173-0.8-2.133-1.778-2.133z"></path>
</svg>
