<!-- Generated by IcoMoon.io -->
<svg version="1.1" xmlns="http://www.w3.org/2000/svg" width="43" height="32" viewBox="0 0 43 32">
<title>cast-off</title>
<path d="M2.844 2.258l-2.4 2.631 2.062 1.867c-0.444 0.587-0.729 1.333-0.729 2.133v5.333h3.556v-4.924l27.022 24.48h-7.467v3.556h11.396l3.378 3.058 2.382-2.631M11.556 5.333l3.911 3.556h21.867v19.804l3.556 3.218v-23.022c0-1.973-1.6-3.556-3.556-3.556M1.778 17.778v3.556c8.836 0 16 7.164 16 16h3.556c0-10.809-8.747-19.556-19.556-19.556M1.778 24.889v3.556c4.907 0 8.889 3.982 8.889 8.889h3.556c0-6.88-5.564-12.444-12.444-12.444M1.778 32v5.333h5.333c0-2.951-2.382-5.333-5.333-5.333z"></path>
</svg>
