<!-- Generated by IcoMoon.io -->
<svg version="1.1" xmlns="http://www.w3.org/2000/svg" width="43" height="32" viewBox="0 0 43 32">
<title>cast</title>
<path d="M1.778 17.778v3.556c8.836 0 16 7.164 16 16h3.556c0-10.809-8.764-19.556-19.556-19.556M1.778 24.889v3.556c4.907 0 8.889 3.982 8.889 8.889h3.556c0-6.88-5.564-12.444-12.444-12.444M1.778 32v5.333h5.333c0-2.951-2.382-5.333-5.333-5.333M37.333 5.333h-32c-1.973 0-3.556 1.582-3.556 3.556v5.333h3.556v-5.333h32v24.889h-12.444v3.556h12.444c1.956 0 3.556-1.6 3.556-3.556v-24.889c0-1.973-1.6-3.556-3.556-3.556z"></path>
</svg>
