<!-- Generated by IcoMoon.io -->
<svg version="1.1" xmlns="http://www.w3.org/2000/svg" width="43" height="32" viewBox="0 0 43 32">
<title>cat</title>
<path d="M21.333 14.222l-2.364 0.16c-1.529-1.813-5.813-6.382-10.080-6.382 0 0-3.502 5.262-0.071 12.284-0.978 1.476-1.582 2.24-1.707 4l-3.431 0.516 0.373 1.742 3.129-0.462 0.249 1.262-2.791 1.671 0.836 1.582 2.578-1.582c2.044 4.338 7.218 6.542 13.28 6.542s11.236-2.204 13.28-6.542l2.578 1.582 0.836-1.582-2.791-1.671 0.249-1.262 3.129 0.462 0.373-1.742-3.431-0.516c-0.124-1.76-0.729-2.524-1.707-4 3.431-7.022-0.071-12.284-0.071-12.284-4.267 0-8.551 4.569-10.080 6.382l-2.364-0.16M16 19.556c0.978 0 1.778 0.8 1.778 1.778s-0.8 1.778-1.778 1.778-1.778-0.8-1.778-1.778 0.8-1.778 1.778-1.778M26.667 19.556c0.978 0 1.778 0.8 1.778 1.778s-0.8 1.778-1.778 1.778-1.778-0.8-1.778-1.778 0.8-1.778 1.778-1.778M19.556 24.889h3.556l-1.244 2.471c0.356 1.138 1.351 1.973 2.578 1.973 1.476 0 2.667-1.191 2.667-2.667h0.889c0 1.956-1.6 3.556-3.556 3.556-1.333 0-2.489-0.729-3.111-1.778-0.622 1.049-1.778 1.778-3.111 1.778-1.956 0-3.556-1.6-3.556-3.556h0.889c0 1.476 1.191 2.667 2.667 2.667 1.227 0 2.222-0.836 2.578-1.973l-1.244-2.471z"></path>
</svg>
