<!-- Generated by IcoMoon.io -->
<svg version="1.1" xmlns="http://www.w3.org/2000/svg" width="43" height="32" viewBox="0 0 43 32">
<title>cellphone-link-off</title>
<path d="M40.889 14.222h-10.667c-0.978 0-1.778 0.8-1.778 1.778v7.431l3.556 3.556v-9.209h7.111v12.444h-3.876l5.333 5.333h0.32c0.978 0 1.778-0.8 1.778-1.778v-17.778c0-0.978-0.8-1.778-1.778-1.778M7.111 11.147l19.076 19.076h-19.076v-19.076M3.413 2.933l-2.258 2.258 3.236 3.236c-0.516 0.604-0.836 1.351-0.836 2.24v19.556h-3.556v5.333h31.52l4.178 4.178 2.258-2.258-34.542-34.542M39.111 10.667v-3.556h-26.987l3.556 3.556h23.431z"></path>
</svg>
