<!-- Generated by IcoMoon.io -->
<svg version="1.1" xmlns="http://www.w3.org/2000/svg" width="43" height="32" viewBox="0 0 43 32">
<title>cellphone-basic</title>
<path d="M26.667 3.556c-0.978 0-1.778 0.8-1.778 1.778v5.333h-7.111c-1.973 0-3.556 1.582-3.556 3.556v21.333c0 1.973 1.582 3.556 3.556 3.556h8.889c1.973 0 3.556-1.582 3.556-3.556v-21.333c0-1.316-0.711-2.453-1.778-3.058v-5.831c0-0.978-0.8-1.778-1.778-1.778M17.778 14.222h8.889v8.889h-8.889v-8.889M17.778 26.667h1.778v1.778h-1.778v-1.778M21.333 26.667h1.778v1.778h-1.778v-1.778M24.889 26.667h1.778v1.778h-1.778v-1.778M17.778 30.222h1.778v1.778h-1.778v-1.778M21.333 30.222h1.778v1.778h-1.778v-1.778M24.889 30.222h1.778v1.778h-1.778v-1.778M17.778 33.778h1.778v1.778h-1.778v-1.778M21.333 33.778h1.778v1.778h-1.778v-1.778M24.889 33.778h1.778v1.778h-1.778v-1.778z"></path>
</svg>
