<!-- Generated by IcoMoon.io -->
<svg version="1.1" xmlns="http://www.w3.org/2000/svg" width="43" height="32" viewBox="0 0 43 32">
<title>certificate</title>
<path d="M7.111 5.333c-1.973 0-3.556 1.582-3.556 3.556v17.778c0 1.956 1.6 3.556 3.556 3.556h14.222v8.889l5.333-5.333 5.333 5.333v-8.889h3.556c1.956 0 3.556-1.6 3.556-3.556v-17.778c0-1.956-1.6-3.556-3.556-3.556h-28.444M21.333 8.889l5.333 3.556 5.333-3.556v6.222l5.333 2.667-5.333 2.667v6.222l-5.333-3.556-5.333 3.556v-6.222l-5.333-2.667 5.333-2.667v-6.222M7.111 8.889h8.889v3.556h-8.889v-3.556M7.111 16h5.333v3.556h-5.333v-3.556M7.111 23.111h8.889v3.556h-8.889v-3.556z"></path>
</svg>
