<!-- Generated by IcoMoon.io -->
<svg version="1.1" xmlns="http://www.w3.org/2000/svg" width="32" height="32" viewBox="0 0 32 32">
<title>channel</title>
<path d="M25.057 0h0.444c0.23 0.274 0.47 0.567 0.427 0.955 0.036 2.761-0.007 5.527 0.019 8.291 3.234 1.042 3.195 6.359-0.015 7.418 0 2.781 0.032 5.564-0.012 8.344 0.049 0.49-0.415 1.079-0.938 0.817-0.613-0.393-1.016-1.028-1.554-1.51-2.645-2.538-5.818-4.623-9.372-5.615-3.040-0.64-6.167-0.291-9.229-0.039-0.768 0.053-1.447-0.655-1.423-1.411-0.019-2.853-0.012-5.707-0.005-8.558-0.034-0.696 0.485-1.372 1.181-1.469 3.661 0.189 7.53 0.856 11.040-0.56 2.967-1.139 5.651-2.97 7.908-5.198 0.512-0.487 0.924-1.086 1.53-1.467z"></path>
<path d="M7.784 20.87c-0.211-0.766 0.424-1.595 1.212-1.607 1.045-0.036 2.092-0.017 3.137-0.010 0.8-0.041 1.561 0.606 1.632 1.406 0.058 0.718 0.017 1.44 0.029 2.16 0.393 0.242 0.848 0.431 1.118 0.827 0.48 0.664 0.393 1.544 0.313 2.315-0.109 0.756-0.778 1.212-1.411 1.527-0.056 1.021 0.012 2.041-0.041 3.062-0.031 0.73-0.64 1.287-1.321 1.45h-0.657c-0.861-0.109-1.6-0.781-1.745-1.644-0.752-3.164-1.544-6.318-2.264-9.486z"></path>
</svg>
