<!-- Generated by IcoMoon.io -->
<svg version="1.1" xmlns="http://www.w3.org/2000/svg" width="43" height="32" viewBox="0 0 43 32">
<title>chart-arc</title>
<path d="M28.764 34.844l-3.573-6.187c1.742-1.28 2.951-3.271 3.2-5.547h7.164c-0.302 4.907-2.933 9.173-6.791 11.733M23.111 12.498v-7.164c7.644 0.462 13.76 6.578 14.222 14.222h-7.164c-0.409-3.716-3.342-6.649-7.058-7.058M12.444 22.222c0 1.138 0.231 2.222 0.676 3.2l-6.187 3.573c-1.031-2.044-1.6-4.338-1.6-6.773 0-8.053 6.293-14.631 14.222-15.111v7.164c-4 0.444-7.111 3.822-7.111 7.947M20.444 37.333c-5.28 0-9.92-2.667-12.622-6.791l6.187-3.573c1.458 1.973 3.769 3.253 6.436 3.253 1.138 0 2.222-0.231 3.2-0.676l3.573 6.187c-2.044 1.031-4.338 1.6-6.773 1.6z"></path>
</svg>
