<!-- Generated by IcoMoon.io -->
<svg version="1.1" xmlns="http://www.w3.org/2000/svg" width="43" height="32" viewBox="0 0 43 32">
<title>chart-bubble</title>
<path d="M12.8 19.911c3.147 0 5.689 2.542 5.689 5.689s-2.542 5.689-5.689 5.689c-3.147 0-5.689-2.542-5.689-5.689s2.542-5.689 5.689-5.689M26.311 28.444c1.956 0 3.556 1.6 3.556 3.556s-1.6 3.556-3.556 3.556-3.556-1.6-3.556-3.556 1.6-3.556 3.556-3.556M27.022 7.111c4.711 0 8.533 3.822 8.533 8.533s-3.822 8.533-8.533 8.533-8.533-3.822-8.533-8.533 3.822-8.533 8.533-8.533z"></path>
</svg>
