<!-- Generated by IcoMoon.io -->
<svg version="1.1" xmlns="http://www.w3.org/2000/svg" width="43" height="32" viewBox="0 0 43 32">
<title>checkbox-multiple-marked-circle-outline</title>
<path d="M24.889 3.556c-7.858 0-14.222 6.364-14.222 14.222s6.364 14.222 14.222 14.222 14.222-6.364 14.222-14.222h-3.556c0 5.902-4.764 10.667-10.667 10.667-5.884 0-10.667-4.782-10.667-10.667s4.782-10.667 10.667-10.667c0.764 0 1.529 0.089 2.258 0.249l2.862-2.844c-1.636-0.64-3.342-0.96-5.12-0.96M36.604 6.364l-11.716 11.716-4.231-4.231-2.507 2.524 6.738 6.738 14.222-14.222M8.764 10.347c-3.289 2.702-5.209 6.738-5.209 10.987 0 7.858 6.364 14.222 14.222 14.222 1.138 0 2.258-0.142 3.342-0.409-3.129-0.693-6.009-2.258-8.373-4.409-3.467-1.849-5.636-5.476-5.636-9.404 0-0.533 0.053-1.049 0.124-1.582-0.071-0.658-0.124-1.316-0.124-1.973 0-2.56 0.569-5.102 1.653-7.431z"></path>
</svg>
