<!-- Generated by IcoMoon.io -->
<svg version="1.1" xmlns="http://www.w3.org/2000/svg" width="43" height="32" viewBox="0 0 43 32">
<title>checkbox-multiple-marked-outline</title>
<path d="M35.556 28.444v-10.667h3.556v10.667c0 1.956-1.6 3.556-3.556 3.556h-21.333c-1.973 0-3.556-1.6-3.556-3.556v-21.333c0-1.973 1.582-3.556 3.556-3.556h14.222v3.556h-14.222v21.333h21.333M19.396 12.587l5.493 5.493 11.716-11.716 2.507 2.524-14.222 14.222-8-8 2.507-2.524M28.444 35.556v3.556h-21.333c-1.956 0-3.556-1.6-3.556-3.556v-23.111h3.556v23.111h21.333z"></path>
</svg>
