<!-- Generated by IcoMoon.io -->
<svg version="1.1" xmlns="http://www.w3.org/2000/svg" width="43" height="32" viewBox="0 0 43 32">
<title>checkbox-marked-circle-outline</title>
<path d="M35.556 21.333c0 7.858-6.364 14.222-14.222 14.222s-14.222-6.364-14.222-14.222 6.364-14.222 14.222-14.222c1.351 0 2.667 0.196 3.911 0.551l2.791-2.791c-2.062-0.853-4.32-1.316-6.702-1.316-9.813 0-17.778 7.964-17.778 17.778s7.964 17.778 17.778 17.778 17.778-7.964 17.778-17.778M14.062 17.92l-2.507 2.524 8 8 17.778-17.778-2.507-2.524-15.271 15.271-5.493-5.493z"></path>
</svg>
