<!-- Generated by IcoMoon.io -->
<svg version="1.1" xmlns="http://www.w3.org/2000/svg" width="43" height="32" viewBox="0 0 43 32">
<title>chemical-weapon</title>
<path d="M19.556 13.92c-2.080-0.729-3.556-2.72-3.556-5.031 0-2.951 2.382-5.333 5.333-5.333s5.333 2.382 5.333 5.333c0 2.329-1.493 4.302-3.556 5.031v4.996c-0.569-0.16-1.156-0.249-1.778-0.249s-1.209 0.089-1.778 0.249v-4.996M32.533 37.511c-2.027-1.156-2.987-3.413-2.596-5.582l-4.338-2.507c0.853-0.818 1.493-1.867 1.778-3.076l4.338 2.507c1.671-1.44 4.124-1.724 6.133-0.569 2.56 1.476 3.431 4.729 1.956 7.271-1.476 2.56-4.729 3.431-7.271 1.956M4.8 28.267c2.009-1.156 4.462-0.853 6.133 0.569l4.356-2.507c0.284 1.227 0.907 2.258 1.778 3.076l-4.356 2.507c0.409 2.169-0.569 4.444-2.578 5.6-2.56 1.476-5.813 0.604-7.289-1.956-1.476-2.542-0.604-5.813 1.956-7.289M24.889 24.889c0 1.956-1.6 3.556-3.556 3.556-1.973 0-3.556-1.6-3.556-3.556s1.6-3.556 3.556-3.556c1.973 0 3.556 1.6 3.556 3.556M30.222 24.889l-0.053 1.013-2.613-1.529c-0.178-1.902-1.191-3.556-2.667-4.604v-3.040c3.147 1.387 5.333 4.516 5.333 8.16M26.613 32.053c-1.476 1.084-3.307 1.724-5.28 1.724s-3.804-0.64-5.28-1.778l2.613-1.476c0.818 0.373 1.724 0.587 2.667 0.587s1.831-0.213 2.667-0.587l2.613 1.529M12.498 25.884l-0.053-0.996c0-3.644 2.187-6.773 5.333-8.142v3.040c-1.476 1.031-2.489 2.684-2.667 4.569l-2.613 1.529z"></path>
</svg>
