<!-- Generated by IcoMoon.io -->
<svg version="1.1" xmlns="http://www.w3.org/2000/svg" width="43" height="32" viewBox="0 0 43 32">
<title>city</title>
<path d="M33.778 26.667h-3.556v-3.556h3.556M33.778 33.778h-3.556v-3.556h3.556M23.111 12.444h-3.556v-3.556h3.556M23.111 19.556h-3.556v-3.556h3.556M23.111 26.667h-3.556v-3.556h3.556M23.111 33.778h-3.556v-3.556h3.556M12.444 19.556h-3.556v-3.556h3.556M12.444 26.667h-3.556v-3.556h3.556M12.444 33.778h-3.556v-3.556h3.556M26.667 19.556v-10.667l-5.333-5.333-5.333 5.333v3.556h-10.667v24.889h32v-17.778h-10.667z"></path>
</svg>
