<!-- Generated by IcoMoon.io -->
<svg version="1.1" xmlns="http://www.w3.org/2000/svg" width="43" height="32" viewBox="0 0 43 32">
<title>clipboard-flow</title>
<path d="M33.778 7.111h-7.431c-1.013-2.773-4.071-4.196-6.791-3.2-1.529 0.533-2.667 1.707-3.236 3.2h-7.431c-1.956 0-3.556 1.6-3.556 3.556v24.889c0 1.956 1.6 3.556 3.556 3.556h24.889c1.956 0 3.556-1.6 3.556-3.556v-24.889c0-1.956-1.6-3.556-3.556-3.556M21.333 7.111c0.978 0 1.778 0.8 1.778 1.778s-0.8 1.778-1.778 1.778-1.778-0.8-1.778-1.778 0.8-1.778 1.778-1.778M17.778 30.222h-3.556v-12.444h-5.333l7.111-7.111 7.111 7.111h-5.333v12.444M26.667 35.556l-7.111-7.111h5.333v-12.444h3.556v12.444h5.333l-7.111 7.111z"></path>
</svg>
