<!-- Generated by IcoMoon.io -->
<svg version="1.1" xmlns="http://www.w3.org/2000/svg" width="43" height="32" viewBox="0 0 43 32">
<title>clippy</title>
<path d="M26.667 27.556c0 2.453-1.991 4.444-4.444 4.444s-4.444-1.991-4.444-4.444v-3.111c0-0.729 0.604-1.333 1.333-1.333s1.333 0.604 1.333 1.333v3.111c0 0.978 0.8 1.778 1.778 1.778s1.778-0.8 1.778-1.778v-6.418c-1.547-0.498-2.667-1.813-2.667-3.36 0-1.956 1.778-3.556 4-3.556s4 1.6 4 3.556c0 1.547-1.12 2.862-2.667 3.36v6.418M14.667 14.222c2.222 0 4 1.6 4 3.556 0 1.547-1.12 2.862-2.667 3.36v9.529c0 3.182 2.596 5.778 5.778 5.778s5.778-2.596 5.778-5.778v-6.222c0-0.729 0.604-1.333 1.333-1.333s1.333 0.604 1.333 1.333v6.222c0 4.658-3.787 8.444-8.444 8.444s-8.444-3.787-8.444-8.444v-9.529c-1.547-0.498-2.667-1.813-2.667-3.36 0-1.956 1.778-3.556 4-3.556M17.884 10.898l-0.764 2.596c-0.729-0.391-1.564-0.604-2.453-0.604-1.618 0-3.058 0.711-3.947 1.813l-2.133-1.6c1.12-1.422 2.809-2.436 4.747-2.773v-0.107c0-3.68 2.987-6.667 6.667-6.667s6.667 2.987 6.667 6.667v0.107c1.938 0.338 3.627 1.351 4.747 2.773l-2.133 1.6c-0.889-1.102-2.329-1.813-3.947-1.813-0.889 0-1.724 0.213-2.453 0.604l-0.764-2.596c0.587-0.231 1.227-0.462 1.884-0.569v-0.107c0-2.222-1.778-4-4-4s-4 1.778-4 4v0.107c0.658 0.107 1.298 0.338 1.884 0.569M25.333 16.444c-0.978 0-1.778 0.604-1.778 1.333s0.8 1.333 1.778 1.333 1.778-0.604 1.778-1.333-0.8-1.333-1.778-1.333M14.667 16.444c-0.978 0-1.778 0.604-1.778 1.333s0.8 1.333 1.778 1.333 1.778-0.604 1.778-1.333-0.8-1.333-1.778-1.333z"></path>
</svg>
