<!-- Generated by IcoMoon.io -->
<svg version="1.1" xmlns="http://www.w3.org/2000/svg" width="43" height="32" viewBox="0 0 43 32">
<title>clipboard</title>
<path d="M16 7.111c0-2.951 2.382-5.333 5.333-5.333s5.333 2.382 5.333 5.333h7.111c1.956 0 3.556 1.6 3.556 3.556v23.111c0 1.956-1.6 3.556-3.556 3.556h-24.889c-1.956 0-3.556-1.6-3.556-3.556v-23.111c0-1.956 1.6-3.556 3.556-3.556h7.111M21.333 5.333c-0.978 0-1.778 0.8-1.778 1.778s0.8 1.778 1.778 1.778 1.778-0.8 1.778-1.778-0.8-1.778-1.778-1.778z"></path>
</svg>
