<!-- Generated by IcoMoon.io -->
<svg version="1.1" xmlns="http://www.w3.org/2000/svg" width="43" height="32" viewBox="0 0 43 32">
<title>clock-out</title>
<path d="M32 1.778l3.2 3.182-7.129 7.111 2.524 2.524 7.111-7.111 3.182 3.182v-8.889M21.333 14.222c-6.862 0-12.444 5.564-12.444 12.444s5.564 12.444 12.444 12.444c6.862 0 12.444-5.564 12.444-12.444s-5.564-12.444-12.444-12.444M21.333 18.044c4.747 0 8.622 3.858 8.622 8.622s-3.858 8.622-8.622 8.622c-4.764 0-8.622-3.858-8.622-8.622s3.858-8.622 8.622-8.622M19.556 21.333v6.56l5.671 3.271 1.333-2.311-4.338-2.507v-5.013"></path>
</svg>
