<!-- Generated by IcoMoon.io -->
<svg version="1.1" xmlns="http://www.w3.org/2000/svg" width="43" height="32" viewBox="0 0 43 32">
<title>clock-alert</title>
<path d="M21.333 3.556c-9.831 0-17.778 8-17.778 17.778 0 9.813 7.964 17.778 17.778 17.778 4 0 7.698-1.351 10.667-3.556v-4.836c-2.613 2.951-6.418 4.836-10.667 4.836-7.858 0-14.222-6.364-14.222-14.222s6.364-14.222 14.222-14.222c5.973 0 11.076 3.68 13.173 8.889h3.787c-2.258-7.218-8.96-12.444-16.96-12.444M19.556 12.444v10.667l9.333 5.6 1.333-2.187-8-4.747v-9.333h-2.667M35.556 19.556v12.444h3.556v-12.444h-3.556M35.556 35.556v3.556h3.556v-3.556h-3.556z"></path>
</svg>
