<!-- Generated by IcoMoon.io -->
<svg version="1.1" xmlns="http://www.w3.org/2000/svg" width="43" height="32" viewBox="0 0 43 32">
<title>clock-fast</title>
<path d="M26.667 7.111c7.858 0 14.222 6.364 14.222 14.222s-6.364 14.222-14.222 14.222-14.222-6.364-14.222-14.222 6.364-14.222 14.222-14.222M26.667 10.667c-5.884 0-10.667 4.782-10.667 10.667s4.782 10.667 10.667 10.667 10.667-4.782 10.667-10.667-4.782-10.667-10.667-10.667M24.889 14.222h2.667v6.72l4.142 4.142-1.884 1.884-4.924-4.924v-7.822M3.556 32c-0.978 0-1.778-0.8-1.778-1.778s0.8-1.778 1.778-1.778h6.809c0.551 1.262 1.262 2.453 2.080 3.556h-8.889M5.333 23.111c-0.978 0-1.778-0.8-1.778-1.778s0.8-1.778 1.778-1.778h3.644l-0.089 1.778 0.089 1.778h-3.644M7.111 14.222c-0.978 0-1.778-0.8-1.778-1.778s0.8-1.778 1.778-1.778h5.333c-0.818 1.102-1.529 2.293-2.080 3.556h-3.253z"></path>
</svg>
