<!-- Generated by IcoMoon.io -->
<svg version="1.1" xmlns="http://www.w3.org/2000/svg" width="43" height="32" viewBox="0 0 43 32">
<title>clock-start</title>
<path d="M21.333 1.778c-6.862 0-12.444 5.582-12.444 12.444 0 6.88 5.564 12.444 12.444 12.444 6.862 0 12.444-5.564 12.444-12.444 0-6.862-5.582-12.444-12.444-12.444M21.333 5.6c4.747 0 8.622 3.858 8.622 8.622s-3.876 8.622-8.622 8.622c-4.764 0-8.622-3.858-8.622-8.622s3.858-8.622 8.622-8.622M19.556 8.889v6.56l5.671 3.271 1.333-2.311-4.338-2.507v-5.013M7.111 28.444v14.222h3.556v-5.333h21.333v5.333l7.111-7.111-7.111-7.111v5.333h-21.333v-5.333"></path>
</svg>
