<!-- Generated by IcoMoon.io -->
<svg version="1.1" xmlns="http://www.w3.org/2000/svg" width="43" height="32" viewBox="0 0 43 32">
<title>closed-caption</title>
<path d="M32 19.556h-2.667v-0.889h-3.556v5.333h3.556v-0.889h2.667v1.778c0 0.978-0.8 1.778-1.778 1.778h-5.333c-0.978 0-1.778-0.8-1.778-1.778v-7.111c0-0.978 0.8-1.778 1.778-1.778h5.333c0.978 0 1.778 0.8 1.778 1.778M19.556 19.556h-2.667v-0.889h-3.556v5.333h3.556v-0.889h2.667v1.778c0 0.978-0.8 1.778-1.778 1.778h-5.333c-0.978 0-1.778-0.8-1.778-1.778v-7.111c0-0.978 0.8-1.778 1.778-1.778h5.333c0.978 0 1.778 0.8 1.778 1.778M33.778 7.111h-24.889c-1.973 0-3.556 1.582-3.556 3.556v21.333c0 1.956 1.6 3.556 3.556 3.556h24.889c1.956 0 3.556-1.6 3.556-3.556v-21.333c0-1.973-1.6-3.556-3.556-3.556z"></path>
</svg>
