<!-- Generated by IcoMoon.io -->
<svg version="1.1" xmlns="http://www.w3.org/2000/svg" width="43" height="32" viewBox="0 0 43 32">
<title>cloud-off-outline</title>
<path d="M13.742 17.778l14.222 14.222h-17.298c-3.929 0-7.111-3.182-7.111-7.111s3.182-7.111 7.111-7.111M5.333 9.369l4.889 4.853c-5.671 0.267-10.222 4.924-10.222 10.667 0 5.884 4.782 10.667 10.667 10.667h20.853l3.556 3.556 2.258-2.258-29.742-29.742M34.4 17.831c-1.209-6.116-6.596-10.72-13.067-10.72-2.667 0-5.067 0.764-7.111 2.080l2.578 2.596c1.351-0.711 2.898-1.12 4.533-1.12 5.404 0 9.778 4.373 9.778 9.778v0.889h2.667c2.951 0 5.333 2.382 5.333 5.333 0 2.009-1.138 3.751-2.773 4.658l2.578 2.578c2.258-1.618 3.751-4.249 3.751-7.236 0-4.693-3.644-8.498-8.267-8.836z"></path>
</svg>
