<!-- Generated by IcoMoon.io -->
<svg version="1.1" xmlns="http://www.w3.org/2000/svg" width="43" height="32" viewBox="0 0 43 32">
<title>cloud-outline</title>
<path d="M33.778 32h-23.111c-3.929 0-7.111-3.182-7.111-7.111s3.182-7.111 7.111-7.111h1.262c1.173-4.107 4.96-7.111 9.404-7.111 5.404 0 9.778 4.373 9.778 9.778v0.889h2.667c2.951 0 5.333 2.382 5.333 5.333s-2.382 5.333-5.333 5.333M34.4 17.831c-1.209-6.116-6.596-10.72-13.067-10.72-5.138 0-9.6 2.916-11.822 7.164-5.351 0.587-9.511 5.102-9.511 10.613 0 5.884 4.782 10.667 10.667 10.667h23.111c4.907 0 8.889-3.982 8.889-8.889 0-4.693-3.644-8.498-8.267-8.836z"></path>
</svg>
