<!-- Generated by IcoMoon.io -->
<svg version="1.1" xmlns="http://www.w3.org/2000/svg" width="43" height="32" viewBox="0 0 43 32">
<title>cloud-sync</title>
<path d="M21.333 7.111c6.471 0 11.858 4.604 13.067 10.738 4.622 0.32 8.267 4.124 8.267 8.818 0 4.907-3.982 8.889-8.889 8.889h-23.111c-5.884 0-10.667-4.782-10.667-10.667 0-5.493 4.16-10.027 9.511-10.596 2.222-4.267 6.684-7.182 11.822-7.182M13.333 17.227c-2.56 3.218-2.311 7.769 0.569 10.649 1.493 1.458 3.538 2.347 5.653 2.347v3.307l5.031-5.013-5.031-5.031v3.182c-1.173 0-2.311-0.462-3.147-1.298-1.493-1.493-1.724-3.84-0.551-5.6l-2.524-2.542M16.302 15.947l2.578 2.578 2.453 2.436v-3.182c1.173 0 2.311 0.462 3.147 1.298 1.493 1.493 1.724 3.84 0.551 5.6l2.524 2.542c2.56-3.218 2.311-7.769-0.569-10.649-1.493-1.458-3.538-2.347-5.653-2.347v-3.307l-5.031 5.031z"></path>
</svg>
