<!-- Generated by IcoMoon.io -->
<svg version="1.1" xmlns="http://www.w3.org/2000/svg" width="43" height="32" viewBox="0 0 43 32">
<title>cloud-print-outline</title>
<path d="M33.778 28.444c2.951 0 5.333-2.382 5.333-5.333s-2.382-5.333-5.333-5.333h-2.667v-0.889c0-5.404-4.373-9.778-9.778-9.778-4.444 0-8.231 3.004-9.404 7.111h-1.262c-3.929 0-7.111 3.182-7.111 7.111s3.182 7.111 7.111 7.111v-8.889h21.333v8.889h1.778M34.418 14.293c4.604 0.32 8.249 4.124 8.249 8.818 0 4.907-3.982 8.889-8.889 8.889h-1.778v7.111h-21.333v-7.111c-5.884 0-10.667-4.782-10.667-10.667 0-5.493 4.16-10.027 9.511-10.596 2.222-4.267 6.684-7.182 11.822-7.182 6.471 0 11.858 4.622 13.084 10.738M14.222 23.111v12.444h14.222v-12.444h-14.222M16 32h10.667v1.778h-10.667v-1.778M26.667 30.222h-10.667v-1.778h10.667v1.778M16 24.889h10.667v1.778h-10.667v-1.778z"></path>
</svg>
