<!-- Generated by IcoMoon.io -->
<svg version="1.1" xmlns="http://www.w3.org/2000/svg" width="43" height="32" viewBox="0 0 43 32">
<title>cloud-print</title>
<path d="M21.333 3.556c-5.138 0-9.6 2.916-11.822 7.182-5.351 0.569-9.511 5.102-9.511 10.596 0 5.884 4.782 10.667 10.667 10.667v7.111h21.333v-7.111h1.778c4.907 0 8.889-3.982 8.889-8.889 0-4.693-3.644-8.498-8.267-8.818-1.209-6.133-6.596-10.738-13.067-10.738M14.222 23.111h14.222v12.444h-14.222v-12.444M16 24.889v1.778h10.667v-1.778h-10.667M16 28.444v1.778h10.667v-1.778h-10.667M16 32v1.778h10.667v-1.778h-10.667z"></path>
</svg>
