<!-- Generated by IcoMoon.io -->
<svg version="1.1" xmlns="http://www.w3.org/2000/svg" width="43" height="32" viewBox="0 0 43 32">
<title>codepen</title>
<path d="M34.578 23.627l-3.467-2.293 3.467-2.293M22.702 33.387v-6.418l5.973-3.982 4.8 3.218M21.333 24.587l-4.871-3.253 4.871-3.253 4.871 3.253M19.964 33.387l-10.773-7.182 4.8-3.218 5.973 3.982M8.089 19.040l3.467 2.293-3.467 2.293M19.964 9.28v6.418l-5.973 3.982-4.8-3.218M22.702 9.28l10.773 7.182-4.8 3.218-5.973-3.982M37.333 16.284v-0.071c0-0.036 0-0.071-0.053-0.107 0-0.018 0-0.053-0.018-0.107 0 0-0.018 0-0.036-0.071 0-0.018-0.018-0.036-0.036-0.053 0-0.036-0.018-0.071-0.036-0.089-0.018-0.036-0.036-0.053-0.036-0.071-0.018-0.036-0.053-0.053-0.071-0.089-0.018-0.018-0.018-0.036-0.036-0.053 0-0.036-0.036-0.071-0.071-0.071l-0.053-0.053c-0.036-0.036-0.053-0.053-0.089-0.071l-0.053-0.053c-0.018 0-0.018 0-0.018-0.018l-14.631-9.742c-0.462-0.302-1.067-0.302-1.529 0l-14.631 9.742c0 0.018 0 0.018-0.018 0.018l-0.053 0.053c-0.036 0.018-0.053 0.036-0.089 0.071l-0.124 0.124c-0.018 0.018-0.018 0.036-0.036 0.053-0.018 0.036-0.053 0.053-0.071 0.089 0 0.018-0.018 0.036-0.036 0.071-0.018 0.018-0.036 0.053-0.036 0.089-0.018 0.018-0.036 0.036-0.036 0.053-0.018 0.071-0.018 0.071-0.036 0.071-0.018 0.053-0.018 0.089-0.018 0.107-0.053 0.036-0.053 0.071-0.053 0.107v10.24c0 0.036 0 0.071 0.053 0.107 0 0.018 0 0.053 0.018 0.107 0.018 0 0.018 0 0.036 0.071 0 0.018 0.018 0.036 0.036 0.053 0 0.036 0.018 0.071 0.036 0.089 0.018 0.036 0.036 0.053 0.036 0.071 0.018 0.036 0.053 0.053 0.071 0.089 0.018 0.018 0.018 0.036 0.036 0.053 0.036 0.018 0.053 0.053 0.071 0.071l0.053 0.053c0.036 0.036 0.053 0.053 0.089 0.071l0.053 0.053c0.018 0 0.018 0 0.018 0.018l14.631 9.742c0.231 0.16 0.498 0.231 0.764 0.231s0.533-0.071 0.764-0.231l14.631-9.742c0-0.018 0-0.018 0.018-0.018l0.053-0.053c0.036-0.018 0.053-0.036 0.089-0.071l0.053-0.053c0.018-0.018 0.036-0.053 0.071-0.071 0.018-0.018 0.018-0.036 0.036-0.053 0.018-0.036 0.053-0.053 0.071-0.089 0-0.018 0.018-0.036 0.036-0.071 0.018-0.018 0.036-0.053 0.036-0.089 0.018-0.018 0.036-0.036 0.036-0.053 0.018-0.071 0.036-0.071 0.036-0.071 0.018-0.053 0.018-0.089 0.018-0.107 0.053-0.036 0.053-0.071 0.053-0.107v-10.169z"></path>
</svg>
