<!-- Generated by IcoMoon.io -->
<svg version="1.1" xmlns="http://www.w3.org/2000/svg" width="43" height="32" viewBox="0 0 43 32">
<title>code-braces</title>
<path d="M14.222 5.333c-1.956 0-3.556 1.6-3.556 3.556v7.111c0 1.956-1.6 3.556-3.556 3.556h-1.778v3.556h1.778c1.956 0 3.556 1.6 3.556 3.556v7.111c0 1.956 1.6 3.556 3.556 3.556h3.556v-3.556h-3.556v-8.889c0-1.956-1.6-3.556-3.556-3.556 1.956 0 3.556-1.6 3.556-3.556v-8.889h3.556v-3.556M28.444 5.333c1.956 0 3.556 1.6 3.556 3.556v7.111c0 1.956 1.6 3.556 3.556 3.556h1.778v3.556h-1.778c-1.956 0-3.556 1.6-3.556 3.556v7.111c0 1.956-1.6 3.556-3.556 3.556h-3.556v-3.556h3.556v-8.889c0-1.956 1.6-3.556 3.556-3.556-1.956 0-3.556-1.6-3.556-3.556v-8.889h-3.556v-3.556h3.556z"></path>
</svg>
