<!-- Generated by IcoMoon.io -->
<svg version="1.1" xmlns="http://www.w3.org/2000/svg" width="43" height="32" viewBox="0 0 43 32">
<title>code-string</title>
<path d="M5.333 8.889c0-1.956 1.6-3.556 3.556-3.556h24.889c1.956 0 3.556 1.6 3.556 3.556v24.889c0 1.956-1.6 3.556-3.556 3.556h-24.889c-1.973 0-3.556-1.6-3.556-3.556v-24.889M22.222 19.556h-1.778c-1.476 0-2.667-1.191-2.667-2.667s1.191-2.667 2.667-2.667h1.778c1.476 0 2.667 1.191 2.667 2.667h3.556c0-3.431-2.791-6.222-6.222-6.222h-1.778c-3.431 0-6.222 2.791-6.222 6.222s2.791 6.222 6.222 6.222h1.778c1.476 0 2.667 1.191 2.667 2.667s-1.191 2.667-2.667 2.667h-1.778c-1.476 0-2.667-1.191-2.667-2.667h-3.556c0 3.431 2.791 6.222 6.222 6.222h1.778c3.431 0 6.222-2.791 6.222-6.222s-2.791-6.222-6.222-6.222z"></path>
</svg>
