<!-- Generated by IcoMoon.io -->
<svg version="1.1" xmlns="http://www.w3.org/2000/svg" width="43" height="32" viewBox="0 0 43 32">
<title>coffee-outline</title>
<path d="M3.556 37.333v-3.556h32v3.556h-32M35.556 14.222v-5.333h-3.556v5.333h3.556M35.556 5.333c1.956 0 3.556 1.6 3.556 3.556v5.333c0 1.956-1.6 3.556-3.556 3.556h-3.556v5.333c0 3.929-3.182 7.111-7.111 7.111h-10.667c-3.929 0-7.111-3.182-7.111-7.111v-17.778h28.444M28.444 8.889h-17.778v14.222c0 1.956 1.6 3.556 3.556 3.556h10.667c1.956 0 3.556-1.6 3.556-3.556v-14.222z"></path>
</svg>
