<!-- Generated by IcoMoon.io -->
<svg version="1.1" xmlns="http://www.w3.org/2000/svg" width="43" height="32" viewBox="0 0 43 32">
<title>coins</title>
<path d="M26.667 7.111c7.858 0 14.222 6.364 14.222 14.222s-6.364 14.222-14.222 14.222-14.222-6.364-14.222-14.222 6.364-14.222 14.222-14.222M26.667 32c5.884 0 10.667-4.782 10.667-10.667s-4.782-10.667-10.667-10.667-10.667 4.782-10.667 10.667 4.782 10.667 10.667 10.667M5.333 21.333c0 4.64 2.969 8.587 7.111 10.044v3.716c-6.133-1.582-10.667-7.129-10.667-13.76s4.533-12.178 10.667-13.76v3.716c-4.142 1.458-7.111 5.404-7.111 10.044z"></path>
</svg>
