<!-- Generated by IcoMoon.io -->
<svg version="1.1" xmlns="http://www.w3.org/2000/svg" width="43" height="32" viewBox="0 0 43 32">
<title>coin</title>
<path d="M21.333 3.556c9.813 0 17.778 7.964 17.778 17.778s-7.964 17.778-17.778 17.778-17.778-7.964-17.778-17.778 7.964-17.778 17.778-17.778M21.333 7.111c-7.858 0-14.222 6.364-14.222 14.222s6.364 14.222 14.222 14.222 14.222-6.364 14.222-14.222-6.364-14.222-14.222-14.222M19.556 30.222v-1.778h-3.556v-3.556h7.111v-1.778h-5.333c-0.978 0-1.778-0.8-1.778-1.778v-5.333c0-0.978 0.8-1.778 1.778-1.778h1.778v-1.778h3.556v1.778h3.556v3.556h-7.111v1.778h5.333c0.978 0 1.778 0.8 1.778 1.778v5.333c0 0.978-0.8 1.778-1.778 1.778h-1.778v1.778h-3.556z"></path>
</svg>
