<!-- Generated by IcoMoon.io -->
<svg version="1.1" xmlns="http://www.w3.org/2000/svg" width="43" height="32" viewBox="0 0 43 32">
<title>comment-multiple-outline</title>
<path d="M21.333 40.889c-0.978 0-1.778-0.8-1.778-1.778v-5.333h-7.111c-1.956 0-3.556-1.6-3.556-3.556v-17.778c0-1.973 1.6-3.556 3.556-3.556h24.889c1.956 0 3.556 1.6 3.556 3.556v17.778c0 1.956-1.6 3.556-3.556 3.556h-7.289l-6.578 6.596c-0.356 0.338-0.8 0.516-1.244 0.516h-0.889M23.111 30.222v5.476l5.476-5.476h8.747v-17.778h-24.889v17.778h10.667M5.333 26.667h-3.556v-21.333c0-1.956 1.6-3.556 3.556-3.556h28.444v3.556h-28.444v21.333z"></path>
</svg>
