<!-- Generated by IcoMoon.io -->
<svg version="1.1" xmlns="http://www.w3.org/2000/svg" width="43" height="32" viewBox="0 0 43 32">
<title>comment-account-outline</title>
<path d="M16 39.111c-0.978 0-1.778-0.8-1.778-1.778v-5.333h-7.111c-1.956 0-3.556-1.6-3.556-3.556v-21.333c0-1.973 1.6-3.556 3.556-3.556h28.444c1.956 0 3.556 1.6 3.556 3.556v21.333c0 1.956-1.6 3.556-3.556 3.556h-10.844l-6.578 6.596c-0.356 0.338-0.8 0.516-1.244 0.516h-0.889M17.778 28.444v5.476l5.476-5.476h12.302v-21.333h-28.444v21.333h10.667M28.444 24.889h-14.222v-1.778c0-2.364 4.747-3.556 7.111-3.556s7.111 1.191 7.111 3.556v1.778M21.333 10.667c1.956 0 3.556 1.6 3.556 3.556s-1.6 3.556-3.556 3.556-3.556-1.6-3.556-3.556 1.6-3.556 3.556-3.556z"></path>
</svg>
