<!-- Generated by IcoMoon.io -->
<svg version="1.1" xmlns="http://www.w3.org/2000/svg" width="43" height="32" viewBox="0 0 43 32">
<title>comment-question-outline</title>
<path d="M7.111 3.556c-1.956 0-3.556 1.6-3.556 3.556v21.333c0 1.956 1.6 3.556 3.556 3.556h7.111v5.333c0 0.978 0.8 1.778 1.778 1.778h0.889c0.444 0 0.889-0.178 1.244-0.516l6.578-6.596h10.844c1.956 0 3.556-1.6 3.556-3.556v-21.333c0-1.973-1.6-3.556-3.556-3.556h-28.444M7.111 7.111h28.444v21.333h-12.302l-5.476 5.476v-5.476h-10.667v-21.333M21.671 9.778c-1.582 0-2.844 0.32-3.804 0.96-0.978 0.64-1.476 1.707-1.387 2.933h3.502c0-0.498 0.178-0.871 0.462-1.12 0.356-0.249 0.747-0.373 1.227-0.373 0.551 0 1.031 0.142 1.351 0.462 0.32 0.302 0.48 0.693 0.48 1.227 0 0.498-0.142 0.942-0.391 1.316-0.302 0.391-0.676 0.711-1.138 0.96-0.924 0.569-1.529 1.067-1.902 1.493-0.338 0.427-0.516 1.031-0.516 1.92h3.556c0-0.498 0.089-0.889 0.249-1.209 0.16-0.302 0.462-0.569 0.924-0.836 0.818-0.373 1.493-0.871 2.009-1.511 0.516-0.658 0.782-1.351 0.782-2.133 0-1.244-0.48-2.24-1.44-2.987-0.96-0.729-2.293-1.102-3.964-1.102M19.556 21.333v3.556h3.556v-3.556h-3.556z"></path>
</svg>
