<!-- Generated by IcoMoon.io -->
<svg version="1.1" xmlns="http://www.w3.org/2000/svg" width="43" height="32" viewBox="0 0 43 32">
<title>comment-account</title>
<path d="M16 39.111c-0.978 0-1.778-0.8-1.778-1.778v-5.333h-7.111c-1.956 0-3.556-1.6-3.556-3.556v-21.333c0-1.973 1.6-3.556 3.556-3.556h28.444c1.956 0 3.556 1.6 3.556 3.556v21.333c0 1.956-1.6 3.556-3.556 3.556h-10.844l-6.578 6.596c-0.356 0.338-0.8 0.516-1.244 0.516h-0.889M28.444 24.889v-1.778c0-2.364-4.747-3.556-7.111-3.556s-7.111 1.191-7.111 3.556v1.778h14.222M21.333 10.667c-1.956 0-3.556 1.6-3.556 3.556s1.6 3.556 3.556 3.556 3.556-1.6 3.556-3.556-1.6-3.556-3.556-3.556z"></path>
</svg>
