<!-- Generated by IcoMoon.io -->
<svg version="1.1" xmlns="http://www.w3.org/2000/svg" width="43" height="32" viewBox="0 0 43 32">
<title>comment-text</title>
<path d="M16 39.111c-0.978 0-1.778-0.8-1.778-1.778v-5.333h-7.111c-1.956 0-3.556-1.6-3.556-3.556v-21.333c0-1.973 1.6-3.556 3.556-3.556h28.444c1.956 0 3.556 1.6 3.556 3.556v21.333c0 1.956-1.6 3.556-3.556 3.556h-10.844l-6.578 6.596c-0.356 0.338-0.8 0.516-1.244 0.516h-0.889M8.889 8.889v3.556h24.889v-3.556h-24.889M8.889 16v3.556h14.222v-3.556h-14.222M8.889 23.111v3.556h17.778v-3.556h-17.778z"></path>
</svg>
