<!-- Generated by IcoMoon.io -->
<svg version="1.1" xmlns="http://www.w3.org/2000/svg" width="43" height="32" viewBox="0 0 43 32">
<title>compass-outline</title>
<path d="M12.444 30.222l5.689-12.089 12.089-5.689-5.689 12.089-12.089 5.689M21.333 19.733c-0.889 0-1.6 0.711-1.6 1.6s0.711 1.6 1.6 1.6 1.6-0.711 1.6-1.6-0.711-1.6-1.6-1.6M21.333 3.556c9.813 0 17.778 7.964 17.778 17.778s-7.964 17.778-17.778 17.778-17.778-7.964-17.778-17.778 7.964-17.778 17.778-17.778M21.333 7.111c-7.858 0-14.222 6.364-14.222 14.222s6.364 14.222 14.222 14.222 14.222-6.364 14.222-14.222-6.364-14.222-14.222-14.222z"></path>
</svg>
