<!-- Generated by IcoMoon.io -->
<svg version="1.1" xmlns="http://www.w3.org/2000/svg" width="43" height="32" viewBox="0 0 43 32">
<title>console</title>
<path d="M35.556 33.778v-21.333h-28.444v21.333h28.444M35.556 5.333c1.956 0 3.556 1.6 3.556 3.556v24.889c0 1.956-1.6 3.556-3.556 3.556h-28.444c-1.956 0-3.556-1.6-3.556-3.556v-24.889c0-1.973 1.6-3.556 3.556-3.556h28.444M23.111 30.222v-3.556h8.889v3.556h-8.889M17.031 23.111l-7.129-7.111h5.031l5.867 5.867c0.693 0.693 0.693 1.831 0 2.524l-5.831 5.831h-5.031l7.093-7.111z"></path>
</svg>
