<!-- Generated by IcoMoon.io -->
<svg version="1.1" xmlns="http://www.w3.org/2000/svg" width="43" height="32" viewBox="0 0 43 32">
<title>contacts</title>
<path d="M35.556 0h-28.444v3.556h28.444v-3.556M7.111 42.667h28.444v-3.556h-28.444v3.556M35.556 7.111h-28.444c-1.956 0-3.556 1.6-3.556 3.556v21.333c0 1.956 1.6 3.556 3.556 3.556h28.444c1.956 0 3.556-1.6 3.556-3.556v-21.333c0-1.956-1.6-3.556-3.556-3.556M21.333 12c2.204 0 4 1.796 4 4s-1.796 4-4 4-4-1.796-4-4 1.796-4 4-4M30.222 30.222h-17.778v-2.667c0-2.969 5.92-4.444 8.889-4.444s8.889 1.476 8.889 4.444v2.667z"></path>
</svg>
