<!-- Generated by IcoMoon.io -->
<svg version="1.1" xmlns="http://www.w3.org/2000/svg" width="43" height="32" viewBox="0 0 43 32">
<title>contrast-circle</title>
<path d="M21.333 35.556c-3.929 0-7.484-1.6-10.062-4.16l20.124-20.124c2.56 2.578 4.16 6.133 4.16 10.062 0 7.858-6.364 14.222-14.222 14.222M10.667 14.222h3.556v-3.556h2.667v3.556h3.556v2.667h-3.556v3.556h-2.667v-3.556h-3.556M21.333 3.556c-9.813 0-17.778 7.964-17.778 17.778s7.964 17.778 17.778 17.778 17.778-7.964 17.778-17.778-7.964-17.778-17.778-17.778M21.333 28.444h8.889v-2.667h-8.889v2.667z"></path>
</svg>
