<!-- Generated by IcoMoon.io -->
<svg version="1.1" xmlns="http://www.w3.org/2000/svg" width="43" height="32" viewBox="0 0 43 32">
<title>content-save-settings</title>
<path d="M26.667 14.222v-7.111h-17.778v7.111h17.778M21.333 32c2.951 0 5.333-2.382 5.333-5.333s-2.382-5.333-5.333-5.333-5.333 2.382-5.333 5.333 2.382 5.333 5.333 5.333M30.222 3.556l7.111 7.111v21.333c0 1.956-1.6 3.556-3.556 3.556h-24.889c-1.973 0-3.556-1.6-3.556-3.556v-24.889c0-1.956 1.6-3.556 3.556-3.556h21.333M19.556 39.111h3.556v3.556h-3.556v-3.556M12.444 39.111h3.556v3.556h-3.556v-3.556M26.667 39.111h3.556v3.556h-3.556v-3.556z"></path>
</svg>
