<!-- Generated by IcoMoon.io -->
<svg version="1.1" xmlns="http://www.w3.org/2000/svg" width="43" height="32" viewBox="0 0 43 32">
<title>content-cut</title>
<path d="M33.778 5.333l-10.667 10.667 3.556 3.556 12.444-12.444v-1.778M21.333 22.222c-0.498 0-0.889-0.391-0.889-0.889s0.391-0.889 0.889-0.889 0.889 0.391 0.889 0.889-0.391 0.889-0.889 0.889M10.667 35.556c-1.956 0-3.556-1.6-3.556-3.556 0-1.973 1.6-3.556 3.556-3.556s3.556 1.6 3.556 3.556c0 1.973-1.6 3.556-3.556 3.556M10.667 14.222c-1.956 0-3.556-1.6-3.556-3.556 0-1.973 1.6-3.556 3.556-3.556s3.556 1.6 3.556 3.556c0 1.973-1.6 3.556-3.556 3.556M17.138 13.582c0.409-0.889 0.64-1.867 0.64-2.916 0-3.929-3.182-7.111-7.111-7.111s-7.111 3.182-7.111 7.111 3.182 7.111 7.111 7.111c1.049 0 2.027-0.231 2.916-0.64l4.196 4.196-4.196 4.196c-0.889-0.409-1.867-0.64-2.916-0.64-3.929 0-7.111 3.182-7.111 7.111s3.182 7.111 7.111 7.111 7.111-3.182 7.111-7.111c0-1.049-0.231-2.027-0.64-2.916l4.196-4.196 12.444 12.444h5.333v-1.778l-21.973-21.973z"></path>
</svg>
