<!-- Generated by IcoMoon.io -->
<svg version="1.1" xmlns="http://www.w3.org/2000/svg" width="43" height="32" viewBox="0 0 43 32">
<title>content-duplicate</title>
<path d="M19.556 30.222h-12.444c-1.956 0-3.556-1.6-3.556-3.556v-21.333c0-1.956 1.6-3.556 3.556-3.556h21.333v3.556h-21.333v21.333h12.444v-3.556l7.111 5.333-7.111 5.333v-3.556M33.778 37.333v-24.889h-19.556v10.667h-3.556v-10.667c0-1.956 1.6-3.556 3.556-3.556h19.556c1.956 0 3.556 1.6 3.556 3.556v24.889c0 1.956-1.6 3.556-3.556 3.556h-19.556c-1.956 0-3.556-1.6-3.556-3.556v-3.556h3.556v3.556h19.556z"></path>
</svg>
