<!-- Generated by IcoMoon.io -->
<svg version="1.1" xmlns="http://www.w3.org/2000/svg" width="43" height="32" viewBox="0 0 43 32">
<title>content-save-all</title>
<path d="M30.222 12.444v-7.111h-17.778v7.111h17.778M24.889 30.222c2.951 0 5.333-2.382 5.333-5.333s-2.382-5.333-5.333-5.333-5.333 2.382-5.333 5.333 2.382 5.333 5.333 5.333M33.778 1.778l7.111 7.111v21.333c0 1.956-1.6 3.556-3.556 3.556h-24.889c-1.973 0-3.556-1.6-3.556-3.556v-24.889c0-1.956 1.6-3.556 3.556-3.556h21.333M1.778 12.444h3.556v24.889h24.889v3.556h-24.889c-1.956 0-3.556-1.6-3.556-3.556v-24.889z"></path>
</svg>
