<!-- Generated by IcoMoon.io -->
<svg version="1.1" xmlns="http://www.w3.org/2000/svg" width="43" height="32" viewBox="0 0 43 32">
<title>contact-mail</title>
<path d="M37.333 14.222v-1.778l-5.333 3.556-5.333-3.556v1.778l5.333 3.556M39.111 5.333h-35.556c-1.956 0-3.556 1.6-3.556 3.556v24.889c0 1.956 1.6 3.556 3.556 3.556h35.556c1.956 0 3.556-1.6 3.556-3.556v-24.889c0-1.956-1.6-3.556-3.556-3.556M14.222 10.667c2.951 0 5.333 2.382 5.333 5.333s-2.382 5.333-5.333 5.333-5.333-2.382-5.333-5.333 2.382-5.333 5.333-5.333M24.889 32h-21.333v-1.778c0-3.556 7.111-5.511 10.667-5.511s10.667 1.956 10.667 5.511M39.111 21.333h-14.222v-10.667h14.222"></path>
</svg>
