<!-- Generated by IcoMoon.io -->
<svg version="1.1" xmlns="http://www.w3.org/2000/svg" width="43" height="32" viewBox="0 0 43 32">
<title>content-paste</title>
<path d="M33.778 35.556h-24.889v-28.444h3.556v5.333h17.778v-5.333h3.556M21.333 3.556c0.978 0 1.778 0.8 1.778 1.778s-0.8 1.778-1.778 1.778-1.778-0.8-1.778-1.778 0.8-1.778 1.778-1.778M33.778 3.556h-7.431c-0.747-2.062-2.702-3.556-5.013-3.556s-4.267 1.493-5.013 3.556h-7.431c-1.956 0-3.556 1.6-3.556 3.556v28.444c0 1.956 1.6 3.556 3.556 3.556h24.889c1.956 0 3.556-1.6 3.556-3.556v-28.444c0-1.956-1.6-3.556-3.556-3.556z"></path>
</svg>
