<!-- Generated by IcoMoon.io -->
<svg version="1.1" xmlns="http://www.w3.org/2000/svg" width="43" height="32" viewBox="0 0 43 32">
<title>cookie</title>
<path d="M21.333 5.333c-8.836 0-16 7.164-16 16s7.164 16 16 16 16-7.164 16-16c0-0.889-0.071-1.778-0.231-2.667-0.48-0.889-1.547-0.889-1.547-0.889h-3.556v-1.778c0-1.778-1.778-1.778-1.778-1.778h-3.556v-1.778c0-1.778-1.778-1.778-1.778-1.778h-1.778v-3.556c0-1.778-1.778-1.778-1.778-1.778M16.889 10.667c1.476 0 2.667 1.191 2.667 2.667s-1.191 2.667-2.667 2.667-2.667-1.191-2.667-2.667 1.191-2.667 2.667-2.667M11.556 17.778c1.476 0 2.667 1.191 2.667 2.667s-1.191 2.667-2.667 2.667-2.667-1.191-2.667-2.667 1.191-2.667 2.667-2.667M20.444 19.556c1.476 0 2.667 1.191 2.667 2.667s-1.191 2.667-2.667 2.667-2.667-1.191-2.667-2.667 1.191-2.667 2.667-2.667M29.333 23.111c1.476 0 2.667 1.191 2.667 2.667s-1.191 2.667-2.667 2.667-2.667-1.191-2.667-2.667 1.191-2.667 2.667-2.667M19.556 28.444c1.476 0 2.667 1.191 2.667 2.667s-1.191 2.667-2.667 2.667-2.667-1.191-2.667-2.667 1.191-2.667 2.667-2.667z"></path>
</svg>
