<!-- Generated by IcoMoon.io -->
<svg version="1.1" xmlns="http://www.w3.org/2000/svg" width="43" height="32" viewBox="0 0 43 32">
<title>copyright</title>
<path d="M17.92 19.307c0.089-0.587 0.284-1.102 0.533-1.529 0.213-0.462 0.604-0.836 1.049-1.12 0.427-0.267 0.942-0.391 1.618-0.409 0.409 0.018 0.782 0.089 1.102 0.231 0.373 0.16 0.693 0.409 0.942 0.64 0.249 0.267 0.444 0.587 0.604 0.942s0.231 0.747 0.231 1.138h3.2c-0.036-0.836-0.196-1.6-0.533-2.311-0.267-0.676-0.676-1.28-1.209-1.778-0.569-0.498-1.173-0.889-1.92-1.173s-1.564-0.409-2.471-0.409c-1.156 0-2.169 0.196-3.022 0.604s-1.564 0.978-2.133 1.636c-0.569 0.693-0.996 1.493-1.262 2.418s-0.427 1.884-0.427 2.916v0.48c0 1.031 0.142 1.991 0.409 2.916s0.693 1.724 1.262 2.4c0.569 0.658 1.28 1.227 2.133 1.618s1.867 0.604 3.022 0.604c0.836 0 1.618-0.142 2.347-0.409s1.369-0.64 1.92-1.156c0.551-0.444 0.996-0.996 1.351-1.636 0.284-0.64 0.48-1.316 0.498-2.044h-3.164c0 0.373-0.124 0.711-0.284 1.013-0.16 0.338-0.373 0.604-0.604 0.836-0.302 0.231-0.604 0.409-0.96 0.533-0.338 0.124-0.693 0.16-1.067 0.178-0.64-0.018-1.173-0.142-1.582-0.409-0.444-0.249-0.836-0.658-1.049-1.138-0.249-0.409-0.444-0.942-0.533-1.529s-0.142-1.191-0.142-1.778v-0.48c0-0.658 0.053-1.209 0.142-1.796M21.333 3.556c-9.813 0-17.778 7.964-17.778 17.778s7.964 17.778 17.778 17.778 17.778-7.964 17.778-17.778-7.964-17.778-17.778-17.778M21.333 35.556c-7.84 0-14.222-6.382-14.222-14.222s6.382-14.222 14.222-14.222 14.222 6.382 14.222 14.222-6.382 14.222-14.222 14.222z"></path>
</svg>
