<!-- Generated by IcoMoon.io -->
<svg version="1.1" xmlns="http://www.w3.org/2000/svg" width="43" height="32" viewBox="0 0 43 32">
<title>credit-card-scan</title>
<path d="M3.556 7.111h7.111v-3.556h-7.111c-1.956 0-3.556 1.6-3.556 3.556v7.111h3.556v-7.111M39.111 3.556h-7.111v3.556h7.111v7.111h3.556v-7.111c0-1.956-1.6-3.556-3.556-3.556M3.556 28.444h-3.556v7.111c0 1.956 1.6 3.556 3.556 3.556h7.111v-3.556h-7.111v-7.111M39.111 35.556h-7.111v3.556h7.111c1.956 0 3.556-1.6 3.556-3.556v-7.111h-3.556v7.111M7.111 14.222v14.222c0 1.956 1.6 3.556 3.556 3.556h21.333c1.956 0 3.556-1.6 3.556-3.556v-14.222c0-1.956-1.6-3.556-3.556-3.556h-21.333c-1.956 0-3.556 1.6-3.556 3.556M10.667 28.444v-7.111h21.333v7.111h-21.333M32 14.222v3.556h-21.333v-3.556h21.333z"></path>
</svg>
