<!-- Generated by IcoMoon.io -->
<svg version="1.1" xmlns="http://www.w3.org/2000/svg" width="43" height="32" viewBox="0 0 43 32">
<title>credit-card-off</title>
<path d="M1.653 7.467l2.276-2.258 31.627 31.627-2.258 2.276-3.556-3.556h-22.631c-1.973 0-3.556-1.6-3.556-3.556v-21.333c0-0.391 0.071-0.764 0.196-1.102l-2.098-2.098M35.556 14.222v-3.556h-21.653l-3.556-3.556h25.209c1.956 0 3.556 1.6 3.556 3.556v21.333c0 1.067-0.462 2.009-1.209 2.667l-2.667-2.667h0.32v-10.667h-10.987l-7.111-7.111h18.098M7.111 14.222h1.298l-1.298-1.298v1.298M7.111 21.333v10.667h19.076l-10.667-10.667h-8.409z"></path>
</svg>
