<!-- Generated by IcoMoon.io -->
<svg version="1.1" xmlns="http://www.w3.org/2000/svg" width="43" height="32" viewBox="0 0 43 32">
<title>crop-rotate</title>
<path d="M13.28 38.222c-5.813-2.791-9.973-8.427-10.613-15.111h-2.667c0.889 10.951 10.062 19.556 21.244 19.556 0.409 0 0.782 0 1.173-0.053l-6.773-6.791-2.364 2.4M21.422 0c-0.409 0-0.782 0-1.173 0.071l6.773 6.773 2.364-2.4c5.813 2.791 9.973 8.427 10.613 15.111h2.667c-0.889-10.951-10.062-19.556-21.244-19.556M28.444 24.889h3.556v-10.667c0-1.973-1.6-3.556-3.556-3.556h-10.667v3.556h10.667v10.667M14.222 28.444v-21.333h-3.556v3.556h-3.556v3.556h3.556v14.222c0 1.956 1.6 3.556 3.556 3.556h14.222v3.556h3.556v-3.556h3.556v-3.556h-21.333z"></path>
</svg>
