<!-- Generated by IcoMoon.io -->
<svg version="1.1" xmlns="http://www.w3.org/2000/svg" width="43" height="32" viewBox="0 0 43 32">
<title>crosshairs</title>
<path d="M5.422 23.111h-3.644v-3.556h3.644c0.8-7.413 6.72-13.333 14.133-14.133v-3.644h3.556v3.644c7.413 0.8 13.333 6.72 14.133 14.133h3.644v3.556h-3.644c-0.8 7.413-6.72 13.333-14.133 14.133v3.644h-3.556v-3.644c-7.413-0.8-13.333-6.72-14.133-14.133M21.333 8.889c-6.88 0-12.444 5.564-12.444 12.444s5.564 12.444 12.444 12.444 12.444-5.564 12.444-12.444-5.564-12.444-12.444-12.444z"></path>
</svg>
