<!-- Generated by IcoMoon.io -->
<svg version="1.1" xmlns="http://www.w3.org/2000/svg" width="43" height="32" viewBox="0 0 43 32">
<title>currency-eur</title>
<path d="M12.569 19.556l-0.124 1.778 0.124 1.778h18.276l-1.511 3.556h-15.698c2.009 4.196 6.293 7.111 11.253 7.111 3.964 0 7.502-1.849 9.778-4.747v4.96c-2.667 2.098-6.098 3.342-9.778 3.342-6.969 0-12.889-4.444-15.111-10.667h-6.222l1.778-3.556h3.644l-0.089-1.778 0.089-1.778h-5.422l1.778-3.556h4.444c2.222-6.222 8.142-10.667 15.111-10.667 4.444 0 8.533 1.849 11.431 4.818l-1.529 3.627c-2.276-2.969-5.867-4.889-9.902-4.889-4.96 0-9.244 2.916-11.253 7.111h20.213l-1.511 3.556h-19.769z"></path>
</svg>
