<!-- Generated by IcoMoon.io -->
<svg version="1.1" xmlns="http://www.w3.org/2000/svg" width="43" height="32" viewBox="0 0 43 32">
<title>currency-btc</title>
<path d="M8 8.889h6.222v-5.333h3.556v5.333h2.667v-5.333h3.556v5.333c9.778 0 9.778 10.667 4.444 11.111 7.111-0.444 8.889 13.778-4.444 13.778v5.333h-3.556v-5.333h-2.667v5.333h-3.556v-5.333h-6.222l0.889-3.556h1.778c0.978 0 1.778-0.8 1.778-1.778v-14.222c0-0.978-0.8-1.778-1.778-1.778h-2.667v-3.556M17.778 12.444v7.111s8 0.444 8-3.556-8-3.556-8-3.556M17.778 22.222v8s9.778 0 9.778-4-9.778-4-9.778-4z"></path>
</svg>
