<!-- Generated by IcoMoon.io -->
<svg version="1.1" xmlns="http://www.w3.org/2000/svg" width="43" height="32" viewBox="0 0 43 32">
<title>currency-usd</title>
<path d="M20.978 19.378c-4.036-1.049-5.333-2.133-5.333-3.822 0-1.938 1.796-3.289 4.8-3.289 3.164 0 4.338 1.511 4.444 3.733h3.929c-0.124-3.058-1.991-5.867-5.707-6.773v-3.893h-5.333v3.84c-3.449 0.747-6.222 2.987-6.222 6.418 0 4.107 3.396 6.151 8.356 7.342 4.444 1.067 5.333 2.631 5.333 4.284 0 1.227-0.871 3.182-4.8 3.182-3.662 0-5.102-1.636-5.333-3.733h-3.876c0.213 3.893 3.129 6.080 6.542 6.809v3.858h5.333v-3.822c3.467-0.622 6.222-2.667 6.222-6.311 0-5.049-4.32-6.756-8.356-7.822z"></path>
</svg>
