<!-- Generated by IcoMoon.io -->
<svg version="1.1" xmlns="http://www.w3.org/2000/svg" width="43" height="32" viewBox="0 0 43 32">
<title>currency-ngn</title>
<path d="M7.111 16h3.556v-10.667h3.556l6.080 10.667h8.142v-10.667h3.556v10.667h3.556v3.556h-3.556v3.556h3.556v3.556h-3.556v10.667h-3.556l-6.098-10.667h-8.124v10.667h-3.556v-10.667h-3.556v-3.556h3.556v-3.556h-3.556v-3.556M14.222 16h2.009l-2.009-3.502v3.502M14.222 19.556v3.556h6.080l-2.027-3.556h-4.053M28.444 30.222v-3.556h-2.044l2.044 3.556M22.329 19.556l2.044 3.556h4.071v-3.556h-6.116z"></path>
</svg>
