<!-- Generated by IcoMoon.io -->
<svg version="1.1" xmlns="http://www.w3.org/2000/svg" width="43" height="32" viewBox="0 0 43 32">
<title>currency-gbp</title>
<path d="M11.556 37.333v-2.222c1.671-0.818 3.093-2.098 4.107-3.644s1.529-3.289 1.547-5.244l-0.036-1.742-0.16-1.369h-4.569v-3.556h4.267c-0.267-1.476-0.427-3.004-0.48-4.889 0.053-2.916 0.907-5.191 2.578-6.827 1.636-1.618 3.893-2.507 6.649-2.507 1.262 0 2.347 0.124 3.218 0.356 0.889 0.213 1.547 0.48 2.098 0.8l-0.978 3.093c-0.462-0.249-1.013-0.48-1.724-0.693-0.729-0.178-1.6-0.267-2.613-0.284-1.902 0.036-3.236 0.622-4.124 1.76-0.889 1.12-1.262 2.578-1.244 4.356l0.178 2.649 0.356 2.187h6.933v3.556h-6.596c0.16 1.778 0.089 3.556-0.249 5.262-0.533 2.133-1.618 3.947-3.236 5.404h14.524v3.556h-20.444z"></path>
</svg>
