<!-- Generated by IcoMoon.io -->
<svg version="1.1" xmlns="http://www.w3.org/2000/svg" width="43" height="32" viewBox="0 0 43 32">
<title>database-plus</title>
<path d="M16 5.333c-7.858 0-14.222 3.182-14.222 7.111s6.364 7.111 14.222 7.111 14.222-3.182 14.222-7.111-6.364-7.111-14.222-7.111M1.778 16v5.333c0 3.929 6.364 7.111 14.222 7.111s14.222-3.182 14.222-7.111v-5.333c0 3.929-6.364 7.111-14.222 7.111s-14.222-3.182-14.222-7.111M1.778 24.889v5.333c0 3.929 6.364 7.111 14.222 7.111 2.507 0 4.96-0.338 7.111-0.96v-5.333c-2.151 0.622-4.604 0.96-7.111 0.96-7.858 0-14.222-3.182-14.222-7.111M32 24.889v5.333h-5.333v3.556h5.333v5.333h3.556v-5.333h5.333v-3.556h-5.333v-5.333"></path>
</svg>
