<!-- Generated by IcoMoon.io -->
<svg version="1.1" xmlns="http://www.w3.org/2000/svg" width="43" height="32" viewBox="0 0 43 32">
<title>database</title>
<path d="M21.333 5.333c-7.858 0-14.222 3.182-14.222 7.111s6.364 7.111 14.222 7.111 14.222-3.182 14.222-7.111-6.364-7.111-14.222-7.111M7.111 16v5.333c0 3.929 6.364 7.111 14.222 7.111s14.222-3.182 14.222-7.111v-5.333c0 3.929-6.364 7.111-14.222 7.111s-14.222-3.182-14.222-7.111M7.111 24.889v5.333c0 3.929 6.364 7.111 14.222 7.111s14.222-3.182 14.222-7.111v-5.333c0 3.929-6.364 7.111-14.222 7.111s-14.222-3.182-14.222-7.111z"></path>
</svg>
