<!-- Generated by IcoMoon.io -->
<svg version="1.1" xmlns="http://www.w3.org/2000/svg" width="43" height="32" viewBox="0 0 43 32">
<title>decagram-outline</title>
<path d="M40.889 21.333l-4.338 4.942 0.604 6.542-6.418 1.458-3.36 5.653-6.044-2.596-6.044 2.613-3.36-5.653-6.418-1.458 0.604-6.56-4.338-4.942 4.338-4.96-0.604-6.542 6.418-1.44 3.36-5.653 6.044 2.596 6.044-2.596 3.36 5.653 6.418 1.458-0.604 6.542 4.338 4.942M36.142 21.333l-3.253-3.751 0.427-4.96-4.871-1.067-2.524-4.32-4.587 1.973-4.587-1.973-2.524 4.32-4.871 1.049 0.427 4.96-3.253 3.769 3.253 3.733-0.427 4.978 4.871 1.067 2.524 4.32 4.587-1.991 4.587 1.973 2.524-4.302 4.871-1.084-0.427-4.96 3.253-3.733z"></path>
</svg>
