<!-- Generated by IcoMoon.io -->
<svg version="1.1" xmlns="http://www.w3.org/2000/svg" width="43" height="32" viewBox="0 0 43 32">
<title>decimal-increase</title>
<path d="M39.111 30.222l-5.333 5.333v-3.556h-10.667v-3.556h10.667v-3.556l5.333 5.333M16 8.889c2.951 0 5.333 2.382 5.333 5.333v5.333c0 2.951-2.382 5.333-5.333 5.333s-5.333-2.382-5.333-5.333v-5.333c0-2.951 2.382-5.333 5.333-5.333M16 12.444c-0.978 0-1.778 0.8-1.778 1.778v5.333c0 0.978 0.8 1.778 1.778 1.778s1.778-0.8 1.778-1.778v-5.333c0-0.978-0.8-1.778-1.778-1.778M28.444 8.889c2.951 0 5.333 2.382 5.333 5.333v5.333c0 2.951-2.382 5.333-5.333 5.333s-5.333-2.382-5.333-5.333v-5.333c0-2.951 2.382-5.333 5.333-5.333M28.444 12.444c-0.978 0-1.778 0.8-1.778 1.778v5.333c0 0.978 0.8 1.778 1.778 1.778s1.778-0.8 1.778-1.778v-5.333c0-0.978-0.8-1.778-1.778-1.778M7.111 21.333c0.978 0 1.778 0.8 1.778 1.778s-0.8 1.778-1.778 1.778-1.778-0.8-1.778-1.778 0.8-1.778 1.778-1.778z"></path>
</svg>
