<!-- Generated by IcoMoon.io -->
<svg version="1.1" xmlns="http://www.w3.org/2000/svg" width="43" height="32" viewBox="0 0 43 32">
<title>deskphone</title>
<path d="M8.889 5.333h24.889c1.956 0 3.556 1.6 3.556 3.556v24.889c0 1.956-1.6 3.556-3.556 3.556h-24.889c-1.956 0-3.556-1.6-3.556-3.556v-24.889c0-1.956 1.6-3.556 3.556-3.556M26.667 8.889v24.889h7.111v-24.889h-7.111M8.889 8.889v7.111h14.222v-7.111h-14.222M8.889 19.556v3.556h3.556v-3.556h-3.556M14.222 19.556v3.556h3.556v-3.556h-3.556M19.556 19.556v3.556h3.556v-3.556h-3.556M8.889 24.889v3.556h3.556v-3.556h-3.556M14.222 24.889v3.556h3.556v-3.556h-3.556M19.556 24.889v3.556h3.556v-3.556h-3.556M19.556 30.222v3.556h3.556v-3.556h-3.556M14.222 30.222v3.556h3.556v-3.556h-3.556M8.889 30.222v3.556h3.556v-3.556h-3.556z"></path>
</svg>
