<!-- Generated by IcoMoon.io -->
<svg version="1.1" xmlns="http://www.w3.org/2000/svg" width="43" height="32" viewBox="0 0 43 32">
<title>developer-board</title>
<path d="M39.111 16v-3.556h-3.556v-3.556c0-1.956-1.6-3.556-3.556-3.556h-24.889c-1.956 0-3.556 1.6-3.556 3.556v24.889c0 1.956 1.6 3.556 3.556 3.556h24.889c1.956 0 3.556-1.6 3.556-3.556v-3.556h3.556v-3.556h-3.556v-3.556h3.556v-3.556h-3.556v-3.556h3.556M32 33.778h-24.889v-24.889h24.889v24.889M10.667 23.111h8.889v7.111h-8.889v-7.111M21.333 12.444h7.111v5.333h-7.111v-5.333M10.667 12.444h8.889v8.889h-8.889v-8.889M21.333 19.556h7.111v10.667h-7.111v-10.667z"></path>
</svg>
