<!-- Generated by IcoMoon.io -->
<svg version="1.1" xmlns="http://www.w3.org/2000/svg" width="43" height="32" viewBox="0 0 43 32">
<title>dice-d8</title>
<path d="M21.333 14.667c2.329 0 4.231 1.689 4.231 3.787 0 1.227-0.676 2.311-1.671 3.004 1.244 0.693 2.062 1.884 2.062 3.253 0 2.169-2.062 3.911-4.622 3.911s-4.622-1.742-4.622-3.911c0-1.369 0.818-2.56 2.062-3.253-0.996-0.693-1.653-1.778-1.653-3.004 0-2.098 1.884-3.787 4.213-3.787M21.333 22.489c-1.084 0-1.956 0.871-1.956 1.956s0.871 1.956 1.956 1.956c1.084 0 1.956-0.871 1.956-1.956s-0.871-1.956-1.956-1.956M21.333 16.889c-0.889 0-1.6 0.8-1.6 1.778s0.711 1.778 1.6 1.778 1.6-0.8 1.6-1.778-0.711-1.778-1.6-1.778M38.293 19.2c1.067 1.244 1.067 3.022 0 4.267l-14.756 14.756c-1.244 1.244-3.022 1.244-4.267 0l-14.756-14.756c-1.244-1.244-1.244-3.022 0-4.267l14.756-14.756c1.244-1.244 3.022-1.244 4.267 0l14.756 14.756M36.16 21.333l-14.756-14.756-14.756 14.756 14.756 14.756 14.756-14.756z"></path>
</svg>
