<!-- Generated by IcoMoon.io -->
<svg version="1.1" xmlns="http://www.w3.org/2000/svg" width="43" height="32" viewBox="0 0 43 32">
<title>dice-d20</title>
<path d="M37.333 29.333c0 0.676-0.373 1.262-0.942 1.564l-14.044 7.893c-0.284 0.213-0.64 0.32-1.013 0.32s-0.729-0.107-1.013-0.32l-14.044-7.893c-0.569-0.302-0.942-0.889-0.942-1.564v-16c0-0.676 0.373-1.262 0.942-1.564l14.044-7.893c0.284-0.213 0.64-0.32 1.013-0.32s0.729 0.107 1.013 0.32l14.044 7.893c0.569 0.302 0.942 0.889 0.942 1.564v16M21.333 7.378l-12.444 7.004v13.902l12.444 7.004 12.444-7.004v-13.902l-12.444-7.004M26.542 14.702c2.524 0 4.569 2.044 4.569 4.569v4.729c0 2.489-2.044 4.533-4.569 4.533-2.542 0-4.569-2.044-4.569-4.533v-4.729c0-2.524 2.044-4.569 4.569-4.569M26.524 17.262c-1.031 0-1.884 0.836-1.884 1.884v4.907c0 1.049 0.853 1.902 1.884 1.902s1.92-0.853 1.92-1.902v-4.907c0-1.049-0.889-1.884-1.92-1.884M20.356 26.24v2.133l-9.138-0.053v-1.813s6.098-5.92 6.116-7.716c0-2.204-1.813-1.973-1.813-1.973s-1.742 0.071-1.938 2.222l-2.667 0.089s0.071-4.444 4.782-4.444c4.213 0 4.267 3.164 4.267 3.982 0 2.987-5.476 7.591-5.476 7.591l5.867-0.018z"></path>
</svg>
