<!-- Generated by IcoMoon.io -->
<svg version="1.1" xmlns="http://www.w3.org/2000/svg" width="43" height="32" viewBox="0 0 43 32">
<title>dice-multiple</title>
<path d="M35.164 5.333h-15.218c-1.191 0-2.169 0.978-2.169 2.169v6.72h10.667v10.667h6.72c1.191 0 2.169-0.978 2.169-2.169v-15.218c0-1.191-0.978-2.169-2.169-2.169M22.116 11.858c-1.209 0-2.187-0.978-2.187-2.187s0.978-2.187 2.187-2.187c1.209 0 2.187 0.978 2.187 2.187s-0.978 2.187-2.187 2.187M32.996 22.72c-1.209 0.018-2.187-0.96-2.204-2.169s0.96-2.187 2.169-2.204c1.209-0.018 2.187 0.96 2.204 2.204-0.018 1.191-0.978 2.151-2.169 2.169M32.996 11.858c-1.209 0.018-2.187-0.96-2.204-2.169s0.96-2.187 2.169-2.204c1.209-0.018 2.187 0.96 2.204 2.187 0 1.209-0.96 2.169-2.169 2.187M7.502 17.778h15.218c1.191 0 2.169 0.978 2.169 2.169v15.218c0 1.191-0.978 2.169-2.169 2.169h-15.218c-1.191 0-2.169-0.978-2.169-2.169v-15.218c0-1.191 0.978-2.169 2.169-2.169M15.111 25.387c-1.191 0-2.169 0.978-2.169 2.169s0.978 2.169 2.169 2.169c1.191 0 2.169-0.978 2.169-2.169s-0.978-2.169-2.169-2.169M9.671 19.947c-1.191 0-2.169 0.978-2.169 2.169s0.978 2.169 2.169 2.169c1.191 0 2.169-0.978 2.169-2.169s-0.978-2.169-2.169-2.169M20.533 30.809c-1.191 0-2.169 0.978-2.169 2.169s0.978 2.169 2.169 2.169c1.191 0 2.169-0.978 2.169-2.169s-0.96-2.151-2.151-2.169h-0.018z"></path>
</svg>
