<!-- Generated by IcoMoon.io -->
<svg version="1.1" xmlns="http://www.w3.org/2000/svg" width="43" height="32" viewBox="0 0 43 32">
<title>dice-d10</title>
<path d="M29.44 22.507c0 1.013-0.107 1.867-0.32 2.596-0.231 0.729-0.533 1.333-0.924 1.796-0.409 0.462-0.889 0.818-1.44 1.031-0.569 0.213-1.173 0.338-1.867 0.338-0.676 0-1.28-0.124-1.849-0.338-0.551-0.213-1.031-0.569-1.44-1.031-0.391-0.462-0.711-1.067-0.924-1.796-0.231-0.729-0.338-1.582-0.338-2.596v-2.347c0-1.013 0.107-1.884 0.32-2.613 0.231-0.729 0.533-1.316 0.942-1.778 0.391-0.48 0.871-0.818 1.422-1.031 0.569-0.231 1.173-0.338 1.867-0.338 0.676 0 1.28 0.107 1.849 0.338 0.551 0.213 1.031 0.551 1.44 1.031 0.391 0.462 0.711 1.049 0.942 1.778 0.213 0.729 0.32 1.6 0.32 2.613v2.347M26.773 19.787l-0.107-1.511-0.391-0.996c-0.16-0.249-0.373-0.391-0.604-0.533l-0.782-0.178-0.8 0.178c-0.231 0.142-0.427 0.284-0.587 0.533l-0.391 0.996-0.107 1.511v3.058l0.107 1.529 0.391 1.013c0.16 0.249 0.373 0.444 0.604 0.551l0.782 0.16 0.8-0.16c0.249-0.107 0.444-0.302 0.587-0.551l0.391-1.013 0.107-1.529v-3.058M38.222 19.2c1.067 1.244 1.067 3.022 0 4.267l-14.756 14.756c-1.244 1.244-3.022 1.244-4.267 0l-14.756-14.756c-1.244-1.244-1.244-3.022 0-4.267l14.756-14.756c1.244-1.244 3.022-1.244 4.267 0l14.756 14.756M36.089 21.333l-14.756-14.756-14.756 14.756 14.756 14.756 14.756-14.756M18.453 28.071h-2.667v-10.293l-3.2 0.978v-2.187l5.582-1.991h0.284v13.493z"></path>
</svg>
