<!-- Generated by IcoMoon.io -->
<svg version="1.1" xmlns="http://www.w3.org/2000/svg" width="43" height="32" viewBox="0 0 43 32">
<title>dice-d4</title>
<path d="M23.876 26.933h1.529v2.151h-1.529v2.916h-2.684v-2.916h-5.511l-0.124-1.689 5.618-8.871h2.702v8.409M18.222 26.933h2.969v-4.764l-2.969 4.764M39.111 37.333h-35.556c-0.64 0-1.227-0.338-1.547-0.889-0.32-0.569-0.302-1.262 0.036-1.778l17.778-29.333c0.622-1.102 2.4-1.102 3.040 0l17.778 29.333c0.32 0.516 0.338 1.209 0.018 1.778-0.32 0.551-0.907 0.889-1.547 0.889M6.72 33.778h29.244l-14.631-24.124-14.613 24.124z"></path>
</svg>
