<!-- Generated by IcoMoon.io -->
<svg version="1.1" xmlns="http://www.w3.org/2000/svg" width="43" height="32" viewBox="0 0 43 32">
<title>dice-3</title>
<path d="M8.889 5.333h24.889c1.956 0 3.556 1.6 3.556 3.556v24.889c0 1.956-1.6 3.556-3.556 3.556h-24.889c-1.956 0-3.556-1.6-3.556-3.556v-24.889c0-1.956 1.6-3.556 3.556-3.556M21.333 17.778c-1.956 0-3.556 1.6-3.556 3.556s1.6 3.556 3.556 3.556 3.556-1.6 3.556-3.556-1.6-3.556-3.556-3.556M12.444 8.889c-1.956 0-3.556 1.6-3.556 3.556s1.6 3.556 3.556 3.556 3.556-1.6 3.556-3.556-1.6-3.556-3.556-3.556M30.222 26.667c-1.956 0-3.556 1.6-3.556 3.556s1.6 3.556 3.556 3.556 3.556-1.6 3.556-3.556-1.6-3.556-3.556-3.556z"></path>
</svg>
