<!-- Generated by IcoMoon.io -->
<svg version="1.1" xmlns="http://www.w3.org/2000/svg" width="43" height="32" viewBox="0 0 43 32">
<title>dice-d6</title>
<path d="M8.889 5.333h24.889c1.956 0 3.556 1.6 3.556 3.556v24.889c0 1.956-1.6 3.556-3.556 3.556h-24.889c-1.956 0-3.556-1.6-3.556-3.556v-24.889c0-1.956 1.6-3.556 3.556-3.556M8.889 8.889v24.889h24.889v-24.889h-24.889M23.804 16.942c-4.444-0.053-4.498 3.556-4.498 3.556s0.978-1.173 2.969-1.173c1.173 0 3.502 1.031 3.591 4.516 0.107 3.662-3.164 4.604-3.164 4.604s-6.222 1.529-6.169-5.938c0.053-8.391 7.271-7.698 7.271-7.698v2.133M21.244 21.511c-1.316-0.178-1.991 1.209-1.991 1.209l0.036 1.28c0 1.369 0.96 2.364 2.044 2.364s1.867-0.996 1.867-2.364-0.871-2.489-1.956-2.489z"></path>
</svg>
