<!-- Generated by IcoMoon.io -->
<svg version="1.1" xmlns="http://www.w3.org/2000/svg" width="43" height="32" viewBox="0 0 43 32">
<title>dictionary</title>
<path d="M10.329 3.556c-1.742 0.16-3.218 1.778-3.218 3.556v28.444c0 1.867 1.689 3.556 3.556 3.556h21.333c1.867 0 3.556-1.689 3.556-3.556v-28.444c0-1.973-1.6-3.556-3.556-3.556h-10.667v12.444l-4.444-2.667-4.444 2.667v-12.444h-2.116M21.333 23.111h1.778c0.978 0 1.778 0.8 1.778 1.778v7.111h-1.778v-3.556h-1.778v3.556h-1.778v-7.111c0-0.978 0.8-1.778 1.778-1.778M21.333 24.889v1.778h1.778v-1.778h-1.778M26.667 26.667h5.333v1.778l-3.556 5.333h3.556v1.778h-5.333v-1.778l3.556-5.333h-3.556v-1.778z"></path>
</svg>
