<!-- Generated by IcoMoon.io -->
<svg version="1.1" xmlns="http://www.w3.org/2000/svg" width="43" height="32" viewBox="0 0 43 32">
<title>discord</title>
<path d="M39.111 42.667l-9.333-8.889 1.12 3.556h-22.898c-2.453 0-4.444-1.991-4.444-4.444v-26.667c0-2.453 1.991-4.444 4.444-4.444h26.667c2.453 0 4.444 1.991 4.444 4.444v36.444M21.333 12.089c-4.764 0-8.107 2.044-8.107 2.044 1.831-1.636 5.031-2.578 5.031-2.578l-0.302-0.302c-3.004 0.053-5.724 2.133-5.724 2.133-3.058 6.382-2.862 11.893-2.862 11.893 2.489 3.218 6.187 2.987 6.187 2.987l1.262-1.6c-2.222-0.48-3.627-2.453-3.627-2.453s3.342 2.276 8.142 2.276 8.142-2.276 8.142-2.276-1.404 1.973-3.627 2.453l1.262 1.6s3.698 0.231 6.187-2.987c0 0 0.196-5.511-2.862-11.893 0 0-2.72-2.080-5.724-2.133l-0.302 0.302s3.2 0.942 5.031 2.578c0 0-3.342-2.044-8.107-2.044M17.653 18.827c1.156 0 2.098 1.013 2.080 2.258 0 1.227-0.924 2.258-2.080 2.258-1.138 0-2.062-1.031-2.062-2.258 0-1.244 0.907-2.258 2.062-2.258M25.067 18.827c1.156 0 2.080 1.013 2.080 2.258 0 1.227-0.924 2.258-2.080 2.258-1.138 0-2.062-1.031-2.062-2.258 0-1.244 0.907-2.258 2.062-2.258z"></path>
</svg>
