<!-- Generated by IcoMoon.io -->
<svg version="1.1" xmlns="http://www.w3.org/2000/svg" width="43" height="32" viewBox="0 0 43 32">
<title>disqus-outline</title>
<path d="M21.156 25.778h-1.956v-8.889h1.956c2.844 0 4.8 1.6 4.8 4.444s-1.956 4.444-4.8 4.444M21.156 12.444h-6.756v17.778h6.578c6.222 0 9.956-3.733 9.956-8.889s-3.556-8.889-9.778-8.889M21.333 35.556c-3.378 0-6.578-1.244-9.067-3.378l-1.244-1.067-3.022 0.356 1.244-2.844-0.533-1.422c-0.889-1.956-1.244-3.911-1.244-6.044 0-7.822 6.4-14.222 14.044-14.222s13.867 6.578 13.867 14.4c0 7.822-6.4 14.222-14.044 14.222M21.333 3.556c-9.778 0-17.6 8-17.6 17.778 0 2.667 0.533 5.156 1.6 7.467l-2.844 7.289 7.644-1.067c3.022 2.667 7.111 4.267 11.378 4.267 9.778 0 17.6-8 17.6-17.778s-8-17.956-17.778-17.956z"></path>
</svg>
