<!-- Generated by IcoMoon.io -->
<svg version="1.1" xmlns="http://www.w3.org/2000/svg" width="43" height="32" viewBox="0 0 43 32">
<title>disqus</title>
<path d="M21.476 39.111c-4.356 0-8.338-1.582-11.413-4.213l-7.556 1.031 2.916-7.218c-0.978-2.258-1.582-4.711-1.582-7.378 0-9.778 7.893-17.778 17.636-17.778s17.636 8 17.636 17.778-7.893 17.778-17.636 17.778M31.111 21.28v-0.053c0-5.12-3.627-8.782-9.867-8.782h-6.738v17.778h6.649c6.276 0 9.956-3.804 9.956-8.942M21.333 25.849h-1.973v-9.031h1.973c2.88 0 4.8 1.653 4.8 4.516 0 2.898-1.92 4.516-4.8 4.516z"></path>
</svg>
