<!-- Generated by IcoMoon.io -->
<svg version="1.1" xmlns="http://www.w3.org/2000/svg" width="43" height="32" viewBox="0 0 43 32">
<title>dna</title>
<path d="M7.111 3.556h3.556v3.556c0 2.56 1.209 4.64 3.342 6.72 1.529 1.476 3.573 2.898 5.707 4.302l-3.253 2.116c-1.76-1.191-3.467-2.471-4.907-3.876-2.542-2.471-4.444-5.529-4.444-9.262v-3.556M32 3.556h3.556v3.556c0 3.733-1.902 6.791-4.444 9.262-2.507 2.453-5.707 4.48-8.818 6.453-3.111 1.991-6.133 3.929-8.284 6.009-2.133 2.080-3.342 4.16-3.342 6.72v3.556h-3.556v-3.556c0-3.733 1.902-6.791 4.444-9.262 2.507-2.453 5.707-4.48 8.818-6.453 3.111-1.991 6.133-3.929 8.284-6.009 2.133-2.080 3.342-4.16 3.342-6.72v-3.556M26.204 22.418c1.76 1.191 3.467 2.471 4.907 3.876 2.542 2.471 4.444 5.529 4.444 9.262v3.556h-3.556v-3.556c0-2.56-1.209-4.64-3.342-6.72-1.529-1.476-3.573-2.898-5.707-4.302l3.253-2.116M12.444 5.333h17.778v1.778l-0.107 0.889h-17.564l-0.107-0.889v-1.778M13.653 10.667h15.36c-0.427 0.604-0.924 1.227-1.6 1.884l-0.907 0.782h-10.382l-0.871-0.782c-0.676-0.658-1.173-1.28-1.6-1.884M16.16 29.333h10.382l0.871 0.782c0.676 0.658 1.173 1.28 1.6 1.884h-15.36c0.427-0.604 0.924-1.227 1.6-1.884l0.907-0.782M12.551 34.667h17.564l0.107 0.889v1.778h-17.778v-1.778l0.107-0.889z"></path>
</svg>
