<!-- Generated by IcoMoon.io -->
<svg version="1.1" xmlns="http://www.w3.org/2000/svg" width="43" height="32" viewBox="0 0 43 32">
<title>do-not-disturb-off</title>
<path d="M30.222 19.556v3.556h-2.596l8.32 8.32c1.991-2.862 3.164-6.347 3.164-10.098 0-9.813-7.964-17.778-17.778-17.778-3.751 0-7.236 1.173-10.098 3.164l12.836 12.836h6.151M4.036 4.036l-2.258 2.258 4.942 4.942c-1.991 2.862-3.164 6.347-3.164 10.098 0 9.813 7.964 17.778 17.778 17.778 3.751 0 7.236-1.173 10.098-3.164l4.942 4.942 2.258-2.258-34.596-34.596M12.444 23.111v-3.556h2.596l3.556 3.556h-6.151z"></path>
</svg>
