<!-- Generated by IcoMoon.io -->
<svg version="1.1" xmlns="http://www.w3.org/2000/svg" width="43" height="32" viewBox="0 0 43 32">
<title>domain</title>
<path d="M32 26.667h-3.556v3.556h3.556M32 19.556h-3.556v3.556h3.556M35.556 33.778h-14.222v-3.556h3.556v-3.556h-3.556v-3.556h3.556v-3.556h-3.556v-3.556h14.222M17.778 12.444h-3.556v-3.556h3.556M17.778 19.556h-3.556v-3.556h3.556M17.778 26.667h-3.556v-3.556h3.556M17.778 33.778h-3.556v-3.556h3.556M10.667 12.444h-3.556v-3.556h3.556M10.667 19.556h-3.556v-3.556h3.556M10.667 26.667h-3.556v-3.556h3.556M10.667 33.778h-3.556v-3.556h3.556M21.333 12.444v-7.111h-17.778v32h35.556v-24.889h-17.778z"></path>
</svg>
