<!-- Generated by IcoMoon.io -->
<svg version="1.1" xmlns="http://www.w3.org/2000/svg" width="43" height="32" viewBox="0 0 43 32">
<title>dots-horizontal</title>
<path d="M28.444 21.333c0-1.956 1.6-3.556 3.556-3.556s3.556 1.6 3.556 3.556-1.6 3.556-3.556 3.556-3.556-1.6-3.556-3.556M17.778 21.333c0-1.956 1.6-3.556 3.556-3.556s3.556 1.6 3.556 3.556-1.6 3.556-3.556 3.556-3.556-1.6-3.556-3.556M7.111 21.333c0-1.956 1.6-3.556 3.556-3.556s3.556 1.6 3.556 3.556-1.6 3.556-3.556 3.556-3.556-1.6-3.556-3.556z"></path>
</svg>
