<!-- Generated by IcoMoon.io -->
<svg version="1.1" xmlns="http://www.w3.org/2000/svg" width="43" height="32" viewBox="0 0 43 32">
<title>download-network</title>
<path d="M30.222 5.333c1.956 0 3.556 1.6 3.556 3.556v17.778c0 1.956-1.6 3.556-3.556 3.556h-7.111v3.556h1.778c0.978 0 1.778 0.8 1.778 1.778h12.444v3.556h-12.444c0 0.978-0.8 1.778-1.778 1.778h-7.111c-0.978 0-1.778-0.8-1.778-1.778h-12.444v-3.556h12.444c0-0.978 0.8-1.778 1.778-1.778h1.778v-3.556h-7.111c-1.973 0-3.556-1.6-3.556-3.556v-17.778c0-1.956 1.6-3.556 3.556-3.556h17.778M21.333 25.778l8-8h-6.222v-7.111h-3.556v7.111h-6.222l8 8z"></path>
</svg>
