<!-- Generated by IcoMoon.io -->
<svg version="1.1" xmlns="http://www.w3.org/2000/svg" width="43" height="32" viewBox="0 0 43 32">
<title>drag-vertical</title>
<path d="M16 5.333h3.556v3.556h-3.556v-3.556M23.111 5.333h3.556v3.556h-3.556v-3.556M16 12.444h3.556v3.556h-3.556v-3.556M23.111 12.444h3.556v3.556h-3.556v-3.556M16 19.556h3.556v3.556h-3.556v-3.556M23.111 19.556h3.556v3.556h-3.556v-3.556M16 26.667h3.556v3.556h-3.556v-3.556M23.111 26.667h3.556v3.556h-3.556v-3.556M16 33.778h3.556v3.556h-3.556v-3.556M23.111 33.778h3.556v3.556h-3.556v-3.556z"></path>
</svg>
