<!-- Generated by IcoMoon.io -->
<svg version="1.1" xmlns="http://www.w3.org/2000/svg" width="43" height="32" viewBox="0 0 43 32">
<title>drag-horizontal</title>
<path d="M5.333 26.667v-3.556h3.556v3.556h-3.556M5.333 19.556v-3.556h3.556v3.556h-3.556M12.444 26.667v-3.556h3.556v3.556h-3.556M12.444 19.556v-3.556h3.556v3.556h-3.556M19.556 26.667v-3.556h3.556v3.556h-3.556M19.556 19.556v-3.556h3.556v3.556h-3.556M26.667 26.667v-3.556h3.556v3.556h-3.556M26.667 19.556v-3.556h3.556v3.556h-3.556M33.778 26.667v-3.556h3.556v3.556h-3.556M33.778 19.556v-3.556h3.556v3.556h-3.556z"></path>
</svg>
