<!-- Generated by IcoMoon.io -->
<svg version="1.1" xmlns="http://www.w3.org/2000/svg" width="43" height="32" viewBox="0 0 43 32">
<title>drag</title>
<path d="M12.444 33.778v-3.556h3.556v3.556h-3.556M19.556 33.778v-3.556h3.556v3.556h-3.556M26.667 33.778v-3.556h3.556v3.556h-3.556M12.444 26.667v-3.556h3.556v3.556h-3.556M19.556 26.667v-3.556h3.556v3.556h-3.556M26.667 26.667v-3.556h3.556v3.556h-3.556M12.444 19.556v-3.556h3.556v3.556h-3.556M19.556 19.556v-3.556h3.556v3.556h-3.556M26.667 19.556v-3.556h3.556v3.556h-3.556M12.444 12.444v-3.556h3.556v3.556h-3.556M19.556 12.444v-3.556h3.556v3.556h-3.556M26.667 12.444v-3.556h3.556v3.556h-3.556z"></path>
</svg>
