<!-- Generated by IcoMoon.io -->
<svg version="1.1" xmlns="http://www.w3.org/2000/svg" width="43" height="32" viewBox="0 0 43 32">
<title>dribbble-box</title>
<path d="M8.889 5.333h24.889c1.956 0 3.556 1.6 3.556 3.556v24.889c0 1.956-1.6 3.556-3.556 3.556h-24.889c-1.956 0-3.556-1.6-3.556-3.556v-24.889c0-1.956 1.6-3.556 3.556-3.556M26.827 29.333c-0.498-2.418-1.102-4.604-1.796-6.542l1.991-0.142h0.036c1.156 0 2.436 0.142 3.804 0.462-0.48 2.56-1.956 4.782-4.036 6.222M21.333 31.040c-2.151 0-4.16-0.711-5.76-1.902 0.338-0.569 1.067-1.653 2.204-2.773 1.244-1.156 2.916-2.364 5.084-3.058 0.747 2.062 1.404 4.427 1.92 7.093-1.084 0.409-2.24 0.64-3.449 0.64M11.627 21.333v-0.142l1.067 0.018c1.956 0 5.351-0.178 8.818-1.262l0.551 1.28c-2.311 0.782-4.124 2.009-5.458 3.236-1.298 1.173-2.169 2.347-2.684 3.093-1.422-1.671-2.293-3.84-2.293-6.222M17.049 12.64c0.676 0.8 2.027 2.542 3.467 5.28-2.933 0.871-5.884 1.067-7.68 1.067h-0.924c0.693-2.791 2.613-5.102 5.138-6.347M21.333 11.627c2.293 0 4.391 0.818 6.062 2.133-1.28 1.529-2.969 2.631-4.782 3.413-1.28-2.471-2.507-4.231-3.342-5.316 0.658-0.142 1.351-0.231 2.062-0.231M28.96 15.342c1.209 1.547 1.973 3.449 2.062 5.529-1.404-0.284-2.72-0.427-3.964-0.427-0.996 0-1.938 0.071-2.827 0.231l-0.64-1.511c1.956-0.853 3.84-2.080 5.369-3.822M21.333 8.889c-6.88 0-12.444 5.564-12.444 12.444s5.564 12.444 12.444 12.444 12.444-5.564 12.444-12.444-5.564-12.444-12.444-12.444z"></path>
</svg>
