<!-- Generated by IcoMoon.io -->
<svg version="1.1" xmlns="http://www.w3.org/2000/svg" width="43" height="32" viewBox="0 0 43 32">
<title>dribbble</title>
<path d="M29.191 32.747c-0.747-3.413-1.636-6.56-2.524-9.333 0.889-0.124 1.778-0.196 2.809-0.196h0.036c1.653 0 3.467 0.213 5.44 0.658-0.676 3.68-2.809 6.827-5.76 8.871M21.333 35.2c-3.093 0-5.938-1.013-8.249-2.738 0.498-0.8 1.547-2.347 3.236-3.947 1.707-1.653 4.124-3.36 7.2-4.373 1.049 2.969 2.009 6.347 2.738 10.151-1.529 0.587-3.147 0.907-4.924 0.907M7.467 21.333v-0.196c0.391 0.018 0.907 0.018 1.511 0.018h0.018c2.773-0.018 7.644-0.249 12.587-1.796 0.267 0.587 0.533 1.191 0.8 1.831-3.307 1.102-5.902 2.862-7.822 4.587-1.831 1.707-3.093 3.36-3.822 4.444-2.027-2.382-3.271-5.493-3.271-8.889M15.2 8.889c0.978 1.156 2.898 3.662 4.96 7.556-4.16 1.262-8.409 1.547-10.951 1.547h-0.231c-0.427 0-0.8 0-1.102-0.018 1.013-3.982 3.68-7.307 7.324-9.084M21.333 7.467c3.271 0 6.276 1.138 8.64 3.040-1.813 2.187-4.196 3.716-6.809 4.871-1.831-3.52-3.609-6.044-4.782-7.591 0.96-0.196 1.938-0.32 2.951-0.32M32.231 12.764c1.724 2.204 2.809 4.942 2.951 7.911-2.009-0.427-3.893-0.622-5.671-0.622h-0.018c-1.422 0-2.756 0.124-4.018 0.338-0.302-0.747-0.587-1.458-0.924-2.151 2.809-1.227 5.493-2.987 7.68-5.476M21.333 3.556c-9.813 0-17.778 7.964-17.778 17.778s7.964 17.778 17.778 17.778 17.778-7.964 17.778-17.778-7.964-17.778-17.778-17.778z"></path>
</svg>
