<!-- Generated by IcoMoon.io -->
<svg version="1.1" xmlns="http://www.w3.org/2000/svg" width="43" height="32" viewBox="0 0 43 32">
<title>drone</title>
<path d="M39.111 19.556h-1.778l-1.778-3.556h-11.111l4 6.222h-3.556l-5.778-6.222h-12c-0.978 0-3.556-0.8-3.556-1.778s2.667-4.444 6.222-4.444 3.858 1.778 6.222 2.667h21.333c0.978 0 1.778 0.8 1.778 1.778v5.333M19.111 11.556l5.778-6.222h3.556l-4 6.222h-5.333M32 19.556v-2.667h3.111l-1.333 2.667h-1.778M5.333 33.778c-0.978 0-1.778-0.8-1.778-1.778s0.8-1.778 1.778-1.778c3.929 0 7.111 3.182 7.111 7.111 0 0.978-0.8 1.778-1.778 1.778s-1.778-0.8-1.778-1.778c0-1.956-1.6-3.556-3.556-3.556M19.556 37.333c0 0.978-0.8 1.778-1.778 1.778s-1.778-0.8-1.778-1.778c0-5.884-4.782-10.667-10.667-10.667-0.978 0-1.778-0.8-1.778-1.778s0.8-1.778 1.778-1.778c7.858 0 14.222 6.364 14.222 14.222z"></path>
</svg>
