<!-- Generated by IcoMoon.io -->
<svg version="1.1" xmlns="http://www.w3.org/2000/svg" width="43" height="32" viewBox="0 0 43 32">
<title>drupal</title>
<path d="M36.391 26.044c0 1.138-0.391 3.040-1.138 4.356-0.764 1.333-1.333 1.707-2.471 1.707-1.316-0.196-3.787-3.982-5.476-4.16-2.098 0-6.453 4.356-10.044 4.356-2.080 0-2.844-0.391-3.413-0.764-1.138-0.764-1.511-1.902-1.511-3.413 0-2.844 2.649-5.298 5.867-5.298 4.178 0 7.004 4.16 9.102 3.982 1.689 0 5.102-3.413 6.809-3.413 1.707-0.373 2.276 1.493 2.276 2.649M29.564 9.387c-1.884-1.138-3.591-1.707-5.493-2.844-1.12-0.764-2.649-2.453-3.964-3.982-0.551 2.471-0.942 3.413-1.902 4.178-1.884 1.316-2.844 1.884-4.533 2.649-1.333 0.747-8.338 4.924-8.338 14.009s7.769 15.716 16.089 15.716c8.533 0 15.911-6.222 15.911-15.52 0.373-9.28-6.631-13.458-7.769-14.204z"></path>
</svg>
