<!-- Generated by IcoMoon.io -->
<svg version="1.1" xmlns="http://www.w3.org/2000/svg" width="43" height="32" viewBox="0 0 43 32">
<title>duck</title>
<path d="M15.111 8.889c-1.476 0-2.667 1.191-2.667 2.667s1.191 2.667 2.667 2.667 2.667-1.191 2.667-2.667-1.191-2.667-2.667-2.667M17.778 3.556c4.907 0 8.889 3.982 8.889 8.889 0 3.022-1.511 5.689-3.804 7.289 2.809 0.267 5.973 0.907 9.138 2.489 5.333 2.667 7.111-0.889 7.111-0.889s-1.778 16-12.444 16h-10.667s-8.889 0-8.889-8.889c0-5.333 5.333-7.111 3.556-10.667-7.111 0-7.111-6.222-7.111-6.222 1.778 0.889 3.982 0.889 5.333 0.267 0.338-4.622 4.196-8.267 8.889-8.267z"></path>
</svg>
