<!-- Generated by IcoMoon.io -->
<svg version="1.1" xmlns="http://www.w3.org/2000/svg" width="43" height="32" viewBox="0 0 43 32">
<title>dumbbell</title>
<path d="M7.502 25.102l-1.28-1.262c-1.369-1.387-1.369-3.627 0-5.013 1.422-1.404 3.662-1.404 5.049 0l4.587 4.569 7.538-7.538-4.569-4.587c-1.404-1.387-1.404-3.627 0-5.049 1.387-1.369 3.627-1.369 5.013 0l1.262 1.28 10.062 10.062 1.28 1.262c1.369 1.387 1.369 3.627 0 5.013-1.422 1.404-3.662 1.404-5.049 0l-4.587-4.569-7.538 7.538 4.569 4.587c1.404 1.387 1.404 3.627 0 5.049-1.387 1.369-3.627 1.369-5.013 0l-1.262-1.28-10.062-10.062M5.618 34.524l1.884-1.884-2.507-2.507c-0.693-0.693-0.693-1.813 0-2.507s1.813-0.693 2.507 0l7.538 7.538c0.693 0.693 0.693 1.813 0 2.507s-1.813 0.693-2.507 0l-2.507-2.507-1.884 1.884-2.524-2.524M34.524 5.618l2.524 2.524-1.884 1.884 2.507 2.507c0.693 0.693 0.693 1.813 0 2.507-0.693 0.711-1.813 0.711-2.507 0l-7.538-7.538c-0.693-0.693-0.693-1.813 0-2.507s1.813-0.693 2.507 0l2.507 2.507 1.884-1.884z"></path>
</svg>
