<!-- Generated by IcoMoon.io -->
<svg version="1.1" xmlns="http://www.w3.org/2000/svg" width="43" height="32" viewBox="0 0 43 32">
<title>earth-off</title>
<path d="M39.111 9.369l-2.667 2.631c1.707 2.72 2.667 5.902 2.667 9.333 0 9.813-7.964 17.778-17.778 17.778-3.413 0-6.613-0.96-9.333-2.667l-2.631 2.667-2.258-2.276 29.724-29.724 2.276 2.258M31.822 30.916c2.311-2.524 3.733-5.884 3.733-9.582 0-2.436-0.604-4.729-1.689-6.72l-7.502 7.502c0.196 0.284 0.302 0.622 0.302 0.996v5.333h1.778c1.582 0 2.916 1.049 3.378 2.471M19.556 35.431v-3.431c-0.889 0-1.653-0.302-2.258-0.818l-2.684 2.684c1.511 0.8 3.164 1.333 4.942 1.564M26.667 8.16v0.729c0 1.956-1.6 3.556-3.556 3.556h-3.556v3.556c0 0.978-0.8 1.778-1.778 1.778h-3.556v3.556h3.876l-3.716 3.716-6.898-6.898c-0.231 1.013-0.373 2.080-0.373 3.182 0 3.093 0.996 5.973 2.667 8.302l-2.524 2.542c-2.329-3.004-3.698-6.756-3.698-10.844 0-9.813 7.964-17.778 17.778-17.778 4.089 0 7.84 1.369 10.844 3.698l-2.542 2.524c-0.907-0.64-1.902-1.191-2.969-1.618z"></path>
</svg>
