<!-- Generated by IcoMoon.io -->
<svg version="1.1" xmlns="http://www.w3.org/2000/svg" width="43" height="32" viewBox="0 0 43 32">
<title>earth-box</title>
<path d="M8.889 5.333c-1.973 0-3.556 1.582-3.556 3.556v24.889c0 1.956 1.6 3.556 3.556 3.556h24.889c1.956 0 3.556-1.6 3.556-3.556v-24.889c0-1.973-1.6-3.556-3.556-3.556h-24.889M28.053 8.889h5.724v21.653c-0.462-1.422-2.329-2.471-3.911-2.471h-1.778v-5.333c0-0.978-0.8-1.778-1.778-1.778h-10.667v-3.556h3.556c0.978 0 1.778-0.8 1.778-1.778v-3.556h3.556c1.831 0 3.324-1.404 3.52-3.182M8.889 18.293l8.533 8v1.778c0 1.973 1.6 3.556 3.556 3.556v2.151h-12.089v-15.484z"></path>
</svg>
