<!-- Generated by IcoMoon.io -->
<svg version="1.1" xmlns="http://www.w3.org/2000/svg" width="43" height="32" viewBox="0 0 43 32">
<title>earth-box-off</title>
<path d="M40.889 7.591l-3.556 3.556v22.631c0 1.956-1.6 3.556-3.556 3.556h-22.631l-3.556 3.556-2.258-2.276 33.28-33.28 2.276 2.258M8.889 5.333h25.209l-3.556 3.556h-2.489c-0.196 1.778-1.689 3.182-3.52 3.182h-3.556v3.556c0 0.996-0.8 1.778-1.778 1.778h-3.556v3.556h2.809l-3.253 3.253-6.311-5.92v12.249l-3.556 3.556v-25.209c0-1.973 1.582-3.556 3.556-3.556M20.978 33.778v-2.151c-1.12 0-2.133-0.516-2.791-1.333l-3.484 3.484h6.276M28.089 22.738v5.333h1.778c1.582 0 3.449 1.049 3.911 2.471v-15.84l-6.524 6.524c0.498 0.32 0.836 0.871 0.836 1.511z"></path>
</svg>
