<!-- Generated by IcoMoon.io -->
<svg version="1.1" xmlns="http://www.w3.org/2000/svg" width="43" height="32" viewBox="0 0 43 32">
<title>earth</title>
<path d="M31.822 30.916c-0.462-1.422-1.796-2.471-3.378-2.471h-1.778v-5.333c0-0.978-0.8-1.778-1.778-1.778h-10.667v-3.556h3.556c0.978 0 1.778-0.8 1.778-1.778v-3.556h3.556c1.956 0 3.556-1.6 3.556-3.556v-0.729c5.209 2.098 8.889 7.2 8.889 13.173 0 3.698-1.422 7.058-3.733 9.582M19.556 35.431c-7.022-0.871-12.444-6.844-12.444-14.098 0-1.102 0.142-2.169 0.373-3.182l8.516 8.516v1.778c0 1.956 1.6 3.556 3.556 3.556M21.333 3.556c-9.813 0-17.778 7.964-17.778 17.778s7.964 17.778 17.778 17.778 17.778-7.964 17.778-17.778-7.964-17.778-17.778-17.778z"></path>
</svg>
