<!-- Generated by IcoMoon.io -->
<svg version="1.1" xmlns="http://www.w3.org/2000/svg" width="43" height="32" viewBox="0 0 43 32">
<title>elevator</title>
<path d="M12.444 3.556l7.111 7.111h-5.333v7.111h-3.556v-7.111h-5.333l7.111-7.111M30.222 17.778l-7.111-7.111h5.333v-7.111h3.556v7.111h5.333l-7.111 7.111M12.444 21.333h17.778c1.956 0 3.556 1.6 3.556 3.556v10.667c0 1.956-1.6 3.556-3.556 3.556h-17.778c-1.956 0-3.556-1.6-3.556-3.556v-10.667c0-1.956 1.6-3.556 3.556-3.556M12.444 24.889v10.667h17.778v-10.667h-17.778z"></path>
</svg>
