<!-- Generated by IcoMoon.io -->
<svg version="1.1" xmlns="http://www.w3.org/2000/svg" width="43" height="32" viewBox="0 0 43 32">
<title>email-secure</title>
<path d="M36.444 0c2.453 0 4.444 1.991 4.444 4.444v0.889c0.978 0 1.778 0.8 1.778 1.778v7.111c0 0.978-0.8 1.778-1.778 1.778h-8.889c-0.978 0-1.778-0.8-1.778-1.778v-7.111c0-0.978 0.8-1.778 1.778-1.778v-0.889c0-2.453 1.991-4.444 4.444-4.444M21.333 19.556l-14.222-8.889v3.556l14.222 8.889 7.431-4.64c0.907 0.676 2.027 1.084 3.236 1.084h7.111v12.444c0 1.956-1.6 3.556-3.556 3.556h-28.444c-1.956 0-3.556-1.6-3.556-3.556v-21.333c0-1.956 1.6-3.556 3.556-3.556h19.556v7.111c0 0.64 0.107 1.244 0.32 1.778l-5.653 3.556M36.444 1.778c-1.476 0-2.667 1.191-2.667 2.667v0.889h5.333v-0.889c0-1.476-1.191-2.667-2.667-2.667z"></path>
</svg>
