<!-- Generated by IcoMoon.io -->
<svg version="1.1" xmlns="http://www.w3.org/2000/svg" width="43" height="32" viewBox="0 0 43 32">
<title>emoticon-sad</title>
<path d="M35.556 21.333c0-7.858-6.364-14.222-14.222-14.222s-14.222 6.364-14.222 14.222 6.364 14.222 14.222 14.222 14.222-6.364 14.222-14.222M39.111 21.333c0 9.813-7.964 17.778-17.778 17.778s-17.778-7.964-17.778-17.778 7.964-17.778 17.778-17.778 17.778 7.964 17.778 17.778M27.556 14.222c1.422 0 2.667 1.244 2.667 2.667s-1.244 2.667-2.667 2.667-2.667-1.244-2.667-2.667 1.244-2.667 2.667-2.667M17.778 16.889c0 1.422-1.244 2.667-2.667 2.667s-2.667-1.244-2.667-2.667 1.244-2.667 2.667-2.667 2.667 1.244 2.667 2.667M21.333 24.889c3.111 0 5.849 1.28 7.449 3.218l-2.524 2.524c-0.8-1.298-2.702-2.187-4.924-2.187s-4.124 0.889-4.924 2.187l-2.524-2.524c1.6-1.938 4.338-3.218 7.449-3.218z"></path>
</svg>
