<!-- Generated by IcoMoon.io -->
<svg version="1.1" xmlns="http://www.w3.org/2000/svg" width="43" height="32" viewBox="0 0 43 32">
<title>emoticon-cool</title>
<path d="M33.778 17.778c0 2.453-3.769 4.444-6.222 4.444s-4.889-1.991-4.889-4.444h-2.667c0 2.453-2.436 4.444-4.889 4.444s-6.222-1.991-6.222-4.444h-1.333c-0.284 1.138-0.444 2.329-0.444 3.556 0 7.858 6.364 14.222 14.222 14.222s14.222-6.364 14.222-14.222c0-1.227-0.16-2.418-0.444-3.556h-1.333M21.333 7.111c-5.262 0-9.867 2.862-12.32 7.111h24.64c-2.453-4.249-7.058-7.111-12.32-7.111M39.111 21.333c0 9.813-7.964 17.778-17.778 17.778s-17.778-7.964-17.778-17.778 7.964-17.778 17.778-17.778 17.778 7.964 17.778 17.778M21.333 30.631c-3.111 0-5.849-1.298-7.449-3.218l2.524-2.524c0.8 1.28 2.702 2.187 4.924 2.187s4.124-0.907 4.924-2.187l2.524 2.524c-1.6 1.92-4.338 3.218-7.449 3.218z"></path>
</svg>
