<!-- Generated by IcoMoon.io -->
<svg version="1.1" xmlns="http://www.w3.org/2000/svg" width="43" height="32" viewBox="0 0 43 32">
<title>emoticon-neutral</title>
<path d="M15.111 19.556c-1.476 0-2.667-1.191-2.667-2.667s1.191-2.667 2.667-2.667 2.667 1.191 2.667 2.667-1.191 2.667-2.667 2.667M27.556 19.556c-1.476 0-2.667-1.191-2.667-2.667s1.191-2.667 2.667-2.667 2.667 1.191 2.667 2.667-1.191 2.667-2.667 2.667M21.333 35.556c7.858 0 14.222-6.364 14.222-14.222s-6.364-14.222-14.222-14.222-14.222 6.364-14.222 14.222 6.364 14.222 14.222 14.222M21.333 3.556c9.813 0 17.778 7.964 17.778 17.778s-7.964 17.778-17.778 17.778c-9.831 0-17.778-8-17.778-17.778 0-9.813 7.964-17.778 17.778-17.778M16 24.889h10.667c0.978 0 1.778 0.8 1.778 1.778s-0.8 1.778-1.778 1.778h-10.667c-0.978 0-1.778-0.8-1.778-1.778s0.8-1.778 1.778-1.778z"></path>
</svg>
