<!-- Generated by IcoMoon.io -->
<svg version="1.1" xmlns="http://www.w3.org/2000/svg" width="43" height="32" viewBox="0 0 43 32">
<title>emoticon</title>
<path d="M21.333 31.111c4.142 0 7.644-2.596 9.084-6.222h-18.169c1.422 3.627 4.942 6.222 9.084 6.222M15.111 19.556c1.476 0 2.667-1.191 2.667-2.667s-1.191-2.667-2.667-2.667-2.667 1.191-2.667 2.667 1.191 2.667 2.667 2.667M27.556 19.556c1.476 0 2.667-1.191 2.667-2.667s-1.191-2.667-2.667-2.667-2.667 1.191-2.667 2.667 1.191 2.667 2.667 2.667M21.333 35.556c-7.858 0-14.222-6.364-14.222-14.222s6.364-14.222 14.222-14.222 14.222 6.364 14.222 14.222-6.364 14.222-14.222 14.222M21.333 3.556c-9.831 0-17.778 8-17.778 17.778 0 9.813 7.964 17.778 17.778 17.778s17.778-7.964 17.778-17.778-7.964-17.778-17.778-17.778z"></path>
</svg>
