<!-- Generated by IcoMoon.io -->
<svg version="1.1" xmlns="http://www.w3.org/2000/svg" width="43" height="32" viewBox="0 0 43 32">
<title>emoticon-devil</title>
<path d="M2.667 3.716c1.6 1.618 4.213 2.916 7.449 3.84 3.058-2.507 6.969-4 11.218-4s8.16 1.493 11.218 4c3.236-0.924 5.849-2.222 7.449-3.84-0.053 2.898-1.511 5.547-3.947 7.662 1.938 2.844 3.058 6.258 3.058 9.956 0 9.813-7.964 17.778-17.778 17.778s-17.778-7.964-17.778-17.778c0-3.698 1.12-7.111 3.058-9.956-2.436-2.116-3.893-4.764-3.947-7.662M35.556 21.333c0-7.858-6.364-14.222-14.222-14.222s-14.222 6.364-14.222 14.222 6.364 14.222 14.222 14.222 14.222-6.364 14.222-14.222M18.667 17.778c0 1.422-1.244 2.667-2.667 2.667s-2.667-1.244-2.667-2.667v-2.667l5.333 2.667M29.333 17.778c0 1.422-1.244 2.667-2.667 2.667s-2.667-1.244-2.667-2.667l5.333-2.667v2.667M21.333 30.631c-3.111 0-5.849-1.298-7.449-3.218l2.524-2.524c0.8 1.28 2.702 2.187 4.924 2.187s4.124-0.907 4.924-2.187l2.524 2.524c-1.6 1.92-4.338 3.218-7.449 3.218z"></path>
</svg>
