<!-- Generated by IcoMoon.io -->
<svg version="1.1" xmlns="http://www.w3.org/2000/svg" width="43" height="32" viewBox="0 0 43 32">
<title>emoticon-excited</title>
<path d="M21.333 3.556c-9.831 0-17.778 7.947-17.778 17.778s7.947 17.778 17.778 17.778c9.813 0 17.778-7.964 17.778-17.778 0-9.831-8-17.778-17.778-17.778M21.333 35.556c-7.858 0-14.222-6.364-14.222-14.222s6.364-14.222 14.222-14.222 14.222 6.364 14.222 14.222-6.364 14.222-14.222 14.222M23.111 17.671l1.884 1.884 1.884-1.884 1.884 1.884 1.884-1.884-3.769-3.769-3.769 3.769M15.787 17.671l1.884 1.884 1.884-1.884-3.769-3.769-3.769 3.769 1.884 1.884 1.884-1.884M21.333 31.111c4.142 0 7.662-2.596 9.084-6.222h-18.169c1.422 3.627 4.942 6.222 9.084 6.222z"></path>
</svg>
