<!-- Generated by IcoMoon.io -->
<svg version="1.1" xmlns="http://www.w3.org/2000/svg" width="43" height="32" viewBox="0 0 43 32">
<title>emoticon-tongue</title>
<path d="M16 14.222c1.956 0 3.556 1.6 3.556 3.556 0 0.64-0.178 1.262-0.48 1.778-0.604-1.067-1.76-1.778-3.076-1.778s-2.471 0.711-3.076 1.778c-0.302-0.516-0.48-1.138-0.48-1.778 0-1.956 1.6-3.556 3.556-3.556M26.667 14.222c1.956 0 3.556 1.6 3.556 3.556 0 0.64-0.178 1.262-0.48 1.778-0.604-1.067-1.76-1.778-3.076-1.778s-2.471 0.711-3.076 1.778c-0.302-0.516-0.48-1.138-0.48-1.778 0-1.956 1.6-3.556 3.556-3.556M21.333 35.556c7.858 0 14.222-6.364 14.222-14.222s-6.364-14.222-14.222-14.222-14.222 6.364-14.222 14.222 6.364 14.222 14.222 14.222M21.333 3.556c9.813 0 17.778 7.964 17.778 17.778s-7.964 17.778-17.778 17.778c-9.831 0-17.778-8-17.778-17.778 0-9.813 7.964-17.778 17.778-17.778M16 23.111h10.667c0.978 0 1.778 0.8 1.778 1.778s-0.8 1.778-1.778 1.778c0 3.556-1.6 5.333-3.556 5.333s-3.556-1.778-3.556-5.333h-3.556c-0.978 0-1.778-0.8-1.778-1.778s0.8-1.778 1.778-1.778z"></path>
</svg>
