<!-- Generated by IcoMoon.io -->
<svg version="1.1" xmlns="http://www.w3.org/2000/svg" width="43" height="32" viewBox="0 0 43 32">
<title>emoticon-happy</title>
<path d="M35.556 21.333c0-7.858-6.364-14.222-14.222-14.222s-14.222 6.364-14.222 14.222 6.364 14.222 14.222 14.222 14.222-6.364 14.222-14.222M39.111 21.333c0 9.813-7.964 17.778-17.778 17.778s-17.778-7.964-17.778-17.778 7.964-17.778 17.778-17.778 17.778 7.964 17.778 17.778M17.778 16.889c0 1.422-1.244 2.667-2.667 2.667s-2.667-1.244-2.667-2.667 1.244-2.667 2.667-2.667 2.667 1.244 2.667 2.667M30.222 16.889c0 1.422-1.244 2.667-2.667 2.667s-2.667-1.244-2.667-2.667 1.244-2.667 2.667-2.667 2.667 1.244 2.667 2.667M21.333 30.631c-3.111 0-5.849-1.298-7.449-3.218l2.524-2.524c0.8 1.28 2.702 2.187 4.924 2.187s4.124-0.907 4.924-2.187l2.524 2.524c-1.6 1.92-4.338 3.218-7.449 3.218z"></path>
</svg>
