<!-- Generated by IcoMoon.io -->
<svg version="1.1" xmlns="http://www.w3.org/2000/svg" width="43" height="32" viewBox="0 0 43 32">
<title>emoticon-dead</title>
<path d="M21.333 3.556c-9.831 0-17.778 7.947-17.778 17.778s7.947 17.778 17.778 17.778c9.813 0 17.778-7.964 17.778-17.778 0-9.831-8-17.778-17.778-17.778M21.333 35.556c-7.858 0-14.222-6.364-14.222-14.222s6.364-14.222 14.222-14.222 14.222 6.364 14.222 14.222-6.364 14.222-14.222 14.222M28.764 13.796l-1.884 1.884-1.884-1.884-1.884 1.884 1.884 1.884-1.884 1.884 1.884 1.884 1.884-1.884 1.884 1.884 1.884-1.884-1.884-1.884 1.884-1.884-1.884-1.884M13.902 21.333l1.884-1.884 1.884 1.884 1.884-1.884-1.884-1.884 1.884-1.884-1.884-1.884-1.884 1.884-1.884-1.884-1.884 1.884 1.884 1.884-1.884 1.884 1.884 1.884M21.333 24.889c-4.142 0-7.662 2.596-9.084 6.222h18.169c-1.422-3.627-4.942-6.222-9.084-6.222z"></path>
</svg>
