<!-- Generated by IcoMoon.io -->
<svg version="1.1" xmlns="http://www.w3.org/2000/svg" width="43" height="32" viewBox="0 0 43 32">
<title>emoticon-poop</title>
<path d="M16 19.556c0.978 0 1.778 1.6 1.778 3.556s-0.8 3.556-1.778 3.556-1.778-1.6-1.778-3.556 0.8-3.556 1.778-3.556M26.667 19.556c0.978 0 1.778 1.6 1.778 3.556s-0.8 3.556-1.778 3.556-1.778-1.6-1.778-3.556 0.8-3.556 1.778-3.556M17.333 3.111s11.111 4 9.333 11.111c0 0 7.111 0 4 6.222 0 0 7.484 0.782 5.387 6.827-2.276 2.116-2.809 2.738-4.942 4.284l4.996-2.862c1.849 0.907 7.218 4.142 1.227 8.64-7.111 5.333-17.778 0.444-21.333 0.444s-7.111 1.333-8.889 1.333-3.556-1.778-3.556-5.333 3.556-5.333 5.333-5.333c0 0-5.333-5.333 3.556-8.889 0 0-3.556-5.333 3.556-7.111 0 0-1.778-1.778 0-3.556s1.333-4 1.333-5.778M14.222 30.222c2.364 2.080 4.747 4.142 7.111 4.142s4.747-2.062 7.111-4.142h-14.222M16 17.778c-1.956 0-3.556 2.382-3.556 5.333s1.6 5.333 3.556 5.333 3.556-2.382 3.556-5.333-1.6-5.333-3.556-5.333M26.667 17.778c-1.956 0-3.556 2.382-3.556 5.333s1.6 5.333 3.556 5.333 3.556-2.382 3.556-5.333-1.6-5.333-3.556-5.333z"></path>
</svg>
