<!-- Generated by IcoMoon.io -->
<svg version="1.1" xmlns="http://www.w3.org/2000/svg" width="43" height="32" viewBox="0 0 43 32">
<title>escalator</title>
<path d="M35.556 14.222h-1.867l-21.333 21.333h-5.244c-1.956 0-3.556-1.6-3.556-3.556s1.6-3.556 3.556-3.556h2.293l3.040-3.040v-7.627c0-0.978 0.8-1.778 1.778-1.778h1.778c0.978 0 1.778 0.8 1.778 1.778v2.293l12.96-12.96h4.818c1.956 0 3.556 1.6 3.556 3.556s-1.6 3.556-3.556 3.556M15.111 8.889c1.476 0 2.667 1.191 2.667 2.667s-1.191 2.667-2.667 2.667-2.667-1.191-2.667-2.667 1.191-2.667 2.667-2.667z"></path>
</svg>
