<!-- Generated by IcoMoon.io -->
<svg version="1.1" xmlns="http://www.w3.org/2000/svg" width="43" height="32" viewBox="0 0 43 32">
<title>ev-station</title>
<path d="M35.147 12.853l0.018-0.018-6.613-6.613-1.884 1.884 3.751 3.751c-1.671 0.64-2.862 2.24-2.862 4.142 0 2.453 1.991 4.444 4.444 4.444 0.64 0 1.227-0.142 1.778-0.373v12.818c0 0.978-0.8 1.778-1.778 1.778s-1.778-0.8-1.778-1.778v-8c0-1.956-1.6-3.556-3.556-3.556h-1.778v-12.444c0-1.956-1.6-3.556-3.556-3.556h-10.667c-1.956 0-3.556 1.6-3.556 3.556v28.444h17.778v-13.333h2.667v8.889c0 2.453 1.991 4.444 4.444 4.444s4.444-1.991 4.444-4.444v-16.889c0-1.227-0.498-2.347-1.298-3.147M32 17.778c-0.978 0-1.778-0.8-1.778-1.778s0.8-1.778 1.778-1.778 1.778 0.8 1.778 1.778-0.8 1.778-1.778 1.778M14.222 32v-8h-3.556l7.111-13.333v8.889h3.556l-7.111 12.444z"></path>
</svg>
