<!-- Generated by IcoMoon.io -->
<svg version="1.1" xmlns="http://www.w3.org/2000/svg" width="43" height="32" viewBox="0 0 43 32">
<title>evernote</title>
<path d="M26.827 20.676s0.338-2.276 1.618-2.276c1.351 0 3.164 3.040 3.164 3.040s-4.124-0.764-4.782-0.764M33.778 8.338c-0.64-1.067-3.858-2.276-5.529-2.276h-4.249s-1.422-2.507-4.658-2.507c-3.253 0-3.040 1.44-3.040 2.667v5.013l-1.476 1.547h-6.827s-1.884 1.28-1.884 4c0 2.773 0.853 12.284 6.56 13.173 6.756 1.031 7.911-2.098 7.911-2.471 0-1.6 0.036-4 0.036-4s1.973 3.769 4.96 3.769 4.711 1.724 4.711 3.484v3.271s-0.071 2.044-1.849 2.044h-3.751s-1.227-0.96-1.227-2.276c0-1.333 0.587-1.689 1.298-1.689 0.693 0 1.28 0.071 1.28 0.071v-2.773s-5.653-0.053-5.653 4.284c0 4.32 2.951 5.44 5.316 5.44h3.858s6.987-0.889 6.987-14.667-2.187-15.058-2.773-16.107M13.333 11.218h-5.76l7.218-7.271v5.831l-1.458 1.44z"></path>
</svg>
