<!-- Generated by IcoMoon.io -->
<svg version="1.1" xmlns="http://www.w3.org/2000/svg" width="43" height="32" viewBox="0 0 43 32">
<title>eye-off-outline</title>
<path d="M3.556 9.369l2.276-2.258 29.724 29.724-2.258 2.276-5.476-5.476c-2.044 0.676-4.213 1.031-6.489 1.031-8.889 0-16.48-5.529-19.556-13.333 1.227-3.129 3.182-5.884 5.671-8.071l-3.893-3.893M21.333 16c2.951 0 5.333 2.382 5.333 5.333 0 0.622-0.107 1.227-0.302 1.778l-6.809-6.809c0.551-0.196 1.156-0.302 1.778-0.302M21.333 8c8.889 0 16.48 5.529 19.556 13.333-1.458 3.698-3.929 6.898-7.111 9.227l-2.524-2.542c2.418-1.671 4.409-3.947 5.76-6.684-2.933-5.973-8.996-9.778-15.68-9.778-1.938 0-3.84 0.32-5.618 0.889l-2.738-2.72c2.56-1.102 5.387-1.724 8.356-1.724M5.653 21.333c2.933 5.973 8.996 9.778 15.68 9.778 1.227 0 2.436-0.124 3.556-0.373l-4.053-4.071c-2.542-0.267-4.569-2.293-4.836-4.836l-6.044-6.062c-1.76 1.511-3.236 3.396-4.302 5.564z"></path>
</svg>
