<!-- Generated by IcoMoon.io -->
<svg version="1.1" xmlns="http://www.w3.org/2000/svg" width="43" height="32" viewBox="0 0 43 32">
<title>eye-off</title>
<path d="M21.031 16l5.636 5.618v-0.284c0-2.951-2.382-5.333-5.333-5.333h-0.302M13.387 17.422l2.756 2.756c-0.089 0.373-0.142 0.747-0.142 1.156 0 2.951 2.382 5.333 5.333 5.333 0.391 0 0.782-0.053 1.156-0.142l2.756 2.756c-1.191 0.587-2.507 0.942-3.911 0.942-4.907 0-8.889-3.982-8.889-8.889 0-1.404 0.356-2.72 0.942-3.911M3.556 7.591l4.853 4.853c-2.933 2.311-5.244 5.333-6.631 8.889 3.076 7.804 10.667 13.333 19.556 13.333 2.756 0 5.387-0.533 7.787-1.493l0.764 0.747 5.191 5.191 2.258-2.258-31.52-31.52M21.333 12.444c4.907 0 8.889 3.982 8.889 8.889 0 1.138-0.231 2.24-0.64 3.236l5.209 5.209c2.667-2.222 4.8-5.138 6.098-8.444-3.076-7.804-10.667-13.333-19.556-13.333-2.489 0-4.871 0.444-7.111 1.244l3.858 3.822c1.013-0.391 2.098-0.622 3.253-0.622z"></path>
</svg>
