<!-- Generated by IcoMoon.io -->
<svg version="1.1" xmlns="http://www.w3.org/2000/svg" width="43" height="32" viewBox="0 0 43 32">
<title>eye-outline</title>
<path d="M21.333 16c2.951 0 5.333 2.382 5.333 5.333s-2.382 5.333-5.333 5.333-5.333-2.382-5.333-5.333 2.382-5.333 5.333-5.333M21.333 8c8.889 0 16.48 5.529 19.556 13.333-3.076 7.804-10.667 13.333-19.556 13.333s-16.48-5.529-19.556-13.333c3.076-7.804 10.667-13.333 19.556-13.333M5.653 21.333c2.933 5.973 8.996 9.778 15.68 9.778s12.747-3.804 15.68-9.778c-2.933-5.973-8.996-9.778-15.68-9.778s-12.747 3.804-15.68 9.778z"></path>
</svg>
