<!-- Generated by IcoMoon.io -->
<svg version="1.1" xmlns="http://www.w3.org/2000/svg" width="43" height="32" viewBox="0 0 43 32">
<title>eye</title>
<path d="M21.333 16c-2.951 0-5.333 2.382-5.333 5.333s2.382 5.333 5.333 5.333 5.333-2.382 5.333-5.333-2.382-5.333-5.333-5.333M21.333 30.222c-4.907 0-8.889-3.982-8.889-8.889s3.982-8.889 8.889-8.889 8.889 3.982 8.889 8.889-3.982 8.889-8.889 8.889M21.333 8c-8.889 0-16.48 5.529-19.556 13.333 3.076 7.804 10.667 13.333 19.556 13.333s16.48-5.529 19.556-13.333c-3.076-7.804-10.667-13.333-19.556-13.333z"></path>
</svg>
