<!-- Generated by IcoMoon.io -->
<svg version="1.1" xmlns="http://www.w3.org/2000/svg" width="43" height="32" viewBox="0 0 43 32">
<title>face-profile</title>
<path d="M21.333 3.556c-9.813 0-17.778 7.964-17.778 17.778s7.964 17.778 17.778 17.778 17.778-7.964 17.778-17.778-7.964-17.778-17.778-17.778M21.333 14.916c2.791 1.796 6.080 2.862 9.636 2.862 1.387 0 2.72-0.16 4-0.462 0.373 1.262 0.587 2.613 0.587 4.018 0 7.84-6.382 14.222-14.222 14.222-5.333 0-9.973-2.951-12.444-7.307l3.111-3.36v-1.778c0-1.227 0.996-2.222 2.222-2.222s2.222 0.996 2.222 2.222v1.778h4.889M28.444 20.889c-1.227 0-2.222 0.996-2.222 2.222s0.996 2.222 2.222 2.222 2.222-0.996 2.222-2.222-0.996-2.222-2.222-2.222z"></path>
</svg>
