<!-- Generated by IcoMoon.io -->
<svg version="1.1" xmlns="http://www.w3.org/2000/svg" width="43" height="32" viewBox="0 0 43 32">
<title>face</title>
<path d="M16 20.889c-1.227 0-2.222 0.996-2.222 2.222s0.996 2.222 2.222 2.222 2.222-0.996 2.222-2.222-0.996-2.222-2.222-2.222M26.667 20.889c-1.227 0-2.222 0.996-2.222 2.222s0.996 2.222 2.222 2.222 2.222-0.996 2.222-2.222-0.996-2.222-2.222-2.222M21.333 3.556c-9.813 0-17.778 7.964-17.778 17.778s7.964 17.778 17.778 17.778 17.778-7.964 17.778-17.778-7.964-17.778-17.778-17.778M21.333 35.556c-7.84 0-14.222-6.382-14.222-14.222 0-0.516 0-1.031 0.089-1.529 4.196-1.867 7.52-5.298 9.262-9.547 3.218 4.551 8.516 7.52 14.507 7.52 1.387 0 2.72-0.16 4-0.462 0.373 1.262 0.587 2.613 0.587 4.018 0 7.84-6.382 14.222-14.222 14.222z"></path>
</svg>
