<!-- Generated by IcoMoon.io -->
<svg version="1.1" xmlns="http://www.w3.org/2000/svg" width="43" height="32" viewBox="0 0 43 32">
<title>facebook-box</title>
<path d="M8.889 5.333h24.889c1.956 0 3.556 1.6 3.556 3.556v24.889c0 1.956-1.6 3.556-3.556 3.556h-24.889c-1.956 0-3.556-1.6-3.556-3.556v-24.889c0-1.956 1.6-3.556 3.556-3.556M32 8.889h-4.444c-3.431 0-6.222 2.791-6.222 6.222v4.444h-3.556v5.333h3.556v12.444h5.333v-12.444h5.333v-5.333h-5.333v-3.556c0-0.978 0.8-1.778 1.778-1.778h3.556v-5.333z"></path>
</svg>
