<!-- Generated by IcoMoon.io -->
<svg version="1.1" xmlns="http://www.w3.org/2000/svg" width="43" height="32" viewBox="0 0 43 32">
<title>fan</title>
<path d="M21.333 19.556c-0.978 0-1.778 0.8-1.778 1.778s0.8 1.778 1.778 1.778 1.778-0.8 1.778-1.778-0.8-1.778-1.778-1.778M22.222 3.556c8 0 8.196 6.347 4 8.444-1.76 0.871-2.542 2.738-2.88 4.391 0.853 0.356 1.6 0.907 2.169 1.618 6.578-3.556 13.653-2.151 13.653 4.213 0 8-6.347 8.178-8.444 3.964-0.889-1.76-2.773-2.542-4.427-2.88-0.356 0.853-0.907 1.582-1.618 2.187 3.538 6.56 2.133 13.618-4.231 13.618-8 0-8.16-6.364-3.964-8.462 1.742-0.871 2.524-2.72 2.88-4.356-0.871-0.356-1.636-0.924-2.204-1.636-6.56 3.52-13.6 2.133-13.6-4.213 0-8 6.329-8.196 8.427-3.982 0.889 1.76 2.756 2.524 4.409 2.862 0.338-0.853 0.907-1.6 1.636-2.169-3.538-6.56-2.133-13.6 4.196-13.6z"></path>
</svg>
