<!-- Generated by IcoMoon.io -->
<svg version="1.1" xmlns="http://www.w3.org/2000/svg" width="43" height="32" viewBox="0 0 43 32">
<title>fax</title>
<path d="M19.556 10.667h8.889v3.556h-8.889v-3.556M14.222 16v-10.667h19.556v10.667c2.951 0 5.333 2.382 5.333 5.333v10.667h-5.333v5.333h-19.556v-5.333h-1.778v-16h1.778M17.778 8.889v7.111h12.444v-7.111h-12.444M17.778 26.667v7.111h12.444v-7.111h-12.444M33.778 19.556c-0.978 0-1.778 0.8-1.778 1.778s0.8 1.778 1.778 1.778 1.778-0.8 1.778-1.778-0.8-1.778-1.778-1.778M7.111 16h1.778c0.978 0 1.778 0.8 1.778 1.778v12.444c0 0.978-0.8 1.778-1.778 1.778h-1.778c-1.956 0-3.556-1.6-3.556-3.556v-8.889c0-1.956 1.6-3.556 3.556-3.556z"></path>
</svg>
