<!-- Generated by IcoMoon.io -->
<svg version="1.1" xmlns="http://www.w3.org/2000/svg" width="43" height="32" viewBox="0 0 43 32">
<title>feather</title>
<path d="M39.111 3.556s-13.582-0.658-24.284 14.009c-8.213 11.253-11.271 21.547-11.271 21.547l3.449-1.778c2.56-4.444 3.893-6.276 6.4-8.889 4.498 1.316 9.191 1.156 13.262-3.556-3.556-0.996-6.4-0.764-10.596-0.338 4.711-3.218 7.929-3.929 12.373-3.218l1.778-3.556c-3.2-0.604-5.333-0.658-8.498 0.071 3.502-2.471 5.938-3.858 10.276-3.627l2.151-3.431c-2.773-0.196-4.444 0.107-7.627 0.889 2.862-2.596 5.476-3.769 9.28-4 0 0 1.867-3.36 3.307-4.124z"></path>
</svg>
