<!-- Generated by IcoMoon.io -->
<svg version="1.1" xmlns="http://www.w3.org/2000/svg" width="43" height="32" viewBox="0 0 43 32">
<title>ferry</title>
<path d="M10.667 10.667h21.333v7.040l-10.667-3.484-10.667 3.484M7.004 33.778h0.107c2.844 0 5.333-1.564 7.111-3.556 1.778 1.991 4.267 3.556 7.111 3.556s5.333-1.564 7.111-3.556c1.778 1.991 4.267 3.556 7.111 3.556h0.089l3.378-11.893c0.142-0.444 0.089-0.942-0.107-1.369-0.231-0.427-0.604-0.747-1.067-0.889l-2.293-0.747v-8.213c0-1.973-1.6-3.556-3.556-3.556h-5.333v-5.333h-10.667v5.333h-5.333c-1.956 0-3.556 1.6-3.556 3.556v8.213l-2.293 0.747c-0.462 0.142-0.836 0.462-1.067 0.889-0.196 0.427-0.249 0.924-0.107 1.369M35.556 37.333c-2.471 0-4.942-0.836-7.111-2.364-4.338 3.040-9.884 3.040-14.222 0-2.169 1.529-4.64 2.364-7.111 2.364h-3.556v3.556h3.556c2.436 0 4.871-0.622 7.111-1.778 4.444 2.311 9.778 2.311 14.222 0 2.24 1.156 4.658 1.778 7.111 1.778h3.556v-3.556h-3.556z"></path>
</svg>
