<!-- Generated by IcoMoon.io -->
<svg version="1.1" xmlns="http://www.w3.org/2000/svg" width="43" height="32" viewBox="0 0 43 32">
<title>file-restore</title>
<path d="M24.889 3.556h-14.222c-1.956 0-3.556 1.6-3.556 3.556v28.444c0 1.956 1.6 3.556 3.556 3.556h21.333c1.956 0 3.556-1.6 3.556-3.556v-21.333l-10.667-10.667M21.333 32c-3.644 0-6.773-2.204-8.142-5.333h3.040c1.12 1.6 2.987 2.667 5.102 2.667 3.431 0 6.222-2.791 6.222-6.222s-2.791-6.222-6.222-6.222c-2.4 0-4.444 1.387-5.511 3.378l2.844 2.844h-7.111v-7.111l2.311 2.311c1.582-2.453 4.32-4.089 7.467-4.089 4.907 0 8.889 3.982 8.889 8.889s-3.982 8.889-8.889 8.889z"></path>
</svg>
