<!-- Generated by IcoMoon.io -->
<svg version="1.1" xmlns="http://www.w3.org/2000/svg" width="43" height="32" viewBox="0 0 43 32">
<title>file-excel</title>
<path d="M10.667 3.556h14.222l10.667 10.667v21.333c0 1.956-1.6 3.556-3.556 3.556h-21.333c-1.956 0-3.556-1.6-3.556-3.556v-28.444c0-1.956 1.6-3.556 3.556-3.556M23.111 6.222v9.778h9.778l-9.778-9.778M30.222 19.556h-7.111v3.556h1.778l-3.556 2.969-3.556-2.969h1.778v-3.556h-7.111v3.556h1.778l5.333 4.444-5.333 4.444h-1.778v3.556h7.111v-3.556h-1.778l3.556-2.969 3.556 2.969h-1.778v3.556h7.111v-3.556h-1.778l-5.333-4.444 5.333-4.444h1.778v-3.556z"></path>
</svg>
