<!-- Generated by IcoMoon.io -->
<svg version="1.1" xmlns="http://www.w3.org/2000/svg" width="43" height="32" viewBox="0 0 43 32">
<title>file-powerpoint</title>
<path d="M10.667 3.556h14.222l10.667 10.667v21.333c0 1.956-1.6 3.556-3.556 3.556h-21.333c-1.956 0-3.556-1.6-3.556-3.556v-28.444c0-1.956 1.6-3.556 3.556-3.556M23.111 6.222v9.778h9.778l-9.778-9.778M14.222 19.556v3.556h1.778v10.667h-1.778v1.778h7.111v-1.778h-1.778v-3.556h3.556c2.951 0 5.333-2.382 5.333-5.333s-2.382-5.333-5.333-5.333h-8.889M23.111 23.111c0.978 0 1.778 0.8 1.778 1.778s-0.8 1.778-1.778 1.778h-3.556v-3.556h3.556z"></path>
</svg>
