<!-- Generated by IcoMoon.io -->
<svg version="1.1" xmlns="http://www.w3.org/2000/svg" width="43" height="32" viewBox="0 0 43 32">
<title>file-pdf</title>
<path d="M24.889 16h9.778l-9.778-9.778v9.778M12.444 3.556h14.222l10.667 10.667v21.333c0 1.956-1.6 3.556-3.556 3.556h-21.333c-1.973 0-3.556-1.6-3.556-3.556v-28.444c0-1.956 1.6-3.556 3.556-3.556M21.209 22.116c0.729 1.6 1.653 2.916 2.72 3.822l0.729 0.569c-1.547 0.284-3.68 0.782-5.938 1.653l-0.196 0.071 0.889-1.849c0.8-1.547 1.387-2.951 1.796-4.267M32.729 28.889c0.32-0.32 0.48-0.729 0.498-1.173 0.053-0.356-0.036-0.693-0.213-0.978-0.516-0.836-1.849-1.227-4.053-1.227l-2.293 0.124-1.547-1.031c-1.12-0.924-2.133-2.542-2.844-4.551l0.071-0.249c0.587-2.364 1.138-5.227-0.036-6.4-0.284-0.284-0.676-0.427-1.084-0.427h-0.427c-0.658 0-1.244 0.693-1.404 1.369-0.658 2.364-0.267 3.662 0.391 5.813v0.018c-0.444 1.564-1.013 3.378-1.92 5.209l-1.707 3.2-1.582 0.871c-2.133 1.333-3.147 2.827-3.342 3.769-0.071 0.338-0.036 0.64 0.089 0.96l0.053 0.089 0.853 0.551 0.782 0.196c1.44 0 3.076-1.689 5.28-5.458l0.32-0.124c1.831-0.587 4.107-0.996 7.164-1.333 1.831 0.907 3.982 1.316 5.333 1.316 0.782 0 1.316-0.196 1.618-0.533M32 27.627l0.16 0.196c-0.018 0.178-0.071 0.196-0.16 0.231h-0.071l-0.338 0.036c-0.818 0-2.080-0.338-3.378-0.907 0.16-0.178 0.231-0.178 0.409-0.178 2.489 0 3.2 0.444 3.378 0.622M15.698 30.222c-1.156 2.116-2.204 3.289-3.004 3.556 0.089-0.676 0.889-1.849 2.151-3.004l0.853-0.551M21.067 17.938c-0.409-1.6-0.427-2.898-0.124-3.644l0.124-0.213 0.267 0.089c0.302 0.427 0.338 0.996 0.16 1.956l-0.053 0.284-0.284 1.458-0.089 0.071z"></path>
</svg>
