<!-- Generated by IcoMoon.io -->
<svg version="1.1" xmlns="http://www.w3.org/2000/svg" width="43" height="32" viewBox="0 0 43 32">
<title>file-lock</title>
<path d="M10.667 3.556c-1.973 0-3.556 1.6-3.556 3.556v28.444c0 1.956 1.6 3.556 3.556 3.556h21.333c1.956 0 3.556-1.6 3.556-3.556v-21.333l-10.667-10.667h-14.222M23.111 6.222l9.778 9.778h-9.778v-9.778M21.333 19.556c2.951 0 5.333 2.382 5.333 5.333v1.778h1.778v7.111h-14.222v-7.111h1.778v-1.778c0-2.916 2.382-5.333 5.333-5.333M21.333 23.111c-0.978 0-1.778 0.8-1.778 1.778v1.778h3.556v-1.778c0-0.942-0.8-1.778-1.778-1.778z"></path>
</svg>
