<!-- Generated by IcoMoon.io -->
<svg version="1.1" xmlns="http://www.w3.org/2000/svg" width="43" height="32" viewBox="0 0 43 32">
<title>file-powerpoint-box</title>
<path d="M17.422 23.822h4.444c2.667 0 3.84-0.498 4.978-1.458 1.138-0.978 1.6-2.364 1.6-4.178 0-1.724-0.444-3.076-1.6-4.178-1.156-1.049-2.258-1.564-4.978-1.564h-7.644v17.778h3.2v-6.4M33.778 5.333c1.956 0 3.556 1.6 3.556 3.556v24.889c0 1.956-1.6 3.556-3.556 3.556h-24.889c-1.956 0-3.556-1.6-3.556-3.556v-24.889c0-1.973 1.6-3.556 3.556-3.556h24.889M17.422 21.333v-6.4h4.089c1.173 0 2.080 0.444 2.667 1.067s0.889 1.28 0.889 2.204c0 0.996-0.32 1.689-0.889 2.24s-1.244 0.889-2.453 0.889h-4.302z"></path>
</svg>
