<!-- Generated by IcoMoon.io -->
<svg version="1.1" xmlns="http://www.w3.org/2000/svg" width="43" height="32" viewBox="0 0 43 32">
<title>file-cloud</title>
<path d="M23.111 16h9.778l-9.778-9.778v9.778M10.667 3.556h14.222l10.667 10.667v21.333c0 1.956-1.6 3.556-3.556 3.556h-21.333c-1.973 0-3.556-1.6-3.556-3.556v-28.444c0-1.973 1.582-3.556 3.556-3.556M27.876 26.667c-0.604-3.022-3.307-5.333-6.542-5.333-2.578 0-4.8 1.458-5.902 3.556-2.684 0.32-4.764 2.578-4.764 5.333 0 2.951 2.382 5.333 5.333 5.333h11.556c2.453 0 4.444-1.991 4.444-4.444 0-2.347-1.831-4.249-4.124-4.444z"></path>
</svg>
