<!-- Generated by IcoMoon.io -->
<svg version="1.1" xmlns="http://www.w3.org/2000/svg" width="43" height="32" viewBox="0 0 43 32">
<title>file-hidden</title>
<path d="M23.111 16h1.778v3.556h-5.333v-7.111h3.556v3.556M32.889 16l-3.769-3.769 2.222-2.222 4.213 4.213v3.556h-3.556v1.778h-5.333v-3.556h6.222M23.111 6.222v-2.667h-1.778v3.556h1.778v3.556h-3.556v-3.556h-3.556v-3.556h-1.778v3.556h-3.556v1.778h-3.556v-1.778c0-1.973 1.582-3.556 3.556-3.556h14.222l4.196 4.196-2.222 2.222-3.751-3.751M35.556 35.556c0 1.956-1.6 3.556-3.556 3.556h-3.556v-3.556h3.556v-1.778h3.556v1.778M32 26.667h3.556v5.333h-3.556v-5.333M21.333 39.111v-3.556h5.333v3.556h-5.333M14.222 39.111v-3.556h5.333v3.556h-5.333M10.667 39.111c-1.973 0-3.556-1.6-3.556-3.556v-3.556h3.556v3.556h1.778v3.556h-1.778M7.111 24.889h3.556v5.333h-3.556v-5.333M7.111 17.778h3.556v5.333h-3.556v-5.333M32 19.556h3.556v5.333h-3.556v-5.333M7.111 10.667h3.556v5.333h-3.556v-5.333z"></path>
</svg>
