<!-- Generated by IcoMoon.io -->
<svg version="1.1" xmlns="http://www.w3.org/2000/svg" width="43" height="32" viewBox="0 0 43 32">
<title>file-music2</title>
<path d="M23.111 16h9.778l-9.778-9.778v9.778M10.667 3.556h14.222l10.667 10.667v21.333c0 1.956-1.6 3.556-3.556 3.556h-21.333c-1.973 0-3.556-1.6-3.556-3.556v-28.444c0-1.973 1.582-3.556 3.556-3.556M16 28.444c-1.956 0-3.556 1.6-3.556 3.556s1.6 3.556 3.556 3.556 3.556-1.6 3.556-3.556v-8.889h5.333v-3.556h-7.111v9.369c-0.516-0.302-1.138-0.48-1.778-0.48z"></path>
</svg>
