<!-- Generated by IcoMoon.io -->
<svg version="1.1" xmlns="http://www.w3.org/2000/svg" width="43" height="32" viewBox="0 0 43 32">
<title>file-pdf-box</title>
<path d="M20.32 19.449c-0.409 1.316-0.996 2.72-1.796 4.267-0.356 0.676-0.747 1.316-0.889 1.849l0.196-0.071c2.258-0.871 4.391-1.369 5.938-1.653-0.267-0.178-0.516-0.373-0.729-0.569-1.067-0.907-1.991-2.222-2.72-3.822M31.84 26.222c-0.302 0.338-0.836 0.533-1.618 0.533-1.351 0-3.556-0.409-5.333-1.316-3.058 0.338-5.333 0.747-7.164 1.333-0.089 0.036-0.196 0.071-0.32 0.124-2.204 3.769-3.84 5.458-5.28 5.458-0.284 0-0.569-0.071-0.782-0.196l-0.853-0.551-0.053-0.089c-0.124-0.32-0.16-0.622-0.089-0.96 0.196-0.942 1.209-2.436 3.342-3.769 0.338-0.249 0.871-0.533 1.582-0.871 0.533-0.924 1.102-2.009 1.707-3.2 0.907-1.831 1.476-3.644 1.92-5.209v-0.018c-0.658-2.151-1.049-3.449-0.391-5.813 0.16-0.676 0.747-1.369 1.404-1.369h0.427c0.409 0 0.8 0.142 1.084 0.427 1.173 1.173 0.622 4.036 0.036 6.4-0.036 0.107-0.053 0.196-0.071 0.249 0.711 2.009 1.724 3.627 2.844 4.551 0.462 0.356 0.978 0.711 1.547 1.031 0.8-0.089 1.564-0.124 2.293-0.124 2.204 0 3.538 0.391 4.053 1.227 0.178 0.284 0.267 0.622 0.213 0.978-0.018 0.444-0.178 0.853-0.498 1.173M33.778 5.333h-24.889c-1.973 0-3.556 1.582-3.556 3.556v24.889c0 1.956 1.6 3.556 3.556 3.556h24.889c1.956 0 3.556-1.6 3.556-3.556v-24.889c0-1.973-1.6-3.556-3.556-3.556M31.111 24.96c-0.178-0.178-0.889-0.622-3.378-0.622-0.124 0-0.249 0-0.409 0.178 1.298 0.569 2.56 0.907 3.378 0.907 0.124 0 0.231-0.018 0.338-0.036h0.071c0.089-0.036 0.142-0.053 0.16-0.231-0.036-0.053-0.071-0.124-0.16-0.196M14.809 27.556c-0.373 0.213-0.676 0.409-0.853 0.551-1.262 1.156-2.062 2.329-2.151 3.004 0.8-0.267 1.849-1.44 3.004-3.556M20.178 15.271l0.089-0.071c0.124-0.569 0.178-1.067 0.284-1.458l0.053-0.284c0.178-1.013 0.142-1.529-0.16-1.956l-0.267-0.089c-0.036 0.053-0.089 0.142-0.124 0.213-0.302 0.747-0.284 2.044 0.124 3.644z"></path>
</svg>
