<!-- Generated by IcoMoon.io -->
<svg version="1.1" xmlns="http://www.w3.org/2000/svg" width="43" height="32" viewBox="0 0 43 32">
<title>file-word</title>
<path d="M10.667 3.556h14.222l10.667 10.667v21.333c0 1.956-1.6 3.556-3.556 3.556h-21.333c-1.956 0-3.556-1.6-3.556-3.556v-28.444c0-1.956 1.6-3.556 3.556-3.556M23.111 6.222v9.778h9.778l-9.778-9.778M12.444 23.111l2.667 12.444h3.556l2.667-5.333 2.667 5.333h3.556l2.667-12.444h1.778v-3.556h-7.111v3.556h1.778l-1.6 7.467-1.956-3.911h-3.556l-1.956 3.911-1.6-7.467h1.778v-3.556h-7.111v3.556h1.778z"></path>
</svg>
