<!-- Generated by IcoMoon.io -->
<svg version="1.1" xmlns="http://www.w3.org/2000/svg" width="43" height="32" viewBox="0 0 43 32">
<title>file-account</title>
<path d="M23.111 16h9.778l-9.778-9.778v9.778M10.667 3.556h14.222l10.667 10.667v21.333c0 1.956-1.6 3.556-3.556 3.556h-21.333c-1.973 0-3.556-1.6-3.556-3.556v-28.444c0-1.973 1.582-3.556 3.556-3.556M24.889 35.556v-1.778c0-2.364-4.747-3.556-7.111-3.556s-7.111 1.191-7.111 3.556v1.778h14.222M17.778 21.333c-1.956 0-3.556 1.6-3.556 3.556s1.6 3.556 3.556 3.556 3.556-1.6 3.556-3.556-1.6-3.556-3.556-3.556z"></path>
</svg>
