<!-- Generated by IcoMoon.io -->
<svg version="1.1" xmlns="http://www.w3.org/2000/svg" width="43" height="32" viewBox="0 0 43 32">
<title>film</title>
<path d="M6.222 5.333h2.667v-2.133c0-0.782 0.64-1.422 1.422-1.422h7.822c0.782 0 1.422 0.64 1.422 1.422v2.133h2.667c1.476 0 2.667 1.191 2.667 2.667v0.889h14.222v26.667h-14.222v0.889c0 1.476-1.191 2.667-2.667 2.667h-16c-1.476 0-2.667-1.191-2.667-2.667v-28.444c0-1.476 1.191-2.667 2.667-2.667M32 12.444v3.556h3.556v-3.556h-3.556M24.889 12.444v3.556h3.556v-3.556h-3.556M17.778 12.444v3.556h3.556v-3.556h-3.556M24.889 28.444v3.556h3.556v-3.556h-3.556M32 28.444v3.556h3.556v-3.556h-3.556M17.778 28.444v3.556h3.556v-3.556h-3.556z"></path>
</svg>
