<!-- Generated by IcoMoon.io -->
<svg version="1.1" xmlns="http://www.w3.org/2000/svg" width="43" height="32" viewBox="0 0 43 32">
<title>filmstrip-off</title>
<path d="M1.778 7.591l2.276-2.258 33.28 33.28-2.258 2.276-6.631-6.631v3.076h-14.222v-3.556h-3.556v3.556h-3.556v-24.409l-5.333-5.333M32 16v-3.556h-3.556v3.556h3.556M32 23.111v-3.556h-3.556v3.556h3.556M32 26.667h-2.098l-17.778-17.778h2.098v-3.556h14.222v3.556h3.556v-3.556h3.556v26.987l-3.556-3.556v-2.098M14.222 23.111v-3.076l-0.48-0.48h-3.076v3.556h3.556M14.222 30.222v-3.556h-3.556v3.556h3.556M10.667 5.333v2.098l-2.098-2.098h2.098z"></path>
</svg>
