<!-- Generated by IcoMoon.io -->
<svg version="1.1" xmlns="http://www.w3.org/2000/svg" width="43" height="32" viewBox="0 0 43 32">
<title>find-replace</title>
<path d="M19.556 10.667c2.453 0 4.676 0.996 6.293 2.596l-4.516 4.516h10.667v-10.667l-3.644 3.644c-2.258-2.258-5.369-3.644-8.8-3.644-6.276 0-11.431 4.64-12.302 10.667h3.591c0.818-4.053 4.409-7.111 8.711-7.111M29.582 26.916c1.173-1.6 1.991-3.502 2.276-5.582h-3.591c-0.818 4.053-4.409 7.111-8.711 7.111-2.453 0-4.676-0.996-6.293-2.596l4.516-4.516h-10.667v10.667l3.644-3.644c2.258 2.258 5.369 3.644 8.8 3.644 2.756 0 5.333-0.889 7.36-2.418l8.64 8.64 2.667-2.667-8.64-8.64z"></path>
</svg>
