<!-- Generated by IcoMoon.io -->
<svg version="1.1" xmlns="http://www.w3.org/2000/svg" width="43" height="32" viewBox="0 0 43 32">
<title>fingerprint</title>
<path d="M21.031 3.076c-6.044 0.107-9.956 2.827-9.956 2.827-0.498 0.32-0.622 1.049-0.284 1.547 0.356 0.551 1.049 0.64 1.582 0.267 0 0 7.662-5.671 18.667 0.071 0.516 0.302 1.209 0.124 1.511-0.409 0.338-0.533 0.107-1.209-0.498-1.547-2.969-1.564-5.778-2.347-8.302-2.631-0.942-0.107-1.849-0.142-2.72-0.124M21.724 7.716c-10.596-0.142-15.662 8.373-15.662 8.373-0.338 0.516-0.196 1.191 0.302 1.529 0.516 0.338 1.209 0.16 1.636-0.409 0 0 4.302-7.431 13.689-7.271 9.422 0.124 13.547 7.218 13.547 7.218 0.32 0.516 0.996 0.693 1.529 0.391 0.569-0.32 0.693-0.996 0.391-1.547 0 0-4.889-8.142-15.431-8.284M20.444 12.124c-2.987 0.213-5.849 1.298-8 3.093-4.231 3.502-6.933 9.92-3.964 18.56 0.196 0.587 0.836 0.889 1.422 0.693 0.569-0.196 0.889-0.836 0.676-1.404-2.738-7.947-0.302-13.156 3.289-16.178 3.502-2.862 9.689-3.556 14.293-0.711 2.258 1.422 4.018 3.876 4.907 6.293 0.907 2.418 0.853 4.764 0.124 5.867-0.747 1.156-2.258 1.582-3.591 1.244s-2.418-1.298-2.471-3.324c-0.053-3.040-2.436-4.924-4.907-5.209-2.382-0.284-5.138 0.996-5.849 3.84-1.351 5.191 2.044 12.569 9.902 15.022 0.587 0.178 1.209-0.142 1.404-0.729 0.178-0.587-0.124-1.227-0.747-1.404-6.809-2.116-9.387-8.569-8.409-12.373 0.427-1.707 1.92-2.293 3.484-2.151 1.547 0.178 2.88 1.102 2.88 3.040 0.089 2.916 1.991 4.889 4.16 5.44s4.676-0.142 6.009-2.187c1.387-2.080 1.156-5.013 0.107-7.84-1.067-2.844-3.040-5.653-5.831-7.413-2.738-1.707-5.884-2.382-8.889-2.169M21.084 16.444v0.018c-3.164 0.107-6.329 1.742-8.142 5.191-2.347 4.427-1.28 8.942 0.284 12.196 1.582 3.271 3.733 5.44 3.733 5.44 0.427 0.444 1.12 0.444 1.564 0.018s0.444-1.084 0.018-1.564c0 0-1.902-1.956-3.307-4.853s-2.258-6.56-0.338-10.187c1.991-3.733 5.547-4.64 8.676-3.733 3.164 0.924 5.813 3.68 5.76 7.751-0.071 0.622 0.373 1.156 0.996 1.191 0.604 0.053 1.138-0.409 1.191-1.138 0.107-5.084-3.307-8.764-7.324-9.938-1.013-0.284-2.062-0.427-3.111-0.391M21.476 25.333c-0.622 0.018-1.102 0.533-1.084 1.138 0 0 0.053 2.631 1.493 5.173 1.493 2.542 4.658 4.96 10.169 4.444 0.604-0.036 1.084-0.533 1.049-1.173-0.036-0.622-0.569-1.084-1.262-1.031-4.836 0.444-6.88-1.387-8.036-3.36-1.156-1.956-1.191-4.071-1.191-4.071 0-0.622-0.498-1.12-1.138-1.12z"></path>
</svg>
