<!-- Generated by IcoMoon.io -->
<svg version="1.1" xmlns="http://www.w3.org/2000/svg" width="43" height="32" viewBox="0 0 43 32">
<title>firefox</title>
<path d="M37.333 20.8c0-0.711-0.178-1.778-0.356-2.489-0.533-3.022-2.133-5.689-4.089-7.822-0.356-0.533-1.067-1.067-1.778-1.6-1.956-1.6-4.267-2.667-6.933-3.2-5.333-0.889-10.667 0.889-14.222 4.622v-0.178c-0.178-0.356-0.178-0.356-0.356-0.356-0.178-0.356-0.178-0.533-0.356-0.711 0-0.356-0.178-0.711-0.178-1.067-0.533 0.178-0.533 0.711-0.711 1.067-0.356 0.356-0.711 0.889-0.711 1.422-0.178 0.356-0.533 1.956-0.178 2.133h0.178v0.533c-0.356 0.356-0.533 0.533-0.533 0.711-0.533 1.067-1.067 1.956-1.244 3.022v0.533c-0.356 0.356-0.356 0.889-0.533 1.244 0.178 0 0.178-0.178 0.356-0.178-0.889 4.622 0.356 9.422 3.2 12.978 4.267 5.156 11.556 7.289 17.956 4.978 6.222-2.311 10.489-8.356 10.489-15.111v-0.533M24 7.289c2.667 0.533 5.156 1.778 7.111 3.556 0.178 0.178 0.356 0.533 0.356 0.533-0.533-0.533-1.778-1.422-2.489-1.067 0.178 0.533 2.311 3.2 2.489 3.378 0 0 0.533 2.311 0.711 2.489 0 0.356-1.244 4.978-1.244 5.689 0 0.178-1.6 3.378-1.422 3.378-0.533 1.244-1.067 1.244-1.244 1.422-0.178 0-1.244 0.356-2.489 0.711-1.067 0.178-2.311 0.533-3.2 0.356-0.533 0-1.244 0-1.778-0.356-0.178-0.178-1.6-0.889-1.956-1.067-0.533-0.178-0.889-0.533-1.244-0.889h1.956c1.067-0.178 5.689-1.778 5.511-2.489 0-0.533-0.889-0.889-1.244-1.244-0.533-0.178-2.667 0.178-3.556 0.533 0 0-3.378-0.889-4.267-1.6 0-0.178-0.178-1.244-0.178-1.422-0.178-0.178 0.533-0.711 0.533-0.711s1.778-1.778 1.778-1.956c0.356 0 0.711-0.356 0.889-0.533-0.178 0 0.178-0.178 0.711-0.533s0.889-0.356 0.889-0.889c0 0 0.889-1.6-0.178-1.422 0 0-1.6-0.178-2.133-0.178-0.533 0.356-0.711 0.178-1.244 0 0 0-0.356-0.356-0.356-0.533 0.178-0.356 1.422-3.022 1.956-3.2-0.356-0.711-2.133-0.178-2.489 0.356 0 0-1.422 1.067-2.133 1.244 0-0.178-0.889-0.356-1.778-0.356 3.2-2.667 7.467-3.911 11.733-3.2z"></path>
</svg>
