<!-- Generated by IcoMoon.io -->
<svg version="1.1" xmlns="http://www.w3.org/2000/svg" width="43" height="32" viewBox="0 0 43 32">
<title>fire</title>
<path d="M20.818 33.778c-3.164 0-5.707-2.507-5.707-5.582 0-2.88 1.831-4.907 4.978-5.547s6.4-2.151 8.213-4.587c0.693 2.293 1.031 4.711 1.031 7.182 0 4.693-3.804 8.533-8.516 8.533M24 1.191s1.316 4.711 1.316 8.533c0 3.662-2.4 6.631-6.062 6.631-3.68 0-6.453-2.969-6.453-6.631l0.053-0.658c-3.591 4.267-5.742 9.796-5.742 15.822 0 7.858 6.364 14.222 14.222 14.222s14.222-6.364 14.222-14.222c0-9.6-4.604-18.133-11.556-23.698z"></path>
</svg>
