<!-- Generated by IcoMoon.io -->
<svg version="1.1" xmlns="http://www.w3.org/2000/svg" width="43" height="32" viewBox="0 0 43 32">
<title>fish</title>
<path d="M21.333 35.556l1.351-5.333c-5.796-0.373-10.969-2.844-12.462-6.080-0.16 0.853-0.391 1.636-0.747 2.222-1.173 2.080-3.556 2.080-5.92 2.080 1.956 0 2.667-2.791 2.667-6.222s-0.711-6.222-2.667-6.222c2.364 0 4.747 0 5.92 2.080 0.356 0.587 0.587 1.369 0.747 2.222 1.156-2.524 4.569-4.569 8.729-5.511l-2.951-5.902c3.556 0 7.111 0 9.476 1.191 2.009 0.996 3.164 2.844 4.196 4.818 5.191 1.244 9.44 4.053 9.44 7.324 0 3.342-4.444 6.222-9.778 7.396-1.476 1.956-2.916 3.769-4.142 4.747-1.493 1.191-2.667 1.191-3.858 1.191M30.222 19.556c-0.978 0-1.778 0.8-1.778 1.778s0.8 1.778 1.778 1.778 1.778-0.8 1.778-1.778-0.8-1.778-1.778-1.778z"></path>
</svg>
