<!-- Generated by IcoMoon.io -->
<svg version="1.1" xmlns="http://www.w3.org/2000/svg" width="43" height="32" viewBox="0 0 43 32">
<title>flag-checkered</title>
<path d="M25.6 10.667h9.956v17.778h-12.444l-0.711-3.556h-9.956v12.444h-3.556v-30.222h16l0.711 3.556M24.889 24.889h3.556v-3.556h3.556v-3.556h-3.556v-3.556h-3.556v3.556l-1.778-3.556v-3.556h-3.556v3.556h-3.556v-3.556h-3.556v3.556h3.556v3.556h-3.556v3.556h3.556v-3.556h3.556v3.556h3.556v-3.556l1.778 3.556v3.556M19.556 17.778v-3.556h3.556v3.556h-3.556M24.889 17.778h3.556v3.556h-3.556v-3.556z"></path>
</svg>
