<!-- Generated by IcoMoon.io -->
<svg version="1.1" xmlns="http://www.w3.org/2000/svg" width="43" height="32" viewBox="0 0 43 32">
<title>flask-empty</title>
<path d="M10.667 39.111c-2.951 0-5.333-2.382-5.333-5.333 0-1.067 0.32-2.062 0.889-2.898l9.778-16.996v-3.218c-0.978 0-1.778-0.8-1.778-1.778v-1.778c0-1.956 1.6-3.556 3.556-3.556h7.111c1.956 0 3.556 1.6 3.556 3.556v1.778c0 0.978-0.8 1.778-1.778 1.778v3.218l9.778 16.996c0.569 0.836 0.889 1.831 0.889 2.898 0 2.951-2.382 5.333-5.333 5.333h-21.333z"></path>
</svg>
