<!-- Generated by IcoMoon.io -->
<svg version="1.1" xmlns="http://www.w3.org/2000/svg" width="43" height="32" viewBox="0 0 43 32">
<title>flash-red-eye</title>
<path d="M28.444 8.889c-0.996 0-1.778 0.782-1.778 1.778s0.782 1.778 1.778 1.778 1.778-0.782 1.778-1.778-0.782-1.778-1.778-1.778M28.444 3.556c-4.853 0-8.996 2.951-10.667 7.111 1.671 4.16 5.813 7.111 10.667 7.111s8.996-2.951 10.667-7.111c-1.671-4.16-5.813-7.111-10.667-7.111M28.444 6.222c2.453 0 4.444 1.991 4.444 4.444s-1.991 4.444-4.444 4.444-4.444-1.991-4.444-4.444 1.991-4.444 4.444-4.444M5.333 3.556v21.333h5.333v16l12.444-21.333h-7.111l1.991-4.444c-1.209-1.316-2.204-2.791-2.88-4.444 1.227-3.040 3.556-5.547 6.418-7.111h-16.196z"></path>
</svg>
