<!-- Generated by IcoMoon.io -->
<svg version="1.1" xmlns="http://www.w3.org/2000/svg" width="43" height="32" viewBox="0 0 43 32">
<title>flattr</title>
<path d="M37.333 16v10.667c0 5.884-4.782 10.667-10.667 10.667h-18.827l11.84-11.822c0.551-0.551 1.102-1.102 1.369-1.067 0.284 0.053 0.284 0.693 0.284 1.333v4.444h3.556c2.951 0 5.333-2.382 5.333-5.333v-9.938l7.111-7.111v8.16M5.333 26.667v-10.667c0-5.884 4.782-10.667 10.667-10.667h18.827l-11.84 11.822c-0.551 0.551-1.102 1.102-1.369 1.067-0.284-0.053-0.284-0.693-0.284-1.333v-4.444h-3.556c-2.951 0-5.333 2.382-5.333 5.333v9.938l-7.111 7.111v-8.16z"></path>
</svg>
