<!-- Generated by IcoMoon.io -->
<svg version="1.1" xmlns="http://www.w3.org/2000/svg" width="43" height="32" viewBox="0 0 43 32">
<title>flip-to-front</title>
<path d="M12.444 37.333h3.556v-3.556h-3.556M19.556 37.333h3.556v-3.556h-3.556M33.778 26.667h-17.778v-17.778h17.778M33.778 5.333h-17.778c-1.973 0-3.556 1.582-3.556 3.556v17.778c0 1.956 1.6 3.556 3.556 3.556h17.778c1.956 0 3.556-1.6 3.556-3.556v-17.778c0-1.973-1.6-3.556-3.556-3.556M26.667 37.333h3.556v-3.556h-3.556M5.333 16h3.556v-3.556h-3.556M8.889 37.333v-3.556h-3.556c0 1.956 1.6 3.556 3.556 3.556M5.333 30.222h3.556v-3.556h-3.556M5.333 23.111h3.556v-3.556h-3.556v3.556z"></path>
</svg>
