<!-- Generated by IcoMoon.io -->
<svg version="1.1" xmlns="http://www.w3.org/2000/svg" width="43" height="32" viewBox="0 0 43 32">
<title>flip-to-back</title>
<path d="M26.667 30.222h3.556v-3.556h-3.556M26.667 8.889h3.556v-3.556h-3.556M8.889 12.444h-3.556v21.333c0 1.956 1.6 3.556 3.556 3.556h21.333v-3.556h-21.333M33.778 30.222c1.956 0 3.556-1.6 3.556-3.556h-3.556M33.778 16h3.556v-3.556h-3.556M33.778 23.111h3.556v-3.556h-3.556M16 30.222v-3.556h-3.556c0 1.956 1.6 3.556 3.556 3.556M23.111 5.333h-3.556v3.556h3.556M33.778 5.333v3.556h3.556c0-1.973-1.6-3.556-3.556-3.556M23.111 26.667h-3.556v3.556h3.556M16 5.333c-1.973 0-3.556 1.582-3.556 3.556h3.556M16 19.556h-3.556v3.556h3.556M16 12.444h-3.556v3.556h3.556v-3.556z"></path>
</svg>
