<!-- Generated by IcoMoon.io -->
<svg version="1.1" xmlns="http://www.w3.org/2000/svg" width="43" height="32" viewBox="0 0 43 32">
<title>floppy</title>
<path d="M8 39.111l-4.444-4.444v-27.556c0-1.956 1.6-3.556 3.556-3.556h28.444c1.956 0 3.556 1.6 3.556 3.556v28.444c0 1.956-1.6 3.556-3.556 3.556h-5.333v-12.444c0-0.978-0.8-1.778-1.778-1.778h-16c-0.978 0-1.778 0.8-1.778 1.778v12.444h-2.667M8.889 7.111v10.667c0 0.978 0.8 1.778 1.778 1.778h21.333c0.978 0 1.778-0.8 1.778-1.778v-10.667h-24.889M14.222 28.444h5.333v7.111h-5.333v-7.111M35.556 7.111v1.778h1.778v-1.778h-1.778z"></path>
</svg>
