<!-- Generated by IcoMoon.io -->
<svg version="1.1" xmlns="http://www.w3.org/2000/svg" width="43" height="32" viewBox="0 0 43 32">
<title>flower</title>
<path d="M5.333 23.111c0 8.836 7.164 16 16 16 0-8.889-7.164-16-16-16M21.333 9.778c2.453 0 4.444 1.991 4.444 4.444s-1.991 4.444-4.444 4.444-4.444-1.991-4.444-4.444 1.991-4.444 4.444-4.444M9.956 18.222c0 2.453 1.991 4.444 4.444 4.444 0.942 0 1.813-0.302 2.489-0.782v0.338c0 2.453 1.991 4.444 4.444 4.444s4.444-1.991 4.444-4.444v-0.338c0.676 0.48 1.547 0.782 2.489 0.782 2.453 0 4.444-1.991 4.444-4.444 0-1.778-1.049-3.289-2.542-4 1.493-0.711 2.542-2.24 2.542-4 0-2.453-1.991-4.444-4.444-4.444-0.942 0-1.813 0.284-2.489 0.782v-0.338c0-2.453-1.991-4.444-4.444-4.444s-4.444 1.991-4.444 4.444v0.338c-0.676-0.498-1.547-0.782-2.489-0.782-2.453 0-4.444 1.991-4.444 4.444 0 1.76 1.049 3.289 2.542 4-1.493 0.711-2.542 2.222-2.542 4M21.333 39.111c8.836 0 16-7.164 16-16-8.889 0-16 7.111-16 16z"></path>
</svg>
