<!-- Generated by IcoMoon.io -->
<svg version="1.1" xmlns="http://www.w3.org/2000/svg" width="43" height="32" viewBox="0 0 43 32">
<title>folder-remove</title>
<path d="M17.778 7.111l3.556 3.556h14.222c1.956 0 3.556 1.6 3.556 3.556v17.778c0 1.956-1.6 3.556-3.556 3.556h-28.444c-1.973 0-3.556-1.6-3.556-3.556v-21.333c0-1.973 1.582-3.556 3.556-3.556h10.667M22.151 19.342l3.787 3.769-3.787 3.769 2.524 2.524 3.769-3.787 3.769 3.787 2.524-2.524-3.787-3.769 3.787-3.769-2.524-2.524-3.769 3.787-3.769-3.787-2.524 2.524z"></path>
</svg>
