<!-- Generated by IcoMoon.io -->
<svg version="1.1" xmlns="http://www.w3.org/2000/svg" width="43" height="32" viewBox="0 0 43 32">
<title>folder-google-drive</title>
<path d="M24.444 16h4.249l5.084 8.889h-5.244l-4.533-8.071M32.533 30.222h-9.867l2.489-4.444h9.102l0.462 0.818M20.444 30.222l-1.956-3.804 5.049-8.818 2.667 4.729-4.427 7.893M35.556 10.667h-14.222l-3.556-3.556h-10.667c-1.973 0-3.556 1.582-3.556 3.556v21.333c0 1.956 1.6 3.556 3.556 3.556h28.444c1.956 0 3.556-1.6 3.556-3.556v-17.778c0-1.973-1.6-3.556-3.556-3.556z"></path>
</svg>
