<!-- Generated by IcoMoon.io -->
<svg version="1.1" xmlns="http://www.w3.org/2000/svg" width="43" height="32" viewBox="0 0 43 32">
<title>folder-account</title>
<path d="M33.778 30.222h-14.222v-1.778c0-2.364 4.747-3.556 7.111-3.556s7.111 1.191 7.111 3.556M26.667 16c1.956 0 3.556 1.6 3.556 3.556s-1.6 3.556-3.556 3.556-3.556-1.6-3.556-3.556c0-1.973 1.6-3.556 3.556-3.556M35.556 10.667h-14.222l-3.556-3.556h-10.667c-1.973 0-3.556 1.582-3.556 3.556v21.333c0 1.956 1.6 3.556 3.556 3.556h28.444c1.956 0 3.556-1.6 3.556-3.556v-17.778c0-1.973-1.6-3.556-3.556-3.556z"></path>
</svg>
