<!-- Generated by IcoMoon.io -->
<svg version="1.1" xmlns="http://www.w3.org/2000/svg" width="43" height="32" viewBox="0 0 43 32">
<title>folder-lock</title>
<path d="M35.556 10.667c1.956 0 3.556 1.6 3.556 3.556v17.778c0 1.956-1.6 3.556-3.556 3.556h-28.444c-1.973 0-3.556-1.6-3.556-3.556v-21.333c0-1.973 1.582-3.556 3.556-3.556h10.667l3.556 3.556h14.222M33.778 30.222v-7.111h-1.778v-1.778c0-2.951-2.382-5.333-5.333-5.333s-5.333 2.382-5.333 5.333v1.778h-1.778v7.111h14.222M26.667 19.556c0.978 0 1.778 0.8 1.778 1.778v1.778h-3.556v-1.778c0-0.978 0.8-1.778 1.778-1.778z"></path>
</svg>
