<!-- Generated by IcoMoon.io -->
<svg version="1.1" xmlns="http://www.w3.org/2000/svg" width="43" height="32" viewBox="0 0 43 32">
<title>font-awesome</title>
<path d="M10.667 5.333c2.453 0 4.444 1.991 4.444 4.444 0 1.831-1.102 3.396-2.667 4.071v1.547c1.973-0.533 4.836-1.173 7.111-1.173 2.044 0 3.36 0.391 4.516 0.747 1.049 0.32 1.973 0.587 3.484 0.587 2.898 0 5.156-1.013 5.404-1.138s0.533-0.196 0.818-0.196c0.978 0 1.778 0.8 1.778 1.778v14.222c0 0.676-0.373 1.28-0.978 1.582-0.124 0.071-3.093 1.529-7.022 1.529-1.973 0-3.644-0.356-5.262-0.711-1.511-0.32-2.933-0.622-4.516-0.622-2.044 0-4.142 0.693-5.333 1.173v5.938h-3.556v-25.262c-1.564-0.676-2.667-2.24-2.667-4.071 0-2.453 1.991-4.444 4.444-4.444z"></path>
</svg>
