<!-- Generated by IcoMoon.io -->
<svg version="1.1" xmlns="http://www.w3.org/2000/svg" width="43" height="32" viewBox="0 0 43 32">
<title>food-fork-drink</title>
<path d="M5.333 5.333c-0.978 0-1.778 0.8-1.778 1.778v9.778c0 3.004 1.831 5.564 4.444 6.613v11.164c0 1.476 1.191 2.667 2.667 2.667s2.667-1.191 2.667-2.667v-11.164c2.613-1.049 4.444-3.609 4.444-6.613v-9.778c0-0.978-0.8-1.778-1.778-1.778s-1.778 0.8-1.778 1.778v7.111c0 0.498-0.391 0.889-0.889 0.889s-0.889-0.391-0.889-0.889v-7.111c0-0.978-0.8-1.778-1.778-1.778s-1.778 0.8-1.778 1.778v7.111c0 0.498-0.391 0.889-0.889 0.889s-0.889-0.391-0.889-0.889v-7.111c0-0.978-0.8-1.778-1.778-1.778M35.342 5.333c-0.231 0-0.462 0.16-0.676 0.284l-6.222 3.716v6.667h-7.111v3.556h1.778l1.778 17.778h10.667l1.778-17.778h1.778v-3.556h-7.111v-4.729l4.444-2.667c0.889-0.498 1.12-1.493 0.604-2.382-0.373-0.64-1.031-0.978-1.707-0.889z"></path>
</svg>
