<!-- Generated by IcoMoon.io -->
<svg version="1.1" xmlns="http://www.w3.org/2000/svg" width="43" height="32" viewBox="0 0 43 32">
<title>food</title>
<path d="M27.556 37.333l-2.667-23.111h3.964l-2.009-8.071 3.093-0.818 2.222 8.889h6.951l-2.667 23.111h-8.889M8.889 19.556h8.889c2.951 0 5.333 2.382 5.333 5.333h-19.556c0-2.951 2.382-5.333 5.333-5.333M23.111 32c0 2.951-2.382 5.333-5.333 5.333h-8.889c-2.951 0-5.333-2.382-5.333-5.333h19.556M5.333 26.667h8.889l2.667 2.667 2.667-2.667h1.778c0.978 0 1.778 0.8 1.778 1.778s-0.8 1.778-1.778 1.778h-16c-0.978 0-1.778-0.8-1.778-1.778s0.8-1.778 1.778-1.778z"></path>
</svg>
