<!-- Generated by IcoMoon.io -->
<svg version="1.1" xmlns="http://www.w3.org/2000/svg" width="43" height="32" viewBox="0 0 43 32">
<title>food-off</title>
<path d="M3.556 9.369l2.276-2.258 31.502 31.502-2.258 2.276-3.556-3.556h-3.964l-0.516-4.444-3.982-4.018c-0.196 0.782-0.889 1.351-1.724 1.351h-16c-0.978 0-1.778-0.8-1.778-1.778s0.8-1.778 1.778-1.778h8.889l2.667 2.667 2.667-2.667h1.298l-1.778-1.778h-15.52c0-2.951 2.382-5.333 5.333-5.333h4.853l-10.187-10.187M24.889 14.222h3.964l-2.009-8.071 3.093-0.818 2.222 8.889h6.951l-2.24 19.413-11.022-11.022-0.96-8.391M23.111 32c0 2.951-2.382 5.333-5.333 5.333h-8.889c-2.951 0-5.333-2.382-5.333-5.333h19.556z"></path>
</svg>
