<!-- Generated by IcoMoon.io -->
<svg version="1.1" xmlns="http://www.w3.org/2000/svg" width="43" height="32" viewBox="0 0 43 32">
<title>football-helmet</title>
<path d="M24 21.333c-1.476 0-2.667 1.191-2.667 2.667s1.191 2.667 2.667 2.667 2.667-1.191 2.667-2.667-1.191-2.667-2.667-2.667M24 5.333c8.338 0 15.111 6.364 15.111 14.222 0 2.88 0 5.333-1.618 8.889-7.271 0-9.049 7.111-15.271 7.111-3.876 0-5.742-3.058-6.133-7.111h-1.44l-2.276 7.644c-0.267 0.871-1.12 1.387-1.991 1.244h-5.049c-0.978 0-1.778-0.8-1.778-1.778s0.8-1.778 1.778-1.778v-5.333c-0.978 0-1.778-0.8-1.778-1.778s0.8-1.778 1.778-1.778h6.667l0.853-2.862c-0.907-0.444-1.956-0.693-3.076-0.693h-0.764l-0.124-1.778c0-7.858 6.773-14.222 15.111-14.222M8.889 28.444v5.333h0.462l1.582-5.333h-2.044z"></path>
</svg>
