<!-- Generated by IcoMoon.io -->
<svg version="1.1" xmlns="http://www.w3.org/2000/svg" width="43" height="32" viewBox="0 0 43 32">
<title>football-australian</title>
<path d="M13.333 13.333c2.969-2.898 6.738-4.996 10.436-5.902 8.231-2.098 13.564 3.236 11.467 11.467-0.907 3.698-3.004 7.467-5.902 10.436-2.969 2.898-6.738 4.996-10.436 5.902-8.231 2.098-13.564-3.236-11.467-11.467 0.907-3.698 3.004-7.467 5.902-10.436M18.88 20.018l-0.64 0.64 3.769 3.769 0.64-0.64-3.769-3.769M20.658 18.24l-0.64 0.64 3.769 3.769 0.64-0.64-3.769-3.769M17.102 21.796l-0.64 0.64 3.769 3.769 0.64-0.64-3.769-3.769M22.453 16.498l-0.622 0.622 3.769 3.769 0.622-0.622-3.769-3.769M15.342 23.609l-0.622 0.622 3.769 3.769 0.622-0.622-3.769-3.769M24.231 14.72l-0.622 0.622 3.769 3.769 0.622-0.622-3.769-3.769z"></path>
</svg>
