<!-- Generated by IcoMoon.io -->
<svg version="1.1" xmlns="http://www.w3.org/2000/svg" width="43" height="32" viewBox="0 0 43 32">
<title>format-strikethrough-variant</title>
<path d="M40.889 21.333v3.556h-7.804c1.778 3.804 1.689 14.222-11.076 14.222-14.809 0.089-14.24-11.556-14.24-11.556l7.058 0.089c0.053 5.991 5.618 5.991 6.72 5.92 1.138-0.089 5.387-0.071 5.724-4.231 0.142-1.938-1.813-3.413-3.947-4.444h-21.547v-3.556h39.111M34.507 14.027l-7.076-0.053s0.302-4.924-5.831-4.942c-6.133-0.036-5.6 3.911-5.6 4.409 0.071 0.498 0.604 2.951 5.333 4.124h-11.182s-6.204-11.964 8.942-14.009c15.484-2.133 15.449 10.507 15.413 10.471z"></path>
</svg>
