<!-- Generated by IcoMoon.io -->
<svg version="1.1" xmlns="http://www.w3.org/2000/svg" width="43" height="32" viewBox="0 0 43 32">
<title>format-rotate-90</title>
<path d="M13.049 11.396l-11.52 11.538 11.538 11.52 11.538-11.52-11.556-11.538M6.56 22.933l6.507-6.507 6.489 6.507-6.507 6.507-6.489-6.507M34.418 11.804c-3.111-3.129-7.218-4.693-11.307-4.693v-5.76l-7.538 7.538 7.538 7.538v-5.76c3.182 0 6.364 1.209 8.8 3.644 4.853 4.853 4.853 12.747 0 17.6-2.436 2.436-5.618 3.644-8.8 3.644-1.724 0-3.449-0.373-5.049-1.084l-2.649 2.649c2.364 1.316 5.031 1.991 7.698 1.991 4.089 0 8.196-1.564 11.307-4.693 6.258-6.24 6.258-16.373 0-22.613z"></path>
</svg>
