<!-- Generated by IcoMoon.io -->
<svg version="1.1" xmlns="http://www.w3.org/2000/svg" width="43" height="32" viewBox="0 0 43 32">
<title>format-bold</title>
<path d="M24 27.556h-6.222v-5.333h6.222c1.476 0 2.667 1.191 2.667 2.667s-1.191 2.667-2.667 2.667M17.778 11.556h5.333c1.476 0 2.667 1.191 2.667 2.667s-1.191 2.667-2.667 2.667h-5.333M27.733 19.182c1.724-1.209 2.933-3.182 2.933-4.96 0-4.018-3.111-7.111-7.111-7.111h-11.111v24.889h12.516c3.733 0 6.596-3.022 6.596-6.738 0-2.702-1.529-5.013-3.822-6.080z"></path>
</svg>
