<!-- Generated by IcoMoon.io -->
<svg version="1.1" xmlns="http://www.w3.org/2000/svg" width="43" height="32" viewBox="0 0 43 32">
<title>format-header-pound</title>
<path d="M5.333 7.111h3.556v10.667h7.111v-10.667h3.556v24.889h-3.556v-10.667h-7.111v10.667h-3.556v-24.889M23.111 14.222h4.107l0.569-5.333h3.556l-0.569 5.333h3.556l0.569-5.333h3.556l-0.569 5.333h3.004v3.556h-3.378l-0.356 3.556h3.733v3.556h-4.107l-0.569 5.333h-3.556l0.569-5.333h-3.556l-0.569 5.333h-3.556l0.569-5.333h-3.004v-3.556h3.378l0.356-3.556h-3.733v-3.556M30.4 17.778l-0.356 3.556h3.556l0.356-3.556h-3.556z"></path>
</svg>
