<!-- Generated by IcoMoon.io -->
<svg version="1.1" xmlns="http://www.w3.org/2000/svg" width="43" height="32" viewBox="0 0 43 32">
<title>format-text</title>
<path d="M32.889 7.111l2.062 7.733-1.707 0.462c-0.8-1.547-1.618-3.093-2.56-3.876-0.942-0.764-2.044-0.764-3.129-0.764h-4.444v18.667c0 0.889 0 1.778 0.587 2.222 0.604 0.444 1.778 0.444 2.969 0.444v1.778h-10.667v-1.778c1.191 0 2.364 0 2.969-0.444 0.587-0.444 0.587-1.333 0.587-2.222v-18.667h-4.444c-1.084 0-2.187 0-3.129 0.764-0.942 0.782-1.76 2.329-2.56 3.876l-1.707-0.462 2.062-7.733h23.111z"></path>
</svg>
