<!-- Generated by IcoMoon.io -->
<svg version="1.1" xmlns="http://www.w3.org/2000/svg" width="43" height="32" viewBox="0 0 43 32">
<title>format-header-5</title>
<path d="M5.333 7.111h3.556v10.667h7.111v-10.667h3.556v24.889h-3.556v-10.667h-7.111v10.667h-3.556v-24.889M26.667 7.111h8.889v3.556h-8.889v7.111h3.556c3.929 0 7.111 3.182 7.111 7.111s-3.182 7.111-7.111 7.111h-3.556c-1.956 0-3.556-1.6-3.556-3.556v-1.778h3.556v1.778h3.556c1.956 0 3.556-1.6 3.556-3.556s-1.6-3.556-3.556-3.556h-3.556c-1.956 0-3.556-1.6-3.556-3.556v-7.111c0-1.956 1.6-3.556 3.556-3.556z"></path>
</svg>
