<!-- Generated by IcoMoon.io -->
<svg version="1.1" xmlns="http://www.w3.org/2000/svg" width="43" height="32" viewBox="0 0 43 32">
<title>format-color-fill</title>
<path d="M33.778 20.444s-3.556 3.858-3.556 6.222c0 1.956 1.6 3.556 3.556 3.556s3.556-1.6 3.556-3.556c0-2.364-3.556-6.222-3.556-6.222M9.262 17.778l8.516-8.516 8.516 8.516M29.44 15.893l-15.893-15.893-2.507 2.507 4.231 4.231-9.156 9.156c-1.049 0.996-1.049 2.72 0 3.769l9.778 9.778c0.516 0.516 1.209 0.782 1.884 0.782s1.369-0.267 1.884-0.782l9.778-9.778c1.049-1.049 1.049-2.773 0-3.769z"></path>
</svg>
