<!-- Generated by IcoMoon.io -->
<svg version="1.1" xmlns="http://www.w3.org/2000/svg" width="43" height="32" viewBox="0 0 43 32">
<title>format-header-2</title>
<path d="M5.333 7.111h3.556v10.667h7.111v-10.667h3.556v24.889h-3.556v-10.667h-7.111v10.667h-3.556v-24.889M37.333 32h-10.667c-1.956 0-3.556-1.6-3.556-3.556 0-0.942 0.356-1.778 0.96-2.418l8.658-9.298c0.658-0.64 1.049-1.529 1.049-2.507 0-1.956-1.6-3.556-3.556-3.556s-3.556 1.6-3.556 3.556h-3.556c0-3.929 3.182-7.111 7.111-7.111s7.111 3.182 7.111 7.111c0 1.956-0.8 3.733-2.080 5.031l-8.587 9.191h10.667v3.556z"></path>
</svg>
