<!-- Generated by IcoMoon.io -->
<svg version="1.1" xmlns="http://www.w3.org/2000/svg" width="43" height="32" viewBox="0 0 43 32">
<title>format-superscript</title>
<path d="M28.444 13.173l-8.16 8.16 8.16 8.16-2.507 2.507-8.16-8.16-8.16 8.16-2.507-2.507 8.16-8.16-8.16-8.16 2.507-2.507 8.16 8.16 8.16-8.16 2.507 2.507M38.844 16h-8.676v-1.778l1.582-1.458c1.351-1.138 2.347-2.098 3.022-2.898 0.658-0.782 0.996-1.511 1.013-2.187 0.018-0.498-0.142-0.924-0.48-1.244-0.32-0.338-0.836-0.498-1.529-0.516-0.551 0.018-1.031 0.124-1.493 0.302l-1.173 0.693-0.8-2.080c0.48-0.391 1.049-0.693 1.742-0.942s1.458-0.338 2.293-0.338c1.387 0 2.453 0.356 3.164 1.084 0.711 0.693 1.102 1.653 1.102 2.791-0.018 0.996-0.338 1.92-0.96 2.756-0.604 0.853-1.351 1.653-2.258 2.418l-1.138 0.924v0.036h4.587v2.436z"></path>
</svg>
