<!-- Generated by IcoMoon.io -->
<svg version="1.1" xmlns="http://www.w3.org/2000/svg" width="43" height="32" viewBox="0 0 43 32">
<title>format-line-style</title>
<path d="M5.333 28.444h8.889v-3.556h-8.889v3.556M16.889 28.444h8.889v-3.556h-8.889v3.556M28.444 28.444h8.889v-3.556h-8.889v3.556M5.333 35.556h3.556v-3.556h-3.556v3.556M12.444 35.556h3.556v-3.556h-3.556v3.556M19.556 35.556h3.556v-3.556h-3.556v3.556M26.667 35.556h3.556v-3.556h-3.556v3.556M33.778 35.556h3.556v-3.556h-3.556v3.556M5.333 21.333h14.222v-3.556h-14.222v3.556M23.111 21.333h14.222v-3.556h-14.222v3.556M5.333 7.111v7.111h32v-7.111h-32z"></path>
</svg>
