<!-- Generated by IcoMoon.io -->
<svg version="1.1" xmlns="http://www.w3.org/2000/svg" width="43" height="32" viewBox="0 0 43 32">
<title>format-section</title>
<path d="M27.858 7.858c-1.724-1.031-3.716-1.564-5.724-1.529-2.809 0-4.96 1.387-4.96 3.556 0 2.489 2.382 3.396 5.938 4.587 4.444 1.44 7.822 3.253 7.822 7.538-0.071 2.329-1.262 4.462-3.2 5.742 1.156 1.084 1.796 2.613 1.778 4.196 0 5.013-4.622 7.111-9.067 7.111-2.596 0.107-5.173-0.587-7.378-1.956l1.156-2.72c1.849 1.262 4.036 1.938 6.276 1.956 3.058 0 5.333-1.387 5.333-3.911 0-2.204-1.387-3.431-5.831-4.96-4.889-1.689-8.267-3.467-8.267-7.538 0.124-2.347 1.476-4.48 3.556-5.582-1.12-1.013-1.76-2.489-1.778-4.018 0-4.196 3.858-6.773 8.764-6.773 2.293 0 4.551 0.516 6.578 1.582l-0.996 2.72M20.178 23.858c1.884 0.587 3.716 1.351 5.44 2.293 1.156-0.871 1.813-2.24 1.778-3.68 0-1.778-1.138-3.342-4.284-4.444-1.973-0.658-3.947-1.476-5.831-2.436-1.333 0.8-2.169 2.24-2.169 3.804 0 1.724 1.298 3.147 5.067 4.462z"></path>
</svg>
