<!-- Generated by IcoMoon.io -->
<svg version="1.1" xmlns="http://www.w3.org/2000/svg" width="43" height="32" viewBox="0 0 43 32">
<title>foursquare</title>
<path d="M30.222 8.889l-0.764 4.444c-0.124 0.409-0.658 0.889-1.173 0.889h-6.951c-0.836 0-1.867 0.569-1.867 1.404v0.729c0 0.836 1.031 1.422 1.867 1.422h5.831c0.587 0 1.156 0.64 1.031 1.262-0.124 0.64-1.636 4.569-1.707 4.96-0.071 0.302-0.462 0.889-1.156 0.889h-5.12c-0.924 0-1.209 0.124-1.831 0.889-0.604 0.782-5.458 6.4-5.458 6.4-0.053 0.053-0.48-0.107-0.48-0.178v-23.111c0-0.533 1.084-1.778 1.778-1.778h15.111c0.569 0 1.031 1.084 0.889 1.778M30.222 25.689c0.196-0.853 3.164-13.742 3.947-17.6M31.253 3.556h-18.969c-2.631 0-3.396 1.973-3.396 3.2v30.151c0 1.387 0.747 1.92 1.173 2.080 0.427 0.178 1.582 0.32 2.276-0.48 0 0 8.373-9.671 8.533-9.831 0.231-0.231 0.231-0.231 0.462-0.231h5.796c2.436 0 2.827-1.778 3.093-2.756 0.196-0.853 3.164-13.742 3.947-17.6 0.604-2.951-0.142-4.533-2.916-4.533z"></path>
</svg>
