<!-- Generated by IcoMoon.io -->
<svg version="1.1" xmlns="http://www.w3.org/2000/svg" width="43" height="32" viewBox="0 0 43 32">
<title>fridge</title>
<path d="M16 37.333v1.778h-3.556v-1.778c-1.956 0-3.556-1.6-3.556-3.556v-26.667c0-1.956 1.6-3.556 3.556-3.556h17.778c1.956 0 3.556 1.6 3.556 3.556v26.667c0 1.956-1.6 3.556-3.556 3.556v1.778h-3.556v-1.778h-10.667M12.444 7.111v8.889h17.778v-8.889h-17.778M12.444 33.778h17.778v-14.222h-17.778v14.222M14.222 21.333h3.556v5.333h-3.556v-5.333M14.222 10.667h3.556v3.556h-3.556v-3.556z"></path>
</svg>
