<!-- Generated by IcoMoon.io -->
<svg version="1.1" xmlns="http://www.w3.org/2000/svg" width="43" height="32" viewBox="0 0 43 32">
<title>function</title>
<path d="M27.733 9.404c-1.956-0.178-3.68 1.262-3.858 3.236l-0.444 5.138h5.013v3.556h-5.333l-0.782 9.013c-0.338 3.911-3.787 6.809-7.698 6.453-2.329-0.196-4.284-1.493-5.44-3.324l2.667-2.667c0.427 1.316 1.6 2.329 3.076 2.453 1.956 0.178 3.68-1.262 3.858-3.236l0.764-8.693h-5.333v-3.556h5.636l0.48-5.458c0.338-3.911 3.787-6.809 7.698-6.453 2.329 0.196 4.284 1.493 5.44 3.324l-2.667 2.667c-0.427-1.316-1.6-2.329-3.076-2.453z"></path>
</svg>
