<!-- Generated by IcoMoon.io -->
<svg version="1.1" xmlns="http://www.w3.org/2000/svg" width="43" height="32" viewBox="0 0 43 32">
<title>gamepad-variant</title>
<path d="M12.444 10.667h17.778c5.884 0 10.667 4.782 10.667 10.667s-4.782 10.667-10.667 10.667c-3.164 0-5.991-1.369-7.947-3.556h-1.884c-1.956 2.187-4.782 3.556-7.947 3.556-5.884 0-10.667-4.782-10.667-10.667s4.782-10.667 10.667-10.667M10.667 16v3.556h-3.556v3.556h3.556v3.556h3.556v-3.556h3.556v-3.556h-3.556v-3.556h-3.556M27.556 21.333c-1.476 0-2.667 1.191-2.667 2.667s1.191 2.667 2.667 2.667 2.667-1.191 2.667-2.667-1.191-2.667-2.667-2.667M32.889 16c-1.476 0-2.667 1.191-2.667 2.667s1.191 2.667 2.667 2.667 2.667-1.191 2.667-2.667-1.191-2.667-2.667-2.667z"></path>
</svg>
