<!-- Generated by IcoMoon.io -->
<svg version="1.1" xmlns="http://www.w3.org/2000/svg" width="43" height="32" viewBox="0 0 43 32">
<title>gate</title>
<path d="M16 8.889v8.889h-3.556v-7.111h-3.556v7.111h-3.556v-3.556h-3.556v21.333h3.556v-3.556h3.556v3.556h3.556v-3.556h3.556v3.556h3.556v-3.556h3.556v3.556h3.556v-3.556h3.556v3.556h3.556v-3.556h3.556v3.556h3.556v-21.333h-3.556v3.556h-3.556v-7.111h-3.556v7.111h-3.556v-8.889h-3.556v8.889h-3.556v-8.889h-3.556M5.333 21.333h3.556v7.111h-3.556v-7.111M12.444 21.333h3.556v7.111h-3.556v-7.111M19.556 21.333h3.556v7.111h-3.556v-7.111M26.667 21.333h3.556v7.111h-3.556v-7.111M33.778 21.333h3.556v7.111h-3.556v-7.111z"></path>
</svg>
