<!-- Generated by IcoMoon.io -->
<svg version="1.1" xmlns="http://www.w3.org/2000/svg" width="43" height="32" viewBox="0 0 43 32">
<title>gauge</title>
<path d="M30.756 32c3.022-2.667 4.8-6.4 4.8-10.667 0-7.858-6.364-14.222-14.222-14.222s-14.222 6.364-14.222 14.222c0 4.267 1.778 8 4.8 10.667 2.667-2.311 5.867-3.556 9.422-3.556s6.933 1.244 9.422 3.556M21.333 3.556c9.813 0 17.778 7.964 17.778 17.778s-7.964 17.778-17.778 17.778-17.778-7.964-17.778-17.778 7.964-17.778 17.778-17.778M12.444 16c0.978 0 1.778 0.8 1.778 1.778s-0.8 1.778-1.778 1.778-1.778-0.8-1.778-1.778 0.8-1.778 1.778-1.778M17.778 10.667c0.978 0 1.778 0.8 1.778 1.778s-0.8 1.778-1.778 1.778-1.778-0.8-1.778-1.778 0.8-1.778 1.778-1.778M30.222 16c0.978 0 1.778 0.8 1.778 1.778s-0.8 1.778-1.778 1.778-1.778-0.8-1.778-1.778 0.8-1.778 1.778-1.778M25.6 10.844c0.889 0.356 1.244 1.422 1.067 2.311l-2.489 6.044c0.356 0.533 0.711 1.244 0.711 2.133 0 1.956-1.6 3.556-3.556 3.556s-3.556-1.6-3.556-3.556c0-1.778 1.244-3.378 3.022-3.556l2.489-5.867c0.356-1.067 1.422-1.422 2.311-1.067z"></path>
</svg>
