<!-- Generated by IcoMoon.io -->
<svg version="1.1" xmlns="http://www.w3.org/2000/svg" width="43" height="32" viewBox="0 0 43 32">
<title>gavel</title>
<path d="M4.089 36.053l17.067-17.067-2.489-2.524-1.28 1.262c-0.693 0.693-1.813 0.693-2.507 0l-1.262-1.262c-0.693-0.693-0.693-1.813 0-2.507l10.062-10.062c0.693-0.693 1.813-0.693 2.507 0l1.262 1.262c0.693 0.693 0.693 1.813 0 2.507l-1.262 1.227 2.524 2.542c0.693-0.693 1.813-0.693 2.507 0s0.693 1.831 0 2.524l2.507 2.507 1.262-1.262c0.693-0.693 1.831-0.693 2.524 0l1.244 1.262c0.693 0.693 0.693 1.831 0 2.524l-10.044 10.044c-0.693 0.693-1.831 0.693-2.524 0l-1.244-1.244c-0.711-0.693-0.711-1.831 0-2.524l1.244-1.262-2.507-2.507-17.084 17.084c-0.693 0.693-1.813 0.693-2.507 0s-0.693-1.831 0-2.524M35.556 33.778c1.956 0 3.556 1.6 3.556 3.556v1.778h-17.778v-1.778c0-1.956 1.6-3.556 3.556-3.556h10.667z"></path>
</svg>
