<!-- Generated by IcoMoon.io -->
<svg version="1.1" xmlns="http://www.w3.org/2000/svg" width="43" height="32" viewBox="0 0 43 32">
<title>gender-transgender</title>
<path d="M34.809 5.333h-8.142v-3.556h14.222v14.222h-3.556v-8.16l-8.587 8.587c0.924 1.404 1.476 3.129 1.476 4.907 0 4.302-3.058 7.893-7.111 8.711v3.733h3.556v3.556h-3.556v3.556h-3.556v-3.556h-3.556v-3.556h3.556v-3.733c-4.053-0.818-7.111-4.409-7.111-8.711 0-1.778 0.533-3.484 1.458-4.871l-2.098-2.116-2.489 2.471-2.507-2.524 2.489-2.471-3.964-3.964v6.364h-3.556v-12.444h12.444v3.556h-6.382l3.964 3.982 2.56-2.542 2.524 2.524-2.56 2.542 2.080 2.098c1.369-0.942 3.147-1.493 4.924-1.493s3.484 0.533 4.889 1.476l8.587-8.587M21.333 16c-2.951 0-5.333 2.382-5.333 5.333s2.382 5.333 5.333 5.333 5.333-2.382 5.333-5.333-2.382-5.333-5.333-5.333z"></path>
</svg>
