<!-- Generated by IcoMoon.io -->
<svg version="1.1" xmlns="http://www.w3.org/2000/svg" width="43" height="32" viewBox="0 0 43 32">
<title>gender-male</title>
<path d="M16 16c2.293 0 4.444 0.729 6.169 1.973l9.084-9.084h-8.142v-3.556h14.222v14.222h-3.556v-8.16l-9.084 9.049c1.244 1.778 1.973 3.911 1.973 6.222 0 5.884-4.782 10.667-10.667 10.667s-10.667-4.782-10.667-10.667 4.782-10.667 10.667-10.667M16 19.556c-3.929 0-7.111 3.182-7.111 7.111s3.182 7.111 7.111 7.111 7.111-3.182 7.111-7.111-3.182-7.111-7.111-7.111z"></path>
</svg>
