<!-- Generated by IcoMoon.io -->
<svg version="1.1" xmlns="http://www.w3.org/2000/svg" width="43" height="32" viewBox="0 0 43 32">
<title>gender-male-female</title>
<path d="M31.253 7.111h-6.364v-3.556h12.444v12.444h-3.556v-6.382l-6.809 6.809c0.924 1.404 1.476 3.129 1.476 4.907 0 4.302-3.058 7.893-7.111 8.711v3.733h3.556v3.556h-3.556v3.556h-3.556v-3.556h-3.556v-3.556h3.556v-3.733c-4.053-0.818-7.111-4.409-7.111-8.711 0-4.907 3.982-8.889 8.889-8.889 1.778 0 3.484 0.533 4.889 1.476l6.809-6.809M19.556 16c-2.951 0-5.333 2.382-5.333 5.333s2.382 5.333 5.333 5.333 5.333-2.382 5.333-5.333-2.382-5.333-5.333-5.333z"></path>
</svg>
