<!-- Generated by IcoMoon.io -->
<svg version="1.1" xmlns="http://www.w3.org/2000/svg" width="43" height="32" viewBox="0 0 43 32">
<title>gesture-tap</title>
<path d="M17.778 16c0-0.978 0.8-1.778 1.778-1.778s1.778 0.8 1.778 1.778v7.947l2.151 0.231 8.782 3.893c0.942 0.427 1.511 1.369 1.511 2.4v7.751c-0.053 1.458-1.209 2.613-2.667 2.667h-11.556c-0.676 0-1.316-0.267-1.778-0.764l-8.711-7.467 1.316-1.369c0.338-0.373 0.818-0.569 1.316-0.569h0.391l5.689 3.058v-17.778M19.556 8.889c3.929 0 7.111 3.182 7.111 7.111 0 2.667-1.422 4.924-3.556 6.151v-2.169c1.084-0.978 1.778-2.4 1.778-3.982 0-2.951-2.382-5.333-5.333-5.333s-5.333 2.382-5.333 5.333c0 1.582 0.693 3.004 1.778 3.982v2.169c-2.133-1.227-3.556-3.484-3.556-6.151 0-3.929 3.182-7.111 7.111-7.111z"></path>
</svg>
