<!-- Generated by IcoMoon.io -->
<svg version="1.1" xmlns="http://www.w3.org/2000/svg" width="43" height="32" viewBox="0 0 43 32">
<title>gesture-two-tap</title>
<path d="M33.778 26.916v11.307c-0.053 1.458-1.209 2.613-2.667 2.667h-11.556c-0.676 0-1.316-0.267-1.778-0.764l-8.711-7.467 1.316-1.369c0.338-0.373 0.818-0.569 1.316-0.569h0.391l5.689 3.058v-17.778c0-0.978 0.8-1.778 1.778-1.778s1.778 0.8 1.778 1.778v-3.556c0-0.978 0.8-1.778 1.778-1.778s1.778 0.8 1.778 1.778v8.889l7.378 3.271c0.907 0.409 1.511 1.316 1.511 2.311M26.667 18.578v-2.169c0.409-0.356 0.747-0.782 1.013-1.227 0.48-0.8 0.764-1.742 0.764-2.738 0-2.951-2.382-5.333-5.333-5.333-1.404 0-2.667 0.551-3.644 1.44l-0.249 0.249c-0.231 0.249-0.444 0.516-0.622 0.8s-0.338 0.604-0.462 0.924c-0.053 0.142-0.089 0.249-0.124 0.373-2.187 0.658-3.787 2.702-3.787 5.102 0 1.244 0.427 2.382 1.138 3.289 0.178 0.267 0.409 0.462 0.64 0.676v2.187c-2.133-1.227-3.556-3.484-3.556-6.151 0-2.88 1.724-5.333 4.178-6.489 1.156-2.453 3.609-4.178 6.489-4.178 3.929 0 7.111 3.182 7.111 7.111 0 2.667-1.422 4.924-3.556 6.151v-0.018z"></path>
</svg>
