<!-- Generated by IcoMoon.io -->
<svg version="1.1" xmlns="http://www.w3.org/2000/svg" width="43" height="32" viewBox="0 0 43 32">
<title>gesture-two-double-tap</title>
<path d="M33.778 26.916v11.307c-0.053 1.458-1.209 2.613-2.667 2.667h-11.556c-0.676 0-1.316-0.267-1.778-0.764l-8.711-7.467 1.316-1.369c0.338-0.373 0.818-0.569 1.316-0.569h0.391l5.689 3.058v-17.778c0-0.978 0.8-1.778 1.778-1.778s1.778 0.8 1.778 1.778v-3.556c0-0.978 0.8-1.778 1.778-1.778s1.778 0.8 1.778 1.778v8.889l7.378 3.271c0.907 0.409 1.511 1.316 1.511 2.311M23.111 5.333c3.929 0 7.111 3.182 7.111 7.111 0 2.667-1.422 4.924-3.556 6.151v-2.169c1.084-0.978 1.778-2.4 1.778-3.982 0-2.951-2.382-5.333-5.333-5.333-2.4 0-4.444 1.6-5.102 3.787-2.187 0.658-3.787 2.702-3.787 5.102 0 1.582 0.693 3.004 1.778 3.982v2.169c-2.133-1.227-3.556-3.484-3.556-6.151 0-2.88 1.724-5.333 4.178-6.489 1.156-2.453 3.609-4.178 6.489-4.178M23.111 1.778c5.884 0 10.667 4.782 10.667 10.667 0 3.662-1.849 6.898-4.658 8.818l-1.991-0.889c2.898-1.458 4.871-4.462 4.871-7.929 0-4.907-3.982-8.889-8.889-8.889-3.36 0-6.293 1.867-7.804 4.64-2.773 1.511-4.64 4.444-4.64 7.804 0 3.644 2.187 6.773 5.333 8.142v1.92c-4.142-1.476-7.111-5.422-7.111-10.062 0-3.858 2.044-7.236 5.12-9.102 1.867-3.076 5.244-5.12 9.102-5.12z"></path>
</svg>
