<!-- Generated by IcoMoon.io -->
<svg version="1.1" xmlns="http://www.w3.org/2000/svg" width="43" height="32" viewBox="0 0 43 32">
<title>gesture-swipe-down</title>
<path d="M17.778 16c0-0.978 0.8-1.778 1.778-1.778s1.778 0.8 1.778 1.778v7.947l2.151 0.231 8.782 3.893c0.942 0.427 1.511 1.369 1.511 2.4v7.751c-0.053 1.458-1.209 2.613-2.667 2.667h-11.556c-0.676 0-1.316-0.267-1.778-0.764l-8.711-7.467 1.316-1.369c0.338-0.373 0.818-0.569 1.316-0.569h0.391l5.689 3.058v-17.778M1.778 16l5.333 5.333 5.333-5.333h-3.556v-10.667h-3.556v10.667h-3.556z"></path>
</svg>
