<!-- Generated by IcoMoon.io -->
<svg version="1.1" xmlns="http://www.w3.org/2000/svg" width="43" height="32" viewBox="0 0 43 32">
<title>ghost</title>
<path d="M21.333 3.556c-8.836 0-16 7.164-16 16v19.556l5.333-5.333 5.333 5.333 5.333-5.333 5.333 5.333 5.333-5.333 5.333 5.333v-19.556c0-8.836-7.164-16-16-16M16 14.222c1.956 0 3.556 1.6 3.556 3.556s-1.6 3.556-3.556 3.556-3.556-1.6-3.556-3.556 1.6-3.556 3.556-3.556M26.667 14.222c1.956 0 3.556 1.6 3.556 3.556s-1.6 3.556-3.556 3.556-3.556-1.6-3.556-3.556 1.6-3.556 3.556-3.556z"></path>
</svg>
