<!-- Generated by IcoMoon.io -->
<svg version="1.1" xmlns="http://www.w3.org/2000/svg" width="43" height="32" viewBox="0 0 43 32">
<title>gift</title>
<path d="M39.111 21.333v14.222c0 1.956-1.6 3.556-3.556 3.556h-28.444c-1.956 0-3.556-1.6-3.556-3.556v-14.222c-0.978 0-1.778-0.8-1.778-1.778v-5.333c0-1.956 1.6-3.556 3.556-3.556h5.636c-0.196-0.551-0.302-1.156-0.302-1.778 0-2.951 2.382-5.333 5.333-5.333 1.778 0 3.342 0.889 4.32 2.204v-0.018l1.013 1.369 1.013-1.369v0.018c0.978-1.316 2.542-2.204 4.32-2.204 2.951 0 5.333 2.382 5.333 5.333 0 0.622-0.107 1.227-0.302 1.778h5.636c1.956 0 3.556 1.6 3.556 3.556v5.333c0 0.978-0.8 1.778-1.778 1.778M7.111 35.556h12.444v-14.222h-12.444v14.222M35.556 35.556v-14.222h-12.444v14.222h12.444M16 7.111c-0.978 0-1.778 0.8-1.778 1.778s0.8 1.778 1.778 1.778 1.778-0.8 1.778-1.778-0.8-1.778-1.778-1.778M26.667 7.111c-0.978 0-1.778 0.8-1.778 1.778s0.8 1.778 1.778 1.778 1.778-0.8 1.778-1.778-0.8-1.778-1.778-1.778M5.333 14.222v3.556h14.222v-3.556h-14.222M23.111 14.222v3.556h14.222v-3.556h-14.222z"></path>
</svg>
