<!-- Generated by IcoMoon.io -->
<svg version="1.1" xmlns="http://www.w3.org/2000/svg" width="43" height="32" viewBox="0 0 43 32">
<title>git</title>
<path d="M4.622 18.827l10.276-10.293 3.004 3.022c-0.427 1.511 0.267 3.164 1.653 3.964v9.849c-1.067 0.604-1.778 1.76-1.778 3.076 0 1.956 1.6 3.556 3.556 3.556s3.556-1.6 3.556-3.556c0-1.316-0.711-2.471-1.778-3.076v-8.64l3.68 3.716c-0.124 0.267-0.124 0.569-0.124 0.889 0 1.956 1.6 3.556 3.556 3.556s3.556-1.6 3.556-3.556-1.6-3.556-3.556-3.556c-0.32 0-0.622 0-0.889 0.124l-4.569-4.569c0.462-1.653-0.391-3.467-2.044-4.16-0.764-0.284-1.564-0.356-2.276-0.16l-3.022-3.004 1.404-1.387c1.387-1.404 3.627-1.404 5.013 0l14.204 14.204c1.404 1.387 1.404 3.627 0 5.013l-14.204 14.204c-1.387 1.404-3.627 1.404-5.013 0l-14.204-14.204c-1.404-1.387-1.404-3.627 0-5.013z"></path>
</svg>
