<!-- Generated by IcoMoon.io -->
<svg version="1.1" xmlns="http://www.w3.org/2000/svg" width="43" height="32" viewBox="0 0 43 32">
<title>github-box</title>
<path d="M8.889 5.333h24.889c1.956 0 3.556 1.6 3.556 3.556v24.889c0 1.956-1.6 3.556-3.556 3.556h-7.893c-0.569-0.124-0.587-1.209-0.587-1.582l0.018-4.391c0-1.493-0.516-2.471-1.084-2.969 3.573-0.391 7.307-1.724 7.307-7.893 0-1.742-0.622-3.182-1.636-4.302 0.16-0.391 0.711-2.027-0.16-4.231 0 0-1.351-0.409-4.409 1.653-1.28-0.356-2.631-0.533-4-0.551-1.351 0.018-2.738 0.196-4 0.551-3.058-2.062-4.409-1.653-4.409-1.653-0.871 2.204-0.32 3.84-0.16 4.231-1.013 1.12-1.636 2.56-1.636 4.302 0 6.169 3.733 7.502 7.289 7.947-0.462 0.356-0.871 1.067-1.013 2.098-0.924 0.409-3.236 1.12-4.658-1.333 0 0-0.853-1.529-2.453-1.653 0 0-1.564 0-0.107 0.978 0 0 1.049 0.498 1.778 2.347 0 0 0.924 3.111 5.387 2.151l0.018 2.72c0 0.373-0.036 1.458-0.604 1.582h-7.876c-1.956 0-3.556-1.6-3.556-3.556v-24.889c0-1.956 1.6-3.556 3.556-3.556z"></path>
</svg>
