<!-- Generated by IcoMoon.io -->
<svg version="1.1" xmlns="http://www.w3.org/2000/svg" width="43" height="32" viewBox="0 0 43 32">
<title>github-circle</title>
<path d="M21.333 3.556c-9.813 0-17.778 7.964-17.778 17.778 0 7.858 5.102 14.524 12.16 16.889 0.889 0.142 1.173-0.409 1.173-0.889v-3.004c-4.924 1.067-5.973-2.382-5.973-2.382-0.818-2.062-1.973-2.613-1.973-2.613-1.618-1.102 0.124-1.067 0.124-1.067 1.778 0.124 2.72 1.831 2.72 1.831 1.547 2.702 4.16 1.902 5.173 1.476 0.16-1.156 0.622-1.938 1.12-2.382-3.947-0.444-8.089-1.973-8.089-8.747 0-1.973 0.676-3.556 1.831-4.818-0.178-0.444-0.8-2.293 0.178-4.693 0 0 1.493-0.48 4.889 1.813 1.404-0.391 2.933-0.587 4.444-0.587s3.040 0.196 4.444 0.587c3.396-2.293 4.889-1.813 4.889-1.813 0.978 2.4 0.356 4.249 0.178 4.693 1.156 1.262 1.831 2.844 1.831 4.818 0 6.791-4.16 8.284-8.124 8.729 0.64 0.551 1.227 1.636 1.227 3.289v4.871c0 0.48 0.284 1.049 1.191 0.889 7.058-2.382 12.142-9.031 12.142-16.889 0-9.813-7.964-17.778-17.778-17.778z"></path>
</svg>
