<!-- Generated by IcoMoon.io -->
<svg version="1.1" xmlns="http://www.w3.org/2000/svg" width="43" height="32" viewBox="0 0 43 32">
<title>github-face</title>
<path d="M36.231 15.164c0.284-0.711 1.209-3.538-0.302-7.36 0 0-2.329-0.693-7.644 2.862-2.222-0.587-4.587-0.676-6.951-0.676-2.347 0-4.729 0.089-6.951 0.676-5.316-3.609-7.644-2.862-7.644-2.862-1.511 3.822-0.587 6.649-0.284 7.36-1.813 1.938-2.898 4.391-2.898 7.449 0 11.449 7.396 14.027 17.778 14.027 10.293 0 17.778-2.578 17.778-14.027 0-3.058-1.084-5.511-2.88-7.449M21.333 34.453c-7.324 0-13.28-0.338-13.28-7.449 0-1.689 0.836-3.289 2.258-4.587 2.382-2.187 6.453-1.031 11.022-1.031 4.604 0 8.622-1.156 11.022 1.031 1.422 1.298 2.311 2.88 2.311 4.587 0 7.093-5.991 7.449-13.333 7.449M15.751 23.324c-1.458 0-2.667 1.778-2.667 3.947 0 2.187 1.209 3.982 2.667 3.982 1.476 0 2.667-1.778 2.667-3.982 0-2.187-1.191-3.947-2.667-3.947M26.916 23.324c-1.476 0-2.667 1.76-2.667 3.947 0 2.204 1.191 3.982 2.667 3.982 1.458 0 2.667-1.778 2.667-3.982 0-2.187-1.138-3.947-2.667-3.947z"></path>
</svg>
