<!-- Generated by IcoMoon.io -->
<svg version="1.1" xmlns="http://www.w3.org/2000/svg" width="43" height="32" viewBox="0 0 43 32">
<title>glass-tulip</title>
<path d="M14.222 3.556h14.222c-0.587 1.191-1.191 2.364-0.747 5.333s1.938 7.698 1.191 10.204c-0.747 2.489-3.698 2.738-5.191 5.547-1.476 2.809-1.476 8.196-0.444 10.738 1.049 2.542 3.111 2.258 4.16 2.4 1.031 0.142 1.031 0.747 1.031 1.333h-14.222c0-0.587 0-1.191 1.031-1.333 1.049-0.142 3.111 0.142 4.16-2.4 1.031-2.542 1.031-7.929-0.444-10.738-1.493-2.809-4.444-3.058-5.191-5.547-0.747-2.507 0.747-7.236 1.191-10.204s-0.16-4.142-0.747-5.333M17.778 7.111c0 2.116-0.302 3.858-0.64 5.333h8.231c-0.249-1.476-0.48-3.218-0.48-5.333h-7.111z"></path>
</svg>
