<!-- Generated by IcoMoon.io -->
<svg version="1.1" xmlns="http://www.w3.org/2000/svg" width="43" height="32" viewBox="0 0 43 32">
<title>glasses</title>
<path d="M5.333 17.778c-0.427 0-0.8 0.16-1.049 0.444-0.249 0.267-0.356 0.658-0.302 1.084l0.889 5.316c0.142 1.156 1.173 2.044 2.24 2.044h5.333c1.138 0 2.418-0.996 2.667-2.098l1.884-5.671c0.071-0.231 0.018-0.569-0.107-0.782-0.196-0.213-0.498-0.338-0.889-0.338h-10.667M12.444 30.222h-5.333c-2.88 0-5.404-2.24-5.76-5.084l-0.889-5.316c-0.196-1.511 0.231-2.933 1.156-3.964s2.276-1.636 3.716-1.636h10.667c1.476 0 2.809 0.622 3.662 1.707 0.196 0.267 0.373 0.551 0.516 0.871 0.764-0.16 1.547-0.16 2.293 0 0.142-0.32 0.32-0.604 0.533-0.871 0.836-1.084 2.169-1.707 3.662-1.707h10.667c1.44 0 2.791 0.604 3.716 1.636 0.907 1.031 1.333 2.453 1.156 3.893l-0.907 5.458c-0.338 2.773-2.88 5.013-5.742 5.013h-5.333c-2.773 0-5.476-2.116-6.151-4.8l-1.6-4.818c-0.676-0.498-1.618-0.498-2.293 0l-1.636 4.942c-0.64 2.578-3.324 4.676-6.098 4.676M26.667 17.778c-0.391 0-0.693 0.124-0.889 0.338-0.142 0.213-0.178 0.551-0.089 0.907l1.796 5.422c0.32 1.227 1.6 2.222 2.738 2.222h5.333c1.049 0 2.098-0.889 2.222-1.973l0.907-5.458c0.053-0.356-0.053-0.747-0.302-1.013-0.249-0.284-0.622-0.444-1.049-0.444h-10.667z"></path>
</svg>
