<!-- Generated by IcoMoon.io -->
<svg version="1.1" xmlns="http://www.w3.org/2000/svg" width="43" height="32" viewBox="0 0 43 32">
<title>glass-flute</title>
<path d="M14.222 3.556h14.222c-0.587 5.333-1.191 10.667-2.222 13.92-1.031 3.271-2.524 4.444-3.253 7.556-0.747 3.111-0.747 8.16 0.284 10.524 1.049 2.364 3.111 2.080 4.16 2.222 1.031 0.142 1.031 0.747 1.031 1.333h-14.222c0-0.587 0-1.191 1.031-1.333 1.049-0.142 3.111 0.142 4.16-2.222 1.031-2.364 1.031-7.413 0.284-10.524-0.729-3.111-2.222-4.284-3.253-7.556-1.031-3.253-1.636-8.587-2.222-13.92M17.778 7.111c0.124 1.831 0.267 3.68 0.427 5.333h6.258c0.16-1.653 0.302-3.502 0.427-5.333h-7.111z"></path>
</svg>
