<!-- Generated by IcoMoon.io -->
<svg version="1.1" xmlns="http://www.w3.org/2000/svg" width="43" height="32" viewBox="0 0 43 32">
<title>gnome</title>
<path d="M32.747 3.556c-7.396 0-8.747 10.542-4.622 10.542 4.16 0 12.018-10.542 4.622-10.542M21.333 4.853c-0.142 0-0.267 0-0.391 0.018-4.16 0.533-2.702 7.787-0.498 7.911 2.169 0.142 4.516-7.929 0.889-7.929M14.098 7.716c-0.213 0-0.462 0.053-0.711 0.16-3.342 1.387-0.516 7.076 1.369 6.702 1.724-0.356 1.938-6.933-0.658-6.862M8.764 12.178c-0.284-0.018-0.604 0.089-0.924 0.32-2.684 1.849 0.889 6.311 2.471 5.618 1.369-0.604 0.498-5.867-1.547-5.938M23.627 15.591c-5.671 0.053-12.907 2.933-14.169 8.569-1.404 6.258 5.76 14.951 13.227 14.951 3.68 0 7.911-3.324 8.711-7.52 0.604-3.2-7.129-1.92-6.844 0.196 0.338 2.542-1.867 3.769-4.018 2.169-6.862-5.227 11.342-7.822 10.133-14.951-0.391-2.311-3.396-3.431-7.040-3.413z"></path>
</svg>
