<!-- Generated by IcoMoon.io -->
<svg version="1.1" xmlns="http://www.w3.org/2000/svg" width="43" height="32" viewBox="0 0 43 32">
<title>gondola</title>
<path d="M32 17.778h-8.889v-4.284l16.213-2.702-0.427-2.631-9.724 1.618c0.089-0.267 0.16-0.569 0.16-0.889 0-1.476-1.191-2.667-2.667-2.667s-2.667 1.191-2.667 2.667c0 0.622 0.231 1.209 0.604 1.653l-1.493 0.249v-1.902h-3.556v2.507l-1.049 0.16c0.089-0.267 0.16-0.569 0.16-0.889 0-1.476-1.191-2.667-2.667-2.667s-2.667 1.191-2.667 2.667c0 0.64 0.231 1.209 0.587 1.653l-10.578 1.778 0.427 2.631 15.787-2.631v3.68h-8.889c-1.973 0-3.556 1.6-3.556 3.556v10.667c0 1.956 1.6 3.556 3.556 3.556h21.333c1.956 0 3.556-1.6 3.556-3.556v-10.667c0-1.956-1.6-3.556-3.556-3.556M10.667 21.333h4v7.111h-4v-7.111M17.333 28.444v-7.111h8v7.111h-8M32 28.444h-4v-7.111h4v7.111z"></path>
</svg>
