<!-- Generated by IcoMoon.io -->
<svg version="1.1" xmlns="http://www.w3.org/2000/svg" width="43" height="32" viewBox="0 0 43 32">
<title>google-controller</title>
<path d="M14.169 28.444l-5.28 5.333c-0.587 0.533-1.369 0.889-2.222 0.889-1.724 0-3.111-1.387-3.111-3.111v-0.444l1.778-13.12c0.373-4.107 3.804-7.324 8-7.324h16c4.196 0 7.627 3.218 8 7.324l1.778 13.12v0.444c0 1.724-1.387 3.111-3.111 3.111-0.853 0-1.636-0.356-2.222-0.889l-5.28-5.333h-14.329M12.444 14.222v3.556h-3.556v1.778h3.556v3.556h1.778v-3.556h3.556v-1.778h-3.556v-3.556h-1.778M29.333 14.222c-0.729 0-1.333 0.604-1.333 1.333s0.604 1.333 1.333 1.333 1.333-0.604 1.333-1.333-0.604-1.333-1.333-1.333M26.222 17.333c-0.729 0-1.333 0.604-1.333 1.333s0.604 1.333 1.333 1.333 1.333-0.604 1.333-1.333-0.604-1.333-1.333-1.333M32.444 17.333c-0.729 0-1.333 0.604-1.333 1.333s0.604 1.333 1.333 1.333 1.333-0.604 1.333-1.333-0.604-1.333-1.333-1.333M29.333 20.444c-0.729 0-1.333 0.604-1.333 1.333s0.604 1.333 1.333 1.333 1.333-0.604 1.333-1.333-0.604-1.333-1.333-1.333z"></path>
</svg>
