<!-- Generated by IcoMoon.io -->
<svg version="1.1" xmlns="http://www.w3.org/2000/svg" width="43" height="32" viewBox="0 0 43 32">
<title>google</title>
<path d="M37.956 19.733h-16.302v4.853h11.573c-0.587 6.773-6.222 9.671-11.556 9.671-6.809 0-12.782-5.369-12.782-12.924 0-7.289 5.689-12.924 12.8-12.924 5.493 0 8.711 3.502 8.711 3.502l3.378-3.52s-4.338-4.836-12.267-4.836c-10.098 0-17.902 8.533-17.902 17.778 0 8.978 7.342 17.778 18.169 17.778 9.511 0 16.444-6.524 16.444-16.16 0-2.044-0.267-3.218-0.267-3.218z"></path>
</svg>
