<!-- Generated by IcoMoon.io -->
<svg version="1.1" xmlns="http://www.w3.org/2000/svg" width="43" height="32" viewBox="0 0 43 32">
<title>google-plus-box</title>
<path d="M35.556 3.556c1.956 0 3.556 1.6 3.556 3.556v28.444c0 1.956-1.6 3.556-3.556 3.556h-28.444c-1.956 0-3.556-1.6-3.556-3.556v-28.444c0-1.973 1.6-3.556 3.556-3.556h28.444M35.556 21.333h-3.556v-3.556h-1.778v3.556h-3.556v1.778h3.556v3.556h1.778v-3.556h3.556v-1.778M16 20.071v3.040h5.084c-0.267 1.262-1.529 3.804-5.084 3.804-3.040 0-5.458-2.542-5.458-5.582s2.418-5.582 5.458-5.582c1.778 0 2.916 0.764 3.556 1.387l2.418-2.276c-1.529-1.529-3.556-2.418-5.973-2.418-4.96 0-8.889 3.929-8.889 8.889s3.929 8.889 8.889 8.889c5.084 0 8.516-3.556 8.516-8.64 0-0.622 0-1.013-0.142-1.511h-8.373z"></path>
</svg>
