<!-- Generated by IcoMoon.io -->
<svg version="1.1" xmlns="http://www.w3.org/2000/svg" width="43" height="32" viewBox="0 0 43 32">
<title>google-chrome</title>
<path d="M21.333 35.556l6.151-10.667h-0.018c0.604-1.067 0.978-2.258 0.978-3.556 0-2.133-0.96-4.036-2.453-5.333h8.516c0.676 1.653 1.049 3.449 1.049 5.333 0 7.858-6.364 14.222-14.222 14.222M7.111 21.333c0-2.596 0.693-5.013 1.902-7.111l6.169 10.667h0.018c1.227 2.116 3.467 3.556 6.133 3.556 0.8 0 1.564-0.16 2.293-0.409l-4.267 7.36c-6.916-0.96-12.249-6.88-12.249-14.062M26.667 21.333c0 2.951-2.382 5.333-5.333 5.333s-5.333-2.382-5.333-5.333 2.382-5.333 5.333-5.333 5.333 2.382 5.333 5.333M21.333 7.111c5.262 0 9.849 2.862 12.302 7.111h-12.302c-3.449 0-6.311 2.453-6.969 5.707l-4.231-7.342c2.596-3.324 6.649-5.476 11.2-5.476M21.333 3.556c-9.813 0-17.778 7.964-17.778 17.778s7.964 17.778 17.778 17.778 17.778-7.964 17.778-17.778-7.964-17.778-17.778-17.778z"></path>
</svg>
