<!-- Generated by IcoMoon.io -->
<svg version="1.1" xmlns="http://www.w3.org/2000/svg" width="43" height="32" viewBox="0 0 43 32">
<title>google-pages</title>
<path d="M33.778 5.333h-10.667v8.889l7.111-1.778-1.778 7.111h8.889v-10.667c0-1.973-1.6-3.556-3.556-3.556M30.222 30.222l-7.111-1.778v8.889h10.667c1.956 0 3.556-1.6 3.556-3.556v-10.667h-8.889M14.222 23.111h-8.889v10.667c0 1.956 1.6 3.556 3.556 3.556h10.667v-8.889l-7.111 1.778M5.333 8.889v10.667h8.889l-1.778-7.111 7.111 1.778v-8.889h-10.667c-1.973 0-3.556 1.582-3.556 3.556z"></path>
</svg>
