<!-- Generated by IcoMoon.io -->
<svg version="1.1" xmlns="http://www.w3.org/2000/svg" width="43" height="32" viewBox="0 0 43 32">
<title>google-earth</title>
<path d="M22.044 13.44c-4.978-4.711-9.067-3.396-10.827-2.596 1.333-1.28 2.898-2.311 4.64-3.022 4.942-0.178 10.507 0.782 13.582 5.173 0 0 4.338 7.449 5.867 4.16 0.391 1.333 0.604 2.72 0.604 4.178 0 0.533-0.036 1.049-0.089 1.564-3.609-0.409-8.569-4.551-13.778-9.458M33.956 28.622c-1.671 0.658-3.733 1.778-7.040 1.778-3.342 0-6.276-1.333-9.92-2.489-3.307-1.049-4.551-2.667-6.827-2.667-1.173 0-1.76 1.173-2.080 2.151-0.853-1.849-1.333-3.893-1.333-6.062 0-1.44 0.213-2.809 0.604-4.124 2.24-2.809 5.671-4.551 10.578-0.747 0 0 11.076 8.284 17.404 8.836-0.32 1.173-0.8 2.258-1.387 3.324M21.333 35.911c-1.991 0-3.893-0.409-5.636-1.138-1.102-2.631-1.084-4.693 1.991-3.662 0 0 6.969 2.667 14.311 0.142-2.667 2.862-6.453 4.658-10.667 4.658M21.333 3.556c-9.813 0-17.778 7.964-17.778 17.778s7.964 17.778 17.778 17.778 17.778-7.964 17.778-17.778c0-9.831-8-17.778-17.778-17.778z"></path>
</svg>
