<!-- Generated by IcoMoon.io -->
<svg version="1.1" xmlns="http://www.w3.org/2000/svg" width="43" height="32" viewBox="0 0 43 32">
<title>google-plus</title>
<path d="M40.889 19.556h-3.556v-3.556h-3.556v3.556h-3.556v3.556h3.556v3.556h3.556v-3.556h3.556M14.222 19.556v4.267h7.111c-0.356 1.778-2.133 5.333-7.111 5.333-4.267 0-7.644-3.556-7.644-7.822s3.378-7.822 7.644-7.822c2.489 0 4.089 1.067 4.978 1.956l3.378-3.2c-2.133-2.133-4.978-3.378-8.356-3.378-6.933 0-12.444 5.511-12.444 12.444s5.511 12.444 12.444 12.444c7.111 0 11.911-4.978 11.911-12.089 0-0.889 0-1.422-0.178-2.133h-11.733z"></path>
</svg>
