<!-- Generated by IcoMoon.io -->
<svg version="1.1" xmlns="http://www.w3.org/2000/svg" width="43" height="32" viewBox="0 0 43 32">
<title>google-translate</title>
<path d="M5.333 1.778c-1.973 0-3.556 1.582-3.556 3.556v24.889c0 1.973 1.582 3.556 3.556 3.556h21.333l-10.667-32h-10.667M21.938 8.889l1.173 3.556h14.222v24.889h-15.324l1.156 3.556h14.169c1.973 0 3.556-1.582 3.556-3.556v-24.889c0-1.973-1.582-3.556-3.556-3.556h-15.396M12.551 10.507c1.956 0 3.609 0.711 4.836 1.938l-1.991 1.831c-0.516-0.516-1.404-1.102-2.844-1.102-2.471 0-4.444 2.027-4.444 4.498s1.973 4.551 4.444 4.551c2.88 0 3.911-2.080 4.124-3.111h-4.124v-2.436h6.791c0.089 0.409 0.107 0.693 0.107 1.209 0 4.124-2.773 7.004-6.898 7.004-4 0-7.218-3.218-7.218-7.218 0-4.018 3.218-7.164 7.218-7.164M28.444 17.778v1.778h-2.951l0.569 1.778h5.938c-0.48 1.084-0.658 2.080-2.116 3.787-0.711-0.836-1.28-1.564-1.44-2.009h-1.778c0.213 0.764 1.102 1.956 2.169 3.164-0.231 0.231-0.551 0.533-0.836 0.782l0.498 1.493c0.444-0.391 0.889-0.8 1.333-1.209 1.813 1.902 3.733 3.662 3.733 3.662l0.996-1.067s-1.902-1.867-3.609-3.716c1.12-1.244 2.116-2.756 2.827-4.889h1.778v-1.778h-5.333v-1.778h-1.778z"></path>
</svg>
