<!-- Generated by IcoMoon.io -->
<svg version="1.1" xmlns="http://www.w3.org/2000/svg" width="43" height="32" viewBox="0 0 43 32">
<title>google-keep</title>
<path d="M7.111 3.556h28.444c1.956 0 3.556 1.6 3.556 3.556v23.698l-8.302 8.302h-23.698c-1.956 0-3.556-1.6-3.556-3.556v-28.444c0-1.956 1.6-3.556 3.556-3.556M30.222 30.222v5.778l5.778-5.778h-5.778M17.778 33.778h7.111v-1.778h1.778v-8.889c2.151-1.618 3.556-4.196 3.556-7.111 0-4.907-3.982-8.889-8.889-8.889s-8.889 3.982-8.889 8.889c0 2.916 1.404 5.493 3.556 7.111v8.889h1.778v1.778M24.889 30.222h-7.111v-1.778h7.111v1.778M24.889 26.667h-7.111v-1.778h7.111v1.778M21.333 8.889c3.929 0 7.111 3.182 7.111 7.111 0 2.667-1.422 4.924-3.556 6.151v0.96h-7.111v-0.96c-2.133-1.227-3.556-3.484-3.556-6.151 0-3.929 3.182-7.111 7.111-7.111z"></path>
</svg>
