<!-- Generated by IcoMoon.io -->
<svg version="1.1" xmlns="http://www.w3.org/2000/svg" width="43" height="32" viewBox="0 0 43 32">
<title>google-controller-off</title>
<path d="M3.556 9.369l2.276-2.258 29.724 29.724-2.258 2.276-10.667-10.667h-8.462l-5.28 5.333c-0.587 0.533-1.369 0.889-2.222 0.889-1.724 0-3.111-1.387-3.111-3.111v-0.444l1.778-13.12c0.178-1.831 0.942-3.467 2.116-4.729l-3.893-3.893M8.889 17.778v1.778h3.556v3.556h1.778v-3.076l-2.258-2.258h-3.076M29.333 10.667c4.196 0 7.627 3.218 8 7.324l1.778 13.12v0.444c0 1.173-0.64 2.222-1.6 2.72l-23.609-23.609h15.431M29.333 14.222c-0.729 0-1.333 0.604-1.333 1.333s0.604 1.333 1.333 1.333 1.333-0.604 1.333-1.333-0.604-1.333-1.333-1.333M26.222 17.333c-0.729 0-1.333 0.604-1.333 1.333s0.604 1.333 1.333 1.333 1.333-0.604 1.333-1.333-0.604-1.333-1.333-1.333M32.444 17.333c-0.729 0-1.333 0.604-1.333 1.333s0.604 1.333 1.333 1.333 1.333-0.604 1.333-1.333-0.604-1.333-1.333-1.333M29.333 20.444c-0.729 0-1.333 0.604-1.333 1.333s0.604 1.333 1.333 1.333 1.333-0.604 1.333-1.333-0.604-1.333-1.333-1.333z"></path>
</svg>
