<!-- Generated by IcoMoon.io -->
<svg version="1.1" xmlns="http://www.w3.org/2000/svg" width="43" height="32" viewBox="0 0 43 32">
<title>google-maps</title>
<path d="M8.889 7.111c-1.956 0-3.556 1.6-3.556 3.556v18.293l14.542-14.542c-0.213-0.924-0.32-1.849-0.32-2.809 0-1.618 0.356-3.147 1.049-4.498h-11.716M32 37.333c1.956 0 3.556-1.6 3.556-3.556v-12.693c-1.351 2.027-3.004 4.178-4.818 6.471l-1.404 1.778-1.387-1.778c-2.364-2.933-4.444-5.653-5.92-8.16-0.604-1.031-1.12-2.044-1.529-3.076l-7.236 7.236 13.778 13.778h4.96M5.333 33.778c0 1.956 1.6 3.556 3.556 3.556h15.627l-12.516-12.516-6.667 6.667v2.293M29.333 26.667c4.64-5.991 8-10.489 8-14.987 0-4.48-3.556-8.124-8-8.124s-8 3.644-8 8.124c0 4.498 3.324 8.996 8 14.987M32.889 11.556c0 1.956-1.6 3.556-3.556 3.556s-3.556-1.6-3.556-3.556 1.6-3.556 3.556-3.556 3.556 1.6 3.556 3.556z"></path>
</svg>
