<!-- Generated by IcoMoon.io -->
<svg version="1.1" xmlns="http://www.w3.org/2000/svg" width="43" height="32" viewBox="0 0 43 32">
<title>google-circles-group</title>
<path d="M8.889 17.778c-1.956 0-3.556 1.6-3.556 3.556 0 1.973 1.6 3.556 3.556 3.556 1.973 0 3.556-1.582 3.556-3.556 0-1.956-1.6-3.556-3.556-3.556M8.889 28.444c-3.929 0-7.111-3.182-7.111-7.111s3.182-7.111 7.111-7.111 7.111 3.182 7.111 7.111-3.182 7.111-7.111 7.111M18.667 19.556h6.222v-5.333l7.111 7.111-7.111 7.111v-5.333h-6.222v-3.556M8.889 10.667c-0.8 0-1.582 0.089-2.329 0.249 3.449-5.493 9.582-9.138 16.551-9.138 10.809 0 19.556 8.747 19.556 19.556s-8.747 19.556-19.556 19.556c-6.969 0-13.102-3.644-16.551-9.138 0.747 0.16 1.529 0.249 2.329 0.249 1.422 0 2.773-0.284 4-0.782 2.596 2.684 6.204 4.338 10.222 4.338 7.858 0 14.222-6.364 14.222-14.222s-6.364-14.222-14.222-14.222c-4.018 0-7.627 1.653-10.222 4.338-1.227-0.498-2.578-0.782-4-0.782z"></path>
</svg>
