<!-- Generated by IcoMoon.io -->
<svg version="1.1" xmlns="http://www.w3.org/2000/svg" width="43" height="32" viewBox="0 0 43 32">
<title>google-physical-web</title>
<path d="M21.333 2.667c8.836 0 16 7.164 16 16 0 4.64-1.973 8.836-5.138 11.751l-1.884-1.884c2.667-2.436 4.356-5.956 4.356-9.867 0-7.36-5.973-13.333-13.333-13.333s-13.333 5.973-13.333 13.333c0 3.911 1.689 7.431 4.356 9.867l-1.884 1.884c-3.164-2.916-5.138-7.111-5.138-11.751 0-8.836 7.164-16 16-16M21.333 8c5.884 0 10.667 4.782 10.667 10.667 0 3.164-1.387 6.027-3.556 8l-1.92-1.92c1.724-1.458 2.809-3.644 2.809-6.080 0-4.444-3.556-8-8-8s-8 3.556-8 8c0 2.436 1.084 4.622 2.809 6.080l-1.92 1.92c-2.169-1.973-3.556-4.836-3.556-8 0-5.884 4.782-10.667 10.667-10.667M14.418 31.378l5.653-5.671c0.693-0.693 1.831-0.693 2.524 0l5.653 5.671c0.693 0.693 0.693 1.813 0 2.507l-5.653 5.653c-0.693 0.693-1.831 0.693-2.524 0l-5.653-5.653c-0.693-0.693-0.693-1.813 0-2.507z"></path>
</svg>
