<!-- Generated by IcoMoon.io -->
<svg version="1.1" xmlns="http://www.w3.org/2000/svg" width="43" height="32" viewBox="0 0 43 32">
<title>google-wallet</title>
<path d="M17.582 19.698c-0.231-2.080-0.889-4.107-1.991-5.884-0.48-0.853-0.551-1.902-0.249-2.702 0.142-0.444 0.356-0.8 0.711-1.173 0.373-0.373 0.764-0.587 1.138-0.729 0.373-0.16 0.587-0.213 1.138-0.213 0.622 0 1.227 0.196 1.724 0.516l0.782 0.729 0.196 0.284c1.973 3.271 3.022 7.004 3.022 10.809l-0.053 1.404c-0.213 3.36-1.244 6.596-2.987 9.493-0.569 0.96-1.6 1.547-2.72 1.547l-0.907-0.16-0.729-0.32c-0.907-0.533-1.422-1.458-1.547-2.418 0-0.569 0.071-1.156 0.338-1.707l0.142-0.231c1.369-2.276 2.098-4.889 2.098-7.609l-0.107-1.636M36.231 14.009c0.533 2.382 0.818 4.871 0.818 7.324 0 2.542-0.284 5.013-0.818 7.396l-0.48 1.867c-0.587 2.116-1.262 3.751-1.973 4.96-0.533 1.102-1.671 1.778-2.88 1.778-0.498 0-0.978-0.107-1.422-0.32-1.031-0.48-1.618-1.333-1.831-2.276l-0.089-0.764c0-0.729 0.302-1.351 0.32-1.404 1.671-3.52 2.507-7.271 2.507-11.236 0-3.876-0.836-7.662-2.524-11.236-0.8-1.653-0.089-3.644 1.564-4.444 0.462-0.213 0.942-0.32 1.44-0.32 1.28 0 2.471 0.747 3.004 1.902 1.031 2.169 1.831 4.444 2.364 6.773M28.658 16.889c0.249 1.458 0.391 2.951 0.391 4.444 0 3.556-0.693 6.969-2.027 10.169-0.16-2.684-0.8-5.262-1.849-7.609l0.107-1.262 0.053-1.369c0-3.698-0.96-7.307-2.809-10.471 2.364 1.707 4.462 3.804 6.133 6.098M7.111 18.667c-1.511-0.836-2.062-2.667-1.28-4.124 0.533-0.978 1.547-1.6 2.667-1.6 0.498 0 0.978 0.124 1.422 0.391 2.293 1.191 4.356 2.844 6.027 4.729l0.267 1.582 0.107 1.689c0 2.542-0.658 5.049-1.92 7.236-0.889-4.284-3.52-7.911-7.289-9.902z"></path>
</svg>
