<!-- Generated by IcoMoon.io -->
<svg version="1.1" xmlns="http://www.w3.org/2000/svg" width="43" height="32" viewBox="0 0 43 32">
<title>google-cardboard</title>
<path d="M36.871 10.667h-31.182c-1.156 0-2.133 1.013-2.133 2.258v18.596c0 1.244 0.978 2.258 2.187 2.258h8.48c0.96 0 1.778-0.569 2.062-1.404l2.471-6.169c0.427-1.031 1.422-1.76 2.578-1.76s2.151 0.729 2.578 1.76l2.471 6.169c0.338 0.836 1.102 1.404 1.973 1.404h8.516c1.262 0 2.24-1.013 2.24-2.258v-18.596c0-1.244-0.978-2.258-2.24-2.258M12.836 25.92c-2.169 0-3.947-1.831-3.947-4.071 0-2.293 1.778-4.071 3.947-4.071s3.929 1.778 3.929 4.071c0 2.24-1.76 4.071-3.929 4.071M29.831 25.92c-2.169 0-3.929-1.831-3.929-4.071s1.76-4.071 3.929-4.071 3.947 1.831 3.947 4.071-1.778 4.071-3.947 4.071z"></path>
</svg>
