<!-- Generated by IcoMoon.io -->
<svg version="1.1" xmlns="http://www.w3.org/2000/svg" width="43" height="32" viewBox="0 0 43 32">
<title>google-circles-extended</title>
<path d="M32 33.778c-1.973 0-3.556-1.6-3.556-3.556 0-1.973 1.582-3.556 3.556-3.556 1.956 0 3.556 1.6 3.556 3.556s-1.6 3.556-3.556 3.556M32 23.111c-3.929 0-7.111 3.182-7.111 7.111s3.182 7.111 7.111 7.111 7.111-3.182 7.111-7.111-3.182-7.111-7.111-7.111M21.333 19.733c-1.867 0-3.378 1.511-3.378 3.378s1.511 3.378 3.378 3.378c1.867 0 3.378-1.511 3.378-3.378s-1.511-3.378-3.378-3.378M10.667 33.778c-1.973 0-3.556-1.6-3.556-3.556 0-1.973 1.582-3.556 3.556-3.556 1.956 0 3.556 1.6 3.556 3.556s-1.6 3.556-3.556 3.556M10.667 23.111c-3.929 0-7.111 3.182-7.111 7.111s3.182 7.111 7.111 7.111 7.111-3.182 7.111-7.111-3.182-7.111-7.111-7.111M21.333 7.111c1.956 0 3.556 1.6 3.556 3.556s-1.6 3.556-3.556 3.556c-1.973 0-3.556-1.6-3.556-3.556 0-1.973 1.582-3.556 3.556-3.556M21.333 17.778c3.929 0 7.111-3.182 7.111-7.111s-3.182-7.111-7.111-7.111-7.111 3.182-7.111 7.111 3.182 7.111 7.111 7.111z"></path>
</svg>
