<!-- Generated by IcoMoon.io -->
<svg version="1.1" xmlns="http://www.w3.org/2000/svg" width="43" height="32" viewBox="0 0 43 32">
<title>google-nearby</title>
<path d="M7.467 5.333c-1.12 0-2.044 0.889-2.133 1.973v24.338c0 1.173 0.96 2.133 2.133 2.133 0.196 0 0.391 0 0.587-0.089 7.058-3.751 14.276-8.124 21.28-12.213 0.782-0.338 1.262-1.102 1.262-1.92 0-0.764-0.373-1.476-1.084-1.849-7.289-4.267-14.916-8.693-21.458-12.284-0.196-0.089-0.391-0.089-0.587-0.089M35.324 10.667c-0.196 0-0.391 0-0.587 0.089-1.671 0.924-3.573 2.009-5.404 3.022 0.622 0.356 1.227 0.693 1.778 1.031 1.778 0.978 2.791 2.791 2.791 4.747 0 2.098-1.227 4.036-3.111 4.924-2.489 1.458-7.822 4.604-10.667 6.258 4.889 2.844 9.778 5.707 14.613 8.284 0.196 0.089 0.391 0.089 0.587 0.089 1.191 0 2.133-0.96 2.133-2.133 0-8.107 0.018-16.249 0-24.338-0.124-1.084-1.013-1.973-2.133-1.973z"></path>
</svg>
