<!-- Generated by IcoMoon.io -->
<svg version="1.1" xmlns="http://www.w3.org/2000/svg" width="43" height="32" viewBox="0 0 43 32">
<title>google-circles</title>
<path d="M29.618 26.667h0.604c1.778 0 3.556-0.356 5.102-0.96-1.244 7.591-7.822 13.404-15.769 13.404-8.889 0-16-7.164-16-16 0-7.947 5.813-14.524 13.404-15.769-0.604 1.547-0.96 3.324-0.96 5.102v0.604c-4.124 1.458-7.111 5.404-7.111 10.062 0 5.884 4.782 10.667 10.667 10.667 4.658 0 8.604-2.987 10.062-7.111M30.222 17.778c2.951 0 5.333-2.382 5.333-5.333s-2.382-5.333-5.333-5.333-5.333 2.382-5.333 5.333 2.382 5.333 5.333 5.333M30.222 1.778c5.884 0 10.667 4.782 10.667 10.667s-4.782 10.667-10.667 10.667-10.667-4.782-10.667-10.667c0-5.902 4.782-10.667 10.667-10.667z"></path>
</svg>
