<!-- Generated by IcoMoon.io -->
<svg version="1.1" xmlns="http://www.w3.org/2000/svg" width="43" height="32" viewBox="0 0 43 32">
<title>grease-pencil</title>
<path d="M33.102 2.667c-0.907 0-1.813 0.338-2.507 1.049l-11.484 11.484 7.467 7.449 11.484-11.467c1.404-1.404 1.404-3.644 0-5.031l-2.436-2.436c-0.693-0.711-1.6-1.049-2.524-1.049M17.422 16.889l-11.68 11.68 1.244 1.244c-0.942 0.836-1.849 1.796-2.756 2.702-1.387 1.404-1.387 3.644 0 5.031s3.627 1.387 5.031 0c0.907-0.871 1.849-1.849 2.702-2.738l1.244 1.227 11.68-11.68"></path>
</svg>
