<!-- Generated by IcoMoon.io -->
<svg version="1.1" xmlns="http://www.w3.org/2000/svg" width="43" height="32" viewBox="0 0 43 32">
<title>grid</title>
<path d="M17.778 7.111v7.111h7.111v-7.111h-7.111M28.444 7.111v7.111h7.111v-7.111h-7.111M28.444 17.778v7.111h7.111v-7.111h-7.111M28.444 28.444v7.111h7.111v-7.111h-7.111M24.889 35.556v-7.111h-7.111v7.111h7.111M14.222 35.556v-7.111h-7.111v7.111h7.111M14.222 24.889v-7.111h-7.111v7.111h7.111M14.222 14.222v-7.111h-7.111v7.111h7.111M17.778 24.889h7.111v-7.111h-7.111v7.111M7.111 3.556h28.444c1.956 0 3.556 1.6 3.556 3.556v28.444c0 1.956-1.6 3.556-3.556 3.556h-28.444c-1.92 0-3.556-1.6-3.556-3.556v-28.444c0-1.956 1.6-3.556 3.556-3.556z"></path>
</svg>
