<!-- Generated by IcoMoon.io -->
<svg version="1.1" xmlns="http://www.w3.org/2000/svg" width="43" height="32" viewBox="0 0 43 32">
<title>grid-off</title>
<path d="M0 4.924l2.276-2.258 37.724 37.724-2.258 2.276-3.556-3.556h-27.076c-1.92 0-3.556-1.6-3.556-3.556v-27.076l-3.556-3.556M17.778 7.111v6.542l-3.556-3.556v-2.987h-2.987l-3.556-3.556h27.876c1.956 0 3.556 1.6 3.556 3.556v27.911l-3.556-3.556v-3.022h-2.987l-3.556-3.556h6.542v-7.111h-7.111v6.542l-3.556-3.556v-2.987h-2.987l-3.556-3.556h6.542v-7.111h-7.111M28.444 7.111v7.111h7.111v-7.111h-7.111M28.444 35.556h2.187l-2.187-2.187v2.187M7.111 14.222h2.187l-2.187-2.187v2.187M17.778 24.889h2.187l-2.187-2.187v2.187M24.889 35.556v-5.742l-1.369-1.369h-5.742v7.111h7.111M14.222 35.556v-7.111h-7.111v7.111h7.111M14.222 24.889v-5.742l-1.369-1.369h-5.742v7.111h7.111z"></path>
</svg>
