<!-- Generated by IcoMoon.io -->
<svg version="1.1" xmlns="http://www.w3.org/2000/svg" width="43" height="32" viewBox="0 0 43 32">
<title>group</title>
<path d="M14.222 14.222v7.111h8.889v-7.111h-8.889M1.778 1.778h7.111v1.778h24.889v-1.778h7.111v7.111h-1.778v24.889h1.778v7.111h-7.111v-1.778h-24.889v1.778h-7.111v-7.111h1.778v-24.889h-1.778v-7.111M8.889 33.778v1.778h24.889v-1.778h1.778v-24.889h-1.778v-1.778h-24.889v1.778h-1.778v24.889h1.778M10.667 10.667h16v7.111h5.333v14.222h-17.778v-7.111h-3.556v-14.222M26.667 24.889h-8.889v3.556h10.667v-7.111h-1.778v3.556z"></path>
</svg>
