<!-- Generated by IcoMoon.io -->
<svg version="1.1" xmlns="http://www.w3.org/2000/svg" width="43" height="32" viewBox="0 0 43 32">
<title>guitar-electric</title>
<path d="M34.827 5.333h4.284v3.556h-2.827l-9.404 9.404-2.507-2.471 10.453-10.489M21.333 16c0.462 0 0.889 0.178 1.262 0.533l3.556 3.556c0.32 0.356 0.516 0.764 0.516 1.244l-0.178 0.711-7.111 14.222c-0.338 0.622-0.96 0.942-1.6 0.942-0.622 0-1.262-0.32-1.582-0.942l-3.307-6.578-6.578-3.2c-0.658-0.356-0.978-0.978-0.978-1.6s0.32-1.244 0.978-1.6l14.222-7.111c0.249-0.178 0.516-0.178 0.8-0.178M16.622 21.013l-1.244 1.209 5.067 5.067 1.209-1.244-5.031-5.031M14.116 23.52l-1.262 1.262 5.031 5.031 1.262-1.262-5.031-5.031z"></path>
</svg>
