<!-- Generated by IcoMoon.io -->
<svg version="1.1" xmlns="http://www.w3.org/2000/svg" width="43" height="32" viewBox="0 0 43 32">
<title>guitar-acoustic</title>
<path d="M34.827 5.333h4.284v3.556h-2.827l-7.538 7.538c-0.658-0.996-1.511-1.849-2.507-2.507l8.587-8.587M21.333 14.222c3.929 0 7.111 3.182 7.111 7.111 0 3.236-2.187 6.080-5.333 6.88v0.231c0 4.907-3.982 8.889-8.889 8.889s-8.889-3.982-8.889-8.889 3.982-8.889 8.889-8.889h0.231c0.8-3.129 3.627-5.333 6.88-5.333M21.333 18.667c-1.476 0-2.667 1.191-2.667 2.667s1.191 2.667 2.667 2.667 2.667-1.191 2.667-2.667-1.191-2.667-2.667-2.667M12.338 25.316l-1.262 1.244 5.031 5.031 1.262-1.262-5.031-5.013z"></path>
</svg>
