<!-- Generated by IcoMoon.io -->
<svg version="1.1" xmlns="http://www.w3.org/2000/svg" width="43" height="32" viewBox="0 0 43 32">
<title>guitar-pick</title>
<path d="M33.778 7.289c-1.6-1.422-3.556-2.311-5.689-2.844-0.533-0.178-3.911-0.889-6.4-0.889h-0.711c-2.489 0-6.044 0.711-6.578 0.889-1.956 0.533-3.911 1.422-5.511 2.844-3.556 3.2-3.556 8.178-1.778 12.267 1.778 4.444 3.733 8.356 6.4 12.267 2.133 3.022 4.444 7.289 7.822 7.289s5.689-4.267 8-7.289c2.667-3.733 4.622-7.822 6.4-12.267 1.6-4.089 1.6-9.067-1.956-12.267z"></path>
</svg>
