<!-- Generated by IcoMoon.io -->
<svg version="1.1" xmlns="http://www.w3.org/2000/svg" width="43" height="32" viewBox="0 0 43 32">
<title>hamburger</title>
<path d="M3.556 28.444h35.556v3.556c0 1.973-1.582 3.556-3.556 3.556h-28.444c-1.973 0-3.556-1.582-3.556-3.556v-3.556M10.667 7.111h21.333c3.947 0 7.111 3.164 7.111 7.111v3.556h-35.556v-3.556c0-3.947 3.164-7.111 7.111-7.111M7.111 19.556h19.556l3.556 3.556 3.556-3.556h1.778c1.973 0 3.556 1.582 3.556 3.556s-1.582 3.556-3.556 3.556h-28.444c-1.973 0-3.556-1.582-3.556-3.556s1.582-3.556 3.556-3.556z"></path>
</svg>
