<!-- Generated by IcoMoon.io -->
<svg version="1.1" xmlns="http://www.w3.org/2000/svg" width="43" height="32" viewBox="0 0 43 32">
<title>hand-pointing-right</title>
<path d="M37.333 16c0.978 0 1.778 0.8 1.778 1.778s-0.8 1.778-1.778 1.778h-7.947l-0.231 2.151-3.911 8.782c-0.356 0.889-1.298 1.511-2.382 1.511h-7.751c-1.422 0-2.667-1.298-2.667-2.667v-11.556c0-0.693 0.284-1.316 0.764-1.778l7.467-8.711 1.369 1.316c0.356 0.338 0.569 0.8 0.569 1.316l-0.053 0.391-3.004 5.689h17.778M3.556 32v-14.222h5.333v14.222h-5.333z"></path>
</svg>
