<!-- Generated by IcoMoon.io -->
<svg version="1.1" xmlns="http://www.w3.org/2000/svg" width="43" height="32" viewBox="0 0 43 32">
<title>hanger</title>
<path d="M36.907 29.049h-0.018c1.333 0.764 2.222 2.204 2.222 3.84 0 2.453-1.991 4.444-4.444 4.444h-26.667c-2.453 0-4.444-1.991-4.444-4.444 0-1.636 0.889-3.076 2.222-3.84h-0.018l13.796-7.964s0-1.529 1.778-3.307c1.778 0 3.556-1.6 3.556-3.556s-1.6-3.556-3.556-3.556-3.556 1.6-3.556 3.556h-3.556c0-3.929 3.182-7.111 7.111-7.111s7.111 3.182 7.111 7.111c0 3.307-2.258 6.080-5.333 6.88l13.796 7.947M8 33.778h26.667c0.302 0 0.604-0.16 0.764-0.444 0.249-0.444 0.124-0.96-0.32-1.209l-13.778-7.964-13.778 7.964c-0.444 0.249-0.569 0.764-0.32 1.209 0.16 0.284 0.462 0.444 0.764 0.444z"></path>
</svg>
