<!-- Generated by IcoMoon.io -->
<svg version="1.1" xmlns="http://www.w3.org/2000/svg" width="43" height="32" viewBox="0 0 43 32">
<title>harddisk</title>
<path d="M10.667 3.556h21.333c1.956 0 3.556 1.6 3.556 3.556v28.444c0 1.956-1.6 3.556-3.556 3.556h-21.333c-1.956 0-3.556-1.6-3.556-3.556v-28.444c0-1.956 1.6-3.556 3.556-3.556M21.333 7.111c-5.884 0-10.667 4.782-10.667 10.667s4.782 10.667 10.844 10.667l-1.564-3.964c-0.48-0.853-0.196-1.938 0.658-2.436l1.529-0.889c0.853-0.48 1.938-0.196 2.436 0.658l3.413 4.302c2.453-1.956 4.018-4.96 4.018-8.338 0-5.884-4.782-10.667-10.667-10.667M21.333 16c0.978 0 1.778 0.8 1.778 1.778s-0.8 1.778-1.778 1.778-1.778-0.8-1.778-1.778 0.8-1.778 1.778-1.778M12.444 32c-0.978 0-1.778 0.8-1.778 1.778s0.8 1.778 1.778 1.778 1.778-0.8 1.778-1.778-0.8-1.778-1.778-1.778M21.493 23.591l4.427 11.218 4.604-2.667-7.502-9.44-1.529 0.889z"></path>
</svg>
