<!-- Generated by IcoMoon.io -->
<svg version="1.1" xmlns="http://www.w3.org/2000/svg" width="43" height="32" viewBox="0 0 43 32">
<title>headset-off</title>
<path d="M40 8.48l-3.68 3.68c0.658 1.742 1.013 3.644 1.013 5.618v17.778c0 2.951-2.382 5.333-5.333 5.333h-10.667v-3.556h12.444v-1.778h-7.111v-13.742l-10.667 10.667v3.076h-3.076l-4.444 4.444-2.258-2.276 31.502-31.502 2.276 2.258M21.333 1.778c4.498 0 8.569 1.849 11.467 4.836l-2.507 2.524c-2.258-2.347-5.404-3.804-8.96-3.804-6.88 0-12.444 5.564-12.444 12.444v3.556h7.111v2.098l-9.778 9.76c-0.551-0.853-0.889-1.867-0.889-2.969v-12.444c0-8.836 7.164-16 16-16M33.778 21.333v-3.556c0-0.96-0.107-1.884-0.302-2.773l-6.329 6.329h6.631z"></path>
</svg>
