<!-- Generated by IcoMoon.io -->
<svg version="1.1" xmlns="http://www.w3.org/2000/svg" width="43" height="32" viewBox="0 0 43 32">
<title>headset-dock</title>
<path d="M3.556 32h12.444v-21.102c-3.076 0.782-5.333 3.573-5.333 6.88v1.778h3.556v10.667h-3.556c-1.956 0-3.556-1.6-3.556-3.556v-8.889c0-5.884 4.782-10.667 10.667-10.667h1.778c5.884 0 10.667 4.782 10.667 10.667v3.556h1.778v-5.333h3.556v5.333c0 1.956-1.6 3.556-3.556 3.556h-1.778v1.778c0 1.956-1.6 3.556-3.556 3.556h-3.556v-10.667h3.556v-1.778c0-3.307-2.258-6.098-5.333-6.88v21.102h17.778v3.556h-35.556v-3.556z"></path>
</svg>
