<!-- Generated by IcoMoon.io -->
<svg version="1.1" xmlns="http://www.w3.org/2000/svg" width="43" height="32" viewBox="0 0 43 32">
<title>headphones-settings</title>
<path d="M21.333 1.778c8.836 0 16 7.164 16 16v12.444c0 2.951-2.382 5.333-5.333 5.333h-5.333v-14.222h7.111v-3.556c0-6.88-5.564-12.444-12.444-12.444s-12.444 5.564-12.444 12.444v3.556h7.111v14.222h-5.333c-2.951 0-5.333-2.382-5.333-5.333v-12.444c0-8.836 7.164-16 16-16M26.667 42.667v-3.556h3.556v3.556h-3.556M19.556 42.667v-3.556h3.556v3.556h-3.556M12.444 42.667v-3.556h3.556v3.556h-3.556z"></path>
</svg>
