<!-- Generated by IcoMoon.io -->
<svg version="1.1" xmlns="http://www.w3.org/2000/svg" width="43" height="32" viewBox="0 0 43 32">
<title>headphones-box</title>
<path d="M12.8 32c-1.173 0-2.133-0.96-2.133-2.133v-8.533c0-5.884 4.782-10.667 10.667-10.667s10.667 4.782 10.667 10.667v8.533c0 1.173-0.96 2.133-2.133 2.133h-4.978v-7.111h3.556v-3.556c0-3.929-3.182-7.111-7.111-7.111s-7.111 3.182-7.111 7.111v3.556h3.556v7.111M33.778 5.333h-24.889c-1.973 0-3.556 1.582-3.556 3.556v24.889c0 1.956 1.6 3.556 3.556 3.556h24.889c1.956 0 3.556-1.6 3.556-3.556v-24.889c0-1.973-1.6-3.556-3.556-3.556z"></path>
</svg>
