<!-- Generated by IcoMoon.io -->
<svg version="1.1" xmlns="http://www.w3.org/2000/svg" width="43" height="32" viewBox="0 0 43 32">
<title>heart-pulse</title>
<path d="M13.333 7.111c-5.404 0-9.778 4.373-9.778 9.778 0 0.889 0.16 1.778 0.391 2.667h7.253l2.258-5.991c0.533-1.422 2.631-1.564 3.307 0l3.68 9.547 1.049-2.524c0.231-0.587 0.853-1.031 1.618-1.031h15.609c0.231-0.889 0.391-1.778 0.391-2.667 0-5.404-4.373-9.778-9.778-9.778-3.307 0-6.222 1.653-8 4.16-1.778-2.507-4.693-4.16-8-4.16M5.333 22.222c-0.978 0-1.778 0.8-1.778 1.778s0.8 1.778 1.778 1.778h4.338l9.884 9.778c1.778 1.6 1.778 1.6 3.556 0l9.884-9.778h4.338c0.978 0 1.778-0.8 1.778-1.778s-0.8-1.778-1.778-1.778h-13.511l-1.653 4.089c-0.711 1.796-2.756 1.547-3.413 0.053l-3.644-9.476-1.707 4.142c-0.267 0.676-0.871 1.191-1.671 1.191h-6.4z"></path>
</svg>
