<!-- Generated by IcoMoon.io -->
<svg version="1.1" xmlns="http://www.w3.org/2000/svg" width="43" height="32" viewBox="0 0 43 32">
<title>heart-box</title>
<path d="M8.889 5.333h24.889c1.956 0 3.556 1.6 3.556 3.556v24.889c0 1.956-1.6 3.556-3.556 3.556h-24.889c-1.956 0-3.556-1.6-3.556-3.556v-24.889c0-1.956 1.6-3.556 3.556-3.556M21.333 30.222l1.28-1.173c4.587-4.16 7.609-6.898 7.609-10.258 0-2.738-2.151-4.889-4.889-4.889-1.547 0-3.022 0.729-4 1.867-0.978-1.138-2.453-1.867-4-1.867-2.738 0-4.889 2.151-4.889 4.889 0 3.36 3.022 6.098 7.609 10.258l1.28 1.173z"></path>
</svg>
