<!-- Generated by IcoMoon.io -->
<svg version="1.1" xmlns="http://www.w3.org/2000/svg" width="43" height="32" viewBox="0 0 43 32">
<title>heart-outline</title>
<path d="M21.511 32.978l-0.178 0.178-0.196-0.178c-8.444-7.662-14.027-12.729-14.027-17.867 0-3.556 2.667-6.222 6.222-6.222 2.738 0 5.404 1.778 6.347 4.196h3.307c0.942-2.418 3.609-4.196 6.347-4.196 3.556 0 6.222 2.667 6.222 6.222 0 5.138-5.582 10.204-14.044 17.867M29.333 5.333c-3.093 0-6.062 1.44-8 3.698-1.938-2.258-4.907-3.698-8-3.698-5.476 0-9.778 4.284-9.778 9.778 0 6.702 6.044 12.196 15.2 20.498l2.578 2.347 2.578-2.347c9.156-8.302 15.2-13.796 15.2-20.498 0-5.493-4.302-9.778-9.778-9.778z"></path>
</svg>
