<!-- Generated by IcoMoon.io -->
<svg version="1.1" xmlns="http://www.w3.org/2000/svg" width="43" height="32" viewBox="0 0 43 32">
<title>heart-half-full</title>
<path d="M29.333 8.889c-2.667 0-5.191 1.618-6.222 3.911v18.738c7.556-6.88 12.444-11.627 12.444-16.427 0-3.556-2.667-6.222-6.222-6.222M29.333 5.333c5.476 0 9.778 4.284 9.778 9.778 0 6.702-6.044 12.196-15.2 20.498l-2.578 2.347-2.578-2.347c-9.156-8.302-15.2-13.796-15.2-20.498 0-5.493 4.302-9.778 9.778-9.778 3.093 0 6.062 1.44 8 3.698 1.938-2.258 4.907-3.698 8-3.698z"></path>
</svg>
