<!-- Generated by IcoMoon.io -->
<svg version="1.1" xmlns="http://www.w3.org/2000/svg" width="43" height="32" viewBox="0 0 43 32">
<title>heart-off</title>
<path d="M1.778 7.591l2.276-2.258 31.502 31.502-2.258 2.276-6.311-6.329-3.076 2.827-2.578 2.347-2.578-2.347c-9.156-8.302-15.2-13.796-15.2-20.498 0-1.689 0.409-3.253 1.12-4.622l-2.898-2.898M13.333 5.333c3.093 0 6.062 1.44 8 3.698 1.938-2.258 4.907-3.698 8-3.698 5.476 0 9.778 4.284 9.778 9.778 0 4.569-2.809 8.569-7.484 13.28l-22.258-22.258c1.209-0.516 2.542-0.8 3.964-0.8z"></path>
</svg>
