<!-- Generated by IcoMoon.io -->
<svg version="1.1" xmlns="http://www.w3.org/2000/svg" width="43" height="32" viewBox="0 0 43 32">
<title>help-circle</title>
<path d="M26.791 20l-1.6 1.636c-1.28 1.28-2.080 2.364-2.080 5.031h-3.556v-0.889c0-1.973 0.8-3.751 2.080-5.031l2.204-2.24c0.658-0.64 1.049-1.529 1.049-2.507 0-1.973-1.6-3.556-3.556-3.556s-3.556 1.6-3.556 3.556h-3.556c0-3.929 3.182-7.111 7.111-7.111s7.111 3.182 7.111 7.111c0 1.564-0.64 2.969-1.653 4M23.111 33.778h-3.556v-3.556h3.556M21.333 3.556c-9.813 0-17.778 7.964-17.778 17.778s7.964 17.778 17.778 17.778 17.778-7.964 17.778-17.778c0-9.831-8-17.778-17.778-17.778z"></path>
</svg>
