<!-- Generated by IcoMoon.io -->
<svg version="1.1" xmlns="http://www.w3.org/2000/svg" width="43" height="32" viewBox="0 0 43 32">
<title>help-circle-outline</title>
<path d="M19.556 32h3.556v-3.556h-3.556v3.556M21.333 3.556c-9.813 0-17.778 7.964-17.778 17.778s7.964 17.778 17.778 17.778 17.778-7.964 17.778-17.778-7.964-17.778-17.778-17.778M21.333 35.556c-7.84 0-14.222-6.382-14.222-14.222s6.382-14.222 14.222-14.222 14.222 6.382 14.222 14.222-6.382 14.222-14.222 14.222M21.333 10.667c-3.929 0-7.111 3.182-7.111 7.111h3.556c0-1.956 1.6-3.556 3.556-3.556s3.556 1.6 3.556 3.556c0 3.556-5.333 3.111-5.333 8.889h3.556c0-4 5.333-4.444 5.333-8.889 0-3.929-3.182-7.111-7.111-7.111z"></path>
</svg>
