<!-- Generated by IcoMoon.io -->
<svg version="1.1" xmlns="http://www.w3.org/2000/svg" width="43" height="32" viewBox="0 0 43 32">
<title>help-box</title>
<path d="M19.556 32h3.556v-3.556h-3.556v3.556M21.333 10.667c-3.929 0-7.111 3.182-7.111 7.111h3.556c0-1.956 1.6-3.556 3.556-3.556s3.556 1.6 3.556 3.556c0 3.556-5.333 3.111-5.333 8.889h3.556c0-4 5.333-4.444 5.333-8.889 0-3.929-3.182-7.111-7.111-7.111M8.889 5.333h24.889c1.956 0 3.556 1.6 3.556 3.556v24.889c0 1.956-1.6 3.556-3.556 3.556h-24.889c-1.956 0-3.556-1.6-3.556-3.556v-24.889c0-1.956 1.6-3.556 3.556-3.556z"></path>
</svg>
