<!-- Generated by IcoMoon.io -->
<svg version="1.1" xmlns="http://www.w3.org/2000/svg" width="43" height="32" viewBox="0 0 43 32">
<title>help</title>
<path d="M17.778 33.778h5.333v5.333h-5.333v-5.333M21.333 3.556c9.511 0.391 13.653 9.991 8 17.191-1.476 1.778-3.858 2.951-5.031 4.444-1.191 1.476-1.191 3.253-1.191 5.031h-5.333c0-2.969 0-5.476 1.191-7.253 1.173-1.778 3.556-2.827 5.031-4 4.302-3.982 3.236-9.618-2.667-10.080-2.951 0-5.333 2.382-5.333 5.333h-5.333c0-5.884 4.782-10.667 10.667-10.667z"></path>
</svg>
