<!-- Generated by IcoMoon.io -->
<svg version="1.1" xmlns="http://www.w3.org/2000/svg" width="43" height="32" viewBox="0 0 43 32">
<title>hexagon-multiple</title>
<path d="M18.222 3.556c0.338 0 0.64 0.196 0.782 0.462l3.947 7.040 0.16 0.498-0.16 0.498-3.947 7.040c-0.142 0.267-0.444 0.462-0.782 0.462h-8c-0.338 0-0.64-0.196-0.782-0.462l-3.947-7.040-0.16-0.498 0.16-0.498 3.947-7.040c0.142-0.267 0.444-0.462 0.782-0.462h8M18.222 23.111c0.338 0 0.64 0.196 0.782 0.462l3.947 7.040 0.16 0.498-0.16 0.498-3.947 7.040c-0.142 0.267-0.444 0.462-0.782 0.462h-8c-0.338 0-0.64-0.196-0.782-0.462l-3.947-7.040-0.16-0.498 0.16-0.498 3.947-7.040c0.142-0.267 0.444-0.462 0.782-0.462h8M34.667 13.333c0.338 0 0.64 0.196 0.782 0.462l3.947 7.040 0.16 0.498-0.16 0.498-3.947 7.040c-0.142 0.267-0.444 0.462-0.782 0.462h-8c-0.338 0-0.64-0.196-0.782-0.462l-3.947-7.040-0.16-0.498 0.16-0.498 3.947-7.040c0.142-0.267 0.444-0.462 0.782-0.462h8z"></path>
</svg>
