<!-- Generated by IcoMoon.io -->
<svg version="1.1" xmlns="http://www.w3.org/2000/svg" width="43" height="32" viewBox="0 0 43 32">
<title>history</title>
<path d="M19.556 12.444v9.084l8.373 4.96 1.404-2.276-7.111-4.213v-7.556M22.222 3.556c-6.276 0-11.716 3.413-14.631 8.48l-4.036-4.036v11.556h11.556l-4.889-4.889c2.151-4.48 6.667-7.556 12-7.556 7.36 0 13.333 5.973 13.333 13.333s-5.973 13.333-13.333 13.333c-5.813 0-10.72-3.716-12.551-8.889h-3.733c1.956 7.164 8.48 12.444 16.284 12.444 9.316 0 16.889-7.556 16.889-16.889s-7.556-16.889-16.889-16.889z"></path>
</svg>
