<!-- Generated by IcoMoon.io -->
<svg version="1.1" xmlns="http://www.w3.org/2000/svg" width="43" height="32" viewBox="0 0 43 32">
<title>hololens</title>
<path d="M21.333 14.222s17.778 0 17.778 5.333c0 0 0.16 5.973-0.444 5.778-1.333-5.778-17.333-5.778-17.333-5.778s-16 0-17.333 5.778c-0.604 0.196-0.444-5.778-0.444-5.778 0-5.333 17.778-5.333 17.778-5.333M21.333 21.333c14.222 0 15.556 4 15.556 4-1.778 5.333-3.111 6.667-10.222 6.667-5.333 0-3.556-2.667-5.333-2.667s0 2.667-5.333 2.667c-7.111 0-8.444-1.333-10.222-6.667 0 0 1.333-4 15.556-4z"></path>
</svg>
