<!-- Generated by IcoMoon.io -->
<svg version="1.1" xmlns="http://www.w3.org/2000/svg" width="43" height="32" viewBox="0 0 43 32">
<title>hook</title>
<path d="M32 10.667c0 3.236-2.204 6.062-5.333 6.862v12.693c0 4.907-3.982 8.889-8.889 8.889s-8.889-3.982-8.889-8.889v-8.889l8.889 8.889h-5.333c0 2.951 2.382 5.333 5.333 5.333s5.333-2.382 5.333-5.333v-12.693c-3.147-0.818-5.333-3.662-5.333-6.916 0-3.929 3.2-7.058 7.111-7.058 3.947 0 7.111 3.182 7.111 7.111M24.889 14.222c1.956 0 3.556-1.6 3.556-3.556s-1.6-3.556-3.556-3.556-3.556 1.6-3.556 3.556 1.6 3.556 3.556 3.556z"></path>
</svg>
