<!-- Generated by IcoMoon.io -->
<svg version="1.1" xmlns="http://www.w3.org/2000/svg" width="43" height="32" viewBox="0 0 43 32">
<title>hook-off</title>
<path d="M23.111 17.529v2.347l3.556 3.556v-5.902c3.804-0.978 6.098-4.853 5.102-8.64-0.978-3.822-4.853-6.116-8.658-5.138-3.804 0.996-6.098 4.871-5.102 8.693 0.658 2.489 2.596 4.444 5.102 5.084M24.889 7.111c1.956 0 3.556 1.6 3.556 3.556s-1.6 3.556-3.556 3.556-3.556-1.6-3.556-3.556 1.6-3.556 3.556-3.556M33.298 39.111l-6.88-6.88c-1.156 4.764-5.973 7.698-10.72 6.56-3.964-0.96-6.809-4.498-6.809-8.569v-8.889l8.889 8.889h-5.333c0 2.951 2.382 5.333 5.333 5.333s5.333-2.382 5.333-5.333v-1.298l-19.556-19.556 2.276-2.258 29.724 29.724-2.258 2.276z"></path>
</svg>
