<!-- Generated by IcoMoon.io -->
<svg version="1.1" xmlns="http://www.w3.org/2000/svg" width="43" height="32" viewBox="0 0 43 32">
<title>hops</title>
<path d="M37.333 21.333s-15.111-3.556-15.111-17.778c0 0 15.111 0 15.111 17.778M5.333 21.333c0-17.778 15.111-17.778 15.111-17.778 0 14.222-15.111 17.778-15.111 17.778M21.333 11.556s1.778 3.84 5.333 7.111c-0.427 6.507-5.333 9.778-5.333 9.778s-4.907-3.271-5.333-9.778c3.556-3.271 5.333-7.111 5.333-7.111M36.889 23.556s-1.333 6.667-4.889 10.222c0 0-4.391-2.916-6.524-7.449 1.28-2.187 2.080-4.782 2.524-6.542 2.453 1.867 5.333 3.324 8.889 3.769M27.556 32.444c-1.778 3.556-6.222 6.222-6.222 6.222s-4.444-2.667-6.222-6.222c0 0 1.938-1.618 3.289-4.356 0.836 0.978 1.796 1.76 2.933 2.133 1.138-0.373 2.098-1.156 2.933-2.133 1.351 2.738 3.289 4.356 3.289 4.356M5.778 23.556c3.556-0.444 6.436-1.902 8.889-3.769 0.444 1.76 1.244 4.356 2.524 6.542-2.133 4.533-6.524 7.449-6.524 7.449-3.556-3.556-4.889-10.222-4.889-10.222z"></path>
</svg>
