<!-- Generated by IcoMoon.io -->
<svg version="1.1" xmlns="http://www.w3.org/2000/svg" width="43" height="32" viewBox="0 0 43 32">
<title>hospital-building</title>
<path d="M3.556 39.111v-26.667c0-0.978 0.8-1.778 1.778-1.778h7.111v-7.111h17.778v7.111h7.111c0.978 0 1.778 0.8 1.778 1.778v26.667h-14.222v-8.889h-7.111v8.889h-14.222M16 7.111v10.667h3.556v-3.556h3.556v3.556h3.556v-10.667h-3.556v3.556h-3.556v-3.556h-3.556M7.111 35.556h7.111v-5.333h-7.111v5.333M7.111 26.667h7.111v-5.333h-7.111v5.333M28.444 35.556h7.111v-5.333h-7.111v5.333M28.444 26.667h7.111v-5.333h-7.111v5.333M17.778 26.667h7.111v-5.333h-7.111v5.333z"></path>
</svg>
