<!-- Generated by IcoMoon.io -->
<svg version="1.1" xmlns="http://www.w3.org/2000/svg" width="43" height="32" viewBox="0 0 43 32">
<title>human-handsdown</title>
<path d="M21.333 1.778c-1.973 0-3.556 1.6-3.556 3.556 0 1.973 1.582 3.556 3.556 3.556s3.556-1.582 3.556-3.556c0-1.956-1.6-3.556-3.556-3.556M17.778 10.667c-0.48 0-0.889 0.196-1.227 0.498h-0.018l-9.422 9.44 2.524 2.507 6.364-6.382v22.382h3.556v-12.444h3.556v12.444h3.556v-22.382l6.364 6.382 2.524-2.507-9.422-9.44c-0.356-0.302-0.764-0.498-1.244-0.498"></path>
</svg>
