<!-- Generated by IcoMoon.io -->
<svg version="1.1" xmlns="http://www.w3.org/2000/svg" width="43" height="32" viewBox="0 0 43 32">
<title>human-male-female</title>
<path d="M13.333 3.556c1.956 0 3.556 1.6 3.556 3.556s-1.6 3.556-3.556 3.556-3.556-1.6-3.556-3.556 1.6-3.556 3.556-3.556M10.667 12.444h5.333c1.956 0 3.556 1.6 3.556 3.556v9.778h-2.667v13.333h-7.111v-13.333h-2.667v-9.778c0-1.956 1.6-3.556 3.556-3.556M29.333 3.556c1.956 0 3.556 1.6 3.556 3.556s-1.6 3.556-3.556 3.556-3.556-1.6-3.556-3.556 1.6-3.556 3.556-3.556M26.667 39.111v-10.667h-5.333l4.604-13.493c0.444-1.458 1.796-2.507 3.396-2.507s2.951 1.049 3.396 2.507l4.604 13.493h-5.333v10.667h-5.333z"></path>
</svg>
