<!-- Generated by IcoMoon.io -->
<svg version="1.1" xmlns="http://www.w3.org/2000/svg" width="43" height="32" viewBox="0 0 43 32">
<title>image-filter-vintage</title>
<path d="M21.333 28.444c-3.929 0-7.111-3.182-7.111-7.111s3.182-7.111 7.111-7.111 7.111 3.182 7.111 7.111-3.182 7.111-7.111 7.111M33.244 22.044c-0.498-0.284-1.013-0.516-1.529-0.711 0.516-0.196 1.031-0.427 1.529-0.711 3.413-1.956 5.316-5.511 5.333-9.227-3.182-1.831-7.236-1.973-10.667 0-0.498 0.284-0.96 0.622-1.387 0.96 0.089-0.551 0.142-1.12 0.142-1.689 0-3.947-2.151-7.378-5.333-9.227-3.182 1.849-5.333 5.28-5.333 9.227 0 0.569 0.053 1.138 0.142 1.689-0.427-0.356-0.889-0.693-1.387-0.978-3.413-1.973-7.467-1.831-10.667 0 0 3.68 1.902 7.289 5.333 9.227 0.498 0.284 1.013 0.516 1.529 0.729-0.516 0.178-1.031 0.409-1.529 0.693-3.413 1.973-5.316 5.529-5.333 9.227 3.182 1.831 7.236 1.973 10.667 0 0.498-0.284 0.96-0.622 1.387-0.96-0.089 0.569-0.142 1.138-0.142 1.707 0 3.947 2.151 7.378 5.333 9.227 3.182-1.849 5.333-5.28 5.333-9.227 0-0.569-0.053-1.138-0.142-1.689 0.427 0.356 0.889 0.676 1.387 0.96 3.413 1.973 7.467 1.831 10.667 0-0.018-3.716-1.92-7.271-5.333-9.227z"></path>
</svg>
