<!-- Generated by IcoMoon.io -->
<svg version="1.1" xmlns="http://www.w3.org/2000/svg" width="43" height="32" viewBox="0 0 43 32">
<title>image-filter-center-focus-weak</title>
<path d="M8.889 26.667h-3.556v7.111c0 1.956 1.6 3.556 3.556 3.556h7.111v-3.556h-7.111M8.889 8.889h7.111v-3.556h-7.111c-1.956 0-3.556 1.6-3.556 3.556v7.111h3.556M33.778 5.333h-7.111v3.556h7.111v7.111h3.556v-7.111c0-1.956-1.6-3.556-3.556-3.556M33.778 33.778h-7.111v3.556h7.111c1.956 0 3.556-1.6 3.556-3.556v-7.111h-3.556M21.333 14.222c-3.929 0-7.111 3.182-7.111 7.111s3.182 7.111 7.111 7.111 7.111-3.182 7.111-7.111-3.182-7.111-7.111-7.111M21.333 24.889c-1.956 0-3.556-1.6-3.556-3.556s1.6-3.556 3.556-3.556 3.556 1.6 3.556 3.556-1.6 3.556-3.556 3.556z"></path>
</svg>
