<!-- Generated by IcoMoon.io -->
<svg version="1.1" xmlns="http://www.w3.org/2000/svg" width="43" height="32" viewBox="0 0 43 32">
<title>image-broken</title>
<path d="M33.778 5.333c1.956 0 3.556 1.6 3.556 3.556v10.667h-3.556v3.556h-3.556v3.556h-3.556v3.556h-3.556v3.556h-3.556v3.556h-10.667c-1.973 0-3.556-1.6-3.556-3.556v-24.889c0-1.956 1.6-3.556 3.556-3.556h24.889M37.333 26.667v7.111c0 1.956-1.6 3.556-3.556 3.556h-7.111v-3.556h3.556v-3.556h3.556v-3.556h3.556M33.778 15.111c0-0.498-0.391-0.889-0.889-0.889h-23.111c-0.498 0-0.889 0.391-0.889 0.889v12.444c0 0.498 0.391 0.889 0.889 0.889h9.778v-1.778h3.556v-3.556h3.556v-3.556h3.556v-3.556h3.556v-0.889z"></path>
</svg>
