<!-- Generated by IcoMoon.io -->
<svg version="1.1" xmlns="http://www.w3.org/2000/svg" width="43" height="32" viewBox="0 0 43 32">
<title>image-filter</title>
<path d="M37.333 30.222h-24.889v-24.889h24.889M37.333 1.778h-24.889c-1.956 0-3.556 1.6-3.556 3.556v24.889c0 1.956 1.6 3.556 3.556 3.556h24.889c1.956 0 3.556-1.6 3.556-3.556v-24.889c0-1.956-1.6-3.556-3.556-3.556M5.333 8.889h-3.556v28.444c0 1.956 1.6 3.556 3.556 3.556h28.444v-3.556h-28.444M28.373 18.293l-4.889 6.293-3.484-4.196-4.889 6.276h19.556l-6.293-8.373z"></path>
</svg>
