<!-- Generated by IcoMoon.io -->
<svg version="1.1" xmlns="http://www.w3.org/2000/svg" width="43" height="32" viewBox="0 0 43 32">
<title>image-filter-tilt-shift</title>
<path d="M10.098 35.093c2.631 2.151 5.902 3.573 9.458 3.929v-3.591c-2.596-0.32-4.96-1.351-6.933-2.88M23.111 35.431v3.591c3.556-0.356 6.827-1.778 9.458-3.929l-2.542-2.542c-1.956 1.529-4.32 2.56-6.916 2.88M32.551 30.044l2.542 2.542c2.151-2.631 3.573-5.92 3.929-9.476h-3.591c-0.32 2.596-1.351 4.96-2.88 6.933M26.667 21.333c0-2.951-2.382-5.333-5.333-5.333s-5.333 2.382-5.333 5.333 2.382 5.333 5.333 5.333 5.333-2.382 5.333-5.333M7.236 23.111h-3.591c0.356 3.556 1.778 6.827 3.929 9.458l2.542-2.542c-1.529-1.956-2.56-4.32-2.88-6.916M10.116 12.622l-2.542-2.524c-2.151 2.631-3.573 5.902-3.929 9.458h3.591c0.32-2.596 1.351-4.96 2.88-6.933M35.431 19.556h3.591c-0.356-3.556-1.778-6.827-3.929-9.458l-2.542 2.524c1.529 1.973 2.56 4.338 2.88 6.933M32.569 7.573c-2.631-2.151-5.902-3.573-9.458-3.929v3.591c2.596 0.32 4.96 1.351 6.933 2.88M19.556 7.236v-3.591c-3.556 0.356-6.827 1.778-9.458 3.929l2.524 2.542c1.973-1.529 4.338-2.56 6.933-2.88z"></path>
</svg>
