<!-- Generated by IcoMoon.io -->
<svg version="1.1" xmlns="http://www.w3.org/2000/svg" width="43" height="32" viewBox="0 0 43 32">
<title>image-filter-drama</title>
<path d="M33.778 32h-23.111c-3.929 0-7.111-3.182-7.111-7.111s3.182-7.111 7.111-7.111 7.111 3.182 7.111 7.111h3.556c0-4.907-3.307-9.031-7.822-10.276 1.796-2.382 4.622-3.947 7.822-3.947 5.387 0 9.778 4.391 9.778 9.778v0.889h2.667c2.951 0 5.333 2.382 5.333 5.333s-2.382 5.333-5.333 5.333M34.4 17.849c-1.209-6.133-6.596-10.738-13.067-10.738-5.138 0-9.582 2.916-11.804 7.182-5.351 0.569-9.529 5.084-9.529 10.596 0 5.884 4.782 10.667 10.667 10.667h23.111c4.907 0 8.889-3.982 8.889-8.889 0-4.693-3.644-8.498-8.267-8.818z"></path>
</svg>
