<!-- Generated by IcoMoon.io -->
<svg version="1.1" xmlns="http://www.w3.org/2000/svg" width="43" height="32" viewBox="0 0 43 32">
<title>inbox-arrow-up</title>
<path d="M24.889 24.889h-7.111v-5.333h-3.556l7.111-7.111 7.111 7.111h-3.556v5.333M8.889 26.667v-17.778h24.889v17.778h-7.111c0 2.951-2.382 5.333-5.333 5.333s-5.333-2.382-5.333-5.333h-7.111M33.778 5.333h-24.889c-1.973 0-3.556 1.6-3.556 3.556v24.889c0 1.956 1.6 3.556 3.556 3.556h24.889c1.956 0 3.556-1.6 3.556-3.556v-24.889c0-1.956-1.6-3.556-3.556-3.556"></path>
</svg>
