<!-- Generated by IcoMoon.io -->
<svg version="1.1" xmlns="http://www.w3.org/2000/svg" width="43" height="32" viewBox="0 0 43 32">
<title>incognito</title>
<path d="M21.333 5.333c-4.782 0-8.16 2.169-8.16 2.169l-2.507 8.498h21.333l-2.507-8.498s-3.378-2.169-8.16-2.169M21.333 19.556c-4.853 0-11.751 0.96-12.213 1.049-1.849 0.498-3.342 0.996-4.516 1.458-1.796 0.604-2.827 1.049-2.827 1.049h39.111s-1.031-0.444-2.827-1.049c-1.173-0.462-2.702-0.96-4.569-1.458 0 0-7.147-1.049-12.16-1.049M13.333 24.889c-3.431 0-6.222 2.791-6.222 6.222s2.791 6.222 6.222 6.222 6.222-2.791 6.222-6.222c0-0.284 0-0.569-0.053-0.836 0.569-0.124 1.173-0.231 1.831-0.213 0.658 0 1.262 0.089 1.831 0.213-0.053 0.267-0.053 0.551-0.053 0.836 0 3.431 2.791 6.222 6.222 6.222s6.222-2.791 6.222-6.222-2.791-6.222-6.222-6.222c-2.613 0-4.853 1.6-5.778 3.893-0.569-0.178-1.244-0.338-2.222-0.338s-1.653 0.16-2.222 0.338c-0.924-2.293-3.164-3.893-5.778-3.893M13.333 26.667c2.453 0 4.444 1.991 4.444 4.444s-1.991 4.444-4.444 4.444-4.444-1.991-4.444-4.444 1.991-4.444 4.444-4.444M29.333 26.667c2.453 0 4.444 1.991 4.444 4.444s-1.991 4.444-4.444 4.444-4.444-1.991-4.444-4.444 1.991-4.444 4.444-4.444z"></path>
</svg>
