<!-- Generated by IcoMoon.io -->
<svg version="1.1" xmlns="http://www.w3.org/2000/svg" width="43" height="32" viewBox="0 0 43 32">
<title>infinity</title>
<path d="M33.067 11.769c5.298 0 9.6 4.231 9.6 9.564 0 5.262-4.302 9.547-9.6 9.547-2.578 0-4.978-0.996-6.791-2.791l-4.942-4.373-5.031 4.462c-1.724 1.724-4.142 2.72-6.702 2.72-5.298 0-9.6-4.302-9.6-9.564s4.302-9.564 9.6-9.564c2.56 0 4.978 0.996 6.791 2.809l4.942 4.373 5.031-4.462c1.724-1.724 4.142-2.72 6.702-2.72M13.867 25.582l4.8-4.249-4.729-4.178c-1.209-1.209-2.72-1.831-4.338-1.831-3.324 0-6.044 2.684-6.044 6.009s2.72 6.009 6.044 6.009c1.618 0 3.129-0.622 4.267-1.76M28.8 17.084l-4.8 4.249 4.729 4.178c1.209 1.209 2.738 1.831 4.338 1.831 3.324 0 6.044-2.684 6.044-6.009s-2.72-6.009-6.044-6.009c-1.618 0-3.129 0.622-4.267 1.76z"></path>
</svg>
