<!-- Generated by IcoMoon.io -->
<svg version="1.1" xmlns="http://www.w3.org/2000/svg" width="43" height="32" viewBox="0 0 43 32">
<title>information-variant</title>
<path d="M24 7.111c-1.476 0-2.667 1.191-2.667 2.667s1.191 2.667 2.667 2.667 2.667-1.191 2.667-2.667-1.191-2.667-2.667-2.667M23.36 15.591c-2.116 0.178-7.893 4.782-7.893 4.782-0.356 0.267-0.249 0.249 0.036 0.747 0.284 0.48 0.249 0.516 0.587 0.284 0.356-0.231 0.942-0.604 1.92-1.209 3.769-2.418 0.604 3.164-1.013 12.569-0.64 4.658 3.556 2.258 4.64 1.547 1.067-0.693 3.929-2.667 4.213-2.862 0.391-0.267 0.107-0.48-0.196-0.924-0.213-0.302-0.427-0.089-0.427-0.089-1.156 0.764-3.271 2.364-3.556 1.351-0.338-1.013 1.831-7.964 3.022-12.747 0.196-1.138 0.729-3.627-1.333-3.449z"></path>
</svg>
