<!-- Generated by IcoMoon.io -->
<svg version="1.1" xmlns="http://www.w3.org/2000/svg" width="43" height="32" viewBox="0 0 43 32">
<title>instagram</title>
<path d="M13.867 3.556h14.933c5.689 0 10.311 4.622 10.311 10.311v14.933c0 5.689-4.622 10.311-10.311 10.311h-14.933c-5.689 0-10.311-4.622-10.311-10.311v-14.933c0-5.689 4.622-10.311 10.311-10.311M13.511 7.111c-3.538 0-6.4 2.862-6.4 6.4v15.644c0 3.538 2.862 6.4 6.4 6.4h15.644c3.538 0 6.4-2.862 6.4-6.4v-15.644c0-3.538-2.862-6.4-6.4-6.4h-15.644M30.667 9.778c1.227 0 2.222 0.996 2.222 2.222s-0.996 2.222-2.222 2.222-2.222-0.996-2.222-2.222 0.996-2.222 2.222-2.222M21.333 12.444c4.907 0 8.889 3.982 8.889 8.889s-3.982 8.889-8.889 8.889-8.889-3.982-8.889-8.889 3.982-8.889 8.889-8.889M21.333 16c-2.951 0-5.333 2.382-5.333 5.333s2.382 5.333 5.333 5.333 5.333-2.382 5.333-5.333-2.382-5.333-5.333-5.333z"></path>
</svg>
