<!-- Generated by IcoMoon.io -->
<svg version="1.1" xmlns="http://www.w3.org/2000/svg" width="43" height="32" viewBox="0 0 43 32">
<title>internet-explorer</title>
<path d="M23.111 5.333l1.778 0.107c4.978-2.258 9.298-2.524 11.556-0.249 1.778 1.796 1.92 4.889 0.747 8.533 1.227 2.276 1.92 4.853 1.92 7.609l-0.089 1.778h-22.88c0.658 4.053 3.52 7.111 6.969 7.111 2.329 0 4.391-1.404 5.689-3.556h9.422c-2.222 6.222-8.142 10.667-15.111 10.667-2.276 0-4.444-0.48-6.382-1.333-5.173 2.542-9.813 2.933-12.16 0.551-2.791-2.844-1.582-8.871 2.542-15.218 1.653-2.596 3.804-5.227 6.347-7.733l1.44-1.369c-2.080 1.227-4.747 3.093-7.449 5.849 1.493-7.271 7.947-12.747 15.662-12.747M23.111 12.444c-3.182 0-5.884 2.613-6.791 6.222h13.582c-0.907-3.609-3.609-6.222-6.791-6.222M35.662 7.218c-1.173-1.191-3.271-1.262-5.902-0.444 2.631 1.227 4.907 3.111 6.524 5.476 0.569-2.204 0.409-3.982-0.622-5.031M6.916 35.556c1.476 1.493 4.462 1.227 8.089-0.427-3.289-1.938-5.813-5.013-7.058-8.676-2.133 4.036-2.613 7.449-1.031 9.102z"></path>
</svg>
