<!-- Generated by IcoMoon.io -->
<svg version="1.1" xmlns="http://www.w3.org/2000/svg" width="43" height="32" viewBox="0 0 43 32">
<title>itunes</title>
<path d="M13.956 30.347c-1.458 0.178-7.733 1.067-6.738 5.671 1.12 5.404 10.329 4.142 10.258-2.24-0.036-4.32 0-17.422 0-17.422s-0.124-1.191 1.067-1.44l13.796-2.844s1.138-0.249 1.138 0.889v12.284s0.124 1.12-1.262 1.422c-1.387 0.213-7.484 0.711-6.987 5.333 0.551 5.458 10.329 4.711 10.329-1.653v-25.707s0.071-1.76-1.956-1.316l-16.711 3.396s-1.493 0.32-1.493 1.76v20.16s0 1.511-1.44 1.707z"></path>
</svg>
