<!-- Generated by IcoMoon.io -->
<svg version="1.1" xmlns="http://www.w3.org/2000/svg" width="43" height="32" viewBox="0 0 43 32">
<title>jeepney</title>
<path d="M33.778 23.111v-10.667h1.778v-5.333h-28.444v5.333h1.778v10.667h-5.333c0 1.653 0.889 3.040 2.667 3.431v9.013c0 0.978 0.8 1.778 1.778 1.778h1.778c0.978 0 1.778-0.8 1.778-1.778v-1.778h19.556v1.778c0 0.978 0.8 1.778 1.778 1.778h1.778c0.978 0 1.778-0.8 1.778-1.778v-9.013c1.778-0.409 2.667-1.778 2.667-3.431h-5.333M14.222 26.667c-1.476 0-2.667-1.191-2.667-2.667s1.191-2.667 2.667-2.667 2.667 1.191 2.667 2.667-1.191 2.667-2.667 2.667M28.444 26.667c-1.476 0-2.667-1.191-2.667-2.667s1.191-2.667 2.667-2.667 2.667 1.191 2.667 2.667-1.191 2.667-2.667 2.667M31.111 18.667c-2.809-0.569-6.169-0.889-9.778-0.889s-7.111 0.32-9.778 0.889v-6.222h19.556v6.222z"></path>
</svg>
