<!-- Generated by IcoMoon.io -->
<svg version="1.1" xmlns="http://www.w3.org/2000/svg" width="43" height="32" viewBox="0 0 43 32">
<title>jira</title>
<path d="M21.333 3.556c1.547 0 2.809 1.262 2.809 2.809s-1.262 2.809-2.809 2.809c-1.547 0-2.809-1.262-2.809-2.809s1.262-2.809 2.809-2.809M13.849 5.422c1.547 0 2.809 1.262 2.809 2.809s-1.262 2.809-2.809 2.809c-1.547 0-2.809-1.262-2.809-2.809s1.262-2.809 2.809-2.809M28.818 5.422c1.547 0 2.809 1.262 2.809 2.809s-1.262 2.809-2.809 2.809c-1.547 0-2.809-1.262-2.809-2.809s1.262-2.809 2.809-2.809M20.978 19.467c-3.733-3.751-2.809-5.618-2.809-5.618h6.56c0 2.809-3.751 5.618-3.751 5.618M24.729 38.169s0-3.733-7.484-11.218c-7.467-7.484-8.427-9.369-9.369-14.969 0 0 0.711-0.942 1.653 0 0.924 0.924 3.040 1.636 4.907 1.636 0 0 1.867 5.849 7.022 9.582 0 0 6.773-7.004 6.773-9.813 0 0 2.116 0.462 4.658-1.404 0 0 1.778-0.942 1.902 0 0.231 1.867-1.653 8.409-9.369 14.969 0 0 4.924 5.618 4.444 11.218h-5.138M16.302 28.818l3.982 4.444c-1.867 1.867-2.116 5.849-2.116 5.849h-5.6c0.924-7.484 3.733-10.293 3.733-10.293z"></path>
</svg>
