<!-- Generated by IcoMoon.io -->
<svg version="1.1" xmlns="http://www.w3.org/2000/svg" width="43" height="32" viewBox="0 0 43 32">
<title>jsfiddle</title>
<path d="M36.142 19.182c2.791 1.156 4.747 3.858 4.747 7.004 0 4.196-3.449 7.591-7.698 7.591h-23.591c-4.267-0.071-7.822-3.556-7.822-7.787 0-2.827 1.547-5.316 3.858-6.667-0.16-0.498-0.231-1.031-0.231-1.547 0-2.951 2.4-5.333 5.369-5.333 1.227 0 2.364 0.444 3.271 1.138 1.884-3.858 5.867-6.542 10.507-6.542 6.418 0 11.627 5.138 11.627 11.467 0 0.231-0.018 0.462-0.036 0.676M16.391 19.289c-3.147 0-5.724 2.258-5.724 5.013 0 2.773 2.578 5.031 5.724 5.031 1.831 0 3.467-0.782 4.516-1.973l-1.796-2.027c-0.587 0.764-1.742 1.333-2.72 1.333-1.404 0-2.542-1.067-2.542-2.364 0-1.28 1.138-2.329 2.542-2.329 0.836 0 1.6 0.409 2.382 0.924 0.782 0.498 2.080 2.293 3.111 3.449 2.596 2.613 3.947 2.844 5.493 2.844 3.147 0 5.689-2.258 5.689-5.013 0-2.773-2.542-5.013-5.689-5.013-1.849 0-3.484 0.764-4.533 1.956l1.796 1.991c0.587-0.729 1.742-1.28 2.738-1.28 1.404 0 2.542 1.049 2.542 2.347 0 1.28-1.138 2.329-2.542 2.329-0.836 0-1.6-0.409-2.4-0.924-0.782-0.498-2.080-2.293-3.093-3.449-2.613-2.578-3.964-2.844-5.493-2.844z"></path>
</svg>
