<!-- Generated by IcoMoon.io -->
<svg version="1.1" xmlns="http://www.w3.org/2000/svg" width="43" height="32" viewBox="0 0 43 32">
<title>json</title>
<path d="M8.889 5.333h3.556v3.556h-3.556v8.889c0 1.956-1.6 3.556-3.556 3.556 1.956 0 3.556 1.6 3.556 3.556v8.889h3.556v3.556h-3.556c-1.902-0.48-3.556-1.6-3.556-3.556v-7.111c0-1.956-1.6-3.556-3.556-3.556h-1.778v-3.556h1.778c1.956 0 3.556-1.6 3.556-3.556v-7.111c0-1.956 1.6-3.556 3.556-3.556M33.778 5.333c1.956 0 3.556 1.6 3.556 3.556v7.111c0 1.956 1.6 3.556 3.556 3.556h1.778v3.556h-1.778c-1.956 0-3.556 1.6-3.556 3.556v7.111c0 1.956-1.6 3.556-3.556 3.556h-3.556v-3.556h3.556v-8.889c0-1.956 1.6-3.556 3.556-3.556-1.956 0-3.556-1.6-3.556-3.556v-8.889h-3.556v-3.556h3.556M21.333 26.667c0.978 0 1.778 0.8 1.778 1.778s-0.8 1.778-1.778 1.778-1.778-0.8-1.778-1.778 0.8-1.778 1.778-1.778M14.222 26.667c0.978 0 1.778 0.8 1.778 1.778s-0.8 1.778-1.778 1.778-1.778-0.8-1.778-1.778 0.8-1.778 1.778-1.778M28.444 26.667c0.978 0 1.778 0.8 1.778 1.778s-0.8 1.778-1.778 1.778-1.778-0.8-1.778-1.778 0.8-1.778 1.778-1.778z"></path>
</svg>
