<!-- Generated by IcoMoon.io -->
<svg version="1.1" xmlns="http://www.w3.org/2000/svg" width="43" height="32" viewBox="0 0 43 32">
<title>kettle</title>
<path d="M22.222 5.333c-8.338 0-15.111 4.782-15.111 10.667 0 2.116 0.889 4.16 2.56 5.92-1.618 2.080-2.56 4.676-2.56 7.413v6.222c0 1.973 1.582 3.556 3.556 3.556h23.111c1.973 0 3.556-1.582 3.556-3.556v-6.222c0-2.169-0.604-4.32-1.778-6.222l3.556-3.556-5.333-5.333-3.733 3.733c-2.347-1.28-5.067-1.956-7.822-1.956-3.289 0-6.311 0.942-8.8 2.507-0.64-0.782-0.978-1.618-0.978-2.507 0-3.182 4.373-5.778 9.778-5.778 2.542 0 4.978 0.587 6.809 1.636l3.591-3.591c-2.809-1.884-6.524-2.933-10.4-2.933M22.222 19.556c0.604 0 1.191 0.071 1.778 0.16-5.529 0.853-9.778 5.618-9.778 11.396v4.444h-3.556v-4.444c0-6.382 5.173-11.556 11.556-11.556z"></path>
</svg>
