<!-- Generated by IcoMoon.io -->
<svg version="1.1" xmlns="http://www.w3.org/2000/svg" width="43" height="32" viewBox="0 0 43 32">
<title>key-change</title>
<path d="M11.556 3.556c3.484 0 6.453 2.222 7.538 5.333h20.018v5.333h-7.111v5.333h-5.333v-5.333h-7.573c-1.084 3.111-4.053 5.333-7.538 5.333-4.444 0-8-3.556-8-8s3.556-8 8-8M11.556 8.889c-1.476 0-2.667 1.191-2.667 2.667s1.191 2.667 2.667 2.667 2.667-1.191 2.667-2.667-1.191-2.667-2.667-2.667M11.556 23.111c3.484 0 6.453 2.222 7.538 5.333h20.018v5.333h-3.556v5.333h-3.556v-5.333h-3.556v5.333h-5.333v-5.333h-4.018c-1.084 3.111-4.053 5.333-7.538 5.333-4.444 0-8-3.556-8-8s3.556-8 8-8M11.556 28.444c-1.476 0-2.667 1.191-2.667 2.667s1.191 2.667 2.667 2.667 2.667-1.191 2.667-2.667-1.191-2.667-2.667-2.667z"></path>
</svg>
