<!-- Generated by IcoMoon.io -->
<svg version="1.1" xmlns="http://www.w3.org/2000/svg" width="43" height="32" viewBox="0 0 43 32">
<title>key-variant</title>
<path d="M39.111 32v7.111h-7.111v-5.333h-5.333v-5.333h-5.333l-4.018-4.018c-0.978 0.302-2.009 0.462-3.093 0.462-5.884 0-10.667-4.782-10.667-10.667s4.782-10.667 10.667-10.667 10.667 4.782 10.667 10.667c0 1.084-0.16 2.116-0.462 3.093l14.684 14.684M12.444 8.889c-1.956 0-3.556 1.6-3.556 3.556s1.6 3.556 3.556 3.556 3.556-1.6 3.556-3.556-1.6-3.556-3.556-3.556z"></path>
</svg>
