<!-- Generated by IcoMoon.io -->
<svg version="1.1" xmlns="http://www.w3.org/2000/svg" width="43" height="32" viewBox="0 0 43 32">
<title>keyboard</title>
<path d="M33.778 17.778h-3.556v-3.556h3.556M33.778 23.111h-3.556v-3.556h3.556M28.444 17.778h-3.556v-3.556h3.556M28.444 23.111h-3.556v-3.556h3.556M28.444 30.222h-14.222v-3.556h14.222M12.444 17.778h-3.556v-3.556h3.556M12.444 23.111h-3.556v-3.556h3.556M14.222 19.556h3.556v3.556h-3.556M14.222 14.222h3.556v3.556h-3.556M19.556 19.556h3.556v3.556h-3.556M19.556 14.222h3.556v3.556h-3.556M35.556 8.889h-28.444c-1.973 0-3.556 1.582-3.556 3.556v17.778c0 1.956 1.6 3.556 3.556 3.556h28.444c1.956 0 3.556-1.6 3.556-3.556v-17.778c0-1.973-1.6-3.556-3.556-3.556z"></path>
</svg>
