<!-- Generated by IcoMoon.io -->
<svg version="1.1" xmlns="http://www.w3.org/2000/svg" width="43" height="32" viewBox="0 0 43 32">
<title>keyboard-off</title>
<path d="M1.778 7.591l2.276-2.258 31.502 31.502-2.258 2.276-5.333-5.333h-20.853c-1.973 0-3.556-1.6-3.556-3.556v-17.778c0-0.889 0.32-1.653 0.818-2.258l-2.596-2.596M33.778 17.778v-3.556h-3.556v3.556h3.556M33.778 23.111v-3.556h-3.556v3.556h3.556M28.444 17.778v-3.556h-3.556v3.556h3.556M28.444 23.111v-3.556h-3.556v2.098l-3.876-3.876h2.098v-3.556h-3.556v2.098l-7.431-7.431h23.431c1.956 0 3.556 1.6 3.556 3.556v17.778c0 1.529-0.96 2.827-2.311 3.324l-10.453-10.436h2.098M14.222 26.667v3.556h10.187l-3.556-3.556h-6.631M8.889 17.778h3.076l-3.076-3.076v3.076M12.444 23.111v-3.556h-3.556v3.556h3.556M14.222 23.111h3.076l-3.076-3.076v3.076z"></path>
</svg>
