<!-- Generated by IcoMoon.io -->
<svg version="1.1" xmlns="http://www.w3.org/2000/svg" width="43" height="32" viewBox="0 0 43 32">
<title>keyboard-variant</title>
<path d="M10.667 28.444h21.333v3.556h-21.333v-3.556M10.667 23.111v3.556h-7.111v-3.556h7.111M12.444 26.667v-3.556h5.333v3.556h-5.333M19.556 26.667v-3.556h3.556v3.556h-3.556M24.889 26.667v-3.556h5.333v3.556h-5.333M32 26.667v-3.556h7.111v3.556h-7.111M3.556 17.778h5.333v3.556h-5.333v-3.556M33.778 21.333v-3.556h5.333v3.556h-5.333M32 21.333h-3.556v-3.556h3.556v3.556M14.222 21.333h-3.556v-3.556h3.556v3.556M21.333 21.333h-5.333v-3.556h5.333v3.556M26.667 21.333h-3.556v-3.556h3.556v3.556M3.556 16v-3.556h3.556v3.556h-3.556M8.889 16v-3.556h3.556v3.556h-3.556M14.222 16v-3.556h3.556v3.556h-3.556M19.556 16v-3.556h3.556v3.556h-3.556M24.889 16v-3.556h3.556v3.556h-3.556M30.222 16v-3.556h8.889v3.556h-8.889z"></path>
</svg>
