<!-- Generated by IcoMoon.io -->
<svg version="1.1" xmlns="http://www.w3.org/2000/svg" width="43" height="32" viewBox="0 0 43 32">
<title>keyboard-close</title>
<path d="M21.333 40.889l7.111-7.111h-14.222M33.778 14.222h-3.556v-3.556h3.556M33.778 19.556h-3.556v-3.556h3.556M28.444 14.222h-3.556v-3.556h3.556M28.444 19.556h-3.556v-3.556h3.556M28.444 26.667h-14.222v-3.556h14.222M12.444 14.222h-3.556v-3.556h3.556M12.444 19.556h-3.556v-3.556h3.556M14.222 16h3.556v3.556h-3.556M14.222 10.667h3.556v3.556h-3.556M19.556 16h3.556v3.556h-3.556M19.556 10.667h3.556v3.556h-3.556M35.556 5.333h-28.444c-1.973 0-3.556 1.582-3.556 3.556v17.778c0 1.956 1.6 3.556 3.556 3.556h28.444c1.956 0 3.556-1.6 3.556-3.556v-17.778c0-1.973-1.6-3.556-3.556-3.556z"></path>
</svg>
