<!-- Generated by IcoMoon.io -->
<svg version="1.1" xmlns="http://www.w3.org/2000/svg" width="43" height="32" viewBox="0 0 43 32">
<title>kickstarter</title>
<path d="M18.151 16.231l5.849-8.498c1.12-1.6 2.56-2.4 4.32-2.4 1.422 0 2.667 0.516 3.68 1.529 1.084 1.013 1.6 2.222 1.6 3.644 0 1.049-0.267 1.938-0.836 2.773l-5.28 7.698 6.471 8.196c0.64 0.818 0.96 1.778 0.96 2.827 0 1.493-0.498 2.738-1.529 3.769-1.013 1.049-2.276 1.564-3.698 1.564-1.582 0-2.791-0.516-3.627-1.547l-7.911-9.884v5.44c0 1.547-0.284 2.773-0.818 3.627-0.978 1.582-2.418 2.364-4.302 2.364-1.707 0-3.022-0.569-3.964-1.724-0.889-1.067-1.316-2.489-1.316-4.231v-20.231c0-1.653 0.444-3.022 1.333-4.107 0.942-1.138 2.24-1.707 3.893-1.707 1.564 0 2.88 0.569 3.911 1.707 0.587 0.64 0.96 1.28 1.12 1.92 0.089 0.409 0.142 1.156 0.142 2.24v5.031z"></path>
</svg>
