<!-- Generated by IcoMoon.io -->
<svg version="1.1" xmlns="http://www.w3.org/2000/svg" width="43" height="32" viewBox="0 0 43 32">
<title>kodi</title>
<path d="M21.387 1.778c-0.373 0-0.764 0.196-1.102 0.551l-4.498 4.498c-0.391 0.391-0.498 0.604-0.889 0.96-0.516 0.427-0.747 0.942-0.729 1.6 0.053 2.293 0.053 4.551 0.053 6.844v7.164c0 0.178 0 0.32 0.053 0.498 0.142 0.551 0.498 0.676 0.889 0.267 2.133-2.133 4.036-4.071 6.169-6.222 2.418-2.418 4.853-4.836 7.271-7.271 0.729-0.711 0.729-1.511 0-2.222-2.044-2.044-4.124-4.053-6.151-6.116-0.356-0.356-0.693-0.551-1.067-0.551M33.173 13.618c-0.373 0-0.729 0.16-1.067 0.498-2.044 2.062-4.107 4.089-6.169 6.169-0.693 0.693-0.693 1.458 0 2.169 2.044 2.044 4.071 4.107 6.116 6.151 0.711 0.729 1.458 0.729 2.169 0 1.973-1.938 4-3.947 5.938-5.938 0.302-0.302 0.604-0.587 0.729-0.996v-0.551c-0.124-0.427-0.427-0.676-0.729-1.013-1.991-1.991-3.947-4-5.938-5.991-0.338-0.338-0.693-0.498-1.049-0.498M8.498 14.382c-0.231-0.089-0.356 0.089-0.498 0.231-2.044 2.080-3.84 3.929-5.884 5.991-0.462 0.48-0.462 1.156 0 1.618 1.102 1.12 2.222 2.222 3.324 3.342 0.96 0.96 1.671 1.689 2.667 2.667 0.284 0.267 0.533 0.213 0.676-0.124 0.107-0.178 0.107-0.409 0.107-0.604v-12.16c0-0.142 0-0.32-0.053-0.444-0.036-0.231-0.124-0.427-0.338-0.516M21.493 25.333c-0.356 0-0.764 0.16-1.102 0.498-2.044 2.062-4.071 4.16-6.116 6.222-0.711 0.711-0.711 1.458 0 2.169 1.973 1.991 3.964 3.947 5.956 5.938 0.284 0.302 0.587 0.604 0.996 0.729h0.498c0.391-0.107 0.711-0.373 0.996-0.658 1.991-2.009 4-4 6.009-6.009 0.693-0.711 0.604-1.511-0.053-2.222-2.062-2.062-4.071-4.107-6.116-6.169-0.338-0.338-0.693-0.498-1.067-0.498z"></path>
</svg>
