<!-- Generated by IcoMoon.io -->
<svg version="1.1" xmlns="http://www.w3.org/2000/svg" width="43" height="32" viewBox="0 0 43 32">
<title>lan-pending</title>
<path d="M7.111 1.778c-1.973 0-3.556 1.582-3.556 3.556v7.111c0 1.973 1.582 3.556 3.556 3.556h-5.333v3.556h21.333v-3.556h-5.333c1.973 0 3.556-1.582 3.556-3.556v-7.111c0-1.973-1.582-3.556-3.556-3.556h-10.667M7.111 5.333h10.667v7.111h-10.667v-7.111M5.333 21.333v3.556h3.556v-3.556h-3.556M24.889 23.111c-1.973 0-3.556 1.582-3.556 3.556v7.111c0 1.973 1.582 3.556 3.556 3.556h-5.333v3.556h21.333v-3.556h-5.333c1.973 0 3.556-1.582 3.556-3.556v-7.111c0-1.973-1.582-3.556-3.556-3.556h-10.667M5.333 26.667v3.556h3.556v-3.556h-3.556M24.889 26.667h10.667v7.111h-10.667v-7.111M5.333 32v3.556h3.556v-3.556h-3.556M10.667 32v3.556h3.556v-3.556h-3.556M16 32v3.556h3.556v-3.556h-3.556z"></path>
</svg>
