<!-- Generated by IcoMoon.io -->
<svg version="1.1" xmlns="http://www.w3.org/2000/svg" width="43" height="32" viewBox="0 0 43 32">
<title>lan</title>
<path d="M17.778 3.556c-1.973 0-3.556 1.582-3.556 3.556v5.333c0 1.973 1.582 3.556 3.556 3.556h1.778v3.556h-16v3.556h7.111v3.556h-1.778c-1.973 0-3.556 1.582-3.556 3.556v5.333c0 1.973 1.582 3.556 3.556 3.556h7.111c1.973 0 3.556-1.582 3.556-3.556v-5.333c0-1.973-1.582-3.556-3.556-3.556h-1.778v-3.556h14.222v3.556h-1.778c-1.973 0-3.556 1.582-3.556 3.556v5.333c0 1.973 1.582 3.556 3.556 3.556h7.111c1.973 0 3.556-1.582 3.556-3.556v-5.333c0-1.973-1.582-3.556-3.556-3.556h-1.778v-3.556h7.111v-3.556h-16v-3.556h1.778c1.973 0 3.556-1.582 3.556-3.556v-5.333c0-1.973-1.582-3.556-3.556-3.556h-7.111M17.778 7.111h7.111v5.333h-7.111v-5.333M8.889 30.222h7.111v5.333h-7.111v-5.333M26.667 30.222h7.111v5.333h-7.111v-5.333z"></path>
</svg>
