<!-- Generated by IcoMoon.io -->
<svg version="1.1" xmlns="http://www.w3.org/2000/svg" width="43" height="32" viewBox="0 0 43 32">
<title>language-typescript</title>
<path d="M5.333 5.333h32v32h-32v-32M24.373 31.751c0.889 1.742 2.684 3.076 5.493 3.076 2.844 0 4.978-1.476 4.978-4.196 0-2.507-1.44-3.627-4-4.729l-0.747-0.32c-1.298-0.551-1.849-0.924-1.849-1.813 0-0.729 0.551-1.298 1.44-1.298 0.853 0 1.422 0.373 1.938 1.298l2.329-1.547c-0.978-1.707-2.364-2.364-4.267-2.364-2.684 0-4.409 1.707-4.409 3.964 0 2.453 1.44 3.609 3.609 4.533l0.747 0.32c1.387 0.604 2.204 0.978 2.204 2.009 0 0.853-0.8 1.476-2.044 1.476-1.476 0-2.329-0.764-2.969-1.831l-2.453 1.422M23.111 20h-8.889v2.667h2.667v12.889h3.111v-12.889h3.111v-2.667z"></path>
</svg>
