<!-- Generated by IcoMoon.io -->
<svg version="1.1" xmlns="http://www.w3.org/2000/svg" width="43" height="32" viewBox="0 0 43 32">
<title>language-swift</title>
<path d="M30.382 35.058c-4.196 2.418-9.938 2.667-15.751 0.178-4.693-1.991-8.587-5.476-11.076-9.458 1.191 0.978 2.596 1.778 4.089 2.489 5.991 2.791 11.964 2.596 16.178 0-5.991-4.604-11.093-10.596-14.88-15.484-0.8-0.8-1.387-1.796-1.991-2.684 14.72 10.756 14.080 13.493 4.284-1.796 8.693 8.782 16.764 13.76 16.764 13.76 0.284 0.16 0.444 0.284 0.64 0.391 0.178-0.444 0.338-0.907 0.462-1.387 1.404-5.067-0.196-10.88-3.698-15.662 8.089 4.889 12.889 14.062 10.88 21.76-0.053 0.196-0.107 0.391-0.089 0.693 3.982 5.031 2.916 10.276 2.4 9.28-2.151-4.249-6.187-2.933-8.213-2.080z"></path>
</svg>
