<!-- Generated by IcoMoon.io -->
<svg version="1.1" xmlns="http://www.w3.org/2000/svg" width="43" height="32" viewBox="0 0 43 32">
<title>language-python</title>
<path d="M34.027 13.333c2.809 0 5.084 2.276 5.084 5.084v6.72c0 2.809-2.276 5.084-5.084 5.084h-12.693c0 0.693 0.569 1.707 1.262 1.707h7.627v2.987c0 2.809-2.276 5.084-5.084 5.084h-7.609c-2.809 0-5.084-2.276-5.084-5.084v-6.667c0-2.809 2.276-5.067 5.084-5.067h9.333c2.809 0 5.067-2.276 5.067-5.084v-4.764h2.098M26.418 34.293c-0.711 0-1.28 0.533-1.28 1.582s0.569 1.262 1.28 1.262c0.693 0 1.262-0.569 1.262-1.262 0-1.049-0.569-1.582-1.262-1.582M8.64 31.111c-2.809 0-5.084-2.276-5.084-5.084v-6.72c0-2.809 2.276-5.084 5.084-5.084h12.693c0-0.693-0.569-1.707-1.262-1.707h-7.627v-2.987c0-2.809 2.276-5.084 5.084-5.084h7.609c2.809 0 5.084 2.276 5.084 5.084v6.667c0 2.809-2.276 5.067-5.084 5.067h-9.333c-2.809 0-5.067 2.276-5.067 5.084v4.764h-2.098M16.249 10.151c0.711 0 1.28-0.533 1.28-1.582s-0.569-1.262-1.28-1.262c-0.693 0-1.262 0.213-1.262 1.262s0.569 1.582 1.262 1.582z"></path>
</svg>
