<!-- Generated by IcoMoon.io -->
<svg version="1.1" xmlns="http://www.w3.org/2000/svg" width="43" height="32" viewBox="0 0 43 32">
<title>language-c</title>
<path d="M27.467 28.391l0.747 4.338c-0.462 0.249-1.209 0.48-2.204 0.693-1.013 0.231-2.204 0.356-3.573 0.356-3.929-0.071-6.88-1.244-8.853-3.484-2.027-2.258-2.987-5.12-2.987-8.587 0.071-4.107 1.28-7.253 3.627-9.458 2.276-2.222 5.191-3.36 8.711-3.36 1.333 0 2.489 0.124 3.449 0.338s1.671 0.444 2.133 0.711l-1.067 4.427-1.849-0.604c-0.711-0.178-1.547-0.267-2.489-0.267-2.044-0.018-3.751 0.64-5.084 1.956-1.351 1.298-2.027 3.289-2.098 5.938 0.018 2.418 0.658 4.302 1.92 5.689 1.262 1.369 3.022 2.080 5.316 2.098l2.364-0.213c0.764-0.142 1.404-0.338 1.938-0.569z"></path>
</svg>
