<!-- Generated by IcoMoon.io -->
<svg version="1.1" xmlns="http://www.w3.org/2000/svg" width="43" height="32" viewBox="0 0 43 32">
<title>language-cpp</title>
<path d="M18.667 28.391l0.729 4.338c-0.462 0.249-1.209 0.48-2.204 0.693-1.013 0.231-2.204 0.356-3.573 0.356-3.929-0.071-6.88-1.244-8.853-3.484-1.991-2.258-2.987-5.12-2.987-8.587 0.089-4.107 1.28-7.253 3.556-9.458 2.347-2.222 5.262-3.36 8.782-3.36 1.333 0 2.489 0.124 3.449 0.338s1.671 0.444 2.133 0.711l-1.031 4.427-1.884-0.604c-0.711-0.178-1.529-0.267-2.471-0.267-2.062-0.018-3.769 0.64-5.102 1.956-1.351 1.298-2.044 3.289-2.098 5.938 0 2.418 0.658 4.302 1.92 5.689 1.262 1.369 3.040 2.080 5.316 2.098l2.364-0.213c0.764-0.142 1.404-0.338 1.956-0.569M19.556 19.556h3.556v-3.556h3.556v3.556h3.556v3.556h-3.556v3.556h-3.556v-3.556h-3.556v-3.556M32 19.556h3.556v-3.556h3.556v3.556h3.556v3.556h-3.556v3.556h-3.556v-3.556h-3.556v-3.556z"></path>
</svg>
