<!-- Generated by IcoMoon.io -->
<svg version="1.1" xmlns="http://www.w3.org/2000/svg" width="43" height="32" viewBox="0 0 43 32">
<title>language-php</title>
<path d="M21.333 32.142c-11.787 0-21.333-4.836-21.333-10.809s9.547-10.809 21.333-10.809 21.333 4.836 21.333 10.809-9.547 10.809-21.333 10.809M12.107 18.009c0.96 0 1.618 0.178 1.938 0.551 0.32 0.356 0.391 0.996 0.231 1.831-0.178 0.942-0.516 1.547-1.031 1.938-0.498 0.391-1.262 0.587-2.293 0.587h-1.547l0.942-4.907h1.76M5.884 27.876h2.56l0.604-3.111h2.187c0.96 0 1.742-0.107 2.364-0.302 0.622-0.213 1.191-0.551 1.707-1.031 0.427-0.391 0.764-0.818 1.031-1.298 0.267-0.462 0.462-0.996 0.551-1.564 0.284-1.387 0.089-2.471-0.587-3.236-0.693-0.782-1.76-1.156-3.236-1.156h-4.907l-2.276 11.698M18.773 13.067l-2.276 11.698h2.524l1.316-6.702h2.027c0.64 0 1.067 0.107 1.262 0.32s0.231 0.604 0.124 1.173l-1.013 5.209h2.578l1.049-5.458c0.231-1.102 0.053-1.902-0.48-2.418-0.533-0.48-1.511-0.711-2.933-0.711h-2.258l0.64-3.111h-2.56M32 18.009c0.978 0 1.618 0.178 1.938 0.551 0.32 0.356 0.391 0.996 0.231 1.831-0.178 0.942-0.516 1.547-1.013 1.938-0.516 0.391-1.28 0.587-2.311 0.587h-1.511l0.889-4.907h1.778M25.778 27.876h2.56l0.604-3.111h2.169c0.978 0 1.778-0.107 2.4-0.302 0.622-0.213 1.156-0.551 1.689-1.031 0.427-0.391 0.782-0.818 1.031-1.298 0.267-0.462 0.462-0.996 0.569-1.564 0.267-1.387 0.071-2.471-0.604-3.236-0.64-0.782-1.76-1.156-3.236-1.156h-4.889l-2.293 11.698z"></path>
</svg>
