<!-- Generated by IcoMoon.io -->
<svg version="1.1" xmlns="http://www.w3.org/2000/svg" width="43" height="32" viewBox="0 0 43 32">
<title>laptop-mac</title>
<path d="M21.333 33.778c-0.978 0-1.778-0.8-1.778-1.778s0.8-1.778 1.778-1.778 1.778 0.8 1.778 1.778-0.8 1.778-1.778 1.778M7.111 8.889h28.444v19.556h-28.444M35.556 32c1.956 0 3.556-1.6 3.556-3.556v-19.556c0-1.973-1.6-3.556-3.556-3.556h-28.444c-1.973 0-3.556 1.582-3.556 3.556v19.556c0 1.956 1.6 3.556 3.556 3.556h-7.111c0 1.956 1.6 3.556 3.556 3.556h35.556c1.956 0 3.556-1.6 3.556-3.556h-7.111z"></path>
</svg>
