<!-- Generated by IcoMoon.io -->
<svg version="1.1" xmlns="http://www.w3.org/2000/svg" width="43" height="32" viewBox="0 0 43 32">
<title>laptop-off</title>
<path d="M1.778 7.591l2.276-2.258 31.502 31.502-2.258 2.276-3.556-3.556h-29.742v-3.556h7.111c-1.973 0-3.556-1.6-3.556-3.556v-17.778c0-0.391 0.071-0.764 0.178-1.12l-1.956-1.956M7.111 28.444h15.52l-15.52-15.52v15.52M35.556 28.444v-17.778h-21.653l-3.556-3.556h25.209c1.956 0 3.556 1.6 3.556 3.556v17.778c0 1.956-1.6 3.556-3.556 3.556h7.111v3.556h-3.876l-7.111-7.111h3.876z"></path>
</svg>
