<!-- Generated by IcoMoon.io -->
<svg version="1.1" xmlns="http://www.w3.org/2000/svg" width="43" height="32" viewBox="0 0 43 32">
<title>led-on</title>
<path d="M19.556 0v7.111h3.556v-7.111h-3.556M32.533 4.071l-5.44 5.333 2.489 2.524 5.44-5.333-2.489-2.524M10.151 4.071l-2.524 2.524 5.333 5.333 2.524-2.524-5.333-5.333M21.333 10.667c-3.929 0-7.111 3.182-7.111 7.111v10.667h-3.556v3.556h5.333v8.889h3.556v-8.889h3.556v8.889h3.556v-8.889h5.333v-3.556h-3.556v-10.667c0-3.929-3.182-7.111-7.111-7.111M3.556 16v3.556h7.111v-3.556h-7.111M32 16v3.556h7.111v-3.556h-7.111z"></path>
</svg>
