<!-- Generated by IcoMoon.io -->
<svg version="1.1" xmlns="http://www.w3.org/2000/svg" width="43" height="32" viewBox="0 0 43 32">
<title>library-music</title>
<path d="M7.111 10.667h-3.556v24.889c0 1.956 1.6 3.556 3.556 3.556h24.889v-3.556h-24.889M32 12.444h-5.333v9.778c0 2.453-1.991 4.444-4.444 4.444s-4.444-1.991-4.444-4.444 1.991-4.444 4.444-4.444c1.013 0 1.92 0.338 2.667 0.889v-9.778h7.111M35.556 3.556h-21.333c-1.956 0-3.556 1.6-3.556 3.556v21.333c0 1.956 1.6 3.556 3.556 3.556h21.333c1.956 0 3.556-1.6 3.556-3.556v-21.333c0-1.956-1.6-3.556-3.556-3.556z"></path>
</svg>
