<!-- Generated by IcoMoon.io -->
<svg version="1.1" xmlns="http://www.w3.org/2000/svg" width="43" height="32" viewBox="0 0 43 32">
<title>library-books</title>
<path d="M33.778 12.444h-17.778v-3.556h17.778M26.667 26.667h-10.667v-3.556h10.667M33.778 19.556h-17.778v-3.556h17.778M35.556 3.556h-21.333c-1.956 0-3.556 1.6-3.556 3.556v21.333c0 1.956 1.6 3.556 3.556 3.556h21.333c1.956 0 3.556-1.6 3.556-3.556v-21.333c0-1.956-1.6-3.556-3.556-3.556M7.111 10.667h-3.556v24.889c0 1.956 1.6 3.556 3.556 3.556h24.889v-3.556h-24.889v-24.889z"></path>
</svg>
