<!-- Generated by IcoMoon.io -->
<svg version="1.1" xmlns="http://www.w3.org/2000/svg" width="43" height="32" viewBox="0 0 43 32">
<title>lightbulb</title>
<path d="M21.333 3.556c-6.88 0-12.444 5.564-12.444 12.444 0 4.231 2.116 7.947 5.333 10.204v4.018c0 0.978 0.8 1.778 1.778 1.778h10.667c0.978 0 1.778-0.8 1.778-1.778v-4.018c3.218-2.258 5.333-5.973 5.333-10.204 0-6.88-5.564-12.444-12.444-12.444M16 37.333c0 0.978 0.8 1.778 1.778 1.778h7.111c0.978 0 1.778-0.8 1.778-1.778v-1.778h-10.667v1.778z"></path>
</svg>
