<!-- Generated by IcoMoon.io -->
<svg version="1.1" xmlns="http://www.w3.org/2000/svg" width="43" height="32" viewBox="0 0 43 32">
<title>lightbulb-outline</title>
<path d="M21.333 3.556c6.88 0 12.444 5.564 12.444 12.444 0 4.231-2.116 7.947-5.333 10.204v4.018c0 0.978-0.8 1.778-1.778 1.778h-10.667c-0.978 0-1.778-0.8-1.778-1.778v-4.018c-3.218-2.258-5.333-5.973-5.333-10.204 0-6.88 5.564-12.444 12.444-12.444M16 37.333v-1.778h10.667v1.778c0 0.978-0.8 1.778-1.778 1.778h-7.111c-0.978 0-1.778-0.8-1.778-1.778M21.333 7.111c-4.907 0-8.889 3.982-8.889 8.889 0 3.644 2.187 6.773 5.333 8.142v4.302h7.111v-4.302c3.147-1.369 5.333-4.498 5.333-8.142 0-4.907-3.982-8.889-8.889-8.889z"></path>
</svg>
