<!-- Generated by IcoMoon.io -->
<svg version="1.1" xmlns="http://www.w3.org/2000/svg" width="43" height="32" viewBox="0 0 43 32">
<title>lightbulb-on</title>
<path d="M21.333 10.667c5.884 0 10.667 4.782 10.667 10.667 0 3.947-2.151 7.396-5.333 9.244v3.2c0 0.978-0.8 1.778-1.778 1.778h-7.111c-0.978 0-1.778-0.8-1.778-1.778v-3.2c-3.182-1.849-5.333-5.298-5.333-9.244 0-5.884 4.782-10.667 10.667-10.667M24.889 37.333v1.778c0 0.978-0.8 1.778-1.778 1.778h-3.556c-0.978 0-1.778-0.8-1.778-1.778v-1.778h7.111M35.556 19.556h5.333v3.556h-5.333v-3.556M1.778 19.556h5.333v3.556h-5.333v-3.556M23.111 1.778v5.333h-3.556v-5.333h3.556M8.747 6.222l3.787 3.804-2.524 2.507-3.787-3.769 2.524-2.542M30.133 10.009l3.769-3.787 2.542 2.542-3.787 3.769-2.524-2.524z"></path>
</svg>
