<!-- Generated by IcoMoon.io -->
<svg version="1.1" xmlns="http://www.w3.org/2000/svg" width="43" height="32" viewBox="0 0 43 32">
<title>linkedin</title>
<path d="M37.333 37.333h-7.111v-12c0-1.884-2.116-3.449-4-3.449s-3.111 1.564-3.111 3.449v12h-7.111v-21.333h7.111v3.556c1.173-1.902 4.196-3.129 6.222-3.129 4.444 0 8 3.627 8 8.018v12.889M12.444 37.333h-7.111v-21.333h7.111v21.333M8.889 5.333c1.956 0 3.556 1.6 3.556 3.556s-1.6 3.556-3.556 3.556-3.556-1.6-3.556-3.556 1.6-3.556 3.556-3.556z"></path>
</svg>
