<!-- Generated by IcoMoon.io -->
<svg version="1.1" xmlns="http://www.w3.org/2000/svg" width="43" height="32" viewBox="0 0 43 32">
<title>link-off</title>
<path d="M3.556 9.369l2.276-2.258 29.724 29.724-2.258 2.276-7.111-7.111h-3.076v-3.076l-5.813-5.813h-3.076v-3.076l-4.444-4.462c-1.778 1.316-2.844 3.413-2.844 5.76 0 4.018 3.271 7.289 7.289 7.289h5.333v3.378h-5.333c-5.884 0-10.667-4.782-10.667-10.667 0-3.271 1.476-6.222 3.804-8.16l-3.804-3.804M28.444 10.667c5.884 0 10.667 4.782 10.667 10.667 0 3.929-2.133 7.378-5.333 9.227l-2.489-2.524c2.613-1.102 4.444-3.68 4.444-6.702 0-4.036-3.271-7.289-7.289-7.289h-5.333v-3.378h5.333M14.222 10.667h5.333v3.378h-2.276l-3.378-3.378h0.32M28.444 19.556v3.556h-2.098l-3.556-3.556h5.653z"></path>
</svg>
