<!-- Generated by IcoMoon.io -->
<svg version="1.1" xmlns="http://www.w3.org/2000/svg" width="43" height="32" viewBox="0 0 43 32">
<title>link</title>
<path d="M28.444 10.667h-5.333v3.378h5.333c4.018 0 7.289 3.253 7.289 7.289 0 4.018-3.271 7.289-7.289 7.289h-5.333v3.378h5.333c5.884 0 10.667-4.782 10.667-10.667 0-5.902-4.782-10.667-10.667-10.667M6.933 21.333c0-4.036 3.271-7.289 7.289-7.289h5.333v-3.378h-5.333c-5.884 0-10.667 4.782-10.667 10.667s4.782 10.667 10.667 10.667h5.333v-3.378h-5.333c-4.018 0-7.289-3.271-7.289-7.289M14.222 23.111h14.222v-3.556h-14.222v3.556z"></path>
</svg>
