<!-- Generated by IcoMoon.io -->
<svg version="1.1" xmlns="http://www.w3.org/2000/svg" width="43" height="32" viewBox="0 0 43 32">
<title>link-variant</title>
<path d="M18.827 23.84c0.729 0.693 0.729 1.831 0 2.524-0.693 0.693-1.831 0.693-2.524 0-3.467-3.467-3.467-9.102 0-12.569l6.293-6.293c3.467-3.467 9.102-3.467 12.569 0s3.467 9.102 0 12.569l-2.649 2.649c0.018-1.458-0.213-2.916-0.711-4.302l0.836-0.853c2.098-2.080 2.098-5.458 0-7.538-2.080-2.098-5.458-2.098-7.538 0l-6.276 6.276c-2.098 2.080-2.098 5.458 0 7.538M23.84 16.302c0.693-0.693 1.831-0.693 2.524 0 3.467 3.467 3.467 9.102 0 12.569l-6.293 6.293c-3.467 3.467-9.102 3.467-12.569 0s-3.467-9.102 0-12.569l2.649-2.649c-0.018 1.458 0.213 2.916 0.711 4.32l-0.836 0.836c-2.098 2.080-2.098 5.458 0 7.538 2.080 2.098 5.458 2.098 7.538 0l6.276-6.276c2.098-2.080 2.098-5.458 0-7.538-0.729-0.693-0.729-1.831 0-2.524z"></path>
</svg>
