<!-- Generated by IcoMoon.io -->
<svg version="1.1" xmlns="http://www.w3.org/2000/svg" width="43" height="32" viewBox="0 0 43 32">
<title>link-variant-off</title>
<path d="M3.556 9.369l2.276-2.258 29.724 29.724-2.258 2.276-8.587-8.587-4.64 4.64c-3.467 3.467-9.102 3.467-12.569 0s-3.467-9.102 0-12.569l2.649-2.649c-0.018 1.458 0.213 2.916 0.711 4.32l-0.836 0.836c-2.098 2.080-2.098 5.458 0 7.538 2.080 2.098 5.458 2.098 7.538 0l4.658-4.622-2.88-2.862c-0.018 0.427-0.196 0.871-0.516 1.209-0.693 0.693-1.831 0.693-2.524 0-1.867-1.884-2.738-4.373-2.578-6.809l-10.169-10.187M22.596 7.502c3.467-3.467 9.102-3.467 12.569 0s3.467 9.102 0 12.569l-2.649 2.649c0.018-1.458-0.213-2.916-0.711-4.302l0.836-0.853c2.098-2.080 2.098-5.458 0-7.538-2.080-2.098-5.458-2.098-7.538 0l-5.92 5.92-2.507-2.524 5.92-5.92M23.84 16.302c0.693-0.693 1.831-0.693 2.524 0 2.436 2.436 3.164 5.92 2.187 8.996l-3.164-3.147c-0.089-1.209-0.604-2.4-1.547-3.324-0.729-0.693-0.729-1.831 0-2.524z"></path>
</svg>
