<!-- Generated by IcoMoon.io -->
<svg version="1.1" xmlns="http://www.w3.org/2000/svg" width="43" height="32" viewBox="0 0 43 32">
<title>linkedin-box</title>
<path d="M33.778 5.333c1.956 0 3.556 1.6 3.556 3.556v24.889c0 1.956-1.6 3.556-3.556 3.556h-24.889c-1.956 0-3.556-1.6-3.556-3.556v-24.889c0-1.956 1.6-3.556 3.556-3.556h24.889M32.889 32.889v-9.422c0-3.2-2.596-5.796-5.796-5.796-1.511 0-3.271 0.924-4.124 2.311v-1.973h-4.96v14.88h4.96v-8.764c0-1.369 1.102-2.489 2.471-2.489s2.489 1.12 2.489 2.489v8.764h4.96M12.231 15.218c1.653 0 2.987-1.333 2.987-2.987s-1.333-3.004-2.987-3.004c-1.653 0-3.004 1.351-3.004 3.004s1.351 2.987 3.004 2.987M14.702 32.889v-14.88h-4.924v14.88h4.924z"></path>
</svg>
