<!-- Generated by IcoMoon.io -->
<svg version="1.1" xmlns="http://www.w3.org/2000/svg" width="43" height="32" viewBox="0 0 43 32">
<title>linux</title>
<path d="M23.431 25.778c-1.156 1.351-3.040 1.351-4.196 0l-6.009-7.111c-0.498 1.387-0.782 2.88-0.782 4.444 0 2.969 1.013 5.653 2.667 7.591 2.667 0.178 4.96 1.227 5.831 3.076h0.782c0.871-1.778 3.076-2.773 5.76-2.969 1.689-1.938 2.738-4.676 2.738-7.698 0-1.564-0.284-3.058-0.782-4.444l-6.009 7.111M35.556 36.889c0 0.978-1.244 2.222-2.222 2.222h-9.778c-0.978 0-2.222-1.244-2.222-2.222 0 0.978-1.244 2.222-2.222 2.222h-9.778c-0.978 0-2.222-1.244-2.222-2.222 0-2.311 1.671-4.338 4.089-5.511-1.422-2.329-2.311-5.191-2.311-8.267-1.778 3.556-4.089 4.551-5.173 3.556-1.049-0.996-0.533-3.858 1.796-6.382 1.316-1.44 3.378-3.182 4.818-3.84 0.569-1.227 1.298-2.347 2.116-3.324v-0.676c0-4.907 3.982-8.889 8.889-8.889s8.889 3.982 8.889 8.889v0.676c0.818 0.978 1.547 2.098 2.116 3.324 1.44 0.658 3.502 2.4 4.818 3.84 2.329 2.524 2.844 5.387 1.796 6.382-1.084 0.996-3.396 0-5.173-3.556 0 3.111-0.889 5.991-2.364 8.338 2.453 1.138 4.142 3.111 4.142 5.44M17.564 16c-0.747 0.889-0.747 2.258 0 3.111l2.222 2.667c0.729 0.853 1.92 0.853 2.667 0l2.222-2.667c0.729-0.853 0.729-2.222 0-3.111h-7.111M17.778 9.333c-0.978 0-1.778 1.156-1.778 3.111s0.8 3.111 1.778 3.111 1.778-1.156 1.778-3.111-0.8-3.111-1.778-3.111M24.889 9.333c-0.978 0-1.778 1.156-1.778 3.111s0.8 3.111 1.778 3.111 1.778-1.156 1.778-3.111-0.8-3.111-1.778-3.111z"></path>
</svg>
