<!-- Generated by IcoMoon.io -->
<svg version="1.1" xmlns="http://www.w3.org/2000/svg" width="43" height="32" viewBox="0 0 43 32">
<title>lock-plus</title>
<path d="M32 14.222h-1.778v-3.556c0-4.907-3.982-8.889-8.889-8.889s-8.889 3.982-8.889 8.889v3.556h-1.778c-1.956 0-3.556 1.6-3.556 3.556v17.778c0 1.956 1.6 3.556 3.556 3.556h21.333c1.956 0 3.556-1.6 3.556-3.556v-17.778c0-1.956-1.6-3.556-3.556-3.556M15.822 10.667c0-3.040 2.471-5.511 5.511-5.511s5.511 2.471 5.511 5.511v3.556h-11.022v-3.556M28.444 28.444h-5.333v5.333h-3.556v-5.333h-5.333v-3.556h5.333v-5.333h3.556v5.333h5.333v3.556z"></path>
</svg>
