<!-- Generated by IcoMoon.io -->
<svg version="1.1" xmlns="http://www.w3.org/2000/svg" width="43" height="32" viewBox="0 0 43 32">
<title>lock-reset</title>
<path d="M22.453 3.556c9.831 0 17.796 8 17.796 17.778s-7.964 17.778-17.796 17.778c-6.24 0-11.698-3.236-14.88-8.124l2.809-2.222c2.507 4.071 6.969 6.791 12.089 6.791 7.858 0 14.222-6.364 14.222-14.222s-6.364-14.222-14.222-14.222c-7.253 0-13.227 5.44-14.098 12.444h4.907l-6.649 6.631-6.631-6.631h4.782c0.889-8.978 8.462-16 17.671-16M27.716 18.204c0.889 0.018 1.618 0.729 1.618 1.636v8.196c0 0.889-0.729 1.636-1.636 1.636h-9.831c-0.907 0-1.636-0.747-1.636-1.636v-8.196c0-0.907 0.729-1.618 1.618-1.636v-1.796c0-2.72 2.222-4.924 4.924-4.924 2.72 0 4.942 2.204 4.942 4.924v1.796M22.773 13.973c-1.333 0-2.436 1.084-2.436 2.436v1.796h4.889v-1.796c0-1.351-1.102-2.436-2.453-2.436z"></path>
</svg>
