<!-- Generated by IcoMoon.io -->
<svg version="1.1" xmlns="http://www.w3.org/2000/svg" width="43" height="32" viewBox="0 0 43 32">
<title>lock-open-outline</title>
<path d="M32 35.556v-17.778h-21.333v17.778h21.333M32 14.222c1.956 0 3.556 1.6 3.556 3.556v17.778c0 1.956-1.6 3.556-3.556 3.556h-21.333c-1.973 0-3.556-1.6-3.556-3.556v-17.778c0-1.956 1.6-3.556 3.556-3.556h16v-3.556c0-2.951-2.382-5.333-5.333-5.333s-5.333 2.382-5.333 5.333h-3.556c0-4.907 3.982-8.889 8.889-8.889s8.889 3.982 8.889 8.889v3.556h1.778M21.333 30.222c-1.956 0-3.556-1.6-3.556-3.556s1.6-3.556 3.556-3.556 3.556 1.6 3.556 3.556-1.6 3.556-3.556 3.556z"></path>
</svg>
