<!-- Generated by IcoMoon.io -->
<svg version="1.1" xmlns="http://www.w3.org/2000/svg" width="43" height="32" viewBox="0 0 43 32">
<title>lock-pattern</title>
<path d="M12.444 5.333c3.929 0 7.111 3.182 7.111 7.111 0 3.307-2.258 6.098-5.333 6.88v4.018c0.658 0.16 1.28 0.427 1.849 0.764l8.036-8.036c-0.64-1.067-0.996-2.293-0.996-3.627 0-3.929 3.182-7.111 7.111-7.111s7.111 3.182 7.111 7.111-3.182 7.111-7.111 7.111c-1.316 0-2.542-0.356-3.556-0.978l-8.089 8.089c0.622 1.013 0.978 2.24 0.978 3.556 0 3.929-3.182 7.111-7.111 7.111s-7.111-3.182-7.111-7.111c0-3.307 2.258-6.098 5.333-6.88v-4.018c-3.076-0.782-5.333-3.573-5.333-6.88 0-3.929 3.182-7.111 7.111-7.111M30.222 23.111c3.929 0 7.111 3.182 7.111 7.111s-3.182 7.111-7.111 7.111-7.111-3.182-7.111-7.111 3.182-7.111 7.111-7.111M30.222 26.667c-1.956 0-3.556 1.6-3.556 3.556s1.6 3.556 3.556 3.556 3.556-1.6 3.556-3.556-1.6-3.556-3.556-3.556z"></path>
</svg>
