<!-- Generated by IcoMoon.io -->
<svg version="1.1" xmlns="http://www.w3.org/2000/svg" width="43" height="32" viewBox="0 0 43 32">
<title>magnify-minus-outline</title>
<path d="M27.556 24.889h-1.404l-0.498-0.48c1.742-2.027 2.791-4.658 2.791-7.52 0-6.382-5.173-11.556-11.556-11.556s-11.556 5.173-11.556 11.556 5.173 11.556 11.556 11.556c2.862 0 5.493-1.049 7.52-2.791l0.48 0.498v1.404l8.889 8.889 2.667-2.667-8.889-8.889M16.889 24.889c-4.444 0-8-3.556-8-8s3.556-8 8-8 8 3.556 8 8-3.556 8-8 8M12.444 16h8.889v1.778h-8.889v-1.778z"></path>
</svg>
