<!-- Generated by IcoMoon.io -->
<svg version="1.1" xmlns="http://www.w3.org/2000/svg" width="43" height="32" viewBox="0 0 43 32">
<title>magnify-plus-outline</title>
<path d="M27.556 24.889l8.889 8.889-2.667 2.667-8.889-8.889v-1.404l-0.48-0.498c-2.027 1.742-4.658 2.791-7.52 2.791-6.382 0-11.556-5.173-11.556-11.556s5.173-11.556 11.556-11.556 11.556 5.173 11.556 11.556c0 2.862-1.049 5.493-2.791 7.52l0.498 0.48h1.404M16.889 24.889c4.444 0 8-3.556 8-8s-3.556-8-8-8-8 3.556-8 8 3.556 8 8 8M21.333 17.778h-3.556v3.556h-1.778v-3.556h-3.556v-1.778h3.556v-3.556h1.778v3.556h3.556v1.778z"></path>
</svg>
