<!-- Generated by IcoMoon.io -->
<svg version="1.1" xmlns="http://www.w3.org/2000/svg" width="43" height="32" viewBox="0 0 43 32">
<title>mail-ru</title>
<path d="M27.467 21.173c-0.196-3.929-3.111-6.293-6.631-6.293h-0.142c-4.071 0-6.311 3.2-6.311 6.827 0 4.071 2.72 6.649 6.293 6.649 4 0 6.613-2.933 6.809-6.382M20.711 11.36c2.72 0 5.28 1.209 7.147 3.093 0-0.907 0.587-1.582 1.476-1.582h0.196c1.316 0 1.582 1.244 1.582 1.636v14.044c-0.071 0.924 0.96 1.387 1.547 0.782 2.258-2.293 4.942-11.893-1.404-17.44-5.92-5.191-13.867-4.338-18.098-1.422-4.48 3.093-7.36 9.973-4.569 16.391 3.040 7.022 11.751 9.12 16.924 7.022 2.631-1.049 3.822 2.489 1.156 3.644-4.16 1.76-15.591 1.582-20.942-7.68-3.609-6.258-3.431-17.262 6.151-22.969 7.342-4.356 16.996-3.147 22.791 2.898 6.133 6.4 5.778 18.311-0.178 22.951-2.684 2.098-6.684 0.053-6.649-3.022l-0.036-0.996c-1.867 1.867-4.373 2.951-7.093 2.951-5.369 0-10.044-4.729-10.044-10.098 0-5.422 4.676-10.204 10.044-10.204z"></path>
</svg>
