<!-- Generated by IcoMoon.io -->
<svg version="1.1" xmlns="http://www.w3.org/2000/svg" width="43" height="32" viewBox="0 0 43 32">
<title>map-marker-multiple</title>
<path d="M24.889 20.444c2.453 0 4.444-1.991 4.444-4.444s-1.991-4.444-4.444-4.444-4.444 1.991-4.444 4.444 1.991 4.444 4.444 4.444M24.889 3.556c6.862 0 12.444 5.564 12.444 12.444 0 9.333-12.444 23.111-12.444 23.111s-12.444-13.778-12.444-23.111c0-6.88 5.564-12.444 12.444-12.444M8.889 16c0 8 9.031 18.951 10.667 20.996l-1.778 2.116s-12.444-13.778-12.444-23.111c0-5.636 3.751-10.4 8.889-11.929-3.271 2.933-5.333 7.182-5.333 11.929z"></path>
</svg>
