<!-- Generated by IcoMoon.io -->
<svg version="1.1" xmlns="http://www.w3.org/2000/svg" width="43" height="32" viewBox="0 0 43 32">
<title>map-marker-circle</title>
<path d="M21.333 35.556c-7.858 0-14.222-6.364-14.222-14.222s6.364-14.222 14.222-14.222 14.222 6.364 14.222 14.222-6.364 14.222-14.222 14.222M21.333 3.556c-9.813 0-17.778 7.964-17.778 17.778s7.964 17.778 17.778 17.778 17.778-7.964 17.778-17.778-7.964-17.778-17.778-17.778M21.333 22.222c-1.476 0-2.667-1.191-2.667-2.667s1.191-2.667 2.667-2.667 2.667 1.191 2.667 2.667-1.191 2.667-2.667 2.667M21.333 12.8c-3.733 0-6.756 3.022-6.756 6.756 0 5.333 6.756 11.556 6.756 11.556s6.756-6.222 6.756-11.556c0-3.733-3.022-6.756-6.756-6.756z"></path>
</svg>
