<!-- Generated by IcoMoon.io -->
<svg version="1.1" xmlns="http://www.w3.org/2000/svg" width="43" height="32" viewBox="0 0 43 32">
<title>map-marker-plus</title>
<path d="M16 20.444c2.453 0 4.444-1.991 4.444-4.444s-1.991-4.444-4.444-4.444-4.444 1.991-4.444 4.444 1.991 4.444 4.444 4.444M16 3.556c6.862 0 12.444 5.564 12.444 12.444 0 9.333-12.444 23.111-12.444 23.111s-12.444-13.778-12.444-23.111c0-6.88 5.564-12.444 12.444-12.444M26.667 30.222h5.333v-5.333h3.556v5.333h5.333v3.556h-5.333v5.333h-3.556v-5.333h-5.333v-3.556z"></path>
</svg>
