<!-- Generated by IcoMoon.io -->
<svg version="1.1" xmlns="http://www.w3.org/2000/svg" width="43" height="32" viewBox="0 0 43 32">
<title>map-marker-off</title>
<path d="M29.102 28.622l-8.409-8.427-14.88-14.862-2.258 2.258 5.653 5.653c-0.213 0.889-0.32 1.796-0.32 2.756 0 9.333 12.444 23.111 12.444 23.111s2.969-3.289 5.991-7.733l5.973 5.956 2.258-2.276M21.333 11.556c2.453 0 4.444 1.991 4.444 4.444 0 1.298-0.587 2.471-1.476 3.289l6.453 6.489c1.742-3.342 3.022-6.791 3.022-9.778 0-6.88-5.564-12.444-12.444-12.444-3.556 0-6.684 1.458-8.96 3.804l5.671 5.671c0.818-0.907 1.973-1.476 3.289-1.476z"></path>
</svg>
