<!-- Generated by IcoMoon.io -->
<svg version="1.1" xmlns="http://www.w3.org/2000/svg" width="43" height="32" viewBox="0 0 43 32">
<title>map-marker-radius</title>
<path d="M21.333 3.556c5.884 0 10.667 4.729 10.667 10.578 0 7.929-10.667 19.644-10.667 19.644s-10.667-11.716-10.667-19.644c0-5.849 4.782-10.578 10.667-10.578M21.333 10.667c-1.956 0-3.556 1.6-3.556 3.556s1.6 3.556 3.556 3.556 3.556-1.6 3.556-3.556-1.6-3.556-3.556-3.556M35.556 33.778c0 3.929-6.364 7.111-14.222 7.111s-14.222-3.182-14.222-7.111c0-2.293 2.169-4.338 5.529-5.636l1.138 1.618c-1.92 0.8-3.111 1.902-3.111 3.129 0 2.453 4.782 4.444 10.667 4.444s10.667-1.991 10.667-4.444c0-1.227-1.191-2.329-3.111-3.129l1.138-1.618c3.36 1.298 5.529 3.342 5.529 5.636z"></path>
</svg>
