<!-- Generated by IcoMoon.io -->
<svg version="1.1" xmlns="http://www.w3.org/2000/svg" width="43" height="32" viewBox="0 0 43 32">
<title>margin</title>
<path d="M26.009 12.053l-3.076-1.778 9.956-6.578-0.711 11.911-3.076-1.778-13.582 23.502h-4.107l14.596-25.28M31.111 21.333c3.431 0 6.222 3.093 6.222 8s-2.791 8-6.222 8-6.222-3.093-6.222-8 2.791-8 6.222-8M31.111 24.889c-1.476 0-2.667 1.493-2.667 4.444s1.191 4.444 2.667 4.444 2.667-1.493 2.667-4.444c0-2.951-1.191-4.444-2.667-4.444M13.333 8.889c3.431 0 6.222 3.093 6.222 8s-2.791 8-6.222 8-6.222-3.093-6.222-8 2.791-8 6.222-8M13.333 12.444c-1.476 0-2.667 1.493-2.667 4.444s1.191 4.444 2.667 4.444 2.667-1.493 2.667-4.444c0-2.951-1.191-4.444-2.667-4.444z"></path>
</svg>
