<!-- Generated by IcoMoon.io -->
<svg version="1.1" xmlns="http://www.w3.org/2000/svg" width="43" height="32" viewBox="0 0 43 32">
<title>math-compass</title>
<path d="M23.111 7.467v-2.133c0-1.067-0.711-1.778-1.778-1.778v3.911c-3.911 0.711-5.333 2.667-5.333 4.978 0 1.422 0.533 2.667 1.422 3.556l-10.311 19.378v3.733l3.911-3.556 9.6-17.778h0.711c3.022 0 5.333-2.311 5.333-5.333 0-2.311-1.422-4.267-3.556-4.978M22.933 13.333c-0.356 0.533-0.889 0.889-1.6 0.889-1.067 0-1.778-0.711-1.778-1.778 0-0.356 0.178-0.533 0.178-0.889 0.356-0.533 0.889-0.889 1.6-0.889 1.067 0 1.778 0.711 1.778 1.778 0 0.356-0.178 0.533-0.178 0.889M35.556 35.378v3.733l-3.911-3.556-7.822-14.578c1.244-0.356 2.311-0.889 3.2-1.6l8.533 16z"></path>
</svg>
