<!-- Generated by IcoMoon.io -->
<svg version="1.1" xmlns="http://www.w3.org/2000/svg" width="43" height="32" viewBox="0 0 43 32">
<title>matrix</title>
<path d="M3.556 3.556h7.111v3.556h-3.556v28.444h3.556v3.556h-7.111v-35.556M35.556 7.111h-3.556v-3.556h7.111v35.556h-7.111v-3.556h3.556v-28.444M16 8.889h1.778v8.889h1.778v1.778h-5.333v-1.778h1.778v-7.111l-1.778 0.889v-1.778l1.778-0.889M26.667 23.111h1.778v8.889h1.778v1.778h-5.333v-1.778h1.778v-7.111l-1.778 0.889v-1.778l1.778-0.889M16 23.111c1.956 0 3.556 2.382 3.556 5.333s-1.6 5.333-3.556 5.333-3.556-2.382-3.556-5.333 1.6-5.333 3.556-5.333M16 24.889c-0.978 0-1.778 1.6-1.778 3.556s0.8 3.556 1.778 3.556 1.778-1.6 1.778-3.556-0.8-3.556-1.778-3.556M26.667 8.889c1.956 0 3.556 2.382 3.556 5.333s-1.6 5.333-3.556 5.333-3.556-2.382-3.556-5.333 1.6-5.333 3.556-5.333M26.667 10.667c-0.978 0-1.778 1.6-1.778 3.556s0.8 3.556 1.778 3.556 1.778-1.6 1.778-3.556-0.8-3.556-1.778-3.556z"></path>
</svg>
