<!-- Generated by IcoMoon.io -->
<svg version="1.1" xmlns="http://www.w3.org/2000/svg" width="43" height="32" viewBox="0 0 43 32">
<title>medical-bag</title>
<path d="M17.778 5.333l-3.556 3.556v3.556h-5.333c-2.044 0-3.342 1.778-3.556 3.556l-1.778 17.778c-0.213 1.778 0.96 3.556 3.556 3.556h28.444c2.596 0 3.769-1.778 3.556-3.556l-1.778-17.778c-0.213-1.778-1.671-3.556-3.556-3.556h-5.333v-3.556l-3.556-3.556h-7.111M17.778 8.889h7.111v3.556h-7.111v-3.556M19.556 17.778h3.556v5.333h5.333v3.556h-5.333v5.333h-3.556v-5.333h-5.333v-3.556h5.333v-5.333z"></path>
</svg>
