<!-- Generated by IcoMoon.io -->
<svg version="1.1" xmlns="http://www.w3.org/2000/svg" width="43" height="32" viewBox="0 0 43 32">
<title>medium</title>
<path d="M38.987 11.769l-10.738 17.511-7.68-12.516 6.098-9.938c0.302-0.462 0.889-0.658 1.387-0.516l10.933 5.458M39.111 35.164c0 1.013-0.889 1.404-1.973 0.853l-8.373-4.178 10.347-16.889v20.213M16 35.449c0 0.996-0.764 1.458-1.653 0.996l-9.813-4.871c-0.533-0.284-0.978-0.996-0.978-1.6v-22.613c0-0.8 0.587-1.138 1.316-0.818l10.596 5.298 0.533 0.818v22.791M27.182 31.040l-9.404-4.711v-10.667l9.404 15.378z"></path>
</svg>
