<!-- Generated by IcoMoon.io -->
<svg version="1.1" xmlns="http://www.w3.org/2000/svg" width="43" height="32" viewBox="0 0 43 32">
<title>memory</title>
<path d="M30.222 30.222h-17.778v-17.778h17.778M37.333 19.556v-3.556h-3.556v-3.556c0-1.973-1.6-3.556-3.556-3.556h-3.556v-3.556h-3.556v3.556h-3.556v-3.556h-3.556v3.556h-3.556c-1.973 0-3.556 1.582-3.556 3.556v3.556h-3.556v3.556h3.556v3.556h-3.556v3.556h3.556v3.556c0 1.956 1.6 3.556 3.556 3.556h3.556v3.556h3.556v-3.556h3.556v3.556h3.556v-3.556h3.556c1.956 0 3.556-1.6 3.556-3.556v-3.556h3.556v-3.556h-3.556v-3.556M23.111 23.111h-3.556v-3.556h3.556M26.667 16h-10.667v10.667h10.667v-10.667z"></path>
</svg>
