<!-- Generated by IcoMoon.io -->
<svg version="1.1" xmlns="http://www.w3.org/2000/svg" width="43" height="32" viewBox="0 0 43 32">
<title>message-settings-variant</title>
<path d="M24 17.778c0 1.476-1.191 2.667-2.667 2.667-1.493 0-2.667-1.191-2.667-2.667s1.191-2.667 2.667-2.667 2.667 1.191 2.667 2.667M39.111 7.111v21.333c0 1.956-1.6 3.556-3.556 3.556h-24.889l-7.111 7.111v-32c0-1.956 1.6-3.556 3.556-3.556h28.444c1.956 0 3.556 1.6 3.556 3.556M29.813 20.124l-1.902-1.458c0.018-0.302 0.018-0.604 0-0.889 0.036-0.284 0.036-0.587 0-0.889l1.884-1.458c0.16-0.142 0.213-0.373 0.107-0.569l-1.778-3.076c-0.107-0.231-0.338-0.284-0.569-0.231l-2.187 0.889c-0.48-0.356-0.96-0.658-1.511-0.889l-0.338-2.329c-0.036-0.196-0.213-0.338-0.409-0.338h-3.556c-0.213 0-0.409 0.16-0.444 0.373l-0.338 2.347c-0.533 0.213-1.049 0.498-1.529 0.836l-2.204-0.889c-0.213-0.071-0.444 0-0.551 0.196l-1.778 3.076c-0.107 0.196-0.071 0.427 0.107 0.569l1.884 1.493c-0.071 0.569-0.071 1.173 0 1.778l-1.884 1.458c-0.16 0.142-0.213 0.373-0.107 0.569l1.778 3.076c0.107 0.231 0.338 0.284 0.551 0.231l2.204-0.889c0.462 0.356 0.96 0.658 1.511 0.889l0.338 2.329c0.053 0.213 0.249 0.338 0.462 0.338h3.556c0.213 0 0.409-0.16 0.444-0.373l0.338-2.347c0.533-0.231 0.996-0.516 1.493-0.836l2.222 0.889c0.213 0 0.444 0 0.551-0.231l1.778-3.076c0.107-0.196 0.053-0.427-0.124-0.569z"></path>
</svg>
