<!-- Generated by IcoMoon.io -->
<svg version="1.1" xmlns="http://www.w3.org/2000/svg" width="43" height="32" viewBox="0 0 43 32">
<title>meteor</title>
<path d="M4.978 5.333l29.991 28.124s0.587 0.8-0.16 1.582c-0.729 0.782-1.689 0.107-1.689 0.107l-28.142-29.813M13.884 8.16l23.289 21.422s0.569 0.782-0.16 1.529c-0.747 0.836-1.707 0.16-1.707 0.16l-21.422-23.111M7.627 14.222l23.289 21.387s0.569 0.782-0.16 1.564c-0.747 0.8-1.707 0.16-1.707 0.16l-21.422-23.111M21.422 10.596l16.267 14.951s0.391 0.551-0.124 1.12c-0.498 0.533-1.173 0.053-1.173 0.053l-14.969-16.124M9.689 21.173l16.267 14.969s0.391 0.551-0.107 1.102c-0.516 0.551-1.191 0.089-1.191 0.089l-14.969-16.16M29.12 14.080l7.413 6.791s0.196 0.249-0.089 0.516c-0.213 0.249-0.551 0.036-0.551 0.036l-6.773-7.342M13.44 28.622l7.431 6.773s0.196 0.267-0.071 0.516c-0.249 0.267-0.587 0.036-0.587 0.036l-6.773-7.324z"></path>
</svg>
