<!-- Generated by IcoMoon.io -->
<svg version="1.1" xmlns="http://www.w3.org/2000/svg" width="43" height="32" viewBox="0 0 43 32">
<title>microphone-outline</title>
<path d="M30.756 19.556c0 5.333-4.516 9.067-9.422 9.067s-9.422-3.733-9.422-9.067h-3.022c0 6.062 4.836 11.076 10.667 11.947v5.831h3.556v-5.831c5.831-0.871 10.667-5.884 10.667-11.947M19.2 8.711c0-1.173 0.96-2.133 2.133-2.133s2.133 0.96 2.133 2.133l-0.018 11.022c0 1.173-0.942 2.133-2.116 2.133s-2.133-0.96-2.133-2.133M21.333 24.889c2.951 0 5.333-2.382 5.333-5.333v-10.667c0-2.951-2.382-5.333-5.333-5.333s-5.333 2.382-5.333 5.333v10.667c0 2.951 2.382 5.333 5.333 5.333z"></path>
</svg>
