<!-- Generated by IcoMoon.io -->
<svg version="1.1" xmlns="http://www.w3.org/2000/svg" width="43" height="32" viewBox="0 0 43 32">
<title>microphone-settings</title>
<path d="M33.778 17.778h-3.022c0 5.333-4.516 9.067-9.422 9.067s-9.422-3.733-9.422-9.067h-3.022c0 6.062 4.836 11.076 10.667 11.947v5.831h3.556v-5.831c5.831-0.871 10.667-5.884 10.667-11.947M26.667 42.667h3.556v-3.556h-3.556M19.556 42.667h3.556v-3.556h-3.556M21.333 23.111c2.951 0 5.333-2.382 5.333-5.333v-10.667c0-2.951-2.382-5.333-5.333-5.333s-5.333 2.382-5.333 5.333v10.667c0 2.951 2.382 5.333 5.333 5.333M12.444 42.667h3.556v-3.556h-3.556v3.556z"></path>
</svg>
