<!-- Generated by IcoMoon.io -->
<svg version="1.1" xmlns="http://www.w3.org/2000/svg" width="43" height="32" viewBox="0 0 43 32">
<title>microphone-variant</title>
<path d="M16 5.333c3.929 0 7.111 3.182 7.111 7.111h-14.222c0-3.929 3.182-7.111 7.111-7.111M21.049 17.458l-1.493 14.542h-1.778v1.778c0 1.956 1.6 3.556 3.556 3.556s3.556-1.6 3.556-3.556v-8.889c0-3.929 3.182-7.111 7.111-7.111h3.556l-1.778 1.778 1.778 1.778h-3.556c-1.956 0-3.556 1.6-3.556 3.556v8.889c0 3.929-3.182 7.111-7.111 7.111s-7.111-3.182-7.111-7.111v-1.778h-1.778l-1.493-14.542c-0.871-0.889-1.511-1.991-1.831-3.236h13.76c-0.32 1.244-0.96 2.347-1.831 3.236M16 19.556c-0.978 0-1.778 0.8-1.778 1.778s0.8 1.778 1.778 1.778 1.778-0.8 1.778-1.778-0.8-1.778-1.778-1.778z"></path>
</svg>
