<!-- Generated by IcoMoon.io -->
<svg version="1.1" xmlns="http://www.w3.org/2000/svg" width="43" height="32" viewBox="0 0 43 32">
<title>microscope</title>
<path d="M16.818 11.164l2.827 4.836c-4.587 0.462-8.089 4.284-8.089 8.889 0 4.907 3.982 8.889 8.889 8.889 3.644 0 6.773-2.187 8.142-5.333h-4.587v-3.556h14.222v3.556h-4c-0.729 2.791-2.276 5.262-4.373 7.111h4.818v3.556h-28.444v-3.556h4.818c-2.951-2.613-4.818-6.418-4.818-10.667 0-6.453 4.373-12.089 10.596-13.724M22.649 3.68l1.351 2.311 1.529-0.889 6.222 10.773-6.169 3.556-6.222-10.773 1.547-0.889-1.351-2.311 3.093-1.778z"></path>
</svg>
