<!-- Generated by IcoMoon.io -->
<svg version="1.1" xmlns="http://www.w3.org/2000/svg" width="43" height="32" viewBox="0 0 43 32">
<title>microphone-off</title>
<path d="M33.778 19.556c0 2.116-0.604 4.089-1.6 5.831l-2.187-2.187c0.48-1.102 0.764-2.329 0.764-3.644h3.022M26.667 19.84l-10.667-10.631v-0.32c0-2.951 2.382-5.333 5.333-5.333s5.333 2.382 5.333 5.333v10.951M7.591 5.333l29.742 29.742-2.258 2.258-7.449-7.449c-1.369 0.818-2.898 1.369-4.516 1.618v5.831h-3.556v-5.831c-5.831-0.871-10.667-5.884-10.667-11.947h3.022c0 5.333 4.516 9.067 9.422 9.067 1.44 0 2.844-0.338 4.107-0.924l-2.951-2.951-1.156 0.142c-2.951 0-5.333-2.382-5.333-5.333v-1.28l-10.667-10.684 2.258-2.258z"></path>
</svg>
