<!-- Generated by IcoMoon.io -->
<svg version="1.1" xmlns="http://www.w3.org/2000/svg" width="43" height="32" viewBox="0 0 43 32">
<title>microphone-variant-off</title>
<path d="M3.556 9.369l2.276-2.258 29.724 29.724-2.258 2.276-4.853-4.871c-0.249 3.716-3.342 6.649-7.111 6.649-3.929 0-7.111-3.182-7.111-7.111v-1.778h-1.778l-1.493-14.542c-0.604-0.622-1.12-1.351-1.476-2.169l-5.92-5.92M16 5.333c3.929 0 7.111 3.182 7.111 7.111h-7.431l-4.871-4.871c1.298-1.351 3.147-2.24 5.191-2.24M21.049 17.458l-0.036 0.32-3.556-3.556h5.422c-0.32 1.244-0.96 2.347-1.831 3.236M19.556 32h-1.778v1.778c0 1.956 1.6 3.556 3.556 3.556s3.556-1.6 3.556-3.556v-3.076l-4.711-4.711-0.622 6.009M32 17.778h3.556l-1.778 1.778 1.778 1.778h-3.556c-1.956 0-3.556 1.6-3.556 3.556v0.32l-3.022-2.987c1.067-2.667 3.609-4.444 6.578-4.444M14.222 21.333c0 0.978 0.8 1.778 1.778 1.778 0.373 0 0.711-0.107 0.996-0.302l-2.471-2.471c-0.196 0.284-0.302 0.622-0.302 0.996z"></path>
</svg>
