<!-- Generated by IcoMoon.io -->
<svg version="1.1" xmlns="http://www.w3.org/2000/svg" width="43" height="32" viewBox="0 0 43 32">
<title>mixcloud</title>
<path d="M37.529 32.889c-0.249 0-0.498-0.107-0.711-0.249-0.604-0.409-0.764-1.209-0.373-1.813 1.209-1.778 1.849-3.876 1.849-6.062 0-2.169-0.64-4.267-1.849-6.098-0.391-0.569-0.231-1.369 0.373-1.778 0.587-0.391 1.404-0.231 1.796 0.356 1.493 2.222 2.276 4.818 2.276 7.52s-0.782 5.298-2.276 7.52c-0.249 0.373-0.658 0.604-1.084 0.604M33.778 30.738c-0.213 0-0.462-0.071-0.693-0.213-0.587-0.409-0.747-1.191-0.338-1.813 0.782-1.156 1.209-2.524 1.209-3.947 0-1.404-0.427-2.773-1.209-3.947-0.409-0.604-0.249-1.404 0.338-1.813 0.604-0.391 1.404-0.249 1.813 0.356 1.084 1.6 1.653 3.467 1.653 5.404 0 1.902-0.569 3.804-1.653 5.404-0.231 0.373-0.676 0.569-1.12 0.569M26.489 27.964c1.76 0 3.2-1.44 3.2-3.2 0-1.351-0.853-2.542-2.044-2.987-0.089 0.533-0.213 1.067-0.373 1.582-0.196 0.533-0.693 0.889-1.244 0.889-0.124 0-0.249-0.036-0.409-0.071-0.676-0.231-1.049-0.96-0.818-1.653 0.249-0.764 0.391-1.582 0.391-2.4 0-4.249-3.467-7.68-7.733-7.68-3.058 0-5.796 1.778-7.022 4.444 1.191 0.356 2.293 0.96 3.182 1.849 0.516 0.516 0.516 1.333 0 1.849-0.498 0.498-1.333 0.498-1.831 0-0.818-0.818-1.902-1.28-3.076-1.28-2.382 0-4.338 1.956-4.338 4.338s1.956 4.32 4.338 4.32h17.778M27.733 19.111c2.596 0.569 4.569 2.88 4.569 5.653 0 3.2-2.613 5.796-5.813 5.796h-17.778c-3.822 0-6.933-3.093-6.933-6.916 0-3.484 2.578-6.347 5.92-6.844 1.404-4.142 5.333-7.022 9.76-7.022 5.351 0 9.76 4.124 10.276 9.333z"></path>
</svg>
