<!-- Generated by IcoMoon.io -->
<svg version="1.1" xmlns="http://www.w3.org/2000/svg" width="43" height="32" viewBox="0 0 43 32">
<title>more</title>
<path d="M33.778 24c-1.476 0-2.667-1.191-2.667-2.667s1.191-2.667 2.667-2.667 2.667 1.191 2.667 2.667-1.191 2.667-2.667 2.667M24.889 24c-1.476 0-2.667-1.191-2.667-2.667s1.191-2.667 2.667-2.667 2.667 1.191 2.667 2.667-1.191 2.667-2.667 2.667M16 24c-1.476 0-2.667-1.191-2.667-2.667s1.191-2.667 2.667-2.667 2.667 1.191 2.667 2.667-1.191 2.667-2.667 2.667M39.111 5.333h-26.667c-1.227 0-2.187 0.622-2.827 1.564l-9.618 14.436 9.618 14.418c0.64 0.942 1.707 1.582 2.933 1.582h26.56c1.956 0 3.556-1.6 3.556-3.556v-24.889c0-1.973-1.6-3.556-3.556-3.556z"></path>
</svg>
