<!-- Generated by IcoMoon.io -->
<svg version="1.1" xmlns="http://www.w3.org/2000/svg" width="43" height="32" viewBox="0 0 43 32">
<title>motorbike</title>
<path d="M29.084 7.591h3.893v-3.804h-3.893v-1.884h3.307c-0.587-1.138-1.938-1.902-3.307-1.902-2.133 0-3.876 1.707-3.876 3.787 0 2.098 1.742 3.804 3.876 3.804M17.849 16.693l5.262-4.373 7.911 4.747h-12.8M34.72 21.422l2.702-2.649c1.564-1.511 1.564-3.787 0-5.316l-3.289 3.236-9.316-9.102c-0.569-0.96-1.707-1.529-2.898-1.529-0.978 0-1.742 0.391-2.364 0.96l-7.111 7.004c-0.622 0.569-0.996 1.333-0.996 2.276v0.96h-2.329c-1.938 0-3.502 1.707-3.502 3.787v0.764c0.604-0.196 1.369-0.196 1.938-0.196 5.049 0 9.333 3.982 9.333 9.102 0 0.569 0 1.333-0.213 1.902h9.102c-0.178-0.569-0.178-1.333-0.178-1.902 0-5.316 4.071-9.298 9.12-9.298M7.751 35.076c-2.702 0-4.836-2.080-4.836-4.729 0-2.667 2.133-4.747 4.836-4.747 2.72 0 4.853 2.080 4.853 4.747 0 2.649-2.133 4.729-4.853 4.729M7.751 22.756c-4.267 0-7.751 3.413-7.751 7.591 0 4.16 3.484 7.573 7.751 7.573s7.769-3.413 7.769-7.573c0-4.178-3.502-7.591-7.769-7.591M34.916 35.076c-2.72 0-4.853-2.080-4.853-4.729 0-2.667 2.133-4.747 4.853-4.747 2.702 0 4.836 2.080 4.836 4.747 0 2.649-2.133 4.729-4.836 4.729M34.916 22.756c-4.267 0-7.769 3.413-7.769 7.591 0 4.16 3.502 7.573 7.769 7.573s7.751-3.413 7.751-7.573c0-4.178-3.484-7.591-7.751-7.591z"></path>
</svg>
