<!-- Generated by IcoMoon.io -->
<svg version="1.1" xmlns="http://www.w3.org/2000/svg" width="43" height="32" viewBox="0 0 43 32">
<title>mouse-off</title>
<path d="M3.556 9.369l2.276-2.258 29.724 29.724-2.258 2.276-2.187-2.151c-2.524 2.436-5.973 3.929-9.778 3.929-7.858 0-14.222-6.364-14.222-14.222v-7.111h6.631l-3.556-3.556h-3.076c0-0.96 0.089-1.902 0.267-2.809l-3.822-3.822M19.556 1.902v14.098h-0.32l-8.942-8.96c2.24-2.773 5.529-4.676 9.262-5.138M35.556 19.556v7.111c0 1.689-0.302 3.307-0.836 4.818l-11.929-11.929h12.764M23.111 1.902c7.004 0.871 12.444 6.844 12.444 14.098h-12.444v-14.098z"></path>
</svg>
