<!-- Generated by IcoMoon.io -->
<svg version="1.1" xmlns="http://www.w3.org/2000/svg" width="43" height="32" viewBox="0 0 43 32">
<title>mouse-variant</title>
<path d="M24.889 12.444h-7.111v-8.711c4.053 0.818 7.111 4.409 7.111 8.711M7.111 12.444c0-4.302 3.058-7.893 7.111-8.711v8.711h-7.111M24.889 21.333c0 4.302-3.058 7.893-7.111 8.711v1.956c0 2.951 2.382 5.333 5.333 5.333s5.333-2.382 5.333-5.333v-8.889c0-3.929 3.182-7.111 7.111-7.111h3.556l-1.778 1.778 1.778 1.778h-3.556c-1.956 0-3.556 1.6-3.556 3.556v8.889c0 4.907-3.982 8.889-8.889 8.889s-8.889-3.982-8.889-8.889v-1.956c-4.053-0.818-7.111-4.409-7.111-8.711v-5.333h17.778v5.333z"></path>
</svg>
