<!-- Generated by IcoMoon.io -->
<svg version="1.1" xmlns="http://www.w3.org/2000/svg" width="43" height="32" viewBox="0 0 43 32">
<title>mouse-variant-off</title>
<path d="M3.556 9.369l2.276-2.258 29.724 29.724-2.258 2.276-2.56-2.56c-1.547 2.56-4.391 4.338-7.627 4.338-4.907 0-8.889-3.982-8.889-8.889v-1.956c-4.053-0.818-7.111-4.409-7.111-8.711v-5.333h3.076l-6.631-6.631M24.889 12.444h-7.111v-8.711c4.053 0.818 7.111 4.409 7.111 8.711M14.222 3.733v7.253l-4.658-4.676c1.227-1.28 2.88-2.204 4.658-2.578M24.889 21.333v0.302l-5.653-5.636h5.653v5.333M17.778 30.044v1.956c0 2.951 2.382 5.333 5.333 5.333 2.276 0 4.213-1.422 4.978-3.431l-6.044-6.044c-1.173 1.084-2.631 1.849-4.267 2.187M28.444 23.111c0-3.929 3.182-7.111 7.111-7.111h3.556l-1.778 1.778 1.778 1.778h-3.556c-1.956 0-3.556 1.6-3.556 3.556v5.653l-3.556-3.556v-2.098z"></path>
</svg>
