<!-- Generated by IcoMoon.io -->
<svg version="1.1" xmlns="http://www.w3.org/2000/svg" width="43" height="32" viewBox="0 0 43 32">
<title>move-resize</title>
<path d="M16 1.778v1.778h1.778v5.333h-1.778v1.778h5.333v-1.778h-1.778v-5.333h1.778v-1.778M16 12.444c-1.973 0-3.556 1.582-3.556 3.556v21.333c0 1.973 1.582 3.556 3.556 3.556h21.333c1.973 0 3.556-1.582 3.556-3.556v-21.333c0-1.973-1.582-3.556-3.556-3.556M1.778 16v5.333h1.778v-1.778h5.333v1.778h1.778v-5.333h-1.778v1.778h-5.333v-1.778M16 16h21.333v21.333h-21.333M24.889 17.778v1.778h1.778v8.889h-7.111v-1.778h-1.778v5.333h1.778v-1.778h7.111v3.556h-1.778v1.778h5.333v-1.778h-1.778v-3.556h5.333v1.778h1.778v-5.333h-1.778v1.778h-5.333v-8.889h1.778v-1.778"></path>
</svg>
