<!-- Generated by IcoMoon.io -->
<svg version="1.1" xmlns="http://www.w3.org/2000/svg" width="43" height="32" viewBox="0 0 43 32">
<title>multiplication-box</title>
<path d="M33.778 5.333c1.956 0 3.556 1.6 3.556 3.556v24.889c0 1.956-1.6 3.556-3.556 3.556h-24.889c-1.973 0-3.556-1.6-3.556-3.556v-24.889c0-1.973 1.582-3.556 3.556-3.556h24.889M19.556 30.222h3.556v-5.813l5.031 2.898 1.778-3.076-5.031-2.898 5.031-2.916-1.778-3.076-5.031 2.916v-5.813h-3.556v5.813l-5.031-2.916-1.778 3.076 5.031 2.916-5.031 2.898 1.778 3.076 5.031-2.898v5.813z"></path>
</svg>
