<!-- Generated by IcoMoon.io -->
<svg version="1.1" xmlns="http://www.w3.org/2000/svg" width="43" height="32" viewBox="0 0 43 32">
<title>music-note-bluetooth-off</title>
<path d="M17.778 5.333v10.098l5.333 5.333v-10.098h7.111v-5.333h-12.444M5.831 8l-2.276 2.258 11.129 11.129c-4.213 0.213-7.573 3.68-7.573 7.947 0 4.444 3.556 8 8 8 4.267 0 7.733-3.36 7.947-7.573l8.373 8.373 2.276-2.258-27.876-27.876M35.556 12.444v6.738l-4.071-4.071-1.262 1.262 4.96 4.96-4.96 4.96 1.262 1.262 4.071-4.071v6.738h0.889l5.067-5.067-3.804-3.822 3.822-3.822-5.084-5.067h-0.889M37.333 15.84l1.671 1.671-1.671 1.671v-3.342M37.333 23.484l1.671 1.671-1.671 1.671v-3.342z"></path>
</svg>
