<!-- Generated by IcoMoon.io -->
<svg version="1.1" xmlns="http://www.w3.org/2000/svg" width="43" height="32" viewBox="0 0 43 32">
<title>music-box-outline</title>
<path d="M28.444 16h-5.333v9.778c0 2.453-1.991 4.444-4.444 4.444s-4.444-1.991-4.444-4.444 1.991-4.444 4.444-4.444c1.013 0 1.92 0.338 2.667 0.889v-9.778h7.111v3.556M33.778 5.333c1.956 0 3.556 1.6 3.556 3.556v24.889c0 1.956-1.6 3.556-3.556 3.556h-24.889c-1.956 0-3.556-1.6-3.556-3.556v-24.889c0-1.956 1.6-3.556 3.556-3.556h24.889M8.889 8.889v24.889h24.889v-24.889h-24.889z"></path>
</svg>
