<!-- Generated by IcoMoon.io -->
<svg version="1.1" xmlns="http://www.w3.org/2000/svg" width="43" height="32" viewBox="0 0 43 32">
<title>music-note-bluetooth</title>
<path d="M17.778 5.333v16.462c-0.889-0.302-1.778-0.462-2.667-0.462-4.444 0-8 3.556-8 8s3.556 8 8 8 8-3.556 8-8v-18.667h7.111v-5.333h-12.444M35.556 12.444v6.738l-4.071-4.071-1.262 1.262 4.96 4.96-4.96 4.96 1.262 1.262 4.071-4.071v6.738h0.889l5.067-5.067-3.804-3.822 3.822-3.822-5.084-5.067h-0.889M37.333 15.84l1.671 1.671-1.671 1.671v-3.342M37.333 23.484l1.671 1.671-1.671 1.671v-3.342z"></path>
</svg>
