<!-- Generated by IcoMoon.io -->
<svg version="1.1" xmlns="http://www.w3.org/2000/svg" width="43" height="32" viewBox="0 0 43 32">
<title>music-off</title>
<path d="M3.556 9.369l2.276-2.258 29.724 29.724-2.258 2.276-17.298-17.298v9.298c0 3.431-2.791 6.222-6.222 6.222s-6.222-2.791-6.222-6.222 2.791-6.222 6.222-6.222c0.96 0 1.867 0.213 2.667 0.604v-7.236l-8.889-8.889M37.333 5.333v22.222c0 1.778-0.764 3.413-1.991 4.551l-8.782-8.782c1.138-1.227 2.773-1.991 4.551-1.991 0.96 0 1.867 0.213 2.667 0.604v-10.436l-15.698 3.342-4.462-4.462 23.716-5.049z"></path>
</svg>
