<!-- Generated by IcoMoon.io -->
<svg version="1.1" xmlns="http://www.w3.org/2000/svg" width="43" height="32" viewBox="0 0 43 32">
<title>nature-people</title>
<path d="M8 19.556c1.476 0 2.667-1.191 2.667-2.667s-1.191-2.667-2.667-2.667-2.667 1.191-2.667 2.667 1.191 2.667 2.667 2.667M39.413 16.302c0-6.88-5.564-12.444-12.444-12.444s-12.444 5.564-12.444 12.444c0 6.169 4.48 11.253 10.364 12.249v7.004h-14.222v-5.333h1.778v-7.111c0-0.978-0.8-1.778-1.778-1.778h-5.333c-0.978 0-1.778 0.8-1.778 1.778v7.111h1.778v8.889h28.444v-3.556h-5.333v-6.898c6.169-0.729 10.969-5.973 10.969-12.356z"></path>
</svg>
