<!-- Generated by IcoMoon.io -->
<svg version="1.1" xmlns="http://www.w3.org/2000/svg" width="43" height="32" viewBox="0 0 43 32">
<title>needle</title>
<path d="M19.822 26.987l-2.524-2.507 2.524-2.524 2.507 2.524 2.507-2.524-2.507-2.507 2.507-2.507 2.524 2.507 2.507-2.507-5.031-5.031-12.569 12.569 5.031 5.031 2.524-2.524M5.476 33.778l5.547-5.529-3.769-3.769 17.582-17.6 3.787 3.787 2.489-2.524-2.489-2.524 2.489-2.507 7.556 7.556-2.507 2.489-2.524-2.489-2.524 2.489 3.787 3.787-17.6 17.582-3.769-3.769-8.053 8.071v-5.049z"></path>
</svg>
