<!-- Generated by IcoMoon.io -->
<svg version="1.1" xmlns="http://www.w3.org/2000/svg" width="43" height="32" viewBox="0 0 43 32">
<title>nest-thermostat</title>
<path d="M30.133 30.133l-3.769-3.769c1.28-1.298 2.080-3.076 2.080-5.031 0-1.316-0.373-2.542-1.013-3.556l3.858-3.893c1.6 2.116 2.489 4.658 2.489 7.449 0 3.431-1.387 6.542-3.644 8.8M21.333 8.889c2.791 0 5.333 0.889 7.449 2.489l-3.893 3.84c-1.013-0.622-2.24-0.996-3.556-0.996-3.929 0-7.111 3.182-7.111 7.111 0 1.956 0.8 3.733 2.080 5.031l-3.769 3.769c-2.258-2.258-3.644-5.369-3.644-8.8 0-6.88 5.564-12.444 12.444-12.444M21.333 3.556c-9.813 0-17.778 7.964-17.778 17.778s7.964 17.778 17.778 17.778 17.778-7.964 17.778-17.778c0-9.831-8-17.778-17.778-17.778z"></path>
</svg>
