<!-- Generated by IcoMoon.io -->
<svg version="1.1" xmlns="http://www.w3.org/2000/svg" width="43" height="32" viewBox="0 0 43 32">
<title>nest-protect</title>
<path d="M21.333 32c5.884 0 10.667-4.782 10.667-10.667 0-5.902-4.782-10.667-10.667-10.667-5.902 0-10.667 4.764-10.667 10.667 0 5.884 4.782 10.667 10.667 10.667M33.778 5.333c1.956 0 3.556 1.6 3.556 3.556v24.889c0 1.956-1.6 3.556-3.556 3.556h-24.889c-1.973 0-3.556-1.6-3.556-3.556v-24.889c0-1.973 1.582-3.556 3.556-3.556h24.889M14.222 21.333c0-3.929 3.182-7.111 7.111-7.111s7.111 3.182 7.111 7.111-3.182 7.111-7.111 7.111-7.111-3.182-7.111-7.111z"></path>
</svg>
