<!-- Generated by IcoMoon.io -->
<svg version="1.1" xmlns="http://www.w3.org/2000/svg" width="43" height="32" viewBox="0 0 43 32">
<title>new-box</title>
<path d="M35.556 7.111c1.973 0 3.556 1.582 3.556 3.556v21.333c0 1.973-1.582 3.556-3.556 3.556h-28.444c-1.973 0-3.556-1.582-3.556-3.556v-21.333c0-1.973 1.582-3.556 3.556-3.556h28.444M15.111 26.667v-10.667h-2.222v6.222l-4.444-6.222h-2.222v10.667h2.222v-6.222l4.533 6.222h2.133M24 18.24v-2.24h-7.111v10.667h7.111v-2.222h-4.444v-1.973h4.444v-2.24h-4.444v-1.991h4.444M36.444 24.889v-8.889h-2.222v8h-1.991v-6.222h-2.222v6.222h-2.009v-8h-2.222v8.889c0 0.978 0.8 1.778 1.778 1.778h7.111c0.978 0 1.778-0.8 1.778-1.778z"></path>
</svg>
