<!-- Generated by IcoMoon.io -->
<svg version="1.1" xmlns="http://www.w3.org/2000/svg" width="43" height="32" viewBox="0 0 43 32">
<title>newspaper</title>
<path d="M35.556 19.556h-28.444v-5.333h28.444M35.556 26.667h-12.444v-3.556h12.444M35.556 33.778h-12.444v-3.556h12.444M19.556 33.778h-12.444v-10.667h12.444M36.142 8.302l-2.951-2.969-2.969 2.969-2.969-2.969-2.951 2.969-2.969-2.969-2.969 2.969-2.951-2.969-2.969 2.969-2.969-2.969-2.951 2.969-2.969-2.969v28.444c0 1.956 1.6 3.556 3.556 3.556h28.444c1.956 0 3.556-1.6 3.556-3.556v-28.444l-2.969 2.969z"></path>
</svg>
