<!-- Generated by IcoMoon.io -->
<svg version="1.1" xmlns="http://www.w3.org/2000/svg" width="43" height="32" viewBox="0 0 43 32">
<title>nfc-variant</title>
<path d="M32 10.667h-8.889c-1.956 0-3.556 1.6-3.556 3.556v4.053c-1.049 0.604-1.778 1.742-1.778 3.058 0 1.956 1.6 3.556 3.556 3.556 1.973 0 3.556-1.6 3.556-3.556 0-1.316-0.711-2.453-1.778-3.058v-4.053h5.333v14.222h-14.222v-14.222h3.556v-3.556h-7.111v21.333h21.333M35.556 35.556h-28.444v-28.444h28.444M35.556 3.556h-28.444c-1.956 0-3.556 1.6-3.556 3.556v28.444c0 1.956 1.6 3.556 3.556 3.556h28.444c1.973 0 3.556-1.6 3.556-3.556v-28.444c0-1.973-1.582-3.556-3.556-3.556z"></path>
</svg>
