<!-- Generated by IcoMoon.io -->
<svg version="1.1" xmlns="http://www.w3.org/2000/svg" width="43" height="32" viewBox="0 0 43 32">
<title>nfc-tap</title>
<path d="M21.333 17.778c1.956 0 3.556 1.6 3.556 3.556s-1.6 3.556-3.556 3.556-3.556-1.6-3.556-3.556 1.6-3.556 3.556-3.556M7.111 7.111h12.444c1.956 0 3.556 1.6 3.556 3.556v5.333h-3.556v-5.333h-12.444v8.889h3.556v-3.556l5.333 5.333-5.333 5.333v-3.556h-3.556c-1.956 0-3.556-1.6-3.556-3.556v-8.889c0-1.956 1.6-3.556 3.556-3.556M35.556 35.556h-12.444c-1.956 0-3.556-1.6-3.556-3.556v-5.333h3.556v5.333h12.444v-8.889h-3.556v3.556l-5.333-5.333 5.333-5.333v3.556h3.556c1.956 0 3.556 1.6 3.556 3.556v8.889c0 1.956-1.6 3.556-3.556 3.556z"></path>
</svg>
