<!-- Generated by IcoMoon.io -->
<svg version="1.1" xmlns="http://www.w3.org/2000/svg" width="43" height="32" viewBox="0 0 43 32">
<title>nfc</title>
<path d="M18.827 13.618s1.067-0.48 1.742 0.284c0.676 0.782 2.4 3.769 2.4 6.756s-0.747 6.169-1.547 7.218c-0.764 1.067-1.529 1.067-2.116 0.676-0.569-0.373-9.529-7.218-10.009-7.413-0.498-0.196-0.676 0.284-0.196 2.862 0.48 2.667-0.302 3.396-0.978 3.502-0.658 0.053-2.684-0.48-2.791-5.884-0.089-5.387 1.351-6.258 2.027-6.258 1.262 0 10.898 8.64 11.556 8.569 0.587-0.089 0.871-3.751-0.249-6.649-1.28-3.129 0.16-3.662 0.16-3.662M34.311 8.231c3.236 6.418 3.022 12.498 3.022 13.102s0.213 6.684-3.022 13.102c0 0-0.836 0.978-2.098 0.391-1.244-0.587-0.818-2.116-0.818-2.116s2.631-5.067 2.56-11.289v-0.089c0.071-6.222-2.56-11.378-2.56-11.378s-0.427-1.529 0.818-2.116c1.262-0.587 2.098 0.391 2.098 0.391M28.036 11.111c2.649 4.818 2.471 9.618 2.436 10.222 0.036 0.604 0.213 5.191-2.436 10.4 0 0-0.836 0.978-2.098 0.391-1.244-0.587-0.818-2.116-0.818-2.116s1.707-2.453 1.973-8.587v-0.089c-0.178-6.169-1.973-8.48-1.973-8.48s-0.427-1.547 0.818-2.116c1.262-0.587 2.098 0.373 2.098 0.373z"></path>
</svg>
