<!-- Generated by IcoMoon.io -->
<svg version="1.1" xmlns="http://www.w3.org/2000/svg" width="43" height="32" viewBox="0 0 43 32">
<title>ninja</title>
<path d="M13.778 23.111c-0.018-0.622 0.267-1.227 0.747-1.636 1.333 0.284 2.578 0.836 3.698 1.636 0 1.209-0.996 2.204-2.222 2.204s-2.204-0.978-2.222-2.204M24.444 23.111c1.12-0.782 2.364-1.333 3.698-1.618 0.48 0.409 0.764 1.013 0.747 1.618 0 1.244-0.996 2.24-2.222 2.24s-2.222-0.996-2.222-2.24M21.333 16c-4.924-0.071-9.778 1.156-14.098 3.556l-0.124 1.778c0 2.187 0.516 4.338 1.493 6.293 4.213-0.64 8.462-0.96 12.729-0.96s8.516 0.32 12.729 0.96c0.978-1.956 1.493-4.107 1.493-6.293l-0.124-1.778c-4.32-2.4-9.173-3.627-14.098-3.556M21.333 3.556c9.813 0 17.778 7.964 17.778 17.778s-7.964 17.778-17.778 17.778-17.778-7.964-17.778-17.778 7.964-17.778 17.778-17.778z"></path>
</svg>
