<!-- Generated by IcoMoon.io -->
<svg version="1.1" xmlns="http://www.w3.org/2000/svg" width="43" height="32" viewBox="0 0 43 32">
<title>nuke</title>
<path d="M24.96 21.333h-7.182v-1.778h-8c-3.431 0-6.222-2.791-6.222-6.222s2.791-6.222 6.222-6.222c1.831 0 3.467 0.782 4.604 2.044 0.729-3.2 3.538-5.6 6.951-5.6s6.222 2.4 6.951 5.6c1.138-1.262 2.773-2.044 4.604-2.044 3.431 0 6.222 2.791 6.222 6.222s-2.791 6.222-6.222 6.222h-7.929v1.778M17.778 30.044v-2.027h-8.889v-3.556h24.889v3.556h-8.818v2.062l10.596 3.84c1.031 0.373 1.778 1.351 1.778 2.524 0 1.476-1.191 2.667-2.667 2.667h-26.667c-1.476 0-2.667-1.191-2.667-2.667 0-1.173 0.747-2.151 1.778-2.524l10.667-3.876z"></path>
</svg>
