<!-- Generated by IcoMoon.io -->
<svg version="1.1" xmlns="http://www.w3.org/2000/svg" width="43" height="32" viewBox="0 0 43 32">
<title>numeric-9-box</title>
<path d="M33.778 5.333c1.956 0 3.556 1.6 3.556 3.556v24.889c0 1.956-1.6 3.556-3.556 3.556h-24.889c-1.956 0-3.556-1.6-3.556-3.556v-24.889c0-1.956 1.6-3.556 3.556-3.556h24.889M23.111 19.556h-3.556v-3.556h3.556v3.556M23.111 12.444h-3.556c-1.956 0-3.556 1.6-3.556 3.556v3.556c0 1.973 1.6 3.556 3.556 3.556h3.556v3.556h-7.111v3.556h7.111c1.956 0 3.556-1.6 3.556-3.556v-10.667c0-1.973-1.6-3.556-3.556-3.556z"></path>
</svg>
