<!-- Generated by IcoMoon.io -->
<svg version="1.1" xmlns="http://www.w3.org/2000/svg" width="43" height="32" viewBox="0 0 43 32">
<title>numeric-9-plus-box-multiple-outline</title>
<path d="M37.333 16h-3.556v-3.556h-3.556v3.556h-3.556v3.556h3.556v3.556h3.556v-3.556h3.556v10.667h-24.889v-24.889h24.889M37.333 1.778h-24.889c-1.956 0-3.556 1.6-3.556 3.556v24.889c0 1.956 1.6 3.556 3.556 3.556h24.889c1.956 0 3.556-1.6 3.556-3.556v-24.889c0-1.956-1.6-3.556-3.556-3.556M19.556 16v-1.778h1.778v1.778M24.889 21.333v-7.111c0-1.973-1.6-3.556-3.556-3.556h-1.778c-1.956 0-3.556 1.6-3.556 3.556v1.778c0 1.973 1.6 3.556 3.556 3.556h1.778v1.778h-5.333v3.556h5.333c1.956 0 3.556-1.6 3.556-3.556M5.333 8.889h-3.556v28.444c0 1.956 1.6 3.556 3.556 3.556h28.444v-3.556h-28.444v-28.444z"></path>
</svg>
