<!-- Generated by IcoMoon.io -->
<svg version="1.1" xmlns="http://www.w3.org/2000/svg" width="43" height="32" viewBox="0 0 43 32">
<title>numeric-0-box-outline</title>
<path d="M33.778 33.778v-24.889h-24.889v24.889h24.889M33.778 5.333c1.956 0 3.556 1.6 3.556 3.556v24.889c0 1.956-1.6 3.556-3.556 3.556h-24.889c-1.956 0-3.556-1.6-3.556-3.556v-24.889c0-1.956 1.6-3.556 3.556-3.556h24.889M19.556 12.444h3.556c1.956 0 3.556 1.6 3.556 3.556v10.667c0 1.956-1.6 3.556-3.556 3.556h-3.556c-1.956 0-3.556-1.6-3.556-3.556v-10.667c0-1.956 1.6-3.556 3.556-3.556M19.556 16v10.667h3.556v-10.667h-3.556z"></path>
</svg>
