<!-- Generated by IcoMoon.io -->
<svg version="1.1" xmlns="http://www.w3.org/2000/svg" width="43" height="32" viewBox="0 0 43 32">
<title>numeric-9-plus-box-outline</title>
<path d="M33.778 19.556h-3.556v-3.556h-3.556v3.556h-3.556v3.556h3.556v3.556h3.556v-3.556h3.556v10.667h-24.889v-24.889h24.889M33.778 5.333h-24.889c-1.956 0-3.556 1.6-3.556 3.556v24.889c0 1.956 1.6 3.556 3.556 3.556h24.889c1.956 0 3.556-1.6 3.556-3.556v-24.889c0-1.956-1.6-3.556-3.556-3.556M16 19.556v-1.778h1.778v1.778M21.333 24.889v-7.111c0-1.973-1.6-3.556-3.556-3.556h-1.778c-1.956 0-3.556 1.6-3.556 3.556v1.778c0 1.973 1.6 3.556 3.556 3.556h1.778v1.778h-5.333v3.556h5.333c1.956 0 3.556-1.6 3.556-3.556z"></path>
</svg>
