<!-- Generated by IcoMoon.io -->
<svg version="1.1" xmlns="http://www.w3.org/2000/svg" width="43" height="32" viewBox="0 0 43 32">
<title>numeric-3-box</title>
<path d="M26.667 18.667c0 1.476-1.191 2.667-2.667 2.667 1.493 0 2.667 1.191 2.667 2.667v2.667c0 1.973-1.582 3.556-3.556 3.556h-7.111v-3.556h7.111v-3.556h-3.556v-3.556h3.556v-3.556h-7.111v-3.556h7.111c1.973 0 3.556 1.582 3.556 3.556M33.778 5.333h-24.889c-1.938 0-3.556 1.6-3.556 3.556v24.889c0 1.956 1.6 3.556 3.556 3.556h24.889c1.973 0 3.556-1.6 3.556-3.556v-24.889c0-1.956-1.6-3.556-3.556-3.556z"></path>
</svg>
