<!-- Generated by IcoMoon.io -->
<svg version="1.1" xmlns="http://www.w3.org/2000/svg" width="43" height="32" viewBox="0 0 43 32">
<title>numeric</title>
<path d="M7.111 30.222v-14.222h-3.556v-3.556h7.111v17.778h-3.556M39.111 26.667c0 1.973-1.6 3.556-3.556 3.556h-7.111v-3.556h7.111v-3.556h-3.556v-3.556h3.556v-3.556h-7.111v-3.556h7.111c1.956 0 3.556 1.6 3.556 3.556v2.667c0 1.476-1.191 2.667-2.667 2.667 1.476 0 2.667 1.191 2.667 2.667v2.667M24.889 26.667v3.556h-10.667v-7.111c0-1.973 1.6-3.556 3.556-3.556h3.556v-3.556h-7.111v-3.556h7.111c1.956 0 3.556 1.6 3.556 3.556v3.556c0 1.973-1.6 3.556-3.556 3.556h-3.556v3.556h7.111z"></path>
</svg>
