<!-- Generated by IcoMoon.io -->
<svg version="1.1" xmlns="http://www.w3.org/2000/svg" width="43" height="32" viewBox="0 0 43 32">
<title>nutrition</title>
<path d="M39.111 32c0 3.929-3.182 7.111-7.111 7.111h-7.111c-3.929 0-7.111-3.182-7.111-7.111v-3.556h21.333v3.556M7.111 5.333h17.778c1.956 0 3.556 1.6 3.556 3.556v16h-14.222v8.889h-7.111c-1.956 0-3.556-1.6-3.556-3.556v-21.333c0-1.956 1.6-3.556 3.556-3.556M7.111 10.667v3.556h3.556v-3.556h-3.556M24.889 14.222v-3.556h-10.667v3.556h10.667M7.111 17.778v3.556h3.556v-3.556h-3.556M14.222 17.778v3.556h10.667v-3.556h-10.667M7.111 24.889v3.556h3.556v-3.556h-3.556z"></path>
</svg>
