<!-- Generated by IcoMoon.io -->
<svg version="1.1" xmlns="http://www.w3.org/2000/svg" width="43" height="32" viewBox="0 0 43 32">
<title>octagram-outline</title>
<path d="M3.911 28.551l2.987-7.218-2.987-7.218 7.218-2.987 2.987-7.218 7.218 2.987 7.218-2.987 2.987 7.218 7.218 2.987-2.987 7.218 2.987 7.218-7.218 2.987-2.987 7.218-7.218-2.987-7.218 2.987-2.987-7.218-7.218-2.987M8.551 16l2.204 5.333-2.204 5.333 5.298 2.151 2.151 5.298 5.333-2.204 5.333 2.204 2.151-5.298 5.298-2.151-2.204-5.333 2.204-5.333-5.298-2.151-2.151-5.298-5.333 2.204-5.333-2.204-2.151 5.298-5.298 2.151z"></path>
</svg>
