<!-- Generated by IcoMoon.io -->
<svg version="1.1" xmlns="http://www.w3.org/2000/svg" width="43" height="32" viewBox="0 0 43 32">
<title>odnoklassniki</title>
<path d="M31.698 22.649c-0.498-1.013-1.902-1.867-3.769-0.427-2.542 2.027-6.596 2.027-6.596 2.027s-4.053 0-6.596-2.027c-1.867-1.44-3.271-0.587-3.769 0.427-0.889 1.778 0.107 2.649 2.364 4.089 1.938 1.244 4.587 1.707 6.293 1.884l-1.422 1.422c-2.027 2.009-3.982 3.947-5.316 5.298-0.8 0.818-0.8 2.116 0 2.88l0.249 0.284c0.8 0.8 2.116 0.8 2.916 0l5.28-5.298c2.044 2.009 3.982 3.947 5.333 5.298 0.8 0.8 2.098 0.8 2.916 0l0.231-0.284c0.818-0.764 0.818-2.062 0-2.88l-5.298-5.298-1.404-1.44c1.689-0.16 4.302-0.64 6.222-1.867 2.258-1.44 3.253-2.311 2.364-4.089M21.333 8.124c2.453 0 4.444 1.991 4.444 4.427 0 2.453-1.991 4.427-4.444 4.427s-4.444-1.973-4.444-4.427c0-2.436 1.991-4.427 4.444-4.427M21.333 21.547c4.978 0 8.996-4.018 8.996-8.996 0-4.96-4.018-8.996-8.996-8.996s-8.996 4.036-8.996 8.996c0 4.978 4.018 8.996 8.996 8.996z"></path>
</svg>
