<!-- Generated by IcoMoon.io -->
<svg version="1.1" xmlns="http://www.w3.org/2000/svg" width="43" height="32" viewBox="0 0 43 32">
<title>oil-temperature</title>
<path d="M20.444 1.778c-1.476 0-2.667 1.191-2.667 2.667v21.333c-1.12 0.836-1.778 2.151-1.778 3.556 0 2.453 1.991 4.444 4.444 4.444s4.444-1.991 4.444-4.444c0-1.404-0.658-2.667-1.778-3.556v-2.667h7.111v-3.556h-7.111v-3.556h7.111v-3.556h-7.111v-3.556h7.111v-3.556h-7.111v-0.889c0-1.476-1.191-2.667-2.667-2.667M0 26.667v3.556c1.191 0 1.404 0.373 2.293 1.262s2.453 2.293 4.818 2.293 3.929-1.404 4.818-2.293c0.196-0.213 0.356-0.373 0.516-0.533v-4c-1.404 0.462-2.4 1.369-3.040 2.009-0.889 0.889-1.102 1.262-2.293 1.262s-1.404-0.373-2.293-1.262-2.453-2.293-4.818-2.293M28.444 26.667v3.556c1.191 0 1.404 0.373 2.293 1.262s2.453 2.293 4.818 2.293 3.929-1.404 4.818-2.293 1.102-1.262 2.293-1.262v-3.556c-2.364 0-3.929 1.404-4.818 2.293s-1.102 1.262-2.293 1.262-1.404-0.373-2.293-1.262-2.453-2.293-4.818-2.293M14.222 35.556c-2.364 0-3.929 1.404-4.818 2.293s-1.102 1.262-2.293 1.262-1.404-0.373-2.293-1.262c-0.64-0.64-1.636-1.547-3.040-2.009v4c0.16 0.16 0.32 0.32 0.516 0.533 0.889 0.889 2.453 2.293 4.818 2.293s3.929-1.404 4.818-2.293 1.102-1.262 2.293-1.262 1.404 0.373 2.293 1.262c0.782 0.764 2.044 1.938 3.929 2.222 0.284 0.071 0.587 0.071 0.889 0.071 2.364 0 3.929-1.404 4.818-2.293s1.102-1.262 2.293-1.262 1.404 0.373 2.293 1.262 2.453 2.293 4.818 2.293 3.929-1.404 4.818-2.293c0.196-0.213 0.356-0.373 0.516-0.533v-4c-1.404 0.462-2.4 1.369-3.040 2.009-0.889 0.889-1.102 1.262-2.293 1.262s-1.404-0.373-2.293-1.262-2.453-2.293-4.818-2.293-3.929 1.404-4.818 2.293-1.102 1.262-2.293 1.262c-0.391 0-0.658-0.053-0.889-0.142-0.498-0.178-0.8-0.516-1.404-1.12-0.889-0.889-2.453-2.293-4.818-2.293z"></path>
</svg>
