<!-- Generated by IcoMoon.io -->
<svg version="1.1" xmlns="http://www.w3.org/2000/svg" width="43" height="32" viewBox="0 0 43 32">
<title>oil</title>
<path d="M39.111 22.222s3.556 3.858 3.556 6.222c0 1.956-1.6 3.556-3.556 3.556s-3.556-1.6-3.556-3.556c0-2.364 3.556-6.222 3.556-6.222M10.667 10.667h7.111c0.978 0 1.778 0.8 1.778 1.778s-0.8 1.778-1.778 1.778h-1.778v3.556h3.556c1.316 0 2.471 0.711 3.076 1.778l11.573-6.684 5.796 3.36c0.889 0.48 1.138 1.547 0.658 2.436-0.498 0.836-1.547 1.138-2.436 0.64l-3.733-2.151-6.489 11.236c-0.604 1.084-1.778 1.831-3.111 1.831h-16c-1.956 0-3.556-1.6-3.556-3.556v-5.333c0-1.956 1.6-3.556 3.556-3.556h3.556v-3.556h-1.778c-0.978 0-1.778-0.8-1.778-1.778s0.8-1.778 1.778-1.778M8.889 21.333v5.333h16l3.662-6.347-6.151 3.556-1.618-2.542h-11.893M0.676 16.373l3.040-3.040c0.729-0.693 1.813-0.693 2.507 0s0.693 1.778 0 2.507l-3.040 3.040c-0.693 0.676-1.813 0.676-2.507 0-0.676-0.693-0.676-1.813 0-2.507z"></path>
</svg>
