<!-- Generated by IcoMoon.io -->
<svg version="1.1" xmlns="http://www.w3.org/2000/svg" width="43" height="32" viewBox="0 0 43 32">
<title>omega</title>
<path d="M34.044 33.778h-10.24v-3.787c3.751-2.88 5.689-6.453 5.689-10.72 0-2.667-0.764-4.764-2.258-6.311-1.511-1.547-3.467-2.293-5.849-2.293-2.4 0-4.373 0.747-5.902 2.311-1.547 1.547-2.311 3.68-2.311 6.364 0 4.231 1.938 7.787 5.689 10.649v3.787h-10.24v-3.787h6.329c-4.213-2.756-6.329-6.471-6.329-11.147 0-3.733 1.156-6.649 3.484-8.782 2.329-2.151 5.387-3.218 9.173-3.218 3.876 0 6.969 1.067 9.28 3.182 2.329 2.116 3.484 5.084 3.484 8.782 0 4.676-2.133 8.409-6.4 11.182h6.4v3.787z"></path>
</svg>
