<!-- Generated by IcoMoon.io -->
<svg version="1.1" xmlns="http://www.w3.org/2000/svg" width="43" height="32" viewBox="0 0 43 32">
<title>onedrive</title>
<path d="M35.698 24.249c1.938 0.302 3.413 1.973 3.413 4 0 1.582-0.889 2.951-2.222 3.609l-0.302 0.142h-20.302c-2.578 0-4.658-2.116-4.658-4.693 0-2.596 2.098-4.693 4.693-4.693l0.391 0.018-0.018-0.356c0-3.236 2.631-5.867 5.867-5.867 2.276 0 4.249 1.298 5.227 3.147 0.8-0.48 1.76-0.8 2.809-0.8 2.827 0 5.12 2.293 5.12 5.12l-0.018 0.373M15.68 21.618c-2.862 0.32-5.084 2.738-5.084 5.689 0 1.209 0.373 2.311 0.96 3.236h-3.147c-2.684 0-4.853-2.169-4.853-4.853 0-2.578 1.991-4.658 4.498-4.836l-0.124-1.191c0-3.022 2.453-5.44 5.476-5.44 1.12 0 2.187 0.32 3.058 0.889 1.227-2.471 3.804-4.178 6.773-4.178 3.911 0 7.129 2.987 7.52 6.791h-0.16c-0.853 0-1.671 0.178-2.436 0.498-1.28-1.778-3.342-2.862-5.6-2.862-3.591 0-6.56 2.756-6.88 6.258z"></path>
</svg>
