<!-- Generated by IcoMoon.io -->
<svg version="1.1" xmlns="http://www.w3.org/2000/svg" width="43" height="32" viewBox="0 0 43 32">
<title>onenote</title>
<path d="M3.484 8.533l21.404-3.058v3.413h12.444c0.978 0 1.778 0.8 1.778 1.778v7.111c0 0.978-0.8 1.778-1.778 1.778h-1.778v14.222h-10.667v3.556l-21.404-3.182v-25.618M19.556 29.778v-15.111l-3.556 0.444v7.556l-3.556-7.111-3.556 0.444v12.444l2.667 0.444v-9.778l4.444 10.222 3.556 0.444M24.889 24.889h7.111v-1.778h-7.111v1.778M24.889 19.556h7.111v-1.778h-7.111v1.778M24.889 14.222h7.111v-1.778h-7.111v1.778M24.889 28.444v1.778h7.111v-1.778h-7.111z"></path>
</svg>
