<!-- Generated by IcoMoon.io -->
<svg version="1.1" xmlns="http://www.w3.org/2000/svg" width="43" height="32" viewBox="0 0 43 32">
<title>opera</title>
<path d="M30.809 6.347c-2.613-1.796-5.831-2.791-9.476-2.791-3.324 0-6.293 0.836-8.782 2.347-4.764 2.898-7.716 8.32-7.716 15.253 0 9.404 6.596 17.956 16.498 17.956s16.498-8.551 16.498-17.956c0-6.596-2.667-11.822-7.022-14.809M21.333 6.702c5.333 0 6.4 7.396 6.4 14.133 0 6.222-0.604 14.56-6.329 14.56s-6.471-8.427-6.471-14.649c0-6.72 1.067-14.044 6.4-14.044z"></path>
</svg>
