<!-- Generated by IcoMoon.io -->
<svg version="1.1" xmlns="http://www.w3.org/2000/svg" width="43" height="32" viewBox="0 0 43 32">
<title>orbit</title>
<path d="M14.418 3.111c2.116-0.889 4.462-1.333 6.916-1.333 10.809 0 19.556 8.747 19.556 19.556s-8.747 19.556-19.556 19.556-19.556-8.747-19.556-19.556c0-2.453 0.444-4.8 1.28-6.969 0.924 0.942 1.973 1.564 3.076 1.956-0.516 1.582-0.8 3.236-0.8 5.013 0 8.836 7.164 16 16 16s16-7.164 16-16-7.164-16-16-16c-1.778 0-3.431 0.284-5.013 0.8-0.391-1.102-1.013-2.151-1.902-3.022M8.764 5.209c1.956 0 3.556 1.582 3.556 3.556 0 1.956-1.6 3.556-3.556 3.556-1.973 0-3.556-1.6-3.556-3.556 0-1.973 1.582-3.556 3.556-3.556M21.333 12.444c4.907 0 8.889 3.982 8.889 8.889s-3.982 8.889-8.889 8.889-8.889-3.982-8.889-8.889 3.982-8.889 8.889-8.889z"></path>
</svg>
