<!-- Generated by IcoMoon.io -->
<svg version="1.1" xmlns="http://www.w3.org/2000/svg" width="43" height="32" viewBox="0 0 43 32">
<title>ornament</title>
<path d="M21.333 1.778c2.951 0 5.333 2.382 5.333 5.333v1.778c0.978 0 1.778 0.8 1.778 1.778v1.902c4.249 2.453 7.111 7.058 7.111 12.32 0 7.858-6.364 14.222-14.222 14.222s-14.222-6.364-14.222-14.222c0-5.262 2.862-9.867 7.111-12.32v-1.902c0-0.978 0.8-1.778 1.778-1.778v-1.778c0-2.951 2.382-5.333 5.333-5.333M21.333 5.333c-0.978 0-1.778 0.8-1.778 1.778v1.778h3.556v-1.778c0-0.978-0.8-1.778-1.778-1.778M21.333 14.222c-3.164 0-5.991 1.369-7.947 3.556h15.893c-1.956-2.187-4.782-3.556-7.947-3.556M11.271 28.444h2.222l-2.827-2.791c0.089 1.013 0.302 1.902 0.604 2.791M22.382 28.444l-7.111-7.111h-3.876l7.111 7.111h3.876M31.396 21.333h-2.222l2.827 2.791c-0.089-1.013-0.302-1.902-0.604-2.791M20.284 21.333l7.111 7.111h3.876l-7.111-7.111h-3.876M21.333 35.556c3.164 0 5.991-1.369 7.947-3.556h-15.893c1.956 2.187 4.782 3.556 7.947 3.556z"></path>
</svg>
