<!-- Generated by IcoMoon.io -->
<svg version="1.1" xmlns="http://www.w3.org/2000/svg" width="43" height="32" viewBox="0 0 43 32">
<title>owl</title>
<path d="M21.333 28.444c0.996 1.493 2.329 2.72 3.911 3.556l-3.911 3.911-3.911-3.911c1.582-0.836 2.933-2.062 3.911-3.556M30.222 19.911c-1.956 0-3.556 1.6-3.556 3.556s1.6 3.556 3.556 3.556 3.556-1.6 3.556-3.556c0-1.973-1.6-3.556-3.556-3.556M12.444 19.911c-1.956 0-3.556 1.6-3.556 3.556s1.6 3.556 3.556 3.556 3.556-1.6 3.556-3.556c0-1.973-1.6-3.556-3.556-3.556M30.222 15.467c3.929 0 7.111 3.182 7.111 7.111s-3.182 7.111-7.111 7.111-7.111-3.182-7.111-7.111 3.182-7.111 7.111-7.111M12.444 15.467c3.929 0 7.111 3.182 7.111 7.111s-3.182 7.111-7.111 7.111-7.111-3.182-7.111-7.111 3.182-7.111 7.111-7.111M3.982 1.778c3.129 6.578 0.871 11.484-1.227 16.356-0.64 1.422-0.978 2.898-0.978 4.444 0 5.884 4.782 10.667 10.667 10.667 0.373-0.018 0.747-0.036 1.12-0.089l5.262 5.262 2.507 2.471 2.507-2.471 5.262-5.262c0.373 0.053 0.747 0.071 1.12 0.089 5.884 0 10.667-4.782 10.667-10.667 0-1.547-0.338-3.022-0.978-4.444-2.098-4.871-4.356-9.778-1.227-16.356-4.693 3.662-11.378 6.56-17.351 6.578-5.973-0.018-12.658-2.916-17.351-6.578z"></path>
</svg>
