<!-- Generated by IcoMoon.io -->
<svg version="1.1" xmlns="http://www.w3.org/2000/svg" width="43" height="32" viewBox="0 0 43 32">
<title>package-up</title>
<path d="M36.516 9.298c0.516 0.604 0.818 1.369 0.818 2.258v22.222c0 1.956-1.6 3.556-3.556 3.556h-24.889c-1.956 0-3.556-1.6-3.556-3.556v-22.222c0-0.889 0.302-1.653 0.818-2.258l2.453-2.987c0.498-0.604 1.227-0.978 2.062-0.978h21.333c0.836 0 1.564 0.373 2.044 0.978l2.471 2.987M9.102 8.889h24.444l-1.671-1.778h-21.333l-1.44 1.778M21.333 16.889l-9.778 9.778h6.222v3.556h7.111v-3.556h6.222l-9.778-9.778z"></path>
</svg>
