<!-- Generated by IcoMoon.io -->
<svg version="1.1" xmlns="http://www.w3.org/2000/svg" width="43" height="32" viewBox="0 0 43 32">
<title>package-variant-closed</title>
<path d="M37.333 29.333c0 0.676-0.373 1.262-0.942 1.564l-14.044 7.893c-0.284 0.213-0.64 0.32-1.013 0.32s-0.729-0.107-1.013-0.32l-14.044-7.893c-0.569-0.302-0.942-0.889-0.942-1.564v-16c0-0.676 0.373-1.262 0.942-1.564l14.044-7.893c0.284-0.213 0.64-0.32 1.013-0.32s0.729 0.107 1.013 0.32l14.044 7.893c0.569 0.302 0.942 0.889 0.942 1.564v16M21.333 7.378l-3.36 1.902 10.471 6.027 3.484-1.973-10.596-5.956M10.738 13.333l10.596 5.956 3.484-1.956-10.453-6.044-3.627 2.044M8.889 28.284l10.667 6.009v-11.929l-10.667-5.991v11.911M33.778 28.284v-11.911l-10.667 5.991v11.929l10.667-6.009z"></path>
</svg>
