<!-- Generated by IcoMoon.io -->
<svg version="1.1" xmlns="http://www.w3.org/2000/svg" width="43" height="32" viewBox="0 0 43 32">
<title>package-variant</title>
<path d="M3.556 19.484c-0.889-0.498-1.156-1.582-0.658-2.436l2.667-4.604c0.196-0.356 0.498-0.604 0.836-0.747l13.92-7.822c0.284-0.213 0.64-0.32 1.013-0.32s0.729 0.107 1.013 0.32l14.044 7.893c0.338 0.178 0.622 0.462 0.782 0.818l2.578 4.48c0.498 0.853 0.196 1.938-0.64 2.418l-1.778 1.031v8.818c0 0.676-0.373 1.262-0.942 1.564l-14.044 7.893c-0.284 0.213-0.64 0.32-1.013 0.32s-0.729-0.107-1.013-0.32l-14.044-7.893c-0.569-0.302-0.942-0.889-0.942-1.564v-9.849c-0.533 0.302-1.209 0.32-1.778 0M21.333 7.378v11.911l10.596-5.956-10.596-5.956M8.889 28.284l10.667 6.009v-11.929l-10.667-5.991v11.911M33.778 28.284v-5.724l-8.889 5.156c-0.587 0.32-1.244 0.302-1.778 0.018v6.56l10.667-6.009M24.622 23.751l11.164-6.453-1.031-1.796-11.164 6.453 1.031 1.796z"></path>
</svg>
