<!-- Generated by IcoMoon.io -->
<svg version="1.1" xmlns="http://www.w3.org/2000/svg" width="43" height="32" viewBox="0 0 43 32">
<title>palette</title>
<path d="M31.111 21.333c-1.476 0-2.667-1.191-2.667-2.667s1.191-2.667 2.667-2.667 2.667 1.191 2.667 2.667-1.191 2.667-2.667 2.667M25.778 14.222c-1.476 0-2.667-1.191-2.667-2.667s1.191-2.667 2.667-2.667 2.667 1.191 2.667 2.667-1.191 2.667-2.667 2.667M16.889 14.222c-1.476 0-2.667-1.191-2.667-2.667s1.191-2.667 2.667-2.667 2.667 1.191 2.667 2.667-1.191 2.667-2.667 2.667M11.556 21.333c-1.476 0-2.667-1.191-2.667-2.667s1.191-2.667 2.667-2.667 2.667 1.191 2.667 2.667-1.191 2.667-2.667 2.667M21.333 5.333c-8.836 0-16 7.164-16 16s7.164 16 16 16c1.476 0 2.667-1.191 2.667-2.667 0-0.693-0.267-1.316-0.693-1.778-0.409-0.48-0.676-1.102-0.676-1.778 0-1.476 1.191-2.667 2.667-2.667h3.147c4.907 0 8.889-3.982 8.889-8.889 0-7.858-7.164-14.222-16-14.222z"></path>
</svg>
