<!-- Generated by IcoMoon.io -->
<svg version="1.1" xmlns="http://www.w3.org/2000/svg" width="43" height="32" viewBox="0 0 43 32">
<title>panda</title>
<path d="M21.333 5.333c3.093 0 5.973 0.889 8.427 2.4 1.138-1.458 2.916-2.4 4.907-2.4 3.431 0 6.222 2.791 6.222 6.222 0 2.667-1.689 4.942-4.053 5.831 0.32 1.28 0.498 2.578 0.498 3.947 0 8.836-7.164 16-16 16s-16-7.164-16-16c0-1.369 0.178-2.667 0.498-3.947-2.364-0.889-4.053-3.164-4.053-5.831 0-3.431 2.791-6.222 6.222-6.222 1.991 0 3.769 0.942 4.907 2.4 2.453-1.511 5.333-2.4 8.427-2.4M21.333 8.889c-6.88 0-12.444 5.564-12.444 12.444s5.564 12.444 12.444 12.444 12.444-5.564 12.444-12.444-5.564-12.444-12.444-12.444M28.782 18.311c0.64 2.364-0.196 4.64-1.849 5.084-1.671 0.462-3.52-1.102-4.16-3.484-0.64-2.364 0.196-4.64 1.849-5.084 1.671-0.444 3.52 1.102 4.16 3.484M13.884 18.311c0.64-2.382 2.489-3.929 4.16-3.484 1.653 0.444 2.489 2.72 1.849 5.084-0.64 2.382-2.489 3.947-4.16 3.484-1.653-0.444-2.489-2.72-1.849-5.084M21.333 24.889c1.067 0 2.009 0.338 2.667 0.889l-1.778 1.778c0 0.747 0.604 1.333 1.333 1.333s1.333-0.604 1.333-1.333c0-0.498 0.391-0.889 0.889-0.889s0.889 0.391 0.889 0.889c0 1.724-1.387 3.111-3.111 3.111-0.871 0-1.653-0.356-2.222-0.942-0.569 0.587-1.351 0.942-2.222 0.942-1.724 0-3.111-1.387-3.111-3.111 0-0.498 0.391-0.889 0.889-0.889s0.889 0.391 0.889 0.889c0 0.729 0.604 1.333 1.333 1.333s1.333-0.604 1.333-1.333l-1.778-1.778c0.658-0.551 1.6-0.889 2.667-0.889z"></path>
</svg>
