<!-- Generated by IcoMoon.io -->
<svg version="1.1" xmlns="http://www.w3.org/2000/svg" width="43" height="32" viewBox="0 0 43 32">
<title>panorama-vertical</title>
<path d="M11.627 35.556c1.369-4.622 2.062-9.387 2.062-14.222s-0.693-9.6-2.062-14.222h19.396c-1.369 4.622-2.062 9.387-2.062 14.222s0.693 9.6 2.062 14.222M35.449 37.547c-1.956-5.227-2.916-10.72-2.916-16.213s0.978-10.987 2.916-16.213c0.107-0.196 0.107-0.391 0.107-0.551 0-0.604-0.409-1.013-1.12-1.013h-26.204c-0.711 0-1.12 0.409-1.12 1.013 0 0.178 0 0.356 0.107 0.551 1.956 5.227 2.933 10.72 2.933 16.213s-0.978 10.987-2.916 16.213c-0.124 0.196-0.124 0.391-0.124 0.551 0 0.587 0.409 1.013 1.12 1.013h26.222c0.693 0 1.102-0.427 1.102-1.013 0-0.178 0-0.356-0.107-0.551z"></path>
</svg>
