<!-- Generated by IcoMoon.io -->
<svg version="1.1" xmlns="http://www.w3.org/2000/svg" width="43" height="32" viewBox="0 0 43 32">
<title>panorama-wide-angle</title>
<path d="M21.333 7.111c-4.853 0-9.28 0.427-14.133 1.28l-1.653 0.284-0.444 1.6c-1.031 3.68-1.547 7.378-1.547 11.058s0.516 7.378 1.547 11.058l0.444 1.582 1.653 0.284c4.853 0.871 9.28 1.298 14.133 1.298s9.28-0.427 14.133-1.28l1.653-0.284 0.444-1.582c1.031-3.698 1.547-7.396 1.547-11.076s-0.516-7.378-1.547-11.058l-0.444-1.582-1.653-0.284c-4.853-0.871-9.28-1.298-14.133-1.298M21.333 10.667c4.356 0 8.373 0.356 12.96 1.138 0.836 3.164 1.262 6.364 1.262 9.529s-0.427 6.364-1.262 9.529c-4.587 0.782-8.604 1.138-12.96 1.138s-8.373-0.356-12.96-1.138c-0.836-3.164-1.262-6.364-1.262-9.529s0.427-6.364 1.262-9.529c4.587-0.782 8.604-1.138 12.96-1.138z"></path>
</svg>
