<!-- Generated by IcoMoon.io -->
<svg version="1.1" xmlns="http://www.w3.org/2000/svg" width="43" height="32" viewBox="0 0 43 32">
<title>panorama-horizontal</title>
<path d="M38.098 7.111c-0.178 0-0.356 0-0.551 0.107-5.227 1.956-10.72 2.916-16.213 2.916s-10.987-0.978-16.213-2.916c-0.196-0.107-0.391-0.107-0.551-0.107-0.604 0-1.013 0.409-1.013 1.12v26.222c0 0.693 0.409 1.102 1.013 1.102 0.178 0 0.356 0 0.551-0.107 5.227-1.956 10.72-2.916 16.213-2.916s10.987 0.978 16.213 2.916c0.196 0.107 0.373 0.107 0.551 0.107 0.587 0 1.013-0.409 1.013-1.12v-26.204c0-0.711-0.427-1.12-1.013-1.12M35.556 11.627v19.396c-4.622-1.369-9.387-2.062-14.222-2.062s-9.6 0.693-14.222 2.062v-19.396c4.622 1.369 9.387 2.062 14.222 2.062 4.836 0.018 9.6-0.676 14.222-2.062z"></path>
</svg>
