<!-- Generated by IcoMoon.io -->
<svg version="1.1" xmlns="http://www.w3.org/2000/svg" width="43" height="32" viewBox="0 0 43 32">
<title>paperclip</title>
<path d="M29.333 10.667v20.444c0 3.929-3.182 7.111-7.111 7.111s-7.111-3.182-7.111-7.111v-22.222c0-2.453 1.991-4.444 4.444-4.444s4.444 1.991 4.444 4.444v18.667c0 0.978-0.8 1.778-1.778 1.778s-1.778-0.8-1.778-1.778v-16.889h-2.667v16.889c0 2.453 1.991 4.444 4.444 4.444s4.444-1.991 4.444-4.444v-18.667c0-3.929-3.182-7.111-7.111-7.111s-7.111 3.182-7.111 7.111v22.222c0 5.404 4.373 9.778 9.778 9.778s9.778-4.373 9.778-9.778v-20.444h-2.667z"></path>
</svg>
