<!-- Generated by IcoMoon.io -->
<svg version="1.1" xmlns="http://www.w3.org/2000/svg" width="43" height="32" viewBox="0 0 43 32">
<title>paper-cut-vertical</title>
<path d="M20.32 5.742l1.013 1.369 1.013-1.369v0.018c0.978-1.316 2.542-2.204 4.32-2.204 2.951 0 5.333 2.382 5.333 5.333 0 0.622-0.107 1.227-0.302 1.778h3.858c1.956 0 3.556 1.6 3.556 3.556v21.333c0 1.956-1.6 3.556-3.556 3.556h-28.444c-1.956 0-3.556-1.6-3.556-3.556v-21.333c0-1.956 1.6-3.556 3.556-3.556h3.858c-0.196-0.551-0.302-1.156-0.302-1.778 0-2.951 2.382-5.333 5.333-5.333 1.778 0 3.342 0.889 4.32 2.204v-0.018M7.111 14.222v21.333h12.444c0-0.978 0.8-1.778 1.778-1.778s1.778 0.8 1.778 1.778h12.444v-21.333h-9.067l3.733 5.191-2.844 2.098-5.298-7.289h-1.493l-5.298 7.289-2.844-2.098 3.733-5.191h-9.067M16 7.111c-0.978 0-1.778 0.8-1.778 1.778s0.8 1.778 1.778 1.778 1.778-0.8 1.778-1.778-0.8-1.778-1.778-1.778M26.667 7.111c-0.978 0-1.778 0.8-1.778 1.778s0.8 1.778 1.778 1.778 1.778-0.8 1.778-1.778-0.8-1.778-1.778-1.778M21.333 28.444c0.978 0 1.778 0.8 1.778 1.778s-0.8 1.778-1.778 1.778-1.778-0.8-1.778-1.778 0.8-1.778 1.778-1.778M21.333 23.111c0.978 0 1.778 0.8 1.778 1.778s-0.8 1.778-1.778 1.778-1.778-0.8-1.778-1.778 0.8-1.778 1.778-1.778M21.333 17.778c0.978 0 1.778 0.8 1.778 1.778s-0.8 1.778-1.778 1.778-1.778-0.8-1.778-1.778 0.8-1.778 1.778-1.778z"></path>
</svg>
