<!-- Generated by IcoMoon.io -->
<svg version="1.1" xmlns="http://www.w3.org/2000/svg" width="43" height="32" viewBox="0 0 43 32">
<title>paw</title>
<path d="M14.844 5.333c2.098-0.302 4.32 1.991 4.96 5.156 0.64 3.147-0.516 5.956-2.613 6.276-2.080 0.32-4.32-1.973-4.978-5.138-0.658-3.147 0.533-5.956 2.631-6.293M27.556 5.333c2.116 0.338 3.289 3.147 2.667 6.293-0.676 3.164-2.898 5.458-4.996 5.138-2.116-0.32-3.271-3.129-2.613-6.276 0.64-3.164 2.862-5.458 4.942-5.156M5.333 13.511c2.027-0.871 4.782 0.711 6.222 3.467 1.351 2.809 0.889 5.76-1.12 6.631s-4.747-0.693-6.151-3.484c-1.404-2.791-0.907-5.76 1.049-6.613M37.333 13.511c1.956 0.853 2.453 3.822 1.049 6.613s-4.142 4.356-6.151 3.484c-2.009-0.871-2.471-3.822-1.12-6.631 1.44-2.756 4.196-4.338 6.222-3.467M34.364 32.676c0.071 1.671-1.209 3.52-2.738 4.213-3.182 1.458-6.951-1.564-10.489-1.564s-7.342 3.147-10.471 1.564c-1.778-0.871-3.004-3.182-2.773-5.102 0.32-2.649 3.502-4.071 5.387-6.009 2.507-2.507 4.284-7.218 7.858-7.218 3.556 0 5.44 4.64 7.84 7.218 1.973 2.169 5.262 4 5.387 6.898z"></path>
</svg>
