<!-- Generated by IcoMoon.io -->
<svg version="1.1" xmlns="http://www.w3.org/2000/svg" width="43" height="32" viewBox="0 0 43 32">
<title>pen</title>
<path d="M36.818 12.516c-0.604 0.604-1.191 1.191-1.209 1.778-0.053 0.569 0.551 1.156 1.12 1.707 0.853 0.889 1.689 1.689 1.653 2.56s-0.942 1.778-1.849 2.667l-7.342 7.36-2.524-2.524 7.556-7.538-1.707-1.707-2.524 2.507-6.667-6.667 6.827-6.809c0.693-0.693 1.849-0.693 2.507 0l4.16 4.16c0.693 0.658 0.693 1.813 0 2.507M5.333 30.667l16.996-17.013 6.667 6.667-16.996 17.013h-6.667v-6.667z"></path>
</svg>
