<!-- Generated by IcoMoon.io -->
<svg version="1.1" xmlns="http://www.w3.org/2000/svg" width="43" height="32" viewBox="0 0 43 32">
<title>pencil-circle-outline</title>
<path d="M12.444 26.56l10.773-10.773 3.662 3.662-10.773 10.773h-3.662v-3.662M21.333 35.556c7.858 0 14.222-6.364 14.222-14.222s-6.364-14.222-14.222-14.222-14.222 6.364-14.222 14.222 6.364 14.222 14.222 14.222M29.689 16.622l-1.778 1.778-3.644-3.644 1.778-1.778c0.373-0.391 0.996-0.391 1.369 0l2.276 2.276c0.391 0.373 0.391 0.996 0 1.369M21.333 3.556c9.813 0 17.778 7.964 17.778 17.778s-7.964 17.778-17.778 17.778-17.778-7.964-17.778-17.778 7.964-17.778 17.778-17.778"></path>
</svg>
