<!-- Generated by IcoMoon.io -->
<svg version="1.1" xmlns="http://www.w3.org/2000/svg" width="43" height="32" viewBox="0 0 43 32">
<title>pencil-off</title>
<path d="M33.173 3.556c-0.462 0-0.889 0.16-1.227 0.498l-3.271 3.289 6.667 6.667 3.271-3.289c0.693-0.693 0.693-1.831 0-2.489l-4.16-4.178c-0.356-0.338-0.836-0.498-1.28-0.498M5.831 7.111l-2.276 2.276 11.556 11.502-8 8v6.667h6.667l8-8 11.502 11.556 2.276-2.276-11.556-11.502-6.667-6.667-11.502-11.556M26.773 9.227l-7.164 7.164 6.667 6.667 7.164-7.164-6.667-6.667z"></path>
</svg>
