<!-- Generated by IcoMoon.io -->
<svg version="1.1" xmlns="http://www.w3.org/2000/svg" width="43" height="32" viewBox="0 0 43 32">
<title>pencil-lock</title>
<path d="M9.778 3.556c-2.453 0-4.444 1.991-4.444 4.444v0.889c-0.978 0-1.778 0.8-1.778 1.778v7.111c0 0.978 0.8 1.778 1.778 1.778h8.889c0.978 0 1.778-0.8 1.778-1.778v-7.111c0-0.978-0.8-1.778-1.778-1.778v-0.889c0-2.453-1.991-4.444-4.444-4.444M9.778 5.333c1.476 0 2.667 1.191 2.667 2.667v0.889h-5.333v-0.889c0-1.476 1.191-2.667 2.667-2.667M34.951 5.333c-0.462 0-0.889 0.16-1.227 0.498l-3.271 3.289 6.667 6.667 3.271-3.289c0.693-0.693 0.693-1.831 0-2.489l-4.16-4.178c-0.356-0.338-0.836-0.498-1.28-0.498M28.551 11.004l-19.662 19.662v6.667h6.667l19.662-19.662-6.667-6.667z"></path>
</svg>
