<!-- Generated by IcoMoon.io -->
<svg version="1.1" xmlns="http://www.w3.org/2000/svg" width="43" height="32" viewBox="0 0 43 32">
<title>pencil-circle</title>
<path d="M21.333 3.556c-9.831 0-17.778 7.947-17.778 17.778s7.947 17.778 17.778 17.778 17.778-7.947 17.778-17.778-7.947-17.778-17.778-17.778M26.844 12.569c0.249 0 0.498 0.089 0.711 0.284l2.258 2.258c0.409 0.391 0.409 1.013 0 1.387l-1.778 1.778-3.644-3.644 1.778-1.778c0.178-0.196 0.427-0.284 0.676-0.284M23.342 15.662l3.662 3.662-10.773 10.773h-3.662v-3.662l10.773-10.773z"></path>
</svg>
