<!-- Generated by IcoMoon.io -->
<svg version="1.1" xmlns="http://www.w3.org/2000/svg" width="43" height="32" viewBox="0 0 43 32">
<title>pencil-box</title>
<path d="M33.778 5.333c1.956 0 3.556 1.6 3.556 3.556v24.889c0 1.973-1.6 3.556-3.556 3.556h-24.889c-1.956 0-3.556-1.6-3.556-3.556v-24.889c0-1.956 1.6-3.556 3.556-3.556h24.889M29.689 16.622c0.391-0.373 0.391-0.996 0-1.369l-2.276-2.276c-0.373-0.391-0.996-0.391-1.369 0l-1.778 1.778 3.644 3.644 1.778-1.778M12.444 26.56v3.662h3.662l10.773-10.773-3.662-3.662-10.773 10.773z"></path>
</svg>
