<!-- Generated by IcoMoon.io -->
<svg version="1.1" xmlns="http://www.w3.org/2000/svg" width="43" height="32" viewBox="0 0 43 32">
<title>pencil-box-outline</title>
<path d="M33.778 33.778v-24.889h-24.889v24.889h24.889M33.778 5.333c1.956 0 3.556 1.6 3.556 3.556v24.889c0 1.973-1.6 3.556-3.556 3.556h-24.889c-1.956 0-3.556-1.6-3.556-3.556v-24.889c0-1.956 1.6-3.556 3.556-3.556h24.889M29.689 16.622l-1.778 1.778-3.644-3.644 1.778-1.778c0.373-0.391 0.996-0.391 1.369 0l2.276 2.276c0.391 0.373 0.391 0.996 0 1.369M12.444 26.56l10.773-10.773 3.662 3.662-10.773 10.773h-3.662v-3.662z"></path>
</svg>
