<!-- Generated by IcoMoon.io -->
<svg version="1.1" xmlns="http://www.w3.org/2000/svg" width="43" height="32" viewBox="0 0 43 32">
<title>periscope</title>
<path d="M21.333 12.444c0 1.956-1.6 3.556-3.556 3.556s-3.556-1.6-3.556-3.556c-1.12 1.493-1.778 3.324-1.778 5.333 0 4.907 3.982 8.889 8.889 8.889s8.889-3.982 8.889-8.889-3.982-8.889-8.889-8.889c-0.764 0-1.493 0.089-2.187 0.267 1.298 0.533 2.187 1.813 2.187 3.289M21.333 3.556c7.858 0 14.222 6.364 14.222 14.222 0 1.867-0.356 3.627-1.013 5.262-2.738 7.858-10.311 16.071-13.209 16.071s-10.471-8.213-13.209-16.071c-0.658-1.636-1.013-3.396-1.013-5.262 0-7.858 6.364-14.222 14.222-14.222z"></path>
</svg>
