<!-- Generated by IcoMoon.io -->
<svg version="1.1" xmlns="http://www.w3.org/2000/svg" width="43" height="32" viewBox="0 0 43 32">
<title>phone-missed</title>
<path d="M42.151 29.636c-5.422-5.156-12.747-8.302-20.818-8.302s-15.396 3.147-20.818 8.302c-0.32 0.32-0.516 0.764-0.516 1.262 0 0.48 0.196 0.924 0.516 1.244l4.409 4.409c0.32 0.32 0.764 0.533 1.298 0.533 0.444 0 0.889-0.196 1.209-0.516 1.404-1.316 2.987-2.418 4.729-3.289 0.587-0.284 0.996-0.889 0.996-1.6v-5.511c2.578-0.836 5.316-1.28 8.178-1.28 2.844 0 5.6 0.444 8.178 1.28v5.511c0 0.711 0.409 1.316 0.996 1.6 1.742 0.871 3.324 1.973 4.729 3.289 0.32 0.32 0.764 0.516 1.209 0.516 0.533 0 0.978-0.213 1.298-0.533l4.409-4.409c0.32-0.32 0.516-0.764 0.516-1.244 0-0.498-0.196-0.942-0.516-1.262M11.556 9.778l9.778 9.778 12.444-12.444-1.778-1.778-10.667 10.667-8-8h6.222v-2.667h-10.667v10.667h2.667v-6.222z"></path>
</svg>
