<!-- Generated by IcoMoon.io -->
<svg version="1.1" xmlns="http://www.w3.org/2000/svg" width="43" height="32" viewBox="0 0 43 32">
<title>phone-hangup</title>
<path d="M21.333 16c-2.844 0-5.6 0.444-8.178 1.28v5.511c0 0.711-0.409 1.316-0.996 1.6-1.742 0.871-3.324 1.991-4.747 3.289-0.302 0.32-0.747 0.516-1.191 0.516-0.533 0-0.978-0.213-1.298-0.533l-4.409-4.409c-0.32-0.32-0.516-0.764-0.516-1.244 0-0.498 0.196-0.942 0.516-1.262 5.422-5.156 12.747-8.302 20.818-8.302s15.396 3.147 20.818 8.302c0.32 0.32 0.516 0.764 0.516 1.262 0 0.48-0.196 0.924-0.516 1.244l-4.409 4.409c-0.32 0.32-0.764 0.533-1.298 0.533-0.444 0-0.889-0.196-1.209-0.516-1.404-1.298-2.987-2.418-4.729-3.289-0.587-0.284-0.996-0.889-0.996-1.6v-5.511c-2.578-0.836-5.333-1.28-8.178-1.28z"></path>
</svg>
