<!-- Generated by IcoMoon.io -->
<svg version="1.1" xmlns="http://www.w3.org/2000/svg" width="43" height="32" viewBox="0 0 43 32">
<title>phone-incoming</title>
<path d="M7.111 5.333c-0.978 0-1.778 0.8-1.778 1.778 0 16.693 13.529 30.222 30.222 30.222 0.978 0 1.778-0.8 1.778-1.778v-6.222c0-0.978-0.8-1.778-1.778-1.778-2.222 0-4.356-0.356-6.347-1.013-0.622-0.196-1.316-0.053-1.813 0.427l-3.911 3.911c-5.031-2.56-9.156-6.667-11.716-11.716l3.911-3.929c0.498-0.462 0.64-1.156 0.444-1.778-0.658-1.991-1.013-4.124-1.013-6.347 0-0.978-0.8-1.778-1.778-1.778h-6.222M33.778 19.556v-2.667h-6.222l9.778-9.778-1.778-1.778-9.778 9.778v-6.222h-2.667v10.667h10.667z"></path>
</svg>
