<!-- Generated by IcoMoon.io -->
<svg version="1.1" xmlns="http://www.w3.org/2000/svg" width="43" height="32" viewBox="0 0 43 32">
<title>phone-forward</title>
<path d="M35.556 27.556c-2.222 0-4.356-0.356-6.347-1.013-0.622-0.196-1.316-0.053-1.813 0.444l-3.911 3.911c-5.031-2.56-9.156-6.684-11.716-11.716l3.911-3.911c0.498-0.498 0.64-1.191 0.444-1.813-0.658-1.991-1.013-4.124-1.013-6.347 0-0.978-0.8-1.778-1.778-1.778h-6.222c-0.978 0-1.778 0.8-1.778 1.778 0 16.693 13.529 30.222 30.222 30.222 0.978 0 1.778-0.8 1.778-1.778v-6.222c0-0.978-0.8-1.778-1.778-1.778M32 19.556l8.889-8.889-8.889-8.889v5.333h-7.111v7.111h7.111v5.333z"></path>
</svg>
