<!-- Generated by IcoMoon.io -->
<svg version="1.1" xmlns="http://www.w3.org/2000/svg" width="43" height="32" viewBox="0 0 43 32">
<title>phone-voip</title>
<path d="M23.111 30.222v3.556h1.778c0.978 0 1.778 0.8 1.778 1.778h12.444v3.556h-12.444c0 0.978-0.8 1.778-1.778 1.778h-7.111c-0.978 0-1.778-0.8-1.778-1.778h-12.444v-3.556h12.444c0-0.978 0.8-1.778 1.778-1.778h1.778v-3.556h3.556M42.133 13.636c0.32 0.32 0.533 0.747 0.533 1.244s-0.196 0.942-0.516 1.262l-4.409 4.409c-0.32 0.32-0.764 0.516-1.298 0.516-0.444 0-0.889-0.178-1.209-0.498-1.458-1.298-3.004-2.418-4.747-3.289-0.587-0.284-0.996-0.907-0.996-1.6v-5.511c-2.578-0.836-5.333-1.28-8.16-1.28-2.844 0-5.6 0.444-8.178 1.298v5.511c0 0.711-0.409 1.316-0.996 1.6-1.724 0.871-3.324 1.973-4.729 3.289-0.32 0.302-0.764 0.498-1.209 0.498-0.533 0-0.978-0.196-1.298-0.516l-4.409-4.409c-0.32-0.32-0.516-0.764-0.516-1.262s0.196-0.942 0.516-1.262c5.422-5.138 12.747-8.302 20.818-8.302 8.053 0 15.378 3.164 20.8 8.302M19.556 17.778v8.889h-1.778v-8.889h1.778M21.333 17.778h5.333v5.333h-3.556v3.556h-1.778v-8.889M24.889 21.333v-1.778h-1.778v1.778h1.778z"></path>
</svg>
