<!-- Generated by IcoMoon.io -->
<svg version="1.1" xmlns="http://www.w3.org/2000/svg" width="43" height="32" viewBox="0 0 43 32">
<title>phone-bluetooth</title>
<path d="M35.556 27.556c-2.222 0-4.356-0.356-6.347-1.013-0.622-0.196-1.316-0.053-1.813 0.444l-3.911 3.911c-5.031-2.56-9.156-6.684-11.716-11.716l3.911-3.911c0.498-0.498 0.64-1.191 0.444-1.813-0.658-1.991-1.013-4.124-1.013-6.347 0-0.978-0.8-1.778-1.778-1.778h-6.222c-0.978 0-1.778 0.8-1.778 1.778 0 16.693 13.529 30.222 30.222 30.222 0.978 0 1.778-0.8 1.778-1.778v-6.222c0-0.978-0.8-1.778-1.778-1.778M32 12.818l1.671 1.653-1.671 1.671M32 5.173l1.671 1.671-1.671 1.671M26.151 16.889l4.071-4.071v6.738h0.889l5.067-5.084-3.804-3.804 3.804-3.822-5.067-5.067h-0.889v6.738l-4.071-4.071-1.262 1.262 4.96 4.96-4.96 4.96 1.262 1.262z"></path>
</svg>
