<!-- Generated by IcoMoon.io -->
<svg version="1.1" xmlns="http://www.w3.org/2000/svg" width="43" height="32" viewBox="0 0 43 32">
<title>phone</title>
<path d="M11.769 19.182c2.56 5.031 6.684 9.156 11.716 11.716l3.911-3.911c0.498-0.498 1.191-0.64 1.813-0.444 1.991 0.658 4.124 1.013 6.347 1.013 0.978 0 1.778 0.8 1.778 1.778v6.222c0 0.978-0.8 1.778-1.778 1.778-16.693 0-30.222-13.529-30.222-30.222 0-0.978 0.8-1.778 1.778-1.778h6.222c0.978 0 1.778 0.8 1.778 1.778 0 2.222 0.356 4.356 1.013 6.347 0.196 0.622 0.053 1.316-0.444 1.813l-3.911 3.911z"></path>
</svg>
