<!-- Generated by IcoMoon.io -->
<svg version="1.1" xmlns="http://www.w3.org/2000/svg" width="43" height="32" viewBox="0 0 43 32">
<title>phone-classic</title>
<path d="M21.333 5.333c-8.071 0-15.396 3.164-20.818 8.302-0.32 0.32-0.516 0.764-0.516 1.262s0.196 0.942 0.516 1.262l4.409 4.409c0.32 0.32 0.764 0.516 1.298 0.516 0.444 0 0.889-0.196 1.209-0.498 1.404-1.316 3.004-2.418 4.729-3.289 0.587-0.284 0.996-0.889 0.996-1.6v-5.511c2.578-0.853 5.316-1.298 8.178-1.298 2.827 0 5.582 0.444 8.16 1.28v5.511c0 0.693 0.409 1.316 0.996 1.6 1.742 0.871 3.289 1.991 4.747 3.289 0.32 0.32 0.764 0.498 1.209 0.498 0.533 0 0.978-0.196 1.298-0.516l4.409-4.409c0.32-0.32 0.516-0.764 0.516-1.262s-0.213-0.924-0.533-1.244c-5.422-5.138-12.747-8.302-20.8-8.302M16 12.444v5.333s-10.667 8.889-10.667 14.222v7.111h32v-7.111c0-5.333-10.667-14.222-10.667-14.222v-5.333h-3.556v3.556h-3.556v-3.556h-3.556M21.333 21.333c3.929 0 7.111 3.182 7.111 7.111s-3.182 7.111-7.111 7.111-7.111-3.182-7.111-7.111 3.182-7.111 7.111-7.111M21.333 24c-2.453 0-4.444 1.991-4.444 4.444s1.991 4.444 4.444 4.444 4.444-1.991 4.444-4.444-1.991-4.444-4.444-4.444z"></path>
</svg>
