<!-- Generated by IcoMoon.io -->
<svg version="1.1" xmlns="http://www.w3.org/2000/svg" width="43" height="32" viewBox="0 0 43 32">
<title>pi-box</title>
<path d="M8.889 5.333c-1.973 0-3.556 1.6-3.556 3.556v24.889c0 1.956 1.6 3.556 3.556 3.556h24.889c1.956 0 3.556-1.6 3.556-3.556v-24.889c0-1.956-1.6-3.556-3.556-3.556M10.667 12.444h19.556v3.556h-3.556v8.889c0 0.978 0.8 1.778 1.778 1.778s1.778-0.8 1.778-1.778h3.556c0 2.951-2.382 5.333-5.333 5.333s-5.333-2.382-5.333-5.333v-8.889h-5.333v14.222h-3.556v-14.222h-3.556"></path>
</svg>
