<!-- Generated by IcoMoon.io -->
<svg version="1.1" xmlns="http://www.w3.org/2000/svg" width="43" height="32" viewBox="0 0 43 32">
<title>pig</title>
<path d="M16.889 16c-1.476 0-2.667 1.191-2.667 2.667s1.191 2.667 2.667 2.667 2.667-1.191 2.667-2.667-1.191-2.667-2.667-2.667M25.778 16c-1.476 0-2.667 1.191-2.667 2.667s1.191 2.667 2.667 2.667 2.667-1.191 2.667-2.667-1.191-2.667-2.667-2.667M21.333 7.111l1.209 0.053c1.671-1.404 3.804-2.56 5.404-2.987 3.324-0.889 9.173-0.213 9.938 2.631 0.551 2.080-1.262 4.658-4.053 6.311 2.187 2.738 3.502 6.204 3.502 9.991 0 8.836-7.164 16-16 16s-16-7.164-16-16c0-3.787 1.316-7.253 3.502-9.991-2.791-1.653-4.604-4.231-4.053-6.311 0.764-2.844 6.613-3.52 9.938-2.631 1.6 0.427 3.733 1.582 5.404 2.987l1.209-0.053M17.778 28.444c0.978 0 1.778 0.8 1.778 1.778s-0.8 1.778-1.778 1.778-1.778-0.8-1.778-1.778 0.8-1.778 1.778-1.778M24.889 28.444c0.978 0 1.778 0.8 1.778 1.778s-0.8 1.778-1.778 1.778-1.778-0.8-1.778-1.778 0.8-1.778 1.778-1.778M21.333 23.111c-4.907 0-8.889 4.16-8.889 7.111s3.982 5.333 8.889 5.333 8.889-2.382 8.889-5.333-3.982-7.111-8.889-7.111M13.796 7.609c-0.8-0.213-5.636 0.124-5.636 0.124s3.929 3.111 4.711 3.324c0.8 0.213 4.498 0.373 4.747-0.569 0.267-0.96-3.040-2.667-3.822-2.88M28.871 7.609c-0.782 0.213-4.089 1.92-3.822 2.88 0.249 0.942 3.947 0.782 4.747 0.569 0.782-0.213 4.711-3.324 4.711-3.324s-4.836-0.338-5.636-0.124z"></path>
</svg>
