<!-- Generated by IcoMoon.io -->
<svg version="1.1" xmlns="http://www.w3.org/2000/svg" width="43" height="32" viewBox="0 0 43 32">
<title>pill</title>
<path d="M7.502 20.071l12.569-12.569c4.178-4.16 10.916-4.16 15.093 0 4.16 4.16 4.16 10.916 0 15.093l-12.569 12.569c-4.178 4.16-10.933 4.16-15.093 0-4.16-4.178-4.16-10.916 0-15.093M10.027 22.596c-1.867 1.849-2.489 4.498-1.849 6.862l10.649-10.631 7.538 7.538 6.276-6.293c2.791-2.773 2.791-7.271 0-10.044-2.773-2.791-7.271-2.791-10.044 0l-12.569 12.569z"></path>
</svg>
