<!-- Generated by IcoMoon.io -->
<svg version="1.1" xmlns="http://www.w3.org/2000/svg" width="32" height="32" viewBox="0 0 32 32">
<title>pin</title>
<path d="M20.867 4.689c0.636-0.6 1.689-0.418 2.231 0.222 1.489 1.48 2.951 2.987 4.422 4.484 0.587 0.52 0.902 1.436 0.453 2.147-2.084 2.498-4.702 4.547-6.702 7.102 0.022 2.396-0.644 4.782-2.138 6.684-1.551-1.573-3.102-3.147-4.649-4.724-2.089 2.102-4.138 4.244-6.244 6.32-0.809 0.907-2.431 0.418-2.698-0.729-0.262-0.684 0.098-1.387 0.591-1.849 1.996-2.040 4.018-4.062 6.013-6.107-1.547-1.587-3.111-3.147-4.644-4.738 1.884-1.467 4.249-2.276 6.649-2.093 2.302-2.173 4.418-4.542 6.716-6.72z"></path>
</svg>
