<!-- Generated by IcoMoon.io -->
<svg version="1.1" xmlns="http://www.w3.org/2000/svg" width="43" height="32" viewBox="0 0 43 32">
<title>pinterest</title>
<path d="M23.556 30.667c-1.778 0-3.484-0.764-4.711-2.044l-2.116 7.111-0.142 0.462-0.071-0.036c-0.444 0.729-1.209 1.173-2.080 1.173-1.333 0-2.436-1.102-2.436-2.453 0-0.107 0.018-0.213 0.036-0.32l-0.036-0.018 0.107-0.391 4.107-12.356s-0.444-1.351-0.444-3.271c0-3.822 2.062-4.978 3.698-4.978 1.653 0 3.164 0.587 3.164 2.916 0 2.987-1.991 4.516-1.991 6.649 0 1.671 1.351 3.004 2.987 3.004 5.191 0 7.040-3.893 7.040-7.556 0-4.853-4.196-8.782-9.333-8.782-5.156 0-9.333 3.929-9.333 8.782 0 1.493 0.444 2.987 1.209 4.284 0.196 0.356 0.302 0.747 0.302 1.156 0 1.227-0.996 2.222-2.222 2.222-0.782 0-1.511-0.444-1.92-1.102-1.191-2.009-1.813-4.267-1.813-6.56 0-7.307 6.187-13.227 13.778-13.227s13.778 5.92 13.778 13.227c0 5.831-3.627 12.107-11.556 12.107z"></path>
</svg>
