<!-- Generated by IcoMoon.io -->
<svg version="1.1" xmlns="http://www.w3.org/2000/svg" width="32" height="32" viewBox="0 0 32 32">
<title>pinup</title>
<path d="M15.161 0h1.67c4.123 0.274 8.158 2.092 10.94 5.176 2.504 2.662 3.951 6.215 4.23 9.846v1.823c-0.232 3.687-1.707 7.295-4.243 9.994-2.759 3.052-6.743 4.865-10.829 5.162h-1.28c-8.079-0.014-15.258-6.947-15.648-15.003v-1.572c0.162-3.77 1.637-7.481 4.225-10.245 2.778-3.084 6.813-4.902 10.936-5.18zM12.777 1.739c-6.215 1.336-11.214 7.156-11.358 13.551-0.413 5.533 2.815 10.959 7.638 13.575 3.784 2.082 8.524 2.296 12.508 0.659 2.541-0.979 4.596-2.852 6.279-4.944 2.903-3.919 3.557-9.326 1.804-13.857-2.477-6.567-10.003-10.699-16.872-8.983z"></path>
<path d="M19.047 9.326c1.15-0.352 1.744 1.025 2.523 1.605 0.57 0.765 1.925 1.359 1.568 2.49-1.257 1.475-2.741 2.732-4.044 4.155 0.070 1.447-0.403 2.824-1.201 4.016-0.96-0.918-1.892-1.855-2.824-2.797-1.34 1.28-2.56 2.695-3.974 3.891-0.761 0.468-1.739-0.543-1.303-1.308 1.201-1.415 2.611-2.634 3.886-3.974-0.941-0.932-1.878-1.869-2.797-2.824 1.197-0.812 2.588-1.261 4.039-1.224 1.415-1.308 2.667-2.778 4.128-4.030z"></path>
</svg>
