<!-- Generated by IcoMoon.io -->
<svg version="1.1" xmlns="http://www.w3.org/2000/svg" width="43" height="32" viewBox="0 0 43 32">
<title>pistol</title>
<path d="M12.444 8.889h28.444v7.111h-1.778v1.778h-10.667c-0.978 0-1.778 0.8-1.778 1.778v1.778c0 1.956-1.6 3.556-3.556 3.556h-6.009c-0.676 0-1.298 0.391-1.6 0.996l-4.356 8.693c-0.302 0.604-0.907 0.978-1.582 0.978h-6.009s-5.333 0 1.778-10.667c0 0 5.333-7.111-1.778-7.111v-8.889h1.778l0.889-1.778h5.333l0.889 1.778M24.889 21.333v-1.778c0-0.978-0.8-1.778-1.778-1.778h-1.778s-1.778 1.778 0 3.556c-1.956 0-3.556-1.6-3.556-3.556-0.978 0-1.778 0.8-1.778 1.778v1.778c0 0.978 0.8 1.778 1.778 1.778h5.333c0.978 0 1.778-0.8 1.778-1.778z"></path>
</svg>
