<!-- Generated by IcoMoon.io -->
<svg version="1.1" xmlns="http://www.w3.org/2000/svg" width="43" height="32" viewBox="0 0 43 32">
<title>pizza</title>
<path d="M21.333 26.667c-1.956 0-3.556-1.6-3.556-3.556 0-1.973 1.6-3.556 3.556-3.556s3.556 1.6 3.556 3.556-1.6 3.556-3.556 3.556M12.444 12.444c0-1.973 1.582-3.556 3.556-3.556 1.956 0 3.556 1.6 3.556 3.556s-1.6 3.556-3.556 3.556c-1.973 0-3.556-1.6-3.556-3.556M21.333 3.556c-6.347 0-12.036 2.738-16 7.111l16 28.444 16-28.444c-3.947-4.373-9.653-7.111-16-7.111z"></path>
</svg>
