<!-- Generated by IcoMoon.io -->
<svg version="1.1" xmlns="http://www.w3.org/2000/svg" width="43" height="32" viewBox="0 0 43 32">
<title>plane-shield</title>
<path d="M21.333 1.778l-16 7.111v10.667c0 9.867 6.827 19.093 16 21.333 9.173-2.24 16-11.467 16-21.333v-10.667l-16-7.111M21.333 10.098c0.889 0 1.689 0.764 1.689 1.689v6.187l8.978 5.6v2.258l-8.978-2.809v6.169l2.24 1.689v1.689l-3.929-1.138-3.929 1.138v-1.689l2.24-1.689v-6.169l-8.978 2.809v-2.258l8.978-5.6v-6.187c0-0.924 0.8-1.689 1.689-1.689z"></path>
</svg>
