<!-- Generated by IcoMoon.io -->
<svg version="1.1" xmlns="http://www.w3.org/2000/svg" width="43" height="32" viewBox="0 0 43 32">
<title>playstation</title>
<path d="M16.889 7.591c2.453 0.462 6.044 1.547 8 2.187 4.889 1.689 6.56 3.787 6.56 8.516 0 4.622-2.844 6.364-6.471 4.622v-8.604c0-0.978-0.178-1.92-1.138-2.187-0.729-0.231-1.156 0.444-1.156 1.44v21.511l-5.796-1.849v-25.636M23.769 31.324l9.333-3.324c1.067-0.373 1.227-0.907 0.373-1.191-0.871-0.284-2.418-0.196-3.484 0.178l-6.222 2.187v-3.484l0.373-0.124s1.796-0.676 4.302-0.907c2.542-0.284 5.636 0.036 8.053 0.942 2.738 0.871 3.058 2.151 2.364 3.022-0.711 0.889-2.418 1.511-2.418 1.511l-12.676 4.533v-3.342M6.222 30.969c-2.791-0.747-3.271-2.436-1.991-3.413 1.191-0.889 3.2-1.511 3.2-1.511l8.32-2.933v3.342l-5.973 2.151c-1.067 0.373-1.227 0.907-0.373 1.191s2.418 0.213 3.467-0.178l2.88-1.031v3.004l-0.569 0.107c-2.88 0.462-5.938 0.302-8.96-0.729z"></path>
</svg>
