<!-- Generated by IcoMoon.io -->
<svg version="1.1" xmlns="http://www.w3.org/2000/svg" width="43" height="32" viewBox="0 0 43 32">
<title>plus-circle-multiple-outline</title>
<path d="M28.444 14.222h-3.556v5.333h-5.333v3.556h5.333v5.333h3.556v-5.333h5.333v-3.556h-5.333M3.556 21.333c0-4.96 2.916-9.244 7.111-11.236v-3.876c-6.222 2.24-10.667 8.16-10.667 15.111s4.444 12.871 10.667 15.111v-3.876c-4.196-1.991-7.111-6.276-7.111-11.236M26.667 5.333c-8.818 0-16 7.182-16 16s7.182 16 16 16 16-7.182 16-16-7.182-16-16-16M26.667 33.778c-6.862 0-12.444-5.582-12.444-12.444s5.582-12.444 12.444-12.444 12.444 5.582 12.444 12.444-5.582 12.444-12.444 12.444z"></path>
</svg>
