<!-- Generated by IcoMoon.io -->
<svg version="1.1" xmlns="http://www.w3.org/2000/svg" width="43" height="32" viewBox="0 0 43 32">
<title>pocket</title>
<path d="M39.111 21.333c0 9.813-7.964 17.778-17.778 17.778s-17.778-7.964-17.778-17.778v-13.333c0-2.453 1.991-4.444 4.444-4.444h26.667c2.453 0 4.444 1.991 4.444 4.444v13.333M28.231 14.667l-6.898 6.898-6.898-6.916c-1.049-1.049-2.738-1.049-3.769 0-1.049 1.031-1.049 2.72 0 3.769l8.764 8.818c1.013 1.031 2.738 1.031 3.787 0l8.782-8.8c1.049-1.049 1.049-2.738 0-3.769-1.031-1.049-2.72-1.049-3.769 0z"></path>
</svg>
