<!-- Generated by IcoMoon.io -->
<svg version="1.1" xmlns="http://www.w3.org/2000/svg" width="43" height="32" viewBox="0 0 43 32">
<title>pokeball</title>
<path d="M21.333 3.556c9.813 0 17.778 7.964 17.778 17.778s-7.964 17.778-17.778 17.778-17.778-7.964-17.778-17.778 7.964-17.778 17.778-17.778M21.333 7.111c-7.253 0-13.244 5.422-14.116 12.444h7.236c0.782-3.076 3.573-5.333 6.88-5.333s6.098 2.258 6.88 5.333h7.236c-0.871-7.022-6.862-12.444-14.116-12.444M21.333 35.556c7.253 0 13.244-5.422 14.116-12.444h-7.236c-0.782 3.076-3.573 5.333-6.88 5.333s-6.098-2.258-6.88-5.333h-7.236c0.871 7.022 6.862 12.444 14.116 12.444M21.333 17.778c-1.956 0-3.556 1.6-3.556 3.556s1.6 3.556 3.556 3.556 3.556-1.6 3.556-3.556-1.6-3.556-3.556-3.556z"></path>
</svg>
