<!-- Generated by IcoMoon.io -->
<svg version="1.1" xmlns="http://www.w3.org/2000/svg" width="43" height="32" viewBox="0 0 43 32">
<title>pool</title>
<path d="M3.556 26.667c2.969-1.333 5.92-2.667 8.889-3.253v-14.524c0-2.951 2.382-5.333 5.333-5.333 2.329 0 4.302 1.476 5.031 3.556h-5.031c-0.978 0-1.778 0.8-1.778 1.778v1.778h8.889v-1.778c0-2.951 2.382-5.333 5.333-5.333 2.329 0 4.302 1.476 5.031 3.556h-5.031c-0.978 0-1.778 0.8-1.778 1.778v17.671c3.556-0.569 7.111-3.449 10.667-3.449v3.556c-3.947 0-7.893 3.556-11.858 3.556-3.947 0-7.893-3.556-11.84-3.556-3.964 0-7.911 1.778-11.858 3.556v-3.556M24.889 14.222h-8.889v3.556h8.889v-3.556M24.889 21.333h-8.889v1.778c2.969 0.284 5.92 2.329 8.889 3.182v-4.96M3.556 33.778c3.947-1.778 7.893-3.556 11.858-3.556 3.947 0 7.893 3.556 11.84 3.556 3.964 0 7.911-3.556 11.858-3.556v3.556c-3.947 0-7.893 3.556-11.858 3.556-3.947 0-7.893-3.556-11.84-3.556-3.964 0-7.911 1.778-11.858 3.556v-3.556z"></path>
</svg>
