<!-- Generated by IcoMoon.io -->
<svg version="1.1" xmlns="http://www.w3.org/2000/svg" width="43" height="32" viewBox="0 0 43 32">
<title>popcorn</title>
<path d="M12.444 39.111h-4s-1.333 0-1.671-2.4l-3.147-29.938-0.071-0.551c0-1.476 1.6-2.667 3.556-2.667s3.556 1.191 3.556 2.667c0-1.476 1.6-2.667 3.556-2.667s3.556 1.191 3.556 2.667c0-1.476 1.6-2.667 3.556-2.667 1.938 0 3.556 1.173 3.556 2.667 0-1.476 1.6-2.667 3.556-2.667s3.556 1.191 3.556 2.667c0-1.476 1.6-2.667 3.556-2.667s3.556 1.191 3.556 2.667l-0.071 0.551-3.147 29.938c-0.338 2.4-1.671 2.4-1.671 2.4h-21.778M31.733 8.764c-0.533-0.96-1.796-1.653-3.289-1.653-1.44 0-2.916 0.64-3.556 1.547l-0.391 26.898h5.12l2.116-26.791M17.778 8.658c-0.64-0.907-2.116-1.547-3.556-1.547-1.493 0-2.756 0.693-3.289 1.653l2.116 26.791h5.12l-0.391-26.898z"></path>
</svg>
