<!-- Generated by IcoMoon.io -->
<svg version="1.1" xmlns="http://www.w3.org/2000/svg" width="43" height="32" viewBox="0 0 43 32">
<title>pot</title>
<path d="M33.778 33.778c0 1.956-1.6 3.556-3.556 3.556h-17.778c-1.956 0-3.556-1.6-3.556-3.556v-10.667h-3.556v-5.333h32v5.333h-3.556v10.667M10.667 10.667h3.556v3.556h-3.556v-3.556M19.556 10.667h3.556v3.556h-3.556v-3.556M28.444 10.667h3.556v3.556h-3.556v-3.556M32 5.333h3.556v3.556h-3.556v-3.556M23.111 5.333h3.556v3.556h-3.556v-3.556M14.222 5.333h3.556v3.556h-3.556v-3.556z"></path>
</svg>
