<!-- Generated by IcoMoon.io -->
<svg version="1.1" xmlns="http://www.w3.org/2000/svg" width="43" height="32" viewBox="0 0 43 32">
<title>pound-box</title>
<path d="M5.333 8.889c0-1.956 1.6-3.556 3.556-3.556h24.889c1.956 0 3.556 1.6 3.556 3.556v24.889c0 1.956-1.6 3.556-3.556 3.556h-24.889c-1.973 0-3.556-1.6-3.556-3.556v-24.889M12.444 32h3.556l0.622-3.556h7.111l-0.622 3.556h3.556l0.622-3.556h3.556l0.64-3.556h-3.556l1.244-7.111h3.556l0.622-3.556h-3.556l0.64-3.556h-3.556l-0.64 3.556h-7.111l0.64-3.556h-3.556l-0.64 3.556h-3.556l-0.622 3.556h3.556l-1.244 7.111h-3.556l-0.64 3.556h3.556l-0.622 3.556M18.507 17.778h7.111l-1.244 7.111h-7.111l1.244-7.111z"></path>
</svg>
