<!-- Generated by IcoMoon.io -->
<svg version="1.1" xmlns="http://www.w3.org/2000/svg" width="43" height="32" viewBox="0 0 43 32">
<title>power-settings</title>
<path d="M26.667 42.667h3.556v-3.556h-3.556M29.44 7.893l-2.578 2.578c3.076 1.867 5.138 5.227 5.138 9.084 0 5.884-4.782 10.667-10.667 10.667s-10.667-4.782-10.667-10.667c0-3.858 2.062-7.218 5.12-9.102l-2.56-2.56c-3.698 2.56-6.116 6.827-6.116 11.662 0 7.858 6.364 14.222 14.222 14.222s14.222-6.364 14.222-14.222c0-4.836-2.418-9.102-6.116-11.662M23.111 3.556h-3.556v17.778h3.556M19.556 42.667h3.556v-3.556h-3.556M12.444 42.667h3.556v-3.556h-3.556v3.556z"></path>
</svg>
