<!-- Generated by IcoMoon.io -->
<svg version="1.1" xmlns="http://www.w3.org/2000/svg" width="43" height="32" viewBox="0 0 43 32">
<title>power-plug-off</title>
<path d="M14.222 5.333v5.653c5.511 5.422 10.844 10.88 16.356 16.213 0.356-0.533 1.067-0.889 1.422-1.6v-9.956c0-1.991-2.311-2.916-3.556-3.484v-6.827h-3.556v7.111h-7.111v-7.111h-3.556M5.831 7.111c-0.764 0.747-1.511 1.511-2.276 2.258l7.111 7.111v9.298c2.080 2.044 4.142 4.142 6.222 6.222v5.333h8.889v-5.333c0.391-0.48 0.8 0.587 1.191 0.782 2.133 2.133 4.089 4.267 6.222 6.4 0.889-0.711 1.6-1.6 2.311-2.311-9.956-9.956-19.911-19.733-29.689-29.689l0.018-0.071z"></path>
</svg>
