<!-- Generated by IcoMoon.io -->
<svg version="1.1" xmlns="http://www.w3.org/2000/svg" width="43" height="32" viewBox="0 0 43 32">
<title>presentation-play</title>
<path d="M3.556 5.333h14.222c0-1.956 1.6-3.556 3.556-3.556s3.556 1.6 3.556 3.556h14.222v3.556h-1.778v19.556h-10.222l3.111 10.667h-3.556l-3.111-10.667h-4.444l-3.111 10.667h-3.556l3.111-10.667h-10.222v-19.556h-1.778v-3.556M8.889 8.889v16h24.889v-16h-24.889M21.067 21.067c-0.16 0.16-0.373 0.267-0.622 0.267-0.498 0-0.889-0.391-0.889-0.889v-7.111c0-0.498 0.391-0.889 0.889-0.889 0.249 0 0.462 0.107 0.622 0.267l2.489 2.471c0.569 0.569 1.138 1.138 1.138 1.707s-0.569 1.138-1.138 1.707l-2.489 2.471z"></path>
</svg>
