<!-- Generated by IcoMoon.io -->
<svg version="1.1" xmlns="http://www.w3.org/2000/svg" width="43" height="32" viewBox="0 0 43 32">
<title>printer-settings</title>
<path d="M32 3.556v7.111h-21.333v-7.111h21.333M33.778 19.556c0.978 0 1.778-0.8 1.778-1.778s-0.8-1.778-1.778-1.778-1.778 0.8-1.778 1.778 0.8 1.778 1.778 1.778M28.444 32v-8.889h-14.222v8.889h14.222M33.778 12.444c2.951 0 5.333 2.382 5.333 5.333v10.667h-7.111v7.111h-21.333v-7.111h-7.111v-10.667c0-2.951 2.382-5.333 5.333-5.333h24.889M26.667 42.667v-3.556h3.556v3.556h-3.556M19.556 42.667v-3.556h3.556v3.556h-3.556M12.444 42.667v-3.556h3.556v3.556h-3.556z"></path>
</svg>
