<!-- Generated by IcoMoon.io -->
<svg version="1.1" xmlns="http://www.w3.org/2000/svg" width="43" height="32" viewBox="0 0 43 32">
<title>printer-alert</title>
<path d="M24.889 7.111v7.111h-14.222v-7.111h14.222M26.667 23.111c0.978 0 1.778-0.8 1.778-1.778s-0.8-1.778-1.778-1.778-1.778 0.8-1.778 1.778 0.8 1.778 1.778 1.778M23.111 33.778v-7.111h-10.667v7.111h10.667M26.667 16c2.951 0 5.333 2.382 5.333 5.333v8.889h-5.333v7.111h-17.778v-7.111h-5.333v-8.889c0-2.951 2.382-5.333 5.333-5.333h17.778M39.111 12.444v8.889h-3.556v-8.889h3.556M39.111 24.889v3.556h-3.556v-3.556h3.556z"></path>
</svg>
