<!-- Generated by IcoMoon.io -->
<svg version="1.1" xmlns="http://www.w3.org/2000/svg" width="43" height="32" viewBox="0 0 43 32">
<title>printer-3d</title>
<path d="M33.778 10.667c0.978 0 1.778-0.8 1.778-1.778s-0.8-1.778-1.778-1.778-1.778 0.8-1.778 1.778 0.8 1.778 1.778 1.778M33.778 3.556c2.951 0 5.333 2.382 5.333 5.333v10.667h-7.111v-7.111h-21.333v7.111h-7.111v-10.667c0-2.951 2.382-5.333 5.333-5.333h24.889M32 32.444c0 0.676-0.373 1.262-0.942 1.564l-8.711 4.782c-0.302 0.213-0.64 0.32-1.013 0.32s-0.729-0.107-1.013-0.32l-8.711-4.782c-0.569-0.302-0.942-0.889-0.942-1.564v-9.333c0-0.676 0.373-1.262 0.942-1.564l8.711-4.338c0.284-0.213 0.64-0.32 1.013-0.32s0.711 0.107 1.013 0.32l8.711 4.338c0.569 0.302 0.942 0.889 0.942 1.564v9.333M21.333 20.711l-5.262 2.4 5.262 2.844 5.262-2.844-5.262-2.4M14.222 31.396l5.333 2.898v-5.262l-5.333-2.88v5.244M28.444 31.396v-5.244l-5.333 2.88v5.262l5.333-2.898z"></path>
</svg>
