<!-- Generated by IcoMoon.io -->
<svg version="1.1" xmlns="http://www.w3.org/2000/svg" width="43" height="32" viewBox="0 0 43 32">
<title>professional-hexagon</title>
<path d="M37.333 29.333c0 0.676-0.373 1.262-0.942 1.564l-14.044 7.893c-0.284 0.213-0.64 0.32-1.013 0.32s-0.729-0.107-1.013-0.32l-14.044-7.893c-0.569-0.302-0.942-0.889-0.942-1.564v-16c0-0.676 0.373-1.262 0.942-1.564l14.044-7.893c0.284-0.213 0.64-0.32 1.013-0.32s0.729 0.107 1.013 0.32l14.044 7.893c0.569 0.302 0.942 0.889 0.942 1.564v16M8.889 16v10.667h2.222v-3.556h1.333c1.956 0 3.556-1.6 3.556-3.556s-1.6-3.556-3.556-3.556h-3.556M11.111 21.333v-3.556h0.889c0.978 0 1.778 0.8 1.778 1.778s-0.8 1.778-1.778 1.778h-0.889M17.333 16v10.667h2.222v-3.556h1.333l1.173 3.556h2.347l-1.404-4.249c0.871-0.64 1.44-1.689 1.44-2.862 0-1.956-1.6-3.556-3.556-3.556h-3.556M19.556 21.333v-3.556h0.889c0.978 0 1.778 0.8 1.778 1.778s-0.8 1.778-1.778 1.778h-0.889M30.222 16c-2.453 0-4.444 2.382-4.444 5.333s1.991 5.333 4.444 5.333 4.444-2.382 4.444-5.333-1.991-5.333-4.444-5.333M30.222 18.222c1.351 0 2.453 1.387 2.453 3.111s-1.102 3.111-2.453 3.111c-1.351 0-2.436-1.387-2.436-3.111s1.084-3.111 2.436-3.111z"></path>
</svg>
