<!-- Generated by IcoMoon.io -->
<svg version="1.1" xmlns="http://www.w3.org/2000/svg" width="43" height="32" viewBox="0 0 43 32">
<title>projector</title>
<path d="M28.444 10.667c-2.009 0-3.964 0.622-5.618 1.778h-15.716c-1.973 0-3.556 1.582-3.556 3.556v10.667c0 1.973 1.582 3.556 3.556 3.556h1.778v1.778c0 0.978 0.8 1.778 1.778 1.778h3.556c0.978 0 1.778-0.8 1.778-1.778v-1.778h10.667v1.778c0 0.978 0.8 1.778 1.778 1.778h3.556c0.978 0 1.778-0.8 1.778-1.778v-1.778h1.778c1.973 0 3.556-1.582 3.556-3.556v-10.667c0-1.973-1.582-3.556-3.556-3.556h-1.511c-1.636-1.156-3.591-1.778-5.6-1.778M28.444 13.333c3.431 0 6.222 2.791 6.222 6.222s-2.791 6.222-6.222 6.222-6.222-2.791-6.222-6.222 2.791-6.222 6.222-6.222M7.111 16h7.111v1.778h-7.111v-1.778M28.444 16c-1.956 0-3.556 1.6-3.556 3.556s1.6 3.556 3.556 3.556 3.556-1.6 3.556-3.556-1.6-3.556-3.556-3.556M7.111 19.556h7.111v1.778h-7.111v-1.778M7.111 23.111h7.111v1.778h-7.111v-1.778z"></path>
</svg>
