<!-- Generated by IcoMoon.io -->
<svg version="1.1" xmlns="http://www.w3.org/2000/svg" width="43" height="32" viewBox="0 0 43 32">
<title>puzzle</title>
<path d="M36.444 19.556h-2.667v-7.111c0-1.973-1.6-3.556-3.556-3.556h-7.111v-2.667c0-2.453-1.991-4.444-4.444-4.444s-4.444 1.991-4.444 4.444v2.667h-7.111c-1.956 0-3.556 1.6-3.556 3.556v6.756h2.667c2.667 0 4.8 2.133 4.8 4.8s-2.133 4.8-4.8 4.8h-2.667v6.756c0 1.956 1.6 3.556 3.556 3.556h6.756v-2.667c0-2.667 2.133-4.8 4.8-4.8s4.8 2.133 4.8 4.8v2.667h6.756c1.956 0 3.556-1.6 3.556-3.556v-7.111h2.667c2.453 0 4.444-1.991 4.444-4.444s-1.991-4.444-4.444-4.444z"></path>
</svg>
