<!-- Generated by IcoMoon.io -->
<svg version="1.1" xmlns="http://www.w3.org/2000/svg" width="43" height="32" viewBox="0 0 43 32">
<title>qqchat</title>
<path d="M5.653 24.071c1.031-2.453 2.471-4.267 3.538-4.658-0.018-1.422 0.249-2.311 0.693-3.022 0-0.053-0.107-0.64 0.284-1.369 0.267-6.4 4.427-11.467 11.164-11.467s10.898 5.067 11.164 11.467c0.391 0.729 0.284 1.316 0.284 1.369 0.444 0.711 0.711 1.6 0.693 3.022 1.067 0.391 2.507 2.204 3.538 4.676 1.333 3.129 1.547 6.133 0.48 6.667-0.729 0.356-1.884-0.533-2.969-2.098-0.427 1.742-1.493 3.342-3.004 4.604 1.6 0.587 2.631 1.547 2.631 2.631 0 1.778-2.809 3.218-6.258 3.218-3.129 0-5.671-1.173-6.187-2.667h-0.747c-0.516 1.493-3.058 2.667-6.187 2.667-3.449 0-6.258-1.44-6.258-3.218 0-1.084 1.031-2.044 2.631-2.631-1.511-1.262-2.578-2.862-3.004-4.604-1.084 1.564-2.24 2.453-2.969 2.098-1.067-0.533-0.853-3.538 0.48-6.684z"></path>
</svg>
