<!-- Generated by IcoMoon.io -->
<svg version="1.1" xmlns="http://www.w3.org/2000/svg" width="43" height="32" viewBox="0 0 43 32">
<title>qrcode-scan</title>
<path d="M7.111 7.111h10.667v10.667h-10.667v-10.667M35.556 7.111v10.667h-10.667v-10.667h10.667M24.889 26.667h3.556v-3.556h-3.556v-3.556h3.556v3.556h3.556v-3.556h3.556v3.556h-3.556v3.556h3.556v5.333h-3.556v3.556h-3.556v-3.556h-5.333v3.556h-3.556v-7.111h5.333v-1.778M28.444 26.667v5.333h3.556v-5.333h-3.556M7.111 35.556v-10.667h10.667v10.667h-10.667M10.667 10.667v3.556h3.556v-3.556h-3.556M28.444 10.667v3.556h3.556v-3.556h-3.556M10.667 28.444v3.556h3.556v-3.556h-3.556M7.111 19.556h3.556v3.556h-3.556v-3.556M16 19.556h7.111v7.111h-3.556v-3.556h-3.556v-3.556M19.556 10.667h3.556v7.111h-3.556v-7.111M3.556 3.556v7.111h-3.556v-7.111c0-1.956 1.6-3.556 3.556-3.556h7.111v3.556h-7.111M39.111 0c1.956 0 3.556 1.6 3.556 3.556v7.111h-3.556v-7.111h-7.111v-3.556h7.111M3.556 32v7.111h7.111v3.556h-7.111c-1.956 0-3.556-1.6-3.556-3.556v-7.111h3.556M39.111 39.111v-7.111h3.556v7.111c0 1.956-1.6 3.556-3.556 3.556h-7.111v-3.556h7.111z"></path>
</svg>
