<!-- Generated by IcoMoon.io -->
<svg version="1.1" xmlns="http://www.w3.org/2000/svg" width="43" height="32" viewBox="0 0 43 32">
<title>qrcode</title>
<path d="M5.333 19.556h3.556v3.556h-3.556v-3.556M19.556 8.889h3.556v7.111h-3.556v-7.111M16 19.556h7.111v7.111h-3.556v-3.556h-3.556v-3.556M26.667 19.556h3.556v3.556h3.556v-3.556h3.556v3.556h-3.556v3.556h3.556v7.111h-3.556v3.556h-3.556v-3.556h-7.111v3.556h-3.556v-7.111h7.111v-3.556h3.556v-3.556h-3.556v-3.556M33.778 33.778v-7.111h-3.556v7.111h3.556M26.667 5.333h10.667v10.667h-10.667v-10.667M30.222 8.889v3.556h3.556v-3.556h-3.556M5.333 5.333h10.667v10.667h-10.667v-10.667M8.889 8.889v3.556h3.556v-3.556h-3.556M5.333 26.667h10.667v10.667h-10.667v-10.667M8.889 30.222v3.556h3.556v-3.556h-3.556z"></path>
</svg>
