<!-- Generated by IcoMoon.io -->
<svg version="1.1" xmlns="http://www.w3.org/2000/svg" width="43" height="32" viewBox="0 0 43 32">
<title>quadcopter</title>
<path d="M9.778 1.778c4.444 0 8 3.556 8 8 0 1.564-0.444 3.022-1.227 4.267l0.178 0.178h9.209l0.178-0.178c-0.782-1.244-1.227-2.702-1.227-4.267 0-4.444 3.556-8 8-8s8 3.556 8 8-3.556 8-8 8c-1.564 0-3.022-0.444-4.267-1.227l-1.956 1.956v5.653l1.956 1.956c1.244-0.782 2.702-1.227 4.267-1.227 4.444 0 8 3.556 8 8s-3.556 8-8 8-8-3.556-8-8c0-1.564 0.444-3.022 1.227-4.267l-0.178-0.178h-9.209l-0.178 0.178c0.782 1.244 1.227 2.702 1.227 4.267 0 4.444-3.556 8-8 8s-8-3.556-8-8 3.556-8 8-8c1.564 0 3.022 0.444 4.267 1.227l1.956-1.956v-5.653l-1.956-1.956c-1.244 0.782-2.702 1.227-4.267 1.227-4.444 0-8-3.556-8-8s3.556-8 8-8M9.778 5.333c-2.453 0-4.444 1.991-4.444 4.444s1.991 4.444 4.444 4.444 4.444-1.991 4.444-4.444-1.991-4.444-4.444-4.444M9.778 28.444c-2.453 0-4.444 1.991-4.444 4.444s1.991 4.444 4.444 4.444 4.444-1.991 4.444-4.444-1.991-4.444-4.444-4.444M32.889 5.333c-2.453 0-4.444 1.991-4.444 4.444s1.991 4.444 4.444 4.444 4.444-1.991 4.444-4.444-1.991-4.444-4.444-4.444M32.889 28.444c-2.453 0-4.444 1.991-4.444 4.444s1.991 4.444 4.444 4.444 4.444-1.991 4.444-4.444-1.991-4.444-4.444-4.444M6.951 30.667l2.009 1.173c0.231-0.178 0.516-0.284 0.818-0.284 0.729 0 1.333 0.604 1.333 1.333l-0.018 0.178 2.009 1.156-0.498 0.889-2.009-1.173c-0.231 0.178-0.516 0.284-0.818 0.284-0.729 0-1.333-0.604-1.333-1.333l0.018-0.178-2.009-1.156 0.498-0.889M6.453 11.111l2.009-1.156-0.018-0.178c0-0.729 0.604-1.333 1.333-1.333 0.302 0 0.587 0.107 0.818 0.284l2.009-1.173 0.498 0.889-2.009 1.156 0.018 0.178c0 0.729-0.604 1.333-1.333 1.333-0.302 0-0.587-0.107-0.818-0.284l-2.009 1.173-0.498-0.889M30.062 7.556l2.009 1.173c0.231-0.178 0.516-0.284 0.818-0.284 0.729 0 1.333 0.604 1.333 1.333l-0.018 0.178 2.009 1.156-0.498 0.889-2.009-1.173c-0.231 0.178-0.516 0.284-0.818 0.284-0.729 0-1.333-0.604-1.333-1.333l0.018-0.178-2.009-1.156 0.498-0.889M29.564 34.222l1.991-1.333c0-0.729 0.604-1.333 1.333-1.333 0.302 0 0.587 0.107 0.818 0.284l2.009-1.173 0.498 0.889-1.991 1.333c0 0.729-0.604 1.333-1.333 1.333-0.302 0-0.587-0.107-0.818-0.284l-2.009 1.173-0.498-0.889z"></path>
</svg>
