<!-- Generated by IcoMoon.io -->
<svg version="1.1" xmlns="http://www.w3.org/2000/svg" width="43" height="32" viewBox="0 0 43 32">
<title>quicktime</title>
<path d="M21.333 5.333c8.836 0 16 7.164 16 16 0 3.129-0.889 6.044-2.453 8.516l2.453 2.453v3.253c0 0.978-0.8 1.778-1.778 1.778h-3.236l-2.471-2.453c-2.453 1.564-5.387 2.453-8.516 2.453-8.836 0-16-7.164-16-16s7.164-16 16-16M21.333 12.444c-4.907 0-8.889 3.982-8.889 8.889s3.982 8.889 8.889 8.889c1.156 0 2.24-0.213 3.253-0.622l-5.12-5.12c-1.387-1.369-1.387-3.644 0-5.031s3.644-1.387 5.031 0l5.12 5.12c0.391-0.996 0.604-2.098 0.604-3.236 0-4.907-3.982-8.889-8.889-8.889z"></path>
</svg>
