<!-- Generated by IcoMoon.io -->
<svg version="1.1" xmlns="http://www.w3.org/2000/svg" width="43" height="32" viewBox="0 0 43 32">
<title>radar</title>
<path d="M33.902 8.764l-2.507 2.507c2.56 2.578 4.16 6.133 4.16 10.062 0 7.858-6.364 14.222-14.222 14.222s-14.222-6.364-14.222-14.222c0-7.253 5.422-13.227 12.444-14.098v3.591c-5.049 0.853-8.889 5.227-8.889 10.507 0 5.884 4.782 10.667 10.667 10.667s10.667-4.782 10.667-10.667c0-2.951-1.191-5.618-3.129-7.538l-2.507 2.507c1.28 1.298 2.080 3.076 2.080 5.031 0 3.929-3.182 7.111-7.111 7.111s-7.111-3.182-7.111-7.111c0-3.307 2.276-6.062 5.333-6.862v3.804c-1.067 0.622-1.778 1.742-1.778 3.058 0 1.956 1.6 3.556 3.556 3.556s3.556-1.6 3.556-3.556c0-1.316-0.711-2.453-1.778-3.058v-14.72h-1.778c-9.813 0-17.778 7.964-17.778 17.778s7.964 17.778 17.778 17.778 17.778-7.964 17.778-17.778c0-4.907-1.991-9.351-5.209-12.569z"></path>
</svg>
