<!-- Generated by IcoMoon.io -->
<svg version="1.1" xmlns="http://www.w3.org/2000/svg" width="43" height="32" viewBox="0 0 43 32">
<title>radiator</title>
<path d="M14.133 5.333l-2.524 3.893 2.524 3.929h-0.018l-3.538 5.511-3.076-1.6 2.524-3.929-2.524-3.911 3.556-5.511 3.076 1.618M24.8 5.138l-2.524 3.929 2.524 3.911-0.018 0.018-3.538 5.493-3.076-1.6 2.524-3.911-2.524-3.911 3.556-5.511 3.076 1.582M35.556 5.138l-2.56 3.929 2.56 3.911v0.018l-3.556 5.493-3.111-1.6 2.524-3.911-2.524-3.911 3.556-5.511 3.111 1.582M3.556 39.111v-14.222c0-1.956 1.6-3.556 3.556-3.556h28.444c1.956 0 3.556 1.6 3.556 3.556v14.222h-3.556v-3.556h-28.444v3.556h-3.556M10.667 24.889c-0.978 0-1.778 0.8-1.778 1.778v3.556c0 0.978 0.8 1.778 1.778 1.778s1.778-0.8 1.778-1.778v-3.556c0-0.978-0.8-1.778-1.778-1.778M17.778 24.889c-0.978 0-1.778 0.8-1.778 1.778v3.556c0 0.978 0.8 1.778 1.778 1.778s1.778-0.8 1.778-1.778v-3.556c0-0.978-0.8-1.778-1.778-1.778M24.889 24.889c-0.978 0-1.778 0.8-1.778 1.778v3.556c0 0.978 0.8 1.778 1.778 1.778s1.778-0.8 1.778-1.778v-3.556c0-0.978-0.8-1.778-1.778-1.778M32 24.889c-0.978 0-1.778 0.8-1.778 1.778v3.556c0 0.978 0.8 1.778 1.778 1.778s1.778-0.8 1.778-1.778v-3.556c0-0.978-0.8-1.778-1.778-1.778z"></path>
</svg>
