<!-- Generated by IcoMoon.io -->
<svg version="1.1" xmlns="http://www.w3.org/2000/svg" width="43" height="32" viewBox="0 0 43 32">
<title>radioactive</title>
<path d="M21.333 17.778c1.956 0 3.556 1.6 3.556 3.556s-1.6 3.556-3.556 3.556-3.556-1.6-3.556-3.556 1.6-3.556 3.556-3.556M21.333 39.111c-3.467 0-6.72-0.996-9.44-2.72l5.884-8.889c1.067 0.604 2.276 0.942 3.556 0.942s2.489-0.338 3.556-0.942l5.884 8.889c-2.72 1.724-5.973 2.72-9.44 2.72M3.556 21.333c0-7.36 4.444-13.689 10.862-16.391l3.964 9.92c-2.453 1.138-4.16 3.591-4.16 6.471h-10.667M28.444 21.333c0-2.88-1.707-5.333-4.16-6.471l3.964-9.92c6.418 2.702 10.862 9.031 10.862 16.391h-10.667z"></path>
</svg>
