<!-- Generated by IcoMoon.io -->
<svg version="1.1" xmlns="http://www.w3.org/2000/svg" width="43" height="32" viewBox="0 0 43 32">
<title>radio</title>
<path d="M35.556 10.667c1.956 0 3.556 1.6 3.556 3.556v21.333c0 1.956-1.6 3.556-3.556 3.556h-28.444c-1.956 0-3.556-1.6-3.556-3.556v-21.333c0-1.511 0.942-2.809 2.276-3.324l22.098-9.12 1.351 3.253-13.582 5.636h19.858M35.556 14.222h-28.444v7.111h21.333v-3.556h3.556v3.556h3.556v-7.111M12.444 24.889c-2.951 0-5.333 2.382-5.333 5.333s2.382 5.333 5.333 5.333 5.333-2.382 5.333-5.333-2.382-5.333-5.333-5.333z"></path>
</svg>
