<!-- Generated by IcoMoon.io -->
<svg version="1.1" xmlns="http://www.w3.org/2000/svg" width="43" height="32" viewBox="0 0 43 32">
<title>radiobox-marked</title>
<path d="M21.333 35.556c-7.858 0-14.222-6.364-14.222-14.222s6.364-14.222 14.222-14.222 14.222 6.364 14.222 14.222-6.364 14.222-14.222 14.222M21.333 3.556c-9.813 0-17.778 7.964-17.778 17.778s7.964 17.778 17.778 17.778 17.778-7.964 17.778-17.778-7.964-17.778-17.778-17.778M21.333 12.444c-4.907 0-8.889 3.982-8.889 8.889s3.982 8.889 8.889 8.889 8.889-3.982 8.889-8.889-3.982-8.889-8.889-8.889z"></path>
</svg>
