<!-- Generated by IcoMoon.io -->
<svg version="1.1" xmlns="http://www.w3.org/2000/svg" width="43" height="32" viewBox="0 0 43 32">
<title>radio-tower</title>
<path d="M21.333 17.778c1.956 0 3.556 1.6 3.556 3.556 0 0.889-0.32 1.671-0.836 2.293l5.636 15.484h-3.787l-4.569-12.569-4.569 12.569h-3.787l5.636-15.484c-0.516-0.622-0.836-1.404-0.836-2.293 0-1.956 1.6-3.556 3.556-3.556M21.333 14.222c-3.929 0-7.111 3.182-7.111 7.111 0 0.889 0.178 1.778 0.498 2.596l-1.564 4.267c-1.547-1.867-2.489-4.249-2.489-6.862 0-5.884 4.782-10.667 10.667-10.667s10.667 4.782 10.667 10.667c0 2.613-0.942 4.996-2.489 6.862l-1.564-4.267c0.32-0.818 0.498-1.707 0.498-2.596 0-3.929-3.182-7.111-7.111-7.111M21.333 7.111c-7.858 0-14.222 6.364-14.222 14.222 0 4.196 1.778 8 4.693 10.56l-1.28 3.556c-4.231-3.253-6.969-8.373-6.969-14.116 0-9.813 7.964-17.778 17.778-17.778s17.778 7.964 17.778 17.778c0 5.742-2.738 10.862-6.969 14.116l-1.28-3.556c2.916-2.56 4.693-6.364 4.693-10.56 0-7.858-6.364-14.222-14.222-14.222z"></path>
</svg>
