<!-- Generated by IcoMoon.io -->
<svg version="1.1" xmlns="http://www.w3.org/2000/svg" width="43" height="32" viewBox="0 0 43 32">
<title>raspberrypi</title>
<path d="M35.556 14.222h3.556v3.556h-3.556v-3.556M7.111 8.889h28.444c1.956 0 3.556 1.6 3.556 3.556h-5.333v3.556h-24.889v7.111h5.333v5.333h19.556v1.778h5.333c0 1.956-1.6 3.556-3.556 3.556h-7.111v1.778h-3.556v-1.778h-5.333v1.778h-7.111v-1.778h-5.333c-1.956 0-3.556-1.6-3.556-3.556v-17.778c0-1.956 1.6-3.556 3.556-3.556M33.778 26.667h-17.778v-8.889h17.778v1.778h5.333v3.556h-5.333v3.556M23.111 21.333v3.556h3.556v-3.556h-3.556M8.889 10.667v3.556h1.778v-3.556h-1.778M12.444 10.667v3.556h1.778v-3.556h-1.778M16 10.667v3.556h1.778v-3.556h-1.778M19.556 10.667v3.556h1.778v-3.556h-1.778M23.111 10.667v3.556h1.778v-3.556h-1.778M26.667 10.667v3.556h1.778v-3.556h-1.778M35.556 24.889h3.556v3.556h-3.556v-3.556z"></path>
</svg>
