<!-- Generated by IcoMoon.io -->
<svg version="1.1" xmlns="http://www.w3.org/2000/svg" width="43" height="32" viewBox="0 0 43 32">
<title>rdio</title>
<path d="M34.293 19.271c0.107 0.676 0.16 1.369 0.16 2.062 0 8.196-6.898 14.844-15.467 14.844-8.551 0-15.431-6.649-15.431-14.844s6.88-14.844 15.431-14.844c1.671 0 3.289 0.249 4.8 0.729v8.978s-4.604-2.524-8.729 0.427c-4.124 2.933-3.342 6.062-3.342 6.062s0.196 4.871 6.009 4.871c6.489 0 8.338-5.884 8.338-5.884v-13.529c1.244 0.622 2.382 1.387 3.538 2.258 2.756 1.724 5.636 2.827 8.924 2.738 0 0 0.587-0.142 0.587 1.084 0 0.711-0.213 1.476-0.889 2.222 0 0-1.28 1.92-3.929 2.827z"></path>
</svg>
