<!-- Generated by IcoMoon.io -->
<svg version="1.1" xmlns="http://www.w3.org/2000/svg" width="43" height="32" viewBox="0 0 43 32">
<title>react</title>
<path d="M21.333 17.973c1.831 0 3.324 1.493 3.324 3.36 0 1.778-1.493 3.289-3.324 3.289s-3.324-1.511-3.324-3.289c0-1.867 1.493-3.36 3.324-3.36M13.102 35.556c1.12 0.676 3.573-0.356 6.4-3.022-0.924-1.049-1.831-2.187-2.684-3.378-1.458-0.142-2.898-0.356-4.267-0.64-0.907 3.804-0.569 6.418 0.551 7.040M14.364 25.351l-0.516-0.907c-0.196 0.516-0.391 1.031-0.516 1.529 0.48 0.107 1.013 0.196 1.564 0.284l-0.533-0.907M25.991 24l1.44-2.667-1.44-2.667c-0.533-0.942-1.102-1.778-1.618-2.613-0.96-0.053-1.973-0.053-3.040-0.053s-2.080 0-3.040 0.053c-0.516 0.836-1.084 1.671-1.618 2.613l-1.44 2.667 1.44 2.667c0.533 0.942 1.102 1.778 1.618 2.613 0.96 0.053 1.973 0.053 3.040 0.053s2.080 0 3.040-0.053c0.516-0.836 1.084-1.671 1.618-2.613M21.333 12.053c-0.338 0.391-0.693 0.8-1.049 1.28h2.098c-0.356-0.48-0.711-0.889-1.049-1.28M21.333 30.613c0.338-0.391 0.693-0.8 1.049-1.28h-2.098c0.356 0.48 0.711 0.889 1.049 1.28M29.547 7.111c-1.102-0.676-3.556 0.356-6.382 3.022 0.924 1.049 1.831 2.187 2.684 3.378 1.458 0.142 2.898 0.356 4.267 0.64 0.907-3.804 0.569-6.418-0.569-7.040M28.302 17.316l0.516 0.907c0.196-0.516 0.391-1.031 0.516-1.529-0.48-0.107-1.013-0.196-1.564-0.284l0.533 0.907M30.88 4.782c2.613 1.493 2.898 5.422 1.796 10.009 4.516 1.333 7.769 3.538 7.769 6.542s-3.253 5.209-7.769 6.542c1.102 4.587 0.818 8.516-1.796 10.009-2.596 1.493-6.133-0.213-9.547-3.467-3.413 3.253-6.951 4.96-9.564 3.467-2.596-1.493-2.88-5.422-1.778-10.009-4.516-1.333-7.769-3.538-7.769-6.542s3.253-5.209 7.769-6.542c-1.102-4.587-0.818-8.516 1.778-10.009 2.613-1.493 6.151 0.213 9.564 3.467 3.413-3.253 6.951-4.96 9.547-3.467M30.364 21.333c0.604 1.333 1.138 2.667 1.582 4.018 3.733-1.12 5.831-2.72 5.831-4.018s-2.098-2.898-5.831-4.018c-0.444 1.351-0.978 2.684-1.582 4.018M12.302 21.333c-0.604-1.333-1.138-2.667-1.582-4.018-3.733 1.12-5.831 2.72-5.831 4.018s2.098 2.898 5.831 4.018c0.444-1.351 0.978-2.684 1.582-4.018M28.302 25.351l-0.533 0.907c0.551-0.089 1.084-0.178 1.564-0.284-0.124-0.498-0.32-1.013-0.516-1.529l-0.516 0.907M23.164 32.533c2.827 2.667 5.28 3.698 6.382 3.022 1.138-0.622 1.476-3.236 0.569-7.040-1.369 0.284-2.809 0.498-4.267 0.64-0.853 1.191-1.76 2.329-2.684 3.378M14.364 17.316l0.533-0.907c-0.551 0.089-1.084 0.178-1.564 0.284 0.124 0.498 0.32 1.013 0.516 1.529l0.516-0.907M19.502 10.133c-2.827-2.667-5.28-3.698-6.4-3.022-1.12 0.622-1.458 3.236-0.551 7.040 1.369-0.284 2.809-0.498 4.267-0.64 0.853-1.191 1.76-2.329 2.684-3.378z"></path>
</svg>
