<!-- Generated by IcoMoon.io -->
<svg version="1.1" xmlns="http://www.w3.org/2000/svg" width="43" height="32" viewBox="0 0 43 32">
<title>readability</title>
<path d="M21.333 7.111c5.6 0 10.329 4.231 11.893 10.044-1.227 0.889-1.973 2.276-2.116 3.84l-0.32 3.733c-3.147-1.618-6.293-3.093-9.458-3.093-3.147 0-6.311 1.476-9.458 3.093l-0.32-3.804c-0.142-1.564-0.889-2.933-2.098-3.84 1.582-5.778 6.293-9.973 11.876-9.973M30.311 30.222h-17.956l-0.391-4.498c3.147-1.564 6.24-3.058 9.369-3.058s6.222 1.493 9.387 3.058l-0.409 4.498M8.889 33.778v-1.778l-2.276-6.222h-0.391c-2.453 0-4.444-1.991-4.444-4.444s1.991-4.444 4.444-4.444c2.347 0 4.249 1.778 4.444 4.107l0.889 11.004v1.778h-2.667M33.778 33.778h-2.667v-1.778l0.889-11.004c0.196-2.329 2.098-4.107 4.444-4.107 2.453 0 4.444 1.991 4.444 4.444s-1.991 4.444-4.444 4.444h-0.391l-2.276 6.222v1.778z"></path>
</svg>
