<!-- Generated by IcoMoon.io -->
<svg version="1.1" xmlns="http://www.w3.org/2000/svg" width="43" height="32" viewBox="0 0 43 32">
<title>receipt</title>
<path d="M5.333 39.111l2.667-2.667 2.667 2.667 2.667-2.667 2.667 2.667 2.667-2.667 2.667 2.667 2.667-2.667 2.667 2.667 2.667-2.667 2.667 2.667 2.667-2.667 2.667 2.667v-35.556l-2.667 2.667-2.667-2.667-2.667 2.667-2.667-2.667-2.667 2.667-2.667-2.667-2.667 2.667-2.667-2.667-2.667 2.667-2.667-2.667-2.667 2.667-2.667-2.667M32 16h-21.333v-3.556h21.333M32 23.111h-21.333v-3.556h21.333M32 30.222h-21.333v-3.556h21.333v3.556z"></path>
</svg>
