<!-- Generated by IcoMoon.io -->
<svg version="1.1" xmlns="http://www.w3.org/2000/svg" width="43" height="32" viewBox="0 0 43 32">
<title>record-rec</title>
<path d="M22.222 8.889c-7.36 0-13.333 5.973-13.333 13.333s5.973 13.333 13.333 13.333c7.36 0 13.333-5.973 13.333-13.333s-5.973-13.333-13.333-13.333M12.444 17.778h3.556c0.978 0 1.778 0.8 1.778 1.778v1.778c0 0.889-0.676 1.6-1.529 1.724l2.080 3.609h-2.062l-2.044-3.556v3.556h-1.778M21.333 17.778h3.556v1.778h-3.556v1.778h3.556v1.778h-3.556v1.778h3.556v1.778h-3.556c-0.978 0-1.778-0.8-1.778-1.778v-5.333c0-0.978 0.8-1.778 1.778-1.778M28.444 17.778h3.556v1.778h-3.556v5.333h3.556v1.778h-3.556c-0.978 0-1.778-0.8-1.778-1.778v-5.333c0-0.978 0.8-1.778 1.778-1.778M14.222 19.556v1.778h1.778v-1.778"></path>
</svg>
