<!-- Generated by IcoMoon.io -->
<svg version="1.1" xmlns="http://www.w3.org/2000/svg" width="43" height="32" viewBox="0 0 43 32">
<title>recycle</title>
<path d="M38.791 27.413l-4.444 7.698c-0.871 1.529-2.489 2.329-4.124 2.222h-3.556v3.556l-4.444-8 4.444-8v3.556h5.013l-3.947-6.844 7.698-4.444 3.2 5.547c0.924 1.369 1.049 3.2 0.16 4.711M16.373 5.44h8.889c1.742 0 3.253 1.013 3.982 2.471l1.778 3.093 3.076-1.778-4.693 7.84-9.156 0.16 3.076-1.778-2.507-4.356-3.929 6.844-7.716-4.444 3.2-5.547c0.729-1.476 2.24-2.507 4-2.507M8.978 35.129l-4.444-7.698c-0.871-1.511-0.747-3.324 0.16-4.693l1.778-3.076-3.076-1.778 9.138 0.142 4.711 7.858-3.076-1.778-2.507 4.338h7.893v8.889h-6.4c-1.653 0.124-3.289-0.693-4.178-2.204z"></path>
</svg>
