<!-- Generated by IcoMoon.io -->
<svg version="1.1" xmlns="http://www.w3.org/2000/svg" width="43" height="32" viewBox="0 0 43 32">
<title>reddit</title>
<path d="M39.111 20.444c0-2.489-1.956-4.444-4.444-4.444-1.067 0-2.133 0.356-2.844 1.067-2.667-1.6-5.867-2.667-9.6-2.844l1.956-7.111 6.044 1.778c0 1.956 1.6 3.556 3.556 3.556s3.556-1.6 3.556-3.556-1.6-3.556-3.556-3.556c-1.244 0-2.489 0.711-3.022 1.778l-7.111-1.778c-0.533-0.178-0.889 0.178-1.067 0.711l-2.133 8.178c-3.556 0.178-6.933 1.244-9.6 2.844-0.711-0.711-1.778-1.067-2.844-1.067-2.489 0-4.444 1.956-4.444 4.444 0 1.6 0.711 2.844 1.956 3.733l-0.178 1.6c0 6.4 7.111 11.556 16 11.556s16-5.156 16-11.556l-0.178-1.6c1.244-0.889 1.956-2.133 1.956-3.733M16 20.978c1.244 0 2.133 1.067 2.133 2.133s-0.889 2.133-2.133 2.133-2.133-0.889-2.133-2.133 0.889-2.133 2.133-2.133M28.089 30.578c-3.2 1.956-10.311 1.956-13.511 0-0.356-0.356-0.533-0.889-0.178-1.244s0.889-0.533 1.244-0.178c2.133 1.6 9.244 1.6 11.378 0 0.356-0.356 0.889-0.178 1.244 0.178s0.178 0.889-0.178 1.244M26.667 25.244c-1.244 0-2.133-1.067-2.133-2.133 0-1.244 1.067-2.133 2.133-2.133 1.244 0 2.133 1.067 2.133 2.133 0 1.244-0.889 2.133-2.133 2.133z"></path>
</svg>
