<!-- Generated by IcoMoon.io -->
<svg version="1.1" xmlns="http://www.w3.org/2000/svg" width="43" height="32" viewBox="0 0 43 32">
<title>regex</title>
<path d="M28.444 30.080c-0.587 0.089-1.173 0.142-1.778 0.142s-1.191-0.053-1.778-0.142v-6.24l-4.444 4.409c-0.889-0.693-1.778-1.582-2.471-2.471l4.409-4.444h-6.24c-0.089-0.587-0.142-1.173-0.142-1.778s0.053-1.191 0.142-1.778h6.24l-4.409-4.444c0.338-0.444 0.693-0.889 1.156-1.316 0.427-0.462 0.871-0.818 1.316-1.156l4.444 4.409v-6.24c0.587-0.089 1.173-0.142 1.778-0.142s1.191 0.053 1.778 0.142v6.24l4.444-4.409c0.889 0.693 1.778 1.582 2.471 2.471l-4.409 4.444h6.24c0.089 0.587 0.142 1.173 0.142 1.778s-0.053 1.191-0.142 1.778h-6.24l4.409 4.444c-0.338 0.444-0.693 0.889-1.156 1.316-0.427 0.462-0.871 0.818-1.316 1.156l-4.444-4.409v6.24M8.889 33.778c0-1.956 1.6-3.556 3.556-3.556s3.556 1.6 3.556 3.556-1.6 3.556-3.556 3.556-3.556-1.6-3.556-3.556z"></path>
</svg>
