<!-- Generated by IcoMoon.io -->
<svg version="1.1" xmlns="http://www.w3.org/2000/svg" width="43" height="32" viewBox="0 0 43 32">
<title>remote</title>
<path d="M21.333 0c-5.404 0-10.293 2.187-13.831 5.724l2.507 2.507c2.898-2.898 6.88-4.676 11.324-4.676s8.427 1.778 11.307 4.693l2.507-2.507c-3.52-3.556-8.409-5.742-13.813-5.742M12.533 10.756l2.507 2.507c1.618-1.6 3.84-2.596 6.293-2.596s4.676 0.996 6.293 2.596l2.507-2.507c-2.258-2.258-5.369-3.644-8.8-3.644s-6.542 1.387-8.8 3.644M21.333 26.667c-1.956 0-3.556-1.6-3.556-3.556s1.6-3.556 3.556-3.556 3.556 1.6 3.556 3.556-1.6 3.556-3.556 3.556M26.667 16h-10.667c-0.978 0-1.778 0.8-1.778 1.778v21.333c0 0.978 0.8 1.778 1.778 1.778h10.667c0.978 0 1.778-0.8 1.778-1.778v-21.333c0-0.978-0.8-1.778-1.778-1.778z"></path>
</svg>
