<!-- Generated by IcoMoon.io -->
<svg version="1.1" xmlns="http://www.w3.org/2000/svg" width="43" height="32" viewBox="0 0 43 32">
<title>reproduction</title>
<path d="M22.613 23.378l1.6-1.582c-0.036-2.24 1.227-5.013 3.556-7.324 3.467-3.484 7.982-4.604 10.062-2.524s0.96 6.596-2.524 10.062c-2.311 2.329-5.084 3.591-7.324 3.556l-1.582 1.6c-0.622 0.587-1.511 0.676-2.222 0.231-1.493 0.533-2.844 1.191-3.627 2.471-0.942 1.564-0.942 4.089-1.938 5.6-0.996 1.529-2.987 2.044-5.084 2.044s-4.64-0.178-6.507-2.844l4.409 0.747c1.013 0.142 3.68-0.942 4.658-2.453 0.996-1.529 0.996-4.036 1.938-5.618 0.836-1.387 2.418-2.044 4.071-2.613-0.018-0.48 0.124-0.978 0.516-1.351M12.444 3.556c4.907 0 8.889 3.982 8.889 8.889s-3.982 8.889-8.889 8.889-8.889-3.982-8.889-8.889 3.982-8.889 8.889-8.889M12.444 7.111c-2.951 0-5.333 2.382-5.333 5.333s2.382 5.333 5.333 5.333 5.333-2.382 5.333-5.333-2.382-5.333-5.333-5.333z"></path>
</svg>
