<!-- Generated by IcoMoon.io -->
<svg version="1.1" xmlns="http://www.w3.org/2000/svg" width="43" height="32" viewBox="0 0 43 32">
<title>responsive</title>
<path d="M7.111 10.667v17.778h8.889v-7.111c0-1.956 1.6-3.556 3.556-3.556h8.889c1.956 0 3.556 1.6 3.556 3.556v7.111h3.556v-17.778h-28.444M0 35.556v-3.556h7.111c-1.956 0-3.556-1.6-3.556-3.556v-17.778c0-1.956 1.6-3.556 3.556-3.556h28.444c1.956 0 3.556 1.6 3.556 3.556v17.778c0 1.956-1.6 3.556-3.556 3.556h7.111v3.556h-10.667c0 1.973-1.6 3.556-3.556 3.556h-8.889c-1.956 0-3.556-1.6-3.556-3.556h-16M20.444 35.556c-0.498 0-0.889 0.391-0.889 0.889s0.391 0.889 0.889 0.889 0.889-0.391 0.889-0.889-0.391-0.889-0.889-0.889M27.556 35.556c-0.498 0-0.889 0.391-0.889 0.889s0.391 0.889 0.889 0.889 0.889-0.391 0.889-0.889-0.391-0.889-0.889-0.889M23.111 35.556v1.778h1.778v-1.778h-1.778M19.556 21.333v12.444h8.889v-12.444h-8.889z"></path>
</svg>
