<!-- Generated by IcoMoon.io -->
<svg version="1.1" xmlns="http://www.w3.org/2000/svg" width="43" height="32" viewBox="0 0 43 32">
<title>restore</title>
<path d="M23.111 5.333c-8.836 0-16 7.164-16 16h-5.333l6.916 6.916 0.124 0.249 7.182-7.164h-5.333c0-6.88 5.564-12.444 12.444-12.444s12.444 5.564 12.444 12.444-5.564 12.444-12.444 12.444c-3.431 0-6.542-1.404-8.782-3.662l-2.524 2.524c2.898 2.916 6.862 4.693 11.307 4.693 8.836 0 16-7.164 16-16s-7.164-16-16-16M21.333 14.222v8.889l7.609 4.516 1.28-2.151-6.222-3.698v-7.556h-2.667z"></path>
</svg>
