<!-- Generated by IcoMoon.io -->
<svg version="1.1" xmlns="http://www.w3.org/2000/svg" width="43" height="32" viewBox="0 0 43 32">
<title>ribbon</title>
<path d="M23.84 34.329l5.653 5.671 2.507-2.542-5.636-5.636M27.627 20.498h-0.018l-6.276 6.293-6.276-6.293h-0.018c-1.6-1.6-2.596-3.822-2.596-6.276 0-4.907 3.982-8.889 8.889-8.889s8.889 3.982 8.889 8.889c0 2.453-0.996 4.676-2.596 6.276M30.044 23.111c2.311-2.258 3.733-5.404 3.733-8.889 0-6.88-5.564-12.444-12.444-12.444s-12.444 5.564-12.444 12.444c0 3.484 1.44 6.631 3.733 8.889l6.204 6.222-8.16 8.124 2.507 2.542 16.871-16.889z"></path>
</svg>
