<!-- Generated by IcoMoon.io -->
<svg version="1.1" xmlns="http://www.w3.org/2000/svg" width="43" height="32" viewBox="0 0 43 32">
<title>robot</title>
<path d="M21.333 3.556c1.956 0 3.556 1.6 3.556 3.556 0 1.316-0.711 2.471-1.778 3.076v2.258h1.778c6.88 0 12.444 5.564 12.444 12.444h1.778c0.978 0 1.778 0.8 1.778 1.778v5.333c0 0.978-0.8 1.778-1.778 1.778h-1.778v1.778c0 1.956-1.6 3.556-3.556 3.556h-24.889c-1.956 0-3.556-1.6-3.556-3.556v-1.778h-1.778c-0.978 0-1.778-0.8-1.778-1.778v-5.333c0-0.978 0.8-1.778 1.778-1.778h1.778c0-6.88 5.564-12.444 12.444-12.444h1.778v-2.258c-1.067-0.604-1.778-1.76-1.778-3.076 0-1.956 1.6-3.556 3.556-3.556M13.333 23.111c-2.453 0-4.444 1.991-4.444 4.444s1.991 4.444 4.444 4.444 4.444-1.991 4.444-4.444-1.991-4.444-4.444-4.444M29.333 23.111c-2.453 0-4.444 1.991-4.444 4.444s1.991 4.444 4.444 4.444 4.444-1.991 4.444-4.444-1.991-4.444-4.444-4.444z"></path>
</svg>
