<!-- Generated by IcoMoon.io -->
<svg version="1.1" xmlns="http://www.w3.org/2000/svg" width="43" height="32" viewBox="0 0 43 32">
<title>rocket</title>
<path d="M4.996 25.102l5.031-5.031 4.498-0.889c5.724-7.787 16.676-11.68 20.64-11.68 0 3.964-3.893 14.916-11.68 20.64l-0.889 4.498-5.031 5.031-1.262-6.276c-2.507 0-2.507 0-3.769-1.262s-1.262-1.262-1.262-3.769l-6.276-1.262M10.027 30.133l2.507 2.507-4.729 4.747h-2.524v-2.524l4.747-4.729M7.502 27.627l2.204 0.302-4.373 4.356v-2.524l2.169-2.133M14.738 32.96l0.302 2.204-2.133 2.169h-2.524l4.356-4.373M23.111 16.889c-1.476 0-2.667 1.191-2.667 2.667s1.191 2.667 2.667 2.667 2.667-1.191 2.667-2.667-1.191-2.667-2.667-2.667z"></path>
</svg>
