<!-- Generated by IcoMoon.io -->
<svg version="1.1" xmlns="http://www.w3.org/2000/svg" width="43" height="32" viewBox="0 0 43 32">
<title>roomba</title>
<path d="M21.333 3.556c4.711 0 9.227 1.884 12.569 5.209l-2.524 2.524c-2.667-2.667-6.276-4.178-10.044-4.178s-7.396 1.493-10.044 4.178l-2.524-2.524c3.342-3.324 7.858-5.209 12.569-5.209M6.507 11.556l2.578 2.56c-1.28 2.187-1.973 4.676-1.973 7.218 0 7.858 6.364 14.222 14.222 14.222s14.222-6.364 14.222-14.222c0-2.542-0.693-5.031-1.991-7.218l2.596-2.56c1.92 2.88 2.951 6.293 2.951 9.778 0 9.813-7.964 17.778-17.778 17.778s-17.778-7.964-17.778-17.778c0-3.484 1.031-6.898 2.951-9.778M21.333 10.667c5.884 0 10.667 4.782 10.667 10.667 0 2.827-1.12 5.547-3.129 7.538l-2.507-2.507c-1.333 1.333-3.147 2.080-5.031 2.080s-3.698-0.747-5.031-2.080l-2.507 2.507c-2.009-1.991-3.129-4.711-3.129-7.538 0-5.884 4.782-10.667 10.667-10.667M21.333 14.222c-0.978 0-1.778 0.8-1.778 1.778s0.8 1.778 1.778 1.778 1.778-0.8 1.778-1.778-0.8-1.778-1.778-1.778z"></path>
</svg>
