<!-- Generated by IcoMoon.io -->
<svg version="1.1" xmlns="http://www.w3.org/2000/svg" width="43" height="32" viewBox="0 0 43 32">
<title>rotate-right-variant</title>
<path d="M17.778 7.111v-5.333l7.111 7.111-7.111 7.111v-5.333c-5.884 0-10.667 4.782-10.667 10.667l0.142 1.778h-3.591l-0.107-1.778c0-7.858 6.364-14.222 14.222-14.222M30.222 3.556h5.333c1.956 0 3.556 1.6 3.556 3.556v28.444c0 1.956-1.6 3.556-3.556 3.556h-5.333c-1.956 0-3.556-1.6-3.556-3.556v-28.444c0-1.956 1.6-3.556 3.556-3.556M7.111 26.667h16v12.444h-16c-1.956 0-3.556-1.6-3.556-3.556v-5.333c0-1.956 1.6-3.556 3.556-3.556z"></path>
</svg>
