<!-- Generated by IcoMoon.io -->
<svg version="1.1" xmlns="http://www.w3.org/2000/svg" width="43" height="32" viewBox="0 0 43 32">
<title>rotate-left</title>
<path d="M23.111 7.236v-5.458l-8.089 8.089 8.089 7.911v-6.951c5.049 0.853 8.889 5.227 8.889 10.507s-3.84 9.653-8.889 10.507v3.591c7.022-0.871 12.444-6.844 12.444-14.098s-5.422-13.227-12.444-14.098M12.622 32.569c2.062 1.6 4.462 2.56 6.933 2.862v-3.609c-1.547-0.267-3.040-0.871-4.373-1.831l-2.56 2.578M10.827 23.111h-3.591c0.302 2.471 1.28 4.853 2.88 6.916l2.507-2.524c-0.924-1.333-1.547-2.827-1.796-4.391M12.64 15.164l-2.507-2.524c-1.6 2.062-2.596 4.444-2.898 6.916h3.591c0.249-1.547 0.871-3.058 1.813-4.391z"></path>
</svg>
