<!-- Generated by IcoMoon.io -->
<svg version="1.1" xmlns="http://www.w3.org/2000/svg" width="43" height="32" viewBox="0 0 43 32">
<title>rotate-right</title>
<path d="M30.027 27.556l2.524 2.471c1.6-2.062 2.578-4.444 2.88-6.916h-3.591c-0.249 1.547-0.853 3.058-1.813 4.444M23.111 31.822v3.591c2.471-0.302 4.871-1.262 6.933-2.862l-2.56-2.56c-1.333 0.96-2.827 1.582-4.373 1.831M35.431 19.556c-0.302-2.471-1.28-4.853-2.88-6.916l-2.524 2.524c0.96 1.333 1.564 2.844 1.813 4.391M27.644 9.867l-8.089-8.089v5.458c-7.004 0.871-12.444 6.844-12.444 14.098s5.422 13.227 12.444 14.098v-3.591c-5.049-0.853-8.889-5.227-8.889-10.507s3.84-9.653 8.889-10.507v6.951l8.089-7.911z"></path>
</svg>
