<!-- Generated by IcoMoon.io -->
<svg version="1.1" xmlns="http://www.w3.org/2000/svg" width="43" height="32" viewBox="0 0 43 32">
<title>rotate-3d</title>
<path d="M21.333 8.889c8.836 0 16 4.782 16 10.667 0 2.987-1.849 5.689-4.818 7.627 1.902-1.547 3.040-3.502 3.040-5.618 0-5.049-6.364-9.12-14.222-9.12v5.333l-7.111-7.111 7.111-7.111v5.333M21.333 33.778c-8.836 0-16-4.782-16-10.667 0-2.987 1.849-5.689 4.818-7.627-1.902 1.547-3.040 3.502-3.040 5.636 0 5.031 6.364 9.102 14.222 9.102v-5.333l7.111 7.111-7.111 7.111v-5.333z"></path>
</svg>
