<!-- Generated by IcoMoon.io -->
<svg version="1.1" xmlns="http://www.w3.org/2000/svg" width="43" height="32" viewBox="0 0 43 32">
<title>rotate-left-variant</title>
<path d="M7.111 3.556h5.333c1.956 0 3.556 1.6 3.556 3.556v28.444c0 1.956-1.6 3.556-3.556 3.556h-5.333c-1.956 0-3.556-1.6-3.556-3.556v-28.444c0-1.956 1.6-3.556 3.556-3.556M35.556 26.667c1.956 0 3.556 1.6 3.556 3.556v5.333c0 1.956-1.6 3.556-3.556 3.556h-16v-12.444h16M24.889 7.111c7.858 0 14.222 6.364 14.222 14.222l-0.107 1.778h-3.591l0.142-1.778c0-5.884-4.782-10.667-10.667-10.667v5.333l-7.111-7.111 7.111-7.111v5.333z"></path>
</svg>
