<!-- Generated by IcoMoon.io -->
<svg version="1.1" xmlns="http://www.w3.org/2000/svg" width="43" height="32" viewBox="0 0 43 32">
<title>rounded-corner</title>
<path d="M33.778 33.778h3.556v3.556h-3.556v-3.556M33.778 30.222h3.556v-3.556h-3.556v3.556M5.333 23.111h3.556v-3.556h-3.556v3.556M5.333 30.222h3.556v-3.556h-3.556v3.556M5.333 16h3.556v-3.556h-3.556v3.556M5.333 8.889h3.556v-3.556h-3.556v3.556M12.444 8.889h3.556v-3.556h-3.556v3.556M26.667 37.333h3.556v-3.556h-3.556v3.556M19.556 37.333h3.556v-3.556h-3.556v3.556M26.667 37.333h3.556v-3.556h-3.556v3.556M12.444 37.333h3.556v-3.556h-3.556v3.556M5.333 37.333h3.556v-3.556h-3.556v3.556M37.333 14.222c0-4.907-3.982-8.889-8.889-8.889h-8.889v3.556h8.889c2.951 0 5.333 2.382 5.333 5.333v8.889h3.556v-8.889z"></path>
</svg>
