<!-- Generated by IcoMoon.io -->
<svg version="1.1" xmlns="http://www.w3.org/2000/svg" width="43" height="32" viewBox="0 0 43 32">
<title>router-wireless</title>
<path d="M7.111 23.111h28.444c0.978 0 1.778 0.8 1.778 1.778v7.111c0 0.978-0.8 1.778-1.778 1.778h-28.444c-0.978 0-1.778-0.8-1.778-1.778v-7.111c0-0.978 0.8-1.778 1.778-1.778M16 30.222h1.778v-3.556h-1.778v3.556M8.889 26.667v3.556h3.556v-3.556h-3.556M33.778 12.32l-2.489 2.507c-2.578-2.578-6.133-4.16-10.080-4.16-3.929 0-7.484 1.582-10.062 4.16l-2.489-2.507c3.218-3.218 7.662-5.209 12.551-5.209 4.907 0 9.351 1.991 12.569 5.209M28.747 17.351l-2.489 2.507c-1.298-1.28-3.076-2.080-5.049-2.080s-3.751 0.8-5.031 2.080l-2.489-2.507c1.92-1.938 4.587-3.129 7.52-3.129s5.6 1.191 7.538 3.129z"></path>
</svg>
