<!-- Generated by IcoMoon.io -->
<svg version="1.1" xmlns="http://www.w3.org/2000/svg" width="43" height="32" viewBox="0 0 43 32">
<title>rowing</title>
<path d="M15.111 25.778l-8 8 2.667 2.667 6.222-6.222h3.556l-4.444-4.444M26.667 1.778c-1.956 0-3.556 1.6-3.556 3.556s1.6 3.556 3.556 3.556 3.556-1.6 3.556-3.556-1.6-3.556-3.556-3.556M37.333 37.333l-5.333 5.333-5.333-5.333v-2.667l-12.604-12.604c-0.551 0.089-1.084 0.16-1.618 0.16v-3.876c2.951 0.053 6.418-1.547 8.302-3.627l2.489-2.756c0.338-0.409 0.764-0.676 1.227-0.889 0.516-0.249 1.102-0.409 1.707-0.409h0.053c2.222 0 4 1.778 4 4.018v10.204c0 1.511-0.622 2.88-1.636 3.858l-6.364-6.364v-4.036c-1.12 0.924-2.542 1.813-4.071 2.471l11.182 11.182h2.667l5.333 5.333z"></path>
</svg>
