<!-- Generated by IcoMoon.io -->
<svg version="1.1" xmlns="http://www.w3.org/2000/svg" width="43" height="32" viewBox="0 0 43 32">
<title>rss-box</title>
<path d="M8.889 5.333h24.889c1.956 0 3.556 1.6 3.556 3.556v24.889c0 1.956-1.6 3.556-3.556 3.556h-24.889c-1.956 0-3.556-1.6-3.556-3.556v-24.889c0-1.956 1.6-3.556 3.556-3.556M13.333 26.667c-1.476 0-2.667 1.191-2.667 2.667s1.191 2.667 2.667 2.667 2.667-1.191 2.667-2.667-1.191-2.667-2.667-2.667M10.667 17.778v3.556c5.884 0 10.667 4.782 10.667 10.667h3.556c0-7.858-6.364-14.222-14.222-14.222M10.667 10.667v3.556c9.813 0 17.778 7.964 17.778 17.778h3.556c0-11.787-9.547-21.333-21.333-21.333z"></path>
</svg>
