<!-- Generated by IcoMoon.io -->
<svg version="1.1" xmlns="http://www.w3.org/2000/svg" width="43" height="32" viewBox="0 0 43 32">
<title>rss</title>
<path d="M10.987 27.804c2.133 0 3.876 1.742 3.876 3.876 0 2.098-1.742 3.876-3.876 3.876-2.098 0-3.876-1.778-3.876-3.876 0-2.133 1.742-3.876 3.876-3.876M7.111 7.893c15.271 0 27.662 12.391 27.662 27.662h-5.031c0-12.498-10.133-22.631-22.631-22.631v-5.031M7.111 17.956c9.724 0 17.6 7.876 17.6 17.6h-5.031c0-6.933-5.636-12.569-12.569-12.569v-5.031z"></path>
</svg>
