<!-- Generated by IcoMoon.io -->
<svg version="1.1" xmlns="http://www.w3.org/2000/svg" width="43" height="32" viewBox="0 0 43 32">
<title>ruler</title>
<path d="M2.471 32.64l3.147-3.129 2.524 2.489 1.884-1.867-2.524-2.507 2.524-2.524 4.391 4.409 1.884-1.884-4.391-4.409 2.507-2.507 2.524 2.507 1.884-1.884-2.524-2.507 2.524-2.524 4.391 4.409 1.884-1.884-4.391-4.409 2.507-2.507 2.507 2.507 1.902-1.884-2.524-2.507 2.524-2.524 4.373 4.409 1.902-1.884-4.391-4.409 3.129-3.147 7.556 7.556-30.169 30.169-7.556-7.556z"></path>
</svg>
