<!-- Generated by IcoMoon.io -->
<svg version="1.1" xmlns="http://www.w3.org/2000/svg" width="43" height="32" viewBox="0 0 43 32">
<title>run-fast</title>
<path d="M30.436 17.778l-1.92-3.236-1.298 5.102 4.427 8.071v11.396h-3.2v-8.889l-4.142-5.529-2.844 8.018-8.569 3.733-1.867-2.667 7.449-4.391 4.48-17.529-3.751 1.173v6.524h-3.2v-9.244l9.636-3.004 0.889-0.142c1.102 0 2.062 0.604 2.596 1.493l3.556 5.92h6.436v3.2h-8.676M30.222 6.756c-1.778 0-3.2-1.422-3.2-3.2s1.422-3.2 3.2-3.2 3.2 1.422 3.2 3.2-1.422 3.2-3.2 3.2M12.444 16v3.556h-5.333c-0.978 0-1.778-0.8-1.778-1.778s0.8-1.778 1.778-1.778h5.333M16.444 23.111l-0.889 3.556h-6.667c-0.978 0-1.778-0.8-1.778-1.778s0.8-1.778 1.778-1.778h7.556M12.444 8.889v3.556h-7.111c-0.978 0-1.778-0.8-1.778-1.778s0.8-1.778 1.778-1.778h7.111z"></path>
</svg>
