<!-- Generated by IcoMoon.io -->
<svg version="1.1" xmlns="http://www.w3.org/2000/svg" width="43" height="32" viewBox="0 0 43 32">
<title>run</title>
<path d="M24 9.778c1.938 0 3.556-1.636 3.556-3.556 0-1.991-1.618-3.556-3.556-3.556-1.973 0-3.556 1.564-3.556 3.556 0 1.92 1.582 3.556 3.556 3.556M17.582 34.453l1.778-7.787 3.751 3.556v10.667h3.556v-13.333l-3.751-3.556 1.084-5.333c2.293 2.667 5.849 4.444 9.778 4.444v-3.556c-3.396 0-6.222-1.778-7.662-4.302l-1.778-2.809c-0.711-1.102-1.778-1.778-3.004-1.778-0.551 0-0.889 0.142-1.44 0.142l-9.227 3.911v8.391h3.556v-6.080l3.182-1.244-2.844 14.436-8.711-1.778-0.711 3.556 12.444 2.453z"></path>
</svg>
