<!-- Generated by IcoMoon.io -->
<svg version="1.1" xmlns="http://www.w3.org/2000/svg" width="43" height="32" viewBox="0 0 43 32">
<title>sale</title>
<path d="M33.156 5.067l1.084 6.862 6.24 3.182-3.147 6.222 3.164 6.222-6.293 3.182-1.084 6.862-6.916-1.084-4.924 4.907-4.942-4.978-6.862 1.138-1.102-6.916-6.204-3.164 3.164-6.222-3.147-6.169 6.24-3.218 1.084-6.809 6.88 1.138 4.942-4.996 4.924 4.924 6.898-1.084M16.889 12.444c-1.476 0-2.667 1.191-2.667 2.667s1.191 2.667 2.667 2.667 2.667-1.191 2.667-2.667-1.191-2.667-2.667-2.667M25.778 24.889c-1.476 0-2.667 1.191-2.667 2.667s1.191 2.667 2.667 2.667 2.667-1.191 2.667-2.667-1.191-2.667-2.667-2.667M14.951 30.222l15.271-15.271-2.507-2.507-15.271 15.271 2.507 2.507z"></path>
</svg>
