<!-- Generated by IcoMoon.io -->
<svg version="1.1" xmlns="http://www.w3.org/2000/svg" width="43" height="32" viewBox="0 0 43 32">
<title>satellite-variant</title>
<path d="M20.658 1.778l10.062 10.080-3.769 3.769-3.769-3.769-2.524 2.524 4.142 4.124-2.062 2.080 0.8 0.818c1.653-0.764 3.68-0.48 5.031 0.889l-6.276 6.276c-1.369-1.351-1.653-3.378-0.889-5.031l-0.818-0.8-2.080 2.062-4.124-4.142-2.524 2.524 3.769 3.769-3.769 3.769-10.080-10.062 3.804-3.769 3.769 3.769 2.507-2.507-5.031-5.031c-1.387-1.387-1.387-3.644 0-5.031l1.262-1.262c1.387-1.387 3.644-1.387 5.031 0l5.031 5.031 2.507-2.507-3.769-3.769 3.769-3.804M32 24.889c0 3.929-3.182 7.111-7.111 7.111v-3.556c1.956 0 3.556-1.6 3.556-3.556h3.556M39.111 24.889c0 7.858-6.364 14.222-14.222 14.222v-3.556c5.884 0 10.667-4.782 10.667-10.667h3.556z"></path>
</svg>
