<!-- Generated by IcoMoon.io -->
<svg version="1.1" xmlns="http://www.w3.org/2000/svg" width="43" height="32" viewBox="0 0 43 32">
<title>saxophone</title>
<path d="M7.111 3.556c-0.978 0-1.778 0.8-1.778 1.778s0.8 1.778 1.778 1.778c2.951 0 5.333 2.382 5.333 5.333v15.111c0 6.4 5.156 11.556 11.556 11.556s11.556-5.156 11.556-11.556v-4.444c0.978 0 1.778-0.8 1.778-1.778s-0.8-1.778-1.778-1.778h-10.667c-0.978 0-1.778 0.8-1.778 1.778s0.8 1.778 1.778 1.778v3.556c0 0.978-0.8 1.778-1.778 1.778s-1.778-0.8-1.778-1.778v-7.111c0.978 0 1.778-0.8 1.778-1.778s-0.8-1.778-1.778-1.778v-1.778c0.978 0 1.778-0.8 1.778-1.778s-0.8-1.778-1.778-1.778v-0.889c0-3.431-2.791-6.222-6.222-6.222h-8z"></path>
</svg>
