<!-- Generated by IcoMoon.io -->
<svg version="1.1" xmlns="http://www.w3.org/2000/svg" width="43" height="32" viewBox="0 0 43 32">
<title>scale-balance</title>
<path d="M21.333 5.333c-2.258 0-4.267 1.422-5.013 3.556h-10.987v3.556h3.467l-5.244 12.444c-0.836 3.556 1.778 5.333 6.222 5.333s7.218-1.778 6.222-5.333l-5.244-12.444h5.547c0.587 1.511 1.742 2.667 3.253 3.253v19.858h-16v3.556h35.556v-3.556h-16v-19.876c1.511-0.569 2.667-1.724 3.236-3.236h5.564l-5.244 12.444c-0.836 3.556 1.778 5.333 6.222 5.333s7.218-1.778 6.222-5.333l-5.244-12.444h3.467v-3.556h-10.969c-0.764-2.133-2.773-3.556-5.031-3.556M21.333 8.889c0.978 0 1.778 0.8 1.778 1.778s-0.8 1.778-1.778 1.778-1.778-0.8-1.778-1.778 0.8-1.778 1.778-1.778M9.778 18.222l2.667 6.667h-5.333l2.667-6.667M32.889 18.222l2.667 6.667h-5.333l2.667-6.667z"></path>
</svg>
