<!-- Generated by IcoMoon.io -->
<svg version="1.1" xmlns="http://www.w3.org/2000/svg" width="43" height="32" viewBox="0 0 43 32">
<title>scale</title>
<path d="M15.040 26.773l-2.507 2.507-2.436-2.436c-1.529 1.973-2.56 4.338-2.88 6.933h3.449v3.556h-7.111v-1.778c0-8.604 6.116-15.769 14.222-17.422v-3.556l-14.222-5.689v-3.556h35.556v3.556l-14.222 5.689v3.556c8.107 1.653 14.222 8.818 14.222 17.422v1.778h-7.111v-3.556h3.449c-0.32-2.596-1.351-4.96-2.88-6.933l-2.436 2.436-2.507-2.507 2.436-2.453c-1.973-1.529-4.356-2.56-6.951-2.88v3.449h-3.556v-3.449c-2.596 0.32-4.978 1.351-6.951 2.88l2.436 2.453M21.333 32c1.956 0 3.556 1.6 3.556 3.556s-1.6 3.556-3.556 3.556c-0.569 0-1.102-0.124-1.564-0.373l-6.844-3.182 6.844-3.182c0.462-0.249 0.996-0.373 1.564-0.373z"></path>
</svg>
