<!-- Generated by IcoMoon.io -->
<svg version="1.1" xmlns="http://www.w3.org/2000/svg" width="43" height="32" viewBox="0 0 43 32">
<title>screen-rotation</title>
<path d="M13.333 38.222c-5.778-2.773-9.938-8.427-10.578-15.111h-2.667c0.907 10.951 10.062 19.556 21.244 19.556l1.173-0.053-6.773-6.773M26.364 37.671l-21.369-21.369 11.307-11.307 21.369 21.369M18.187 3.111c-1.049-1.049-2.738-1.049-3.769 0l-11.307 11.307c-1.049 1.049-1.049 2.738 0 3.769l21.369 21.369c1.049 1.049 2.738 1.049 3.769 0l11.307-11.307c1.049-1.049 1.049-2.738 0-3.769l-21.369-21.369M29.333 4.444c5.778 2.791 9.938 8.427 10.578 15.111h2.667c-0.907-10.951-10.062-19.556-21.244-19.556l-1.173 0.053 6.773 6.773 2.4-2.382z"></path>
</svg>
