<!-- Generated by IcoMoon.io -->
<svg version="1.1" xmlns="http://www.w3.org/2000/svg" width="43" height="32" viewBox="0 0 43 32">
<title>screen-rotation-lock</title>
<path d="M29.867 4.444c0-1.671 1.351-3.022 3.022-3.022s3.022 1.351 3.022 3.022v0.889h-6.044v-0.889M28.444 16h8.889c0.978 0 1.778-0.8 1.778-1.778v-7.111c0-0.978-0.8-1.778-1.778-1.778v-0.889c0-2.453-1.991-4.444-4.444-4.444s-4.444 1.991-4.444 4.444v0.889c-0.978 0-1.778 0.8-1.778 1.778v7.111c0 0.978 0.8 1.778 1.778 1.778M15.058 36.444c-5.813-2.773-9.973-8.427-10.613-15.111h-2.667c0.889 10.951 10.062 19.556 21.244 19.556l1.173-0.053-6.773-6.791-2.364 2.4M41.333 22.702l-4.569-4.569-2.507 2.507 3.964 3.947-10.080 10.080-20.142-20.142 10.080-10.080 3.733 3.751 2.507-2.507-4.356-4.356c-1.049-1.049-2.738-1.049-3.769 0l-11.307 11.307c-1.049 1.049-1.049 2.738 0 3.769l21.369 21.369c1.049 1.049 2.738 1.049 3.769 0l11.307-11.307c1.049-1.049 1.049-2.738 0-3.769z"></path>
</svg>
