<!-- Generated by IcoMoon.io -->
<svg version="1.1" xmlns="http://www.w3.org/2000/svg" width="43" height="32" viewBox="0 0 43 32">
<title>seal</title>
<path d="M36.249 34.436l-7.129-2.436-2.453 7.111-5.476-10.667-5.191 10.667-2.453-7.111-7.129 2.436 5.191-10.667c-1.707-2.133-2.72-4.836-2.72-7.769 0-6.88 5.564-12.444 12.444-12.444s12.444 5.564 12.444 12.444c0 2.933-1.013 5.636-2.72 7.769l5.191 10.667M12.444 16l4.782 2.382-0.338 5.333 4.444-2.951 4.444 2.933-0.302-5.316 4.747-2.382-4.764-2.4 0.32-5.298-4.444 2.916-4.444-2.951 0.302 5.351-4.747 2.382z"></path>
</svg>
