<!-- Generated by IcoMoon.io -->
<svg version="1.1" xmlns="http://www.w3.org/2000/svg" width="43" height="32" viewBox="0 0 43 32">
<title>search-web</title>
<path d="M27.556 24.889l8.889 8.889-2.667 2.667-8.889-8.889v-1.404l-0.48-0.498c-2.027 1.742-4.658 2.791-7.52 2.791-6.382 0-11.556-5.173-11.556-11.556s5.173-11.556 11.556-11.556 11.556 5.173 11.556 11.556c0 2.862-1.049 5.493-2.791 7.52l0.498 0.48h1.404M16.889 8l-0.978 0.053c-0.427 0.924-1.084 2.489-1.564 4.391h5.084c-0.48-1.902-1.138-3.467-1.564-4.391-0.32-0.053-0.64-0.053-0.978-0.053M24.587 12.444c-1.049-1.831-2.738-3.253-4.764-3.947 0.427 0.942 0.978 2.311 1.387 3.947h3.378M9.191 12.444h3.378c0.409-1.636 0.96-3.004 1.387-3.947-2.027 0.693-3.716 2.116-4.764 3.947M8 16.889c0 0.889 0.142 1.831 0.409 2.667h3.804l-0.213-2.667 0.213-2.667h-3.804c-0.267 0.836-0.409 1.778-0.409 2.667M25.369 19.556c0.267-0.836 0.409-1.778 0.409-2.667s-0.142-1.831-0.409-2.667h-3.804c0.142 0.889 0.213 1.778 0.213 2.667s-0.071 1.778-0.213 2.667h3.804M13.991 14.222l-0.213 2.667 0.213 2.667h5.796c0.142-0.889 0.213-1.778 0.213-2.667s-0.071-1.778-0.213-2.667h-5.796M16.889 25.778c0.32 0 0.64 0 0.942-0.053 0.444-0.924 1.12-2.489 1.6-4.391h-5.084c0.48 1.902 1.156 3.467 1.6 4.391l0.942 0.053M24.587 21.333h-3.378c-0.409 1.636-0.96 3.004-1.387 3.947 2.027-0.693 3.716-2.116 4.764-3.947M9.191 21.333c1.049 1.831 2.738 3.253 4.764 3.947-0.427-0.942-0.978-2.311-1.387-3.947h-3.378z"></path>
</svg>
