<!-- Generated by IcoMoon.io -->
<svg version="1.1" xmlns="http://www.w3.org/2000/svg" width="43" height="32" viewBox="0 0 43 32">
<title>seat-legroom-extra</title>
<path d="M7.111 21.333v-16h-3.556v16c0 4.907 3.982 8.889 8.889 8.889h10.667v-3.556h-10.667c-2.951 0-5.333-2.382-5.333-5.333M40.587 30.649c-0.676-1.316-2.293-1.724-3.609-1.12l-1.938 0.889-6.062-12.409c-0.604-1.209-1.831-2.009-3.2-2.009h-6.222v-10.667h-10.667v14.222c0 2.951 2.382 5.333 5.333 5.333h12.444l6.062 12.444 6.613-3.022c1.369-0.64 1.956-2.311 1.244-3.662z"></path>
</svg>
