<!-- Generated by IcoMoon.io -->
<svg version="1.1" xmlns="http://www.w3.org/2000/svg" width="43" height="32" viewBox="0 0 43 32">
<title>seat-recline-normal</title>
<path d="M13.493 9.618c-1.387-1.387-1.387-3.644 0-5.031s3.644-1.387 5.031 0c1.387 1.387 1.387 3.644 0 5.031-1.404 1.404-3.644 1.404-5.031 0M10.667 28.444v-16h-3.556v16c0 4.907 3.982 8.889 8.889 8.889h10.667v-3.556h-10.667c-2.951 0-5.333-2.382-5.333-5.333M35.556 35.68l-9.013-9.013h-6.098v-6.542c2.489 2.044 6.4 3.876 9.778 3.876v-3.876c-2.951 0.036-6.418-1.547-8.302-3.627l-2.489-2.756c-0.338-0.409-0.764-0.676-1.227-0.889-0.516-0.249-1.102-0.409-1.707-0.409h-0.053c-2.222 0-4 1.778-4 4v10.222c0 2.951 2.382 5.333 5.333 5.333h9.013l6.222 6.222"></path>
</svg>
