<!-- Generated by IcoMoon.io -->
<svg version="1.1" xmlns="http://www.w3.org/2000/svg" width="43" height="32" viewBox="0 0 43 32">
<title>seat-recline-extra</title>
<path d="M9.511 10.027c-1.6-1.138-1.991-3.342-0.871-4.96 1.138-1.6 3.342-1.991 4.96-0.871 1.6 1.138 1.991 3.342 0.871 4.96-1.138 1.6-3.342 1.991-4.96 0.871M28.444 33.778h-12.569c-2.631 0-4.871-1.92-5.262-4.516l-3.502-16.818h-3.556l3.556 17.351c0.658 4.338 4.391 7.538 8.782 7.538h12.551M28.853 26.667h-8.676l-1.831-7.289c2.809 1.582 5.831 2.738 9.156 2.169v-3.769c-2.898 0.533-6.116-0.498-8.338-2.24l-2.916-2.258c-0.409-0.32-0.871-0.533-1.351-0.676-0.569-0.16-1.173-0.213-1.76-0.107h-0.036c-2.187 0.391-3.644 2.471-3.271 4.64l2.4 10.524c0.498 2.56 2.684 4.338 5.244 4.338h12.178l6.791 5.333 2.667-2.667"></path>
</svg>
