<!-- Generated by IcoMoon.io -->
<svg version="1.1" xmlns="http://www.w3.org/2000/svg" width="43" height="32" viewBox="0 0 43 32">
<title>seat-legroom-reduced</title>
<path d="M35.502 34.133c0.32 1.707-0.978 3.2-2.613 3.2h-8v-5.333l1.778-7.111h-10.667c-2.951 0-5.333-2.382-5.333-5.333v-14.222h10.667v10.667h8.889c1.956 0 3.556 1.6 3.556 3.556l-3.556 12.444h2.56c1.298 0 2.471 0.889 2.72 2.133M8.889 21.333v-16h-3.556v16c0 4.907 3.982 8.889 8.889 8.889h7.111v-3.556h-7.111c-2.951 0-5.333-2.382-5.333-5.333z"></path>
</svg>
