<!-- Generated by IcoMoon.io -->
<svg version="1.1" xmlns="http://www.w3.org/2000/svg" width="43" height="32" viewBox="0 0 43 32">
<title>security-network</title>
<path d="M23.111 32h1.778c0.978 0 1.778 0.8 1.778 1.778h12.444v3.556h-12.444c0 0.978-0.8 1.778-1.778 1.778h-7.111c-0.978 0-1.778-0.8-1.778-1.778h-12.444v-3.556h12.444c0-0.978 0.8-1.778 1.778-1.778h1.778v-2.951c-5.209-2.151-8.889-7.716-8.889-13.636v-7.111l10.667-4.747 10.667 4.747v7.111c0 5.92-3.68 11.484-8.889 13.636v2.951M21.333 7.111l-7.111 3.004v5.884h7.111v-8.889M21.333 16v10.667c3.396-0.836 7.111-5.227 7.111-8.889v-1.778h-7.111z"></path>
</svg>
