<!-- Generated by IcoMoon.io -->
<svg version="1.1" xmlns="http://www.w3.org/2000/svg" width="43" height="32" viewBox="0 0 43 32">
<title>selection</title>
<path d="M3.556 7.111c0-1.973 1.6-3.556 3.556-3.556h5.333v3.556h-5.333v5.333h-3.556v-5.333M39.111 7.111v5.333h-3.556v-5.333h-5.333v-3.556h5.333c1.956 0 3.556 1.6 3.556 3.556M35.556 35.556v-5.333h3.556v5.333c0 1.973-1.6 3.556-3.556 3.556h-5.333v-3.556h5.333M3.556 35.556v-5.333h3.556v5.333h5.333v3.556h-5.333c-1.956 0-3.556-1.6-3.556-3.556M17.778 3.556h7.111v3.556h-7.111v-3.556M17.778 35.556h7.111v3.556h-7.111v-3.556M35.556 17.778h3.556v7.111h-3.556v-7.111M3.556 17.778h3.556v7.111h-3.556v-7.111z"></path>
</svg>
