<!-- Generated by IcoMoon.io -->
<svg version="1.1" xmlns="http://www.w3.org/2000/svg" width="43" height="32" viewBox="0 0 43 32">
<title>select-off</title>
<path d="M1.778 7.591l2.276-2.258 33.28 33.28-2.258 2.276-4.853-4.853v1.298h-3.556v-3.556h1.298l-19.076-19.076v1.298h-3.556v-3.556h1.298l-4.853-4.853M35.556 5.333c0.978 0 1.778 0.8 1.778 1.778v1.778h-3.556v-3.556h1.778M26.667 8.889v-3.556h3.556v3.556h-3.556M19.556 8.889v-3.556h3.556v3.556h-3.556M12.444 8.889v-3.556h3.556v3.556h-3.556M19.556 37.333v-3.556h3.556v3.556h-3.556M12.444 37.333v-3.556h3.556v3.556h-3.556M7.111 37.333c-0.978 0-1.778-0.8-1.778-1.778v-1.778h3.556v3.556h-1.778M5.333 26.667h3.556v3.556h-3.556v-3.556M37.333 26.667v3.556h-3.556v-3.556h3.556M5.333 19.556h3.556v3.556h-3.556v-3.556M37.333 19.556v3.556h-3.556v-3.556h3.556M37.333 12.444v3.556h-3.556v-3.556h3.556z"></path>
</svg>
