<!-- Generated by IcoMoon.io -->
<svg version="1.1" xmlns="http://www.w3.org/2000/svg" width="43" height="32" viewBox="0 0 43 32">
<title>select-inverse</title>
<path d="M8.889 5.333h3.556v3.556h3.556v-3.556h3.556v3.556h3.556v-3.556h3.556v3.556h3.556v-3.556h3.556v3.556h3.556v3.556h-3.556v3.556h3.556v3.556h-3.556v3.556h3.556v3.556h-3.556v3.556h3.556v3.556h-3.556v3.556h-3.556v-3.556h-3.556v3.556h-3.556v-3.556h-3.556v3.556h-3.556v-3.556h-3.556v3.556h-3.556v-3.556h-3.556v-3.556h3.556v-3.556h-3.556v-3.556h3.556v-3.556h-3.556v-3.556h3.556v-3.556h-3.556v-3.556h3.556v-3.556z"></path>
</svg>
