<!-- Generated by IcoMoon.io -->
<svg version="1.1" xmlns="http://www.w3.org/2000/svg" width="43" height="32" viewBox="0 0 43 32">
<title>selection-off</title>
<path d="M0.889 6.702l2.276-2.258 35.058 35.058-2.258 2.276-2.667-2.667h-3.076v-3.076l-23.591-23.591h-3.076v-3.076l-2.667-2.667M7.111 3.556h5.333v3.556h-2.098l-3.538-3.556h0.302M39.111 7.111v5.333h-3.556v-5.333h-5.333v-3.556h5.333c1.956 0 3.556 1.6 3.556 3.556M35.556 30.222h3.556v5.636l-3.556-3.538v-2.098M3.556 35.556v-5.333h3.556v5.333h5.333v3.556h-5.333c-1.956 0-3.556-1.6-3.556-3.556M17.778 3.556h7.111v3.556h-7.111v-3.556M17.778 35.556h7.111v3.556h-7.111v-3.556M35.556 17.778h3.556v7.111h-3.556v-7.111M3.556 17.778h3.556v7.111h-3.556v-7.111z"></path>
</svg>
