<!-- Generated by IcoMoon.io -->
<svg version="1.1" xmlns="http://www.w3.org/2000/svg" width="43" height="32" viewBox="0 0 43 32">
<title>server-off</title>
<path d="M7.111 1.778h28.444c0.978 0 1.778 0.8 1.778 1.778v7.111c0 0.978-0.8 1.778-1.778 1.778h-19.876l-3.556-3.556h0.32v-3.556h-3.556v0.32l-3.182-3.182c0.32-0.427 0.836-0.693 1.404-0.693M39.111 40.391l-2.258 2.276-1.778-1.778h-27.964c-0.978 0-1.778-0.8-1.778-1.778v-7.111c0-0.978 0.8-1.778 1.778-1.778h17.298l-3.556-3.556h-13.742c-0.978 0-1.778-0.8-1.778-1.778v-7.111c0-0.978 0.8-1.778 1.778-1.778h3.076l-3.644-3.644c-0.533-0.178-0.942-0.587-1.12-1.12l-3.644-3.644 2.276-2.258 35.058 35.058M35.556 16c0.978 0 1.778 0.8 1.778 1.778v7.111c0 0.978-0.8 1.778-1.778 1.778h-5.653l-10.667-10.667h16.32M35.556 30.222c0.978 0 1.778 0.8 1.778 1.778v2.098l-3.876-3.876h2.098M16 8.889h1.778v-3.556h-1.778v3.556M16 23.111h1.298l-1.298-1.298v1.298M16 37.333h1.778v-3.556h-1.778v3.556M8.889 19.556v3.556h3.556v-3.556h-3.556M8.889 33.778v3.556h3.556v-3.556h-3.556z"></path>
</svg>
