<!-- Generated by IcoMoon.io -->
<svg version="1.1" xmlns="http://www.w3.org/2000/svg" width="43" height="32" viewBox="0 0 43 32">
<title>server-remove</title>
<path d="M7.111 7.111h28.444c0.978 0 1.778 0.8 1.778 1.778v7.111c0 0.978-0.8 1.778-1.778 1.778h-28.444c-0.978 0-1.778-0.8-1.778-1.778v-7.111c0-0.978 0.8-1.778 1.778-1.778M16 14.222h1.778v-3.556h-1.778v3.556M8.889 10.667v3.556h3.556v-3.556h-3.556M18.827 30.222l-4.604-4.604 2.507-2.507 4.604 4.604 4.604-4.604 2.507 2.507-4.604 4.604 4.604 4.604-2.507 2.507-4.604-4.604-4.604 4.604-2.507-2.507 4.604-4.604z"></path>
</svg>
