<!-- Generated by IcoMoon.io -->
<svg version="1.1" xmlns="http://www.w3.org/2000/svg" width="43" height="32" viewBox="0 0 43 32">
<title>server-network-off</title>
<path d="M23.111 32h1.778c0.978 0 1.778 0.8 1.778 1.778h1.298l-4.853-4.853v3.076M39.111 33.778v2.098l-2.098-2.098h2.098M37.333 38.613l-2.258 2.276-3.556-3.556h-4.853c0 0.978-0.8 1.778-1.778 1.778h-7.111c-0.978 0-1.778-0.8-1.778-1.778h-12.444v-3.556h12.444c0-0.978 0.8-1.778 1.778-1.778h1.778v-3.556h-12.444c-0.978 0-1.778-0.8-1.778-1.778v-7.111c0-0.978 0.8-1.778 1.778-1.778h4.853l-3.556-3.556h-1.298c-0.978 0-1.778-0.8-1.778-1.778v-1.298l-3.556-3.556 2.276-2.258 33.28 33.28M7.111 3.556h28.444c0.978 0 1.778 0.8 1.778 1.778v7.111c0 0.978-0.8 1.778-1.778 1.778h-18.098l-5.013-5.013v-2.098h-2.098l-3.52-3.556h0.284M35.556 17.778c0.978 0 1.778 0.8 1.778 1.778v7.111c0 0.978-0.8 1.778-1.778 1.778h-3.876l-10.667-10.667h14.542M16 10.667h1.778v-3.556h-1.778v3.556M16 24.889h1.778v-1.298l-1.778-1.778v3.076M8.889 21.333v3.556h3.556v-3.556h-3.556z"></path>
</svg>
