<!-- Generated by IcoMoon.io -->
<svg version="1.1" xmlns="http://www.w3.org/2000/svg" width="43" height="32" viewBox="0 0 43 32">
<title>server</title>
<path d="M7.111 1.778h28.444c0.978 0 1.778 0.8 1.778 1.778v7.111c0 0.978-0.8 1.778-1.778 1.778h-28.444c-0.978 0-1.778-0.8-1.778-1.778v-7.111c0-0.978 0.8-1.778 1.778-1.778M7.111 16h28.444c0.978 0 1.778 0.8 1.778 1.778v7.111c0 0.978-0.8 1.778-1.778 1.778h-28.444c-0.978 0-1.778-0.8-1.778-1.778v-7.111c0-0.978 0.8-1.778 1.778-1.778M7.111 30.222h28.444c0.978 0 1.778 0.8 1.778 1.778v7.111c0 0.978-0.8 1.778-1.778 1.778h-28.444c-0.978 0-1.778-0.8-1.778-1.778v-7.111c0-0.978 0.8-1.778 1.778-1.778M16 8.889h1.778v-3.556h-1.778v3.556M16 23.111h1.778v-3.556h-1.778v3.556M16 37.333h1.778v-3.556h-1.778v3.556M8.889 5.333v3.556h3.556v-3.556h-3.556M8.889 19.556v3.556h3.556v-3.556h-3.556M8.889 33.778v3.556h3.556v-3.556h-3.556z"></path>
</svg>
