<!-- Generated by IcoMoon.io -->
<svg version="1.1" xmlns="http://www.w3.org/2000/svg" width="43" height="32" viewBox="0 0 43 32">
<title>server-network</title>
<path d="M23.111 32h1.778c0.978 0 1.778 0.8 1.778 1.778h12.444v3.556h-12.444c0 0.978-0.8 1.778-1.778 1.778h-7.111c-0.978 0-1.778-0.8-1.778-1.778h-12.444v-3.556h12.444c0-0.978 0.8-1.778 1.778-1.778h1.778v-3.556h-12.444c-0.978 0-1.778-0.8-1.778-1.778v-7.111c0-0.978 0.8-1.778 1.778-1.778h28.444c0.978 0 1.778 0.8 1.778 1.778v7.111c0 0.978-0.8 1.778-1.778 1.778h-12.444v3.556M7.111 3.556h28.444c0.978 0 1.778 0.8 1.778 1.778v7.111c0 0.978-0.8 1.778-1.778 1.778h-28.444c-0.978 0-1.778-0.8-1.778-1.778v-7.111c0-0.978 0.8-1.778 1.778-1.778M16 10.667h1.778v-3.556h-1.778v3.556M16 24.889h1.778v-3.556h-1.778v3.556M8.889 7.111v3.556h3.556v-3.556h-3.556M8.889 21.333v3.556h3.556v-3.556h-3.556z"></path>
</svg>
