<!-- Generated by IcoMoon.io -->
<svg version="1.1" xmlns="http://www.w3.org/2000/svg" width="43" height="32" viewBox="0 0 43 32">
<title>server-security</title>
<path d="M5.333 1.778h28.444c0.978 0 1.778 0.8 1.778 1.778v7.111c0 0.978-0.8 1.778-1.778 1.778h-28.444c-0.978 0-1.778-0.8-1.778-1.778v-7.111c0-0.978 0.8-1.778 1.778-1.778M5.333 16h28.444c0.978 0 1.778 0.8 1.778 1.778v1.191l-4.444-1.973-11.556 5.12v4.551h-14.222c-0.978 0-1.778-0.8-1.778-1.778v-7.111c0-0.978 0.8-1.778 1.778-1.778M5.333 30.222h14.222c0.107 4 1.778 7.822 4.373 10.667h-18.596c-0.978 0-1.778-0.8-1.778-1.778v-7.111c0-0.978 0.8-1.778 1.778-1.778M14.222 8.889h1.778v-3.556h-1.778v3.556M14.222 23.111h1.778v-3.556h-1.778v3.556M14.222 37.333h1.778v-3.556h-1.778v3.556M7.111 5.333v3.556h3.556v-3.556h-3.556M7.111 19.556v3.556h3.556v-3.556h-3.556M7.111 33.778v3.556h3.556v-3.556h-3.556M31.111 21.333l8 3.556v5.333c0 4.942-3.413 9.547-8 10.667-4.587-1.12-8-5.724-8-10.667v-5.333l8-3.556M31.111 24.782l-4.444 1.991v4.729c0 2.738 1.902 5.298 4.444 5.938v-12.658z"></path>
</svg>
