<!-- Generated by IcoMoon.io -->
<svg version="1.1" xmlns="http://www.w3.org/2000/svg" width="43" height="32" viewBox="0 0 43 32">
<title>set-all</title>
<path d="M16 8.889c1.849 0 3.662 0.427 5.333 1.209 1.671-0.782 3.484-1.209 5.333-1.209 6.88 0 12.444 5.564 12.444 12.444s-5.564 12.444-12.444 12.444c-1.849 0-3.662-0.427-5.333-1.209-1.671 0.782-3.484 1.209-5.333 1.209-6.88 0-12.444-5.564-12.444-12.444s5.564-12.444 12.444-12.444M15.111 21.333c0 3.324 1.404 6.329 3.662 8.444l1.778-0.818c-2.222-1.778-3.662-4.533-3.662-7.627s1.44-5.849 3.662-7.627l-1.778-0.818c-2.258 2.116-3.662 5.12-3.662 8.444M27.556 21.333c0-3.324-1.404-6.329-3.662-8.444l-1.778 0.818c2.222 1.778 3.662 4.533 3.662 7.627s-1.44 5.849-3.662 7.627l1.778 0.818c2.258-2.116 3.662-5.12 3.662-8.444z"></path>
</svg>
