<!-- Generated by IcoMoon.io -->
<svg version="1.1" xmlns="http://www.w3.org/2000/svg" width="43" height="32" viewBox="0 0 43 32">
<title>set-right</title>
<path d="M26.667 33.778c-1.849 0-3.662-0.427-5.333-1.209-1.671 0.782-3.484 1.209-5.333 1.209-6.88 0-12.444-5.564-12.444-12.444s5.564-12.444 12.444-12.444c1.849 0 3.662 0.427 5.333 1.209 1.671-0.782 3.484-1.209 5.333-1.209 6.88 0 12.444 5.564 12.444 12.444s-5.564 12.444-12.444 12.444M16 30.222l1.778-0.196c-2.276-2.311-3.556-5.44-3.556-8.693s1.28-6.382 3.556-8.711l-1.778-0.178c-4.907 0-8.889 3.982-8.889 8.889s3.982 8.889 8.889 8.889M21.333 28.444c2.24-1.689 3.556-4.32 3.556-7.111s-1.316-5.422-3.556-7.111c-2.24 1.689-3.556 4.32-3.556 7.111s1.316 5.422 3.556 7.111z"></path>
</svg>
