<!-- Generated by IcoMoon.io -->
<svg version="1.1" xmlns="http://www.w3.org/2000/svg" width="43" height="32" viewBox="0 0 43 32">
<title>set-left-right</title>
<path d="M16 8.889c1.849 0 3.662 0.427 5.333 1.209 1.671-0.782 3.484-1.209 5.333-1.209 6.88 0 12.444 5.564 12.444 12.444s-5.564 12.444-12.444 12.444c-1.849 0-3.662-0.427-5.333-1.209-1.671 0.782-3.484 1.209-5.333 1.209-6.88 0-12.444-5.564-12.444-12.444s5.564-12.444 12.444-12.444M16 21.333c0 3.947 2.151 7.396 5.333 9.244 3.182-1.849 5.333-5.298 5.333-9.244s-2.151-7.396-5.333-9.244c-3.182 1.849-5.333 5.298-5.333 9.244z"></path>
</svg>
