<!-- Generated by IcoMoon.io -->
<svg version="1.1" xmlns="http://www.w3.org/2000/svg" width="43" height="32" viewBox="0 0 43 32">
<title>set-left</title>
<path d="M16 8.889c-6.88 0-12.444 5.564-12.444 12.444s5.564 12.444 12.444 12.444c1.849 0 3.662-0.427 5.333-1.209 1.671 0.782 3.484 1.209 5.333 1.209 6.88 0 12.444-5.564 12.444-12.444s-5.564-12.444-12.444-12.444c-1.849 0-3.662 0.427-5.333 1.209-1.671-0.782-3.484-1.209-5.333-1.209M26.667 12.444c4.907 0 8.889 3.982 8.889 8.889s-3.982 8.889-8.889 8.889c-0.604 0-1.191-0.053-1.778-0.178 2.276-2.329 3.556-5.458 3.556-8.711s-1.28-6.382-3.556-8.693c0.587-0.124 1.173-0.196 1.778-0.196M21.333 14.222c2.24 1.689 3.556 4.32 3.556 7.111s-1.316 5.422-3.556 7.111c-2.24-1.689-3.556-4.32-3.556-7.111s1.316-5.422 3.556-7.111z"></path>
</svg>
