<!-- Generated by IcoMoon.io -->
<svg version="1.1" xmlns="http://www.w3.org/2000/svg" width="43" height="32" viewBox="0 0 43 32">
<title>settings</title>
<path d="M21.333 27.556c-3.431 0-6.222-2.791-6.222-6.222s2.791-6.222 6.222-6.222 6.222 2.791 6.222 6.222-2.791 6.222-6.222 6.222M34.542 23.058c0.071-0.569 0.124-1.138 0.124-1.724s-0.053-1.173-0.124-1.778l3.751-2.898c0.338-0.267 0.427-0.747 0.213-1.138l-3.556-6.151c-0.213-0.391-0.693-0.551-1.084-0.391l-4.427 1.778c-0.924-0.693-1.884-1.298-3.004-1.742l-0.658-4.711c-0.071-0.427-0.444-0.747-0.889-0.747h-7.111c-0.444 0-0.818 0.32-0.889 0.747l-0.658 4.711c-1.12 0.444-2.080 1.049-3.004 1.742l-4.427-1.778c-0.391-0.16-0.871 0-1.084 0.391l-3.556 6.151c-0.231 0.391-0.124 0.871 0.213 1.138l3.751 2.898c-0.071 0.604-0.124 1.191-0.124 1.778s0.053 1.156 0.124 1.724l-3.751 2.951c-0.338 0.267-0.444 0.747-0.213 1.138l3.556 6.151c0.213 0.391 0.693 0.533 1.084 0.391l4.427-1.796c0.924 0.711 1.884 1.316 3.004 1.76l0.658 4.711c0.071 0.427 0.444 0.747 0.889 0.747h7.111c0.444 0 0.818-0.32 0.889-0.747l0.658-4.711c1.12-0.462 2.080-1.049 3.004-1.76l4.427 1.796c0.391 0.142 0.871 0 1.084-0.391l3.556-6.151c0.213-0.391 0.124-0.871-0.213-1.138l-3.751-2.951z"></path>
</svg>
