<!-- Generated by IcoMoon.io -->
<svg version="1.1" xmlns="http://www.w3.org/2000/svg" width="43" height="32" viewBox="0 0 43 32">
<title>settings-box</title>
<path d="M30.667 21.333c0 0.409-0.036 0.818-0.089 1.209l2.631 2.062c0.231 0.196 0.302 0.516 0.142 0.8l-2.489 4.302c-0.16 0.267-0.48 0.373-0.764 0.267l-3.093-1.244c-0.64 0.498-1.351 0.907-2.116 1.227l-0.444 3.289c-0.053 0.302-0.32 0.533-0.622 0.533h-4.978c-0.302 0-0.569-0.231-0.622-0.533l-0.444-3.289c-0.782-0.32-1.476-0.729-2.116-1.227l-3.093 1.244c-0.284 0.107-0.604 0-0.764-0.267l-2.489-4.302c-0.16-0.284-0.089-0.604 0.142-0.8l2.631-2.062c-0.053-0.391-0.089-0.8-0.089-1.209s0.036-0.818 0.089-1.209l-2.631-2.062c-0.231-0.196-0.302-0.533-0.142-0.8l2.489-4.302c0.16-0.284 0.48-0.391 0.764-0.284l3.093 1.262c0.64-0.498 1.333-0.924 2.116-1.227l0.444-3.307c0.053-0.284 0.32-0.516 0.622-0.516h4.978c0.302 0 0.569 0.231 0.622 0.516l0.444 3.307c0.764 0.302 1.476 0.729 2.116 1.227l3.093-1.262c0.284-0.107 0.604 0 0.764 0.284l2.489 4.302c0.16 0.267 0.089 0.604-0.142 0.8l-2.631 2.062c0.053 0.391 0.089 0.8 0.089 1.209M33.778 5.333h-24.889c-1.973 0-3.556 1.582-3.556 3.556v24.889c0 1.956 1.6 3.556 3.556 3.556h24.889c1.956 0 3.556-1.6 3.556-3.556v-24.889c0-1.973-1.6-3.556-3.556-3.556M21.333 17.778c-1.973 0-3.556 1.582-3.556 3.556 0 1.956 1.6 3.556 3.556 3.556s3.556-1.6 3.556-3.556c0-1.973-1.6-3.556-3.556-3.556z"></path>
</svg>
