<!-- Generated by IcoMoon.io -->
<svg version="1.1" xmlns="http://www.w3.org/2000/svg" width="43" height="32" viewBox="0 0 43 32">
<title>share-variant</title>
<path d="M32 28.587c-1.351 0-2.56 0.533-3.484 1.369l-12.676-7.378c0.089-0.409 0.16-0.818 0.16-1.244s-0.071-0.836-0.16-1.244l12.533-7.307c0.96 0.889 2.222 1.44 3.627 1.44 2.951 0 5.333-2.382 5.333-5.333s-2.382-5.333-5.333-5.333-5.333 2.382-5.333 5.333c0 0.427 0.071 0.836 0.16 1.244l-12.533 7.307c-0.96-0.889-2.222-1.44-3.627-1.44-2.951 0-5.333 2.382-5.333 5.333s2.382 5.333 5.333 5.333c1.404 0 2.667-0.551 3.627-1.44l12.658 7.378c-0.089 0.373-0.142 0.764-0.142 1.173 0 2.862 2.329 5.173 5.191 5.173s5.191-2.311 5.191-5.173-2.329-5.191-5.191-5.191z"></path>
</svg>
