<!-- Generated by IcoMoon.io -->
<svg version="1.1" xmlns="http://www.w3.org/2000/svg" width="43" height="32" viewBox="0 0 43 32">
<title>shopping-music</title>
<path d="M21.333 5.333c-2.951 0-5.333 2.382-5.333 5.333h10.667c0-2.951-2.382-5.333-5.333-5.333M33.778 10.667c1.956 0 3.556 1.6 3.556 3.556v21.333c0 1.956-1.6 3.556-3.556 3.556h-24.889c-1.973 0-3.556-1.6-3.556-3.556v-21.333c0-1.973 1.582-3.556 3.556-3.556h3.556c0-4.907 3.982-8.889 8.889-8.889s8.889 3.982 8.889 8.889h3.556M16 33.778l13.333-8.889-13.333-7.111v16z"></path>
</svg>
