<!-- Generated by IcoMoon.io -->
<svg version="1.1" xmlns="http://www.w3.org/2000/svg" width="43" height="32" viewBox="0 0 43 32">
<title>shovel-off</title>
<path d="M26.844 3.218l-5.031 5.049c-1.369 1.387-1.369 3.627 0 5.013l2.507 2.524-1.209 1.298 2.56 2.56 1.298-1.298 2.471 2.471c1.387 1.387 3.644 1.387 5.031 0l5.031-5.049-12.658-12.569M31.876 18.276l-7.52-7.502 2.507-2.507 7.52 7.52-2.507 2.489M36.8 35.982l-2.507 2.507-13.849-13.813-1.778 1.778 5.031 4.996-2.364 2.489c-8.889 8.729-15.111 2.507-15.111 2.507s-6.329-6.222 2.471-15.111l2.524-2.489 5.013 5.031 1.778-1.778-13.831-13.778 2.524-2.524 30.098 30.187z"></path>
</svg>
