<!-- Generated by IcoMoon.io -->
<svg version="1.1" xmlns="http://www.w3.org/2000/svg" width="43" height="32" viewBox="0 0 43 32">
<title>shredder</title>
<path d="M10.667 5.333v7.111h3.556v-3.556h14.222v3.556h3.556v-7.111h-21.333M8.889 14.222c-2.951 0-5.333 2.382-5.333 5.333v10.667h5.333v-5.333h24.889v5.333h5.333v-10.667c0-2.951-2.382-5.333-5.333-5.333h-24.889M32 17.778c0.978 0 1.778 0.8 1.778 1.778s-0.8 1.778-1.778 1.778-1.778-0.8-1.778-1.778 0.8-1.778 1.778-1.778M12.444 28.444v8.889h3.556v-8.889h-3.556M19.556 28.444v7.111h3.556v-7.111h-3.556M26.667 28.444v8.889h3.556v-8.889h-3.556z"></path>
</svg>
