<!-- Generated by IcoMoon.io -->
<svg version="1.1" xmlns="http://www.w3.org/2000/svg" width="43" height="32" viewBox="0 0 43 32">
<title>signal-variant</title>
<path d="M7.111 10.667v-3.556h0.178c15.644 0 28.267 12.622 28.267 28.267v0.178h-3.556v-0.178c0-13.689-11.022-24.711-24.889-24.711M7.111 17.778v-3.556c11.787 0 21.333 9.547 21.333 21.333h-3.556c0-9.813-7.964-17.778-17.778-17.778M7.111 24.889v-3.556c7.858 0 14.222 6.364 14.222 14.222h-3.556c0-5.884-4.782-10.667-10.667-10.667M7.111 28.444c3.929 0 7.111 3.182 7.111 7.111h-7.111v-7.111z"></path>
</svg>
