<!-- Generated by IcoMoon.io -->
<svg version="1.1" xmlns="http://www.w3.org/2000/svg" width="43" height="32" viewBox="0 0 43 32">
<title>signal-3g</title>
<path d="M19.556 29.333v-4c0-2.222-1.778-4-4-4 2.222 0 4-1.778 4-4v-4c0-2.951-2.382-5.333-5.333-5.333h-10.667v5.333h10.667v5.333h-5.333v5.333h5.333v5.333h-10.667v5.333h10.667c2.951 0 5.333-2.382 5.333-5.333M39.111 29.333v-10.667h-8v5.333h2.667v5.333h-5.333v-16h10.667v-5.333h-10.667c-2.951 0-5.333 2.382-5.333 5.333v16c0 2.951 2.382 5.333 5.333 5.333h5.333c2.951 0 5.333-2.382 5.333-5.333z"></path>
</svg>
