<!-- Generated by IcoMoon.io -->
<svg version="1.1" xmlns="http://www.w3.org/2000/svg" width="43" height="32" viewBox="0 0 43 32">
<title>silverware-variant</title>
<path d="M14.4 23.716l-7.449-7.431c-2.773-2.791-2.773-7.289 0-10.062l12.48 12.444-5.031 5.049M23.84 23.111l12.231 12.231-2.507 2.507-12.231-12.231-12.231 12.231-2.507-2.507 17.156-17.173-0.356-0.391c-1.387-1.369-1.387-3.609 0-4.996l7.716-7.769 1.653 1.636-5.76 5.796 1.707 1.671 5.76-5.778 1.636 1.636-5.778 5.76 1.671 1.707 5.796-5.778 1.636 1.671-7.769 7.716c-1.387 1.387-3.627 1.387-4.996 0l-0.391-0.356-2.436 2.418z"></path>
</svg>
