<!-- Generated by IcoMoon.io -->
<svg version="1.1" xmlns="http://www.w3.org/2000/svg" width="43" height="32" viewBox="0 0 43 32">
<title>sim</title>
<path d="M35.556 7.111c0-1.956-1.6-3.556-3.556-3.556h-14.222l-10.667 10.667v21.333c0 1.956 1.6 3.556 3.556 3.556h21.333c1.973 0 3.556-1.6 3.556-3.556v-28.444M16 33.778h-3.556v-3.556h3.556v3.556M30.222 33.778h-3.556v-3.556h3.556v3.556M16 26.667h-3.556v-7.111h3.556v7.111M23.111 33.778h-3.556v-7.111h3.556v7.111M23.111 23.111h-3.556v-3.556h3.556v3.556M30.222 26.667h-3.556v-7.111h3.556v7.111z"></path>
</svg>
