<!-- Generated by IcoMoon.io -->
<svg version="1.1" xmlns="http://www.w3.org/2000/svg" width="43" height="32" viewBox="0 0 43 32">
<title>skull</title>
<path d="M21.333 3.556c-8.836 0-16 7.164-16 16 0 5.387 2.72 10.347 7.111 13.28v6.276h3.556v-5.333h3.556v5.333h3.556v-5.333h3.556v5.333h3.556v-6.293c4.391-2.933 7.111-7.929 7.111-13.262 0-8.836-7.164-16-16-16M14.222 19.556c1.956 0 3.556 1.6 3.556 3.556s-1.6 3.556-3.556 3.556-3.556-1.6-3.556-3.556 1.6-3.556 3.556-3.556M28.444 19.556c1.956 0 3.556 1.6 3.556 3.556s-1.6 3.556-3.556 3.556-3.556-1.6-3.556-3.556 1.6-3.556 3.556-3.556M21.333 24.889l2.667 5.333h-5.333l2.667-5.333z"></path>
</svg>
