<!-- Generated by IcoMoon.io -->
<svg version="1.1" xmlns="http://www.w3.org/2000/svg" width="43" height="32" viewBox="0 0 43 32">
<title>skype-business</title>
<path d="M21.387 29.387c-4.729 0-6.844-2.329-6.844-4.071 0-0.889 0.658-1.529 1.564-1.529 2.027 0 1.511 2.88 5.28 2.88 1.938 0 3.022-1.013 3.022-2.098 0-0.64-0.32-1.351-1.6-1.671l-4.213-1.049c-3.396-0.853-4.018-2.684-4.018-4.409 0-3.591 3.378-4.942 6.542-4.942 2.88 0 6.364 1.618 6.364 3.769 0 0.924-0.818 1.458-1.707 1.458-1.778 0-1.422-2.4-4.907-2.4-1.724 0-2.684 0.782-2.684 1.902s1.369 1.44 2.542 1.76l3.129 0.693c3.413 0.764 4.284 2.756 4.284 4.622 0 2.916-2.24 5.084-6.756 5.084M32 10.667c3.68 3.627 5.067 8.693 4.196 13.422 0.729 1.28 1.138 2.773 1.138 4.356 0 4.907-3.982 8.889-8.889 8.889-1.582 0-3.076-0.409-4.356-1.138-4.729 0.871-9.796-0.516-13.422-4.196-3.68-3.627-5.067-8.693-4.196-13.422-0.729-1.28-1.138-2.773-1.138-4.356 0-4.907 3.982-8.889 8.889-8.889 1.582 0 3.076 0.409 4.356 1.138 4.729-0.871 9.796 0.516 13.422 4.196M14.222 8.889c-2.951 0-5.333 2.382-5.333 5.333 0 1.404 0.533 2.667 1.422 3.627-1.244 3.982-0.302 8.498 2.844 11.662 3.164 3.147 7.68 4.089 11.662 2.844 0.96 0.889 2.222 1.422 3.627 1.422 2.951 0 5.333-2.382 5.333-5.333 0-1.404-0.533-2.667-1.422-3.627 1.244-3.982 0.302-8.498-2.844-11.662-3.164-3.147-7.68-4.089-11.662-2.844-0.96-0.889-2.222-1.422-3.627-1.422z"></path>
</svg>
