<!-- Generated by IcoMoon.io -->
<svg version="1.1" xmlns="http://www.w3.org/2000/svg" width="43" height="32" viewBox="0 0 43 32">
<title>skype</title>
<path d="M32 10.667c3.68 3.627 5.067 8.693 4.196 13.422 0.729 1.28 1.138 2.773 1.138 4.356 0 4.907-3.982 8.889-8.889 8.889-1.582 0-3.076-0.409-4.356-1.138-4.729 0.871-9.796-0.516-13.422-4.196-3.68-3.627-5.067-8.693-4.196-13.422-0.729-1.28-1.138-2.773-1.138-4.356 0-4.907 3.982-8.889 8.889-8.889 1.582 0 3.076 0.409 4.356 1.138 4.729-0.871 9.796 0.516 13.422 4.196M21.404 30.507c5.102 0 7.644-2.453 7.644-5.76 0-2.116-0.996-4.373-4.853-5.244l-3.538-0.782c-1.351-0.302-2.88-0.711-2.88-1.973 0-1.28 1.067-2.169 3.022-2.169 3.964 0 3.591 2.72 5.564 2.72 1.031 0 1.92-0.604 1.92-1.653 0-2.436-3.893-4.267-7.2-4.267-3.573 0-7.396 1.529-7.396 5.582 0 1.956 0.693 4.036 4.533 4.996l4.782 1.209c1.44 0.356 1.796 1.156 1.796 1.902 0 1.209-1.209 2.4-3.396 2.4-4.284 0-3.698-3.289-5.991-3.289-1.031 0-1.778 0.711-1.778 1.724 0 1.973 2.364 4.604 7.769 4.604z"></path>
</svg>
