<!-- Generated by IcoMoon.io -->
<svg version="1.1" xmlns="http://www.w3.org/2000/svg" width="43" height="32" viewBox="0 0 43 32">
<title>slack</title>
<path d="M18.187 19.84l4.764-1.582 1.529 4.569-4.764 1.582-1.529-4.569M31.449 24.373c0.96-0.32 1.44-1.369 1.156-2.329-0.32-0.96-1.369-1.493-2.329-1.156l-2.311 0.764-1.529-4.569 2.311-0.782c0.96-0.302 1.476-1.369 1.156-2.329s-1.369-1.529-2.347-1.156l-2.293 0.764-0.8-2.382c-0.32-0.96-1.351-1.493-2.329-1.156-0.96 0.32-1.476 1.369-1.156 2.329l0.8 2.382-4.764 1.582-0.8-2.382c-0.32-0.96-1.351-1.511-2.329-1.156-0.96 0.32-1.44 1.369-1.156 2.311l0.8 2.4-2.311 0.782c-0.96 0.32-1.44 1.369-1.156 2.329 0.249 0.711 0.942 1.244 1.689 1.262l0.64-0.107 2.311-0.764 1.529 4.569-2.311 0.782c-0.96 0.302-1.476 1.369-1.156 2.329 0.249 0.747 0.942 1.244 1.689 1.262l0.658-0.107 2.293-0.764 0.8 2.382c0.249 0.764 0.942 1.244 1.689 1.262l0.64-0.107c0.96-0.32 1.476-1.351 1.156-2.329l-0.8-2.382 4.764-1.582 0.8 2.382c0.213 0.747 0.942 1.227 1.689 1.244l0.64-0.089c0.96-0.32 1.44-1.369 1.156-2.311l-0.8-2.4 2.311-0.782M37.636 16.444c3.662 12.213 0.8 17.511-11.413 21.191-12.213 3.662-17.511 0.8-21.191-11.413-3.662-12.213-0.8-17.511 11.413-21.191 12.213-3.662 17.511-0.8 21.191 11.413z"></path>
</svg>
