<!-- Generated by IcoMoon.io -->
<svg version="1.1" xmlns="http://www.w3.org/2000/svg" width="43" height="32" viewBox="0 0 43 32">
<title>smoking</title>
<path d="M3.556 28.444h26.667v5.333h-26.667v-5.333M36.444 28.444h2.667v5.333h-2.667v-5.333M32 28.444h2.667v5.333h-2.667v-5.333M33.511 13.742c1.102-1.084 1.778-2.578 1.778-4.231 0-3.289-2.667-5.956-5.956-5.956v2.667c1.778 0 3.289 1.476 3.289 3.289s-1.511 3.289-3.289 3.289v2.667c3.982 0 7.111 3.253 7.111 7.236v3.964h2.667v-3.982c0-3.947-2.276-7.36-5.6-8.942M28.498 18.133h-2.72c-1.778 0-3.289-1.742-3.289-3.556s1.511-3.111 3.289-3.111v-2.667c-3.289 0-5.956 2.667-5.956 5.956s2.667 5.956 5.956 5.956h2.72c1.867 0 3.502 1.316 3.502 3.644v2.311h2.667v-2.916c0-3.218-2.844-5.618-6.169-5.618z"></path>
</svg>
