<!-- Generated by IcoMoon.io -->
<svg version="1.1" xmlns="http://www.w3.org/2000/svg" width="43" height="32" viewBox="0 0 43 32">
<title>smoking-off</title>
<path d="M3.556 10.667l12.444 12.444h-12.444v5.333h17.778l12.444 12.444 2.222-2.222-30.222-30.222-2.222 2.222M36.444 23.111h2.667v5.333h-2.667v-5.333M32 23.111h2.667v5.333h-2.667v-5.333M33.511 8.676c1.102-1.084 1.778-2.578 1.778-4.231h-2.667c0 1.778-1.511 3.289-3.289 3.289v2.667c3.982 0 7.111 3.253 7.111 7.236v3.698h2.667v-3.698c0-3.964-2.276-7.378-5.6-8.96M25.778 15.467h2.72c1.867 0 3.502 1.316 3.502 3.644v2.222h2.667v-2.827c0-3.2-2.844-5.618-6.169-5.618h-2.72c-1.778 0-3.289-1.742-3.289-3.556s1.511-3.111 3.289-3.111v-2.667c-3.289 0-5.956 2.667-5.956 5.956s2.667 5.956 5.956 5.956M30.222 28.32v-5.209h-5.209l5.209 5.209z"></path>
</svg>
