<!-- Generated by IcoMoon.io -->
<svg version="1.1" xmlns="http://www.w3.org/2000/svg" width="43" height="32" viewBox="0 0 43 32">
<title>snapchat</title>
<path d="M21.333 36.356c-2.116 0-3.378-0.907-4.498-1.689-0.836-0.569-1.582-1.12-2.471-1.262-2.044-0.107-2.649 0-3.751 0.196-0.196 0-0.427-0.053-0.516-0.373-0.32-1.333-0.409-1.707-0.64-1.742-2.347-0.373-3.787-0.907-4.071-1.564-0.053-0.409 0.071-0.587 0.267-0.587 1.902-0.338 3.591-1.333 5.013-3.004 1.12-1.28 1.653-2.524 1.707-2.649 0.284-0.569 0.338-1.067 0.178-1.458-0.302-0.729-1.333-1.049-2.453-1.422-0.604-0.231-1.582-0.729-1.458-1.422 0.107-0.498 0.764-0.853 1.689-0.782 0.622 0.284 1.156 0.427 1.636 0.427 0.587 0 0.853-0.213 0.924-0.284-0.196-3.129-0.356-5.849 0.338-7.396 2.080-4.658 6.471-5.031 8.107-5.031s6.027 0.373 8.107 5.031c0.693 1.547 0.533 4.267 0.338 7.396 0.071 0.071 0.338 0.284 0.924 0.284 0.48 0 1.013-0.142 1.636-0.427 0.924-0.071 1.582 0.284 1.689 0.782 0.124 0.693-0.853 1.191-1.458 1.422-1.12 0.373-2.151 0.693-2.453 1.422-0.16 0.391-0.107 0.889 0.178 1.458 0.053 0.124 0.587 1.369 1.707 2.649 1.422 1.671 3.111 2.667 5.013 3.004 0.196 0 0.32 0.178 0.267 0.587-0.284 0.658-1.724 1.191-4.071 1.564-0.231 0.036-0.32 0.409-0.64 1.742-0.089 0.32-0.32 0.373-0.516 0.373-1.102-0.196-1.707-0.302-3.751-0.196-0.889 0.142-1.636 0.693-2.471 1.262-1.12 0.782-2.382 1.689-4.498 1.689z"></path>
</svg>
