<!-- Generated by IcoMoon.io -->
<svg version="1.1" xmlns="http://www.w3.org/2000/svg" width="43" height="32" viewBox="0 0 43 32">
<title>snowflake</title>
<path d="M36.96 24.8l-4.142 1.102-3.556-2.009v-5.12l3.556-2.009 4.142 1.102 0.924-3.431-3.147-0.836 0.818-3.147-3.431-0.924-1.102 4.142-3.556 2.009-4.356-2.56v-4.018l3.040-3.040-2.524-2.507-2.293 2.293-2.293-2.293-2.524 2.507 3.040 3.040v4.018l-4.444 2.56-3.556-2.009-1.031-4.142-3.413 0.924 0.836 3.147-3.147 0.836 0.924 3.431 4.142-1.102 3.556 2.009v5.138l-3.556 2.009-4.142-1.102-0.924 3.431 3.147 0.836-0.836 3.129 3.431 0.924 1.102-4.142 3.556-2.009 4.356 2.56v4.018l-3.040 3.040 2.524 2.507 2.293-2.293 2.293 2.293 2.507-2.507-3.022-3.040v-4.018l4.444-2.578 3.556 2.009 1.102 4.142 3.342-0.907-0.836-3.147 3.147-0.836-0.907-3.431M16.889 18.773l4.444-2.578 4.444 2.578v5.12l-4.444 2.578-4.444-2.578v-5.12z"></path>
</svg>
