<!-- Generated by IcoMoon.io -->
<svg version="1.1" xmlns="http://www.w3.org/2000/svg" width="43" height="32" viewBox="0 0 43 32">
<title>snowman</title>
<path d="M30.222 30.222c0 4.907-3.982 8.889-8.889 8.889s-8.889-3.982-8.889-8.889c0-2.667 1.156-5.031 3.004-6.667-0.764-1.138-1.227-2.524-1.227-4v-0.729l-5.262-3.058-0.373-0.284-4.516 1.209-0.462-1.707 3.929-1.049-3.52-2.044 0.889-1.547 3.52 2.044-1.049-3.947 1.707-0.444 1.227 4.516 0.427 0.178 4.782 2.756c0.676-0.96 1.582-1.742 2.649-2.258-1.28-0.978-2.169-2.524-2.169-4.302 0-2.951 2.382-5.333 5.333-5.333s5.333 2.382 5.333 5.333c0 1.778-0.889 3.324-2.169 4.302 1.067 0.516 1.973 1.298 2.649 2.258l4.782-2.756 0.427-0.178 1.227-4.516 1.707 0.444-1.049 3.947 3.52-2.044 0.889 1.547-3.52 2.044 3.929 1.049-0.462 1.707-4.516-1.209-0.373 0.284-5.262 3.058v0.729c0 1.476-0.462 2.862-1.227 4 1.849 1.636 3.004 4 3.004 6.667z"></path>
</svg>
