<!-- Generated by IcoMoon.io -->
<svg version="1.1" xmlns="http://www.w3.org/2000/svg" width="43" height="32" viewBox="0 0 43 32">
<title>soccer</title>
<path d="M21.333 3.556c-9.813 0-17.778 7.964-17.778 17.778s7.964 17.778 17.778 17.778 17.778-7.964 17.778-17.778-7.964-17.778-17.778-17.778M21.333 5.333c3.129 0 6.044 0.942 8.498 2.507l-0.498 1.049h-8l-3.058-1.493 0.622-1.831c0.8-0.142 1.6-0.231 2.436-0.231M16.942 6.009l-0.604 1.831-4.551 2.276-2.222 0.444c1.991-2.151 4.516-3.733 7.378-4.551M23.111 10.667h5.333l4.782 6.382-2.222 4.569-4.676 1.102-5.831-6.827 2.613-5.227M10.951 11.84l1.493 5.938-2.169 5.44-4.551 1.564c-0.249-1.12-0.391-2.258-0.391-3.449 0-3.378 1.049-6.471 2.827-9.049l2.791-0.444M36.551 16.391c0.516 1.547 0.782 3.218 0.782 4.942 0 2.56-0.658 4.96-1.724 7.111h-1.831l-1.493-5.938 2.667-5.333 1.6-0.782M14.222 17.778h5.333l4.996 5.831-3.218 4.836-5.618 1.387-4.107-5.493 2.613-6.56M21.333 30.222l5.333 3.556-1.547 3.058c-1.227 0.284-2.489 0.498-3.787 0.498-3.111 0-5.991-0.889-8.444-2.436l2.062-3.058 6.382-1.618M33.778 30.222h0.889c-1.778 2.667-4.444 4.747-7.449 5.938l1.227-2.382 5.333-3.556z"></path>
</svg>
