<!-- Generated by IcoMoon.io -->
<svg version="1.1" xmlns="http://www.w3.org/2000/svg" width="43" height="32" viewBox="0 0 43 32">
<title>sofa</title>
<path d="M12.444 10.667h3.556c1.956 0 3.556 1.6 3.556 3.556v7.111h-10.667v-7.111c0-1.956 1.6-3.556 3.556-3.556M26.667 10.667h3.556c1.956 0 3.556 1.6 3.556 3.556v7.111h-10.667v-7.111c0-1.956 1.6-3.556 3.556-3.556M1.778 16h1.778c0.978 0 1.778 0.8 1.778 1.778v3.556c0 1.956 1.6 3.556 3.556 3.556h24.889c1.956 0 3.556-1.6 3.556-3.556v-3.556c0-0.978 0.8-1.778 1.778-1.778h1.778c0.978 0 1.778 0.8 1.778 1.778v16h-5.333v-3.556h-32v3.556h-5.333v-16c0-0.978 0.8-1.778 1.778-1.778z"></path>
</svg>
