<!-- Generated by IcoMoon.io -->
<svg version="1.1" xmlns="http://www.w3.org/2000/svg" width="43" height="32" viewBox="0 0 43 32">
<title>sort-alphabetical</title>
<path d="M16.444 8.889l5.778-5.778 5.778 5.778h-11.556M28 33.778l-5.778 5.778-5.778-5.778h11.556M15.804 25.422h-5.138l-1.28 4.8h-4.213l5.493-17.778h5.333l5.564 17.778h-4.373l-1.387-4.8M11.253 22.542h3.964l-1.12-3.769-0.462-1.724-0.444-1.707h-0.053l-0.391 1.724-0.427 1.742-1.067 3.733M23.2 30.222v-2.24l8.444-12.036v-0.107h-7.644v-3.396h12.853v2.382l-8.249 11.84v0.142h8.373v3.413h-13.778z"></path>
</svg>
