<!-- Generated by IcoMoon.io -->
<svg version="1.1" xmlns="http://www.w3.org/2000/svg" width="43" height="32" viewBox="0 0 43 32">
<title>sort-numeric</title>
<path d="M13.831 12.444c2.311 0.071 3.947 0.942 4.96 2.596 0.996 1.671 1.493 3.733 1.458 6.204 0.018 2.756-0.533 4.942-1.582 6.524-1.102 1.564-2.756 2.4-4.96 2.453-2.24-0.071-3.858-0.889-4.889-2.56-1.031-1.653-1.547-3.751-1.547-6.329s0.533-4.693 1.618-6.329c1.049-1.671 2.667-2.489 4.942-2.56M13.778 15.342c-0.782 0-1.404 0.48-1.867 1.476-0.462 0.96-0.676 2.507-0.676 4.516-0.018 2.044 0.213 3.556 0.658 4.516 0.462 0.996 1.102 1.476 1.92 1.476 1.636 0 2.471-2.009 2.489-5.991 0-3.964-0.836-5.956-2.524-5.991M23.698 30.222v-3.164l0.764 0.036 0.96-0.036 1.849-0.338c0.604-0.196 1.173-0.444 1.636-0.8 0.587-0.409 1.067-0.889 1.44-1.458 0.391-0.551 0.658-1.138 0.818-1.742l-0.053-0.018c-0.8 0.747-1.991 1.12-3.609 1.138-1.511-0.018-2.773-0.462-3.787-1.351s-1.493-2.169-1.564-3.822c0.018-1.778 0.622-3.218 1.796-4.391 1.191-1.173 2.72-1.778 4.711-1.831 2.222 0.071 3.858 0.8 4.907 2.204 1.049 1.351 1.564 3.129 1.564 5.244-0.018 1.707-0.267 3.218-0.782 4.569-0.516 1.316-1.209 2.436-2.133 3.342-0.818 0.747-1.796 1.316-2.933 1.724-1.138 0.391-2.4 0.622-3.787 0.693h-1.796M28.551 15.342c-0.729 0.018-1.316 0.302-1.778 0.853-0.444 0.551-0.676 1.298-0.676 2.222 0 0.782 0.213 1.422 0.622 1.956 0.427 0.551 1.067 0.818 1.92 0.836 0.569 0 1.049-0.124 1.44-0.338 0.391-0.231 0.676-0.498 0.871-0.818 0.16-0.196 0.213-0.551 0.213-1.013 0.018-0.978-0.178-1.813-0.587-2.542s-1.084-1.12-2.027-1.156M16.444 8.889l5.778-5.778 5.778 5.778h-11.556M28 33.778l-5.778 5.778-5.778-5.778h11.556z"></path>
</svg>
