<!-- Generated by IcoMoon.io -->
<svg version="1.1" xmlns="http://www.w3.org/2000/svg" width="43" height="32" viewBox="0 0 43 32">
<title>soundcloud</title>
<path d="M20.551 15.769v14.453h15.573c3.289-0.231 4.764-2.258 4.764-4.747 0-2.631-1.991-4.747-4.658-4.747-0.676 0-1.244 0.142-1.831 0.391-0.427-4.16-3.964-7.413-8.32-7.413-2.080 0-4.053 0.782-5.529 2.062M18.987 17.582c-0.533-0.32-1.102-0.569-1.724-0.693v13.333h2.471v-13.618c-0.267 0.284-0.516 0.64-0.747 0.978M14.809 16.622v13.6h1.636v-13.547c-0.338-0.053-0.676-0.071-1.031-0.071-0.213 0-0.409 0-0.604 0.018M11.556 17.778v12.444h1.618v-13.262c-0.587 0.196-1.138 0.48-1.618 0.818M8.587 22.222c-0.107 0-0.213-0.107-0.338-0.16v8.16h1.636v-10.916c-0.658 0.853-1.102 1.867-1.298 2.916M4.96 21.724v8.338c0.373 0.107 0.8 0.16 1.262 0.16h0.391v-8.64c-0.142-0.018-0.284-0.036-0.391-0.036-0.462 0-0.889 0.071-1.262 0.178M1.778 25.884c0 1.333 0.604 2.507 1.547 3.307v-6.596c-0.942 0.782-1.547 1.973-1.547 3.289z"></path>
</svg>
