<!-- Generated by IcoMoon.io -->
<svg version="1.1" xmlns="http://www.w3.org/2000/svg" width="43" height="32" viewBox="0 0 43 32">
<title>source-pull</title>
<path d="M10.667 5.333c2.951 0 5.333 2.382 5.333 5.333 0 2.329-1.476 4.302-3.556 5.031v11.271c2.080 0.729 3.556 2.702 3.556 5.031 0 2.951-2.382 5.333-5.333 5.333s-5.333-2.382-5.333-5.333c0-2.329 1.476-4.302 3.556-5.031v-11.271c-2.080-0.729-3.556-2.702-3.556-5.031 0-2.951 2.382-5.333 5.333-5.333M10.667 8.889c-0.978 0-1.778 0.8-1.778 1.778s0.8 1.778 1.778 1.778 1.778-0.8 1.778-1.778-0.8-1.778-1.778-1.778M10.667 30.222c-0.978 0-1.778 0.8-1.778 1.778s0.8 1.778 1.778 1.778 1.778-0.8 1.778-1.778-0.8-1.778-1.778-1.778M37.333 32c0 2.951-2.382 5.333-5.333 5.333s-5.333-2.382-5.333-5.333c0-2.329 1.476-4.302 3.556-5.031v-14.524h-3.556v5.778l-7.556-7.556 7.556-7.556v5.778h3.556c1.956 0 3.556 1.6 3.556 3.556v14.524c2.080 0.729 3.556 2.702 3.556 5.031M32 30.222c-0.978 0-1.778 0.8-1.778 1.778s0.8 1.778 1.778 1.778 1.778-0.8 1.778-1.778-0.8-1.778-1.778-1.778z"></path>
</svg>
