<!-- Generated by IcoMoon.io -->
<svg version="1.1" xmlns="http://www.w3.org/2000/svg" width="43" height="32" viewBox="0 0 43 32">
<title>source-branch</title>
<path d="M23.111 24.889c-5.973 0-7.929 2.4-8.569 3.982 1.902 0.818 3.236 2.702 3.236 4.907 0 2.951-2.382 5.333-5.333 5.333s-5.333-2.382-5.333-5.333c0-2.329 1.476-4.302 3.556-5.031v-14.827c-2.080-0.729-3.556-2.702-3.556-5.031 0-2.951 2.382-5.333 5.333-5.333s5.333 2.382 5.333 5.333c0 2.329-1.476 4.302-3.556 5.031v9.404c1.564-1.156 3.84-1.991 7.111-1.991 4.747 0 6.329-2.382 6.844-3.964-1.92-0.8-3.289-2.702-3.289-4.924 0-2.951 2.382-5.333 5.333-5.333s5.333 2.382 5.333 5.333c0 2.382-1.564 4.444-3.716 5.084-0.462 2.542-2.187 7.36-8.729 7.36M12.444 32c-0.978 0-1.778 0.8-1.778 1.778s0.8 1.778 1.778 1.778 1.778-0.8 1.778-1.778-0.8-1.778-1.778-1.778M12.444 7.111c-0.978 0-1.778 0.8-1.778 1.778s0.8 1.778 1.778 1.778 1.778-0.8 1.778-1.778-0.8-1.778-1.778-1.778M30.222 10.667c-0.978 0-1.778 0.8-1.778 1.778s0.8 1.778 1.778 1.778 1.778-0.8 1.778-1.778-0.8-1.778-1.778-1.778z"></path>
</svg>
