<!-- Generated by IcoMoon.io -->
<svg version="1.1" xmlns="http://www.w3.org/2000/svg" width="43" height="32" viewBox="0 0 43 32">
<title>source-fork</title>
<path d="M10.667 3.556c2.951 0 5.333 2.382 5.333 5.333 0 2.276-1.44 4.231-3.449 4.996 0.16 0.818 0.587 1.813 1.671 3.236 1.778 2.293 5.333 5.689 7.111 8.071 1.778-2.382 5.333-5.778 7.111-8.071 1.084-1.422 1.511-2.418 1.671-3.236-2.009-0.764-3.449-2.72-3.449-4.996 0-2.951 2.382-5.333 5.333-5.333s5.333 2.382 5.333 5.333c0 2.347-1.529 4.356-3.644 5.067-0.142 0.924-0.551 2.044-1.689 3.52-1.778 2.382-5.333 5.778-7.111 8.089-1.084 1.404-1.511 2.4-1.671 3.218 2.009 0.764 3.449 2.72 3.449 4.996 0 2.951-2.382 5.333-5.333 5.333s-5.333-2.382-5.333-5.333c0-2.276 1.44-4.231 3.449-4.996-0.16-0.818-0.587-1.813-1.671-3.218-1.778-2.311-5.333-5.707-7.111-8.089-1.138-1.476-1.547-2.596-1.689-3.52-2.116-0.711-3.644-2.72-3.644-5.067 0-2.951 2.382-5.333 5.333-5.333M10.667 7.111c-0.978 0-1.778 0.8-1.778 1.778s0.8 1.778 1.778 1.778 1.778-0.8 1.778-1.778-0.8-1.778-1.778-1.778M32 7.111c-0.978 0-1.778 0.8-1.778 1.778s0.8 1.778 1.778 1.778 1.778-0.8 1.778-1.778-0.8-1.778-1.778-1.778M21.333 32c-0.978 0-1.778 0.8-1.778 1.778s0.8 1.778 1.778 1.778 1.778-0.8 1.778-1.778-0.8-1.778-1.778-1.778z"></path>
</svg>
