<!-- Generated by IcoMoon.io -->
<svg version="1.1" xmlns="http://www.w3.org/2000/svg" width="43" height="32" viewBox="0 0 43 32">
<title>speaker-wireless</title>
<path d="M35.68 33.902l-2.507-2.507c2.578-2.56 4.16-6.133 4.16-10.062 0-3.947-1.582-7.502-4.16-10.062l2.507-2.507c3.218 3.218 5.209 7.662 5.209 12.569s-1.991 9.351-5.209 12.569M30.649 28.871l-2.507-2.507c1.28-1.28 2.080-3.058 2.080-5.031s-0.8-3.751-2.080-5.031l2.507-2.507c1.938 1.938 3.129 4.604 3.129 7.538s-1.191 5.6-3.129 7.538M7.111 5.333h14.222c1.956 0 3.556 1.6 3.556 3.556v24.889c0 1.956-1.6 3.556-3.556 3.556h-14.222c-1.956 0-3.556-1.6-3.556-3.556v-24.889c0-1.956 1.6-3.556 3.556-3.556M14.222 8.889c-1.956 0-3.556 1.6-3.556 3.556s1.6 3.556 3.556 3.556 3.556-1.6 3.556-3.556-1.6-3.556-3.556-3.556M14.222 19.556c-3.929 0-7.111 3.182-7.111 7.111s3.182 7.111 7.111 7.111 7.111-3.182 7.111-7.111-3.182-7.111-7.111-7.111M14.222 23.111c1.956 0 3.556 1.6 3.556 3.556s-1.6 3.556-3.556 3.556-3.556-1.6-3.556-3.556 1.6-3.556 3.556-3.556z"></path>
</svg>
