<!-- Generated by IcoMoon.io -->
<svg version="1.1" xmlns="http://www.w3.org/2000/svg" width="43" height="32" viewBox="0 0 43 32">
<title>speaker-off</title>
<path d="M3.556 9.369l2.276-2.258 31.502 31.502-2.258 2.276-2.596-2.596c-0.604 0.516-1.369 0.818-2.258 0.818h-17.778c-1.973 0-3.556-1.6-3.556-3.556v-20.853l-5.333-5.333M21.333 32c-2.951 0-5.333-2.382-5.333-5.333 0-1.351 0.498-2.596 1.333-3.556l-2.524-2.489c-1.476 1.6-2.364 3.716-2.364 6.044 0 4.907 3.982 8.889 8.889 8.889 2.329 0 4.444-0.889 6.044-2.364l-2.489-2.524c-0.978 0.836-2.204 1.333-3.556 1.333M30.222 26.667c0-4.907-3.982-8.889-8.889-8.889h-0.32l-11.911-11.911c0.516-1.351 1.813-2.311 3.342-2.311h17.778c1.956 0 3.556 1.6 3.556 3.556v23.431l-3.556-3.573v-0.302M21.333 7.111c-1.973 0-3.556 1.582-3.556 3.556 0 1.956 1.6 3.556 3.556 3.556s3.556-1.6 3.556-3.556c0-1.973-1.6-3.556-3.556-3.556z"></path>
</svg>
