<!-- Generated by IcoMoon.io -->
<svg version="1.1" xmlns="http://www.w3.org/2000/svg" width="43" height="32" viewBox="0 0 43 32">
<title>speaker</title>
<path d="M21.333 21.333c-2.951 0-5.333 2.382-5.333 5.333s2.382 5.333 5.333 5.333 5.333-2.382 5.333-5.333-2.382-5.333-5.333-5.333M21.333 35.556c-4.907 0-8.889-3.982-8.889-8.889s3.982-8.889 8.889-8.889 8.889 3.982 8.889 8.889-3.982 8.889-8.889 8.889M21.333 7.111c1.956 0 3.556 1.6 3.556 3.556s-1.6 3.556-3.556 3.556c-1.973 0-3.556-1.6-3.556-3.556 0-1.973 1.582-3.556 3.556-3.556M30.222 3.556h-17.778c-1.973 0-3.556 1.582-3.556 3.556v28.444c0 1.956 1.6 3.556 3.556 3.556h17.778c1.956 0 3.556-1.6 3.556-3.556v-28.444c0-1.973-1.6-3.556-3.556-3.556z"></path>
</svg>
