<!-- Generated by IcoMoon.io -->
<svg version="1.1" xmlns="http://www.w3.org/2000/svg" width="43" height="32" viewBox="0 0 43 32">
<title>speedometer</title>
<path d="M21.333 28.444c-2.951 0-5.333-2.382-5.333-5.333 0-1.991 1.084-3.733 2.667-4.64l17.262-9.991-9.831 17.031c-0.889 1.742-2.684 2.933-4.764 2.933M21.333 5.333c3.218 0 6.222 0.889 8.836 2.347l-3.733 2.151c-1.547-0.604-3.324-0.942-5.102-0.942-7.858 0-14.222 6.364-14.222 14.222 0 3.929 1.582 7.484 4.16 10.044h0.018c0.693 0.693 0.693 1.813 0 2.507s-1.831 0.693-2.524 0.018c-3.218-3.218-5.209-7.662-5.209-12.569 0-9.813 7.964-17.778 17.778-17.778M39.111 23.111c0 4.907-1.991 9.351-5.209 12.569-0.693 0.676-1.813 0.676-2.507-0.018s-0.693-1.813 0-2.507c2.578-2.578 4.16-6.116 4.16-10.044 0-1.778-0.338-3.556-0.96-5.156l2.151-3.733c1.476 2.667 2.364 5.653 2.364 8.889z"></path>
</svg>
