<!-- Generated by IcoMoon.io -->
<svg version="1.1" xmlns="http://www.w3.org/2000/svg" width="43" height="32" viewBox="0 0 43 32">
<title>spotlight</title>
<path d="M3.556 10.667l9.049 4.533c-1.227 1.689-1.938 3.84-1.938 6.133s0.711 4.444 1.938 6.133l-9.049 4.533v-21.333M10.667 5.333h21.333l-4.533 7.271c-1.689-1.227-3.84-1.938-6.133-1.938s-4.444 0.711-6.133 1.938l-4.533-7.271M39.111 10.667v21.333l-9.049-4.533c1.227-1.689 1.938-3.84 1.938-6.133s-0.711-4.444-1.938-6.133l9.049-4.533M32 37.333h-21.333l4.533-7.271c1.689 1.227 3.84 1.938 6.133 1.938s4.444-0.711 6.133-1.938l4.533 7.271M21.333 14.222c3.929 0 7.111 3.182 7.111 7.111s-3.182 7.111-7.111 7.111-7.111-3.182-7.111-7.111 3.182-7.111 7.111-7.111M21.333 17.778c-1.956 0-3.556 1.6-3.556 3.556s1.6 3.556 3.556 3.556 3.556-1.6 3.556-3.556-1.6-3.556-3.556-3.556z"></path>
</svg>
