<!-- Generated by IcoMoon.io -->
<svg version="1.1" xmlns="http://www.w3.org/2000/svg" width="43" height="32" viewBox="0 0 43 32">
<title>spotify</title>
<path d="M31.822 19.378c-5.689-3.378-15.2-3.733-20.622-2.044-0.889 0.267-1.778-0.267-2.044-1.067-0.267-0.889 0.267-1.778 1.067-2.044 6.311-1.867 16.711-1.511 23.289 2.4 0.8 0.444 1.067 1.511 0.622 2.311-0.444 0.622-1.511 0.889-2.311 0.444M31.644 24.356c-0.444 0.622-1.244 0.889-1.867 0.444-4.8-2.933-12.089-3.822-17.689-2.044-0.711 0.178-1.511-0.178-1.689-0.889s0.178-1.511 0.889-1.689c6.489-1.956 14.489-0.978 20 2.4 0.533 0.267 0.8 1.156 0.356 1.778M29.511 29.244c-0.356 0.533-0.978 0.711-1.511 0.356-4.178-2.578-9.422-3.111-15.644-1.689-0.622 0.178-1.156-0.267-1.333-0.8-0.178-0.622 0.267-1.156 0.8-1.333 6.756-1.511 12.622-0.889 17.244 1.956 0.622 0.267 0.711 0.978 0.444 1.511M21.333 3.556c-9.813 0-17.778 7.964-17.778 17.778s7.964 17.778 17.778 17.778 17.778-7.964 17.778-17.778-7.964-17.778-17.778-17.778z"></path>
</svg>
