<!-- Generated by IcoMoon.io -->
<svg version="1.1" xmlns="http://www.w3.org/2000/svg" width="43" height="32" viewBox="0 0 43 32">
<title>spray</title>
<path d="M17.778 7.111h3.556v3.556h-3.556v-3.556M12.444 5.333h3.556v3.556h-3.556v-3.556M12.444 10.667h3.556v3.556h-3.556v-3.556M10.667 14.222v3.556h-3.556v-3.556h3.556M10.667 8.889v3.556h-3.556v-3.556h3.556M10.667 3.556v3.556h-3.556v-3.556h3.556M23.111 39.111c-1.956 0-3.556-1.6-3.556-3.556v-17.778c0-1.956 1.6-3.556 3.556-3.556v-1.778h1.778v-5.333h5.333v5.333h1.778v1.778c1.956 0 3.556 1.6 3.556 3.556v17.778c0 1.956-1.6 3.556-3.556 3.556h-8.889M23.111 17.778v17.778h8.889v-17.778h-8.889z"></path>
</svg>
