<!-- Generated by IcoMoon.io -->
<svg version="1.1" xmlns="http://www.w3.org/2000/svg" width="43" height="32" viewBox="0 0 43 32">
<title>square-inc</title>
<path d="M10.667 5.333h21.333c2.951 0 5.333 2.382 5.333 5.333v21.333c0 2.951-2.382 5.333-5.333 5.333h-21.333c-2.951 0-5.333-2.382-5.333-5.333v-21.333c0-2.951 2.382-5.333 5.333-5.333M12.444 10.667c-0.978 0-1.778 0.8-1.778 1.778v17.778c0 0.978 0.8 1.778 1.778 1.778h17.778c0.978 0 1.778-0.8 1.778-1.778v-17.778c0-0.978-0.8-1.778-1.778-1.778h-17.778M16.889 16h8.889c0.498 0 0.889 0.391 0.889 0.889v8.889c0 0.498-0.391 0.889-0.889 0.889h-8.889c-0.498 0-0.889-0.391-0.889-0.889v-8.889c0-0.498 0.391-0.889 0.889-0.889z"></path>
</svg>
