<!-- Generated by IcoMoon.io -->
<svg version="1.1" xmlns="http://www.w3.org/2000/svg" width="43" height="32" viewBox="0 0 43 32">
<title>square-inc-cash</title>
<path d="M9.778 0h23.111c5.404 0 9.778 4.373 9.778 9.778v23.111c0 5.404-4.373 9.778-9.778 9.778h-23.111c-5.404 0-9.778-4.373-9.778-9.778v-23.111c0-5.404 4.373-9.778 9.778-9.778M27.36 26.987c0 2.809-1.582 4.676-4.516 4.924v-9.493c3.022 0.924 4.516 1.867 4.516 4.569M20.711 10.667v8.676c-2.329-0.676-4.658-1.689-4.658-4.356 0-2.649 2.044-4.107 4.658-4.32M27.556 13.511l1.778-1.422c-1.564-2.027-3.733-3.342-6.489-3.609v-1.724h-2.133v1.689c-3.822 0.249-7.058 2.524-7.058 6.667 0 4.444 3.662 5.831 7.058 6.738v10.080c-1.973-0.213-4.196-1.156-5.724-3.431l-2.009 1.333c1.6 2.382 4.373 3.947 7.733 4.196v1.884h2.133v-1.849c4.444-0.284 6.844-3.236 6.844-7.147 0-4.551-3.36-6.009-6.844-7.022v-9.138c2.044 0.302 3.556 1.262 4.711 2.756z"></path>
</svg>
