<!-- Generated by IcoMoon.io -->
<svg version="1.1" xmlns="http://www.w3.org/2000/svg" width="43" height="32" viewBox="0 0 43 32">
<title>stadium</title>
<path d="M8.889 5.333h3.556l5.333 3.556-5.333 3.556v2.364c2.613-0.373 5.653-0.587 8.889-0.587s6.276 0.213 8.889 0.587v-9.476h3.556l5.333 3.556-5.333 3.556v3.040c3.289 0.818 5.333 1.938 5.333 3.182 0 2.453-8 4.444-17.778 4.444s-17.778-1.991-17.778-4.444c0-1.244 2.044-2.364 5.333-3.182v-10.151M21.333 16.889c-5.884 0-8.889 0.302-8.889 1.778s3.004 1.778 8.889 1.778 8.889-0.302 8.889-1.778-3.004-1.778-8.889-1.778M21.333 26.222c6.773 0 12.8-1.191 16.711-3.022l-2.489 14.133h-8.889v-3.556c0-1.956-1.6-3.556-3.556-3.556h-3.556c-1.956 0-3.556 1.6-3.556 3.556v3.556h-8.889l-2.489-14.133c3.911 1.831 9.938 3.022 16.711 3.022z"></path>
</svg>
