<!-- Generated by IcoMoon.io -->
<svg version="1.1" xmlns="http://www.w3.org/2000/svg" width="43" height="32" viewBox="0 0 43 32">
<title>steam</title>
<path d="M35.804 13.849c2.116 0 3.822 1.707 3.822 3.804s-1.707 3.804-3.822 3.804c-2.098 0-3.804-1.707-3.804-3.804s1.707-3.804 3.804-3.804M5.333 12.32c2.951 0 5.333 2.382 5.333 5.333v0.551l11.253 5.867c0.907-0.693 2.009-1.084 3.218-1.084l3.822-5.333c0-3.787 3.040-6.862 6.844-6.862 3.787 0 6.862 3.076 6.862 6.862s-3.076 6.862-6.862 6.862l-5.333 3.804c0 2.951-2.382 5.333-5.333 5.333-2.916 0-5.333-2.382-5.333-5.333v-0.196l-11.556-6.009c-0.836 0.551-1.849 0.871-2.916 0.871-2.951 0-5.333-2.382-5.333-5.333s2.382-5.333 5.333-5.333M26.72 26.56c1.138 0.569 1.582 1.938 0.996 3.076-0.569 1.12-1.938 1.564-3.058 0.996l-3.271-1.707c0.284 1.813 1.867 3.2 3.751 3.2 2.116 0 3.822-1.707 3.822-3.804s-1.707-3.804-3.822-3.804c-0.587 0-1.138 0.124-1.636 0.373l3.218 1.671M5.333 13.849c-2.098 0-3.804 1.707-3.804 3.804s1.707 3.804 3.804 3.804c0.427 0 0.889-0.071 1.244-0.213l-2.524-1.298c-1.138-0.587-1.582-1.956-1.013-3.058 0.587-1.138 1.956-1.6 3.076-1.013l3.022 1.564c-0.107-2.009-1.778-3.591-3.804-3.591M35.804 12.32c-2.916 0-5.333 2.382-5.333 5.333s2.382 5.333 5.333 5.333 5.333-2.382 5.333-5.333-2.382-5.333-5.333-5.333z"></path>
</svg>
