<!-- Generated by IcoMoon.io -->
<svg version="1.1" xmlns="http://www.w3.org/2000/svg" width="43" height="32" viewBox="0 0 43 32">
<title>steering</title>
<path d="M21.333 3.556c-9.813 0-17.778 7.964-17.778 17.778s7.964 17.778 17.778 17.778 17.778-7.964 17.778-17.778-7.964-17.778-17.778-17.778M21.333 7.111c7.289 0 13.333 5.511 14.222 12.444h-5.333c-0.889-1.956-4.622-3.556-8.889-3.556s-8 1.6-8.889 3.556h-5.333c0.889-6.933 6.933-12.444 14.222-12.444M7.111 23.111h5.333c0.356 2.311 2.133 6.4 7.111 7.111v5.333c-6.4-0.711-11.733-6.044-12.444-12.444M23.111 35.556v-5.333c4.978-0.711 6.578-4.8 7.111-7.111h5.333c-0.711 6.4-6.044 11.733-12.444 12.444z"></path>
</svg>
