<!-- Generated by IcoMoon.io -->
<svg version="1.1" xmlns="http://www.w3.org/2000/svg" width="43" height="32" viewBox="0 0 43 32">
<title>stethoscope</title>
<path d="M33.778 14.222c0.996 0 1.778 0.764 1.778 1.778 0 0.978-0.8 1.778-1.778 1.778-1.013 0-1.778-0.8-1.778-1.778 0-1.013 0.764-1.778 1.778-1.778M3.556 3.556v16c0 5.262 3.893 9.778 9.138 10.507 1.102 5.351 5.831 9.049 11.307 9.049 6.382 0 11.556-5.173 11.556-11.556v-6.56c2.062-0.747 3.556-2.702 3.556-4.996 0-2.951-2.382-5.333-5.333-5.333s-5.333 2.382-5.333 5.333c0 2.293 1.493 4.267 3.556 4.996v6.4c0 4.444-3.556 8-8 8-3.556 0-6.542-2.151-7.609-5.351 4.942-1.067 8.498-5.511 8.498-10.489v-16h-7.111v5.333h3.556v10.667c0 3.929-3.182 7.111-7.111 7.111s-7.111-3.182-7.111-7.111v-10.667h3.556v-5.333h-7.111z"></path>
</svg>
