<!-- Generated by IcoMoon.io -->
<svg version="1.1" xmlns="http://www.w3.org/2000/svg" width="43" height="32" viewBox="0 0 43 32">
<title>sticker-emoji</title>
<path d="M9.778 3.556c-3.449 0-6.222 2.773-6.222 6.222v23.111c0 3.449 2.773 6.222 6.222 6.222h18.667l10.667-10.667v-18.667c0-3.449-2.773-6.222-6.222-6.222h-23.111M10.222 7.111h22.222c1.724 0 3.111 1.387 3.111 3.111v16.444h-2.667c-3.449 0-6.222 2.773-6.222 6.222v2.667h-16.444c-1.724 0-3.111-1.387-3.111-3.111v-22.222c0-1.724 1.387-3.111 3.111-3.111M25.671 12.036c-0.284 0-0.569 0.036-0.836 0.107-1.671 0.462-2.613 2.169-2.187 3.858 0.089 0.267 0.213 0.533 0.373 0.782l5.742-1.564c0-0.302-0.036-0.604-0.107-0.907-0.373-1.333-1.6-2.276-2.987-2.276M14.524 15.111c-0.302 0-0.569 0-0.836 0.089-1.653 0.462-2.631 2.169-2.187 3.822 0.053 0.284 0.213 0.533 0.373 0.818l5.742-1.564c0-0.302-0.036-0.604-0.107-0.889-0.373-1.387-1.6-2.276-2.987-2.276M29.724 20.018l-16.231 4.462c2.347 2.72 6.062 3.858 9.529 2.916 3.467-0.96 6.062-3.84 6.702-7.378z"></path>
</svg>
