<!-- Generated by IcoMoon.io -->
<svg version="1.1" xmlns="http://www.w3.org/2000/svg" width="43" height="32" viewBox="0 0 43 32">
<title>sticker</title>
<path d="M21.547 32.818l10.987-10.987c-2.418 0.551-5.316 1.636-7.52 3.876-1.831 1.849-2.987 4.213-3.467 7.111M36.889 17.778h0.533c0.693 0 1.316 0.48 1.564 1.138 0.249 0.64 0.124 1.404-0.409 1.902l-17.778 17.778c-0.356 0.338-0.782 0.516-1.244 0.516l-0.64-0.124c-0.658-0.249-1.138-0.871-1.138-1.564-0.284-6.027 1.298-10.827 4.729-14.258 5.049-5.031 12.373-5.387 14.382-5.387M21.333 3.556c8 0 14.827 5.333 17.031 12.64l-2.809-0.196h-1.031c-2.098-5.209-7.218-8.889-13.191-8.889-7.858 0-14.222 6.364-14.222 14.222 0 5.973 3.68 11.093 8.889 13.191-0.053 1.262 0 2.542 0.196 3.822-7.307-2.204-12.64-9.013-12.64-17.013 0-9.831 8-17.778 17.778-17.778z"></path>
</svg>
