<!-- Generated by IcoMoon.io -->
<svg version="1.1" xmlns="http://www.w3.org/2000/svg" width="43" height="32" viewBox="0 0 43 32">
<title>stocking</title>
<path d="M30.222 3.556c1.956 0 3.556 1.6 3.556 3.556v5.333c0 1.956-1.6 3.556-3.556 3.556v14.222c0 1.511-0.889 2.791-2.24 3.307l-11.093 5.173c-1.778 0.836-3.929 0.071-4.747-1.707l-1.476-3.218c-0.889-1.778-0.089-3.911 1.689-4.729l5.422-2.542v-10.507c-1.956 0-3.556-1.6-3.556-3.556v-5.333c0-1.956 1.6-3.556 3.556-3.556h12.444M17.778 7.111v5.333h12.444v-5.333h-12.444z"></path>
</svg>
