<!-- Generated by IcoMoon.io -->
<svg version="1.1" xmlns="http://www.w3.org/2000/svg" width="43" height="32" viewBox="0 0 43 32">
<title>stove</title>
<path d="M10.667 24.889h3.556l5.333 5.333h-3.556l-5.333-5.333M7.111 7.111h1.778v-1.778c0-0.978 0.8-1.778 1.778-1.778h7.111c0.978 0 1.778 0.8 1.778 1.778v1.778h3.556v-1.778c0-0.978 0.8-1.778 1.778-1.778h7.111c0.978 0 1.778 0.8 1.778 1.778v1.778h1.778c1.956 0 3.556 1.6 3.556 3.556v23.111c0 1.956-1.6 3.556-3.556 3.556v1.778h-5.333v-1.778h-17.778v1.778h-5.333v-1.778c-1.956 0-3.556-1.6-3.556-3.556v-23.111c0-1.956 1.6-3.556 3.556-3.556M32 12.444c0.978 0 1.778 0.8 1.778 1.778s-0.8 1.778-1.778 1.778-1.778-0.8-1.778-1.778 0.8-1.778 1.778-1.778M24.889 12.444c0.978 0 1.778 0.8 1.778 1.778s-0.8 1.778-1.778 1.778-1.778-0.8-1.778-1.778 0.8-1.778 1.778-1.778M35.556 10.667h-28.444v7.111h28.444v-7.111M7.111 33.778h28.444v-12.444h-28.444v12.444M10.667 12.444c0.978 0 1.778 0.8 1.778 1.778s-0.8 1.778-1.778 1.778-1.778-0.8-1.778-1.778 0.8-1.778 1.778-1.778M23.111 24.889h3.556l5.333 5.333h-3.556l-5.333-5.333z"></path>
</svg>
