<!-- Generated by IcoMoon.io -->
<svg version="1.1" xmlns="http://www.w3.org/2000/svg" width="43" height="32" viewBox="0 0 43 32">
<title>subway-variant</title>
<path d="M32 19.556h-8.889v-8.889h8.889M29.333 30.222c-1.476 0-2.667-1.191-2.667-2.667s1.191-2.667 2.667-2.667 2.667 1.191 2.667 2.667-1.191 2.667-2.667 2.667M19.556 19.556h-8.889v-8.889h8.889M13.333 30.222c-1.476 0-2.667-1.191-2.667-2.667s1.191-2.667 2.667-2.667 2.667 1.191 2.667 2.667-1.191 2.667-2.667 2.667M21.333 3.556c-7.858 0-14.222 0.889-14.222 7.111v16.889c0 3.431 2.791 6.222 6.222 6.222l-2.667 2.667v0.889h21.333v-0.889l-2.667-2.667c3.431 0 6.222-2.791 6.222-6.222v-16.889c0-6.222-6.364-7.111-14.222-7.111z"></path>
</svg>
