<!-- Generated by IcoMoon.io -->
<svg version="1.1" xmlns="http://www.w3.org/2000/svg" width="43" height="32" viewBox="0 0 43 32">
<title>subway</title>
<path d="M15.111 26.667c0.978 0 1.778 0.8 1.778 1.778s-0.8 1.778-1.778 1.778-1.778-0.8-1.778-1.778 0.8-1.778 1.778-1.778M12.444 16h17.778v8.889h-17.778v-8.889M27.556 26.667c0.978 0 1.778 0.8 1.778 1.778s-0.8 1.778-1.778 1.778-1.778-0.8-1.778-1.778 0.8-1.778 1.778-1.778M32 28.231v-12.231c0-4.658-4.764-5.333-10.667-5.333-5.333 0-10.667 0.658-10.667 5.333v12.231c0 2.578 2.080 4.658 4.658 4.658l-1.991 1.991v0.676h2.969l2.667-2.667h5.031l2.667 2.667h2.667v-0.676l-2.009-1.991c2.578 0 4.676-2.080 4.676-4.658M31.644 4.978c4.747 1.849 7.467 5.778 7.467 10.773v23.36h-35.556v-23.36c0-4.996 2.72-8.924 7.467-10.773 3.2-1.262 7.004-1.422 10.311-1.422s7.111 0.16 10.311 1.422z"></path>
</svg>
