<!-- Generated by IcoMoon.io -->
<svg version="1.1" xmlns="http://www.w3.org/2000/svg" width="43" height="32" viewBox="0 0 43 32">
<title>sunglasses</title>
<path d="M12.444 30.222h-5.333c-2.88 0-5.404-2.24-5.76-5.084l-0.889-5.316c-0.196-1.511 0.231-2.933 1.156-3.964s2.276-1.636 3.716-1.636h10.667c1.476 0 2.809 0.622 3.662 1.707 0.196 0.267 0.373 0.551 0.516 0.871 0.764-0.16 1.547-0.16 2.293 0 0.142-0.32 0.32-0.604 0.533-0.871 0.836-1.084 2.169-1.707 3.662-1.707h10.667c1.44 0 2.791 0.604 3.716 1.636 0.907 1.031 1.333 2.453 1.156 3.893l-0.907 5.458c-0.338 2.773-2.88 5.013-5.742 5.013h-5.333c-2.773 0-5.476-2.116-6.151-4.8l-1.6-4.818c-0.676-0.498-1.618-0.498-2.293 0l-1.636 4.942c-0.64 2.578-3.324 4.676-6.098 4.676z"></path>
</svg>
