<!-- Generated by IcoMoon.io -->
<svg version="1.1" xmlns="http://www.w3.org/2000/svg" width="43" height="32" viewBox="0 0 43 32">
<title>surround-sound</title>
<path d="M35.556 7.111h-28.444c-1.956 0-3.556 1.6-3.556 3.556v21.333c0 1.956 1.6 3.556 3.556 3.556h28.444c1.956 0 3.556-1.6 3.556-3.556v-21.333c0-1.956-1.6-3.556-3.556-3.556M13.796 28.871l-2.507 2.507c-2.791-2.756-4.178-6.4-4.178-10.044s1.387-7.289 4.16-10.062l2.507 2.507c-2.062 2.098-3.111 4.818-3.111 7.556s1.049 5.458 3.129 7.538M21.333 28.444c-3.929 0-7.111-3.182-7.111-7.111s3.182-7.111 7.111-7.111 7.111 3.182 7.111 7.111-3.182 7.111-7.111 7.111M31.396 31.396l-2.507-2.507c2.062-2.098 3.111-4.818 3.111-7.556s-1.049-5.458-3.129-7.538l2.507-2.507c2.791 2.756 4.178 6.4 4.178 10.044s-1.387 7.289-4.16 10.062M21.333 17.778c-1.956 0-3.556 1.6-3.556 3.556s1.6 3.556 3.556 3.556 3.556-1.6 3.556-3.556-1.6-3.556-3.556-3.556z"></path>
</svg>
