<!-- Generated by IcoMoon.io -->
<svg version="1.1" xmlns="http://www.w3.org/2000/svg" width="43" height="32" viewBox="0 0 43 32">
<title>svg</title>
<path d="M9.12 19.040h6.649l-4.711-4.711c-1.796 0-3.253-1.458-3.253-3.271 0-1.796 1.458-3.253 3.253-3.253 1.813 0 3.271 1.458 3.271 3.253l4.711 4.711v-6.649c-1.262-1.28-1.262-3.342 0-4.604 1.262-1.28 3.324-1.28 4.587 0 1.262 1.262 1.262 3.324 0 4.604v6.649l4.729-4.711c0-1.796 1.44-3.253 3.253-3.253 1.796 0 3.253 1.458 3.253 3.253 0 1.813-1.458 3.271-3.253 3.271l-4.711 4.711h6.649c1.28-1.262 3.342-1.262 4.604 0 1.28 1.262 1.28 3.324 0 4.587-1.262 1.262-3.324 1.262-4.604 0h-6.649l4.711 4.729c1.796 0 3.253 1.44 3.253 3.253 0 1.796-1.458 3.253-3.253 3.253-1.813 0-3.253-1.458-3.253-3.253l-4.729-4.711v6.649c1.262 1.28 1.262 3.342 0 4.604-1.262 1.28-3.324 1.28-4.587 0-1.262-1.262-1.262-3.324 0-4.604v-6.649l-4.711 4.711c0 1.796-1.458 3.253-3.271 3.253-1.796 0-3.253-1.458-3.253-3.253 0-1.813 1.458-3.253 3.253-3.253l4.711-4.729h-6.649c-1.28 1.262-3.342 1.262-4.604 0-1.28-1.262-1.28-3.324 0-4.587 1.262-1.262 3.324-1.262 4.604 0z"></path>
</svg>
