<!-- Generated by IcoMoon.io -->
<svg version="1.1" xmlns="http://www.w3.org/2000/svg" width="43" height="32" viewBox="0 0 43 32">
<title>swim</title>
<path d="M3.556 32c3.947-1.778 7.893-3.556 11.858-3.556 3.947 0 7.893 3.556 11.84 3.556 3.964 0 7.911-3.556 11.858-3.556v5.333c-3.947 0-7.893 3.556-11.858 3.556-3.947 0-7.893-3.556-11.84-3.556-3.964 0-7.911 1.778-11.858 3.556v-5.333M15.413 23.111c-1.387 0-2.756 0.213-4.124 0.569l8.747-6.116-1.849-2.204c-0.249-0.302-0.409-0.711-0.409-1.138 0-0.604 0.302-1.156 0.782-1.476l10.169-7.111 2.044 2.898-8.604 6.027 9.298 11.076c-1.404 0.587-2.809 1.031-4.213 1.031-3.947 0-7.893-3.556-11.84-3.556M32 12.444c1.956 0 3.556 1.6 3.556 3.556s-1.6 3.556-3.556 3.556-3.556-1.6-3.556-3.556 1.6-3.556 3.556-3.556z"></path>
</svg>
