<!-- Generated by IcoMoon.io -->
<svg version="1.1" xmlns="http://www.w3.org/2000/svg" width="43" height="32" viewBox="0 0 43 32">
<title>switch</title>
<path d="M23.111 32h1.778c0.978 0 1.778 0.8 1.778 1.778h12.444v3.556h-12.444c0 0.978-0.8 1.778-1.778 1.778h-7.111c-0.978 0-1.778-0.8-1.778-1.778h-12.444v-3.556h12.444c0-0.978 0.8-1.778 1.778-1.778h1.778v-3.556h-5.333c-0.978 0-1.778-0.8-1.778-1.778v-21.333c0-0.978 0.8-1.778 1.778-1.778h14.222c0.978 0 1.778 0.8 1.778 1.778v21.333c0 0.978-0.8 1.778-1.778 1.778h-5.333v3.556M23.111 10.667h1.778v-3.556h-1.778v3.556M16 7.111v3.556h3.556v-3.556h-3.556M16 14.222v3.556h3.556v-3.556h-3.556M16 21.333v3.556h3.556v-3.556h-3.556z"></path>
</svg>
