<!-- Generated by IcoMoon.io -->
<svg version="1.1" xmlns="http://www.w3.org/2000/svg" width="43" height="32" viewBox="0 0 43 32">
<title>sword-cross</title>
<path d="M11.022 4.338l21.156 21.156 3.769-3.769 2.507 2.507-4.391 4.391 5.653 5.653c0.693 0.693 0.693 1.813 0 2.507l-1.262 1.262c-0.693 0.693-1.813 0.693-2.507 0l-5.724-5.636-4.338 4.391-2.507-2.507 3.769-3.769-21.156-21.156v-5.031h5.031M28.249 17.778l8.427-8.427v-5.013h-5.031l-8.427 8.427 5.031 5.013M19.449 26.667l-5.031-5.102-3.929 3.929-3.769-3.769-2.507 2.507 4.391 4.391-5.653 5.671c-0.693 0.693-0.693 1.813 0 2.507l1.262 1.262c0.693 0.693 1.813 0.693 2.507 0l5.724-5.653 4.338 4.391 2.507-2.507-3.769-3.769 3.929-3.858z"></path>
</svg>
