<!-- Generated by IcoMoon.io -->
<svg version="1.1" xmlns="http://www.w3.org/2000/svg" width="43" height="32" viewBox="0 0 43 32">
<title>sync</title>
<path d="M21.333 32c-5.884 0-10.667-4.782-10.667-10.667 0-1.778 0.444-3.502 1.244-4.978l-2.596-2.596c-1.387 2.187-2.204 4.782-2.204 7.573 0 7.858 6.364 14.222 14.222 14.222v5.333l7.111-7.111-7.111-7.111M21.333 7.111v-5.333l-7.111 7.111 7.111 7.111v-5.333c5.884 0 10.667 4.782 10.667 10.667 0 1.778-0.444 3.502-1.244 4.978l2.596 2.596c1.387-2.187 2.204-4.782 2.204-7.573 0-7.858-6.364-14.222-14.222-14.222z"></path>
</svg>
