<!-- Generated by IcoMoon.io -->
<svg version="1.1" xmlns="http://www.w3.org/2000/svg" width="43" height="32" viewBox="0 0 43 32">
<title>sync-off</title>
<path d="M35.556 7.111h-10.667v10.667l3.982-3.982c1.92 1.938 3.129 4.587 3.129 7.538 0 1.778-0.444 3.449-1.209 4.924l2.596 2.596c1.369-2.187 2.169-4.747 2.169-7.52 0-3.929-1.618-7.467-4.196-10.027l4.196-4.196M5.084 9.618l4.196 4.196c-1.369 2.187-2.169 4.747-2.169 7.52 0 3.929 1.618 7.467 4.196 10.027l-4.196 4.196h10.667v-10.667l-3.982 3.982c-1.92-1.938-3.129-4.587-3.129-7.538 0-1.778 0.444-3.449 1.209-4.924l14.364 14.364c-0.462 0.231-0.889 0.444-1.351 0.604v3.716c1.404-0.373 2.738-0.96 3.947-1.707l4.196 4.196 2.258-2.258-27.929-27.964-2.276 2.258M17.778 11.289v-3.716c-1.422 0.373-2.756 0.96-3.964 1.707l2.596 2.596c0.48-0.213 0.889-0.427 1.369-0.587z"></path>
</svg>
