<!-- Generated by IcoMoon.io -->
<svg version="1.1" xmlns="http://www.w3.org/2000/svg" width="43" height="32" viewBox="0 0 43 32">
<title>sync-alert</title>
<path d="M19.556 23.111h3.556v-10.667h-3.556M37.333 7.111h-10.667v10.667l3.982-3.982c1.92 1.938 3.129 4.587 3.129 7.538 0 4.64-2.969 8.587-7.111 10.044v3.716c6.133-1.582 10.667-7.129 10.667-13.76 0-3.929-1.618-7.467-4.196-10.027M19.556 30.222h3.556v-3.556h-3.556M5.333 21.333c0 3.929 1.618 7.467 4.196 10.027l-4.196 4.196h10.667v-10.667l-3.982 3.982c-1.92-1.938-3.129-4.587-3.129-7.538 0-4.64 2.969-8.587 7.111-10.044v-3.716c-6.133 1.582-10.667 7.129-10.667 13.76z"></path>
</svg>
