<!-- Generated by IcoMoon.io -->
<svg version="1.1" xmlns="http://www.w3.org/2000/svg" width="43" height="32" viewBox="0 0 43 32">
<title>tab-unselected</title>
<path d="M26.667 37.333h3.556v-3.556h-3.556M19.556 37.333h3.556v-3.556h-3.556M33.778 23.111h3.556v-3.556h-3.556M33.778 37.333c1.956 0 3.556-1.6 3.556-3.556h-3.556M12.444 8.889h3.556v-3.556h-3.556M33.778 30.222h3.556v-3.556h-3.556M33.778 5.333h-14.222v10.667h17.778v-7.111c0-1.973-1.6-3.556-3.556-3.556M8.889 37.333v-3.556h-3.556c0 1.956 1.6 3.556 3.556 3.556M5.333 30.222h3.556v-3.556h-3.556M12.444 37.333h3.556v-3.556h-3.556M5.333 8.889h3.556v-3.556c-1.973 0-3.556 1.582-3.556 3.556M5.333 23.111h3.556v-3.556h-3.556M5.333 16h3.556v-3.556h-3.556v3.556z"></path>
</svg>
