<!-- Generated by IcoMoon.io -->
<svg version="1.1" xmlns="http://www.w3.org/2000/svg" width="43" height="32" viewBox="0 0 43 32">
<title>table-row-plus-after</title>
<path d="M39.111 17.778c0 1.956-1.6 3.556-3.556 3.556h-28.444c-1.956 0-3.556-1.6-3.556-3.556v-12.444h3.556v3.556h7.111v-3.556h3.556v3.556h7.111v-3.556h3.556v3.556h7.111v-3.556h3.556v12.444M7.111 17.778h7.111v-5.333h-7.111v5.333M17.778 17.778h7.111v-5.333h-7.111v5.333M35.556 17.778v-5.333h-7.111v5.333h7.111M19.556 24.889h3.556v5.333h5.333v3.556h-5.333v5.333h-3.556v-5.333h-5.333v-3.556h5.333v-5.333z"></path>
</svg>
