<!-- Generated by IcoMoon.io -->
<svg version="1.1" xmlns="http://www.w3.org/2000/svg" width="43" height="32" viewBox="0 0 43 32">
<title>table-column-width</title>
<path d="M8.889 14.222h24.889c1.956 0 3.556 1.6 3.556 3.556v17.778c0 1.956-1.6 3.556-3.556 3.556h-24.889c-1.956 0-3.556-1.6-3.556-3.556v-17.778c0-1.956 1.6-3.556 3.556-3.556M8.889 21.333v5.333h10.667v-5.333h-10.667M23.111 21.333v5.333h10.667v-5.333h-10.667M8.889 30.222v5.333h10.667v-5.333h-10.667M23.111 30.222v5.333h10.667v-5.333h-10.667M19.556 3.556h17.778v7.111h-3.556v-3.556h-10.667v3.556h-3.556v-7.111z"></path>
</svg>
