<!-- Generated by IcoMoon.io -->
<svg version="1.1" xmlns="http://www.w3.org/2000/svg" width="43" height="32" viewBox="0 0 43 32">
<title>table-column-remove</title>
<path d="M7.111 3.556h12.444c1.956 0 3.556 1.6 3.556 3.556v28.444c0 1.956-1.6 3.556-3.556 3.556h-12.444c-1.956 0-3.556-1.6-3.556-3.556v-28.444c0-1.956 1.6-3.556 3.556-3.556M7.111 17.778v7.111h12.444v-7.111h-12.444M7.111 28.444v7.111h12.444v-7.111h-12.444M7.111 7.111v7.111h12.444v-7.111h-12.444M31.271 21.333l-4.604-4.604 2.507-2.507 4.604 4.604 4.604-4.604 2.507 2.507-4.604 4.604 4.604 4.604-2.507 2.507-4.604-4.604-4.604 4.604-2.507-2.507 4.604-4.604z"></path>
</svg>
