<!-- Generated by IcoMoon.io -->
<svg version="1.1" xmlns="http://www.w3.org/2000/svg" width="43" height="32" viewBox="0 0 43 32">
<title>table-row-height</title>
<path d="M5.333 8.889h21.333c1.956 0 3.556 1.6 3.556 3.556v17.778c0 1.956-1.6 3.556-3.556 3.556h-21.333c-1.956 0-3.556-1.6-3.556-3.556v-17.778c0-1.956 1.6-3.556 3.556-3.556M5.333 16v5.333h8.889v-5.333h-8.889M17.778 16v5.333h8.889v-5.333h-8.889M5.333 24.889v5.333h8.889v-5.333h-8.889M17.778 24.889v5.333h8.889v-5.333h-8.889M40.889 24.889v-12.444h-7.111v3.556h3.556v5.333h-3.556v3.556h7.111z"></path>
</svg>
