<!-- Generated by IcoMoon.io -->
<svg version="1.1" xmlns="http://www.w3.org/2000/svg" width="43" height="32" viewBox="0 0 43 32">
<title>table-edit</title>
<path d="M38.578 23.733l-1.778 1.778-3.644-3.644 1.778-1.778c0.373-0.391 0.996-0.391 1.369 0l2.276 2.276c0.391 0.373 0.391 0.996 0 1.369M21.333 33.671l10.791-10.773 3.644 3.644-10.773 10.791h-3.662v-3.662M7.111 3.556h24.889c1.956 0 3.556 1.6 3.556 3.556v7.413l-6.809 6.809h-7.413v7.413l-3.253 3.253h-10.969c-1.956 0-3.556-1.6-3.556-3.556v-21.333c0-1.956 1.6-3.556 3.556-3.556M7.111 10.667v7.111h10.667v-7.111h-10.667M21.333 10.667v7.111h10.667v-7.111h-10.667M7.111 21.333v7.111h10.667v-7.111h-10.667z"></path>
</svg>
