<!-- Generated by IcoMoon.io -->
<svg version="1.1" xmlns="http://www.w3.org/2000/svg" width="43" height="32" viewBox="0 0 43 32">
<title>table-row-remove</title>
<path d="M16.729 23.111l4.604 4.604 4.604-4.604 2.507 2.507-4.604 4.604 4.604 4.604-2.507 2.507-4.604-4.604-4.604 4.604-2.507-2.507 4.604-4.604-4.604-4.604 2.507-2.507M39.111 16c0 1.956-1.6 3.556-3.556 3.556h-28.444c-1.956 0-3.556-1.6-3.556-3.556v-5.333c0-1.956 1.6-3.556 3.556-3.556h28.444c1.956 0 3.556 1.6 3.556 3.556v5.333M7.111 16h7.111v-5.333h-7.111v5.333M17.778 16h7.111v-5.333h-7.111v5.333M28.444 16h7.111v-5.333h-7.111v5.333z"></path>
</svg>
