<!-- Generated by IcoMoon.io -->
<svg version="1.1" xmlns="http://www.w3.org/2000/svg" width="43" height="32" viewBox="0 0 43 32">
<title>taco</title>
<path d="M33.778 32h-24.889c-3.929 0-7.111-3.182-7.111-7.111 0-7.858 6.364-14.222 14.222-14.222 1.884 0 3.68 0.373 5.333 1.031 1.653-0.658 3.449-1.031 5.333-1.031 7.858 0 14.222 6.364 14.222 14.222 0 3.929-3.182 7.111-7.111 7.111M5.333 24.889c0 1.956 1.6 3.556 3.556 3.556s3.556-1.6 3.556-3.556c0-4.213 1.831-8 4.747-10.596l-1.191-0.071c-5.884 0-10.667 4.782-10.667 10.667M33.778 28.444c1.956 0 3.556-1.6 3.556-3.556 0-5.884-4.782-10.667-10.667-10.667s-10.667 4.782-10.667 10.667c0 1.298-0.338 2.507-0.96 3.556h18.738z"></path>
</svg>
