<!-- Generated by IcoMoon.io -->
<svg version="1.1" xmlns="http://www.w3.org/2000/svg" width="43" height="32" viewBox="0 0 43 32">
<title>tag-faces</title>
<path d="M26.667 32c-5.902 0-10.667-4.782-10.667-10.667 0-5.902 4.764-10.667 10.667-10.667 5.884 0 10.667 4.782 10.667 10.667s-4.782 10.667-10.667 10.667M7.111 23.111c-0.978 0-1.778-0.8-1.778-1.778s0.8-1.778 1.778-1.778 1.778 0.8 1.778 1.778-0.8 1.778-1.778 1.778M39.111 5.333h-25.547c-1.173 0-2.222 0.569-2.898 1.44l-10.667 14.56 10.667 14.542c0.676 0.889 1.724 1.458 2.898 1.458h25.547c1.956 0 3.556-1.6 3.556-3.556v-24.889c0-1.973-1.6-3.556-3.556-3.556M23.111 19.556c0.978 0 1.778-0.8 1.778-1.778s-0.8-1.778-1.778-1.778-1.778 0.8-1.778 1.778 0.8 1.778 1.778 1.778M26.667 28.444c3.307 0 5.956-2.276 6.756-5.333h-13.511c0.8 3.058 3.449 5.333 6.756 5.333M30.222 19.556c0.978 0 1.778-0.8 1.778-1.778s-0.8-1.778-1.778-1.778-1.778 0.8-1.778 1.778 0.8 1.778 1.778 1.778z"></path>
</svg>
