<!-- Generated by IcoMoon.io -->
<svg version="1.1" xmlns="http://www.w3.org/2000/svg" width="43" height="32" viewBox="0 0 43 32">
<title>tag-text-outline</title>
<path d="M9.778 12.444c1.476 0 2.667-1.191 2.667-2.667s-1.191-2.667-2.667-2.667-2.667 1.191-2.667 2.667 1.191 2.667 2.667 2.667M38.062 20.587c0.64 0.64 1.049 1.529 1.049 2.524 0 0.978-0.391 1.867-1.049 2.507l-12.444 12.444c-0.64 0.64-1.529 1.049-2.507 1.049s-1.867-0.409-2.524-1.049l-15.982-16c-0.658-0.64-1.049-1.529-1.049-2.507v-12.444c0-1.973 1.582-3.556 3.556-3.556h12.444c0.978 0 1.867 0.391 2.507 1.031l16 16M23.111 35.556l12.444-12.444-15.111-15.111-12.444 12.444 15.111 15.111M17.938 15.84l2.507-2.507 9.778 9.778-2.507 2.507-9.778-9.778M13.493 20.284l2.507-2.507 7.111 7.111-2.507 2.507-7.111-7.111z"></path>
</svg>
