<!-- Generated by IcoMoon.io -->
<svg version="1.1" xmlns="http://www.w3.org/2000/svg" width="43" height="32" viewBox="0 0 43 32">
<title>tag-heart</title>
<path d="M38.062 20.587l-16-16c-0.64-0.64-1.529-1.031-2.507-1.031h-12.444c-1.956 0-3.556 1.6-3.556 3.556v12.444c0 0.978 0.391 1.867 1.049 2.524l16 16c0.64 0.64 1.529 1.031 2.507 1.031s1.867-0.391 2.507-1.049l12.444-12.444c0.658-0.64 1.049-1.529 1.049-2.507s-0.409-1.884-1.049-2.524M9.778 12.444c-1.476 0-2.667-1.191-2.667-2.667s1.191-2.667 2.667-2.667 2.667 1.191 2.667 2.667-1.191 2.667-2.667 2.667M30.702 27.147l-7.591 7.591-7.591-7.591c-0.8-0.818-1.298-1.92-1.298-3.147 0-2.453 1.991-4.444 4.444-4.444 1.227 0 2.347 0.498 3.147 1.316l1.298 1.28 1.298-1.298c0.8-0.8 1.92-1.298 3.147-1.298 2.453 0 4.444 1.991 4.444 4.444 0 1.227-0.498 2.347-1.298 3.147z"></path>
</svg>
