<!-- Generated by IcoMoon.io -->
<svg version="1.1" xmlns="http://www.w3.org/2000/svg" width="43" height="32" viewBox="0 0 43 32">
<title>tag-remove</title>
<path d="M38.062 20.587l-16-16c-0.658-0.658-1.564-1.031-2.507-1.031h-12.444c-1.956 0-3.556 1.6-3.556 3.556v12.444c0 0.942 0.373 1.849 1.049 2.507l0.729 0.711c1.6-0.96 3.449-1.44 5.333-1.44 5.884 0 10.667 4.782 10.667 10.667 0 1.884-0.498 3.716-1.458 5.333l0.711 0.711c0.658 0.676 1.582 1.067 2.524 1.067s1.849-0.373 2.507-1.049l12.444-12.444c0.676-0.658 1.049-1.564 1.049-2.507s-0.373-1.849-1.049-2.524M9.778 12.444c-1.476 0-2.667-1.191-2.667-2.667s1.191-2.667 2.667-2.667 2.667 1.191 2.667 2.667-1.191 2.667-2.667 2.667M14.436 38.293l-3.769-3.787-3.769 3.787-2.524-2.524 3.787-3.769-3.787-3.769 2.507-2.507 3.787 3.769 3.769-3.769 2.507 2.507-3.769 3.769 3.769 3.769-2.507 2.524z"></path>
</svg>
