<!-- Generated by IcoMoon.io -->
<svg version="1.1" xmlns="http://www.w3.org/2000/svg" width="43" height="32" viewBox="0 0 43 32">
<title>tag-multiple</title>
<path d="M9.778 16c1.476 0 2.667-1.191 2.667-2.667s-1.191-2.667-2.667-2.667-2.667 1.191-2.667 2.667 1.191 2.667 2.667 2.667M30.951 20.587c0.64 0.64 1.049 1.529 1.049 2.524 0 0.978-0.391 1.867-1.049 2.507l-8.889 8.889c-0.64 0.64-1.529 1.049-2.507 1.049s-1.867-0.391-2.524-1.049l-12.427-12.427c-0.658-0.658-1.049-1.547-1.049-2.524v-8.889c0-1.973 1.582-3.556 3.556-3.556h8.889c0.978 0 1.867 0.391 2.507 1.031l12.444 12.444M24.071 10.151l1.778-1.778 12.213 12.213c0.658 0.64 1.049 1.547 1.049 2.524s-0.391 1.867-1.031 2.507l-9.564 9.564-1.778-1.778 10.151-10.293-12.818-12.96z"></path>
</svg>
