<!-- Generated by IcoMoon.io -->
<svg version="1.1" xmlns="http://www.w3.org/2000/svg" width="43" height="32" viewBox="0 0 43 32">
<title>tag</title>
<path d="M9.778 12.444c-1.476 0-2.667-1.191-2.667-2.667s1.191-2.667 2.667-2.667 2.667 1.191 2.667 2.667-1.191 2.667-2.667 2.667M38.062 20.587l-16-16c-0.64-0.64-1.529-1.031-2.507-1.031h-12.444c-1.973 0-3.556 1.582-3.556 3.556v12.444c0 0.978 0.391 1.867 1.049 2.507l15.982 16c0.658 0.64 1.547 1.049 2.524 1.049s1.867-0.409 2.507-1.049l12.444-12.444c0.658-0.64 1.049-1.529 1.049-2.507 0-0.996-0.409-1.884-1.049-2.524z"></path>
</svg>
