<!-- Generated by IcoMoon.io -->
<svg version="1.1" xmlns="http://www.w3.org/2000/svg" width="43" height="32" viewBox="0 0 43 32">
<title>target</title>
<path d="M19.556 3.556v3.68c-6.436 0.818-11.502 5.884-12.32 12.32h-3.68v3.556h3.68c0.818 6.436 5.884 11.502 12.32 12.32v3.68h3.556v-3.68c6.436-0.818 11.502-5.884 12.32-12.32h3.68v-3.556h-3.68c-0.818-6.436-5.884-11.502-12.32-12.32v-3.68M19.556 10.809v3.413h3.556v-3.396c4.444 0.729 8 4.284 8.747 8.729h-3.413v3.556h3.396c-0.729 4.444-4.284 8-8.729 8.747v-3.413h-3.556v3.396c-4.444-0.729-8-4.284-8.747-8.729h3.413v-3.556h-3.396c0.729-4.444 4.284-8 8.729-8.747M21.333 19.556c-0.978 0-1.778 0.8-1.778 1.778s0.8 1.778 1.778 1.778 1.778-0.8 1.778-1.778-0.8-1.778-1.778-1.778z"></path>
</svg>
