<!-- Generated by IcoMoon.io -->
<svg version="1.1" xmlns="http://www.w3.org/2000/svg" width="43" height="32" viewBox="0 0 43 32">
<title>teamviewer</title>
<path d="M33.778 5.333c1.956 0 3.556 1.6 3.556 3.556v24.889c0 1.973-1.6 3.556-3.556 3.556h-24.889c-1.956 0-3.556-1.6-3.556-3.556v-24.889c0-1.956 1.6-3.556 3.556-3.556h24.889M21.333 8.889c-6.88 0-12.444 5.564-12.444 12.444s5.564 12.444 12.444 12.444 12.444-5.564 12.444-12.444-5.564-12.444-12.444-12.444M12.444 21.333l5.333-5.333v3.556h7.111v-3.556l5.333 5.333-5.333 5.333v-3.556h-7.111v3.556l-5.333-5.333z"></path>
</svg>
