<!-- Generated by IcoMoon.io -->
<svg version="1.1" xmlns="http://www.w3.org/2000/svg" width="43" height="32" viewBox="0 0 43 32">
<title>television-guide</title>
<path d="M37.333 30.222v-21.333h-32v21.333h32M37.333 5.333c1.956 0 3.556 1.6 3.556 3.556v21.333c0 1.956-1.6 3.556-3.556 3.556h-8.889v3.556h-14.222v-3.556h-8.889c-1.956 0-3.556-1.6-3.556-3.556v-21.333c0-1.956 1.6-3.556 3.556-3.556h32M8.889 12.444h10.667v7.111h-10.667v-7.111M8.889 23.111h10.667v3.556h-10.667v-3.556M23.111 12.444h10.667v3.556h-10.667v-3.556M23.111 19.556h10.667v7.111h-10.667v-7.111z"></path>
</svg>
