<!-- Generated by IcoMoon.io -->
<svg version="1.1" xmlns="http://www.w3.org/2000/svg" width="43" height="32" viewBox="0 0 43 32">
<title>temperature-celsius</title>
<path d="M29.333 8.889c2.756 0 5.333 0.836 7.449 2.276l-2.062 5.138c-1.422-1.298-3.307-2.080-5.387-2.080-4.444 0-8 3.556-8 8s3.556 8 8 8c1.831 0 3.502-0.604 4.853-1.636l2.027 5.067c-2.009 1.209-4.356 1.902-6.88 1.902-7.36 0-13.333-5.973-13.333-13.333s5.973-13.333 13.333-13.333M10.667 5.333c2.951 0 5.333 2.382 5.333 5.333s-2.382 5.333-5.333 5.333-5.333-2.382-5.333-5.333 2.382-5.333 5.333-5.333M10.667 8.889c-0.978 0-1.778 0.8-1.778 1.778s0.8 1.778 1.778 1.778 1.778-0.8 1.778-1.778-0.8-1.778-1.778-1.778z"></path>
</svg>
