<!-- Generated by IcoMoon.io -->
<svg version="1.1" xmlns="http://www.w3.org/2000/svg" width="43" height="32" viewBox="0 0 43 32">
<title>tennis</title>
<path d="M21.333 3.556c4.444 0 8.444 1.6 11.556 4.267-3.804 3.253-6.222 8.107-6.222 13.511s2.418 10.258 6.222 13.511c-3.111 2.667-7.111 4.267-11.556 4.267s-8.444-1.6-11.556-4.267c3.804-3.253 6.222-8.107 6.222-13.511s-2.418-10.258-6.222-13.511c3.111-2.667 7.111-4.267 11.556-4.267M39.111 21.333c0 4.124-1.404 7.911-3.769 10.933-3.129-2.613-5.12-6.542-5.12-10.933s1.991-8.32 5.12-10.933c2.364 3.022 3.769 6.809 3.769 10.933M3.556 21.333c0-4.124 1.404-7.911 3.769-10.933 3.129 2.613 5.12 6.542 5.12 10.933s-1.991 8.32-5.12 10.933c-2.364-3.022-3.769-6.809-3.769-10.933z"></path>
</svg>
