<!-- Generated by IcoMoon.io -->
<svg version="1.1" xmlns="http://www.w3.org/2000/svg" width="43" height="32" viewBox="0 0 43 32">
<title>text-to-speech-off</title>
<path d="M3.556 9.369l2.276-2.258 29.724 29.724-2.258 2.276-9.511-9.511c-1.476 3.022-4.356 5.227-7.787 5.813v3.698h-3.556v-3.698c-5.049-0.853-8.889-5.244-8.889-10.524h3.556c0 3.929 3.182 7.111 7.111 7.111 3.236 0 5.973-2.169 6.827-5.138l-3.271-3.271v1.298c0 1.956-1.6 3.556-3.556 3.556s-3.556-1.6-3.556-3.556v-8.409l-7.111-7.111M38.062 16.729l-7.538 7.556 1.796-6.507h-7.431c-1.956 0-3.556-1.6-3.556-3.556v-7.111c0-1.956 1.6-3.556 3.556-3.556h10.667c1.956 0 3.556 1.6 3.556 3.556v7.111c0 0.978-0.391 1.867-1.049 2.507z"></path>
</svg>
