<!-- Generated by IcoMoon.io -->
<svg version="1.1" xmlns="http://www.w3.org/2000/svg" width="43" height="32" viewBox="0 0 43 32">
<title>textbox</title>
<path d="M30.222 12.444h8.889v17.778h-8.889v3.556c0 0.978 0.8 1.778 1.778 1.778h3.556v3.556h-4.444c-0.978 0-2.667-0.8-2.667-1.778 0 0.978-1.689 1.778-2.667 1.778h-4.444v-3.556h3.556c0.978 0 1.778-0.8 1.778-1.778v-24.889c0-0.978-0.8-1.778-1.778-1.778h-3.556v-3.556h4.444c0.978 0 2.667 0.8 2.667 1.778 0-0.978 1.689-1.778 2.667-1.778h4.444v3.556h-3.556c-0.978 0-1.778 0.8-1.778 1.778v3.556M3.556 12.444h19.556v3.556h-16v10.667h16v3.556h-19.556v-17.778M35.556 26.667v-10.667h-5.333v10.667h5.333z"></path>
</svg>
