<!-- Generated by IcoMoon.io -->
<svg version="1.1" xmlns="http://www.w3.org/2000/svg" width="43" height="32" viewBox="0 0 43 32">
<title>texture</title>
<path d="M16.516 37.333h5.031l15.787-15.787v-5.031M33.778 37.333c0.978 0 1.867-0.391 2.507-1.049 0.658-0.64 1.049-1.529 1.049-2.507v-3.556l-7.111 7.111M8.889 5.333c-1.956 0-3.556 1.6-3.556 3.556v3.556l7.111-7.111M21.12 5.333l-15.787 15.787v5.031l20.818-20.818M34.667 5.476l-29.191 29.191c0.16 0.622 0.48 1.173 0.907 1.618 0.444 0.427 0.996 0.747 1.618 0.907l29.209-29.191c-0.338-1.244-1.298-2.204-2.542-2.524z"></path>
</svg>
