<!-- Generated by IcoMoon.io -->
<svg version="1.1" xmlns="http://www.w3.org/2000/svg" width="43" height="32" viewBox="0 0 43 32">
<title>theme-light-dark</title>
<path d="M13.333 3.556c-3.182 2.044-5.333 5.653-5.333 9.778s2.151 7.733 5.387 9.778c-5.458 0-9.831-4.373-9.831-9.778s4.373-9.778 9.778-9.778M33.902 6.222l2.542 2.542-27.68 27.68-2.542-2.542 27.68-27.68M22.916 10.542l-2.631-1.653-2.56 1.778 0.747-3.022-2.471-1.884 3.111-0.213 1.031-2.933 1.191 2.898 3.076 0.053-2.4 2.009 0.907 2.969M17.049 16.96l-2.062-1.298-1.991 1.387 0.604-2.347-1.938-1.476 2.418-0.16 0.8-2.293 0.907 2.258 2.418 0.053-1.867 1.547 0.711 2.329M33.778 24c0 5.404-4.373 9.778-9.778 9.778-2.169 0-4.178-0.711-5.796-1.902l13.671-13.671c1.191 1.618 1.902 3.627 1.902 5.796M25.956 35.698l4.924-2.044-0.427 5.956-4.498-3.911M33.653 30.898l2.044-4.924 3.911 4.516-5.956 0.409M35.698 22.080l-2.027-4.942 5.938 0.427-3.911 4.516M17.12 33.653l4.924 2.044-4.498 3.893-0.427-5.938z"></path>
</svg>
