<!-- Generated by IcoMoon.io -->
<svg version="1.1" xmlns="http://www.w3.org/2000/svg" width="43" height="32" viewBox="0 0 43 32">
<title>thermometer-lines</title>
<path d="M30.222 5.333h7.111v3.556h-7.111v-3.556M30.222 12.444h7.111v3.556h-7.111v-3.556M30.222 19.556h7.111v3.556h-5.778l-1.333-1.6v-1.956M37.333 26.667v3.556h-3.556c0-1.227-0.178-2.436-0.516-3.556h4.071M30.222 30.222c0 4.907-3.982 8.889-8.889 8.889s-8.889-3.982-8.889-8.889c0-2.916 1.404-5.493 3.556-7.111v-14.222c0-2.951 2.382-5.333 5.333-5.333s5.333 2.382 5.333 5.333v14.222c2.151 1.618 3.556 4.196 3.556 7.111M19.556 14.222v10.969c-2.080 0.729-3.556 2.702-3.556 5.031 0 2.951 2.382 5.333 5.333 5.333s5.333-2.382 5.333-5.333c0-2.329-1.476-4.302-3.556-5.031v-10.969h-3.556M12.444 5.333v3.556h-7.111v-3.556h7.111M12.444 12.444v3.556h-7.111v-3.556h7.111M12.444 19.556v1.956l-1.333 1.6h-5.778v-3.556h7.111M5.333 26.667h4.071c-0.338 1.12-0.516 2.329-0.516 3.556h-3.556v-3.556z"></path>
</svg>
