<!-- Generated by IcoMoon.io -->
<svg version="1.1" xmlns="http://www.w3.org/2000/svg" width="43" height="32" viewBox="0 0 43 32">
<title>thumb-up-outline</title>
<path d="M8.889 16v21.333h-7.111v-21.333h7.111M16 37.333c-1.956 0-3.556-1.6-3.556-3.556v-17.778c0-0.978 0.391-1.867 1.049-2.507l11.698-11.716 1.884 1.884c0.48 0.48 0.782 1.138 0.782 1.867l-0.053 0.569-1.689 8.124h11.218c1.973 0 3.556 1.6 3.556 3.556v3.556c0 0.462-0.089 0.889-0.249 1.298l-5.369 12.533c-0.533 1.28-1.796 2.169-3.271 2.169h-16M16 33.778h16.053l5.28-12.444v-3.556h-15.627l2.009-9.458-7.716 7.733v17.724z"></path>
</svg>
