<!-- Generated by IcoMoon.io -->
<svg version="1.1" xmlns="http://www.w3.org/2000/svg" width="43" height="32" viewBox="0 0 43 32">
<title>thumb-down-outline</title>
<path d="M33.778 26.667v-21.333h7.111v21.333h-7.111M26.667 5.333c1.956 0 3.556 1.6 3.556 3.556v17.778c0 0.978-0.391 1.867-1.049 2.507l-11.698 11.716-1.884-1.884c-0.48-0.48-0.782-1.138-0.782-1.884l0.053-0.551 1.689-8.124h-11.218c-1.973 0-3.556-1.6-3.556-3.556v-3.556c0-0.462 0.089-0.889 0.249-1.298l5.369-12.533c0.533-1.28 1.796-2.169 3.271-2.169h16M26.667 8.889h-16.053l-5.28 12.444v3.556h15.609l-2.009 9.458 7.733-7.733v-17.724z"></path>
</svg>
