<!-- Generated by IcoMoon.io -->
<svg version="1.1" xmlns="http://www.w3.org/2000/svg" width="43" height="32" viewBox="0 0 43 32">
<title>thumb-up</title>
<path d="M40.889 17.778c0-1.973-1.6-3.556-3.556-3.556h-11.236l1.707-8.124c0.036-0.178 0.053-0.373 0.053-0.569 0-0.729-0.302-1.404-0.782-1.884l-1.884-1.867-11.698 11.698c-0.658 0.658-1.049 1.547-1.049 2.524v17.778c0 1.956 1.6 3.556 3.556 3.556h16c1.476 0 2.738-0.889 3.271-2.169l5.369-12.533c0.16-0.409 0.249-0.836 0.249-1.298v-3.556M1.778 37.333h7.111v-21.333h-7.111v21.333z"></path>
</svg>
