<!-- Generated by IcoMoon.io -->
<svg version="1.1" xmlns="http://www.w3.org/2000/svg" width="43" height="32" viewBox="0 0 43 32">
<title>thumbs-up-down</title>
<path d="M40 18.667h-12c-1.102 0-2.044 0.676-2.453 1.618l-4.018 9.404c-0.124 0.302-0.196 0.64-0.196 0.978v2.222c0 0.978 0.8 1.778 1.778 1.778h9.209l-1.209 5.653v0.427c0 0.551 0.231 1.031 0.587 1.422l1.404 1.387 8.782-8.782c0.48-0.48 0.782-1.156 0.782-1.884v-11.556c0-1.476-1.191-2.667-2.667-2.667M21.333 11.556c0-0.978-0.8-1.778-1.778-1.778h-9.209l1.209-5.653v-0.409c0-0.551-0.231-1.049-0.587-1.422l-1.404-1.404-8.782 8.782c-0.48 0.48-0.782 1.156-0.782 1.884v11.556c0 1.476 1.191 2.667 2.667 2.667h12c1.102 0 2.044-0.676 2.453-1.618l4.018-9.404c0.124-0.302 0.196-0.64 0.196-0.978v-2.222z"></path>
</svg>
