<!-- Generated by IcoMoon.io -->
<svg version="1.1" xmlns="http://www.w3.org/2000/svg" width="43" height="32" viewBox="0 0 43 32">
<title>thumb-down</title>
<path d="M33.778 26.667h7.111v-21.333h-7.111M26.667 5.333h-16c-1.476 0-2.738 0.889-3.271 2.169l-5.369 12.533c-0.16 0.409-0.249 0.836-0.249 1.298v3.556c0 1.956 1.6 3.556 3.556 3.556h11.218l-1.689 8.124c-0.036 0.178-0.053 0.356-0.053 0.551 0 0.747 0.302 1.404 0.782 1.884l1.884 1.884 11.698-11.716c0.658-0.64 1.049-1.529 1.049-2.507v-17.778c0-1.973-1.6-3.556-3.556-3.556z"></path>
</svg>
