<!-- Generated by IcoMoon.io -->
<svg version="1.1" xmlns="http://www.w3.org/2000/svg" width="43" height="32" viewBox="0 0 43 32">
<title>ticket-percent</title>
<path d="M7.111 7.111c-1.956 0-3.556 1.6-3.556 3.556v7.111c1.973 0 3.556 1.6 3.556 3.556s-1.6 3.556-3.556 3.556v7.111c0 1.956 1.6 3.556 3.556 3.556h28.444c1.956 0 3.556-1.6 3.556-3.556v-7.111c-1.956 0-3.556-1.6-3.556-3.556 0-1.973 1.6-3.556 3.556-3.556v-7.111c0-1.973-1.6-3.556-3.556-3.556h-28.444M27.556 12.444l2.667 2.667-15.111 15.111-2.667-2.667 15.111-15.111M15.662 12.516c1.742 0 3.147 1.404 3.147 3.147s-1.404 3.147-3.147 3.147-3.147-1.404-3.147-3.147 1.404-3.147 3.147-3.147M27.004 23.858c1.742 0 3.147 1.404 3.147 3.147s-1.404 3.147-3.147 3.147-3.147-1.404-3.147-3.147 1.404-3.147 3.147-3.147z"></path>
</svg>
