<!-- Generated by IcoMoon.io -->
<svg version="1.1" xmlns="http://www.w3.org/2000/svg" width="43" height="32" viewBox="0 0 43 32">
<title>ticket-account</title>
<path d="M35.556 21.333c0 1.956 1.6 3.556 3.556 3.556v7.111c0 1.956-1.6 3.556-3.556 3.556h-28.444c-1.956 0-3.556-1.6-3.556-3.556v-7.111c1.973 0 3.556-1.6 3.556-3.556s-1.6-3.556-3.556-3.556v-7.111c0-1.973 1.6-3.556 3.556-3.556h28.444c1.956 0 3.556 1.6 3.556 3.556v7.111c-1.956 0-3.556 1.6-3.556 3.556M29.333 28.889c0-2.667-5.333-4-8-4s-8 1.333-8 4v1.333h16v-1.333M21.333 21.778c2.204 0 4-1.796 4-4s-1.796-4-4-4-4 1.796-4 4 1.796 4 4 4z"></path>
</svg>
