<!-- Generated by IcoMoon.io -->
<svg version="1.1" xmlns="http://www.w3.org/2000/svg" width="43" height="32" viewBox="0 0 43 32">
<title>ticket-confirmation</title>
<path d="M23.111 15.111h-3.556v-3.556h3.556v3.556M23.111 23.111h-3.556v-3.556h3.556v3.556M23.111 31.111h-3.556v-3.556h3.556v3.556M39.111 17.778v-7.111c0-1.973-1.6-3.556-3.556-3.556h-28.444c-1.956 0-3.556 1.6-3.556 3.556v7.111c1.973 0 3.556 1.6 3.556 3.556s-1.6 3.556-3.556 3.556v7.111c0 1.956 1.6 3.556 3.556 3.556h28.444c1.956 0 3.556-1.6 3.556-3.556v-7.111c-1.956 0-3.556-1.6-3.556-3.556s1.6-3.556 3.556-3.556z"></path>
</svg>
