<!-- Generated by IcoMoon.io -->
<svg version="1.1" xmlns="http://www.w3.org/2000/svg" width="43" height="32" viewBox="0 0 43 32">
<title>ticket</title>
<path d="M27.698 29.867l-6.364-4.089-6.364 4.089 1.92-7.324-5.849-4.764 7.556-0.462 2.738-7.004 2.738 7.004 7.556 0.462-5.849 4.764M35.556 21.333c0-1.973 1.6-3.556 3.556-3.556v-7.111c0-1.973-1.6-3.556-3.556-3.556h-28.444c-1.956 0-3.556 1.6-3.556 3.556v7.111c1.973 0 3.556 1.6 3.556 3.556s-1.6 3.556-3.556 3.556v7.111c0 1.956 1.6 3.556 3.556 3.556h28.444c1.956 0 3.556-1.6 3.556-3.556v-7.111c-1.956 0-3.556-1.6-3.556-3.556z"></path>
</svg>
