<!-- Generated by IcoMoon.io -->
<svg version="1.1" xmlns="http://www.w3.org/2000/svg" width="43" height="32" viewBox="0 0 43 32">
<title>timelapse</title>
<path d="M21.333 35.556c-7.858 0-14.222-6.364-14.222-14.222s6.364-14.222 14.222-14.222 14.222 6.364 14.222 14.222-6.364 14.222-14.222 14.222M21.333 3.556c-9.813 0-17.778 7.964-17.778 17.778s7.964 17.778 17.778 17.778 17.778-7.964 17.778-17.778-7.964-17.778-17.778-17.778M28.871 13.796c-2.080-2.098-4.818-3.129-7.538-3.129v10.667l-7.538 7.538c4.16 4.16 10.916 4.16 15.076 0 4.178-4.16 4.178-10.916 0-15.076z"></path>
</svg>
