<!-- Generated by IcoMoon.io -->
<svg version="1.1" xmlns="http://www.w3.org/2000/svg" width="43" height="32" viewBox="0 0 43 32">
<title>timer-10</title>
<path d="M22.933 23.502c0 1.067-0.071 1.973-0.213 2.72s-0.356 1.333-0.64 1.813c-0.284 0.462-0.64 0.8-1.049 1.013s-0.907 0.284-1.476 0.284c-0.516 0-1.013-0.071-1.44-0.284s-0.782-0.551-1.067-1.013c-0.284-0.48-0.516-1.067-0.676-1.813s-0.231-1.653-0.231-2.72v-4.444c0-1.067 0.071-1.973 0.231-2.702s0.373-1.316 0.676-1.778c0.284-0.444 0.64-0.764 1.067-0.978 0.427-0.196 0.907-0.267 1.44-0.267 0.551 0 1.031 0.071 1.44 0.267 0.427 0.196 0.782 0.516 1.067 0.978 0.284 0.444 0.516 1.031 0.658 1.76s0.231 1.636 0.231 2.702v4.462M24.569 12.533c-0.569-0.711-1.333-1.244-2.187-1.564-0.836-0.302-1.796-0.48-2.827-0.48s-1.973 0.178-2.827 0.48c-0.853 0.32-1.618 0.836-2.187 1.564-0.604 0.729-1.067 1.689-1.404 2.827-0.32 1.156-0.498 2.578-0.498 4.249v3.413c0 1.671 0.16 3.093 0.498 4.249 0.338 1.173 0.8 2.116 1.422 2.844 0.604 0.729 1.333 1.262 2.187 1.582 0.853 0.302 1.796 0.498 2.809 0.498 1.067 0 2.009-0.196 2.844-0.498 0.853-0.32 1.6-0.853 2.169-1.582 0.604-0.729 1.067-1.671 1.387-2.844 0.32-1.156 0.498-2.578 0.498-4.249v-3.413c0-1.671-0.16-3.093-0.498-4.249-0.32-1.138-0.782-2.116-1.387-2.827M42.276 25.547c-0.249-0.498-0.622-0.942-1.12-1.316s-1.084-0.693-1.796-0.942-1.511-0.48-2.4-0.676c-0.622-0.124-1.138-0.267-1.547-0.391-0.409-0.16-0.747-0.302-0.978-0.462-0.249-0.16-0.409-0.338-0.498-0.533s-0.16-0.427-0.16-0.693c0-0.249 0.071-0.498 0.178-0.729 0.107-0.249 0.267-0.444 0.48-0.604 0.231-0.178 0.48-0.32 0.8-0.427s0.711-0.16 1.138-0.16c0.444 0 0.836 0.053 1.173 0.196 0.338 0.124 0.622 0.302 0.853 0.516 0.231 0.231 0.391 0.462 0.516 0.747 0.107 0.284 0.196 0.569 0.196 0.871h3.449c0-0.693-0.142-1.333-0.427-1.938s-0.693-1.12-1.244-1.564c-0.516-0.444-1.156-0.782-1.92-1.049-0.747-0.267-1.636-0.391-2.596-0.391-0.907 0-1.707 0.124-2.471 0.373-0.729 0.249-1.369 0.587-1.902 1.013-0.498 0.391-0.889 0.924-1.173 1.493s-0.409 1.156-0.409 1.796c0 0.658 0.142 1.227 0.409 1.707 0.284 0.498 0.64 0.924 1.173 1.298 0.444 0.373 1.031 0.676 1.707 0.942s1.44 0.462 2.258 0.64c0.693 0.142 1.262 0.302 1.689 0.462s0.764 0.338 1.013 0.516c0.231 0.178 0.391 0.427 0.444 0.604 0.124 0.213 0.16 0.444 0.16 0.711 0 0.551-0.231 0.996-0.711 1.351s-1.173 0.516-2.116 0.516c-0.356 0-0.729-0.036-1.102-0.142-0.373-0.089-0.676-0.231-0.996-0.427-0.302-0.196-0.569-0.462-0.729-0.782-0.196-0.32-0.302-0.729-0.32-1.191h-3.36c0 0.676 0.142 1.262 0.427 1.867 0.284 0.587 0.693 1.156 1.244 1.653 0.551 0.48 1.227 0.871 2.044 1.173s1.742 0.427 2.791 0.427c0.96 0 1.778-0.089 2.578-0.32 0.764-0.231 1.422-0.569 1.973-0.96 0.551-0.409 0.96-0.907 1.262-1.476s0.409-1.191 0.409-1.884-0.124-1.316-0.391-1.813M0 13.724v2.987l5.333-1.778v17.067h3.556v-21.333h-0.444l-8.444 3.058z"></path>
</svg>
