<!-- Generated by IcoMoon.io -->
<svg version="1.1" xmlns="http://www.w3.org/2000/svg" width="43" height="32" viewBox="0 0 43 32">
<title>timer-3</title>
<path d="M37.102 25.547c-0.249-0.498-0.658-0.942-1.12-1.316-0.498-0.373-1.084-0.693-1.796-0.942s-1.511-0.48-2.4-0.676c-0.622-0.124-1.138-0.267-1.564-0.391-0.391-0.16-0.711-0.302-0.96-0.462s-0.409-0.338-0.498-0.533c-0.089-0.196-0.142-0.427-0.142-0.693s0.053-0.498 0.16-0.729c0.107-0.249 0.267-0.444 0.48-0.604 0.213-0.178 0.48-0.32 0.8-0.427s0.711-0.16 1.138-0.16c0.444 0 0.8 0.053 1.173 0.196 0.338 0.124 0.622 0.302 0.853 0.516 0.231 0.231 0.391 0.462 0.551 0.747 0.071 0.284 0.142 0.569 0.142 0.871h3.467c0-0.693-0.142-1.333-0.427-1.938s-0.693-1.12-1.227-1.564c-0.533-0.444-1.173-0.782-1.956-1.049-0.747-0.267-1.618-0.391-2.578-0.391-0.907 0-1.742 0.124-2.471 0.373s-1.369 0.587-1.884 1.013c-0.516 0.391-0.907 0.924-1.191 1.493s-0.409 1.156-0.409 1.796c0 0.658 0.142 1.209 0.409 1.707s0.658 0.924 1.138 1.298c0.48 0.373 1.067 0.676 1.742 0.942s1.44 0.462 2.258 0.64c0.693 0.142 1.262 0.302 1.689 0.462 0.409 0.16 0.764 0.338 1.013 0.516 0.231 0.178 0.391 0.427 0.48 0.604 0.089 0.213 0.124 0.444 0.124 0.711 0 0.551-0.231 0.996-0.711 1.351-0.498 0.356-1.173 0.516-2.080 0.516-0.391 0-0.764-0.036-1.138-0.142-0.373-0.089-0.711-0.231-0.996-0.427-0.302-0.196-0.533-0.462-0.729-0.782s-0.302-0.729-0.32-1.191h-3.36c0 0.676 0.124 1.262 0.427 1.867 0.284 0.587 0.693 1.156 1.244 1.653 0.551 0.48 1.227 0.871 2.009 1.173 0.889 0.302 1.778 0.427 2.844 0.427 0.942 0 1.796-0.089 2.56-0.32s1.422-0.569 1.973-0.96c0.551-0.409 0.96-0.907 1.262-1.476s0.444-1.191 0.444-1.884c-0.036-0.693-0.196-1.316-0.427-1.813M20.64 23.058c-0.284-0.427-0.64-0.836-1.084-1.156-0.462-0.338-1.013-0.622-1.671-0.853 0.533-0.249 1.013-0.533 1.422-0.889s0.747-0.729 1.013-1.138c0.267-0.409 0.48-0.818 0.604-1.244 0.142-0.444 0.196-0.889 0.196-1.316 0-0.978-0.16-1.849-0.498-2.596-0.32-0.747-0.782-1.369-1.387-1.884-0.569-0.498-1.298-0.889-2.133-1.138-0.8-0.231-1.724-0.356-2.72-0.356-0.978 0-1.884 0.178-2.702 0.427-0.836 0.302-1.547 0.711-2.133 1.227s-1.067 1.12-1.387 1.831c-0.356 0.693-0.516 1.476-0.516 2.293h3.52c0-0.462 0.089-0.871 0.249-1.227 0.142-0.356 0.391-0.676 0.676-0.924 0.302-0.249 0.64-0.444 1.031-0.587s0.818-0.196 1.298-0.196c1.084 0 1.884 0.267 2.418 0.818s0.782 1.333 0.782 2.347c0 0.48-0.071 0.924-0.213 1.28-0.142 0.427-0.373 0.764-0.676 1.049s-0.676 0.498-1.12 0.658c-0.444 0.16-0.978 0.231-1.582 0.231h-2.080v2.791h2.098c0.604 0 1.138 0.071 1.618 0.196 0.48 0.142 0.889 0.338 1.227 0.622s0.604 0.676 0.782 1.084c0.178 0.427 0.284 0.96 0.284 1.547 0 1.102-0.32 1.938-0.942 2.489-0.622 0.622-1.493 0.889-2.578 0.889-0.516 0-0.996-0.053-1.422-0.213-0.427-0.142-0.782-0.356-1.084-0.676-0.302-0.249-0.533-0.569-0.693-0.96s-0.249-0.818-0.249-1.28h-3.538c0 0.978 0.196 1.831 0.551 2.578 0.391 0.747 0.889 1.369 1.547 1.867 0.64 0.462 1.369 0.871 2.204 1.12 0.836 0.231 1.707 0.373 2.631 0.373 1.013 0 1.938-0.142 2.809-0.409s1.618-0.676 2.24-1.209c0.64-0.533 1.138-1.191 1.493-1.956s0.533-1.653 0.533-2.631c0-0.516-0.071-1.049-0.196-1.529-0.142-0.409-0.338-0.907-0.622-1.351z"></path>
</svg>
