<!-- Generated by IcoMoon.io -->
<svg version="1.1" xmlns="http://www.w3.org/2000/svg" width="43" height="32" viewBox="0 0 43 32">
<title>timetable</title>
<path d="M24.889 21.333h2.667v5.013l4.338 2.507-1.333 2.311-5.671-3.271v-6.56M7.111 3.556h24.889c1.956 0 3.556 1.6 3.556 3.556v10.844c2.204 2.24 3.556 5.316 3.556 8.711 0 6.88-5.564 12.444-12.444 12.444-3.396 0-6.471-1.351-8.711-3.556h-10.844c-1.956 0-3.556-1.6-3.556-3.556v-24.889c0-1.956 1.6-3.556 3.556-3.556M7.111 26.667v5.333h8.302c-0.764-1.618-1.191-3.431-1.191-5.333h-7.111M7.111 14.222h10.667v-5.333h-10.667v5.333M32 14.222v-5.333h-10.667v5.333h10.667M7.111 23.111h7.627c0.604-2.044 1.724-3.876 3.218-5.333h-10.844v5.333M26.667 18.044c-4.764 0-8.622 3.858-8.622 8.622s3.858 8.622 8.622 8.622c4.764 0 8.622-3.858 8.622-8.622s-3.858-8.622-8.622-8.622z"></path>
</svg>
