<!-- Generated by IcoMoon.io -->
<svg version="1.1" xmlns="http://www.w3.org/2000/svg" width="43" height="32" viewBox="0 0 43 32">
<title>timer</title>
<path d="M21.333 35.556c-6.88 0-12.444-5.564-12.444-12.444s5.564-12.444 12.444-12.444 12.444 5.564 12.444 12.444-5.564 12.444-12.444 12.444M33.831 13.138l2.524-2.524c-0.8-0.907-1.6-1.724-2.507-2.507l-2.524 2.56c-2.756-2.24-6.222-3.556-9.991-3.556-8.836 0-16 7.164-16 16s7.164 16 16 16c8.889 0 16-7.164 16-16 0-3.769-1.316-7.236-3.502-9.973M19.556 24.889h3.556v-10.667h-3.556M26.667 1.778h-10.667v3.556h10.667v-3.556z"></path>
</svg>
