<!-- Generated by IcoMoon.io -->
<svg version="1.1" xmlns="http://www.w3.org/2000/svg" width="43" height="32" viewBox="0 0 43 32">
<title>timer-off</title>
<path d="M21.333 35.556c-6.88 0-12.444-5.564-12.444-12.444 0-2.276 0.622-4.444 1.689-6.222l16.978 16.96c-1.778 1.084-3.947 1.707-6.222 1.707M5.333 7.111l-2.222 2.258 4.889 4.907c-1.689 2.524-2.667 5.564-2.667 8.836 0 8.836 7.164 16 16 16 3.271 0 6.311-0.978 8.889-2.667l4.444 4.444 2.222-2.258-13.707-13.742-17.849-17.778M19.556 16.782l3.556 3.556v-6.116h-3.556M26.667 1.778h-10.667v3.556h10.667M33.849 8.089l-2.524 2.524c-2.756-2.187-6.222-3.502-9.991-3.502-3.253 0-6.276 0.978-8.8 2.667l2.578 2.56c1.831-1.049 3.964-1.671 6.222-1.671 6.88 0 12.444 5.564 12.444 12.444 0 2.258-0.622 4.391-1.671 6.222l2.56 2.56c1.689-2.507 2.667-5.529 2.667-8.782 0-3.769-1.316-7.236-3.502-9.973l2.524-2.524-2.507-2.524z"></path>
</svg>
