<!-- Generated by IcoMoon.io -->
<svg version="1.1" xmlns="http://www.w3.org/2000/svg" width="43" height="32" viewBox="0 0 43 32">
<title>tooltip-outline-plus</title>
<path d="M7.111 3.556h28.444c1.956 0 3.556 1.6 3.556 3.556v21.333c0 1.956-1.6 3.556-3.556 3.556h-7.111l-7.111 7.111-7.111-7.111h-7.111c-1.956 0-3.556-1.6-3.556-3.556v-21.333c0-1.956 1.6-3.556 3.556-3.556M7.111 7.111v21.333h8.587l5.636 5.636 5.636-5.636h8.587v-21.333h-28.444M19.556 10.667h3.556v5.333h5.333v3.556h-5.333v5.333h-3.556v-5.333h-5.333v-3.556h5.333v-5.333z"></path>
</svg>
