<!-- Generated by IcoMoon.io -->
<svg version="1.1" xmlns="http://www.w3.org/2000/svg" width="43" height="32" viewBox="0 0 43 32">
<title>tooth</title>
<path d="M12.444 3.556c-5.333 0-8.889 5.333-8.889 10.667 0 3.751 1.778 8.889 3.556 10.667s3.556 14.222 7.111 14.222c8.071 0 3.556-12.444 7.111-12.444s-0.96 12.444 7.111 12.444c3.556 0 5.333-12.444 7.111-14.222s3.556-6.916 3.556-10.667c0-5.333-3.556-10.667-8.889-10.667s-5.333 1.778-8.889 1.778-3.556-1.778-8.889-1.778M12.444 7.111c3.556 0 5.333 1.778 8.889 1.778s5.333-1.778 8.889-1.778c2.969 0 5.333 3.556 5.333 7.111 0 3.111-1.529 7.307-3.218 8.996-1.529 1.529-3.787 12.231-4.782 12.231-0.373 0-0.889-1.884-0.889-4.178 0-3.627-1.013-8.16-5.333-8.16s-5.333 4.533-5.333 8.16c0 2.293-0.516 4.178-0.889 4.178-0.996 0-3.253-10.702-4.782-12.231-1.689-1.689-3.218-5.884-3.218-8.996 0-3.556 2.364-7.111 5.333-7.111z"></path>
</svg>
