<!-- Generated by IcoMoon.io -->
<svg version="1.1" xmlns="http://www.w3.org/2000/svg" width="43" height="32" viewBox="0 0 43 32">
<title>tor</title>
<path d="M21.333 24.889c-1.778 0-5.333 1.778-5.333 3.556 0 3.556 5.333 3.556 5.333 3.556v-1.778c-0.978 0-1.778-0.8-1.778-1.778s0.8-1.778 1.778-1.778v-1.778M21.333 33.778s-7.111-0.889-7.111-4.444c0-5.333 5.333-6.667 7.111-6.667v-2.222c-1.778 0-8.889 2.667-8.889 8 0 7.111 8.889 7.111 8.889 7.111v-1.778M17.902 12.498l2.116 0.942c0.764-4.338 2.809-7.218 2.809-7.218-0.764 1.831-1.262 3.342-1.582 4.533 2.151-4.444 6.507-7.2 6.507-7.2-2.098 2.098-3.644 4.373-4.693 6.276 2.809-2.987 6.702-4.942 6.702-4.942-4.782 3.058-6.933 7.911-7.467 9.262l0.978 0.142c0 0.924 0 1.778 0.444 2.453 1.351 3.36 8.284 3.644 8.284 11.698s-7.164 10.667-10.969 10.667c-3.804 0-12.142-1.724-12.142-10.667s8.8-9.013 10.364-12.587c0.213-0.676-1.351-3.36-1.351-3.36z"></path>
</svg>
