<!-- Generated by IcoMoon.io -->
<svg version="1.1" xmlns="http://www.w3.org/2000/svg" width="43" height="32" viewBox="0 0 43 32">
<title>traffic-light</title>
<path d="M21.333 16c-1.956 0-3.556-1.6-3.556-3.556 0-1.973 1.6-3.556 3.556-3.556 1.973 0 3.556 1.582 3.556 3.556 0 1.956-1.6 3.556-3.556 3.556M21.333 24.889c-1.956 0-3.556-1.6-3.556-3.556 0-1.973 1.6-3.556 3.556-3.556 1.973 0 3.556 1.582 3.556 3.556 0 1.956-1.6 3.556-3.556 3.556M21.333 33.778c-1.956 0-3.556-1.6-3.556-3.556 0-1.973 1.6-3.556 3.556-3.556 1.973 0 3.556 1.582 3.556 3.556 0 1.956-1.6 3.556-3.556 3.556M35.556 17.778h-5.333v-2.027c3.058-0.8 5.333-3.556 5.333-6.862h-5.333v-1.778c0-0.978-0.8-1.778-1.778-1.778h-14.222c-0.978 0-1.778 0.8-1.778 1.778v1.778h-5.333c0 3.307 2.276 6.062 5.333 6.862v2.027h-5.333c0 3.307 2.276 6.062 5.333 6.862v2.027h-5.333c0 3.307 2.276 6.062 5.333 6.862v2.027c0 0.978 0.8 1.778 1.778 1.778h14.222c0.978 0 1.778-0.8 1.778-1.778v-2.027c3.058-0.8 5.333-3.556 5.333-6.862h-5.333v-2.027c3.058-0.8 5.333-3.556 5.333-6.862z"></path>
</svg>
