<!-- Generated by IcoMoon.io -->
<svg version="1.1" xmlns="http://www.w3.org/2000/svg" width="43" height="32" viewBox="0 0 43 32">
<title>train</title>
<path d="M32 17.778h-21.333v-8.889h21.333M21.333 30.222c-1.973 0-3.556-1.6-3.556-3.556 0-1.973 1.582-3.556 3.556-3.556 1.956 0 3.556 1.6 3.556 3.556s-1.6 3.556-3.556 3.556M7.111 27.556c0 3.431 2.791 6.222 6.222 6.222l-2.667 2.667v0.889h21.333v-0.889l-2.667-2.667c3.431 0 6.222-2.791 6.222-6.222v-18.667c0-6.222-6.364-7.111-14.222-7.111s-14.222 0.889-14.222 7.111v18.667z"></path>
</svg>
