<!-- Generated by IcoMoon.io -->
<svg version="1.1" xmlns="http://www.w3.org/2000/svg" width="43" height="32" viewBox="0 0 43 32">
<title>tram</title>
<path d="M33.778 30.116v-15.004c0-4.96-4.64-6.044-10.667-6.222l1.333-2.667h5.778v-2.667h-17.778v2.667h8.444l-1.333 2.667c-5.582 0.196-10.667 1.298-10.667 6.222v15.004c0 2.578 2.116 4.729 4.604 5.28l-2.827 2.827v0.889h3.964l3.556-3.556h6.702l3.556 3.556h3.556v-0.889l-2.667-2.667h-0.142c3.004 0 4.587-2.436 4.587-5.44M21.333 32.889c-1.476 0-2.667-1.191-2.667-2.667s1.191-2.667 2.667-2.667 2.667 1.191 2.667 2.667-1.191 2.667-2.667 2.667M30.222 24.889h-17.778v-8.889h17.778v8.889z"></path>
</svg>
