<!-- Generated by IcoMoon.io -->
<svg version="1.1" xmlns="http://www.w3.org/2000/svg" width="43" height="32" viewBox="0 0 43 32">
<title>transcribe</title>
<path d="M35.556 8.889c1.956 0 3.556 1.6 3.556 3.556v17.778c0 1.956-1.6 3.556-3.556 3.556h-28.444c-1.973 0-3.556-1.6-3.556-3.556v-17.778c0-1.973 1.582-3.556 3.556-3.556h28.444M32 30.222v-3.556h-9.778l-3.556 3.556h13.333M10.667 30.222h4.444l12.178-12.231c0.356-0.338 0.356-0.907 0-1.262l-3.129-3.129c-0.356-0.356-0.924-0.356-1.262 0l-12.231 12.231v4.391z"></path>
</svg>
