<!-- Generated by IcoMoon.io -->
<svg version="1.1" xmlns="http://www.w3.org/2000/svg" width="43" height="32" viewBox="0 0 43 32">
<title>translate</title>
<path d="M22.88 26.791l-4.516-4.462 0.053-0.053c3.093-3.449 5.298-7.413 6.596-11.609h5.209v-3.556h-12.444v-3.556h-3.556v3.556h-12.444v3.556h19.858c-1.191 3.413-3.076 6.667-5.636 9.511-1.653-1.831-3.022-3.84-4.107-5.956h-3.556c1.298 2.898 3.076 5.636 5.298 8.107l-9.049 8.924 2.524 2.524 8.889-8.889 5.529 5.529 1.351-3.627M32.889 17.778h-3.556l-8 21.333h3.556l1.991-5.333h8.444l2.009 5.333h3.556l-8-21.333M28.231 30.222l2.88-7.698 2.88 7.698h-5.76z"></path>
</svg>
