<!-- Generated by IcoMoon.io -->
<svg version="1.1" xmlns="http://www.w3.org/2000/svg" width="43" height="32" viewBox="0 0 43 32">
<title>trello</title>
<path d="M7.111 5.333h28.444c0.978 0 1.778 0.8 1.778 1.778v28.444c0 0.978-0.8 1.778-1.778 1.778h-28.444c-0.978 0-1.778-0.8-1.778-1.778v-28.444c0-0.978 0.8-1.778 1.778-1.778M9.778 8.889c-0.498 0-0.889 0.391-0.889 0.889v21.333c0 0.498 0.391 0.889 0.889 0.889h8.889c0.498 0 0.889-0.391 0.889-0.889v-21.333c0-0.498-0.391-0.889-0.889-0.889h-8.889M24 8.889c-0.498 0-0.889 0.391-0.889 0.889v10.667c0 0.498 0.391 0.889 0.889 0.889h8.889c0.498 0 0.889-0.391 0.889-0.889v-10.667c0-0.498-0.391-0.889-0.889-0.889h-8.889z"></path>
</svg>
