<!-- Generated by IcoMoon.io -->
<svg version="1.1" xmlns="http://www.w3.org/2000/svg" width="43" height="32" viewBox="0 0 43 32">
<title>truck-delivery</title>
<path d="M5.333 7.111c-1.956 0-3.556 1.6-3.556 3.556v19.556h3.556c0 2.951 2.382 5.333 5.333 5.333s5.333-2.382 5.333-5.333h10.667c0 2.951 2.382 5.333 5.333 5.333s5.333-2.382 5.333-5.333h3.556v-8.889l-5.333-7.111h-5.333v-7.111M17.778 10.667l7.111 7.111-7.111 7.111v-5.333h-10.667v-3.556h10.667M30.222 16.889h4.444l3.502 4.444h-7.947M10.667 27.556c1.476 0 2.667 1.191 2.667 2.667s-1.191 2.667-2.667 2.667-2.667-1.191-2.667-2.667 1.191-2.667 2.667-2.667M32 27.556c1.476 0 2.667 1.191 2.667 2.667s-1.191 2.667-2.667 2.667-2.667-1.191-2.667-2.667 1.191-2.667 2.667-2.667z"></path>
</svg>
