<!-- Generated by IcoMoon.io -->
<svg version="1.1" xmlns="http://www.w3.org/2000/svg" width="43" height="32" viewBox="0 0 43 32">
<title>truck-fast</title>
<path d="M5.333 24l-1.333-2.667h9.333l-1.067-2.667h-8.711l-1.333-2.667h13.867l-1.067-2.667h-13.049l-1.529-2.667h6.667c0-1.956 1.6-3.556 3.556-3.556h21.333v7.111h5.333l5.333 7.111v8.889h-3.556c0 2.951-2.382 5.333-5.333 5.333s-5.333-2.382-5.333-5.333h-7.111c0 2.951-2.382 5.333-5.333 5.333s-5.333-2.382-5.333-5.333h-3.556v-6.222h-1.778M33.778 32.889c1.476 0 2.667-1.191 2.667-2.667s-1.191-2.667-2.667-2.667-2.667 1.191-2.667 2.667 1.191 2.667 2.667 2.667M36.444 16.889h-4.444v4.444h7.929l-3.484-4.444M16 32.889c1.476 0 2.667-1.191 2.667-2.667s-1.191-2.667-2.667-2.667-2.667 1.191-2.667 2.667 1.191 2.667 2.667 2.667z"></path>
</svg>
