<!-- Generated by IcoMoon.io -->
<svg version="1.1" xmlns="http://www.w3.org/2000/svg" width="43" height="32" viewBox="0 0 43 32">
<title>tshirt-v</title>
<path d="M28.444 37.333h-14.222c-0.978 0-1.778-0.8-1.778-1.778v-14.098l-2.311 1.867c-0.693 0.676-1.813 0.676-2.507 0l-5.031-5.031c-0.693-0.693-0.693-1.813 0-2.507l10.453-10.453h2.951c0 1.956 1.778 5.333 5.333 7.556 3.556-2.222 5.333-5.6 5.333-7.556h2.951l10.453 10.453c0.693 0.693 0.693 1.813 0 2.507l-5.031 5.031c-0.693 0.676-1.813 0.676-2.507 0l-2.311-1.867v14.098c0 0.978-0.8 1.778-1.778 1.778M36.302 17.031l-7.662-7.644c-1.973 3.058-3.751 5.28-7.307 7.058-3.556-1.778-5.333-4-7.307-7.058l-7.662 7.644 2.524 2.524 5.333-3.556h1.778v17.778h10.667v-17.778h1.778l5.333 3.556 2.524-2.524z"></path>
</svg>
