<!-- Generated by IcoMoon.io -->
<svg version="1.1" xmlns="http://www.w3.org/2000/svg" width="43" height="32" viewBox="0 0 43 32">
<title>tumblr</title>
<path d="M28.444 19.556h-5.333v6.933c0 1.298 0.249 1.956 1.956 1.956h3.378v5.333s-1.831 0.178-3.733 0.178c-4.711 0-6.933-2.844-6.933-6.044v-8.356h-3.556v-4.978c4.284-0.356 4.658-3.627 4.978-5.689h3.911v5.333h5.333M35.556 3.556h-28.444c-1.973 0-3.556 1.582-3.556 3.556v28.444c0 1.956 1.6 3.556 3.556 3.556h28.444c1.956 0 3.556-1.6 3.556-3.556v-28.444c0-1.973-1.6-3.556-3.556-3.556z"></path>
</svg>
