<!-- Generated by IcoMoon.io -->
<svg version="1.1" xmlns="http://www.w3.org/2000/svg" width="43" height="32" viewBox="0 0 43 32">
<title>twitter</title>
<path d="M39.929 10.667c-1.369 0.622-2.844 1.031-4.373 1.227 1.564-0.942 2.773-2.436 3.342-4.231-1.476 0.889-3.111 1.511-4.836 1.867-1.404-1.529-3.378-2.418-5.618-2.418-4.178 0-7.591 3.413-7.591 7.627 0 0.604 0.071 1.191 0.196 1.742-6.329-0.32-11.964-3.36-15.716-7.964-0.658 1.12-1.031 2.436-1.031 3.822 0 2.649 1.333 4.996 3.396 6.329-1.262 0-2.436-0.356-3.467-0.889v0.053c0 3.698 2.631 6.791 6.116 7.484-0.64 0.178-1.316 0.267-2.009 0.267-0.48 0-0.96-0.053-1.422-0.142 0.96 3.004 3.751 5.244 7.111 5.298-2.596 2.062-5.884 3.271-9.476 3.271-0.604 0-1.209-0.036-1.813-0.107 3.378 2.169 7.396 3.431 11.698 3.431 14.009 0 21.707-11.627 21.707-21.707 0-0.338 0-0.658-0.018-0.996 1.493-1.067 2.773-2.418 3.804-3.964z"></path>
</svg>
