<!-- Generated by IcoMoon.io -->
<svg version="1.1" xmlns="http://www.w3.org/2000/svg" width="43" height="32" viewBox="0 0 43 32">
<title>twitter-circle</title>
<path d="M31.484 16.587c0.853-0.711 1.849-1.564 2.293-2.507-0.729 0.373-1.6 0.604-2.56 0.729 0.889-0.64 1.618-1.476 1.991-2.613-0.924 0.498-1.867 0.924-3.040 1.138-2.756-3.324-9.351-0.622-8.178 4.356-4.64-0.284-7.467-2.382-9.813-4.96-1.333 2.169-0.178 5.458 1.404 6.364-0.818-0.053-1.44-0.302-2.027-0.587 0.071 2.738 1.582 4.053 3.698 4.764-0.64 0.124-1.351 0.16-2.027 0.053 0.658 1.902 2.027 3.093 4.373 3.342-1.6 1.351-4.551 2.293-6.933 1.92 2.044 1.298 4.373 2.329 7.609 2.187 7.84-0.356 13.084-5.973 13.209-14.187M21.333 3.556c9.813 0 17.778 7.964 17.778 17.778s-7.964 17.778-17.778 17.778-17.778-7.964-17.778-17.778 7.964-17.778 17.778-17.778z"></path>
</svg>
