<!-- Generated by IcoMoon.io -->
<svg version="1.1" xmlns="http://www.w3.org/2000/svg" width="43" height="32" viewBox="0 0 43 32">
<title>ubuntu</title>
<path d="M39.111 21.333c0 9.813-7.964 17.778-17.778 17.778s-17.778-7.964-17.778-17.778 7.964-17.778 17.778-17.778 17.778 7.964 17.778 17.778M25.493 13.76c1.031 0.587 2.329 0.231 2.951-0.782 0.551-1.013 0.213-2.311-0.818-2.916-1.013-0.587-2.329-0.284-2.916 0.782-0.587 1.013-0.231 2.329 0.782 2.916M21.12 27.556c-0.942 0-1.831-0.196-2.613-0.569l-1.493 2.667c1.244 0.569 2.631 0.96 4.107 0.96 0.871 0 1.689-0.124 2.489-0.338 0.142-0.871 0.64-1.653 1.458-2.116 0.818-0.48 1.742-0.516 2.56-0.213 1.582-1.547 2.596-3.662 2.756-6.027l-3.040-0.036c-0.284 3.182-2.951 5.671-6.222 5.671M21.12 15.111c3.271 0 5.938 2.471 6.222 5.671l3.040-0.053c-0.16-2.347-1.173-4.462-2.756-6.009-0.818 0.302-1.76 0.249-2.56-0.213-0.818-0.462-1.316-1.262-1.458-2.116-0.8-0.213-1.618-0.338-2.489-0.338-1.476 0-2.862 0.338-4.107 0.96l1.493 2.667c0.782-0.373 1.671-0.569 2.613-0.569M14.88 21.333c0-2.116 1.049-3.982 2.649-5.102l-1.529-2.631c-1.884 1.262-3.289 3.164-3.858 5.404 0.676 0.551 1.102 1.387 1.102 2.329s-0.427 1.778-1.102 2.329c0.569 2.222 1.973 4.142 3.858 5.387l1.529-2.613c-1.6-1.12-2.649-2.987-2.649-5.102M25.493 28.907c-1.013 0.587-1.369 1.884-0.782 2.916 0.587 1.013 1.902 1.369 2.916 0.782 1.031-0.604 1.369-1.902 0.818-2.916-0.622-1.031-1.92-1.369-2.951-0.782M10.24 19.2c-1.173 0-2.133 0.96-2.133 2.133s0.96 2.133 2.133 2.133c1.191 0 2.133-0.96 2.133-2.133s-0.942-2.133-2.133-2.133z"></path>
</svg>
