<!-- Generated by IcoMoon.io -->
<svg version="1.1" xmlns="http://www.w3.org/2000/svg" width="43" height="32" viewBox="0 0 43 32">
<title>umbraco</title>
<path d="M15.289 15.289l-2.542-0.391c-1.191 5.849-1.262 10.418 0.782 12.658 1.76 1.973 7.609 1.973 7.609 1.973s6.044 0 7.804-1.973c2.044-2.24 1.956-6.809 0.782-12.658l-2.542 0.391s2.222 9.387-1.067 10.827c-1.564 0.676-4.978 0.676-4.978 0.676s-3.218 0-4.782-0.676c-3.289-1.44-1.067-10.827-1.067-10.827M21.333 5.333c8.836 0 16 7.164 16 16s-7.164 16-16 16-16-7.164-16-16 7.164-16 16-16z"></path>
</svg>
