<!-- Generated by IcoMoon.io -->
<svg version="1.1" xmlns="http://www.w3.org/2000/svg" width="43" height="32" viewBox="0 0 43 32">
<title>ungroup</title>
<path d="M3.556 3.556h7.111v1.778h12.444v-1.778h7.111v7.111h-1.778v5.333h3.556v-1.778h7.111v7.111h-1.778v10.667h1.778v7.111h-7.111v-1.778h-10.667v1.778h-7.111v-7.111h1.778v-3.556h-5.333v1.778h-7.111v-7.111h1.778v-12.444h-1.778v-7.111M32 21.333v-1.778h-3.556v3.556h1.778v7.111h-7.111v-1.778h-3.556v3.556h1.778v1.778h10.667v-1.778h1.778v-10.667h-1.778M23.111 10.667v-1.778h-12.444v1.778h-1.778v12.444h1.778v1.778h5.333v-3.556h-1.778v-7.111h7.111v1.778h3.556v-5.333h-1.778M21.333 21.333h-1.778v3.556h3.556v-1.778h1.778v-3.556h-3.556v1.778z"></path>
</svg>
