<!-- Generated by IcoMoon.io -->
<svg version="1.1" xmlns="http://www.w3.org/2000/svg" width="32" height="32" viewBox="0 0 32 32">
<title>unpin</title>
<path d="M20.773 4.773c0.631-0.68 1.769-0.538 2.333 0.156 1.551 1.547 3.102 3.098 4.604 4.693 0.684 0.653 0.582 1.813-0.124 2.404-1.662 1.747-3.387 3.436-5.067 5.164-2.427-2.276-4.849-4.56-7.271-6.84 1.853-1.844 3.64-3.76 5.524-5.578z"></path>
<path d="M3.991 6.818c0.609-0.631 1.209-1.271 1.813-1.902 7.68 7.187 15.276 14.462 23.009 21.587-0.622 0.644-1.24 1.289-1.853 1.942-2.080-1.969-4.178-3.916-6.249-5.893-0.422 0.987-0.978 1.907-1.569 2.8-1.556-1.573-3.107-3.156-4.658-4.733-2.182 2.156-4.253 4.436-6.502 6.524-1.347 1.022-3.244-0.907-2.276-2.262 2.049-2.298 4.316-4.404 6.44-6.636-1.551-1.582-3.116-3.151-4.653-4.747 0.72-0.462 1.444-0.911 2.182-1.347-1.907-1.76-3.791-3.556-5.684-5.333z"></path>
</svg>
