<!-- Generated by IcoMoon.io -->
<svg version="1.1" xmlns="http://www.w3.org/2000/svg" width="43" height="32" viewBox="0 0 43 32">
<title>untappd</title>
<path d="M25.618 7.111s0.942 0.693 0.996 1.262c0 0.178-0.427 0.249-0.516 0.391-0.107 0.124 0.036 0.391-0.053 0.498-0.107 0.089-0.267 0.089-0.427 0.356-0.142 0.267-4.16 8.32-4.764 9.28-0.249 0.711-0.462 3.253-0.64 3.609-0.196 0.338-8.942 12.764-9.262 13.138-0.871 1.031-3.289 0.444-5.12-0.871-1.742-1.244-2.738-3.307-2.080-4.267 0.284-0.409 8.96-12.871 9.209-13.173 0.267-0.302 2.596-1.333 3.164-1.849 0.711-0.871 6.916-7.413 7.111-7.627s0.142-0.391 0.196-0.516c0.071-0.124 0.356-0.089 0.444-0.231 0.124-0.124-0.071-0.516 0.124-0.569 0.16-0.071 0.818-0.018 1.618 0.569M19.289 7.893l1.582 1.653-2.631 2.791-1.422-2.791c-0.142-0.267-0.32-0.267-0.427-0.356-0.089-0.107 0.036-0.356-0.053-0.498-0.107-0.142-0.516-0.107-0.516-0.284 0-0.196 0.267-0.8 1.067-1.369 0 0 0.996-0.64 1.547-0.498 0.178 0.053 0.107 0.48 0.231 0.569 0.071 0.178 0.356 0.142 0.409 0.267 0.071 0.107 0 0.302 0.213 0.516M38.969 30.489c0.658 1.173-0.693 3.289-2.524 4.533-1.778 1.227-4.071 1.493-4.747 0.533-0.302-0.391-9.173-12.764-9.369-13.12-0.196-0.338-0.427-2.88-0.676-3.609l-0.053-0.071c0.533-0.978 1.636-3.164 2.809-5.476 1.013 1.049 1.813 1.938 2.044 2.222 0.587 0.498 2.933 1.529 3.2 1.831 0.249 0.302 9.067 12.729 9.316 13.156z"></path>
</svg>
