<!-- Generated by IcoMoon.io -->
<svg version="1.1" xmlns="http://www.w3.org/2000/svg" width="43" height="32" viewBox="0 0 43 32">
<title>update</title>
<path d="M37.333 17.991h-12.053l4.871-5.013c-4.853-4.8-12.711-4.978-17.564-0.178-4.853 4.818-4.853 12.587 0 17.422 4.853 4.8 12.711 4.8 17.564 0 2.418-2.4 3.627-5.191 3.627-8.711h3.556c0 3.52-1.564 8.089-4.693 11.182-6.24 6.187-16.373 6.187-22.613 0-6.222-6.169-6.276-16.196-0.036-22.364s16.249-6.169 22.489 0l4.853-4.996v12.658M22.222 14.222v7.556l6.222 3.698-1.28 2.151-7.609-4.516v-8.889h2.667z"></path>
</svg>
