<!-- Generated by IcoMoon.io -->
<svg version="1.1" xmlns="http://www.w3.org/2000/svg" width="43" height="32" viewBox="0 0 43 32">
<title>usb</title>
<path d="M26.667 12.444v7.111h1.778v3.556h-5.333v-14.222h3.556l-5.333-7.111-5.333 7.111h3.556v14.222h-5.333v-3.68c1.244-0.658 2.133-1.92 2.133-3.431 0-2.169-1.76-3.911-3.911-3.911-2.169 0-3.911 1.742-3.911 3.911 0 1.511 0.889 2.773 2.133 3.431v3.68c0 1.956 1.6 3.556 3.556 3.556h5.333v5.422c-1.262 0.64-2.133 1.956-2.133 3.467 0 2.169 1.742 3.911 3.911 3.911s3.911-1.742 3.911-3.911c0-1.511-0.871-2.827-2.133-3.467v-5.422h5.333c1.956 0 3.556-1.6 3.556-3.556v-3.556h1.778v-7.111h-7.111z"></path>
</svg>
