<!-- Generated by IcoMoon.io -->
<svg version="1.1" xmlns="http://www.w3.org/2000/svg" width="43" height="32" viewBox="0 0 43 32">
<title>vector-circle</title>
<path d="M16 3.556v3.662c-4.053 1.529-7.253 4.729-8.8 8.782h-3.644v10.667h3.662c1.529 4.053 4.729 7.271 8.782 8.8v3.644h10.667v-3.662c4.053-1.529 7.271-4.729 8.8-8.782h3.644v-10.667h-3.662c-1.529-4.053-4.729-7.253-8.782-8.8v-3.644M19.556 7.111h3.556v3.556h-3.556M16 11.111v3.111h10.667v-3.111c2.098 1.084 3.804 2.791 4.889 4.889h-3.111v10.667h3.111c-1.084 2.098-2.791 3.804-4.889 4.889v-3.111h-10.667v3.111c-2.098-1.084-3.804-2.791-4.889-4.889h3.111v-10.667h-3.111c1.084-2.098 2.791-3.804 4.889-4.889M7.111 19.556h3.556v3.556h-3.556M32 19.556h3.556v3.556h-3.556M19.556 32h3.556v3.556h-3.556"></path>
</svg>
