<!-- Generated by IcoMoon.io -->
<svg version="1.1" xmlns="http://www.w3.org/2000/svg" width="43" height="32" viewBox="0 0 43 32">
<title>vector-arrange-below</title>
<path d="M35.556 39.111c1.973 0 3.556-1.582 3.556-3.556v-19.556c0-1.973-1.582-3.556-3.556-3.556h-19.556c-1.973 0-3.556 1.582-3.556 3.556v19.556c0 1.973 1.582 3.556 3.556 3.556h19.556M35.556 35.556h-19.556v-19.556h19.556v19.556M8.889 28.444v-3.556h-3.556v-19.556h19.556v3.556h3.556v-3.556c0-1.973-1.582-3.556-3.556-3.556h-19.556c-1.973 0-3.556 1.582-3.556 3.556v19.556c0 1.973 1.582 3.556 3.556 3.556h3.556z"></path>
</svg>
