<!-- Generated by IcoMoon.io -->
<svg version="1.1" xmlns="http://www.w3.org/2000/svg" width="43" height="32" viewBox="0 0 43 32">
<title>vector-difference-ab</title>
<path d="M5.333 1.778c-1.973 0-3.556 1.582-3.556 3.556v3.556h3.556v-3.556h3.556v-3.556h-3.556M12.444 1.778v3.556h5.333v-3.556h-5.333M21.333 1.778v3.556h3.556v3.556h3.556v-3.556c0-1.973-1.582-3.556-3.556-3.556h-3.556M1.778 12.444v5.333h3.556v-5.333h-3.556M24.889 12.444v12.444h-12.444v10.667c0 1.973 1.582 3.556 3.556 3.556h19.556c1.973 0 3.556-1.582 3.556-3.556v-19.556c0-1.973-1.582-3.556-3.556-3.556h-10.667M28.444 16h7.111v19.556h-19.556v-7.111h8.889c1.973 0 3.556-1.582 3.556-3.556v-8.889M1.778 21.333v3.556c0 1.973 1.582 3.556 3.556 3.556h3.556v-3.556h-3.556v-3.556h-3.556z"></path>
</svg>
