<!-- Generated by IcoMoon.io -->
<svg version="1.1" xmlns="http://www.w3.org/2000/svg" width="43" height="32" viewBox="0 0 43 32">
<title>vector-curve</title>
<path d="M32.889 3.556c1.476 0 2.667 1.191 2.667 2.667s-1.191 2.667-2.667 2.667c-0.409 0-0.8-0.089-1.156-0.267l-6.56 6.578 0.604 0.8c3.893-2.24 8.462-3.556 13.333-3.556l1.778 0.053v3.573l-1.778-0.071c-4.587 0-8.889 1.333-12.444 3.627 0 3.893-3.147 7.040-7.040 7.040-2.293 3.556-3.627 7.858-3.627 12.444l0.071 1.778h-3.573l-0.053-1.778c0-4.871 1.316-9.44 3.556-13.333l-0.8-0.604-6.578 6.56c0.178 0.356 0.267 0.747 0.267 1.156 0 1.476-1.191 2.667-2.667 2.667s-2.667-1.191-2.667-2.667 1.191-2.667 2.667-2.667c0.409 0 0.8 0.089 1.156 0.267l6.56-6.578c-0.942-1.191-1.493-2.72-1.493-4.356 0-3.929 3.182-7.111 7.111-7.111 1.636 0 3.164 0.551 4.356 1.493l6.578-6.56c-0.178-0.356-0.267-0.747-0.267-1.156 0-1.476 1.191-2.667 2.667-2.667M19.556 16c-1.956 0-3.556 1.6-3.556 3.556s1.6 3.556 3.556 3.556 3.556-1.6 3.556-3.556-1.6-3.556-3.556-3.556z"></path>
</svg>
