<!-- Generated by IcoMoon.io -->
<svg version="1.1" xmlns="http://www.w3.org/2000/svg" width="43" height="32" viewBox="0 0 43 32">
<title>vector-combine</title>
<path d="M5.333 1.778c-1.973 0-3.556 1.582-3.556 3.556v19.556c0 1.973 1.582 3.556 3.556 3.556h7.111v7.111c0 1.973 1.582 3.556 3.556 3.556h19.556c1.973 0 3.556-1.582 3.556-3.556v-19.556c0-1.973-1.582-3.556-3.556-3.556h-7.111v-7.111c0-1.973-1.582-3.556-3.556-3.556h-19.556M5.333 5.333h19.556v7.111h-8.889c-1.973 0-3.556 1.582-3.556 3.556v8.889h-7.111v-19.556M16 16h8.889v8.889h-8.889v-8.889M28.444 16h7.111v19.556h-19.556v-7.111h8.889c1.973 0 3.556-1.582 3.556-3.556v-8.889z"></path>
</svg>
