<!-- Generated by IcoMoon.io -->
<svg version="1.1" xmlns="http://www.w3.org/2000/svg" width="43" height="32" viewBox="0 0 43 32">
<title>vector-difference</title>
<path d="M5.333 1.778c-1.973 0-3.556 1.582-3.556 3.556v19.556c0 1.973 1.582 3.556 3.556 3.556h3.556v-3.556h-3.556v-19.556h19.556v3.556h3.556v-3.556c0-1.973-1.582-3.556-3.556-3.556h-19.556M16 12.444c-1.973 0-3.556 1.582-3.556 3.556v3.556h3.556v-3.556h3.556v-3.556h-3.556M23.111 12.444v3.556h1.778v1.778h3.556v-5.333h-5.333M32 12.444v3.556h3.556v19.556h-19.556v-3.556h-3.556v3.556c0 1.973 1.582 3.556 3.556 3.556h19.556c1.973 0 3.556-1.582 3.556-3.556v-19.556c0-1.973-1.582-3.556-3.556-3.556h-3.556M24.889 21.333v3.556h-3.556v3.556h3.556c1.973 0 3.556-1.582 3.556-3.556v-3.556h-3.556M12.444 23.111v5.333h5.333v-3.556h-1.778v-1.778h-3.556z"></path>
</svg>
