<!-- Generated by IcoMoon.io -->
<svg version="1.1" xmlns="http://www.w3.org/2000/svg" width="43" height="32" viewBox="0 0 43 32">
<title>vector-circle-variant</title>
<path d="M39.111 16h-3.609c-2.258-6.382-8.284-10.667-15.058-10.667-8.836 0-16 7.164-16 16 0 8.889 7.164 16 16 16 6.773 0 12.8-4.267 15.111-10.667h3.556M35.556 19.556v3.556h-3.556v-3.556M31.68 26.667c-2.062 4.338-6.436 7.111-11.236 7.111-6.862 0-12.444-5.564-12.444-12.444 0-6.862 5.582-12.444 12.444-12.444 4.8 0 9.173 2.791 11.218 7.111h-3.218v10.667"></path>
</svg>
