<!-- Generated by IcoMoon.io -->
<svg version="1.1" xmlns="http://www.w3.org/2000/svg" width="43" height="32" viewBox="0 0 43 32">
<title>vector-selection</title>
<path d="M5.333 1.778h3.556v3.556h-3.556v3.556h-3.556v-3.556c0-1.956 1.6-3.556 3.556-3.556M24.889 1.778c1.956 0 3.556 1.6 3.556 3.556v3.556h-3.556v-3.556h-3.556v-3.556h3.556M35.556 12.444c1.956 0 3.556 1.6 3.556 3.556v3.556h-3.556v-3.556h-3.556v-3.556h3.556M39.111 35.556c0 1.956-1.6 3.556-3.556 3.556h-3.556v-3.556h3.556v-3.556h3.556v3.556M35.556 23.111h3.556v5.333h-3.556v-5.333M23.111 16v-3.556h5.333v5.333h-3.556v-1.778h-1.778M23.111 39.111v-3.556h5.333v3.556h-5.333M16 39.111c-1.956 0-3.556-1.6-3.556-3.556v-3.556h3.556v3.556h3.556v3.556h-3.556M12.444 28.444v-5.333h3.556v1.778h1.778v3.556h-5.333M12.444 5.333v-3.556h5.333v3.556h-5.333M5.333 28.444c-1.956 0-3.556-1.6-3.556-3.556v-3.556h3.556v3.556h3.556v3.556h-3.556M1.778 12.444h3.556v5.333h-3.556v-5.333M16 12.444h3.556v3.556h-3.556v3.556h-3.556v-3.556c0-1.956 1.6-3.556 3.556-3.556M28.444 24.889c0 1.956-1.6 3.556-3.556 3.556h-3.556v-3.556h3.556v-3.556h3.556v3.556z"></path>
</svg>
