<!-- Generated by IcoMoon.io -->
<svg version="1.1" xmlns="http://www.w3.org/2000/svg" width="43" height="32" viewBox="0 0 43 32">
<title>vector-square</title>
<path d="M3.556 3.556h10.667v3.556h14.222v-3.556h10.667v10.667h-3.556v14.222h3.556v10.667h-10.667v-3.556h-14.222v3.556h-10.667v-10.667h3.556v-14.222h-3.556v-10.667M28.444 14.222v-3.556h-14.222v3.556h-3.556v14.222h3.556v3.556h14.222v-3.556h3.556v-14.222h-3.556M7.111 7.111v3.556h3.556v-3.556h-3.556M32 7.111v3.556h3.556v-3.556h-3.556M7.111 32v3.556h3.556v-3.556h-3.556M32 32v3.556h3.556v-3.556h-3.556z"></path>
</svg>
