<!-- Generated by IcoMoon.io -->
<svg version="1.1" xmlns="http://www.w3.org/2000/svg" width="43" height="32" viewBox="0 0 43 32">
<title>vector-difference-ba</title>
<path d="M35.556 39.111c1.973 0 3.556-1.582 3.556-3.556v-3.556h-3.556v3.556h-3.556v3.556h3.556M28.444 39.111v-3.556h-5.333v3.556h5.333M19.556 39.111v-3.556h-3.556v-3.556h-3.556v3.556c0 1.973 1.582 3.556 3.556 3.556h3.556M39.111 28.444v-5.333h-3.556v5.333h3.556M16 28.444v-12.444h12.444v-10.667c0-1.973-1.582-3.556-3.556-3.556h-19.556c-1.973 0-3.556 1.582-3.556 3.556v19.556c0 1.973 1.582 3.556 3.556 3.556h10.667M12.444 24.889h-7.111v-19.556h19.556v7.111h-8.889c-1.973 0-3.556 1.582-3.556 3.556v8.889M39.111 19.556v-3.556c0-1.973-1.582-3.556-3.556-3.556h-3.556v3.556h3.556v3.556h3.556z"></path>
</svg>
