<!-- Generated by IcoMoon.io -->
<svg version="1.1" xmlns="http://www.w3.org/2000/svg" width="43" height="32" viewBox="0 0 43 32">
<title>vector-polygon</title>
<path d="M3.556 3.556v10.667h4.053l2.293 14.222h-2.791v10.667h10.667v-3.449l8.889-0.018v3.467h10.667v-10.667h-3.253l1.476-12.444h3.556v-10.667h-10.667v6.276l-2.133 2.613h-9.262l-2.827-3.876v-6.791M7.111 7.111h3.556v3.556h-3.556M32 8.889h3.556v3.556h-3.556M11.218 14.222h1.422l3.36 4.604v6.062h10.667v-5.493l2.791-3.396h2.542l-1.493 12.444h-3.84v3.662h-8.889v-3.662h-4.267M19.556 17.778h3.556v3.556h-3.556M10.667 32h3.556v3.556h-3.556M30.222 32h3.556v3.556h-3.556"></path>
</svg>
