<!-- Generated by IcoMoon.io -->
<svg version="1.1" xmlns="http://www.w3.org/2000/svg" width="43" height="32" viewBox="0 0 43 32">
<title>vector-intersection</title>
<path d="M5.582 1.778c-2.098 0-3.804 1.707-3.804 3.804v3.307h3.556v-3.556h3.556v-3.556h-3.307M12.444 1.778v3.556h5.333v-3.556h-5.333M21.333 1.778v3.556h3.556v3.556h3.556v-3.307c0-2.098-1.707-3.804-3.804-3.804h-3.307M1.778 12.444v5.333h3.556v-5.333h-3.556M16 12.444c-1.973 0-3.556 1.582-3.556 3.556v12.444h12.196c2.098 0 3.804-1.707 3.804-3.804v-12.196h-12.444M32 12.444v3.556h3.556v3.556h3.556v-3.556c0-1.973-1.582-3.556-3.556-3.556h-3.556M16 16h8.889v8.889h-8.889v-8.889M1.778 21.333v3.307c0 2.098 1.707 3.804 3.804 3.804h3.307v-3.556h-3.556v-3.556h-3.556M35.556 23.111v5.333h3.556v-5.333h-3.556M12.444 32v3.556c0 1.973 1.582 3.556 3.556 3.556h3.556v-3.556h-3.556v-3.556h-3.556M35.556 32v3.556h-3.556v3.556h3.556c1.973 0 3.556-1.582 3.556-3.556v-3.556h-3.556M23.111 35.556v3.556h5.333v-3.556h-5.333z"></path>
</svg>
