<!-- Generated by IcoMoon.io -->
<svg version="1.1" xmlns="http://www.w3.org/2000/svg" width="43" height="32" viewBox="0 0 43 32">
<title>view-agenda</title>
<path d="M35.556 5.333h-30.222c-0.978 0-1.778 0.8-1.778 1.778v10.667c0 0.978 0.8 1.778 1.778 1.778h30.222c0.978 0 1.778-0.8 1.778-1.778v-10.667c0-0.978-0.8-1.778-1.778-1.778M35.556 23.111h-30.222c-0.978 0-1.778 0.8-1.778 1.778v10.667c0 0.978 0.8 1.778 1.778 1.778h30.222c0.978 0 1.778-0.8 1.778-1.778v-10.667c0-0.978-0.8-1.778-1.778-1.778z"></path>
</svg>
