<!-- Generated by IcoMoon.io -->
<svg version="1.1" xmlns="http://www.w3.org/2000/svg" width="43" height="32" viewBox="0 0 43 32">
<title>view-week</title>
<path d="M23.111 8.889h-5.333c-0.978 0-1.778 0.8-1.778 1.778v21.333c0 0.978 0.8 1.778 1.778 1.778h5.333c0.978 0 1.778-0.8 1.778-1.778v-21.333c0-0.978-0.8-1.778-1.778-1.778M35.556 8.889h-5.333c-0.978 0-1.778 0.8-1.778 1.778v21.333c0 0.978 0.8 1.778 1.778 1.778h5.333c0.978 0 1.778-0.8 1.778-1.778v-21.333c0-0.978-0.8-1.778-1.778-1.778M10.667 8.889h-5.333c-0.978 0-1.778 0.8-1.778 1.778v21.333c0 0.978 0.8 1.778 1.778 1.778h5.333c0.978 0 1.778-0.8 1.778-1.778v-21.333c0-0.978-0.8-1.778-1.778-1.778z"></path>
</svg>
