<!-- Generated by IcoMoon.io -->
<svg version="1.1" xmlns="http://www.w3.org/2000/svg" width="43" height="32" viewBox="0 0 43 32">
<title>vimeo</title>
<path d="M39.111 13.191c-0.16 3.467-2.578 8.213-7.253 14.258-4.836 6.329-8.924 9.44-12.302 9.44-2.044 0-3.804-1.92-5.244-5.778-0.978-3.484-1.867-7.004-2.862-10.524-1.067-3.84-2.204-5.76-3.449-5.76-0.249 0-1.173 0.569-2.773 1.689l-1.671-2.169c1.778-1.547 3.484-3.093 5.191-4.64 2.347-2.027 4.107-3.093 5.262-3.2 2.773-0.284 4.48 1.636 5.12 5.689 0.693 4.391 1.173 7.111 1.44 8.178 0.764 3.627 1.653 5.404 2.631 5.404 0.747 0 1.867-1.138 3.36-3.502 1.493-2.347 2.293-4.142 2.4-5.387 0.213-2.027-0.587-3.040-2.4-3.040-0.853 0-1.724 0.196-2.631 0.587 1.742-5.742 5.084-8.533 10.009-8.373 3.662 0.107 5.387 2.489 5.173 7.129z"></path>
</svg>
