<!-- Generated by IcoMoon.io -->
<svg version="1.1" xmlns="http://www.w3.org/2000/svg" width="43" height="32" viewBox="0 0 43 32">
<title>vine</title>
<path d="M35.36 21.244c-0.818 0.196-1.582 0.267-2.347 0.267-4.036 0-7.147-2.844-7.147-7.716 0-2.4 0.942-3.662 2.258-3.662 1.209 0 2.098 1.12 2.098 3.396 0 1.298-0.373 2.72-0.622 3.556 0 0 1.244 2.169 4.64 1.511 0.729-1.6 1.12-3.68 1.12-5.511 0-4.907-2.471-7.751-7.076-7.751-4.711 0-7.467 3.627-7.467 8.391 0 4.729 2.204 8.8 5.849 10.649-1.529 3.058-3.484 5.76-5.511 7.804-3.698-4.462-7.040-10.418-8.409-22.044h-5.44c2.524 19.36 10.009 25.511 12 26.702 1.138 0.676 2.080 0.64 3.111 0.053 1.582-0.907 6.436-5.778 9.12-11.396 1.12-0.018 2.471-0.142 3.822-0.444v-3.804z"></path>
</svg>
