<!-- Generated by IcoMoon.io -->
<svg version="1.1" xmlns="http://www.w3.org/2000/svg" width="43" height="32" viewBox="0 0 43 32">
<title>violin</title>
<path d="M19.556 3.556c-0.978 0-1.778 0.8-1.778 1.778v10.667c0 0.498 0.391 0.889 0.889 0.889h2.667c0.498 0 0.889 0.391 0.889 0.889s-0.391 0.889-0.889 0.889h-2.667c-1.369 0-2.667-1.298-2.667-2.667v-6.827c-3.076 0.782-5.333 3.502-5.333 6.827v2.667c2.453 0 4.444 1.991 4.444 4.444s-1.991 4.444-4.444 4.444v2.667c0 4.924 3.964 8.889 8.889 8.889h3.556c4.924 0 8.889-3.964 8.889-8.889v-2.667c-2.453 0-4.444-1.991-4.444-4.444s1.991-4.444 4.444-4.444v-2.667c0-3.947-3.164-7.111-7.111-7.111v-3.556c0-0.978-0.8-1.778-1.778-1.778h-3.556M19.111 29.333h4.444l-0.889 6.222h-2.667l-0.889-6.222z"></path>
</svg>
