<!-- Generated by IcoMoon.io -->
<svg version="1.1" xmlns="http://www.w3.org/2000/svg" width="43" height="32" viewBox="0 0 43 32">
<title>vk-box</title>
<path d="M8.889 5.333h24.889c1.956 0 3.556 1.6 3.556 3.556v24.889c0 1.956-1.6 3.556-3.556 3.556h-24.889c-1.956 0-3.556-1.6-3.556-3.556v-24.889c0-1.956 1.6-3.556 3.556-3.556M30.649 24.942c-2.098-1.938-1.813-1.636 0.711-4.996 1.529-2.044 2.151-3.289 1.956-3.822-0.196-0.498-1.316-0.373-1.316-0.373l-3.751 0.036s-0.284-0.053-0.48 0.071c-0.213 0.142-0.338 0.409-0.338 0.409s-0.604 1.582-1.387 2.933c-1.671 2.827-2.347 2.969-2.613 2.809-0.622-0.409-0.48-1.653-0.48-2.542 0-2.738 0.427-3.893-0.8-4.178-0.409-0.107-0.711-0.178-1.76-0.178-1.333 0-2.471 0-3.111 0.32-0.391 0.213-0.764 0.676-0.551 0.693 0.249 0.036 0.8 0.16 1.102 0.569 0.391 0.516 0.373 1.689 0.373 1.689s0.213 3.236-0.516 3.644c-0.516 0.267-1.209-0.302-2.684-2.862-0.782-1.316-1.351-2.773-1.351-2.773l-0.32-0.391-0.551-0.267h-3.573s-0.533 0-0.729 0.267c-0.178 0.178-0.018 0.569-0.018 0.569s2.791 6.471 5.956 9.742c2.898 3.022 6.187 2.684 6.187 2.684h1.493s0.444 0.089 0.676-0.142c0.213-0.231 0.213-0.516 0.213-0.516s-0.036-2.009 0.889-2.293c0.924-0.267 2.098 1.92 3.342 2.791 0.942 0.64 1.653 0.498 1.653 0.498l3.342-0.053s1.742-0.107 0.907-1.476c-0.053-0.107-0.48-1.013-2.471-2.862z"></path>
</svg>
