<!-- Generated by IcoMoon.io -->
<svg version="1.1" xmlns="http://www.w3.org/2000/svg" width="43" height="32" viewBox="0 0 43 32">
<title>vk</title>
<path d="M34.738 25.956c2.756 2.56 3.324 3.787 3.413 3.947 1.138 1.884-1.244 2.027-1.244 2.027l-4.587 0.071s-0.996 0.196-2.276-0.693c-1.724-1.173-3.378-4.249-4.604-3.84-1.262 0.409-1.227 3.164-1.227 3.164s0 0.391-0.284 0.693c-0.32 0.338-0.942 0.213-0.942 0.213h-2.044s-4.533 0.462-8.498-3.68c-4.356-4.516-8.196-13.404-8.196-13.404s-0.213-0.533 0.018-0.836c0.267-0.284 1.013-0.284 1.013-0.284h4.907s0.48 0 0.782 0.284c0.267 0.196 0.427 0.604 0.427 0.604s0.782 1.973 1.849 3.787c2.044 3.538 2.987 4.302 3.644 3.929 1.067-0.551 0.764-4.996 0.764-4.996s0.018-1.618-0.516-2.329c-0.409-0.551-1.191-0.729-1.529-0.764-0.284-0.036 0.178-0.676 0.764-0.978 0.889-0.427 2.436-0.427 4.284-0.427 1.44 0 1.849 0.107 2.4 0.231 1.707 0.409 1.12 1.991 1.12 5.76 0 1.227-0.178 2.898 0.658 3.484 0.373 0.249 1.298 0.036 3.609-3.858 1.067-1.849 1.884-4.036 1.884-4.036s0.178-0.373 0.444-0.551c0.284-0.142 0.676-0.142 0.676-0.142h5.156s1.564-0.178 1.813 0.516c0.267 0.729-0.587 2.453-2.702 5.244-3.449 4.622-3.84 4.196-0.978 6.862z"></path>
</svg>
