<!-- Generated by IcoMoon.io -->
<svg version="1.1" xmlns="http://www.w3.org/2000/svg" width="43" height="32" viewBox="0 0 43 32">
<title>vlc</title>
<path d="M21.333 1.778c-0.747 0-1.44 0.409-1.778 1.333l-1.991 5.564c0.853 0.924 2.489 1.102 3.769 1.102s2.916-0.178 3.787-1.102l-2.009-5.564c-0.32-0.889-1.031-1.333-1.778-1.333M15.004 15.84l-2.56 7.111c1.902 2.418 5.796 2.827 8.889 2.827s6.987-0.409 8.889-2.827l-2.56-7.111c-1.422 1.636-4.124 1.938-6.329 1.938s-4.907-0.302-6.329-1.938M9.671 26.667c-1.458 0-2.987 1.156-3.396 2.56l-2.613 9.102c-0.391 1.404 0.427 2.56 1.902 2.56h31.556c1.458 0 2.276-1.156 1.884-2.56l-2.613-9.102c-0.409-1.404-1.938-2.56-3.396-2.56h-1.44l0.604 1.724c0.213 0.569 0.356 1.28 0 1.778-2.222 3.076-7.022 3.609-10.827 3.609s-8.604-0.533-10.827-3.609c-0.356-0.498-0.213-1.209 0-1.778l0.604-1.724h-1.44z"></path>
</svg>
