<!-- Generated by IcoMoon.io -->
<svg version="1.1" xmlns="http://www.w3.org/2000/svg" width="43" height="32" viewBox="0 0 43 32">
<title>voice</title>
<path d="M16 8.889c3.929 0 7.111 3.182 7.111 7.111s-3.182 7.111-7.111 7.111-7.111-3.182-7.111-7.111 3.182-7.111 7.111-7.111M16 26.667c4.747 0 14.222 2.382 14.222 7.111v3.556h-28.444v-3.556c0-4.729 9.476-7.111 14.222-7.111M29.796 9.529c3.591 3.911 3.591 9.333 0 12.924l-2.987-3.004c1.493-2.098 1.493-4.818 0-6.916l2.987-3.004M35.68 3.556c6.987 7.2 6.933 17.973 0 24.889l-2.898-2.898c4.924-5.653 4.924-13.724 0-19.093l2.898-2.898z"></path>
</svg>
