<!-- Generated by IcoMoon.io -->
<svg version="1.1" xmlns="http://www.w3.org/2000/svg" width="43" height="32" viewBox="0 0 43 32">
<title>voicemail</title>
<path d="M32.889 26.667c-3.431 0-6.222-2.791-6.222-6.222s2.791-6.222 6.222-6.222 6.222 2.791 6.222 6.222-2.791 6.222-6.222 6.222M9.778 26.667c-3.431 0-6.222-2.791-6.222-6.222s2.791-6.222 6.222-6.222 6.222 2.791 6.222 6.222-2.791 6.222-6.222 6.222M32.889 10.667c-5.404 0-9.778 4.373-9.778 9.778 0 2.364 0.836 4.533 2.24 6.222h-8.036c1.404-1.689 2.24-3.858 2.24-6.222 0-5.404-4.373-9.778-9.778-9.778s-9.778 4.373-9.778 9.778 4.373 9.778 9.778 9.778h23.111c5.404 0 9.778-4.373 9.778-9.778s-4.373-9.778-9.778-9.778z"></path>
</svg>
