<!-- Generated by IcoMoon.io -->
<svg version="1.1" xmlns="http://www.w3.org/2000/svg" width="43" height="32" viewBox="0 0 43 32">
<title>volume-off</title>
<path d="M21.333 7.111l-3.716 3.716 3.716 3.716M7.591 5.333l-2.258 2.258 8.409 8.409h-8.409v10.667h7.111l8.889 8.889v-11.964l7.556 7.573c-1.191 0.907-2.524 1.653-4 2.080v3.68c2.453-0.569 4.676-1.689 6.542-3.218l3.644 3.627 2.258-2.258-16-16M33.778 21.333c0 1.671-0.356 3.236-0.96 4.693l2.684 2.684c1.156-2.204 1.831-4.711 1.831-7.378 0-7.609-5.333-13.973-12.444-15.591v3.662c5.138 1.529 8.889 6.293 8.889 11.929M29.333 21.333c0-3.147-1.778-5.849-4.444-7.164v3.929l4.356 4.356c0.089-0.356 0.089-0.747 0.089-1.12z"></path>
</svg>
