<!-- Generated by IcoMoon.io -->
<svg version="1.1" xmlns="http://www.w3.org/2000/svg" width="43" height="32" viewBox="0 0 43 32">
<title>walk</title>
<path d="M25.102 17.778h8.676v-3.2h-6.436l-3.556-5.92c-0.533-0.889-1.493-1.493-2.596-1.493-0.32 0-0.604 0.053-0.889 0.142l-9.636 3.004v9.244h3.2v-6.524l3.751-1.173-6.951 27.253h3.2l5.102-14.418 4.142 5.529v8.889h3.2v-11.396l-4.427-8.071 1.298-5.102M24.889 6.756c1.778 0 3.2-1.422 3.2-3.2s-1.422-3.2-3.2-3.2-3.2 1.422-3.2 3.2 1.422 3.2 3.2 3.2z"></path>
</svg>
