<!-- Generated by IcoMoon.io -->
<svg version="1.1" xmlns="http://www.w3.org/2000/svg" width="43" height="32" viewBox="0 0 43 32">
<title>wallet</title>
<path d="M37.333 32v1.778c0 1.956-1.6 3.556-3.556 3.556h-24.889c-1.973 0-3.556-1.6-3.556-3.556v-24.889c0-1.956 1.6-3.556 3.556-3.556h24.889c1.956 0 3.556 1.6 3.556 3.556v1.778h-16c-1.973 0-3.556 1.6-3.556 3.556v14.222c0 1.956 1.6 3.556 3.556 3.556M21.333 28.444h17.778v-14.222h-17.778M28.444 24c-1.476 0-2.667-1.191-2.667-2.667s1.191-2.667 2.667-2.667 2.667 1.191 2.667 2.667-1.191 2.667-2.667 2.667z"></path>
</svg>
