<!-- Generated by IcoMoon.io -->
<svg version="1.1" xmlns="http://www.w3.org/2000/svg" width="43" height="32" viewBox="0 0 43 32">
<title>wallet-giftcard</title>
<path d="M35.556 24.889h-28.444v-10.667h9.031l-3.698 5.031 2.88 2.080 6.009-8.178 6.009 8.178 2.88-2.080-3.698-5.031h9.031M35.556 33.778h-28.444v-3.556h28.444M16 7.111c0.978 0 1.778 0.8 1.778 1.778s-0.8 1.778-1.778 1.778-1.778-0.8-1.778-1.778 0.8-1.778 1.778-1.778M26.667 7.111c0.978 0 1.778 0.8 1.778 1.778s-0.8 1.778-1.778 1.778-1.778-0.8-1.778-1.778 0.8-1.778 1.778-1.778M35.556 10.667h-3.876c0.196-0.551 0.32-1.156 0.32-1.778 0-2.951-2.382-5.333-5.333-5.333-1.867 0-3.484 0.96-4.444 2.4l-0.889 1.156-0.889-1.173c-0.96-1.422-2.578-2.382-4.444-2.382-2.951 0-5.333 2.382-5.333 5.333 0 0.622 0.124 1.227 0.32 1.778h-3.876c-1.973 0-3.556 1.582-3.556 3.556v19.556c0 1.973 1.582 3.556 3.556 3.556h28.444c1.973 0 3.556-1.582 3.556-3.556v-19.556c0-1.973-1.582-3.556-3.556-3.556z"></path>
</svg>
