<!-- Generated by IcoMoon.io -->
<svg version="1.1" xmlns="http://www.w3.org/2000/svg" width="43" height="32" viewBox="0 0 43 32">
<title>wallet-travel</title>
<path d="M35.556 24.889h-28.444v-10.667h5.333v3.556h3.556v-3.556h10.667v3.556h3.556v-3.556h5.333M35.556 33.778h-28.444v-3.556h28.444M16 7.111h10.667v3.556h-10.667M35.556 10.667h-5.333v-3.556c0-1.973-1.582-3.556-3.556-3.556h-10.667c-1.973 0-3.556 1.582-3.556 3.556v3.556h-5.333c-1.973 0-3.556 1.582-3.556 3.556v19.556c0 1.973 1.582 3.556 3.556 3.556h28.444c1.973 0 3.556-1.582 3.556-3.556v-19.556c0-1.973-1.582-3.556-3.556-3.556z"></path>
</svg>
