<!-- Generated by IcoMoon.io -->
<svg version="1.1" xmlns="http://www.w3.org/2000/svg" width="43" height="32" viewBox="0 0 43 32">
<title>wan</title>
<path d="M21.333 3.556c-7.858 0-14.222 6.364-14.222 14.222 0 7.164 5.333 13.191 12.444 14.098v1.902h-1.778c-0.978 0-1.778 0.8-1.778 1.778h-12.444v3.556h12.444c0 0.978 0.8 1.778 1.778 1.778h7.111c0.978 0 1.778-0.8 1.778-1.778h12.444v-3.556h-12.444c0-0.978-0.8-1.778-1.778-1.778h-1.778v-1.902c7.111-0.889 12.444-6.933 12.444-14.098 0-7.858-6.364-14.222-14.222-14.222M21.333 7.111s1.316 2.276 2.24 5.333h-4.48c0.924-3.058 2.24-5.333 2.24-5.333M17.369 7.876c-0.48 0.889-1.209 2.507-1.831 4.569h-3.431c1.227-2.062 3.004-3.68 5.262-4.569M25.298 7.893c2.258 0.889 4.036 2.489 5.262 4.551h-3.431c-0.622-2.062-1.351-3.68-1.831-4.551M10.827 16h3.964c-0.071 0.587-0.124 1.173-0.124 1.778s0.053 1.191 0.124 1.778h-3.964c-0.107-0.587-0.16-1.173-0.16-1.778s0.053-1.191 0.16-1.778M18.347 16h5.973c0.071 0.587 0.124 1.173 0.124 1.778s-0.053 1.191-0.124 1.778h-5.973c-0.071-0.587-0.124-1.173-0.124-1.778s0.053-1.191 0.124-1.778M27.876 16h3.964c0.107 0.587 0.16 1.173 0.16 1.778s-0.053 1.191-0.16 1.778h-3.964c0.071-0.587 0.124-1.173 0.124-1.778s-0.053-1.191-0.124-1.778M12.107 23.111h3.431c0.622 2.062 1.351 3.68 1.831 4.551-2.258-0.889-4.036-2.489-5.262-4.551M19.093 23.111h4.48c-0.924 3.058-2.24 5.333-2.24 5.333s-1.316-2.276-2.24-5.333M27.129 23.111h3.431c-1.227 2.062-3.004 3.68-5.262 4.569 0.48-0.889 1.209-2.507 1.831-4.569z"></path>
</svg>
