<!-- Generated by IcoMoon.io -->
<svg version="1.1" xmlns="http://www.w3.org/2000/svg" width="43" height="32" viewBox="0 0 43 32">
<title>washing-machine</title>
<path d="M26.364 19.858c2.773 2.773 2.773 7.289 0 10.062s-7.289 2.773-10.062 0l10.062-10.062M10.667 3.556h21.333c1.956 0 3.556 1.6 3.556 3.556v28.444c0 1.956-1.6 3.556-3.556 3.556h-21.333c-1.956 0-3.556-1.6-3.556-3.556v-28.444c0-1.956 1.6-3.556 3.556-3.556M12.444 7.111c-0.978 0-1.778 0.8-1.778 1.778s0.8 1.778 1.778 1.778 1.778-0.8 1.778-1.778-0.8-1.778-1.778-1.778M17.778 7.111c-0.978 0-1.778 0.8-1.778 1.778s0.8 1.778 1.778 1.778 1.778-0.8 1.778-1.778-0.8-1.778-1.778-1.778M21.333 14.222c-5.884 0-10.667 4.782-10.667 10.667s4.782 10.667 10.667 10.667 10.667-4.782 10.667-10.667-4.782-10.667-10.667-10.667z"></path>
</svg>
