<!-- Generated by IcoMoon.io -->
<svg version="1.1" xmlns="http://www.w3.org/2000/svg" width="43" height="32" viewBox="0 0 43 32">
<title>watch-vibrate</title>
<path d="M5.333 30.222v-17.778h3.556v17.778h-3.556M33.778 30.222v-17.778h3.556v17.778h-3.556M39.111 16h3.556v10.667h-3.556v-10.667M0 26.667v-10.667h3.556v10.667h-3.556M31.929 21.28c0 3.378-1.582 6.4-4.053 8.356l-1.262 7.609h-10.613l-1.298-7.609c-2.471-1.956-4.036-4.978-4.036-8.356s1.564-6.4 4.036-8.338l1.298-7.609h10.613l1.262 7.609c2.471 1.938 4.053 4.96 4.053 8.338M13.333 21.28c0 4.409 3.556 7.982 7.947 7.982 4.427 0 7.982-3.556 7.982-7.982 0-4.391-3.573-7.947-7.982-7.947-4.391 0-7.947 3.556-7.947 7.947z"></path>
</svg>
