<!-- Generated by IcoMoon.io -->
<svg version="1.1" xmlns="http://www.w3.org/2000/svg" width="43" height="32" viewBox="0 0 43 32">
<title>watch-export</title>
<path d="M24.889 19.556h8.889l-4.444-4.444 2.524-2.524 8.747 8.747-8.747 8.747-2.524-2.524 4.444-4.444h-8.889v-3.556M21.333 32c-5.884 0-10.667-4.782-10.667-10.667s4.782-10.667 10.667-10.667c2.489 0 4.782 0.889 6.596 2.293l2.524-2.524-0.32-0.249-1.689-10.187h-14.222l-1.689 10.187c-3.307 2.596-5.422 6.631-5.422 11.147 0 4.533 2.116 8.551 5.422 11.147l1.689 10.187h14.222l1.689-10.187 0.32-0.249-2.524-2.524c-1.813 1.404-4.107 2.293-6.596 2.293z"></path>
</svg>
