<!-- Generated by IcoMoon.io -->
<svg version="1.1" xmlns="http://www.w3.org/2000/svg" width="43" height="32" viewBox="0 0 43 32">
<title>water-percent</title>
<path d="M21.333 5.778s-10.667 12-10.667 19.111c0 5.902 4.782 10.667 10.667 10.667s10.667-4.782 10.667-10.667c0-7.111-10.667-19.111-10.667-19.111M25.724 17.724l1.884 1.884-10.667 10.667-1.884-1.884M17.333 17.778c1.227 0 2.222 0.996 2.222 2.222s-0.996 2.222-2.222 2.222-2.222-0.996-2.222-2.222 0.996-2.222 2.222-2.222M25.333 25.778c1.227 0 2.222 0.996 2.222 2.222s-0.996 2.222-2.222 2.222-2.222-0.996-2.222-2.222 0.996-2.222 2.222-2.222z"></path>
</svg>
