<!-- Generated by IcoMoon.io -->
<svg version="1.1" xmlns="http://www.w3.org/2000/svg" width="43" height="32" viewBox="0 0 43 32">
<title>water-pump</title>
<path d="M33.778 25.778s3.556 3.858 3.556 6.222c0 1.956-1.6 3.556-3.556 3.556s-3.556-1.6-3.556-3.556c0-2.364 3.556-6.222 3.556-6.222M8.889 32v-16c-1.956 0-3.556-1.6-3.556-3.556s1.6-3.556 3.556-3.556v-1.778c0-1.956 1.6-3.556 3.556-3.556h3.556c1.956 0 3.556 1.6 3.556 3.556v1.778h14.222c1.956 0 3.556 1.6 3.556 3.556v7.111c0.978 0 1.778 0.8 1.778 1.778s-0.8 1.778-1.778 1.778h-7.111c-0.978 0-1.778-0.8-1.778-1.778s0.8-1.778 1.778-1.778v-3.556h-10.667v16h1.778c1.956 0 3.556 1.6 3.556 3.556v3.556h-21.333v-3.556c0-1.956 1.6-3.556 3.556-3.556h1.778z"></path>
</svg>
