<!-- Generated by IcoMoon.io -->
<svg version="1.1" xmlns="http://www.w3.org/2000/svg" width="43" height="32" viewBox="0 0 43 32">
<title>waves</title>
<path d="M3.556 32c3.947-1.778 7.893-3.556 11.858-3.556 3.947 0 7.893 3.556 11.84 3.556 3.964 0 7.911-3.556 11.858-3.556v5.333c-3.947 0-7.893 3.556-11.858 3.556-3.947 0-7.893-3.556-11.84-3.556-3.964 0-7.911 1.778-11.858 3.556v-5.333M3.556 21.333c3.947-1.778 7.893-3.556 11.858-3.556 3.947 0 7.893 3.556 11.84 3.556 3.964 0 7.911-3.556 11.858-3.556v5.333c-3.947 0-7.893 3.556-11.858 3.556-3.947 0-7.893-3.556-11.84-3.556-3.964 0-7.911 1.778-11.858 3.556v-5.333M3.556 10.667c3.947-1.778 7.893-3.556 11.858-3.556 3.947 0 7.893 3.556 11.84 3.556 3.964 0 7.911-3.556 11.858-3.556v5.333c-3.947 0-7.893 3.556-11.858 3.556-3.947 0-7.893-3.556-11.84-3.556-3.964 0-7.911 1.778-11.858 3.556v-5.333z"></path>
</svg>
