<!-- Generated by IcoMoon.io -->
<svg version="1.1" xmlns="http://www.w3.org/2000/svg" width="43" height="32" viewBox="0 0 43 32">
<title>weather-pouring</title>
<path d="M16 21.333c0.942 0.249 1.511 1.227 1.262 2.169l-2.311 8.587c-0.249 0.96-1.227 1.511-2.169 1.262-0.96-0.249-1.511-1.227-1.227-2.169l2.276-8.587c0.249-0.96 1.227-1.511 2.169-1.262M23.111 21.333c0.942 0.249 1.511 1.227 1.262 2.169l-3.68 13.742c-0.249 0.978-1.227 1.511-2.187 1.262-0.942-0.284-1.511-1.227-1.262-2.187l3.698-13.724c0.249-0.96 1.227-1.511 2.169-1.262M30.222 21.333c0.942 0.249 1.511 1.227 1.262 2.169l-2.311 8.587c-0.249 0.96-1.227 1.511-2.169 1.262-0.96-0.249-1.511-1.227-1.227-2.169l2.276-8.587c0.249-0.96 1.227-1.511 2.169-1.262M30.222 17.778v-1.778c0-4.907-3.982-8.889-8.889-8.889-4.444 0-8.089 3.236-8.782 7.449-0.587-0.213-1.227-0.338-1.884-0.338-2.951 0-5.333 2.382-5.333 5.333 0 1.973 1.067 3.698 2.667 4.622v-0.018c0.889 0.498 1.138 1.618 0.658 2.436-0.498 0.836-1.547 1.138-2.436 0.64v0.018c-2.667-1.529-4.444-4.409-4.444-7.698 0-4.907 3.982-8.889 8.889-8.889 1.778-4.178 5.867-7.111 10.667-7.111 6.098 0 11.093 4.729 11.556 10.72l0.889-0.053c3.929 0 7.111 3.182 7.111 7.111 0 2.667-1.422 4.924-3.556 6.151-0.889 0.48-1.938 0.196-2.436-0.658-0.48-0.853-0.231-1.938 0.658-2.436v0.018c1.067-0.604 1.778-1.76 1.778-3.076 0-1.956-1.6-3.556-3.556-3.556h-3.556z"></path>
</svg>
