<!-- Generated by IcoMoon.io -->
<svg version="1.1" xmlns="http://www.w3.org/2000/svg" width="43" height="32" viewBox="0 0 43 32">
<title>weather-sunny</title>
<path d="M21.333 12.444c4.907 0 8.889 3.982 8.889 8.889s-3.982 8.889-8.889 8.889-8.889-3.982-8.889-8.889 3.982-8.889 8.889-8.889M21.333 16c-2.951 0-5.333 2.382-5.333 5.333s2.382 5.333 5.333 5.333 5.333-2.382 5.333-5.333-2.382-5.333-5.333-5.333M21.333 3.556l4.249 6.080c-1.316-0.48-2.756-0.747-4.249-0.747s-2.933 0.267-4.249 0.747l4.249-6.080M5.938 12.444l7.396-0.622c-1.067 0.907-2.027 2.009-2.773 3.289-0.782 1.316-1.227 2.667-1.476 4.071l-3.147-6.738M5.973 30.222l3.129-6.702c0.249 1.369 0.729 2.756 1.476 4.036 0.747 1.316 1.707 2.418 2.756 3.324l-7.36-0.658M36.711 12.444l-3.147 6.738c-0.249-1.404-0.729-2.773-1.476-4.071-0.747-1.28-1.689-2.4-2.756-3.307l7.378 0.64M36.693 30.222l-7.36 0.64c1.049-0.907 1.991-2.027 2.738-3.307 0.747-1.298 1.227-2.667 1.476-4.071l3.147 6.738M21.333 39.111l-4.284-6.116c1.316 0.48 2.756 0.782 4.284 0.782 1.458 0 2.898-0.302 4.213-0.782l-4.213 6.116z"></path>
</svg>
