<!-- Generated by IcoMoon.io -->
<svg version="1.1" xmlns="http://www.w3.org/2000/svg" width="43" height="32" viewBox="0 0 43 32">
<title>weather-windy-variant</title>
<path d="M10.667 10.667l1.227 0.107c1.12-4.16 4.924-7.218 9.44-7.218 5.404 0 9.778 4.373 9.778 9.778l-0.142 1.689c0.818-0.516 1.778-0.8 2.809-0.8 2.951 0 5.333 2.382 5.333 5.333s-2.382 5.333-5.333 5.333h-23.111c-3.929 0-7.111-3.182-7.111-7.111s3.182-7.111 7.111-7.111M10.667 14.222c-1.956 0-3.556 1.6-3.556 3.556s1.6 3.556 3.556 3.556h23.111c0.978 0 1.778-0.8 1.778-1.778s-0.8-1.778-1.778-1.778h-6.222v-4.444c0-3.431-2.791-6.222-6.222-6.222s-6.222 2.791-6.222 6.222v0.889h-4.444M32 32h-24.889c-0.978 0-1.778-0.8-1.778-1.778s0.8-1.778 1.778-1.778h24.889c2.951 0 5.333 2.382 5.333 5.333s-2.382 5.333-5.333 5.333c-1.476 0-2.809-0.604-3.769-1.564-0.676-0.693-0.676-1.813 0-2.507 0.693-0.693 1.813-0.693 2.507 0 0.32 0.32 0.764 0.516 1.262 0.516 0.978 0 1.778-0.8 1.778-1.778s-0.8-1.778-1.778-1.778z"></path>
</svg>
