<!-- Generated by IcoMoon.io -->
<svg version="1.1" xmlns="http://www.w3.org/2000/svg" width="43" height="32" viewBox="0 0 43 32">
<title>weather-fog</title>
<path d="M5.333 26.667h17.778c0.978 0 1.778 0.8 1.778 1.778s-0.8 1.778-1.778 1.778h-17.778c-0.978 0-1.778-0.8-1.778-1.778s0.8-1.778 1.778-1.778M28.444 26.667h8.889c0.978 0 1.778 0.8 1.778 1.778s-0.8 1.778-1.778 1.778h-8.889c-0.978 0-1.778-0.8-1.778-1.778s0.8-1.778 1.778-1.778M1.778 21.333c0-4.907 3.982-8.889 8.889-8.889 1.778-4.178 5.867-7.111 10.667-7.111 6.098 0 11.093 4.729 11.556 10.72l0.889-0.053c3.893 0 7.058 3.129 7.111 7.111h-3.556c0-1.956-1.6-3.556-3.556-3.556h-3.556v-1.778c0-4.907-3.982-8.889-8.889-8.889-4.444 0-8.089 3.236-8.782 7.449-0.587-0.213-1.227-0.338-1.884-0.338-2.951 0-5.333 2.382-5.333 5.333 0 0.622 0.107 1.227 0.302 1.778h-3.68l-0.178-1.778M5.333 33.778h3.556c0.978 0 1.778 0.8 1.778 1.778s-0.8 1.778-1.778 1.778h-3.556c-0.978 0-1.778-0.8-1.778-1.778s0.8-1.778 1.778-1.778M14.222 33.778h23.111c0.978 0 1.778 0.8 1.778 1.778s-0.8 1.778-1.778 1.778h-23.111c-0.978 0-1.778-0.8-1.778-1.778s0.8-1.778 1.778-1.778z"></path>
</svg>
