<!-- Generated by IcoMoon.io -->
<svg version="1.1" xmlns="http://www.w3.org/2000/svg" width="43" height="32" viewBox="0 0 43 32">
<title>weather-night</title>
<path d="M31.556 7.271l-4.498 3.449 1.618 5.44-4.676-3.218-4.676 3.218 1.618-5.44-4.498-3.449 5.671-0.16 1.884-5.333 1.884 5.333 5.671 0.16M37.778 19.556l-2.916 2.222 1.049 3.52-3.022-2.080-3.022 2.080 1.049-3.52-2.916-2.222 3.662-0.089 1.227-3.467 1.227 3.467 3.662 0.089M33.724 28.356c1.476-0.142 3.058 1.956 2.116 3.289-0.569 0.8-1.173 1.547-1.92 2.258-6.951 6.987-18.204 6.987-25.138 0-6.951-6.933-6.951-18.204 0-25.138 0.711-0.711 1.458-1.351 2.258-1.92 1.333-0.942 3.431 0.64 3.289 2.116-0.48 5.084 1.227 10.364 5.138 14.258 3.893 3.911 9.156 5.618 14.258 5.138M30.809 31.947c-5.031-0.284-10.009-2.364-13.867-6.169-3.858-3.893-5.92-8.889-6.204-13.902-4.996 5.582-4.8 14.151 0.551 19.52 5.369 5.351 13.938 5.547 19.52 0.551z"></path>
</svg>
