<!-- Generated by IcoMoon.io -->
<svg version="1.1" xmlns="http://www.w3.org/2000/svg" width="43" height="32" viewBox="0 0 43 32">
<title>weather-sunset</title>
<path d="M5.333 21.333h7.111c0-4.907 3.982-8.889 8.889-8.889s8.889 3.982 8.889 8.889h7.111c0.978 0 1.778 0.8 1.778 1.778s-0.8 1.778-1.778 1.778h-32c-0.978 0-1.778-0.8-1.778-1.778s0.8-1.778 1.778-1.778M8.889 28.444h24.889c0.978 0 1.778 0.8 1.778 1.778s-0.8 1.778-1.778 1.778h-24.889c-0.978 0-1.778-0.8-1.778-1.778s0.8-1.778 1.778-1.778M30.222 35.556c0.978 0 1.778 0.8 1.778 1.778s-0.8 1.778-1.778 1.778h-17.778c-0.978 0-1.778-0.8-1.778-1.778s0.8-1.778 1.778-1.778h17.778M26.667 21.333c0-2.951-2.382-5.333-5.333-5.333s-5.333 2.382-5.333 5.333h10.667M21.333 3.556l4.249 6.080c-1.316-0.48-2.756-0.747-4.249-0.747s-2.933 0.267-4.249 0.747l4.249-6.080M5.938 12.444l7.396-0.622c-1.067 0.907-2.027 2.009-2.773 3.289-0.782 1.316-1.227 2.667-1.476 4.071l-3.147-6.738M36.711 12.444l-3.147 6.738c-0.249-1.404-0.729-2.773-1.476-4.071-0.747-1.28-1.689-2.4-2.756-3.307l7.378 0.64z"></path>
</svg>
