<!-- Generated by IcoMoon.io -->
<svg version="1.1" xmlns="http://www.w3.org/2000/svg" width="43" height="32" viewBox="0 0 43 32">
<title>weather-rainy</title>
<path d="M10.667 24.889c0.978 0 1.778 0.8 1.778 1.778s-0.8 1.778-1.778 1.778c-4.907 0-8.889-3.982-8.889-8.889s3.982-8.889 8.889-8.889c1.778-4.178 5.867-7.111 10.667-7.111 6.098 0 11.093 4.729 11.556 10.72l0.889-0.053c3.929 0 7.111 3.182 7.111 7.111s-3.182 7.111-7.111 7.111h-1.778c-0.978 0-1.778-0.8-1.778-1.778s0.8-1.778 1.778-1.778h1.778c1.956 0 3.556-1.6 3.556-3.556s-1.6-3.556-3.556-3.556h-3.556v-1.778c0-4.907-3.982-8.889-8.889-8.889-4.444 0-8.089 3.236-8.782 7.449-0.587-0.213-1.227-0.338-1.884-0.338-2.951 0-5.333 2.382-5.333 5.333s2.382 5.333 5.333 5.333M26.364 27.858c2.773 2.773 2.773 6.809 0 9.618-1.387 1.387-3.253 1.636-5.031 1.636s-3.644-0.249-5.031-1.636c-2.773-2.809-2.773-6.844 0-9.618l5.031-8.302 5.031 8.302M23.84 29.671l-2.507-4.338-2.507 4.338c-1.404 1.44-1.404 3.573 0 4.996 0.729 0.764 1.618 0.889 2.507 0.889s1.778-0.124 2.507-0.889c1.404-1.422 1.404-3.556 0-4.996z"></path>
</svg>
