<!-- Generated by IcoMoon.io -->
<svg version="1.1" xmlns="http://www.w3.org/2000/svg" width="43" height="32" viewBox="0 0 43 32">
<title>weather-lightning-rainy</title>
<path d="M8 24.16c0.889 0.498 1.138 1.618 0.658 2.436-0.498 0.853-1.547 1.138-2.436 0.658-2.667-1.529-4.444-4.409-4.444-7.698 0-4.907 3.982-8.889 8.889-8.889 1.778-4.178 5.867-7.111 10.667-7.111 6.098 0 11.093 4.729 11.556 10.72l0.889-0.053c3.929 0 7.111 3.182 7.111 7.111s-3.182 7.111-7.111 7.111c-0.978 0-1.778-0.8-1.778-1.778s0.8-1.778 1.778-1.778c1.956 0 3.556-1.6 3.556-3.556s-1.6-3.556-3.556-3.556h-3.556v-1.778c0-4.907-3.982-8.889-8.889-8.889-4.444 0-8.089 3.236-8.782 7.449-0.587-0.213-1.227-0.338-1.884-0.338-2.951 0-5.333 2.382-5.333 5.333 0 1.973 1.067 3.698 2.667 4.622v-0.018M16.889 19.556h5.333l-3.556 7.111h3.556l-6.667 12.444 1.333-8.889h-4.444l4.444-10.667M31.111 33.191c0 2.293-1.778 4.142-4 4.142s-4-1.849-4-4.142c0-2.756 4-7.413 4-7.413s4 4.658 4 7.413z"></path>
</svg>
