<!-- Generated by IcoMoon.io -->
<svg version="1.1" xmlns="http://www.w3.org/2000/svg" width="43" height="32" viewBox="0 0 43 32">
<title>weather-windy</title>
<path d="M7.111 17.778c-0.978 0-1.778-0.8-1.778-1.778s0.8-1.778 1.778-1.778h14.222c1.956 0 3.556-1.6 3.556-3.556s-1.6-3.556-3.556-3.556c-0.978 0-1.867 0.391-2.507 1.049-0.693 0.729-1.831 0.729-2.524 0-0.693-0.693-0.693-1.831 0-2.524 1.298-1.28 3.076-2.080 5.031-2.080 3.929 0 7.111 3.182 7.111 7.111s-3.182 7.111-7.111 7.111h-14.222M33.778 21.333c0.978 0 1.778-0.8 1.778-1.778s-0.8-1.778-1.778-1.778c-0.498 0-0.942 0.196-1.262 0.516-0.693 0.693-1.813 0.693-2.507 0-0.676-0.693-0.676-1.813 0-2.507 0.96-0.96 2.293-1.564 3.769-1.564 2.951 0 5.333 2.382 5.333 5.333s-2.382 5.333-5.333 5.333h-24.889c-0.978 0-1.778-0.8-1.778-1.778s0.8-1.778 1.778-1.778h24.889M32 32h-24.889c-0.978 0-1.778-0.8-1.778-1.778s0.8-1.778 1.778-1.778h24.889c2.951 0 5.333 2.382 5.333 5.333s-2.382 5.333-5.333 5.333c-1.476 0-2.809-0.604-3.769-1.564-0.676-0.693-0.676-1.813 0-2.507 0.693-0.693 1.813-0.693 2.507 0 0.32 0.32 0.764 0.516 1.262 0.516 0.978 0 1.778-0.8 1.778-1.778s-0.8-1.778-1.778-1.778z"></path>
</svg>
