<!-- Generated by IcoMoon.io -->
<svg version="1.1" xmlns="http://www.w3.org/2000/svg" width="43" height="32" viewBox="0 0 43 32">
<title>weather-hail</title>
<path d="M10.667 24.889c0.978 0 1.778 0.8 1.778 1.778s-0.8 1.778-1.778 1.778c-4.907 0-8.889-3.982-8.889-8.889s3.982-8.889 8.889-8.889c1.778-4.178 5.867-7.111 10.667-7.111 6.098 0 11.093 4.729 11.556 10.72l0.889-0.053c3.929 0 7.111 3.182 7.111 7.111s-3.182 7.111-7.111 7.111h-1.778c-0.978 0-1.778-0.8-1.778-1.778s0.8-1.778 1.778-1.778h1.778c1.956 0 3.556-1.6 3.556-3.556s-1.6-3.556-3.556-3.556h-3.556v-1.778c0-4.907-3.982-8.889-8.889-8.889-4.444 0-8.089 3.236-8.782 7.449-0.587-0.213-1.227-0.338-1.884-0.338-2.951 0-5.333 2.382-5.333 5.333s2.382 5.333 5.333 5.333M17.778 32c1.956 0 3.556 1.6 3.556 3.556s-1.6 3.556-3.556 3.556-3.556-1.6-3.556-3.556 1.6-3.556 3.556-3.556M25.778 28.444c1.476 0 2.667 1.191 2.667 2.667s-1.191 2.667-2.667 2.667-2.667-1.191-2.667-2.667 1.191-2.667 2.667-2.667M18.667 21.333c1.476 0 2.667 1.191 2.667 2.667s-1.191 2.667-2.667 2.667-2.667-1.191-2.667-2.667 1.191-2.667 2.667-2.667z"></path>
</svg>
