<!-- Generated by IcoMoon.io -->
<svg version="1.1" xmlns="http://www.w3.org/2000/svg" width="43" height="32" viewBox="0 0 43 32">
<title>weather-snowy-rainy</title>
<path d="M32.889 33.191c0 2.293-1.778 4.142-4 4.142s-4-1.849-4-4.142c0-2.756 4-7.413 4-7.413s4 4.658 4 7.413M7.111 30.862c-0.249-0.96 0.32-1.973 1.298-2.222l4.036-1.084-2.969-2.916c-0.711-0.711-0.711-1.867 0-2.596 0.711-0.711 1.902-0.711 2.596 0l2.951 2.933 1.049-4c0.249-0.996 1.262-1.564 2.222-1.298 0.996 0.249 1.564 1.262 1.262 2.24l-1.031 4 4-1.031c0.978-0.302 1.991 0.267 2.24 1.262 0.267 0.96-0.302 1.973-1.298 2.222l-4 1.049 2.933 2.951c0.711 0.693 0.711 1.884 0 2.596s-1.884 0.711-2.578 0l-2.933-2.969-1.084 4.036c-0.249 0.996-1.262 1.547-2.222 1.298-0.996-0.249-1.547-1.262-1.298-2.24l1.049-3.982-3.982 1.049c-0.978 0.249-1.991-0.302-2.24-1.298M1.778 19.556c0-4.907 3.982-8.889 8.889-8.889 1.778-4.178 5.867-7.111 10.667-7.111 6.098 0 11.093 4.729 11.556 10.72l0.889-0.053c3.929 0 7.111 3.182 7.111 7.111s-3.182 7.111-7.111 7.111c-0.978 0-1.778-0.8-1.778-1.778s0.8-1.778 1.778-1.778c1.956 0 3.556-1.6 3.556-3.556s-1.6-3.556-3.556-3.556h-3.556v-1.778c0-4.907-3.982-8.889-8.889-8.889-4.444 0-8.089 3.236-8.782 7.449-0.587-0.213-1.227-0.338-1.884-0.338-2.951 0-5.333 2.382-5.333 5.333 0 1.511 0.622 2.862 1.618 3.84 0.64 0.693 0.622 1.778-0.053 2.453-0.676 0.693-1.831 0.693-2.507 0-1.618-1.618-2.613-3.84-2.613-6.293z"></path>
</svg>
