<!-- Generated by IcoMoon.io -->
<svg version="1.1" xmlns="http://www.w3.org/2000/svg" width="43" height="32" viewBox="0 0 43 32">
<title>weather-partlycloudy</title>
<path d="M22.649 9.724c4.196 1.831 6.418 6.329 5.653 10.649 2.258 1.956 3.698 4.853 3.698 8.071v0.302c0.551-0.196 1.156-0.302 1.778-0.302 2.951 0 5.333 2.382 5.333 5.333s-2.382 5.333-5.333 5.333h-23.111c-3.929 0-7.111-3.182-7.111-7.111s3.182-7.111 7.111-7.111h0.48c-2.258-2.756-2.969-6.684-1.369-10.204 2.169-4.907 7.947-7.147 12.871-4.96M21.209 12.978c-3.147-1.422-6.827 0.018-8.213 3.147-0.818 1.813-0.676 3.822 0.178 5.44 1.938-2.311 4.889-3.787 8.16-3.787 1.244 0 2.453 0.213 3.556 0.604-0.107-2.276-1.458-4.409-3.68-5.404M24.089 6.471c-0.978-0.427-1.956-0.729-2.969-0.924l4.427-2.311 1.6 5.138c-0.907-0.747-1.92-1.387-3.058-1.902M10.827 7.893c-0.871 0.622-1.636 1.333-2.293 2.116l0.196-4.996 5.262 1.209c-1.102 0.373-2.169 0.942-3.164 1.671M32 17.262c-0.16-1.049-0.391-2.062-0.729-3.040l4.231 2.667-3.644 3.964c0.196-1.156 0.231-2.364 0.142-3.591M5.404 20.089c0.124 1.067 0.356 2.080 0.693 3.022l-4.213-2.667 3.627-3.947c-0.178 1.156-0.231 2.364-0.107 3.591M33.778 32h-5.333v-3.556c0-3.929-3.182-7.111-7.111-7.111s-7.111 3.182-7.111 7.111h-3.556c-1.956 0-3.556 1.6-3.556 3.556s1.6 3.556 3.556 3.556h23.111c0.978 0 1.778-0.8 1.778-1.778s-0.8-1.778-1.778-1.778z"></path>
</svg>
