<!-- Generated by IcoMoon.io -->
<svg version="1.1" xmlns="http://www.w3.org/2000/svg" width="43" height="32" viewBox="0 0 43 32">
<title>weather-snowy</title>
<path d="M10.667 24.889c0.978 0 1.778 0.8 1.778 1.778s-0.8 1.778-1.778 1.778c-4.907 0-8.889-3.982-8.889-8.889s3.982-8.889 8.889-8.889c1.778-4.178 5.867-7.111 10.667-7.111 6.098 0 11.093 4.729 11.556 10.72l0.889-0.053c3.929 0 7.111 3.182 7.111 7.111s-3.182 7.111-7.111 7.111h-1.778c-0.978 0-1.778-0.8-1.778-1.778s0.8-1.778 1.778-1.778h1.778c1.956 0 3.556-1.6 3.556-3.556s-1.6-3.556-3.556-3.556h-3.556v-1.778c0-4.907-3.982-8.889-8.889-8.889-4.444 0-8.089 3.236-8.782 7.449-0.587-0.213-1.227-0.338-1.884-0.338-2.951 0-5.333 2.382-5.333 5.333s2.382 5.333 5.333 5.333M14.009 32.124l3.893-1.013-2.862-2.88c-0.693-0.676-0.693-1.813 0-2.524 0.693-0.693 1.849-0.693 2.524 0l2.88 2.862 1.013-3.893c0.249-0.96 1.227-1.511 2.169-1.262 0.96 0.249 1.511 1.227 1.262 2.187l-1.049 3.893 3.893-1.049c0.96-0.249 1.938 0.302 2.187 1.262 0.249 0.942-0.302 1.92-1.262 2.169l-3.893 1.013 2.862 2.88c0.693 0.676 0.693 1.831 0 2.524s-1.849 0.693-2.524 0l-2.88-2.862-1.013 3.893c-0.249 0.96-1.227 1.511-2.169 1.262-0.96-0.249-1.511-1.227-1.262-2.187l1.049-3.893-3.893 1.049c-0.96 0.249-1.938-0.302-2.187-1.262-0.249-0.942 0.302-1.92 1.262-2.169z"></path>
</svg>
