<!-- Generated by IcoMoon.io -->
<svg version="1.1" xmlns="http://www.w3.org/2000/svg" width="43" height="32" viewBox="0 0 43 32">
<title>web</title>
<path d="M29.084 24.889c0.142-1.173 0.249-2.347 0.249-3.556s-0.107-2.382-0.249-3.556h6.009c0.284 1.138 0.462 2.329 0.462 3.556s-0.178 2.418-0.462 3.556M25.938 34.773c1.067-1.973 1.884-4.107 2.453-6.329h5.244c-1.707 2.933-4.427 5.209-7.698 6.329M25.493 24.889h-8.32c-0.178-1.173-0.284-2.347-0.284-3.556s0.107-2.4 0.284-3.556h8.32c0.16 1.156 0.284 2.347 0.284 3.556s-0.124 2.382-0.284 3.556M21.333 35.484c-1.476-2.133-2.667-4.498-3.396-7.040h6.791c-0.729 2.542-1.92 4.907-3.396 7.040M14.222 14.222h-5.191c1.689-2.951 4.427-5.227 7.68-6.329-1.067 1.973-1.867 4.107-2.489 6.329M9.031 28.444h5.191c0.622 2.222 1.422 4.356 2.489 6.329-3.253-1.12-5.991-3.396-7.68-6.329M7.573 24.889c-0.284-1.138-0.462-2.329-0.462-3.556s0.178-2.418 0.462-3.556h6.009c-0.142 1.173-0.249 2.347-0.249 3.556s0.107 2.382 0.249 3.556M21.333 7.164c1.476 2.133 2.667 4.516 3.396 7.058h-6.791c0.729-2.542 1.92-4.924 3.396-7.058M33.636 14.222h-5.244c-0.569-2.222-1.387-4.356-2.453-6.329 3.271 1.12 5.991 3.378 7.698 6.329M21.333 3.556c-9.831 0-17.778 8-17.778 17.778 0 9.813 7.964 17.778 17.778 17.778s17.778-7.964 17.778-17.778-7.964-17.778-17.778-17.778z"></path>
</svg>
