<!-- Generated by IcoMoon.io -->
<svg version="1.1" xmlns="http://www.w3.org/2000/svg" width="43" height="32" viewBox="0 0 43 32">
<title>webcam</title>
<path d="M21.333 3.556c6.88 0 12.444 5.564 12.444 12.444s-5.564 12.444-12.444 12.444-12.444-5.564-12.444-12.444 5.564-12.444 12.444-12.444M21.333 7.111c-4.907 0-8.889 3.982-8.889 8.889s3.982 8.889 8.889 8.889 8.889-3.982 8.889-8.889-3.982-8.889-8.889-8.889M21.333 10.667c2.951 0 5.333 2.382 5.333 5.333s-2.382 5.333-5.333 5.333-5.333-2.382-5.333-5.333 2.382-5.333 5.333-5.333M10.667 39.111c-1.956 0-3.556-1.6-3.556-3.556 0-0.676 0.178-1.298 0.516-1.831l3.236-5.618c2.809 2.418 6.471 3.893 10.471 3.893s7.662-1.476 10.471-3.893l3.236 5.618c0.338 0.533 0.516 1.156 0.516 1.831 0 1.956-1.6 3.556-3.556 3.556h-21.333z"></path>
</svg>
