<!-- Generated by IcoMoon.io -->
<svg version="1.1" xmlns="http://www.w3.org/2000/svg" width="43" height="32" viewBox="0 0 43 32">
<title>webpack</title>
<path d="M37.333 29.333c0 0.676-0.373 1.262-0.942 1.564l-14.044 7.893c-0.284 0.213-0.64 0.32-1.013 0.32s-0.729-0.107-1.013-0.32l-14.044-7.893c-0.569-0.302-0.942-0.889-0.942-1.564v-16c0-0.676 0.373-1.262 0.942-1.564l14.044-7.893c0.284-0.213 0.64-0.32 1.013-0.32s0.729 0.107 1.013 0.32l14.044 7.893c0.569 0.302 0.942 0.889 0.942 1.564v16M21.333 7.378l-12.444 7.004v13.902l12.444 7.004 12.444-7.004v-13.902l-12.444-7.004M21.333 11.076l8.711 5.031-8.711 5.031-8.711-5.031 8.711-5.031M30.222 26.471l-7.111 4.107v-6.364l7.111-4.107v6.364M19.556 30.578l-7.111-4.107v-6.364l7.111 4.107v6.364z"></path>
</svg>
