<!-- Generated by IcoMoon.io -->
<svg version="1.1" xmlns="http://www.w3.org/2000/svg" width="43" height="32" viewBox="0 0 43 32">
<title>wechat</title>
<path d="M16.889 7.111c-7.36 0-13.333 4.782-13.333 10.667 0 3.36 1.92 6.329 4.942 8.284l-1.387 4.16 4.444-2.667c1.582 0.551 3.324 0.889 5.173 0.889-0.462-1.12-0.729-2.311-0.729-3.556 0-5.884 5.564-10.667 12.444-10.667 0.338 0 0.676 0 0.996 0.053-1.813-4.16-6.72-7.164-12.551-7.164M11.556 11.556c0.978 0 1.778 0.8 1.778 1.778s-0.8 1.778-1.778 1.778-1.778-0.8-1.778-1.778 0.8-1.778 1.778-1.778M20.444 11.556c0.978 0 1.778 0.8 1.778 1.778s-0.8 1.778-1.778 1.778-1.778-0.8-1.778-1.778 0.8-1.778 1.778-1.778M28.444 16c-5.884 0-10.667 3.982-10.667 8.889s4.782 8.889 10.667 8.889c1.191 0 2.329-0.142 3.396-0.444l3.716 2.222-1.102-3.324c2.791-1.618 4.658-4.302 4.658-7.342 0-4.907-4.782-8.889-10.667-8.889M24.889 20.444c0.978 0 1.778 0.8 1.778 1.778s-0.8 1.778-1.778 1.778-1.778-0.8-1.778-1.778 0.8-1.778 1.778-1.778M32 20.444c0.978 0 1.778 0.8 1.778 1.778s-0.8 1.778-1.778 1.778-1.778-0.8-1.778-1.778 0.8-1.778 1.778-1.778z"></path>
</svg>
