<!-- Generated by IcoMoon.io -->
<svg version="1.1" xmlns="http://www.w3.org/2000/svg" width="43" height="32" viewBox="0 0 43 32">
<title>weight</title>
<path d="M21.333 5.333c3.929 0 7.111 3.182 7.111 7.111 0 1.298-0.338 2.507-0.96 3.556h4.516c1.689 0 3.111 1.191 3.467 2.773 3.573 14.24 3.644 14.613 3.644 15.004 0 1.956-1.6 3.556-3.556 3.556h-28.444c-1.956 0-3.556-1.6-3.556-3.556 0-0.391 0.071-0.764 3.644-15.004 0.356-1.582 1.778-2.773 3.467-2.773h4.516c-0.622-1.049-0.96-2.258-0.96-3.556 0-3.929 3.182-7.111 7.111-7.111M21.333 8.889c-1.956 0-3.556 1.6-3.556 3.556s1.6 3.556 3.556 3.556 3.556-1.6 3.556-3.556-1.6-3.556-3.556-3.556z"></path>
</svg>
