<!-- Generated by IcoMoon.io -->
<svg version="1.1" xmlns="http://www.w3.org/2000/svg" width="43" height="32" viewBox="0 0 43 32">
<title>weight-kilogram</title>
<path d="M21.333 5.333c3.929 0 7.111 3.182 7.111 7.111 0 1.298-0.338 2.507-0.96 3.556h4.516c1.689 0 3.111 1.191 3.467 2.773 3.573 14.24 3.644 14.613 3.644 15.004 0 1.956-1.6 3.556-3.556 3.556h-28.444c-1.956 0-3.556-1.6-3.556-3.556 0-0.391 0.071-0.764 3.644-15.004 0.356-1.582 1.778-2.773 3.467-2.773h4.516c-0.622-1.049-0.96-2.258-0.96-3.556 0-3.929 3.182-7.111 7.111-7.111M21.333 8.889c-1.956 0-3.556 1.6-3.556 3.556s1.6 3.556 3.556 3.556 3.556-1.6 3.556-3.556-1.6-3.556-3.556-3.556M16.071 27.449l2.418 4.551h3.040l-3.627-5.938 3.342-4.836h-3.111l-2.364 4.249h-0.853v-4.249h-2.524v10.773h2.524v-4.551h1.156M30.773 30.507v-3.964h-4.196v1.973h1.689v1.333l-0.622 0.249-1.084 0.124c-0.622 0-1.12-0.267-1.476-0.711-0.338-0.462-0.516-1.067-0.516-1.796v-2.222c0-0.729 0.178-1.316 0.533-1.76 0.356-0.462 0.818-0.676 1.404-0.676s1.049 0.142 1.298 0.427c0.284 0.284 0.462 0.711 0.551 1.28h2.347l0.018-0.053c-0.089-1.12-0.498-2.009-1.173-2.667-0.693-0.64-1.742-0.96-3.129-0.96-1.28 0-2.311 0.409-3.129 1.227-0.818 0.8-1.227 1.884-1.227 3.182v2.24c0 1.316 0.427 2.382 1.262 3.2 0.818 0.818 1.902 1.227 3.236 1.227 1.049 0 1.938-0.16 2.631-0.498s1.227-0.711 1.582-1.156z"></path>
</svg>
