<!-- Generated by IcoMoon.io -->
<svg version="1.1" xmlns="http://www.w3.org/2000/svg" width="43" height="32" viewBox="0 0 43 32">
<title>whatsapp</title>
<path d="M29.778 24.818c0.444 0.231 0.729 0.356 0.818 0.533 0.107 0.196 0.071 1.084-0.373 2.098-0.356 0.996-2.204 1.956-3.022 1.991s-0.836 0.64-5.262-1.298c-4.427-1.938-7.093-6.667-7.307-6.969s-1.707-2.453-1.636-4.64c0.089-2.169 1.227-3.2 1.689-3.627 0.427-0.462 0.907-0.516 1.209-0.462h0.836c0.267 0 0.64-0.107 0.978 0.8l1.227 3.324c0.107 0.231 0.178 0.498 0.018 0.782l-0.48 0.729-0.693 0.747c-0.213 0.213-0.462 0.444-0.213 0.889 0.213 0.462 1.102 1.938 2.347 3.164 1.618 1.564 3.040 2.080 3.467 2.311 0.427 0.249 0.693 0.213 0.96-0.071l1.44-1.671c0.338-0.444 0.622-0.338 1.031-0.196l2.969 1.564M21.333 3.556c9.813 0 17.778 7.964 17.778 17.778s-7.964 17.778-17.778 17.778c-3.502 0-6.756-1.013-9.511-2.756l-8.267 2.756 2.756-8.267c-1.742-2.756-2.756-6.009-2.756-9.511 0-9.813 7.964-17.778 17.778-17.778M21.333 7.111c-7.858 0-14.222 6.364-14.222 14.222 0 3.058 0.96 5.884 2.596 8.196l-1.707 5.138 5.138-1.707c2.311 1.636 5.138 2.596 8.196 2.596 7.858 0 14.222-6.364 14.222-14.222s-6.364-14.222-14.222-14.222z"></path>
</svg>
