<!-- Generated by IcoMoon.io -->
<svg version="1.1" xmlns="http://www.w3.org/2000/svg" width="43" height="32" viewBox="0 0 43 32">
<title>wheelchair-accessibility</title>
<path d="M32.711 19.911l-7.289 0.356 4.089-4.622c0.356-0.533 0.533-1.422 0.356-2.311-0.178-0.533-0.356-1.067-0.889-1.422l-9.6-5.689c-0.711-0.533-1.778-0.356-2.489 0.178l-4.8 4.444c-0.889 0.889-1.067 2.133-0.178 3.022 0.711 0.889 2.133 0.889 3.022 0.178l3.556-3.2 3.378 1.956-7.467 7.644c-0.178 0.178-0.178 0.356-0.356 0.356-0.889 0.356-1.778 0.711-2.489 1.244l2.667 2.667c0.889-0.356 1.778-0.711 2.667-0.711 3.378 0 6.222 2.844 6.222 6.222 0 1.067-0.178 1.956-0.711 2.667l2.667 2.667c1.067-1.6 1.6-3.378 1.6-5.333 0-2.133-0.711-4.267-1.956-5.867l5.867-0.533-0.356 8.533c-0.178 1.244 0.711 2.133 1.956 2.311h0.178c1.067 0 1.956-0.889 2.133-1.956l0.356-10.489c0-0.533-0.178-1.244-0.533-1.6-0.533-0.533-1.067-0.711-1.6-0.711M32 9.778c1.956 0 3.556-1.6 3.556-3.556s-1.6-3.556-3.556-3.556-3.556 1.6-3.556 3.556 1.6 3.556 3.556 3.556M22.222 38.4c-1.6 1.067-3.378 1.6-5.333 1.6-5.333 0-9.778-4.444-9.778-9.778 0-1.956 0.533-3.733 1.6-5.333l2.667 2.667c-0.356 0.889-0.711 1.778-0.711 2.667 0 3.378 2.844 6.222 6.222 6.222 1.067 0 1.956-0.178 2.667-0.711l2.667 2.667z"></path>
</svg>
