<!-- Generated by IcoMoon.io -->
<svg version="1.1" xmlns="http://www.w3.org/2000/svg" width="43" height="32" viewBox="0 0 43 32">
<title>white-balance-auto</title>
<path d="M18.311 28.444l-1.244-3.556h-5.689l-1.244 3.556h-3.378l5.689-16h3.556l5.689 16M39.111 12.444l-2.133 11.182-2.667-11.182h-2.844l-2.649 11.182-2.151-11.182h-1.351c-2.613-3.253-6.649-5.333-11.093-5.333-7.858 0-14.222 6.364-14.222 14.222s6.364 14.222 14.222 14.222c5.564 0 10.382-3.218 12.711-7.876l0.178 0.764h3.111l2.667-10.844 2.667 10.844h3.111l3.644-16M12.178 22.489h4.089l-2.044-6.489-2.044 6.489z"></path>
</svg>
