<!-- Generated by IcoMoon.io -->
<svg version="1.1" xmlns="http://www.w3.org/2000/svg" width="43" height="32" viewBox="0 0 43 32">
<title>white-balance-sunny</title>
<path d="M6.311 32.96l2.507 2.507 3.2-3.182-2.524-2.524M19.556 39.911h3.556v-5.244h-3.556M21.333 9.778c-5.884 0-10.667 4.782-10.667 10.667s4.782 10.667 10.667 10.667 10.667-4.782 10.667-10.667c0-5.902-4.782-10.667-10.667-10.667M35.556 22.222h5.333v-3.556h-5.333M30.649 32.284l3.2 3.182 2.507-2.507-3.182-3.2M36.356 7.929l-2.507-2.507-3.2 3.182 2.524 2.524M23.111 0.978h-3.556v5.244h3.556M7.111 18.667h-5.333v3.556h5.333M12.018 8.604l-3.2-3.182-2.507 2.507 3.182 3.2 2.524-2.524z"></path>
</svg>
