<!-- Generated by IcoMoon.io -->
<svg version="1.1" xmlns="http://www.w3.org/2000/svg" width="43" height="32" viewBox="0 0 43 32">
<title>white-balance-incandescent</title>
<path d="M30.649 32.267l3.2 3.2 2.507-2.524-3.182-3.182M35.556 22.222h5.333v-3.556h-5.333M26.667 11.218v-8.551h-10.667v8.551c-3.182 1.849-5.333 5.28-5.333 9.227 0 5.884 4.782 10.667 10.667 10.667s10.667-4.782 10.667-10.667c0-3.947-2.151-7.378-5.333-9.227M7.111 18.667h-5.333v3.556h5.333M19.556 39.911h3.556v-5.244h-3.556M6.311 32.942l2.507 2.524 3.2-3.2-2.524-2.507-3.182 3.182z"></path>
</svg>
