<!-- Generated by IcoMoon.io -->
<svg version="1.1" xmlns="http://www.w3.org/2000/svg" width="43" height="32" viewBox="0 0 43 32">
<title>wifi</title>
<path d="M21.333 37.333l6.4-8.533c-1.778-1.333-4-2.133-6.4-2.133s-4.622 0.8-6.4 2.133l6.4 8.533M21.333 5.333c-7.2 0-13.849 2.382-19.2 6.4l3.2 4.267c4.444-3.342 9.991-5.333 16-5.333s11.556 1.991 16 5.333l3.2-4.267c-5.351-4.018-12-6.4-19.2-6.4M21.333 16c-4.8 0-9.227 1.582-12.8 4.267l3.2 4.267c2.667-2.009 5.991-3.2 9.6-3.2s6.933 1.191 9.6 3.2l3.2-4.267c-3.573-2.684-8-4.267-12.8-4.267z"></path>
</svg>
