<!-- Generated by IcoMoon.io -->
<svg version="1.1" xmlns="http://www.w3.org/2000/svg" width="43" height="32" viewBox="0 0 43 32">
<title>wifi-off</title>
<path d="M4.053 5.333l-2.276 2.258 2.613 2.613c-0.764 0.462-1.529 0.978-2.258 1.529l3.2 4.267c0.942-0.711 1.92-1.333 2.951-1.902l3.964 3.964c-1.316 0.604-2.578 1.333-3.716 2.204l3.2 4.267c1.387-1.031 2.951-1.831 4.622-2.364l4.533 4.498c-2.222 0.124-4.284 0.889-5.956 2.133l6.4 8.533 4.373-5.813 5.831 5.813 2.24-2.276M21.333 5.333c-3.822 0-7.467 0.676-10.844 1.902l4.249 4.267c2.151-0.551 4.32-0.836 6.596-0.836 6.009 0 11.556 1.973 16 5.333l3.2-4.267c-5.351-4.018-11.982-6.4-19.2-6.4M21.333 16c-0.676 0-1.333 0-1.991 0.089l5.671 5.689c2.169 0.498 4.196 1.458 5.92 2.756l3.2-4.267c-3.556-2.684-8-4.267-12.8-4.267z"></path>
</svg>
