<!-- Generated by IcoMoon.io -->
<svg version="1.1" xmlns="http://www.w3.org/2000/svg" width="43" height="32" viewBox="0 0 43 32">
<title>wii</title>
<path d="M31.716 30.116h-3.324v-10.933h3.324v10.933M32 15.253c0 1.084-0.889 1.973-1.956 1.973-1.084 0-1.973-0.889-1.973-1.973 0-1.102 0.889-1.991 1.973-1.991 1.067 0 1.956 0.889 1.956 1.991M38.791 30.116h-3.342v-10.933h3.342v10.933M39.111 15.253c0 1.084-0.889 1.973-1.991 1.973-1.084 0-1.973-0.889-1.973-1.973 0-1.102 0.889-1.991 1.973-1.991 1.102 0 1.991 0.889 1.991 1.991M22.933 14.311h3.556l-3.769 13.244s-0.498 2.738-2.667 2.738c-2.151 0-2.649-2.738-2.649-2.738l-2.382-8.64-2.382 8.64s-0.516 2.738-2.667 2.738-2.649-2.738-2.649-2.738l-3.769-13.244h3.556l3.058 11.769 2.471-9.547c0.569-2.4 2.382-2.364 2.382-2.364s1.813-0.036 2.382 2.364l2.453 9.547 3.076-11.769z"></path>
</svg>
