<!-- Generated by IcoMoon.io -->
<svg version="1.1" xmlns="http://www.w3.org/2000/svg" width="43" height="32" viewBox="0 0 43 32">
<title>wikipedia</title>
<path d="M26.613 33.689l-4.551-10.72c-1.813 3.538-3.804 7.253-5.511 10.72-0.018 0.018-0.836 0-0.836 0-2.613-6.133-5.316-12.178-7.947-18.258-0.604-1.493-2.738-3.876-4.213-3.876v-0.8h8.996v0.8c-1.067 0-2.88 0.711-2.418 1.867 1.28 2.738 5.76 13.351 6.987 16.053 0.836-1.671 3.2-6.080 4.213-7.947-0.8-1.564-3.324-7.431-4.071-8.889-0.569-0.96-2.009-1.084-3.111-1.084 0-0.267 0.018-0.444 0-0.782l7.929 0.018v0.711c-1.084 0.053-2.098 0.427-1.636 1.458 1.067 2.204 1.689 3.787 2.667 5.831 0.302-0.604 1.902-3.893 2.667-5.618 0.462-1.156-0.231-1.618-2.151-1.618 0.018-0.213 0.018-0.587 0.018-0.764 2.471-0.018 6.187-0.018 6.844-0.036v0.747c-1.262 0.053-2.56 0.729-3.236 1.76l-3.253 6.827c0.32 0.907 3.484 7.929 3.822 8.711l6.844-15.698c-0.533-1.28-2.062-1.547-2.667-1.547v-0.8l7.111 0.053v0.747c-1.564 0-2.542 0.889-3.111 2.222-1.422 3.182-5.778 13.316-8.622 19.911h-0.764z"></path>
</svg>
