<!-- Generated by IcoMoon.io -->
<svg version="1.1" xmlns="http://www.w3.org/2000/svg" width="43" height="32" viewBox="0 0 43 32">
<title>wordpress</title>
<path d="M21.689 27.556l-4.533 11.058c1.333 0.32 2.738 0.498 4.178 0.498 1.493 0 2.951-0.178 4.338-0.533M36.64 12.551c0.338 1.6 0.267 3.538-0.391 5.671-1.724 5.547-6.027 15.556-7.627 19.342 6.187-2.756 10.489-8.907 10.489-16.053 0-3.271-0.889-6.347-2.471-8.96M7.662 15.36s-0.871-1.138-1.778-1.138h-0.942c-0.889 2.009-1.387 4.658-1.387 7.111 0 7.271 4.444 13.529 10.88 16.196M5.564 12.693c2.969-5.529 8.907-9.138 15.769-9.138 4.444 0 8.498 1.884 11.609 4.551-0.889-0.178-1.831 0.018-2.844 0.587-2.293 1.316-3.040 5.013-0.071 6.88 1.867 1.156 2.524 4.053 2.453 5.831-0.053 1.76-4.302 9.902-4.302 9.902l-4.178-14.187s-0.107-0.996-0.107-1.28c0-0.356 0.107-0.8 0.338-1.067 0.16-0.16 0.391-0.551 0.658-0.551h1.973v-1.529h-10.667v1.529h0.338c0.356 0 0.693 0.516 1.013 0.836 0.391 0.409 0.889 1.92 1.476 3.484l1.547 5.102-3.342 7.698-3.662-15.396s0.107-1.067 0.338-1.244c0.142-0.124 0.32-0.48 0.622-0.48h0.089v-1.529h-9.049z"></path>
</svg>
