<!-- Generated by IcoMoon.io -->
<svg version="1.1" xmlns="http://www.w3.org/2000/svg" width="43" height="32" viewBox="0 0 43 32">
<title>worker</title>
<path d="M21.333 26.667c-7.858 0-14.222 3.182-14.222 7.111v3.556h28.444v-3.556c0-3.929-6.364-7.111-14.222-7.111M14.222 16c0 3.929 3.182 7.111 7.111 7.111s7.111-3.182 7.111-7.111M20.444 3.556c-0.533 0-0.889 0.373-0.889 0.889v5.333h-1.778v-4.444s-4 1.529-4 6.667c0 0-1.333 0.249-1.333 2.222h17.778c-0.089-1.973-1.333-2.222-1.333-2.222 0-5.138-4-6.667-4-6.667v4.444h-1.778v-5.333c0-0.516-0.338-0.889-0.889-0.889h-1.778z"></path>
</svg>
