<!-- Generated by IcoMoon.io -->
<svg version="1.1" xmlns="http://www.w3.org/2000/svg" width="43" height="32" viewBox="0 0 43 32">
<title>wunderlist</title>
<path d="M30.222 31.111l-8.889-4.444-8.889 4.444v-22.222h-3.556v24.889h24.889v-24.889h-3.556v22.222M21.333 22.080l4 2.4-1.067-4.533 3.538-3.058-4.693-0.409-1.778-4.284-1.778 4.284-4.693 0.409 3.538 3.058-1.067 4.533 4-2.4M8.889 5.333h24.889c1.956 0 3.556 1.6 3.556 3.556v24.889c0 1.956-1.6 3.556-3.556 3.556h-24.889c-1.956 0-3.556-1.6-3.556-3.556v-24.889c0-1.956 1.6-3.556 3.556-3.556z"></path>
</svg>
