<!-- Generated by IcoMoon.io -->
<svg version="1.1" xmlns="http://www.w3.org/2000/svg" width="43" height="32" viewBox="0 0 43 32">
<title>xbox-controller-battery-alert</title>
<path d="M37.333 33.778v-21.333h-10.667v21.333h10.667M38.524 8.889c1.298 0 2.364 1.067 2.364 2.364v23.716c0 1.298-1.067 2.364-2.364 2.364h-13.049c-1.298 0-2.364-1.067-2.364-2.364v-5.191h-9.333c-3.556 0-4.889 4-8.444 5.778-3.556 0-6.222-5.333 0.889-20.444h0.444l0.782-1.476s4.996-2.969 7.36-0.782h8.302v-1.6c0-1.298 1.067-2.364 2.364-2.364h2.969v-3.556h7.111v3.556h2.969M19.556 14.222c-0.978 0-1.778 0.8-1.778 1.778s0.8 1.778 1.778 1.778 1.778-0.8 1.778-1.778-0.8-1.778-1.778-1.778M30.222 16h3.556v8.889h-3.556v-8.889M30.222 26.667h3.556v3.556h-3.556v-3.556z"></path>
</svg>
