<!-- Generated by IcoMoon.io -->
<svg version="1.1" xmlns="http://www.w3.org/2000/svg" width="43" height="32" viewBox="0 0 43 32">
<title>xbox</title>
<path d="M11.431 6.613c0.124-0.107 0.249-0.213 0.338-0.284 2.773-1.796 6.009-2.773 9.564-2.773 3.342 0 6.471 0.889 9.138 2.524 0.196 0.142 0.711 0.48 0.996 0.818-2.578-2.844-10.133 3.236-10.133 3.236-2.667-2.009-5.031-3.378-6.827-3.911-1.511-0.373-2.542 0-3.022 0.356M34.382 9.262c-0.089-0.089-0.178-0.178-0.249-0.267-0.64-0.711-1.458-0.889-2.133-0.836-0.693 0.213-3.733 1.298-7.467 4.836 0 0 4.213 4.089 6.791 8.267s4.107 7.467 3.164 12.036c2.844-3.164 4.622-7.36 4.622-11.964 0-4.658-1.778-8.889-4.729-12.071M27.964 23.040c-1.156-1.28-2.844-3.111-5.102-5.351-0.48-0.48-0.996-0.978-1.529-1.511 0 0-0.836 0.818-1.902 1.902-1.369 1.369-3.129 3.164-4.124 4.213-1.742 1.867-6.756 7.733-7.040 11.022 0 0-1.156-2.596 1.333-8.622 1.6-3.929 6.4-9.831 8.444-11.751 0 0-1.831-2.027-4.142-3.431l-0.089-0.053c-1.12-0.658-2.329-1.173-3.502-1.244-1.191 0.089-1.938 0.96-1.938 0.96-2.987 3.182-4.818 7.449-4.818 12.16 0 9.813 7.964 17.778 17.778 17.778 5.209 0 9.902-2.24 13.156-5.813 0 0-0.373-2.364-2.773-5.742-0.551-0.764-2.613-3.218-3.751-4.516z"></path>
</svg>
