<!-- Generated by IcoMoon.io -->
<svg version="1.1" xmlns="http://www.w3.org/2000/svg" width="43" height="32" viewBox="0 0 43 32">
<title>xbox-controller-battery-unknown</title>
<path d="M38.524 8.889c1.298 0 2.364 1.067 2.364 2.364v23.716c0 1.298-1.067 2.364-2.364 2.364h-13.049c-1.298 0-2.364-1.067-2.364-2.364v-5.191h-9.333c-3.556 0-4.889 4-8.444 5.778-3.556 0-6.222-5.333 0.889-20.444h0.444l0.782-1.476s4.996-2.969 7.36-0.782h8.302v-1.6c0-1.298 1.067-2.364 2.364-2.364h2.969v-3.556h7.111v3.556h2.969M19.556 14.222c-0.978 0-1.778 0.8-1.778 1.778s0.8 1.778 1.778 1.778 1.778-0.8 1.778-1.778-0.8-1.778-1.778-1.778M32.338 14.222c-1.547 0-2.791 0.356-3.751 1.049-0.924 0.729-1.387 1.742-1.369 3.147l0.018 0.053h3.431c0.018-0.533 0.178-0.942 0.498-1.227 0.32-0.267 0.711-0.409 1.173-0.409 0.551 0 1.013 0.178 1.333 0.498 0.32 0.338 0.462 0.8 0.462 1.333 0 0.569-0.124 1.049-0.409 1.458-0.249 0.409-0.622 0.764-1.084 1.049-0.907 0.604-1.529 1.138-1.867 1.618-0.356 0.462-0.551 1.209-0.551 2.098h3.556c0-0.551 0.071-0.996 0.231-1.316s0.462-0.64 0.907-0.924c0.8-0.427 1.458-0.942 1.973-1.653s0.782-1.44 0.782-2.329c0-1.351-0.48-2.436-1.44-3.236-0.942-0.8-2.24-1.209-3.893-1.209M30.222 26.667v3.556h3.556v-3.556h-3.556z"></path>
</svg>
