<!-- Generated by IcoMoon.io -->
<svg version="1.1" xmlns="http://www.w3.org/2000/svg" width="43" height="32" viewBox="0 0 43 32">
<title>xbox-controller-off</title>
<path d="M3.556 9.369l2.276-2.258 29.724 29.724-2.258 2.276-11.076-11.111h-6.667c-3.556 0-4.889 4-8.444 5.778-3.556 0-6.222-5.262 0.747-20.107l-4.302-4.302M16.587 11.076h9.493c2.364-2.187 7.36 0.782 7.36 0.782l0.782 1.476h0.444c6.222 13.333 4.942 19.022 2.116 20.213l-23.236-23.236c1.12-0.124 2.222 0.018 3.040 0.764M21.333 12.444c-0.978 0-1.778 0.8-1.778 1.778s0.8 1.778 1.778 1.778 1.778-0.8 1.778-1.778-0.8-1.778-1.778-1.778z"></path>
</svg>
