<!-- Generated by IcoMoon.io -->
<svg version="1.1" xmlns="http://www.w3.org/2000/svg" width="43" height="32" viewBox="0 0 43 32">
<title>xbox-controller</title>
<path d="M15.556 28c-3.556 0-4.889 4-8.444 5.778-3.556 0-6.222-5.333 0.889-20.444h0.444l0.782-1.476s4.996-2.969 7.36-0.782h9.493c2.364-2.187 7.36 0.782 7.36 0.782l0.782 1.476h0.444c7.111 15.111 4.444 20.444 0.889 20.444-3.556-1.778-4.889-5.778-8.444-5.778h-11.556M21.333 12.444c-0.978 0-1.778 0.8-1.778 1.778s0.8 1.778 1.778 1.778 1.778-0.8 1.778-1.778-0.8-1.778-1.778-1.778z"></path>
</svg>
