<!-- Generated by IcoMoon.io -->
<svg version="1.1" xmlns="http://www.w3.org/2000/svg" width="43" height="32" viewBox="0 0 43 32">
<title>xda</title>
<path d="M-0.089 29.849l5.76-6.791-5.76-6.791 2.756-2.293 5.333 6.311 5.333-6.311 2.756 2.293-5.76 6.791 5.76 6.791-2.756 2.276-5.333-6.347-5.333 6.347-2.756-2.276M42.667 30.222c0 0.978-0.8 1.778-1.778 1.778h-5.333c-1.956 0-3.556-1.6-3.556-3.556v-3.556c0-1.956 1.6-3.556 3.556-3.556h3.556v-3.556h-7.111v-3.556h8.889c0.978 0 1.778 0.8 1.778 1.778M39.111 24.889h-3.556v3.556h3.556v-3.556M28.444 30.222c0 0.978-0.8 1.778-1.778 1.778h-5.333c-1.956 0-3.556-1.6-3.556-3.556v-10.667c0-1.956 1.6-3.556 3.556-3.556h3.556v-5.333h3.556v21.333M24.889 28.444v-10.667h-3.556v10.667h3.556z"></path>
</svg>
