<!-- Generated by IcoMoon.io -->
<svg version="1.1" xmlns="http://www.w3.org/2000/svg" width="43" height="32" viewBox="0 0 43 32">
<title>xing-circle</title>
<path d="M21.333 3.556c-9.813 0-17.778 7.964-17.778 17.778s7.964 17.778 17.778 17.778 17.778-7.964 17.778-17.778-7.964-17.778-17.778-17.778M28.178 10.667h3.36c0.213 0 0.356 0.071 0.462 0.213 0.071 0.142 0.071 0.32 0 0.516l-7.396 13.067 4.729 8.587c0.053 0.178 0.053 0.373 0 0.516-0.124 0.142-0.267 0.213-0.462 0.213h-3.342c-0.516 0-0.764-0.338-0.924-0.64l-4.747-8.676c0.249-0.462 7.431-13.156 7.431-13.156 0.178-0.32 0.391-0.64 0.889-0.64M13.333 15.236h3.36c0.498 0 0.747 0.32 0.907 0.622l2.293 4c-0.124 0.231-3.591 6.364-3.591 6.364-0.178 0.302-0.409 0.64-0.907 0.64h-3.342c-0.196 0-0.338-0.089-0.427-0.196-0.071-0.178-0.071-0.356 0-0.551l3.538-6.258-2.24-3.858c-0.107-0.231-0.124-0.409-0.036-0.551s0.249-0.213 0.444-0.213z"></path>
</svg>
