<!-- Generated by IcoMoon.io -->
<svg version="1.1" xmlns="http://www.w3.org/2000/svg" width="43" height="32" viewBox="0 0 43 32">
<title>xing-box</title>
<path d="M8.533 5.333c-1.778 0-3.2 1.422-3.2 3.2v25.6c0 1.778 1.422 3.2 3.2 3.2h25.6c1.778 0 3.2-1.422 3.2-3.2v-25.6c0-1.778-1.422-3.2-3.2-3.2M28.569 8.889h3.627c0.213 0 0.391 0.071 0.462 0.231 0.107 0.16 0.107 0.356 0 0.551l-7.947 14.080 5.067 9.244c0.107 0.196 0.107 0.391 0 0.551-0.089 0.142-0.249 0.231-0.444 0.231h-3.609c-0.551 0-0.836-0.373-0.996-0.693l-5.102-9.351 7.982-14.151c0.196-0.356 0.427-0.693 0.96-0.693M12.604 13.796h3.573c0.551 0 0.836 0.356 1.013 0.693l2.471 4.302c-0.16 0.249-3.876 6.844-3.876 6.844-0.196 0.338-0.444 0.693-0.996 0.693h-3.591c-0.213 0-0.373-0.089-0.462-0.249-0.071-0.142-0.071-0.356 0-0.551l3.804-6.738-2.418-4.213c-0.089-0.196-0.124-0.356-0.018-0.551 0.089-0.142 0.267-0.231 0.498-0.231z"></path>
</svg>
