<!-- Generated by IcoMoon.io -->
<svg version="1.1" xmlns="http://www.w3.org/2000/svg" width="43" height="32" viewBox="0 0 43 32">
<title>xing</title>
<path d="M31.413 3.556c-0.764 0-1.102 0.48-1.369 0.978 0 0-11.058 19.591-11.378 20.231l7.253 13.369c0.249 0.462 0.64 0.978 1.422 0.978h5.12c0.32 0 0.551-0.124 0.676-0.32 0.142-0.231 0.142-0.516 0-0.8l-7.236-13.244 11.36-20.071c0.142-0.284 0.142-0.569 0.018-0.8-0.142-0.196-0.373-0.32-0.693-0.32M9.867 10.578c-0.302 0-0.569 0.089-0.693 0.32-0.142 0.231-0.124 0.498 0.036 0.782l3.449 6.044-5.44 9.6c-0.107 0.284-0.107 0.569 0 0.8 0.124 0.213 0.356 0.32 0.658 0.32h5.138c0.764 0 1.138-0.498 1.404-0.978 0 0 5.316-9.404 5.529-9.778l-3.52-6.133c-0.249-0.462-0.64-0.978-1.44-0.978"></path>
</svg>
