<!-- Generated by IcoMoon.io -->
<svg version="1.1" xmlns="http://www.w3.org/2000/svg" width="43" height="32" viewBox="0 0 43 32">
<title>yammer</title>
<path d="M24.071 10.542l-7.751 19.876c-0.036 0.142-1.636 4.516-7.022 4.516-0.978 0-1.778-0.8-1.778-1.778 0-0.996 0.8-1.778 1.778-1.778 2.773 0 3.609-1.991 3.698-2.204l0.658-1.796-6.862-16.818c-0.356-0.907 0.071-1.956 0.978-2.311 0.907-0.373 1.956 0.053 2.329 0.978l5.458 13.387 5.209-13.369c0.356-0.924 1.387-1.369 2.347-1.013 0.889 0.356 1.333 1.387 0.96 2.311M32.889 11.342c-0.32 0-0.658 0.124-0.889 0.338 0 0-7.467 5.316-7.111 5.884 0.338 0.569 8.587-3.289 8.604-3.342 0.551-0.178 0.96-0.729 0.96-1.369 0-0.836-0.676-1.511-1.564-1.511M34.258 29.938c-0.178-0.302-0.48-0.533-0.782-0.676 0 0-8.284-3.858-8.587-3.289-0.338 0.587 7.111 5.884 7.111 5.884 0.444 0.391 1.12 0.462 1.671 0.142 0.729-0.409 0.996-1.333 0.587-2.062M37.28 20.302c-0.32-0.178-0.658-0.231-1.013-0.178 0 0-9.084 0.942-9.067 1.6s9.084 1.387 9.102 1.387c0.604 0.089 1.227-0.178 1.547-0.747 0.373-0.729 0.16-1.653-0.569-2.062z"></path>
</svg>
