<!-- Generated by IcoMoon.io -->
<svg version="1.1" xmlns="http://www.w3.org/2000/svg" width="43" height="32" viewBox="0 0 43 32">
<title>yeast</title>
<path d="M32 24.889c3.929 0 7.111 3.182 7.111 7.111s-3.182 7.111-7.111 7.111-7.111-3.182-7.111-7.111l0.16-1.511c-0.071-1.244-0.302-2.329-0.96-2.933-0.356-0.356-0.853-0.551-1.422-0.658-1.707 0.978-3.68 1.547-5.778 1.547-6.382 0-11.556-5.173-11.556-11.556s5.173-11.556 11.556-11.556 11.556 5.173 11.556 11.556c0 2.098-0.569 4.071-1.547 5.778 0.107 0.569 0.302 1.067 0.658 1.422 0.604 0.658 1.689 0.889 2.933 0.96l1.511-0.16M13.333 17.778c1.476 0 2.667 1.191 2.667 2.667s-1.191 2.667-2.667 2.667-2.667-1.191-2.667-2.667 1.191-2.667 2.667-2.667M16.889 8.889c-4.444 0-8 3.556-8 8s3.556 8 8 8 8-3.556 8-8-3.556-8-8-8z"></path>
</svg>
