<!-- Generated by IcoMoon.io -->
<svg version="1.1" xmlns="http://www.w3.org/2000/svg" width="43" height="32" viewBox="0 0 43 32">
<title>yelp</title>
<path d="M18.827 3.556c1.138 0 1.618 0.48 1.76 1.724l0.373 5.636 0.427 7.378c0.036 0.622-0.053 1.262-0.302 1.831-0.391 0.8-1.28 1.013-2.009 0.462-0.409-0.338-0.747-0.782-1.031-1.262l-6.631-11.236c-0.64-1.084-0.444-1.796 0.622-2.471 1.298-0.853 5.262-2.062 6.791-2.062M26.364 26.4l0.462 0.107 6.862 2.489c1.173 0.427 1.493 1.084 0.978 2.24-0.782 2.009-2.062 3.716-3.698 5.12-0.818 0.711-1.636 0.587-2.151-0.302l-4.036-7.040c-0.693-1.262 0.16-2.702 1.582-2.613M8 24.889c0-1.316 0-2.578 0.444-3.787 0.391-1.191 1.031-1.547 2.222-1.067l6.453 2.738c0.818 0.338 1.28 0.907 1.244 1.831-0.053 0.924-0.64 1.316-1.422 1.582l-6.542 2.151c-1.244 0.409-1.884 0.036-2.151-1.227-0.16-0.747-0.302-1.511-0.249-2.222M21.28 37.333c-0.036 1.44-0.658 1.991-2.062 1.778-1.849-0.356-3.556-1.067-5.067-2.204-0.747-0.569-0.907-1.44-0.356-2.187l4.818-6.329c0.409-0.533 0.996-0.658 1.636-0.409 0.676 0.249 1.031 0.782 1.031 1.511v7.84M25.689 23.68c-1.28 0.018-2.169-1.458-1.44-2.507 1.476-2.204 3.040-4.356 4.604-6.489 0.48-0.729 1.262-0.782 1.92-0.178 1.653 1.493 2.844 3.271 3.52 5.44 0.249 0.8-0.071 1.529-0.818 1.742l-6.649 1.724-1.138 0.267z"></path>
</svg>
