<!-- Generated by IcoMoon.io -->
<svg version="1.1" xmlns="http://www.w3.org/2000/svg" width="43" height="32" viewBox="0 0 43 32">
<title>yin-yang</title>
<path d="M21.333 3.556c9.813 0 17.778 7.964 17.778 17.778s-7.964 17.778-17.778 17.778-17.778-7.964-17.778-17.778 7.964-17.778 17.778-17.778M21.333 7.111c-7.858 0-14.222 6.364-14.222 14.222s6.364 14.222 14.222 14.222c-3.929 0-7.111-3.182-7.111-7.111s3.182-7.111 7.111-7.111 7.111-3.182 7.111-7.111-3.182-7.111-7.111-7.111M21.333 11.556c1.476 0 2.667 1.191 2.667 2.667s-1.191 2.667-2.667 2.667-2.667-1.191-2.667-2.667 1.191-2.667 2.667-2.667M21.333 25.778c-1.476 0-2.667 1.191-2.667 2.667s1.191 2.667 2.667 2.667 2.667-1.191 2.667-2.667-1.191-2.667-2.667-2.667z"></path>
</svg>
